<svg width="43" height="35" viewBox="0 0 43 35" fill="none" xmlns="http://www.w3.org/2000/svg">
<path d="M20.5781 9.19342C20.9214 8.37671 22.0786 8.37671 22.4219 9.19342L24.0611 13.0936C24.2054 13.4368 24.5284 13.6715 24.8994 13.7026L29.1152 14.0564C29.998 14.1305 30.3556 15.2311 29.6849 15.8099L26.4822 18.5741C26.2004 18.8174 26.077 19.1971 26.162 19.5596L27.1283 23.6783C27.3307 24.5408 26.3944 25.2211 25.6367 24.7621L22.0181 22.5703C21.6996 22.3774 21.3004 22.3774 20.9819 22.5703L17.3633 24.7621C16.6056 25.2211 15.6693 24.5408 15.8717 23.6783L16.838 19.5596C16.923 19.1971 16.7996 18.8174 16.5178 18.5741L13.3151 15.8099C12.6444 15.2311 13.002 14.1305 13.8848 14.0564L18.1006 13.7026C18.4716 13.6715 18.7946 13.4368 18.9389 13.0936L20.5781 9.19342Z" fill="#40340C"/>
</svg>
