<svg width="43" height="35" viewBox="0 0 43 35" fill="none" xmlns="http://www.w3.org/2000/svg">
<path d="M21.0391 9.38716C21.2107 8.9788 21.7893 8.9788 21.9609 9.38716L23.6002 13.2873C23.8166 13.8021 24.301 14.1541 24.8576 14.2008L29.0734 14.5546C29.5148 14.5917 29.6936 15.142 29.3582 15.4314L26.1555 18.1956C25.7328 18.5605 25.5477 19.13 25.6753 19.6738L26.6415 23.7925C26.7427 24.2238 26.2746 24.5639 25.8957 24.3344L22.2771 22.1427C21.7994 21.8533 21.2006 21.8533 20.7229 22.1427L17.1043 24.3344C16.7254 24.5639 16.2573 24.2238 16.3585 23.7925L17.3247 19.6738C17.4523 19.13 17.2672 18.5605 16.8445 18.1956L13.6418 15.4314C13.3064 15.142 13.4852 14.5917 13.9266 14.5546L18.1424 14.2008C18.699 14.1541 19.1834 13.8021 19.3998 13.2873L21.0391 9.38716Z" stroke="white" stroke-opacity="0.65"/>
</svg>
