<svg width="40" height="40" viewBox="0 0 40 40" fill="none" xmlns="http://www.w3.org/2000/svg">
<path fill-rule="evenodd" clip-rule="evenodd" d="M16.5836 7.4478C16.2971 7.8785 16.1741 8.08315 15.6381 9.02122C15.5019 9.25956 15.2263 9.73087 15.0255 10.0685C14.3329 11.2337 14.3203 11.4478 14.8816 12.5169C15.3298 13.3707 16.0048 14.6378 16.6207 15.7815C16.8517 16.2105 17.2417 16.9385 17.4874 17.3993C17.7331 17.8601 18.1234 18.5882 18.3547 19.0172C19.1188 20.4343 19.2208 20.6456 19.2208 20.8114C19.2208 21.0055 18.8072 21.5767 18.3104 22.0687C18.1279 22.2495 17.8615 22.5393 17.7185 22.7129C17.5755 22.8864 17.2245 23.2662 16.9385 23.557C16.6525 23.8477 16.2641 24.3004 16.0754 24.563C15.6322 25.1799 15.4923 25.5781 14.8269 28.1176C14.6686 28.7214 14.3803 29.8134 14.1863 30.5443C13.7935 32.0233 13.7161 32.6032 13.8784 32.8509C13.9756 32.9992 13.9806 33 14.7667 33H15.5572L15.7648 32.7833C16.0752 32.4594 16.1374 32.2973 16.5105 30.8416C17.5002 26.9802 17.4763 27.0611 17.7829 26.5553C17.9976 26.2009 18.4173 25.7453 18.8728 25.3722C19.0467 25.2297 19.64 24.6629 20.1911 24.1128C20.8359 23.4692 21.2278 23.1194 21.2903 23.1315C21.373 23.1476 21.3866 23.2239 21.3809 23.6406C21.3772 23.9102 21.3431 24.3387 21.305 24.593C21.267 24.8472 21.2122 25.2242 21.1832 25.4308C21.1543 25.6374 21.1038 25.9364 21.071 26.0953C21.0383 26.2542 20.9969 26.4882 20.9791 26.6153C20.9612 26.7424 20.8987 27.0544 20.8401 27.3086C20.7816 27.5629 20.7027 27.9269 20.6649 28.1176C20.5428 28.7325 20.3845 29.4165 20.0296 30.8621C19.6613 32.3631 19.6274 32.6301 19.7764 32.8576C19.8681 32.9975 19.8835 33 20.6646 33H21.4595L21.6961 32.7434C21.8261 32.6023 21.95 32.4138 21.9713 32.3245C21.9926 32.2352 22.2019 31.4082 22.4364 30.4866C23.0193 28.1957 23.8301 24.9444 23.9061 24.593C23.9404 24.4341 24.016 24.1351 24.0739 23.9285C24.1319 23.7219 24.2358 23.2929 24.3048 22.9751C24.3738 22.6573 24.4549 22.3007 24.4851 22.1827C24.5734 21.8376 24.556 20.6488 24.4573 20.2884C24.2709 19.6071 24.3292 19.7312 23.0096 17.2094C22.5066 16.248 22.4388 16.0269 22.5488 15.7059C22.5981 15.5621 23.0431 14.9355 23.6443 14.1637C25.1574 12.2209 25.4726 11.7355 25.7711 10.8888C25.8475 10.672 25.9681 10.3516 26.0389 10.1768C26.1097 10.002 26.2307 9.68049 26.3076 9.46225C26.3845 9.24402 26.4855 8.9918 26.532 8.90178C26.5786 8.8117 26.6167 8.58428 26.6167 8.39632C26.6167 7.98238 26.5041 7.81211 26.0929 7.60369C25.4607 7.2833 25.1741 7.49148 24.8048 8.53927C24.7281 8.7567 24.6074 9.07755 24.5366 9.25234C24.4658 9.42712 24.3456 9.74636 24.2697 9.96176C23.972 10.8059 23.4068 11.7866 22.9804 12.1991C22.8982 12.2786 22.7144 12.4866 22.5718 12.6614C22.17 13.1542 21.4078 13.8819 21.2016 13.9692C21.0619 14.0285 20.6706 14.0481 19.6253 14.0481C18.0898 14.0481 17.9972 14.0312 17.68 13.6938C17.4392 13.4377 16.9635 12.6576 16.6131 11.9443C16.2191 11.142 16.239 10.8155 16.7252 10.1048C17.2241 9.37575 17.9558 8.10297 18.0337 7.82886C18.1041 7.58145 17.4225 6.99787 17.0656 7.00001C16.8996 7.00105 16.8504 7.04675 16.5836 7.4478ZM19.2729 8.61346C18.679 8.83984 18.2475 9.2428 17.9991 9.80315C17.7009 10.4758 17.6945 11.0334 17.978 11.6502C18.3844 12.5346 19.1014 13.009 20.0289 13.0072C21.1828 13.005 22.0068 12.3032 22.2838 11.0869C22.3461 10.813 22.3461 10.6962 22.2838 10.4224C22.0032 9.19011 21.1753 8.4957 20.0009 8.50755C19.7103 8.51044 19.4399 8.54979 19.2729 8.61346Z" fill="#C1E704"/>
</svg>
