<svg width="40" height="40" viewBox="0 0 40 40" fill="none" xmlns="http://www.w3.org/2000/svg">
<path fill-rule="evenodd" clip-rule="evenodd" d="M20.3557 7.01112C20.3332 7.02123 20.2563 7.03014 20.1848 7.03093C20.1132 7.03171 20.0214 7.04088 19.9809 7.05132C19.9404 7.06174 19.8521 7.08202 19.7849 7.09637C19.6769 7.11945 19.5293 7.16782 19.2549 7.2702C18.889 7.40661 18.4046 7.78307 18.0919 8.17393C17.8831 8.43489 17.6973 8.77695 17.5896 9.09849C17.4783 9.43056 17.4429 9.66634 17.4434 10.0698C17.4438 10.3883 17.4653 10.6234 17.5086 10.7832C17.7289 11.5968 18.2148 12.2598 18.8981 12.6791C19.2082 12.8694 19.3958 12.9454 19.8334 13.058C20.0071 13.1027 20.0654 13.1072 20.4731 13.1072C20.7198 13.1072 20.9549 13.0988 20.9954 13.0885C21.036 13.0783 21.1196 13.0589 21.1813 13.0455C22.0403 12.8583 22.7868 12.2718 23.2097 11.4521C23.3613 11.1582 23.4679 10.841 23.5098 10.559C23.5559 10.2484 23.5332 9.59784 23.4678 9.35628C23.2379 8.50746 22.7578 7.8653 22.0273 7.42936C21.8394 7.31729 21.7652 7.28369 21.4768 7.18042C21.2322 7.0928 21.0722 7.05833 20.7838 7.03118C20.6716 7.02062 20.5386 7.00766 20.4882 7.00236C20.4377 6.99705 20.3781 7.00101 20.3557 7.01112ZM18.2764 14.6767C18.2539 14.6864 18.1967 14.695 18.1492 14.6958C18.1018 14.6966 18.0238 14.7063 17.976 14.7174C17.6315 14.7977 17.3827 14.8661 17.2877 14.9068C17.2484 14.9235 17.1659 14.9577 17.1042 14.9826C16.8519 15.0846 16.7352 15.1441 16.4379 15.3221C16.0384 15.5612 15.7601 15.7794 15.4085 16.1291C15.1227 16.4135 14.8049 16.8108 14.7054 17.0083C14.6765 17.0658 14.6346 17.1386 14.6125 17.17C14.5756 17.2222 14.5467 17.2888 14.4602 17.5206C14.4435 17.5654 14.403 17.703 14.3702 17.8263C14.1679 18.5872 14.1035 18.8354 14.0872 18.9169C14.0772 18.9674 14.0587 19.0408 14.0463 19.08C14.0217 19.1574 13.9132 19.5712 13.6586 20.558C13.3955 21.5781 13.3201 21.8563 13.277 21.9672C13.177 22.2242 12.9451 22.4637 12.6554 22.6091C12.5456 22.6642 12.4125 22.724 12.3598 22.7419C12.307 22.7598 11.2971 23.0162 10.1156 23.3116C8.93409 23.607 7.95457 23.8593 7.93894 23.8723C7.92328 23.8853 7.91052 23.92 7.91058 23.9495C7.91067 23.9951 8.04091 24.5361 8.14192 24.9102C8.15855 24.9719 8.18617 25.0819 8.20325 25.1548C8.22036 25.2277 8.24865 25.3424 8.26616 25.4096C8.28365 25.4769 8.33865 25.6971 8.38837 25.8989C8.43809 26.1007 8.49238 26.3163 8.50901 26.3779C8.52567 26.4396 8.5505 26.5451 8.56424 26.6124C8.59361 26.7563 8.63173 26.8265 8.68049 26.8263C8.71195 26.8262 9.16407 26.7157 9.45976 26.6358C9.52142 26.6191 9.6315 26.5915 9.70438 26.5744C9.77726 26.5573 9.89193 26.529 9.9592 26.5115C10.0265 26.494 10.2466 26.4389 10.4484 26.3889C10.6503 26.339 10.8704 26.284 10.9377 26.2666C11.005 26.2493 11.2251 26.1942 11.4269 26.1443C11.6287 26.0944 11.8489 26.0394 11.9162 26.0221C11.9834 26.0048 12.2311 25.9439 12.4666 25.8867C12.8407 25.7959 13.1121 25.7137 13.4302 25.5949C13.5645 25.5448 13.9363 25.3542 14.1202 25.2412C14.7773 24.8376 15.4982 24.1349 15.8608 23.5444C15.9774 23.3545 16.1284 23.0624 16.1766 22.9335C16.1934 22.8883 16.2219 22.8123 16.2398 22.7647C16.2818 22.6531 16.3284 22.4845 16.4516 21.9988C16.5661 21.5477 16.5913 21.4651 16.6142 21.4651C16.6232 21.4651 16.6361 21.4858 16.6429 21.511C16.6496 21.5362 16.6553 22.4048 16.6555 23.4412C16.6557 25.3234 16.6557 25.3257 16.6129 25.388C16.5893 25.4223 16.5309 25.4804 16.4831 25.517C16.4353 25.5536 16.3695 25.6086 16.337 25.6393C16.3045 25.6699 16.2276 25.7362 16.1661 25.7866C16.1047 25.8369 16.0314 25.9012 16.0034 25.9295C15.9754 25.9577 15.902 26.0219 15.8403 26.072C15.7787 26.1221 15.7145 26.1772 15.6976 26.1945C15.6808 26.2117 15.6166 26.2668 15.5549 26.3169C15.4933 26.3671 15.4199 26.4312 15.3919 26.4595C15.3638 26.4877 15.2904 26.5519 15.2288 26.6022C15.1671 26.6524 15.0937 26.7166 15.0657 26.7449C15.0377 26.7731 14.9643 26.8373 14.9026 26.8874C14.8409 26.9375 14.7767 26.9927 14.7599 27.0099C14.7431 27.0271 14.6789 27.0822 14.6172 27.1324C14.5556 27.1825 14.4822 27.2466 14.4541 27.2749C14.4261 27.3031 14.3527 27.3673 14.2911 27.4174C14.2294 27.4676 14.1652 27.5227 14.1484 27.5399C14.1315 27.5571 14.0673 27.6122 14.0057 27.6622C13.944 27.7123 13.8798 27.7673 13.863 27.7845C13.8461 27.8017 13.7819 27.8569 13.7203 27.9071C13.6586 27.9573 13.576 28.0306 13.5368 28.0699C13.4976 28.1092 13.415 28.1825 13.3533 28.2327C13.2917 28.2829 13.2275 28.3381 13.2106 28.3553C13.1938 28.3725 13.1296 28.4276 13.0679 28.4776C13.0063 28.5277 12.9421 28.5827 12.9252 28.5999C12.9084 28.6172 12.8442 28.6723 12.7826 28.7224C12.7209 28.7726 12.6475 28.8367 12.6195 28.8649C12.5914 28.8932 12.5181 28.9574 12.4564 29.0076C12.3947 29.0579 12.3213 29.1221 12.2933 29.1503C12.2653 29.1786 12.1919 29.2427 12.1302 29.2929C11.9942 29.4035 11.9683 29.4317 11.7652 29.6905C11.54 29.9775 11.4017 30.2625 11.3348 30.5773C11.3093 30.6974 11.3182 31.0952 11.3509 31.2908C11.382 31.477 11.5032 31.8002 11.6108 31.9838C11.7763 32.2661 12.1655 32.629 12.4721 32.7868C12.5708 32.8376 12.8987 32.9448 13.0272 32.9682C13.0918 32.98 13.7111 32.9919 14.4894 32.9963C15.8016 33.0038 15.8406 33.0029 15.8788 32.9646C15.917 32.9264 15.9183 32.8778 15.9207 31.3691C15.9229 29.9148 15.9256 29.8042 15.9612 29.6803C16.0833 29.2553 16.3097 28.9422 16.6718 28.6979C16.8343 28.5882 16.9443 28.5392 17.1705 28.4754C17.3308 28.4302 17.7916 28.4162 19.2243 28.4127C20.0377 28.4108 20.2713 28.4212 20.6512 28.476C20.7241 28.4865 20.8526 28.5049 20.9366 28.5169C21.1513 28.5475 21.3271 28.5755 21.3749 28.5868C21.3973 28.5921 21.4707 28.6073 21.538 28.6204C21.6053 28.6336 21.7337 28.6609 21.8234 28.6811C21.9131 28.7013 22.0369 28.7288 22.0986 28.7421C22.1603 28.7555 22.2703 28.7836 22.3432 28.8046C22.4161 28.8256 22.5445 28.8623 22.6286 28.8862C22.7127 28.91 23.0062 29.0016 23.2809 29.0897C23.8448 29.2705 24.3522 29.4278 24.8044 29.5618C24.8737 29.5824 24.905 29.6124 24.8816 29.6358C24.8739 29.6435 24.6735 29.6565 24.4362 29.6646C24.1988 29.6728 23.7753 29.6891 23.495 29.7009C23.2147 29.7127 22.756 29.7309 22.4757 29.7415C22.1954 29.7521 21.7368 29.7704 21.4565 29.7822C20.3791 29.8276 19.9905 29.8434 19.4485 29.8636C17.6693 29.9299 17.4783 29.9416 17.4503 29.9861C17.4386 30.0046 17.4309 30.5956 17.4307 31.4779C17.4304 32.7816 17.4338 32.9425 17.4625 32.9712C17.4917 33.0004 17.978 33.0027 22.6659 32.9963C26.0601 32.9917 27.8756 32.9822 27.9492 32.9686C28.0783 32.9446 28.4063 32.8373 28.5042 32.7868C28.8866 32.59 29.3337 32.126 29.4631 31.7916C29.629 31.3632 29.6485 31.2677 29.6485 30.8831C29.6485 30.5925 29.6269 30.4161 29.575 30.2817C29.5577 30.2369 29.5248 30.1515 29.5019 30.092C29.404 29.8373 29.1834 29.5488 28.9532 29.3743C28.8591 29.303 28.7481 29.212 28.7065 29.172C28.665 29.1321 28.5808 29.0582 28.5194 29.0078C28.4581 28.9575 28.3849 28.8932 28.3569 28.8649C28.3288 28.8367 28.2554 28.7726 28.1938 28.7224C28.1321 28.6723 28.0679 28.6172 28.0511 28.5999C28.0343 28.5827 27.9701 28.5276 27.9084 28.4775C27.8467 28.4273 27.7733 28.3632 27.7453 28.3349C27.7173 28.3067 27.6439 28.2425 27.5822 28.1922C27.5206 28.142 27.4472 28.0778 27.4191 28.0495C27.3911 28.0213 27.3177 27.9571 27.2561 27.9069C27.1944 27.8567 27.1394 27.8108 27.1337 27.8049C27.1281 27.799 27.0731 27.7531 27.0114 27.7029C26.9498 27.6527 26.8764 27.5885 26.8484 27.5603C26.8203 27.532 26.7469 27.4678 26.6853 27.4176C26.6236 27.3674 26.5502 27.3031 26.5222 27.2749C26.4942 27.2466 26.4208 27.1825 26.3591 27.1324C26.2974 27.0822 26.2332 27.0271 26.2164 27.0099C26.1996 26.9927 26.1354 26.9375 26.0737 26.8874C26.0121 26.8373 25.9387 26.7731 25.9106 26.7449C25.8826 26.7166 25.8092 26.6525 25.7476 26.6023C25.6859 26.5522 25.6217 26.4971 25.6049 26.4799C25.588 26.4626 25.5238 26.4075 25.4622 26.3574C25.4005 26.3072 25.3271 26.2431 25.2991 26.2149C25.271 26.1866 25.1977 26.1224 25.136 26.0722C25.0743 26.0219 25.0009 25.9577 24.9729 25.9295C24.9449 25.9012 24.8717 25.8369 24.8102 25.7866C24.7487 25.7362 24.6718 25.6699 24.6393 25.6393C24.6068 25.6086 24.5411 25.5536 24.4933 25.517C24.4455 25.4804 24.3871 25.4223 24.3635 25.388C24.3206 25.3257 24.3206 25.3234 24.3209 23.4412C24.321 22.4048 24.3267 21.5362 24.3334 21.511C24.3402 21.4858 24.3531 21.4651 24.3622 21.4651C24.3851 21.4651 24.4102 21.5477 24.5247 21.9988C24.647 22.4809 24.6947 22.6536 24.7347 22.7596C24.7517 22.8044 24.7801 22.8802 24.7978 22.9279C24.8528 23.0758 25.1369 23.6294 25.2238 23.7583C25.5756 24.2796 26.1321 24.8572 26.563 25.1482C26.7289 25.2603 26.9585 25.394 27.0777 25.4482C27.1421 25.4774 27.2464 25.5247 27.3094 25.5533C27.5197 25.6486 27.9414 25.7683 28.3467 25.8475C28.4139 25.8607 28.5194 25.8851 28.5811 25.9017C28.6428 25.9184 29.2987 26.0827 30.0386 26.2669C30.7786 26.4511 31.4391 26.6161 31.5064 26.6336C31.9735 26.7549 32.2656 26.8262 32.2958 26.8263C32.3446 26.8265 32.3827 26.7563 32.4121 26.6124C32.4258 26.5451 32.4507 26.4396 32.4673 26.3779C32.484 26.3163 32.5382 26.1007 32.588 25.8989C32.6377 25.6971 32.6927 25.4769 32.7102 25.4096C32.7277 25.3424 32.756 25.2277 32.7731 25.1548C32.7902 25.0819 32.8178 24.9719 32.8344 24.9102C32.9354 24.5361 33.0657 23.9951 33.0657 23.9495C33.0658 23.92 33.053 23.8853 33.0374 23.8723C32.9994 23.8408 28.7136 22.7699 28.6221 22.7691C28.5298 22.7683 28.2068 22.681 28.144 22.6399C28.0319 22.5665 27.8794 22.3847 27.8039 22.2346C27.7035 22.0351 27.6816 21.9698 27.571 21.5401C27.4035 20.8901 27.196 20.0914 27.0908 19.6916C27.0332 19.473 26.9143 19.0143 26.8264 18.6723C26.6566 18.0116 26.5781 17.714 26.5389 17.5817C26.4811 17.3872 26.216 16.9007 26.0365 16.66C25.738 16.2598 25.2101 15.7575 24.7839 15.4681C24.5452 15.306 24.1375 15.0888 23.8721 14.9823C23.8104 14.9575 23.7279 14.9235 23.6886 14.9068C23.6211 14.8779 23.5364 14.8527 23.179 14.7555C23.0949 14.7327 22.9527 14.7044 22.863 14.6928C22.6606 14.6664 18.335 14.6513 18.2764 14.6767Z" fill="#C1E704"/>
</svg>
