<svg width="40" height="40" viewBox="0 0 40 40" fill="none" xmlns="http://www.w3.org/2000/svg">
<path fill-rule="evenodd" clip-rule="evenodd" d="M19.6213 7.10616C19.1878 7.27307 19.0233 7.37704 18.7323 7.66803C18.4312 7.96914 18.1764 8.41075 18.1764 8.63164C18.1764 8.7074 18.1469 8.85403 18.1109 8.95748C17.987 9.31286 18.282 10.2016 18.6643 10.6248C19.06 11.0627 19.7381 11.3874 20.257 11.3874C20.491 11.3874 21.0069 11.2465 21.2762 11.1092C21.9307 10.7753 22.4515 9.92542 22.4515 9.1912C22.4515 8.37671 21.92 7.58972 21.0999 7.1899C20.7545 7.02149 20.6446 6.99577 20.2908 7.00051C20.0539 7.00369 19.7718 7.04825 19.6213 7.10616ZM19.7079 12.3685C19.6126 12.3963 19.3785 12.4488 19.1878 12.4852C18.3439 12.6464 17.454 13.0602 16.8873 13.5549C16.4327 13.9517 15.7359 15.0019 15.4898 15.6607C15.4417 15.7897 15.3601 16.0058 15.3085 16.141C15.0321 16.8648 14.8842 17.8181 14.8448 19.1296C14.8123 20.2145 14.8779 20.5517 15.191 20.9083C15.5129 21.275 16.1276 21.4351 16.4888 21.2464C16.5746 21.2016 16.7229 21.0829 16.8182 20.9828L16.9916 20.8006L17.0292 19.4027C17.0499 18.6339 17.0918 17.8618 17.1225 17.687C17.222 17.1192 17.3146 16.7772 17.3985 16.6675C17.4699 16.574 17.4883 16.5713 17.5391 16.6467C17.5992 16.7358 17.5766 28.2995 17.5112 30.9247C17.4792 32.2128 17.4803 32.2302 17.6108 32.4229C17.6835 32.5302 17.86 32.7027 18.003 32.8063C18.2284 32.9697 18.3114 32.9953 18.6255 32.9986C19.0077 33.0027 19.2836 32.8813 19.5657 32.5851C19.9536 32.1778 19.9635 32.0925 20.0301 28.5812C20.0764 26.1391 20.1593 23.4031 20.1882 23.3652C20.1942 23.3573 20.2512 23.3508 20.3148 23.3508C20.3784 23.3508 20.436 23.3573 20.443 23.3652C20.4499 23.3732 20.4755 24.6671 20.4998 26.2405C20.5599 30.1192 20.6228 31.8868 20.7099 32.1482C20.9414 32.8423 21.874 33.2235 22.4505 32.8596C22.9786 32.5262 23.1738 32.1372 23.1179 31.5287C23.0363 30.6377 22.8755 16.7655 22.9436 16.4877C22.9612 16.4162 23.0005 16.3577 23.0311 16.3577C23.1639 16.3577 23.4052 17.0498 23.5246 17.7736C23.5455 17.9008 23.5796 18.6339 23.6003 19.4027L23.638 20.8006L23.8113 20.9828C24.0449 21.2282 24.2516 21.328 24.5261 21.328C25.0607 21.328 25.5396 20.9515 25.7152 20.3931C25.8696 19.9021 25.801 18.2058 25.5823 17.109C25.4659 16.5254 25.4466 16.4629 25.1241 15.6244C24.5158 14.0435 23.182 12.8397 21.7018 12.5359C20.9134 12.374 19.9629 12.2942 19.7079 12.3685Z" fill="#C1E704"/>
</svg>
