<svg width="40" height="40" viewBox="0 0 40 40" fill="none" xmlns="http://www.w3.org/2000/svg">
<path fill-rule="evenodd" clip-rule="evenodd" d="M17.195 7.28141C17.9605 7.67717 18.2394 8.14983 18.24 9.05198C18.2408 10.2533 17.4892 11.0263 16.3204 11.0263C15.1465 11.0263 14.4003 10.2543 14.4003 9.03982C14.4003 8.14184 14.7141 7.62127 15.4814 7.24636C16.1718 6.90913 16.4873 6.91556 17.195 7.28141ZM20.7005 10.075C21.6994 10.2113 23.7602 10.9936 24.5011 11.5175C25.0095 11.8772 25.2659 13.0208 25.3978 15.5158C25.4568 16.6317 25.4422 16.7467 25.2112 16.9761C24.8928 17.2924 24.8082 17.2884 24.3994 16.9392C24.0437 16.6352 24.0743 16.7837 23.7906 13.9811C23.7394 13.4754 23.6411 13.0056 23.5721 12.937C23.3939 12.76 22.0767 12.3112 21.7299 12.3093C21.2325 12.3067 21.1205 12.6222 21.1205 14.0275C21.1205 15.3822 21.1577 15.613 21.6841 17.523C22.0328 18.7884 22.0403 18.9844 21.9309 23.8934L21.9005 25.2573L22.8006 25.8996C23.2956 26.2529 24.4957 27.074 25.4674 27.7244C27.681 29.2058 28.0097 29.7114 27.2499 30.4661C26.9751 30.7391 26.7915 30.8146 26.402 30.8146C25.8044 30.8146 25.64 30.7332 24.4806 29.8627C23.9856 29.491 23.1486 28.9025 22.6206 28.5547C21.0438 27.5163 19.726 26.4954 19.455 26.1026C19.2297 25.7761 19.2005 25.5658 19.2005 24.2768C19.2005 22.8294 19.0266 21.9933 18.7256 21.9933C18.5997 21.9933 18.1477 22.8877 17.4002 24.6158C17.1874 25.1076 16.7494 26.0865 16.4268 26.7914C16.1043 27.4962 15.5765 28.6494 15.2539 29.3543C14.9313 30.0592 14.4885 31.0253 14.2699 31.5016C13.8258 32.4692 13.5355 32.7964 12.9818 32.9542C12.5043 33.0902 11.8048 32.9082 11.6417 32.6053C11.4407 32.2322 11.5043 31.3335 11.7745 30.7284C11.9145 30.4152 12.2385 29.6896 12.4946 29.1159C12.7508 28.5423 13.1763 27.59 13.4403 27C13.7043 26.4099 14.1363 25.4443 14.4003 24.8543C14.6643 24.2642 15.0907 23.3121 15.3479 22.7383C15.605 22.1647 15.9227 21.4271 16.0539 21.0992C16.185 20.7714 16.4017 20.235 16.5354 19.9072C16.6692 19.5794 16.8916 19.033 17.0296 18.6931C17.2148 18.2366 17.2804 17.8127 17.2804 17.0729C17.2804 16.2008 17.2343 15.9794 16.9246 15.3637C16.5341 14.5875 16.1571 14.1257 15.9137 14.1257C15.8273 14.1257 15.3082 14.5517 14.7603 15.0723C14.2124 15.593 13.6052 16.0843 13.411 16.1642C12.8714 16.3863 12.4556 16.188 12.2547 15.613C11.9268 14.6739 11.6503 11.0955 11.8737 10.6809C12.0455 10.3619 12.3795 10.3604 12.6681 10.6772C12.8801 10.9099 12.932 11.1599 13.1549 13.0205C13.2721 13.9979 13.445 14.021 14.1052 13.1476C14.9532 12.0259 15.0253 11.9801 15.9437 11.9787C16.9078 11.9773 17.6803 11.6499 18.4804 10.9034C19.4022 10.0434 19.688 9.93685 20.7005 10.075Z" fill="#C1E704"/>
</svg>
