<svg width="42" height="42" viewBox="0 0 42 42" fill="none" xmlns="http://www.w3.org/2000/svg">
<path d="M34.6265 1C34.2542 2.61132 34.1979 6.09364 35.2968 8.19473C36.3725 10.2513 38.5873 13.35 40.7448 15.6847C40.9051 15.8581 41.0062 16.0806 40.9967 16.3165C40.9415 17.6949 40.1667 19.8862 37.3077 19.8862C36.8981 20.5981 36.6821 23.0339 38.6483 25.2822C38.6111 26.3689 38.1121 28.0927 36.8609 28.0927C37.8663 28.4299 38.5143 32.0048 35.2968 32.3645C35.1455 32.532 35.025 32.838 34.9951 33.3475C34.8495 35.8298 35.4202 38.6631 33.3639 40.0613C32.1448 40.8902 30.4474 41.3442 28.2587 40.6834C22.6729 38.9972 2.00544 36.0743 1 26.8561" stroke="white" stroke-width="2" stroke-linecap="round" stroke-linejoin="round"/>
<path d="M38.6483 25.2822C37.9408 25.2822 36.0565 25.5295 34.1797 26.5188C32.3029 27.5081 31.6102 27.4182 31.6102 27.4182C32.0943 28.8421 33.5094 31.9149 35.2969 32.3645" stroke="white" stroke-width="2"/>
<path d="M37.6976 27.1337C36.6549 27.5085 33.1853 28.4827 31.4872 27.1337" stroke="white" stroke-width="2"/>
<path d="M10.0333 12.3625C10.4679 16.1839 12.8084 21.5512 19.0665 24.8612" stroke="white" stroke-width="2" stroke-linecap="round" stroke-linejoin="round"/>
</svg>
