<svg width="30" height="45" viewBox="0 0 30 45" fill="none" xmlns="http://www.w3.org/2000/svg">
<g clip-path="url(#clip0)">
<path d="M18.2807 32.5851C18.8844 32.537 24.4062 33.8973 25.6421 32.6782C27.6102 30.7369 25.4087 26.215 27.0123 25.3273C27.6037 25 27.1864 25 27.6037 25C28.2457 25 27.1037 25 28.1037 25C28.1037 25 28.4988 24.6674 28.3914 24.5848C28.4784 24.5412 28.5704 24.4952 28.6694 24.4458C29.5445 24.0097 29.8621 22.9162 29.3511 22.0801C27.4025 18.8924 27.0198 17.5007 27.0897 17.2101C27.4036 15.9558 28.2367 11.8389 26.5337 9.02219C27.7353 7.92741 28.7702 6.39999 29.3494 4.22626C29.473 3.76253 29.0704 3.32537 28.5975 3.4119C28.5367 3.42297 22.4669 4.47896 17.049 1.39548C11.0522 -2.01763 2.45771 0.929204 0.44662 9.15047C-1.71391 17.9827 4.61216 24.6542 5.62533 28.3364C5.32129 31.4566 3.86178 34.3162 1.28435 36.8373C0.924622 37.1892 1.07914 37.8021 1.5665 37.9383C5.81045 39.1242 12.8469 41.2271 13.6612 41.8211C13.9219 42.0113 14.2399 42.0522 14.5342 41.9324C15.0458 41.7239 15.5167 41.0598 16.1513 38.4962C17.2895 33.8983 16.848 33.3901 17.6348 32.8228C17.8778 32.8633 18.1228 32.7721 18.2807 32.5851ZM2.04532 17.5014C0.194086 11.4458 1.89309 4.64775 7.69843 2.14709C10.5691 0.910504 13.821 1.06831 16.3999 2.53602C20.9087 5.10213 25.702 5.02749 27.7797 4.83713C25.7959 10.1491 20.3932 10.2603 18.6411 11.0681C17.7531 11.4775 17.3051 12.7959 17.1888 15.3429C17.1109 17.0465 17.2108 18.8747 17.2851 19.8954C16.9877 19.8559 16.7204 19.6839 16.5596 19.4284C16.4423 19.2422 15.6911 17.3356 14.0946 16.4328C13.3461 15.3631 11.7975 14.4846 10.5919 14.9097C9.45665 15.3099 9.04779 16.7202 9.0733 17.917C7.48863 20.1939 6.9154 24.2036 6.51982 26.942C5.48812 24.4967 3.22351 21.3551 2.04532 17.5014ZM13.5185 22.0253C13.5185 22.2712 13.3455 22.3813 13.2711 22.4173C12.9971 22.5496 12.8257 22.3761 12.6704 22.2456C11.1644 20.9702 9.90415 18.5669 10.5599 16.7422C11.1361 15.1405 13.5185 16.8041 13.5185 18.7818V22.0253ZM15.8268 33.4305C15.063 37.9705 14.4343 39.9519 14.1006 40.5667C12.3049 39.6648 5.84121 37.7853 2.97803 36.9726C4.95869 34.8019 6.21652 32.405 6.73176 29.8214C8.27067 29.6938 7.37232 24.7504 9.47421 19.9161C9.9778 21.272 10.9028 22.5227 12.0046 23.3968C13.1563 24.3106 14.8309 23.4593 14.8309 22.0252V18.9877C15.0081 19.2668 15.1683 19.5663 15.3065 19.8649C15.6864 20.6858 16.5146 21.2162 17.4165 21.2162C18.1142 21.2162 18.6561 20.6211 18.6042 19.9361C18.4954 18.5031 18.4344 16.8333 18.4998 15.4026C18.6302 12.5504 19.185 12.2622 19.1907 12.2597C20.1265 11.8281 22.9925 11.5548 25.4955 9.84467C26.575 11.7774 26.3538 14.745 25.8167 16.8915C25.7323 17.2289 25.4753 18.2557 28.2314 22.7645C28.3405 22.9431 28.2733 23.1771 28.0841 23.2713C27.6412 23.4921 27.3163 23.6567 27.0757 23.7807C27.0438 23.7657 27.0123 23.7499 26.9803 23.7353C26.6037 24 26.4665 24 26.003 24.475C24.2573 26.2643 26.1001 30.3541 24.7301 31.7346C24.6525 31.7803 23.7726 32.2 18.8477 31.3092C18.6526 31.2739 18.4572 31.2617 18.264 31.2703C18.0404 31.5632 18.264 31.2703 18.1037 31.5C17.9434 31.7297 17.6037 31.5 17.6037 31.5C17.6037 31.5 17.1312 31.5785 16.9288 31.7154C16.3332 32.1184 15.9443 32.7319 15.8268 33.4305Z" fill="white"/>
<path d="M23.9909 40.0419C23.983 39.9383 23.9642 39.8358 23.9357 39.7355L26.1474 39.5675C26.9996 39.5027 27.6382 38.7592 27.5734 37.9069C27.5087 37.0545 26.7651 36.4161 25.9128 36.4808L23.7202 36.6475C23.723 36.5849 23.7234 36.5223 23.7187 36.4599C23.6886 36.0649 23.508 35.6814 23.1837 35.403C22.5352 34.8461 21.558 34.9204 21.0011 35.5688L19.4027 37.4303C19.1098 37.7712 18.9931 38.2029 19.041 38.6167C19.0563 39.0331 19.2368 39.4422 19.5778 39.735L21.4391 41.3333C22.0876 41.8902 23.0647 41.816 23.6217 41.1674C23.9002 40.8431 24.0209 40.4368 23.9909 40.0419Z" fill="white"/>
</g>
<defs>
<clipPath id="clip0">
<rect width="30" height="45" fill="white"/>
</clipPath>
</defs>
</svg>
