<svg width="37" height="42" viewBox="0 0 37 42" fill="none" xmlns="http://www.w3.org/2000/svg">
<path d="M18.677 32.585C19.2807 32.537 24.8025 33.8973 26.0384 32.6782C28.0065 30.7369 25.805 26.215 27.4086 25.3273C28 25 27.5827 25 28 25C28.642 25 27.5 25 28.5 25C28.5 25 28.8951 24.6674 28.7877 24.5848C28.8747 24.5412 28.9667 24.4952 29.0657 24.4458C29.9408 24.0097 30.2584 22.9162 29.7474 22.0801C27.7988 18.8924 27.4161 17.5007 27.486 17.2101C27.7999 15.9558 28.633 11.8389 26.93 9.02218C28.1316 7.9274 29.1665 6.39997 29.7457 4.22624C29.8693 3.76251 29.4667 3.32535 28.9938 3.41188C28.933 3.42296 22.8632 4.47894 17.4453 1.39546C11.4485 -2.01765 2.85401 0.92919 0.84292 9.15046C-1.31761 17.9827 5.00846 24.6542 6.02164 28.3364C5.71759 31.4566 4.25808 34.3162 1.68065 36.8373C1.32092 37.1891 1.47544 37.8021 1.9628 37.9383C6.20675 39.1242 13.2432 41.2271 14.0575 41.8211C14.3182 42.0113 14.6362 42.0522 14.9305 41.9323C15.4421 41.7239 15.913 41.0597 16.5476 38.4962C17.6858 33.8982 17.2443 33.3901 18.0311 32.8228C18.2741 32.8633 18.5191 32.7721 18.677 32.585ZM2.44162 17.5014C0.590386 11.4457 2.28939 4.64773 8.09473 2.14708C10.9655 0.910489 14.2173 1.06829 16.7962 2.53601C21.305 5.10212 26.0983 5.02748 28.176 4.83711C26.1922 10.1491 20.7895 10.2603 19.0374 11.068C18.1494 11.4775 17.7014 12.7958 17.5851 15.3428C17.5072 17.0464 17.6071 18.8747 17.6814 19.8953C17.384 19.8559 17.1167 19.6839 16.9559 19.4284C16.8386 19.2421 16.0874 17.3356 14.4909 16.4328C13.7424 15.3631 12.1938 14.4846 10.9883 14.9097C9.85295 15.3099 9.44409 16.7202 9.4696 17.917C7.88493 20.1939 7.3117 24.2036 6.91613 26.9419C5.88442 24.4966 3.61981 21.3551 2.44162 17.5014ZM13.9148 22.0253C13.9148 22.2712 13.7419 22.3813 13.6674 22.4172C13.3934 22.5495 13.222 22.3761 13.0667 22.2456C11.5607 20.9702 10.3004 18.5669 10.9562 16.7422C11.5324 15.1405 13.9148 16.8041 13.9148 18.7818V22.0253ZM16.2231 33.4305C15.4593 37.9705 14.8306 39.9518 14.4969 40.5667C12.7012 39.6648 6.23751 37.7853 3.37433 36.9726C5.35499 34.8018 6.61282 32.405 7.12806 29.8214C8.66697 29.6937 7.76863 24.7504 9.87051 19.9161C10.3741 21.272 11.2991 22.5226 12.4009 23.3968C13.5526 24.3106 15.2272 23.4593 15.2272 22.0252V18.9877C15.4044 19.2668 15.5646 19.5663 15.7028 19.8649C16.0827 20.6858 16.9109 21.2162 17.8128 21.2162C18.5105 21.2162 19.0524 20.6211 19.0005 19.9361C18.8917 18.5031 18.8307 16.8333 18.8961 15.4026C19.0265 12.5504 19.5813 12.2622 19.587 12.2597C20.5228 11.8281 23.3888 11.5547 25.8918 9.84466C26.9713 11.7773 26.7501 14.745 26.213 16.8915C26.1286 17.2289 25.8716 18.2557 28.6277 22.7645C28.7368 22.9431 28.6696 23.1771 28.4804 23.2713C28.0375 23.4921 27.7126 23.6567 27.472 23.7807C27.4401 23.7657 27.4086 23.7499 27.3766 23.7353C27 24 26.8628 24 26.3993 24.475C24.6536 26.2643 26.4964 30.3541 25.1264 31.7346C25.0488 31.7803 24.1689 32.2 19.244 31.3092C19.0489 31.2739 18.8535 31.2617 18.6603 31.2703C18.4367 31.5632 18.6603 31.2703 18.5 31.5C18.3397 31.7297 18 31.5 18 31.5C18 31.5 17.5275 31.5785 17.3251 31.7154C16.7295 32.1184 16.3406 32.7319 16.2231 33.4305Z" fill="white"/>
<path d="M32.942 33.2326C32.94 33.1288 32.9271 33.0253 32.9045 32.9236L35.1221 32.8825C35.9767 32.8667 36.6567 32.161 36.6409 31.3063C36.6251 30.4517 35.9193 29.7716 35.0647 29.7875L32.8662 29.8282C32.8725 29.766 32.8765 29.7035 32.8754 29.641C32.868 29.2449 32.7097 28.8516 32.4018 28.5552C31.7862 27.962 30.8064 27.9802 30.2133 28.5957L28.5108 30.3625C28.199 30.6861 28.0578 31.1104 28.0819 31.5263C28.0733 31.9428 28.23 32.3616 28.5537 32.6734L30.3204 34.3758C30.936 34.9689 31.9158 34.9507 32.5089 34.3352C32.8055 34.0274 32.9493 33.6285 32.942 33.2326Z" fill="white"/>
</svg>
