<svg width="35" height="42" viewBox="0 0 35 42" fill="none" xmlns="http://www.w3.org/2000/svg">
<path d="M26.5724 25.9778V26.9778H27.5724H27.5733H27.5742H27.5751H27.576H27.5768H27.5777H27.5786H27.5795H27.5803H27.5812H27.5821H27.5829H27.5838H27.5847H27.5855H27.5864H27.5872H27.5881H27.589H27.5898H27.5907H27.5915H27.5924H27.5932H27.5941H27.5949H27.5958H27.5966H27.5974H27.5983H27.5991H27.6H27.6008H27.6016H27.6025H27.6033H27.6041H27.605H27.6058H27.6066H27.6074H27.6083H27.6091H27.6099H27.6107H27.6115H27.6123H27.6132H27.614H27.6148H27.6156H27.6164H27.6172H27.618H27.6188H27.6196H27.6204H27.6212H27.622H27.6228H27.6236H27.6244H27.6252H27.626H27.6268H27.6275H27.6283H27.6291H27.6299H27.6307H27.6314H27.6322H27.633H27.6338H27.6345H27.6353H27.6361H27.6369H27.6376H27.6384H27.6392H27.6399H27.6407H27.6414H27.6422H27.6429H27.6437H27.6445H27.6452H27.646H27.6467H27.6474H27.6482H27.6489H27.6497H27.6504H27.6512H27.6519H27.6526H27.6534H27.6541H27.6548H27.6556H27.6563H27.657H27.6577H27.6585H27.6592H27.6599H27.6606H27.6613H27.662H27.6628H27.6635H27.6642H27.6649H27.6656H27.6663H27.667H27.6677H27.6684H27.6691H27.6698H27.6705H27.6712H27.6719H27.6726H27.6733H27.674H27.6746H27.6753H27.676H27.6767H27.6774H27.6781H27.6787H27.6794H27.6801H27.6807H27.6814H27.6821H27.6828H27.6834H27.6841H27.6847H27.6854H27.6861H27.6867H27.6874H27.688H27.6887H27.6893H27.69H27.6906H27.6913H27.6919H27.6926H27.6932H27.6939H27.6945H27.6951H27.6958H27.6964H27.697H27.6977H27.6983H27.6989H27.6995H27.7002H27.7008H27.7014H27.702H27.7026H27.7033H27.7039H27.7045H27.7051H27.7057H27.7063H27.7069H27.7075H27.7081H27.7087H27.7093H27.7099H27.7105H27.7111H27.7117H27.7123H27.7129H27.7135H27.7141H27.7146H27.7152H27.7158H27.7164H27.717H27.7175H27.7181H27.7187H27.7193H27.7198H27.7204H27.721H27.7215H27.7221H27.7226H27.7232H27.7238H27.7243H27.7249H27.7254H27.726H27.7265H27.7271H27.7276H27.7282H27.7287H27.7292H27.7298H27.7303H27.7309H27.7314H27.7319H27.7324H27.733H27.7335H27.734H27.7346H27.7351H27.7356H27.7361H27.7366H27.7371H27.7377H27.7382H27.7387H27.7392H27.7397H27.7402H27.7407H27.7412H27.7417H27.7422H27.7427H27.7432H27.7437H27.7442H27.7447H27.7452H27.7456H27.7461H27.7466H27.7471H27.7476H27.748H27.7485H27.749H27.7495H27.7499C27.7521 26.9783 27.7545 26.9789 27.757 26.9796C27.7896 26.9881 27.8321 27.0046 27.8719 27.033L27.8736 27.0343C27.908 27.0586 28.0964 27.192 28.0964 27.7686V29.5115V38.9336C28.015 39.0061 27.8757 39.1104 27.6507 39.2262C27.0047 39.5587 25.6637 39.9791 23.0405 39.9992L23.04 39.9992C20.4226 40.0204 19.0915 39.5989 18.4546 39.263C18.2197 39.1391 18.079 39.0268 18 38.9513V27.8527C18.0059 27.8227 18.0146 27.7819 18.0268 27.7336C18.0582 27.6096 18.1071 27.4568 18.177 27.3147C18.3315 27.0008 18.4491 26.9778 18.5245 26.9778H19.5245V25.9778V25.8477H20.2372V24.8477V14.6362H20.7608V13.6362V10.0319C21.7126 9.90623 22.6317 9.31909 23.3666 8.71775C24.083 8.13155 24.7649 7.41381 25.334 6.71703V13.6362V14.6362H25.8575V24.8477V25.8477H26.5724V25.9778ZM17.9905 27.9064C17.9904 27.9069 17.9905 27.9058 17.9909 27.9034L17.9907 27.9045L17.9905 27.9064Z" stroke="white" stroke-width="2"/>
<path d="M23.6453 4.63988L23.6453 4.63992C22.8396 5.70373 21.9865 6.52374 21.2864 6.99927C21.0349 7.17008 20.8267 7.28034 20.6664 7.34548C20.6856 7.17941 20.7334 6.95767 20.8255 6.68013C21.0896 5.88435 21.6449 4.84507 22.451 3.78091L22.4511 3.78074C23.2566 2.71695 24.1097 1.89699 24.8098 1.4215C25.0613 1.25066 25.2696 1.1404 25.4299 1.07526C25.4107 1.24134 25.3629 1.46307 25.2708 1.7406C25.0067 2.5364 24.4513 3.5757 23.6453 4.63988ZM20.3921 7.42112C20.3922 7.42096 20.3949 7.42082 20.3997 7.42119C20.3944 7.42146 20.392 7.42128 20.3921 7.42112ZM20.6651 7.62327C20.6666 7.62754 20.6671 7.62994 20.667 7.63007C20.6669 7.63021 20.6661 7.62808 20.6651 7.62327ZM25.7042 0.999656C25.7041 0.999817 25.7014 0.999955 25.6966 0.999589C25.7019 0.999312 25.7043 0.999496 25.7042 0.999656ZM25.4313 0.797439C25.4297 0.793174 25.4292 0.790771 25.4293 0.790636C25.4294 0.790501 25.4302 0.792633 25.4313 0.797439Z" stroke="white" stroke-width="2"/>
<path d="M30.8664 32.7024V27.6734C30.8664 26.7179 30.609 25.9452 30.1692 25.3578C29.9242 25.0306 29.6378 24.7813 29.3424 24.5957V23.9926V22.9926H28.6279V14.3033C28.6279 13.6077 28.4578 12.9921 28.104 12.5352V10.9822C28.1772 10.954 28.2715 10.9225 28.3895 10.8903C28.9131 10.7474 29.6927 10.6466 30.5931 10.6466C31.4946 10.6466 32.2745 10.7475 32.7981 10.8903C32.916 10.9225 33.0102 10.954 33.0833 10.9821V31.9236C33.007 31.9911 32.9008 32.0732 32.7594 32.1588C32.4108 32.3699 31.8148 32.6222 30.8664 32.7024ZM33.2883 11.0838C33.2878 11.0838 33.2829 11.0805 33.2748 11.0736C33.2847 11.0803 33.2888 11.0837 33.2883 11.0838ZM27.8989 11.0839C27.8984 11.0839 27.9025 11.0804 27.9125 11.0737C27.9043 11.0806 27.8994 11.084 27.8989 11.0839Z" stroke="white" stroke-width="2"/>
<path d="M17.7155 34.698L8.70881 38.2705C8.03419 38.5381 7.72591 38.9095 7.63984 39.2581L5.4583 40.1234C4.96997 40.3171 3.99716 39.0216 3.28696 37.2312C2.57593 35.4386 2.39665 33.8296 2.88494 33.6358L18 27.5" stroke="white" stroke-width="2"/>
</svg>
