<?xml version="1.0" encoding="iso-8859-1"?>
<!-- Generator: Adobe Illustrator 19.0.0, SVG Export Plug-In . SVG Version: 6.00 Build 0)  -->
<svg version="1.1" fill="#fff" id="Capa_1" xmlns="http://www.w3.org/2000/svg" xmlns:xlink="http://www.w3.org/1999/xlink" x="0px" y="0px"
	 viewBox="0 0 512 512" style="enable-background:new 0 0 512 512;" xml:space="preserve">
<g>
	<g>
		<path d="M252.917,340.648c-27.9-6.202-55.639,11.453-61.839,39.349c-6.2,27.897,11.453,55.639,39.35,61.839
			c3.773,0.839,7.54,1.241,11.253,1.241c23.752,0,45.224-16.464,50.587-40.59c0-0.001,0-0.001,0-0.001
			C298.466,374.587,280.813,346.847,252.917,340.648z M272.745,398.147c-3.808,17.134-20.846,27.975-37.978,24.168
			c-17.134-3.807-27.976-20.845-24.169-37.978c3.294-14.818,16.479-24.93,31.068-24.93c2.28,0,4.596,0.247,6.911,0.762
			C265.711,363.977,276.553,381.015,272.745,398.147z"/>
	</g>
</g>
<g>
	<g>
		<path d="M508.37,179.106c0.718,0.598,1.433,1.193-0.003-0.003c-1.436-1.195-0.721-0.6-0.003-0.002
			c-2.876-2.393-6.847-2.981-10.295-1.52c-10.531,4.46-20.354,8.424-30.287,11.931c1.271-10.44,1.263-21.202-0.169-32.1
			c-0.72-5.475-5.742-9.331-11.217-8.611c-5.475,0.719-9.331,5.741-8.611,11.216c1.631,12.41,1.066,24.611-1.381,36.216
			c-11.075,3.04-22.914,5.596-36.474,7.715c3.583-14.702,4.566-30.289,2.48-46.17c-0.72-5.475-5.744-9.329-11.217-8.611
			c-5.475,0.719-9.33,5.741-8.611,11.216c2.118,16.116,0.48,31.875-4.224,46.398c-11.156,1.219-23.452,2.222-37.243,3.024
			c4.477-15.49,5.75-31.886,3.585-48.365c-0.72-5.475-5.744-9.334-11.217-8.611c-5.475,0.719-9.33,5.741-8.611,11.216
			c2.149,16.353,0.128,32.308-5.228,46.8c-12.382,0.492-25.853,0.86-40.601,1.112c2.562-14.619,1.97-30.017-2.319-45.232
			c-1.497-5.313-7.015-8.408-12.336-6.911c-5.314,1.498-8.409,7.021-6.911,12.336c3.745,13.285,4.101,26.98,1.197,40.073
			c-10.879,0.102-22.375,0.154-34.585,0.154c-4.214,0-8.541-0.006-12.922-0.018c-0.217,0-0.426-0.001-0.643-0.001
			c-78.381,0-141.413,38.722-182.3,112.008C7.816,378.869,0.451,432.649,0.12,435.165c-0.648,4.856,2.471,9.601,7.185,10.937
			c4.68,1.327,9.797-1.037,11.822-5.466c0.189-0.415,19.393-41.98,57.919-80.823c27.484-27.71,57.209-46.853,88.913-57.365
			c-19.253,16.347-32.611,38.398-38.185,63.482c-11.213,50.456,12.236,100.675,54.455,125.713
			c-26.964-1.108-55.423-4.97-85.336-11.619c-5.384-1.195-10.732,2.201-11.93,7.592c-1.198,5.39,2.201,10.731,7.592,11.93
			c37.384,8.309,72.681,12.455,105.812,12.454c64.708-0.002,121.123-15.827,168.481-47.382
			c53.965-35.956,85.339-85.935,102.155-121.531c16.527-34.984,22.547-62.825,23.681-68.58c0.061-0.209,0.126-0.417,0.174-0.633
			l18.872-84.919C512.542,185.303,511.245,181.502,508.37,179.106z M402.677,225.233c13.261-1.785,25.16-3.956,36.344-6.568
			c-14.853,32.575-45.562,57.079-83.519,62.293c-0.319,0.003-0.634,0.008-0.954,0.011
			C375.79,267.545,392.545,248.043,402.677,225.233z M331.233,249.027c4.542-5.917,8.469-12.172,11.776-18.685
			c13.048-0.642,24.913-1.453,35.858-2.452c-15.884,27.029-43.501,46.801-76.817,51.469c-1.547-0.105-3.114-0.219-4.681-0.335
			C310.321,271.408,321.812,261.298,331.233,249.027z M283.342,232.075c12.829-0.177,24.766-0.435,35.911-0.786
			c-14.815,22.295-38.571,38.49-66.893,42.88C266.223,262.996,276.854,248.416,283.342,232.075z M141.813,290.428
			c-28.142,12.242-54.711,30.849-78.964,55.302c-9.976,10.058-18.709,20.237-26.231,29.912c4.98-13.328,11.327-27.723,19.354-42.04
			c37.672-67.186,93.025-101.248,164.535-101.248c0.201,0,0.405,0,0.606,0.001c4.785,0.013,9.447,0.02,14.036,0.02
			c9.103,0,17.826-0.026,26.199-0.08c-0.414,0.799-0.821,1.6-1.263,2.389c-10.6,18.92-27.873,32.635-48.692,38.719
			C187.393,275.043,164.112,280.728,141.813,290.428z M293.577,472.807c-21.788,13.864-47.667,18.413-72.88,12.811
			c-52.038-11.564-84.968-63.311-73.403-115.351c10.003-45.008,50.055-75.717,94.363-75.717c6.923,0,13.957,0.751,20.989,2.313
			c25.209,5.603,46.727,20.686,60.592,42.474c13.864,21.786,18.414,47.669,12.811,72.879
			C330.447,437.423,315.364,458.942,293.577,472.807z M450.616,335.187c-15.751,33.154-45.027,79.657-95.051,112.919
			c-6.279,4.175-12.736,8.052-19.369,11.633c9.238-12.742,15.858-27.359,19.375-43.186c6.761-30.423,1.271-61.658-15.462-87.952
			c-6.986-10.979-15.587-20.54-25.446-28.454c12.279,0.612,23.883,0.89,34.802,0.89c59.188-0.002,98.508-8.054,119.479-14.007
			C465.519,298.9,459.739,315.987,450.616,335.187z M474.506,264.277c-8.036,2.853-27.069,8.671-57.714,12.634
			c21.731-16.113,37.971-38.843,46.099-64.776c8.424-2.644,16.704-5.595,25.177-8.888L474.506,264.277z"/>
	</g>
</g>
<g>
	<g>
		<path d="M501.969,38.328c-5.521,0-9.999,4.476-9.999,9.999v7.666h-11.998V30.329c0-5.522-4.477-9.999-9.999-9.999
			s-9.999,4.476-9.999,9.999v25.664h-11.998V30.329c0-5.522-4.477-9.999-9.999-9.999s-9.999,4.476-9.999,9.999v25.664H415.98V30.329
			c0-5.522-4.477-9.999-9.999-9.999s-9.999,4.476-9.999,9.999v25.664h-11.998V30.329c0-5.522-4.477-9.999-9.999-9.999
			s-9.999,4.476-9.999,9.999v25.664h-11.998v-7.666c0-5.522-4.477-9.999-9.999-9.999s-9.999,4.476-9.999,9.999v7.666h-65.992V9.999
			C265.999,4.476,261.522,0,256,0h-111.69C95.131,0,46.905,13.474,4.848,38.966c-2.99,1.813-4.815,5.054-4.815,8.551v36.949
			c0,3.497,1.826,6.739,4.815,8.551c42.057,25.492,90.283,38.966,139.462,38.966h111.689c5.521,0,9.999-4.476,9.999-9.999V75.99
			h65.992v7.666c0,5.522,4.477,9.999,9.999,9.999s9.999-4.476,9.999-9.999V75.99h11.998v25.664c0,5.522,4.477,9.999,9.999,9.999
			s9.999-4.476,9.999-9.999V75.99h11.998v25.664c0,5.522,4.477,9.999,9.999,9.999s9.999-4.476,9.999-9.999V75.99h11.998v25.664
			c0,5.522,4.477,9.999,9.999,9.999s9.999-4.476,9.999-9.999V75.99h11.998v25.664c0,5.522,4.477,9.999,9.999,9.999
			s9.999-4.476,9.999-9.999V75.99h11.999v7.666c0,5.522,4.477,9.999,9.999,9.999s9.999-4.476,9.999-9.999v-35.33
			C511.968,42.806,507.49,38.328,501.969,38.328z M246.001,111.986h-101.69c-43.657,0-86.506-11.473-124.281-33.225v-25.54
			c37.776-21.751,80.624-33.224,124.281-33.224h57.696v60.253c0,5.522,4.477,9.999,9.999,9.999s9.999-4.476,9.999-9.999V19.997
			h23.997V111.986z"/>
	</g>
</g>
<g>
	<g>
		<path d="M58.094,466.871c-1.859-1.861-4.439-2.93-7.068-2.93c-2.63,0-5.209,1.069-7.069,2.93c-1.86,1.861-2.93,4.439-2.93,7.069
			c0,2.63,1.069,5.209,2.93,7.068c1.86,1.86,4.439,2.931,7.069,2.931c2.63,0,5.209-1.07,7.068-2.931
			c1.86-1.859,2.931-4.438,2.931-7.068C61.025,471.31,59.955,468.73,58.094,466.871z"/>
	</g>
</g>
<g>
</g>
<g>
</g>
<g>
</g>
<g>
</g>
<g>
</g>
<g>
</g>
<g>
</g>
<g>
</g>
<g>
</g>
<g>
</g>
<g>
</g>
<g>
</g>
<g>
</g>
<g>
</g>
<g>
</g>
</svg>
