<?xml version="1.0" encoding="iso-8859-1"?>
<!-- Generator: Adobe Illustrator 19.0.0, SVG Export Plug-In . SVG Version: 6.00 Build 0)  -->
<svg version="1.1" id="Capa_1" xmlns="http://www.w3.org/2000/svg" xmlns:xlink="http://www.w3.org/1999/xlink" x="0px" y="0px" fill="#fff"
	 viewBox="0 0 502.432 502.432" style="enable-background:new 0 0 502.432 502.432;" xml:space="preserve">
<g>
	<g>
		<g>
			<path d="M368.488,159.792c-19.056-17.792-38.752-36.192-56.912-55.04C281.686,72.771,255.346,37.649,233.016,0l-27.808,15.824
				c23.572,40.004,51.514,77.267,83.312,111.104c18.768,19.488,38.784,38.176,58.128,56.256
				c30.512,28.48,72.304,67.504,72.304,81.056c0,60.08-39.008,83.376-76.8,105.936c-23.504,14.032-45.696,27.28-56.448,48.768
				c-3.723,7.639-5.597,16.047-5.472,24.544c1.409,21.049,8.286,41.367,19.952,58.944l26.672-17.712
				c-8.061-12.381-13.058-26.504-14.576-41.2c-0.104-3.518,0.608-7.011,2.08-10.208c11.523-15.411,26.744-27.672,44.256-35.648
				c38.96-23.28,92.336-55.136,92.336-133.392C450.952,238.064,421.16,208.96,368.488,159.792z"/>
			<path d="M110.92,376.032c-17.588-7.403-28.557-25.133-27.328-44.176c0.606-16.255,4.497-32.218,11.44-46.928l-28.544-14.4
				c-9.221,19.193-14.307,40.108-14.928,61.392c-1.434,31.499,16.755,60.604,45.696,73.12c6.834,3.215,14.303,4.856,21.856,4.8
				c23.616,0,47.648-14.848,73.088-30.576c28.144-17.44,57.216-35.344,86.832-35.344v-32c-38.704,0-73.184,21.312-103.632,40.128
				C149.432,368.032,125.256,382.896,110.92,376.032z"/>
		</g>
	</g>
</g>
</svg>
