<svg width="38" height="36" viewBox="0 0 38 36" fill="none" xmlns="http://www.w3.org/2000/svg">
<path d="M4.50889 15.049C4.58229 14.9756 4.64782 14.8945 4.70531 14.8076L6.27367 16.376C6.8781 16.9804 7.85815 16.9804 8.46258 16.376C9.06701 15.7716 9.06701 14.7915 8.46258 14.1871L6.90772 12.6322C6.95697 12.5936 7.00476 12.5531 7.04898 12.5089C7.32909 12.2288 7.50238 11.8419 7.50223 11.4144C7.50223 10.5596 6.8093 9.86667 5.95445 9.86667L3.50097 9.86667C3.05152 9.86667 2.64803 10.0594 2.36529 10.3654C2.05936 10.6481 1.86658 11.0516 1.86658 11.5011L1.86666 13.9545C1.86666 14.8093 2.55959 15.5022 3.41443 15.5022C3.84186 15.5022 4.22886 15.329 4.50889 15.049Z" fill="white"/>
<path d="M30.9245 12.1096C30.986 12.1932 31.0564 12.2702 31.1336 12.34L29.3477 13.6553C28.6594 14.1621 28.5123 15.1311 29.0191 15.8194C29.526 16.5077 30.495 16.6548 31.1833 16.1479L32.9539 14.844C32.9846 14.8985 33.0175 14.9518 33.0546 15.0022C33.2895 15.3211 33.646 15.5505 34.0686 15.6145C34.9138 15.7428 35.7029 15.1617 35.8312 14.3166L36.1994 11.8909C36.2668 11.4465 36.1368 11.0187 35.8768 10.6932C35.6432 10.3483 35.2732 10.0972 34.8288 10.0297L32.4032 9.66158C31.558 9.53329 30.7689 10.1144 30.6406 10.9595C30.5765 11.3821 30.6897 11.7907 30.9245 12.1096Z" fill="white"/>
<path d="M14.7175 32.7622L13.8902 33.1167L14.7175 32.7622ZM19 34.9035L19.0993 34.009L19 33.9979L18.9006 34.009L19 34.9035ZM14.2146 31.526L15.0514 31.1946H15.0514L14.2146 31.526ZM11.5056 31.3347L11.4494 32.2329L11.7902 30.4809L11.5056 31.3347ZM7.22301 25.9815L8.08838 26.2287L7.22301 25.9815ZM9.76948 21.9963L10.4094 22.6292H10.4094L9.76948 21.9963ZM13.6468 13.1339L14.5409 13.237L13.6468 13.1339ZM24.3532 13.1339L25.2472 13.0307L24.3532 13.1339ZM28.2305 21.9963L27.5906 22.6292L28.2305 21.9963ZM30.777 25.9815L31.6423 25.7343L30.777 25.9815ZM26.4944 31.3347L26.2098 30.4809L26.5505 32.2329L26.4944 31.3347ZM23.7853 31.526L22.9486 31.1946V31.1946L23.7853 31.526ZM23.2825 32.7622L24.1097 33.1167V33.1167L23.2825 32.7622ZM13.8902 33.1167C14.4423 34.4047 15.4773 35.113 16.472 35.4731C17.4508 35.8274 18.4487 35.8702 19.0993 35.798L18.9006 34.009C18.4805 34.0556 17.7655 34.0271 17.0848 33.7806C16.42 33.54 15.8492 33.1181 15.5447 32.4077L13.8902 33.1167ZM13.3779 31.8574C13.5404 32.2677 13.71 32.6961 13.8902 33.1167L15.5447 32.4077C15.3759 32.0139 15.2155 31.6089 15.0514 31.1946L13.3779 31.8574ZM10.7918 28.309C11.2776 28.309 11.6835 28.5511 12.1198 29.1843C12.5766 29.8473 12.9471 30.7697 13.3779 31.8574L15.0514 31.1946C14.6438 30.1655 14.199 29.0294 13.602 28.163C12.9846 27.2669 12.0983 26.509 10.7918 26.509V28.309ZM11.7902 30.4809C11.8187 30.4904 11.7799 30.4825 11.6802 30.3931C11.5889 30.3114 11.48 30.1914 11.365 30.0358C11.133 29.7219 10.9223 29.3261 10.798 28.9534C10.6626 28.5471 10.6804 28.3232 10.7004 28.2652C10.7011 28.2633 10.6855 28.2978 10.6479 28.3218C10.6202 28.3394 10.6457 28.309 10.7918 28.309V26.509C10.4026 26.509 10.0154 26.5901 9.67971 26.8043C9.33398 27.0249 9.11489 27.341 8.99845 27.6792C8.78421 28.3015 8.91358 28.9921 9.09041 29.5226C9.27844 30.0867 9.5807 30.65 9.91749 31.1057C10.0869 31.3348 10.2763 31.5522 10.4792 31.7339C10.6736 31.908 10.9248 32.0898 11.221 32.1885L11.7902 30.4809ZM6.35764 25.7342C6.0346 26.8649 6.0233 27.8679 6.27904 28.7406C6.53522 29.6147 7.04013 30.292 7.64159 30.8C8.8152 31.7911 10.3832 32.1663 11.4494 32.2329L11.5617 30.4364C10.7246 30.3841 9.58029 30.0812 8.80296 29.4248C8.42895 29.1089 8.14872 28.72 8.00639 28.2343C7.8636 27.7471 7.84041 27.0966 8.08838 26.2287L6.35764 25.7342ZM9.1296 21.3634C8.09216 22.4123 6.99041 23.5195 6.35764 25.7342L8.08838 26.2287C8.58908 24.4763 9.40829 23.6414 10.4094 22.6292L9.1296 21.3634ZM12.7528 13.0307C12.4388 15.7511 11.8799 17.4608 11.2502 18.6571C10.6227 19.8491 9.90021 20.5843 9.1296 21.3634L10.4094 22.6292C11.1868 21.8432 12.0802 20.9447 12.843 19.4955C13.6035 18.0506 14.2092 16.1117 14.5409 13.237L12.7528 13.0307ZM19 0.1C17.9872 0.1 17.073 0.303664 16.2901 0.855421C15.5143 1.4022 14.9695 2.21919 14.5524 3.24969C13.7384 5.2606 13.2835 8.43091 12.7528 13.0307L14.5409 13.237C15.0808 8.55799 15.5181 5.66136 16.2209 3.92505C16.5621 3.08194 16.9319 2.60525 17.327 2.32674C17.7151 2.05321 18.2284 1.9 19 1.9V0.1ZM19 1.9C19.7716 1.9 20.2849 2.05321 20.673 2.32674C21.0681 2.60524 21.4378 3.08193 21.7791 3.92504C22.4819 5.66136 22.9192 8.55799 23.4591 13.237L25.2472 13.0307C24.7165 8.43091 24.2615 5.2606 23.4476 3.2497C23.0305 2.2192 22.4857 1.4022 21.7099 0.855425C20.927 0.303666 20.0128 0.1 19 0.1V1.9ZM23.4591 13.237C23.7908 16.1117 24.3964 18.0506 25.157 19.4955C25.9198 20.9447 26.8131 21.8432 27.5906 22.6292L28.8704 21.3635C28.0998 20.5843 27.3772 19.8491 26.7498 18.6571C26.1201 17.4608 25.5611 15.7511 25.2472 13.0307L23.4591 13.237ZM27.5906 22.6292C28.5917 23.6414 29.4109 24.4763 29.9116 26.2288L31.6423 25.7343C31.0096 23.5196 29.9078 22.4123 28.8704 21.3635L27.5906 22.6292ZM29.9116 26.2288C30.1596 27.0966 30.1364 27.7471 29.9936 28.2344C29.8513 28.72 29.571 29.1089 29.197 29.4248C28.4197 30.0812 27.2754 30.3841 26.4383 30.4364L26.5505 32.2329C27.6168 32.1663 29.1848 31.7911 30.3584 30.8C30.9598 30.292 31.4648 29.6147 31.7209 28.7406C31.9767 27.8679 31.9654 26.8649 31.6423 25.7343L29.9116 26.2288ZM26.779 32.1885C27.0752 32.0898 27.3264 31.908 27.5208 31.7339C27.7237 31.5522 27.9131 31.3348 28.0825 31.1057C28.4193 30.65 28.7215 30.0867 28.9096 29.5226C29.0864 28.9921 29.2158 28.3015 29.0015 27.6793C28.8851 27.341 28.666 27.0249 28.3203 26.8043C27.9846 26.5901 27.5973 26.509 27.2082 26.509V28.309C27.3543 28.309 27.3797 28.3394 27.3521 28.3218C27.3145 28.2978 27.2989 28.2633 27.2996 28.2652C27.3195 28.3232 27.3374 28.5471 27.2019 28.9534C27.0777 29.3261 26.8669 29.7219 26.635 30.0358C26.5199 30.1914 26.411 30.3114 26.3198 30.3932C26.22 30.4825 26.1813 30.4904 26.2098 30.4809L26.779 32.1885ZM27.2082 26.509C25.9017 26.509 25.0154 27.2669 24.398 28.163C23.801 29.0294 23.3562 30.1655 22.9486 31.1946L24.6221 31.8574C25.0529 30.7697 25.4234 29.8473 25.8802 29.1843C26.3165 28.5511 26.7224 28.309 27.2082 28.309V26.509ZM22.9486 31.1946C22.7845 31.6089 22.624 32.0139 22.4553 32.4077L24.1097 33.1167C24.29 32.6961 24.4596 32.2677 24.6221 31.8574L22.9486 31.1946ZM22.4553 32.4077C22.1508 33.1181 21.5799 33.54 20.9152 33.7806C20.2344 34.0271 19.5194 34.0556 19.0993 34.009L18.9006 35.798C19.5512 35.8703 20.5491 35.8274 21.5279 35.4731C22.5226 35.113 23.5577 34.4048 24.1097 33.1167L22.4553 32.4077Z" fill="white"/>
</svg>
