<svg width="34" height="34" viewBox="0 0 34 34" fill="none" xmlns="http://www.w3.org/2000/svg">
<path d="M33.502 33.0039H33.0039V19.7227H33.502C33.777 19.7227 34 19.4997 34 19.2246C34 18.9495 33.777 18.7266 33.502 18.7266H25.3743V17.242L25.7134 17.3562C25.9674 17.4421 26.2556 17.3068 26.3444 17.0432C26.4321 16.7825 26.292 16.5 26.0313 16.4122L23.9727 15.7188V12.2531H24.4707C24.7458 12.2531 24.9688 12.0302 24.9688 11.7551C24.9688 11.48 24.7458 11.2571 24.4707 11.2571H23.9542C23.7046 7.86144 20.9251 5.15824 17.498 5.02895V4.31641H21.5156C22.1564 4.31641 22.6777 3.79505 22.6777 3.1543V1.16211C22.6777 0.521355 22.1564 0 21.5156 0H17C16.7249 0 16.502 0.222926 16.502 0.498047V5.02908C15.0558 5.08479 13.6535 5.60854 12.5279 6.5191C12.314 6.69209 12.2809 7.00573 12.4539 7.21955C12.6269 7.43345 12.9406 7.46659 13.1543 7.29353C14.1698 6.47202 15.4499 6.01959 16.7588 6.01959H17.2411C20.2357 6.01959 22.7001 8.32695 22.9535 11.257H11.0456C11.1313 10.2573 11.4743 9.30484 12.0517 8.47729C12.2091 8.25171 12.1539 7.94126 11.9283 7.78388C11.7027 7.62663 11.3923 7.68168 11.2348 7.90726C10.5401 8.90295 10.1337 10.0522 10.0458 11.257H9.5293C9.25424 11.257 9.03125 11.4799 9.03125 11.755C9.03125 12.0302 9.25424 12.2531 9.5293 12.2531H10.0273V15.7188L7.96868 16.4122C7.70804 16.5 7.56786 16.7825 7.65564 17.0431C7.7435 17.3038 8.02599 17.4439 8.28664 17.3561L8.62571 17.2419V18.7266H0.498047C0.222992 18.7266 0 18.9495 0 19.2246C0 19.4997 0.222992 19.7227 0.498047 19.7227H0.996094V33.0039H0.498047C0.222992 33.0039 0 33.2268 0 33.502C0 33.7771 0.222992 34 0.498047 34H33.502C33.777 34 34 33.7771 34 33.502C34 33.2268 33.777 33.0039 33.502 33.0039ZM17.498 0.996094H21.5156C21.6071 0.996094 21.6816 1.07054 21.6816 1.16211V3.1543C21.6816 3.24587 21.6071 3.32031 21.5156 3.32031H17.498V0.996094ZM11.0234 12.2531H22.9766V15.3833L18.0069 13.7094C17.3576 13.4907 16.6425 13.4908 15.9932 13.7094L11.0234 15.3833V12.2531ZM9.6218 16.9064L16.3112 14.6534C16.7554 14.5039 17.2448 14.5039 17.6889 14.6534L24.3783 16.9064V18.7266H9.6218V16.9064ZM6.48922 33.0039H3.98438V31.0117H6.48922V33.0039ZM6.48922 30.0156H3.98438V28.3405C3.98438 27.6499 4.54617 27.0881 5.2368 27.0881C5.92742 27.0881 6.48922 27.6499 6.48922 28.3405V30.0156ZM8.48141 33.0039H7.48531V28.3405C7.48531 27.1007 6.47667 26.092 5.2368 26.092C3.99693 26.092 2.98828 27.1007 2.98828 28.3405V33.0039H1.99219V25.1609H8.48141V33.0039ZM8.48141 24.1648H1.99219V19.7227H6.85293V20.752C6.85293 21.5758 7.52316 22.2461 8.34707 22.2461H8.48134V24.1648H8.48141ZM11.5733 33.0039H9.4775V22.2461H11.5733V33.0039H11.5733ZM14.8117 33.0039H12.5694V22.2461H14.8117V33.0039ZM17.9036 33.0039H15.8078V22.2461H17.9036V33.0039ZM21.4306 33.0039H18.8997V22.2461H19.0326C19.3077 22.2461 19.5307 22.0232 19.5307 21.748C19.5307 21.4729 19.3077 21.25 19.0326 21.25H8.34707C8.07241 21.25 7.84902 21.0266 7.84902 20.752V19.7227H26.1509V20.752C26.1509 21.0266 25.9275 21.25 25.6529 21.25H21.0247C20.7497 21.25 20.5267 21.4729 20.5267 21.748C20.5267 22.0232 20.7497 22.2461 21.0247 22.2461H21.4306V33.0039H21.4306ZM24.5225 33.0039H22.4267V22.2461H24.5226V33.0039H24.5225ZM30.0156 33.0039H27.5108V31.0117H30.0156V33.0039ZM30.0156 30.0156H27.5108V28.3405C27.5108 27.6499 28.0726 27.0881 28.7632 27.0881C29.4538 27.0881 30.0156 27.6499 30.0156 28.3405V30.0156ZM32.0078 33.0039H31.0117V28.3405C31.0117 27.1007 30.0031 26.092 28.7632 26.092C27.5233 26.092 26.5147 27.1007 26.5147 28.3405V33.0039H25.5186V25.1609H32.0078V33.0039ZM32.0078 24.1648H25.5186V22.2461H25.6529C26.4768 22.2461 27.147 21.5758 27.147 20.752V19.7227H32.0078V24.1648Z" fill="#46555F"/>
</svg>
