<svg width="23" height="23" viewBox="0 0 23 23" fill="none" xmlns="http://www.w3.org/2000/svg">
<path fill-rule="evenodd" clip-rule="evenodd" d="M8.41912 3.50373C8.41542 3.50724 8.37876 3.51253 8.33766 3.51548C8.10793 3.53198 7.83107 3.59376 7.61204 3.67743C7.58596 3.68738 7.55004 3.70066 7.53222 3.70691C7.4754 3.72686 7.24019 3.84043 7.14777 3.89253C6.97869 3.98786 6.78459 4.1342 6.61884 4.29133C6.5351 4.37072 6.43493 4.47329 6.39626 4.51927C6.23523 4.71072 6.09539 4.93283 5.99322 5.15945C5.97905 5.19089 5.96075 5.2313 5.95255 5.24927C5.9272 5.30478 5.89594 5.40061 5.85264 5.55546C5.82928 5.63902 5.82248 5.67258 5.79149 5.85756C5.77756 5.94071 5.77756 6.49294 5.79149 6.57609C5.82248 6.76107 5.82928 6.79463 5.85264 6.8782C5.88879 7.00746 5.90438 7.05764 5.91337 7.07355C5.9185 7.08262 5.93382 7.12231 5.94744 7.16174C5.98195 7.26177 6.07108 7.44317 6.14913 7.57223C6.21051 7.67372 6.35478 7.87278 6.39882 7.91674C6.40469 7.9226 6.42694 7.94752 6.44825 7.97212C6.50592 8.03865 6.73634 8.25494 6.81035 8.31199C7.03162 8.4826 7.36076 8.66839 7.56235 8.73649C7.94009 8.86408 8.04203 8.88758 8.36206 8.92084C8.41184 8.92602 8.53984 8.93076 8.64651 8.93139L8.84045 8.93252L8.93825 9.20564C8.99204 9.35586 9.2332 10.0354 9.47416 10.7158C9.98235 12.1507 9.98468 12.1571 10.0144 12.2127C10.0919 12.3577 10.2325 12.4691 10.4069 12.5233C10.6247 12.5911 10.8293 12.5547 11.0366 12.4113C11.095 12.3708 11.1644 12.285 11.2125 12.1939C11.2667 12.0913 11.276 12.05 11.2756 11.9136L11.2753 11.7976L10.828 10.5321C10.582 9.83599 10.3244 9.10848 10.2554 8.91538C10.1865 8.72227 10.1299 8.55811 10.1297 8.55057C10.1295 8.54303 10.1458 8.52617 10.166 8.51309C10.3132 8.41757 10.3568 8.38794 10.4138 8.34459C10.4494 8.31755 10.4804 8.2934 10.4828 8.29093C10.4852 8.28846 10.5084 8.26996 10.5343 8.24981C10.595 8.20279 10.743 8.06258 10.7931 8.00479C10.8144 7.98019 10.837 7.95495 10.8433 7.94868C10.8889 7.90333 11.0352 7.70687 11.1055 7.59672C11.1498 7.52725 11.2775 7.28799 11.2984 7.23547C11.3424 7.12457 11.3931 6.97636 11.4151 6.89453C11.4475 6.77421 11.4524 6.75026 11.4843 6.55976C11.4976 6.48042 11.4979 5.96082 11.4847 5.86573C11.4751 5.79711 11.4717 5.77841 11.4572 5.71468C11.4531 5.69671 11.4452 5.65997 11.4397 5.63303C11.4342 5.60608 11.4256 5.5675 11.4206 5.54729C11.4093 5.50166 11.325 5.2587 11.3055 5.21567C11.2976 5.19822 11.2795 5.15823 11.2654 5.12679C11.2284 5.04488 11.1696 4.93238 11.1267 4.86143C11.0653 4.7599 10.9211 4.56086 10.877 4.51691C10.8712 4.51105 10.8489 4.48613 10.8276 4.46154C10.8063 4.43695 10.7249 4.35612 10.6468 4.2819C10.4917 4.13457 10.2934 3.98575 10.1281 3.89253C10.0357 3.84043 9.80044 3.72686 9.74363 3.70691C9.7258 3.70066 9.68989 3.68738 9.66381 3.67741C9.59025 3.6493 9.50154 3.62031 9.43536 3.60275C9.32411 3.57324 9.31485 3.57101 9.26725 3.56224C9.24117 3.55744 9.20238 3.5501 9.18104 3.54594C9.13083 3.53615 9.03297 3.52293 8.93534 3.51276C8.83619 3.50244 8.42799 3.49528 8.41912 3.50373ZM14.901 11.524C14.8868 11.5279 14.8519 11.5357 14.8234 11.5415C14.795 11.5472 14.7523 11.5589 14.7286 11.5675C14.7049 11.5762 14.5963 11.6125 14.4872 11.6483C14.3781 11.684 14.189 11.746 14.0669 11.7861C13.9448 11.8261 13.7451 11.8916 13.623 11.9317C13.5009 11.9717 13.3098 12.0345 13.1984 12.0712C12.9995 12.1367 12.7777 12.2095 12.332 12.3556C12.2087 12.396 12.0167 12.4591 11.9052 12.4958C11.7099 12.5601 11.5133 12.6246 11.0324 12.7822C10.6116 12.9201 10.3672 13.0003 10.1638 13.0673C10.0524 13.104 9.86037 13.1671 9.73709 13.2075C9.29135 13.3536 9.0696 13.4264 8.87069 13.4919C8.75926 13.5286 8.56723 13.5917 8.44395 13.6321C7.99822 13.7782 7.77646 13.851 7.57755 13.9165C7.13422 14.0624 6.5134 14.2658 6.31622 14.3297C6.14005 14.3867 6.06349 14.42 5.96852 14.4807C5.83103 14.5685 5.71435 14.7156 5.6623 14.8667C5.62501 14.975 5.62061 15.0022 5.62061 15.1243C5.62061 15.225 5.62407 15.2582 5.64124 15.3223C5.66401 15.4073 5.72984 15.5396 5.78092 15.6031C5.85446 15.6944 5.9802 15.7926 6.09234 15.8464C6.15573 15.8768 6.1974 15.8888 6.3362 15.9171C6.38576 15.9272 6.51729 15.9239 6.60339 15.9105C6.65451 15.9026 6.997 15.7932 7.83618 15.5168C7.94761 15.4801 8.14933 15.414 8.28447 15.3699C8.4196 15.3257 8.62133 15.2596 8.73275 15.2229C8.93564 15.1561 9.1777 15.0766 9.60131 14.9378C9.72578 14.897 9.92847 14.8306 10.0518 14.7901C10.175 14.7497 10.3777 14.6833 10.5022 14.6425C10.6267 14.6017 10.8284 14.5355 10.9505 14.4955C11.0726 14.4555 11.2733 14.3896 11.3966 14.3492C11.5199 14.3088 11.7216 14.2427 11.8449 14.2023C11.9682 14.1618 12.1699 14.0957 12.2932 14.0553C12.4165 14.0149 12.6182 13.9487 12.7415 13.9083C12.8648 13.8679 13.0665 13.8018 13.1898 13.7613C13.7422 13.5802 13.8702 13.5382 14.0605 13.4756C14.1719 13.4389 14.3639 13.3758 14.4872 13.3354C14.955 13.182 15.1539 13.1167 15.24 13.0883C15.4215 13.0282 15.5216 12.9727 15.6247 12.875C15.7817 12.7263 15.8731 12.5207 15.8731 12.3161C15.8731 12.1594 15.8088 11.9655 15.7204 11.8559C15.6805 11.8064 15.5728 11.7044 15.5205 11.6665C15.44 11.6083 15.2907 11.5469 15.1898 11.5305C15.124 11.5198 14.9323 11.5155 14.901 11.524ZM15.8364 13.3525C15.8245 13.3562 15.5762 13.4335 15.2846 13.5242C14.7887 13.6785 14.357 13.8134 11.8363 14.6023C11.2934 14.7722 10.4147 15.0472 9.88364 15.2133C5.16801 16.6888 5.50292 16.5825 5.41619 16.6306C5.33773 16.6741 5.21786 16.7771 5.15952 16.8513C5.10074 16.9259 5.04785 17.0384 5.01215 17.1645C4.99738 17.2167 4.99563 17.4015 5.00937 17.458C5.02784 17.5339 5.05518 17.6118 5.0803 17.6602C5.13418 17.7638 5.22251 17.8699 5.30408 17.9288C5.32171 17.9415 5.33611 17.9579 5.33609 17.9653C5.33609 17.9726 5.31646 18.0061 5.29249 18.0398C5.21908 18.143 5.17076 18.2415 5.13627 18.3583C5.12703 18.3896 5.1107 18.5251 5.1107 18.5706C5.1107 18.6649 5.14474 18.8484 5.1708 18.8945C5.17591 18.9035 5.18563 18.9261 5.19241 18.9448C5.21825 19.0158 5.33322 19.1742 5.40916 19.2435C5.46405 19.2935 5.57629 19.366 5.65078 19.3996C5.78652 19.4607 5.80572 19.4669 5.93958 19.4929C6.0033 19.5054 17.1363 19.5 17.2071 19.4875C17.2697 19.4765 17.4013 19.4343 17.4587 19.4067C17.6409 19.3194 17.8382 19.1273 17.9108 18.9664C17.9545 18.8697 17.9653 18.8416 17.9746 18.7992C17.98 18.7745 17.988 18.741 17.9923 18.7247C18.0034 18.6834 18.0022 18.4564 17.9907 18.4094C17.9659 18.3084 17.9177 18.1829 17.8806 18.1232C17.7353 17.8894 17.5353 17.7439 17.2588 17.6709C17.1786 17.6498 17.0323 17.6462 16.0131 17.6402C15.4204 17.6367 14.9333 17.6327 14.9333 17.6327C14.9333 17.6327 14.9312 17.6279 14.9312 17.6234C14.9312 17.6184 14.9765 17.6152 15.0498 17.6152C15.1167 17.6152 15.1815 17.6111 15.1985 17.6058C15.215 17.6006 15.2965 17.5931 15.3795 17.5891C15.6191 17.5778 15.812 17.5676 15.97 17.5581C16.0506 17.5532 16.1825 17.5459 16.2631 17.5418C16.7638 17.5162 16.7875 17.5136 16.9296 17.4693C17.0687 17.4259 17.2169 17.3233 17.3068 17.2082C17.3726 17.124 17.4417 16.9933 17.4564 16.9253C17.4622 16.8984 17.4705 16.863 17.4749 16.8468C17.4794 16.8305 17.483 16.7731 17.483 16.7192C17.483 16.6177 17.4594 16.4989 17.4277 16.4409C17.4202 16.4271 17.414 16.4112 17.414 16.4057C17.414 16.3809 17.2914 16.2084 17.2376 16.1574C17.1839 16.1066 17.0017 15.9904 16.9756 15.9904C16.9698 15.9904 16.9506 15.9837 16.933 15.9754C16.9155 15.9672 16.8778 15.9559 16.8493 15.9503C16.8209 15.9447 16.7819 15.9364 16.7626 15.932C16.719 15.9218 16.5615 15.9273 16.0217 15.9577C15.9364 15.9625 15.8045 15.9699 15.7286 15.9741C15.6527 15.9783 15.5208 15.9856 15.4355 15.9904C15.3502 15.9952 15.2183 16.0025 15.1424 16.0067C15.0665 16.0109 14.9346 16.0183 14.8493 16.0231C14.5719 16.0386 14.4212 16.0469 14.2544 16.0557C14.0877 16.0645 13.937 16.0728 13.6596 16.0884C13.5743 16.0932 13.4424 16.1005 13.3665 16.1047C13.2906 16.1089 13.1587 16.1162 13.0734 16.121C12.988 16.1257 12.8542 16.1331 12.776 16.1373C12.6977 16.1415 12.6143 16.1468 12.5906 16.1491C12.5669 16.1515 12.4903 16.1544 12.4203 16.1557C12.2748 16.1583 12.2572 16.1496 12.3514 16.1213C12.3834 16.1117 12.429 16.097 12.4527 16.0887C12.4764 16.0803 12.8624 15.959 13.3105 15.819C13.7585 15.679 14.5713 15.4249 15.1165 15.2543C15.6618 15.0837 16.1331 14.9369 16.164 14.928C16.2989 14.8893 16.4595 14.8133 16.5469 14.7468C16.6865 14.6406 16.7761 14.5066 16.8293 14.3247C16.8391 14.291 16.8552 14.1695 16.8552 14.1288C16.8552 14.0875 16.839 13.9662 16.8291 13.9328C16.811 13.8719 16.8033 13.8532 16.7718 13.794C16.6786 13.6189 16.55 13.4942 16.3918 13.4255C16.2714 13.3732 16.2552 13.367 16.2157 13.3589C16.1658 13.3487 15.8647 13.3436 15.8364 13.3525Z" fill="white"/>
</svg>
