<svg width="20" height="20" viewBox="0 0 20 20" fill="none" xmlns="http://www.w3.org/2000/svg">
<path d="M11.8323 10.0164L19.6199 2.22853C20.1267 1.72196 20.1267 0.902915 19.6199 0.396348C19.1134 -0.11022 18.2943 -0.11022 17.7878 0.396348L9.9999 8.18419L2.21229 0.396348C1.70548 -0.11022 0.886671 -0.11022 0.380104 0.396348C-0.126701 0.902915 -0.126701 1.72196 0.380104 2.22853L8.16772 10.0164L0.380104 17.8042C-0.126701 18.3108 -0.126701 19.1298 0.380104 19.6364C0.632557 19.8891 0.964495 20.016 1.2962 20.016C1.6279 20.016 1.9596 19.8891 2.21229 19.6364L9.9999 11.8486L17.7878 19.6364C18.0404 19.8891 18.3721 20.016 18.7038 20.016C19.0355 20.016 19.3672 19.8891 19.6199 19.6364C20.1267 19.1298 20.1267 18.3108 19.6199 17.8042L11.8323 10.0164Z" fill="white"/>
</svg>
