<svg width="44" height="42" viewBox="0 0 44 42" fill="none" xmlns="http://www.w3.org/2000/svg">
<path d="M0 20H29V27.5C29 35.5081 22.5081 42 14.5 42V42C6.49187 42 0 35.5081 0 27.5V20Z" fill="#727371"/>
<path d="M14 19H0V11C0 4.92487 4.92487 2.31823e-06 11 0H14V2.23529C12.067 2.2353 10.5 3.8023 10.5 5.7353V13.2647C10.5 15.1977 12.067 16.7647 14 16.7647V19Z" fill="#727371"/>
<path d="M15 19H29V11C29 4.92487 24.0751 0 18 0H15V2.23529C16.933 2.23529 18.5 3.8023 18.5 5.73529V13.2647C18.5 15.1977 16.933 16.7647 15 16.7647V19Z" fill="#9EC626"/>
<path d="M11.5 6C11.5 4.34315 12.8431 3 14.5 3V3C16.1569 3 17.5 4.34315 17.5 6V13C17.5 14.6569 16.1569 16 14.5 16V16C12.8431 16 11.5 14.6569 11.5 13V6Z" fill="#727371"/>
<path d="M35.2308 11.6727V15.8126C35.2308 17.342 36.4706 18.5818 38 18.5818C39.5294 18.5818 40.7692 17.342 40.7692 15.8126V11.6727H42.2355C43.0124 11.6727 43.493 10.8287 43.0909 10.164C42.4217 9.05778 41.4644 7.48386 40.5015 5.93035C39.352 4.07581 36.6942 4.10512 35.5441 5.95926L32.9473 10.1456C32.5341 10.8118 33.0131 11.6727 33.7971 11.6727H35.2308Z" fill="white"/>
<path d="M40.7692 30.3273L40.7692 26.1874C40.7692 24.658 39.5294 23.4182 38 23.4182C36.4706 23.4182 35.2308 24.658 35.2308 26.1874L35.2308 30.3273L33.7645 30.3273C32.9876 30.3273 32.507 31.1713 32.9091 31.836C33.5783 32.9422 34.5356 34.5161 35.4985 36.0696C36.648 37.9242 39.3058 37.8949 40.4559 36.0407L43.0527 31.8544C43.4659 31.1882 42.9869 30.3273 42.2029 30.3273L40.7692 30.3273Z" fill="white"/>
<circle cx="26.7387" cy="22.3414" r="1.20081" transform="rotate(-32.5953 26.7387 22.3414)" fill="white"/>
<path d="M20.4877 26.4088L21.4994 25.7619" stroke="white"/>
<path d="M22.1739 25.3306L23.1856 24.6837" stroke="white"/>
<path d="M23.86 24.2525L24.8717 23.6056" stroke="white"/>
<path d="M16.3867 24.6894L14.2805 27.4557L14.1673 27.2787C13.5752 26.3528 12.3387 26.0691 11.3992 26.6699L8.29463 28.655L8.13791 28.4099C7.95508 28.1239 7.57558 28.0405 7.28964 28.2233L6.47264 28.7457L6.0199 28.0376L8.44365 26.4879C8.69791 26.5555 8.9631 26.5202 9.18096 26.3809L12.0677 24.5351C12.5034 24.2565 12.6311 23.6761 12.3524 23.2404L12.3437 23.2267C12.0651 22.791 11.4847 22.6634 11.049 22.942L8.1623 24.7878C7.93082 24.9358 7.78751 25.1617 7.75583 25.4122L4.22914 27.6672C3.98405 27.8239 3.9104 28.1587 4.06712 28.4038L4.92907 29.7519L4.82013 29.8215C4.53419 30.0043 4.45072 30.3838 4.63356 30.6698L4.79027 30.9149L4.49071 31.1064C3.56479 31.6985 3.28112 32.9349 3.88187 33.8745L6.38936 37.796C6.98141 38.722 8.21789 39.0056 9.15743 38.4049L16.0882 33.9732C16.9461 33.4247 17.2449 32.332 16.8141 31.4181L20.2225 30.6583C21.0105 30.4806 21.3866 29.5687 20.9513 28.8879L18.3045 24.7484C17.8555 24.0763 16.8787 24.0487 16.3867 24.6894ZM12.2092 34.9572L8.47832 37.3428C8.26045 37.4821 7.95664 37.427 7.80862 37.1955C7.66932 36.9776 7.72444 36.6738 7.95592 36.5258L11.6869 34.1402C11.9047 34.0009 12.2085 34.056 12.3565 34.2875C12.4909 34.5277 12.4271 34.8179 12.2092 34.9572ZM9.99615 30.176C10.0919 30.3257 10.0564 30.5403 9.89304 30.6448L9.48455 30.9059C9.33477 31.0017 9.12024 30.9662 9.01576 30.8028L8.75457 30.3943C8.65879 30.2446 8.69428 30.03 8.85768 29.9256L9.26617 29.6644C9.42957 29.5599 9.63048 29.6041 9.73496 29.7675L9.99615 30.176ZM11.2031 29.4234C11.2989 29.5732 11.2634 29.7877 11.1 29.8922L10.6915 30.1534C10.5417 30.2492 10.3272 30.2137 10.2227 30.0503L9.96153 29.6418C9.86575 29.492 9.90124 29.2775 10.0646 29.173L10.4731 28.9118C10.6229 28.816 10.8374 28.8515 10.9419 29.0149L11.2031 29.4234ZM12.415 28.6485C12.5108 28.7983 12.4753 29.0128 12.3119 29.1173L11.9034 29.3785C11.7536 29.4743 11.5391 29.4388 11.4346 29.2754L11.1734 28.8669C11.0776 28.7171 11.1131 28.5026 11.2765 28.3981L11.685 28.1369C11.8348 28.0411 12.0493 28.0766 12.1538 28.24L12.415 28.6485Z" fill="white"/>
</svg>
