<svg width="43" height="43" viewBox="0 0 43 43" fill="none" xmlns="http://www.w3.org/2000/svg">
<path d="M34.2308 9.67273V13.8126C34.2308 15.342 35.4706 16.5818 37 16.5818C38.5294 16.5818 39.7692 15.342 39.7692 13.8126V9.67273H41.2355C42.0124 9.67273 42.493 8.82875 42.0909 8.16398C41.4217 7.05778 40.4644 5.48386 39.5015 3.93035C38.352 2.07581 35.6942 2.10512 34.5441 3.95926L31.9473 8.1456C31.5341 8.81177 32.0131 9.67273 32.7971 9.67273H34.2308Z" fill="white"/>
<path d="M39.7692 28.3273L39.7692 24.1874C39.7692 22.658 38.5294 21.4182 37 21.4182C35.4706 21.4182 34.2308 22.658 34.2308 24.1874L34.2308 28.3273L32.7645 28.3273C31.9876 28.3273 31.507 29.1713 31.9091 29.836C32.5783 30.9422 33.5356 32.5161 34.4985 34.0696C35.648 35.9242 38.3058 35.8949 39.4559 34.0407L42.0527 29.8544C42.4659 29.1882 41.9869 28.3273 41.2029 28.3273L39.7692 28.3273Z" fill="white"/>
<path d="M0 21H29V28.5C29 36.5081 22.5081 43 14.5 43V43C6.49187 43 0 36.5081 0 28.5V21Z" fill="#727371"/>
<path d="M14 20H0V12C0 5.92487 4.92487 1 11 1H14V3.23529C12.067 3.2353 10.5 4.8023 10.5 6.7353V14.2647C10.5 16.1977 12.067 17.7647 14 17.7647V20Z" fill="#727371"/>
<path d="M15 20H29V12C29 5.92487 24.0751 1 18 1H15V3.23529C16.933 3.23529 18.5 4.8023 18.5 6.73529V14.2647C18.5 16.1977 16.933 17.7647 15 17.7647V20Z" fill="#727371"/>
<path d="M11.5 7C11.5 5.34315 12.8431 4 14.5 4V4C16.1569 4 17.5 5.34315 17.5 7V14C17.5 15.6569 16.1569 17 14.5 17V17C12.8431 17 11.5 15.6569 11.5 14V7Z" fill="#9EC626"/>
<path d="M6.06299 30.686C6.06299 30.5308 5.98535 30.4092 5.83008 30.3213C5.67773 30.2305 5.43164 30.1499 5.0918 30.0796C3.96094 29.8423 3.39551 29.3618 3.39551 28.6382C3.39551 28.2163 3.56982 27.8647 3.91846 27.5835C4.27002 27.2993 4.72852 27.1572 5.29395 27.1572C5.89746 27.1572 6.37939 27.2993 6.73975 27.5835C7.10303 27.8677 7.28467 28.2368 7.28467 28.6909H6.01465C6.01465 28.5093 5.95605 28.3599 5.83887 28.2427C5.72168 28.1226 5.53857 28.0625 5.28955 28.0625C5.07568 28.0625 4.91016 28.1108 4.79297 28.2075C4.67578 28.3042 4.61719 28.4272 4.61719 28.5767C4.61719 28.7173 4.68311 28.8315 4.81494 28.9194C4.94971 29.0044 5.17529 29.0791 5.4917 29.1436C5.80811 29.2051 6.07471 29.2754 6.2915 29.3545C6.9624 29.6006 7.29785 30.0269 7.29785 30.6333C7.29785 31.0669 7.11182 31.4185 6.73975 31.688C6.36768 31.9546 5.88721 32.0879 5.29834 32.0879C4.8999 32.0879 4.54541 32.0176 4.23486 31.877C3.92725 31.7334 3.68555 31.5386 3.50977 31.2925C3.33398 31.0435 3.24609 30.7754 3.24609 30.4883H4.4502C4.46191 30.7139 4.54541 30.8867 4.70068 31.0068C4.85596 31.127 5.06396 31.187 5.32471 31.187C5.56787 31.187 5.75098 31.1416 5.87402 31.0508C6 30.957 6.06299 30.8354 6.06299 30.686ZM10.0972 31.064C10.3315 31.064 10.522 30.9995 10.6685 30.8706C10.8149 30.7417 10.8911 30.5703 10.897 30.3564H12.0879C12.085 30.6787 11.9971 30.9746 11.8242 31.2441C11.6514 31.5107 11.4141 31.7188 11.1123 31.8682C10.8135 32.0146 10.4824 32.0879 10.1191 32.0879C9.43945 32.0879 8.90332 31.8726 8.51074 31.4419C8.11816 31.0083 7.92188 30.4106 7.92188 29.6489V29.5654C7.92188 28.833 8.1167 28.2485 8.50635 27.812C8.896 27.3755 9.43066 27.1572 10.1104 27.1572C10.7051 27.1572 11.1812 27.3271 11.5386 27.667C11.8989 28.0039 12.082 28.4536 12.0879 29.0161H10.897C10.8911 28.77 10.8149 28.5708 10.6685 28.4185C10.522 28.2632 10.3286 28.1855 10.0884 28.1855C9.79248 28.1855 9.56836 28.2939 9.41602 28.5107C9.2666 28.7246 9.19189 29.0732 9.19189 29.5566V29.6885C9.19189 30.1777 9.2666 30.5293 9.41602 30.7432C9.56543 30.957 9.79248 31.064 10.0972 31.064ZM15.4849 28.436C15.312 28.4126 15.1597 28.4009 15.0278 28.4009C14.5474 28.4009 14.2324 28.5635 14.083 28.8887V32H12.813V27.2451H14.0127L14.0479 27.812C14.3027 27.3755 14.6558 27.1572 15.1069 27.1572C15.2476 27.1572 15.3794 27.1763 15.5024 27.2144L15.4849 28.436ZM15.7441 29.5786C15.7441 29.1069 15.835 28.6865 16.0166 28.3174C16.1982 27.9482 16.459 27.6626 16.7988 27.4604C17.1416 27.2583 17.5386 27.1572 17.9897 27.1572C18.6313 27.1572 19.1543 27.3535 19.5586 27.7461C19.9658 28.1387 20.1929 28.6719 20.2397 29.3457L20.2485 29.6709C20.2485 30.4004 20.0449 30.9863 19.6377 31.4287C19.2305 31.8682 18.6841 32.0879 17.9985 32.0879C17.313 32.0879 16.7651 31.8682 16.355 31.4287C15.9478 30.9893 15.7441 30.3916 15.7441 29.6357V29.5786ZM17.0142 29.6709C17.0142 30.1221 17.0991 30.4678 17.269 30.708C17.439 30.9453 17.6821 31.064 17.9985 31.064C18.3062 31.064 18.5464 30.9468 18.7192 30.7124C18.8921 30.4751 18.9785 30.0972 18.9785 29.5786C18.9785 29.1362 18.8921 28.7935 18.7192 28.5503C18.5464 28.3071 18.3032 28.1855 17.9897 28.1855C17.6792 28.1855 17.439 28.3071 17.269 28.5503C17.0991 28.7905 17.0142 29.1641 17.0142 29.6709ZM22.3711 32H21.0967V25.25H22.3711V32ZM24.7617 32H23.4873V25.25H24.7617V32Z" fill="white"/>
</svg>
