<svg width="306" height="85" viewBox="0 0 306 85" fill="none" xmlns="http://www.w3.org/2000/svg">
<path d="M20.6 84.9H5.1C3.5 84.9 2.33333 84.5333 1.6 83.8C0.866667 83.0667 0.5 81.9 0.5 80.3V15.5C0.5 14.6333 0.6 13.9 0.8 13.3C1.06667 12.7 1.43333 12.2 1.9 11.8L14.8 0.899998C15.1333 0.633331 15.5667 0.43333 16.1 0.299994C16.7 0.0999968 17.3333 -1.90735e-06 18 -1.90735e-06H62.6C64.2 -1.90735e-06 65.3667 0.366664 66.1 1.1C66.8333 1.83333 67.2 3 67.2 4.6V16.5C67.2 17.3667 67.0667 18.1 66.8 18.7C66.6 19.3 66.2667 19.8 65.8 20.2L54.6 29.5C56.1333 29.5 57.2667 29.8667 58 30.6C58.7333 31.3333 59.1 32.5 59.1 34.1V46.1C59.1 46.9667 58.9667 47.7 58.7 48.3C58.5 48.9 58.1667 49.4 57.7 49.8L44.7 60.6C44.4333 60.8667 44 61.1 43.4 61.3C42.8667 61.5 42.2667 61.6 41.6 61.6H38.1V69.4C38.1 70.2667 37.9667 71 37.7 71.6C37.5 72.2 37.1667 72.7 36.7 73.1L23.7 83.9C23.4333 84.1667 23 84.4 22.4 84.6C21.8667 84.8 21.2667 84.9 20.6 84.9ZM33.5 73C34.7667 73 35.6667 72.7333 36.2 72.2C36.8 71.6 37.1 70.6667 37.1 69.4V49.7H54.5C55.7667 49.7 56.6667 49.4333 57.2 48.9C57.8 48.3 58.1 47.3667 58.1 46.1V34.1C58.1 32.8333 57.8 31.9333 57.2 31.4C56.6667 30.8 55.7667 30.5 54.5 30.5H37.1V20.1H62.6C63.8667 20.1 64.7667 19.8333 65.3 19.3C65.9 18.7 66.2 17.7667 66.2 16.5V4.6C66.2 3.33333 65.9 2.43333 65.3 1.9C64.7667 1.3 63.8667 0.999997 62.6 0.999997H18C16.7333 0.999997 15.8 1.3 15.2 1.9C14.6667 2.43333 14.4 3.33333 14.4 4.6V69.4C14.4 70.6667 14.6667 71.6 15.2 72.2C15.8 72.7333 16.7333 73 18 73H33.5ZM25.3 64V9.99999H57.2V11H26.3V39.6H49.1V40.6H26.3V64H25.3ZM95.7617 42.7V45.8H134.762V42.7C134.762 40.9 134.595 39.2333 134.262 37.7C133.995 36.1667 133.628 34.7333 133.162 33.4L126.262 17.1C125.528 15.3667 124.762 13.9333 123.962 12.8C123.162 11.6 121.828 11 119.962 11H110.162C108.162 11 106.762 11.6 105.962 12.8C105.162 13.9333 104.428 15.3333 103.762 17L97.3617 33.4C96.8951 34.7333 96.4951 36.1667 96.1617 37.7C95.8951 39.2333 95.7617 40.9 95.7617 42.7ZM111.762 22C112.028 21.4 112.295 20.9667 112.562 20.7C112.895 20.4333 113.262 20.3 113.662 20.3H116.162C116.562 20.3 116.895 20.4333 117.162 20.7C117.495 20.9667 117.795 21.4 118.062 22L122.762 37.2H107.062L111.762 22ZM134.762 64V46.8H95.7617V64H94.7617V42.7C94.7617 40.8333 94.8951 39.1333 95.1617 37.6C95.4951 36 95.9284 34.4667 96.4617 33L102.862 16.6C103.595 14.7333 104.428 13.1667 105.362 11.9C106.295 10.6333 107.895 9.99999 110.162 9.99999H119.962C122.162 9.99999 123.695 10.6333 124.562 11.9C125.495 13.1667 126.362 14.7667 127.162 16.7L134.062 33C134.595 34.4667 134.995 36 135.262 37.6C135.595 39.1333 135.762 40.8333 135.762 42.7V64H134.762ZM106.062 69.4V55.4H123.762V69.4C123.762 70.6667 124.062 71.6 124.662 72.2C125.328 72.7333 126.328 73 127.662 73H142.762C144.028 73 144.928 72.7333 145.462 72.2C146.062 71.6 146.362 70.6667 146.362 69.4V43C146.362 41 146.028 38.7 145.362 36.1C144.762 33.5 143.795 30.4667 142.462 27L133.762 4.3C133.362 3.16666 132.728 2.33333 131.862 1.8C131.062 1.26666 130.028 0.999997 128.762 0.999997H101.862C100.528 0.999997 99.4284 1.26666 98.5617 1.8C97.7617 2.33333 97.1617 3.16666 96.7617 4.3L88.0617 27C86.7284 30.4667 85.7284 33.5 85.0617 36.1C84.4617 38.7 84.1617 41 84.1617 43V69.4C84.1617 70.6667 84.4284 71.6 84.9617 72.2C85.5617 72.7333 86.4951 73 87.7617 73H102.462C103.728 73 104.628 72.7333 105.162 72.2C105.762 71.6 106.062 70.6667 106.062 69.4ZM92.6617 83.9C92.3951 84.1667 91.9617 84.4 91.3617 84.6C90.8284 84.8 90.2284 84.9 89.5617 84.9H74.8617C73.2617 84.9 72.0951 84.5333 71.3617 83.8C70.6284 83.0667 70.2617 81.9 70.2617 80.3V53.9C70.2617 51.8333 70.5617 49.5 71.1617 46.9C71.8284 44.2333 72.8617 41.1 74.2617 37.5L82.8617 14.9C83.0617 14.3 83.2951 13.8 83.5617 13.4C83.8951 12.9333 84.2284 12.5333 84.5617 12.2L84.6617 12.1L97.4617 1.4C97.9951 0.933329 98.6284 0.599996 99.3617 0.399999C100.095 0.133332 100.928 -1.90735e-06 101.862 -1.90735e-06H128.762C130.295 -1.90735e-06 131.528 0.333331 132.462 0.999997C133.462 1.6 134.195 2.56666 134.662 3.9L143.362 26.6C144.762 30.2 145.762 33.3333 146.362 36C147.028 38.6 147.362 40.9333 147.362 43V69.4C147.362 70.2667 147.228 71 146.962 71.6C146.762 72.2 146.428 72.7 145.962 73.1L132.962 83.9C132.695 84.1667 132.262 84.4 131.662 84.6C131.128 84.8 130.528 84.9 129.862 84.9H114.762C113.095 84.9 111.862 84.5 111.062 83.7C110.262 82.9667 109.862 81.8333 109.862 80.3V67.3H107.062V69.4C107.062 70.2667 106.928 71 106.662 71.6C106.462 72.2 106.128 72.7 105.662 73.1L92.6617 83.9ZM160.57 84.9C158.97 84.9 157.803 84.5333 157.07 83.8C156.336 83.0667 155.97 81.9 155.97 80.3V68.6C155.97 67.7333 156.07 67 156.27 66.4C156.536 65.8 156.903 65.3 157.37 64.9L167.37 56.5C163.836 55.4333 161.036 53.6333 158.97 51.1C156.97 48.5 155.97 44.8 155.97 40V29.5C155.97 26.5 156.47 23.8333 157.47 21.5C158.47 19.1667 159.903 17.2 161.77 15.6L174.77 4.7C176.57 3.23333 178.803 2.1 181.47 1.3C184.136 0.433332 187.17 -1.90735e-06 190.57 -1.90735e-06H218.57C220.17 -1.90735e-06 221.336 0.366664 222.07 1.1C222.803 1.83333 223.17 3 223.17 4.6V16.5C223.17 17.3667 223.036 18.1 222.77 18.7C222.57 19.3 222.236 19.8 221.77 20.2L212.77 27.7C216.97 28.6333 220.336 30.4 222.87 33C225.47 35.5333 226.77 39.5 226.77 44.9V55.4C226.77 58.4 226.27 61.0667 225.27 63.4C224.27 65.7333 222.803 67.7 220.87 69.3L207.97 80.1C206.103 81.6333 203.836 82.8 201.17 83.6C198.503 84.4667 195.503 84.9 192.17 84.9H160.57ZM205.07 73C211.47 73 216.503 71.5 220.17 68.5C223.903 65.4333 225.77 61.0667 225.77 55.4V44.9C225.77 39.3 224.336 35.3 221.47 32.9C218.603 30.5 214.836 28.9667 210.17 28.3L195.27 26.3C194.403 26.2333 193.736 25.9 193.27 25.3C192.803 24.7 192.57 23.9667 192.57 23.1C192.57 22.2333 192.803 21.5333 193.27 21C193.736 20.4 194.403 20.1 195.27 20.1H218.57C219.836 20.1 220.736 19.8333 221.27 19.3C221.87 18.7 222.17 17.7667 222.17 16.5V4.6C222.17 3.33333 221.87 2.43333 221.27 1.9C220.736 1.3 219.836 0.999997 218.57 0.999997H190.57C184.103 0.999997 179.036 2.53333 175.37 5.6C171.703 8.6 169.87 12.9333 169.87 18.6V29.1C169.87 34.7 171.27 38.7 174.07 41.1C176.936 43.5 180.703 45.0333 185.37 45.7L200.37 47.8C201.236 47.8667 201.87 48.1667 202.27 48.7C202.736 49.2333 202.97 50.0667 202.97 51.2C202.97 52 202.736 52.7 202.27 53.3C201.87 53.8333 201.236 54.1 200.37 54.1H173.47C172.203 54.1 171.27 54.4 170.67 55C170.136 55.5333 169.87 56.4333 169.87 57.7V69.4C169.87 70.6667 170.136 71.6 170.67 72.2C171.27 72.7333 172.203 73 173.47 73H205.07ZM213.17 9.99999V11H190.97C188.17 11 185.936 11.7667 184.27 13.3C182.603 14.8333 181.77 16.7667 181.77 19.1V27.3C181.77 29.6333 182.236 31.2667 183.17 32.2C184.103 33.1333 185.336 33.7333 186.87 34L207.97 38.3C209.97 38.7 211.603 39.5667 212.87 40.9C214.203 42.2333 214.87 44.6333 214.87 48.1V53.9C214.87 56.8333 213.87 59.2667 211.87 61.2C209.87 63.0667 207.17 64 203.77 64H178.87V63H203.77C206.836 63 209.27 62.1667 211.07 60.5C212.936 58.7667 213.87 56.5667 213.87 53.9V48.1C213.87 44.9667 213.303 42.8333 212.17 41.7C211.103 40.5 209.636 39.7 207.77 39.3L186.67 35C184.936 34.6667 183.503 34 182.37 33C181.303 31.9333 180.77 30.0333 180.77 27.3V19.1C180.77 16.4333 181.703 14.2667 183.57 12.6C185.436 10.8667 187.903 9.99999 190.97 9.99999H213.17ZM269.793 84.9H253.593C251.993 84.9 250.826 84.5333 250.093 83.8C249.36 83.0667 248.993 81.9 248.993 80.3V32.2H235.293C233.693 32.2 232.526 31.8333 231.793 31.1C231.06 30.3667 230.693 29.2 230.693 27.6V15.5C230.693 14.6333 230.793 13.9 230.993 13.3C231.26 12.7 231.626 12.2 232.093 11.8L244.993 0.899998C245.326 0.633331 245.76 0.43333 246.293 0.299994C246.893 0.0999968 247.526 -1.90735e-06 248.193 -1.90735e-06H300.993C302.593 -1.90735e-06 303.76 0.366664 304.493 1.1C305.226 1.83333 305.593 3 305.593 4.6V16.7C305.593 17.5667 305.46 18.3 305.193 18.9C304.993 19.5 304.66 20 304.193 20.4L291.193 31.2C290.926 31.4667 290.493 31.7 289.893 31.9C289.36 32.1 288.76 32.2 288.093 32.2H287.293V69.4C287.293 70.2667 287.16 71 286.893 71.6C286.693 72.2 286.36 72.7 285.893 73.1L272.893 83.9C272.626 84.1667 272.193 84.4 271.593 84.6C271.06 84.8 270.46 84.9 269.793 84.9ZM282.693 73C283.96 73 284.86 72.7333 285.393 72.2C285.993 71.6 286.293 70.6667 286.293 69.4V20.3H300.993C302.26 20.3 303.16 20.0333 303.693 19.5C304.293 18.9 304.593 17.9667 304.593 16.7V4.6C304.593 3.33333 304.293 2.43333 303.693 1.9C303.16 1.3 302.26 0.999997 300.993 0.999997H248.193C246.926 0.999997 245.993 1.3 245.393 1.9C244.86 2.43333 244.593 3.33333 244.593 4.6V16.7C244.593 17.9667 244.86 18.9 245.393 19.5C245.993 20.0333 246.926 20.3 248.193 20.3H262.893V69.4C262.893 70.6667 263.16 71.6 263.693 72.2C264.293 72.7333 265.226 73 266.493 73H282.693ZM274.093 64V11H253.593V9.99999H295.593V11H275.093V64H274.093Z" fill="white" fill-opacity="0.05"/>
</svg>
