<svg width="22" height="22" viewBox="0 0 22 22" fill="none" xmlns="http://www.w3.org/2000/svg">
<path d="M11.2023 0C7.45093 0 3.65356 1.88335 3.65356 5.48334V14.6534C3.65356 18.7044 6.94901 21.9999 11.0001 21.9999C15.0511 21.9999 18.3465 18.7044 18.3465 14.6534V5.48334C18.3465 1.71578 14.6434 0 11.2023 0ZM16.9638 14.6534C16.9638 17.9421 14.2884 20.617 11.0001 20.617C7.71161 20.617 5.03648 17.9421 5.03648 14.6534V10.3646C6.27131 10.7382 8.59556 11.3033 11.3434 11.3033C13.1027 11.3033 15.0349 11.0683 16.9638 10.4045V14.6534ZM16.9638 8.93359C11.9241 10.8606 6.57666 9.40966 5.03648 8.91113V5.48334C5.03648 2.81994 8.21328 1.38285 11.2023 1.38285C14.0701 1.38285 16.9638 2.65057 16.9638 5.48334V8.93359ZM10.9994 3.20833V6.875C10.9994 7.25673 10.9994 7.33333 11.0865 8.68994C10.7049 8.68994 10.3951 8.38015 10.3951 7.99842V2.98553C10.3951 2.60387 10.7049 2.29408 11.0865 2.29408C11.0865 2.98553 10.9994 2.82667 10.9994 3.20833ZM11.0865 2.29408C11.0865 2.29408 11.0865 6.1922 11.0865 8.68994C10.1068 8.86282 5.69931 8.23424 5.69931 8.23424C4.95035 2.52989 11.0865 2.29408 11.0865 2.29408Z" fill="white" fill-opacity="0.3"/>
<path d="M10.9994 3.20834V6.875C10.9994 7.25673 10.9994 7.33334 11.0865 8.68995C10.7049 8.68995 10.3951 8.38016 10.3951 7.99843V2.98554C10.3951 2.60387 10.7049 2.29408 11.0865 2.29408C11.0865 2.98554 10.9994 2.82667 10.9994 3.20834ZM11.0865 2.29408C11.0865 2.29408 11.0865 6.19221 11.0865 8.68995C10.1068 8.86283 5.69931 8.23424 5.69931 8.23424C4.95035 2.52989 11.0865 2.29408 11.0865 2.29408Z" fill="white"/>
<rect x="0.5" y="0.5" width="21" height="21"/>
</svg>
