<svg width="60" height="60" viewBox="0 0 60 60" fill="none" xmlns="http://www.w3.org/2000/svg">
<g opacity="0.3" clip-path="url(#clip0)">
<path d="M7.5119 21.641L8.75631 19.7325C9.3753 18.7833 10.0624 17.889 10.8063 17.0493V16.7198C10.8063 13.2109 12.1815 9.90094 14.6787 7.3998C17.1759 4.89855 20.4806 3.52113 23.9839 3.52113H36.0162C39.5197 3.52113 42.8244 4.89855 45.3214 7.3998C47.8187 9.90094 49.1938 13.2109 49.1938 16.7198V17.2526C49.8543 18.0162 50.4666 18.8251 51.0256 19.6771L51.9212 20.9829C52.1881 21.3723 52.4505 21.7649 52.7096 22.1597V16.72C52.7095 7.50047 45.221 0 36.0162 0H23.9839C14.7792 0 7.29065 7.50047 7.29065 16.72V21.9865C7.36459 21.8715 7.43725 21.7555 7.5119 21.641Z" fill="white"/>
<path d="M54.6725 32.9612L54.0328 31.6287C52.6035 28.6512 50.9179 25.7402 49.0228 22.9764L48.1065 21.6401C44.285 15.7938 37.4839 12.304 29.909 12.304C29.9085 12.304 29.9094 12.304 29.9089 12.304C22.3266 12.304 15.5186 15.8011 11.6995 21.658L10.4551 23.5665C8.89987 25.9518 7.49421 28.4464 6.27733 30.9812L5.32694 32.9612C2.66186 38.5133 3.00112 44.7336 6.258 50.0271C10.0126 56.1293 16.8656 59.856 24.5894 59.9958C24.7436 59.9987 24.8984 60 25.0535 60H34.946C35.101 60 35.2558 59.9986 35.4097 59.9958C43.1339 59.856 49.9869 56.1293 53.7414 50.0271C56.9983 44.7336 57.3376 38.5133 54.6725 32.9612ZM28.5315 46.0956C28.1866 46.4537 27.7266 46.6337 27.2662 46.6337C26.8269 46.6337 26.3871 46.4698 26.0459 46.1401L21.3642 41.6161V44.8731C21.3642 45.8454 20.5771 46.6337 19.6064 46.6337C18.6356 46.6337 17.8485 45.8454 17.8485 44.8731V31.4932C17.8485 30.5209 18.6356 29.7326 19.6064 29.7326C20.5771 29.7326 21.3642 30.5209 21.3642 31.4932V34.2681L25.6026 30.366C26.3177 29.7081 27.4297 29.7548 28.0863 30.4706C28.7432 31.1865 28.6965 32.3004 27.9817 32.9583L22.5977 37.9153L28.4869 43.6062C29.1856 44.2812 29.2055 45.3958 28.5315 46.0956ZM39.3147 46.7181C34.6625 46.7181 30.8777 42.9272 30.8777 38.2676C30.8777 33.608 34.6625 29.8171 39.3147 29.8171C41.0054 29.8171 42.637 30.3165 44.0333 31.2612C44.8376 31.8055 45.0493 32.8999 44.5058 33.7057C43.9624 34.5112 42.8696 34.7235 42.0651 34.179C41.2523 33.6289 40.3012 33.3382 39.3147 33.3382C36.6011 33.3382 34.3933 35.5495 34.3933 38.2675C34.3933 40.9854 36.6011 43.1967 39.3147 43.1967C41.52 43.1967 42.6646 41.7212 43.1046 40.0281H41.0845C40.1137 40.0281 39.3267 39.2398 39.3267 38.2675C39.3267 37.2952 40.1137 36.5068 41.0845 36.5068H45.0807C46.0515 36.5068 46.8385 37.2952 46.8385 38.2675C46.8384 43.2431 43.7445 46.7181 39.3147 46.7181Z" fill="white"/>
</g>
<defs>
<clipPath id="clip0">
<rect width="60" height="60" fill="white"/>
</clipPath>
</defs>
</svg>
