<svg width="22" height="22" viewBox="0 0 22 22" fill="none" xmlns="http://www.w3.org/2000/svg">
<path fill-rule="evenodd" clip-rule="evenodd" d="M2 4C0.895431 4 0 4.89543 0 6V16C0 17.1046 0.89543 18 2 18H20C21.1046 18 22 17.1046 22 16V6C22 4.89543 21.1046 4 20 4H2ZM15.9255 13.1117V11.9944H17V13.0335C17 14.2849 16.4214 15 15.3056 15C14.1898 15 13.6112 14.2849 13.6112 13.0335V8.96648C13.6112 7.71508 14.1898 7 15.3056 7C16.4214 7 17 7.71508 17 8.96648V9.72626H15.9255V8.88827C15.9255 8.32961 15.6982 8.11732 15.3366 8.11732C14.975 8.11732 14.7477 8.32961 14.7477 8.88827V13.1117C14.7477 13.6704 14.975 13.8715 15.3366 13.8715C15.6982 13.8715 15.9255 13.6704 15.9255 13.1117ZM7.82055 7.08939H6.15715L5 14.9106H6.0435L6.2398 13.4916H7.63458L7.83088 14.9106H8.9777L7.82055 7.08939ZM6.93202 8.47486L7.4796 12.4302H6.38444L6.93202 8.47486ZM11.222 7.08939H9.50695V14.9106H11.2943C12.4308 14.9106 13.0197 14.2626 13.0197 13.0559V12.419C13.0197 11.5922 12.7821 11 12.1725 10.743C12.6788 10.486 12.9061 9.97207 12.9061 9.1676V8.88827C12.9061 7.68156 12.3998 7.08939 11.222 7.08939ZM11.1497 11.3911C11.6663 11.3911 11.8832 11.6145 11.8832 12.3408V13.0223C11.8832 13.6034 11.6766 13.7933 11.2943 13.7933H10.6434V11.3911H11.1497ZM11.191 8.2067C11.594 8.2067 11.7696 8.45251 11.7696 9.01117V9.44693C11.7696 10.0726 11.5113 10.2737 11.0877 10.2737H10.6434V8.2067H11.191ZM3 11C3 11.5523 2.55228 12 2 12C1.44772 12 1 11.5523 1 11C1 10.4477 1.44772 10 2 10C2.55228 10 3 10.4477 3 11ZM20 12C20.5523 12 21 11.5523 21 11C21 10.4477 20.5523 10 20 10C19.4477 10 19 10.4477 19 11C19 11.5523 19.4477 12 20 12Z" fill="white" fill-opacity="0.3"/>
</svg>
