<svg width="38" height="38" viewBox="0 0 38 38" fill="none" xmlns="http://www.w3.org/2000/svg">
<path d="M27.9458 10.0542C25.3649 7.47333 21.7074 5.985 17.6858 6.39666C11.8749 6.9825 7.09327 11.7008 6.4441 17.5117C5.57327 25.1908 11.5108 31.6667 18.9999 31.6667C24.0508 31.6667 28.3891 28.7058 30.4158 24.4467C30.9224 23.3858 30.1624 22.1667 28.9908 22.1667C28.4049 22.1667 27.8508 22.4833 27.5974 23.0058C25.8083 26.8533 21.5174 29.2917 16.8308 28.2467C13.3158 27.4708 10.4816 24.605 9.73743 21.09C8.40743 14.9467 13.0783 9.5 18.9999 9.5C21.6283 9.5 23.9716 10.5925 25.6816 12.3183L23.2908 14.7092C22.2933 15.7067 22.9899 17.4167 24.3991 17.4167H30.0833C30.9541 17.4167 31.6666 16.7042 31.6666 15.8333V10.1492C31.6666 8.74 29.9566 8.0275 28.9591 9.025L27.9458 10.0542Z" fill="#7E858B"/>
</svg>
