<svg width="460" height="330" viewBox="0 0 460 330" fill="none" xmlns="http://www.w3.org/2000/svg">
<path d="M20.4477 101.479C14.8527 101.479 10.3171 96.9431 10.3171 91.3482C10.3171 85.7532 14.8527 81.2175 20.4477 81.2175C26.0427 81.2175 30.5784 85.7532 30.5784 91.3482C30.5784 96.9431 26.0427 101.479 20.4477 101.479Z" fill="white" fill-opacity="0.08"/>
<path d="M353.822 167.505L378.725 183.338L348.316 231.164L296.978 198.524L327.388 150.698L353.419 167.25C353.55 167.344 353.685 167.425 353.822 167.505Z" fill="white" fill-opacity="0.08"/>
<path d="M440.611 170.334C441.816 175.75 440.821 181.422 437.845 186.104C434.868 190.786 430.154 194.094 424.738 195.3L420.648 196.211L389.553 176.719C389.207 176.503 388.839 176.326 388.455 176.189L370.191 164.577L415.644 154.462C421.06 153.262 426.729 154.26 431.41 157.236C436.09 160.211 439.399 164.922 440.611 170.334Z" fill="white" fill-opacity="0.08"/>
<path d="M309.134 71.3653C314.55 70.1596 320.222 71.1545 324.904 74.1312C329.586 77.1079 332.894 81.8226 334.1 87.2381L348.207 150.603L329.7 138.835C329.412 138.544 329.093 138.284 328.749 138.062L297.894 118.493L293.276 96.4031C292.06 90.9801 293.047 85.2959 296.021 80.6006C298.995 75.9053 303.711 72.5834 309.134 71.3653Z" fill="white" fill-opacity="0.08"/>
<path d="M231.343 97.5198C232.979 97.1545 234.65 96.9697 236.327 96.9685C240.633 96.9711 244.85 98.2053 248.478 100.525L317.894 144.662L287.484 192.488L198.891 136.157L217.105 107.511C218.7 104.987 220.78 102.804 223.224 101.089C225.668 99.3745 228.427 98.1612 231.343 97.5198Z" fill="white" fill-opacity="0.08"/>
<path d="M388.219 189.375L459.155 234.477C464.236 237.716 467.825 242.839 469.134 248.721C470.444 254.603 469.366 260.764 466.139 265.852L447.926 294.499L357.809 237.201L388.219 189.375Z" fill="white" fill-opacity="0.08"/>
<path d="M256.099 459.572H183.288C177.262 459.565 171.485 457.168 167.224 452.907C162.963 448.646 160.566 442.869 160.559 436.843V290.133H256.099V459.572Z" fill="white" fill-opacity="0.08"/>
<path d="M415.625 436.843C415.618 442.869 413.221 448.646 408.96 452.907C404.699 457.168 398.922 459.565 392.896 459.572H338.846V290.133H415.627L415.625 436.843Z" fill="white" fill-opacity="0.08"/>
<path d="M327.596 290.133H267.349V459.571H327.596V290.133Z" fill="white" fill-opacity="0.08"/>
<path d="M92.0363 227.784L89.3457 212.096C89.1682 211.062 89.2838 209.998 89.6792 209.026C90.0747 208.054 90.7343 207.211 91.5835 206.595C92.4327 205.978 93.4375 205.611 94.4844 205.535C95.5313 205.459 96.5785 205.678 97.5075 206.167L111.596 213.573L125.685 206.167C126.614 205.678 127.661 205.459 128.709 205.534C129.756 205.61 130.761 205.977 131.61 206.594C132.459 207.211 133.119 208.053 133.515 209.026C133.91 209.998 134.026 211.062 133.848 212.096L131.156 227.784L142.555 238.895C143.307 239.627 143.839 240.556 144.09 241.575C144.342 242.594 144.303 243.663 143.978 244.661C143.654 245.659 143.057 246.547 142.254 247.223C141.452 247.9 140.476 248.338 139.437 248.489L123.687 250.779L116.643 265.052C116.179 265.993 115.46 266.786 114.568 267.341C113.677 267.895 112.648 268.189 111.598 268.189C110.548 268.189 109.52 267.895 108.628 267.341C107.737 266.786 107.018 265.993 106.554 265.052L99.5101 250.779L83.76 248.489C82.7214 248.338 81.7457 247.9 80.9433 247.223C80.141 246.546 79.5438 245.659 79.2195 244.661C78.8952 243.663 78.8566 242.594 79.1082 241.575C79.3597 240.556 79.8913 239.627 80.6428 238.895L92.0363 227.784Z" fill="white" fill-opacity="0.08"/>
<path d="M27.3414 150.281L42.8102 146.522L48.483 131.65C48.8568 130.669 49.4977 129.813 50.3331 129.177C51.1685 128.541 52.1651 128.152 53.2102 128.053C54.2553 127.955 55.3072 128.15 56.2468 128.618C57.1865 129.086 57.9764 129.808 58.5273 130.702L66.8814 144.251L82.7786 145.05C83.8268 145.103 84.8393 145.448 85.7017 146.046C86.564 146.644 87.2419 147.471 87.6586 148.435C88.0752 149.398 88.2141 150.459 88.0595 151.497C87.9048 152.535 87.4629 153.509 86.7836 154.309L76.4795 166.442L80.6252 181.807C80.8992 182.82 80.8843 183.89 80.582 184.895C80.2797 185.9 79.7022 186.801 78.9148 187.495C78.1273 188.189 77.1613 188.649 76.1261 188.823C75.0908 188.996 74.0276 188.877 73.0567 188.478L58.338 182.427L45.0058 191.124C44.1267 191.698 43.1047 192.014 42.0554 192.037C41.006 192.06 39.9712 191.789 39.0679 191.254C38.1646 190.72 37.4288 189.943 36.9439 189.012C36.4589 188.081 36.244 187.033 36.3236 185.987L37.5283 170.116L25.1392 160.125C24.3225 159.466 23.7063 158.592 23.3604 157.601C23.0144 156.611 22.9525 155.543 23.1816 154.519C23.4107 153.495 23.9216 152.555 24.6568 151.806C25.3919 151.058 26.3218 150.529 27.3414 150.281Z" fill="white" fill-opacity="0.08"/>
<path d="M56.7695 46.9171C56.9986 45.8928 57.5096 44.953 58.2448 44.204C58.9801 43.455 59.9103 42.9266 60.9302 42.6787L76.3989 38.9193L82.0708 24.0477C82.4447 23.0669 83.0857 22.2102 83.9211 21.5747C84.7566 20.9391 85.7532 20.55 86.7983 20.4514C87.8434 20.3528 88.8952 20.5486 89.8348 21.0166C90.7744 21.4847 91.5643 22.2063 92.1151 23.0999L100.468 36.6496L116.366 37.4483C117.415 37.5009 118.427 37.8458 119.29 38.4438C120.152 39.0419 120.83 39.8694 121.247 40.8326C121.664 41.7959 121.803 42.8566 121.648 43.8947C121.494 44.9329 121.052 45.907 120.372 46.7071L110.063 58.8393L114.215 74.2058C114.489 75.2191 114.473 76.2887 114.171 77.2938C113.869 78.299 113.291 79.1994 112.504 79.8934C111.716 80.5874 110.75 81.0472 109.715 81.2209C108.68 81.3946 107.617 81.2751 106.646 80.8762L91.9276 74.8255L78.5954 83.5246C77.7164 84.0981 76.6944 84.4142 75.645 84.4371C74.5957 84.46 73.5608 84.1889 72.6575 83.6544C71.7542 83.1199 71.0185 82.3433 70.5336 81.4125C70.0486 80.4816 69.8337 79.4337 69.9133 78.3871L71.1189 62.5143L58.7289 52.5233C57.9119 51.8647 57.2953 50.9906 56.9491 49.9999C56.6028 49.0092 56.5406 47.9413 56.7695 46.9171Z" fill="white" fill-opacity="0.08"/>
<path d="M153.582 220.667C180.837 213.923 200.457 221.256 212.118 228.595C224.813 236.588 231.022 246.272 231.281 246.681C232.08 247.941 232.346 249.466 232.02 250.922C231.694 252.378 230.803 253.645 229.543 254.444C228.283 255.242 226.757 255.508 225.301 255.182C223.845 254.856 222.579 253.965 221.78 252.705C220.936 251.392 200.585 220.629 156.287 231.587C155.567 231.772 154.818 231.813 154.083 231.707C153.347 231.601 152.64 231.35 152.002 230.969C151.364 230.589 150.808 230.085 150.365 229.488C149.923 228.891 149.603 228.212 149.425 227.491C149.246 226.77 149.212 226.02 149.325 225.286C149.438 224.551 149.695 223.846 150.082 223.212C150.469 222.577 150.977 222.026 151.578 221.589C152.179 221.152 152.861 220.839 153.584 220.667H153.582Z" fill="white" fill-opacity="0.08"/>
<path d="M215.582 200.871C215.917 201.533 216.117 202.255 216.172 202.995C216.226 203.735 216.134 204.479 215.9 205.183C215.666 205.887 215.295 206.538 214.808 207.098C214.321 207.659 213.728 208.117 213.063 208.447C212.399 208.777 211.675 208.972 210.935 209.021C210.194 209.07 209.451 208.973 208.749 208.733C208.046 208.494 207.398 208.118 206.841 207.627C206.285 207.136 205.831 206.54 205.506 205.873C199.307 194.581 190.873 184.668 180.718 176.741C158.885 159.935 133.537 157.335 105.38 169.025C104.697 169.308 103.966 169.454 103.227 169.454C102.489 169.455 101.757 169.31 101.074 169.028C100.392 168.745 99.7712 168.332 99.2485 167.81C98.7258 167.288 98.311 166.668 98.0279 165.985C97.7447 165.303 97.5987 164.572 97.5982 163.833C97.5977 163.094 97.7427 162.363 98.025 161.68C98.3072 160.997 98.7211 160.377 99.2431 159.854C99.7651 159.331 100.385 158.917 101.067 158.633C141.112 142.014 170.215 154.46 187.58 167.828C199.099 176.786 208.634 188.038 215.582 200.871Z" fill="white" fill-opacity="0.08"/>
<path d="M161.51 123.73C162.929 123.272 164.473 123.396 165.801 124.076C167.129 124.755 168.133 125.935 168.592 127.355C169.05 128.774 168.926 130.318 168.246 131.646C167.566 132.974 166.387 133.978 164.967 134.436C157.223 136.718 149.192 137.879 141.119 137.883C131.712 137.883 120.847 136.184 111.105 130.41C98.3549 122.856 90.179 109.985 86.7918 92.1599C86.6539 91.4342 86.6602 90.6884 86.8105 89.9652C86.9607 89.2419 87.252 88.5554 87.6676 87.9447C88.0832 87.334 88.615 86.8111 89.2327 86.406C89.8503 86.0008 90.5417 85.7213 91.2674 85.5833C91.9931 85.4454 92.7389 85.4517 93.4622 85.602C94.1854 85.7522 94.872 86.0435 95.4827 86.4591C96.0934 86.8747 96.6162 87.4065 97.0214 88.0242C97.4265 88.6418 97.7061 89.3333 97.844 90.059C100.598 104.554 106.972 114.865 116.792 120.707C135.469 131.812 161.105 123.86 161.51 123.73Z" fill="white" fill-opacity="0.08"/>
<path d="M242.942 272.693C237.347 272.693 232.811 268.158 232.811 262.563C232.811 256.968 237.347 252.432 242.942 252.432C248.537 252.432 253.073 256.968 253.073 262.563C253.073 268.158 248.537 272.693 242.942 272.693Z" fill="white" fill-opacity="0.08"/>
<path d="M163.236 88.9434C157.641 88.9434 153.105 84.4077 153.105 78.8128C153.105 73.2178 157.641 68.6821 163.236 68.6821C168.831 68.6821 173.366 73.2178 173.366 78.8128C173.366 84.4077 168.831 88.9434 163.236 88.9434Z" fill="white" fill-opacity="0.08"/>
<path d="M257.218 225.781C251.623 225.781 247.087 221.245 247.087 215.65C247.087 210.055 251.623 205.52 257.218 205.52C262.813 205.52 267.349 210.055 267.349 215.65C267.349 221.245 262.813 225.781 257.218 225.781Z" fill="white" fill-opacity="0.08"/>
<path d="M37.127 242.273C31.532 242.273 26.9964 237.737 26.9964 232.142C26.9964 226.547 31.532 222.011 37.127 222.011C42.7219 222.011 47.2576 226.547 47.2576 232.142C47.2576 237.737 42.7219 242.273 37.127 242.273Z" fill="white" fill-opacity="0.08"/>
</svg>
