<svg width="26" height="26" viewBox="0 0 26 26" fill="none" xmlns="http://www.w3.org/2000/svg">
<path d="M22.2466 13.8796H20.2358C20.4408 14.4408 20.5528 15.0463 20.5528 15.6775V23.2769C20.5528 23.5401 20.507 23.7927 20.4236 24.0276H23.7478C24.9896 24.0276 25.9998 23.0173 25.9998 21.7756V17.6328C25.9998 15.5633 24.3161 13.8796 22.2466 13.8796Z" fill="white"/>
<path d="M5.44706 15.6775C5.44706 15.0463 5.55903 14.4408 5.76399 13.8796H3.75325C1.68371 13.8796 0 15.5633 0 17.6329V21.7757C0 23.0174 1.01019 24.0276 2.25195 24.0276H5.5762C5.49287 23.7926 5.44706 23.5401 5.44706 23.2769V15.6775Z" fill="white"/>
<path d="M15.2983 11.9243H10.7015C8.63195 11.9243 6.94824 13.608 6.94824 15.6776V23.277C6.94824 23.6915 7.28431 24.0276 7.69889 24.0276H18.3009C18.7155 24.0276 19.0516 23.6916 19.0516 23.277V15.6776C19.0516 13.608 17.3679 11.9243 15.2983 11.9243Z" fill="white"/>
<path d="M13.0001 1.97241C10.5112 1.97241 8.48633 3.99727 8.48633 6.48621C8.48633 8.17444 9.41811 9.64888 10.7942 10.423C11.4469 10.7901 12.1994 11 13.0001 11C13.8008 11 14.5533 10.7901 15.206 10.423C16.5821 9.64888 17.5138 8.17439 17.5138 6.48621C17.5138 3.99732 15.489 1.97241 13.0001 1.97241Z" fill="white"/>
<path d="M5.07393 6.17944C3.21254 6.17944 1.69824 7.69374 1.69824 9.55513C1.69824 11.4165 3.21254 12.9308 5.07393 12.9308C5.5461 12.9308 5.99571 12.833 6.40415 12.6572C7.11031 12.3532 7.69257 11.815 8.05287 11.1409C8.30576 10.6678 8.44962 10.128 8.44962 9.55513C8.44962 7.69379 6.93532 6.17944 5.07393 6.17944Z" fill="white"/>
<path d="M20.9262 6.17944C19.0648 6.17944 17.5505 7.69374 17.5505 9.55513C17.5505 10.128 17.6944 10.6678 17.9473 11.1409C18.3076 11.8151 18.8898 12.3532 19.596 12.6572C20.0044 12.833 20.4541 12.9308 20.9262 12.9308C22.7876 12.9308 24.3019 11.4165 24.3019 9.55513C24.3019 7.69374 22.7876 6.17944 20.9262 6.17944Z" fill="white"/>
</svg>
