<svg width="40" height="40" viewBox="0 0 40 40" fill="none" xmlns="http://www.w3.org/2000/svg">
<g clip-path="url(#clip0)">
<path d="M35.4572 23.7045C34.4131 23.9406 33.3398 24.1492 32.246 24.3336C31.9876 21.8903 30.8902 11.5217 30.8824 11.4479C30.5665 8.46023 27.6323 6.45003 24.7173 7.2694C23.9814 7.47646 20.613 8.42423 20 8.59662C19.4745 8.44886 15.9016 7.44344 15.2826 7.26933C12.3882 6.45552 9.43569 8.43929 9.11773 11.4476C9.00345 12.526 8.08894 21.1729 7.75467 24.3315C6.66149 24.1474 5.58839 23.9392 4.54416 23.7036C2.21467 23.1781 0 24.9508 0 27.3413C0 29.0551 1.16024 30.5421 2.82149 30.9575C13.2564 33.5669 26.7423 33.567 37.1786 30.9575C38.8398 30.5421 40 29.0551 40 27.3413C40 24.955 37.7876 23.1775 35.4572 23.7045ZM29.3552 19.3758C23.5565 20.3226 16.742 20.3706 10.645 19.3764C10.7254 18.6165 11.3798 12.4321 11.4577 11.6951C11.6213 10.1436 13.1447 9.11262 14.6453 9.53482L19.0612 10.7769C20.1085 11.0715 19.9028 11.0684 20.9209 10.7819L25.3548 9.53474C26.8573 9.11168 28.3787 10.1465 28.5419 11.692C28.5419 11.6921 29.3552 19.3756 29.3552 19.3758ZM10.3972 21.7196C16.3405 22.6736 23.3005 22.7319 29.6034 21.7191C29.7158 22.7811 29.8231 23.7958 29.9171 24.6845C23.5009 25.5314 16.5094 25.5307 10.0838 24.6823L10.3972 21.7196ZM36.6078 28.6748C26.5192 31.1974 13.4813 31.1977 3.39224 28.6748C2.78031 28.5219 2.35294 27.9735 2.35294 27.3401C2.35294 26.4584 3.16988 25.8056 4.02635 25.9989C13.893 28.2249 26.1355 28.2252 35.9762 25.9994C36.8316 25.8059 37.6471 26.4608 37.6471 27.3412C37.6471 27.9735 37.2197 28.5218 36.6078 28.6748Z" fill="white"/>
</g>
<defs>
<clipPath id="clip0">
<rect width="40" height="40" fill="white"/>
</clipPath>
</defs>
</svg>
