<svg width="34" height="37" viewBox="0 0 34 37" fill="#232323" xmlns="http://www.w3.org/2000/svg">
<path d="M3.37955 26.1129C1.47591 22.4762 1 8.91763 1 2.59294L2.5 2C2.4339 3.58117 2.70534 8.71998 3.97443 14.2541C4.24028 15.4134 4.62678 16.2749 5.08875 16.9004C7.74259 20.4937 12.8924 12.7635 16.792 14.9426C17.0595 15.0921 17.2846 15.2666 17.4585 15.44C19.3622 13.2263 22.482 15.7035 23.804 17.2188C25.1921 18.0094 28.3648 18.879 29.9511 16.0329C31.5375 13.1868 31.6697 5.49175 31.5375 2L32.9256 2.59294V7.33645C33.5205 18.207 30.3477 27.2987 30.546 26.7058C30.7047 26.2315 30.2155 25.7176 29.9511 25.5199C29.9511 28.0498 27.3072 31.054 25.9852 32.2399C26.3025 31.4493 25.853 30.7246 25.5886 30.4611C25.3903 32.2399 23.4867 35.8371 17.4585 35.9952C11.4303 36.1533 8.86572 32.3717 8.33693 30.4611C7.86102 30.7773 7.74205 31.7787 7.74205 32.2399C6.63159 31.2912 4.76761 26.8376 3.97443 24.7293L3.37955 26.1129Z" stroke="#232323" stroke-width="2"/>

</svg>
