<svg width="52" height="45" viewBox="0 0 52 45" fill="none" xmlns="http://www.w3.org/2000/svg">
<path d="M45.4344 34.4384C45.4344 41.371 47.7263 42.5552 48.691 45L48.9804 34.4384C51.2038 29.7581 51.462 28.837 51.925 22.5C52.3881 16.163 50.6204 13.6085 48.9804 11.8482C48.8839 9.79459 48.691 8.3277 48.691 8.3277C48.691 8.3277 47.3404 11.1637 46.6651 11.2615C45.5074 0.934563 34.6062 -0.473653 29.3003 0.113104C35 1 35.5 2.46013 37 4.5C31.905 0.00460911 22.5473 1.18882 18.0131 2.46013C26 1.57738 29.0108 3.5 29.3003 4C23.5 3 24.4081 2.48622 19 3C14.3842 3.43851 11.646 5.19833 11.0672 5.6873C11.9933 5.6873 12.2248 6.27405 12.2248 6.56743C8.28881 6.56743 6.91892 8.3277 6.72598 9.20784C8.11516 8.97313 8.46246 9.6968 8.46246 10.088C4.52643 10.088 3.54243 12.0438 3.54243 13.0218C4.23702 12.7871 5.18244 12.924 5.56832 13.0218C2.78995 14.6647 1.13064 17.4224 0.648287 18.5959C-1.66702 25.3436 2.9636 35.0251 2.9636 37.9589C2.9636 40.3059 3.54243 42.7508 3.54243 45L6.72598 35.5645C6.72598 35.5645 7.11186 29.3532 7.59422 25.0503C12.2248 14.1953 25.2485 18.3026 31.905 19.1827C38.5615 20.0628 39.1403 17.7158 42.9027 19.1827C46.6651 20.6496 45.4344 32.3642 45.4344 34.4384Z" fill="#232323"/>
</svg>
