<svg width="47" height="28" viewBox="0 0 47 28" fill="none" xmlns="http://www.w3.org/2000/svg">
<path d="M1.1736 23.1707C1.08863 23.4838 1.03395 23.6698 1 23.7038C1.05492 23.5253 1.11285 23.3476 1.1736 23.1707C2.30649 18.996 8.8228 -7.76597 43.3415 2.21308C45.1796 2.74448 46.3297 4.57806 45.8128 6.42033C43.3704 15.1251 35.0611 29.8379 17.5 27.2038C23.6667 26.7038 36.8 23.6038 40 15.2038C40.3333 14.7038 40.7 13.5038 39.5 12.7038C38.3 11.9038 33 9.37043 30.5 8.20377C28.6667 7.5371 24 6.30377 20 6.70377C15 7.20377 10 9.70377 9.5 10.7038C9.01373 11.6763 3.32535 16.9051 1.1736 23.1707Z" fill="#232323"/>
<path d="M40.1004 12.8937C40.3243 13.0548 40.4003 13.2828 40.3535 13.4938C40.0447 14.8856 39.1435 17.6853 36.6114 20.3798C34.1 23.0523 29.9191 25.6914 22.9285 26.7036H22.8826H22.824H22.7655H22.707H22.6487H22.5903H22.5321H22.4739H22.4157H22.3577H22.2997H22.2418H22.1839H22.1261H22.0684H22.0107H21.9531H21.8956H21.8381H21.7807H21.7234H21.6661H21.6089H21.5518H21.4947H21.4377H21.3808H21.3239H21.2671H21.2104H21.1537H21.0971H21.0406H20.9841H20.9277H20.8714H20.8151H20.7589H20.7028H20.6467H20.5907H20.5348H20.4789H20.4231H20.3674H20.3117H20.2561H20.2006H20.1451H20.0898H20.0344H19.9792H19.924H19.8689H19.8138H19.7588H19.7039H19.6491H19.5943H19.5396H19.4849H19.4303H19.3758H19.3214H19.267H19.2127H19.1585H19.1043H19.0502H18.9962H18.9422H18.8883H18.8345H18.7807H18.727H18.6734H18.6199H18.5664H18.513H18.4596H18.4063H18.3531H18.3H18.2469H18.1939H18.141H18.0881H18.0353H17.9826H17.9299H17.8773H17.8248H17.7724H17.72H17.6677H17.6154H17.5632H17.5111H17.4591H17.4071H17.3552H17.3034H17.2516H17.1999H17.1483H17.0968H17.0453H16.9939H16.9425H16.8913H16.8401H16.7889H16.7379H16.6869H16.636H16.5851H16.5343H16.4836H16.433H16.3824H16.3319H16.2815H16.2311H16.1808H16.1306H16.0804H16.0304H15.9804H15.9304H15.8805H15.8307H15.781H15.7314H15.6818H15.6323H15.5828H15.5334H15.4841H15.4349H15.3857H15.3366H15.2876H15.2387H15.1898H15.141H15.0923H15.0436H14.995H14.9465H14.898H14.8496H14.8013H14.7531H14.7049H14.6568H14.6088H14.5609H14.513H14.4652H14.4174H14.3698H14.3222H14.2746H14.2272H14.1798H14.1325H14.0853H14.0381H13.991H13.944H13.8971H13.8502H13.8034H13.7566H13.71H13.6634H13.6169H13.5704H13.5241H13.4778H13.4315H13.3854H13.3393H13.2933H13.2474H13.2015H13.1557H13.11H13.0644H13.0188H12.9733H12.9279H12.8825H12.8372H12.792H12.7469H12.7018H12.6568H12.6119H12.5671H12.5223H12.4776H12.433H12.3884H12.3439H12.2995H12.2552H12.2109H12.1668H12.1227H12.0786H12.0346H11.9908H11.9469H11.9032H11.8595H11.8159H11.7724H11.729H11.6856H11.6423H11.5991H11.5559H11.5128H11.4698H11.4269H11.384H11.3413H11.2985H11.2559H11.2134H11.1709H11.1285H11.0861H11.0439H11.0017H10.9596H10.9175H10.8755H10.8337H10.7918H10.7501H10.7084H10.6668H10.6253H10.5839H10.5425H10.5012H10.46H10.4189H10.3778H10.3368H10.2959H10.255H10.2143H10.1736H10.133H10.0924H10.052H10.0116H9.97124H9.931H9.89084H9.85075H9.81073H9.77079H9.73093H9.69114H9.65143H9.61179H9.57223H9.53274H9.49333H9.454H9.41474H9.37556H9.33645H9.29742H9.25847H9.21959H9.18079H9.14206H9.10341H9.06484H9.02634H8.98792H8.94957H8.9113H8.87311H8.835H8.79696H8.75899H8.72111H8.6833H8.64556H8.60791H8.57032H8.53282H8.49539H8.45805H8.42077H8.38358H8.34646H8.30941H8.27245H8.23556H8.19875H8.16201H8.12535H8.08877H8.05227H8.01585H7.9795H7.94322H7.90703H7.87091H7.83487H7.79891H7.76303H7.72722H7.69149H7.65584H7.62027H7.58477H7.54935H7.51401H7.47874H7.44356H7.40845H7.37342H7.33847H7.3036H7.2688H7.23408H7.19944H7.16488H7.13039H7.09599H7.06166H7.02741H6.99324H6.95915H6.92514H6.8912H6.85734H6.82356H6.78986H6.75624H6.7227H6.68923H6.65585H6.62254H6.58931H6.55616H6.52309H6.4901H6.45718H6.42435H6.39159H6.35892H6.32632H6.2938H6.26136H6.229H6.19672H6.16452H6.1324H6.10035H6.06839H6.0365H6.0047H5.97297H5.94133H5.90976H5.87827H5.84686H5.81554H5.78429H5.75312H5.72203H5.69102H5.66009H5.62924H5.59847H5.56778H5.53717H5.50664H5.47619H5.44582H5.41553H5.38532H5.35519H5.32514H5.29517H5.26528H5.23547H5.20575H5.1761H5.14653H5.11704H5.08764H5.05831H5.02907H4.9999H4.97082H4.94181H4.91289H4.88405H4.85529H4.82661H4.79801H4.76949H4.74105H4.71269H4.68442H4.65622H4.62811H4.60008H4.57213H4.54426H4.51647H4.48876H4.46113H4.43359H4.40613H4.37874H4.35144H4.32422H4.29709H4.27003H4.24306H4.21616H4.18935H4.16262H4.13598H4.10941H4.08293H4.05652H4.0302H4.00397H3.97781H3.95174H3.92574H3.89983H3.874H3.84826H3.8226H3.79701H3.77151H3.7461H3.72076H3.69551H3.67034H3.64525H3.62025H3.59533H3.57049H3.54573H3.52106H3.49646H3.47196H3.44753H3.42319H3.39893H3.37475H3.35065H3.32664H3.30271H3.27887H3.2551H3.23142H3.20783H3.18431H3.16088H3.13754H3.11427H3.09109H3.06799H3.04498H3.02205H2.9992H2.97644H2.95376H2.93116H2.90865H2.88622H2.86388H2.84161H2.81944H2.79734H2.77533H2.7534H2.73156H2.7098H2.68813H2.66654H2.64503H2.62361H2.60227H2.58102H2.55985H2.53876H2.51776H2.49684H2.47601H2.45526H2.4346H2.41402H2.39352H2.37311H2.35278C1.71543 26.7036 1.34719 26.1728 1.47883 25.667C2.19794 22.9036 3.77793 18.1172 6.79334 14.0421C9.79163 9.9901 14.1535 6.70361 20.5 6.70361C30.5743 6.70361 37.8036 11.2407 40.1004 12.8937Z" stroke="#232323" stroke-width="2"/>
<ellipse cx="20.5" cy="16.7036" rx="9.5" ry="10" fill="#232323"/>
</svg>
