<svg width="30" height="30" viewBox="0 0 30 30" fill="none" xmlns="http://www.w3.org/2000/svg">
<path d="M18.2067 16.4554V2.56214C18.2059 2.09792 18.0211 1.65295 17.6928 1.3247C17.3646 0.99644 16.9196 0.811648 16.4554 0.810791H2.56214C2.09792 0.811648 1.65295 0.99644 1.3247 1.3247C0.99644 1.65295 0.811648 2.09792 0.810791 2.56214V16.4554C0.811648 16.9196 0.99644 17.3646 1.3247 17.6928C1.65295 18.0211 2.09792 18.2059 2.56214 18.2067H16.4554C16.9196 18.2059 17.3646 18.0211 17.6928 17.6928C18.0211 17.3646 18.2059 16.9196 18.2067 16.4554ZM5.54876 7.64349C5.06425 7.64338 4.59476 7.47529 4.22029 7.16784C3.84582 6.86039 3.58953 6.43261 3.49509 5.95739C3.40064 5.48217 3.4739 4.9889 3.70236 4.56163C3.93082 4.13436 4.30036 3.79953 4.74802 3.61417C5.19568 3.42881 5.69375 3.40439 6.15739 3.54509C6.62103 3.68578 7.02154 3.98288 7.29069 4.38576C7.55985 4.78863 7.68098 5.27237 7.63347 5.75455C7.58595 6.23673 7.37273 6.68752 7.03012 7.03012C6.83601 7.22521 6.60514 7.37988 6.35087 7.48517C6.0966 7.59046 5.82397 7.64427 5.54876 7.64349ZM9.50876 11.6039C9.02404 11.604 8.55429 11.4359 8.17956 11.1285C7.80482 10.821 7.54829 10.3931 7.45367 9.91775C7.35905 9.44235 7.43219 8.94885 7.66064 8.52133C7.88909 8.09382 8.25871 7.75874 8.70652 7.5732C9.15432 7.38765 9.65261 7.36312 10.1165 7.50378C10.5803 7.64444 10.9811 7.94159 11.2504 8.3446C11.5198 8.7476 11.641 9.23153 11.5936 9.71393C11.5461 10.1963 11.3328 10.6473 10.9901 10.9901C10.7961 11.1853 10.5652 11.3401 10.311 11.4455C10.0567 11.5508 9.78401 11.6047 9.50876 11.6039ZM14.9505 14.9505C14.6575 15.2436 14.2842 15.4431 13.8778 15.524C13.4714 15.6049 13.0501 15.5634 12.6672 15.4049C12.2844 15.2463 11.9571 14.9778 11.7269 14.6332C11.4967 14.2887 11.3738 13.8836 11.3738 13.4692C11.3738 13.0548 11.4967 12.6497 11.7269 12.3051C11.9571 11.9606 12.2844 11.692 12.6672 11.5335C13.0501 11.3749 13.4714 11.3334 13.8778 11.4143C14.2842 11.4952 14.6575 11.6948 14.9505 11.9878C15.1466 12.1815 15.3023 12.4122 15.4085 12.6664C15.5148 12.9207 15.5695 13.1936 15.5695 13.4692C15.5695 13.7448 15.5148 14.0176 15.4085 14.2719C15.3023 14.5262 15.1466 14.7569 14.9505 14.9505Z" fill="white"/>
<path d="M27.4377 11.7932H19.0174V16.4554C19.0167 17.1347 18.7465 17.7859 18.2661 18.2663C17.7858 18.7466 17.1346 19.0168 16.4553 19.0175H11.7931V27.4378C11.7939 27.902 11.9787 28.347 12.307 28.6753C12.6353 29.0035 13.0802 29.1883 13.5444 29.1892H27.4377C27.9019 29.1883 28.3469 29.0035 28.6751 28.6753C29.0034 28.347 29.1882 27.902 29.189 27.4378V13.5446C29.1882 13.0803 29.0034 12.6354 28.6751 12.3071C28.3469 11.9789 27.9019 11.7941 27.4377 11.7932ZM16.2327 26.8443C15.8183 26.8444 15.4131 26.7216 15.0685 26.4914C14.7239 26.2612 14.4553 25.934 14.2967 25.5511C14.1381 25.1683 14.0966 24.747 14.1774 24.3405C14.2582 23.9341 14.4578 23.5607 14.7508 23.2677C15.0438 22.9746 15.4172 22.7751 15.8236 22.6943C16.2301 22.6134 16.6514 22.655 17.0342 22.8136C17.4171 22.9722 17.7443 23.2408 17.9745 23.5854C18.2047 23.93 18.3275 24.3352 18.3274 24.7496C18.3268 25.3049 18.1059 25.8374 17.7132 26.2301C17.3205 26.6228 16.788 26.8437 16.2327 26.8443ZM24.7494 26.8443C24.335 26.8443 23.93 26.7214 23.5854 26.4912C23.2409 26.2609 22.9723 25.9337 22.8138 25.5508C22.6552 25.168 22.6137 24.7467 22.6946 24.3403C22.7755 23.9338 22.9751 23.5605 23.2681 23.2675C23.5612 22.9745 23.9345 22.775 24.341 22.6942C24.7474 22.6134 25.1687 22.655 25.5515 22.8136C25.9343 22.9723 26.2615 23.2409 26.4917 23.5855C26.7218 23.9301 26.8447 24.3352 26.8446 24.7496C26.8439 25.305 26.623 25.8375 26.2302 26.2302C25.8374 26.6229 25.3049 26.8438 24.7494 26.8443ZM24.7494 18.3275C24.335 18.3275 23.93 18.2046 23.5854 17.9744C23.2409 17.7442 22.9723 17.4169 22.8138 17.0341C22.6552 16.6512 22.6137 16.2299 22.6946 15.8235C22.7755 15.4171 22.9751 15.0438 23.2681 14.7508C23.5612 14.4578 23.9345 14.2583 24.341 14.1775C24.7474 14.0967 25.1687 14.1382 25.5515 14.2969C25.9343 14.4555 26.2615 14.7241 26.4917 15.0687C26.7218 15.4133 26.8447 15.8184 26.8446 16.2328C26.8439 16.7882 26.623 17.3207 26.2302 17.7134C25.8374 18.1061 25.3049 18.327 24.7494 18.3275Z" fill="white"/>
</svg>
