<svg width="26" height="26" viewBox="0 0 26 26" fill="none" xmlns="http://www.w3.org/2000/svg">
<g clip-path="url(#clip0)">
<path d="M23.5968 5.49578C23.5963 5.4874 23.5954 5.47902 23.594 5.4707C23.5615 5.42427 23.5215 5.38432 23.4881 5.33883C23.2453 5.00815 22.9883 4.68987 22.7171 4.38396C22.6429 4.30036 22.5685 4.21769 22.4924 4.13595C22.2131 3.83689 21.9202 3.5517 21.6137 3.28051C21.557 3.23033 21.5041 3.17835 21.4474 3.1291C20.692 2.48194 19.8649 1.92344 18.9823 1.46465C18.947 1.44609 18.9099 1.43031 18.8736 1.4117C18.4806 1.21196 18.0776 1.03241 17.6661 0.873877C17.5732 0.840461 17.4887 0.808841 17.4005 0.780976C17.0345 0.649106 16.663 0.533618 16.2859 0.434512C16.1744 0.404797 16.0629 0.374156 15.9496 0.348141C15.5781 0.26177 15.2066 0.195808 14.8266 0.141928C14.7115 0.12522 14.5982 0.102906 14.482 0.0889738C13.5035 -0.0299428 12.5143 -0.0299428 11.5357 0.0889738C11.4197 0.102906 11.3063 0.12522 11.1911 0.141928C10.8112 0.195808 10.436 0.26177 10.0681 0.348141C9.95483 0.374156 9.84337 0.404797 9.73191 0.434512C9.3523 0.533564 8.9808 0.649052 8.6173 0.780976C8.5244 0.812541 8.43988 0.844162 8.35166 0.873877C7.94027 1.03241 7.5372 1.21191 7.14415 1.4117C7.10791 1.43025 7.07079 1.44604 7.03547 1.46465C6.14994 1.92296 5.32002 2.4814 4.56195 3.1291C4.5053 3.1783 4.45234 3.23033 4.39569 3.28051C4.08607 3.55296 3.79316 3.83814 3.51701 4.13595C3.44087 4.21769 3.36653 4.30036 3.29224 4.38396C3.02039 4.68922 2.7634 5.00749 2.52132 5.33877C2.48791 5.38427 2.44796 5.42422 2.41541 5.47064C2.41117 5.47875 2.40741 5.48713 2.40426 5.49573C-0.799466 9.98555 -0.799466 16.0141 2.40426 20.5039C2.40741 20.5125 2.41112 20.5208 2.41541 20.529C2.44791 20.5754 2.48785 20.6153 2.52132 20.6608C2.76346 20.9915 3.02039 21.3098 3.29224 21.6157C3.36653 21.6993 3.44087 21.782 3.51701 21.8637C3.79691 22.1628 4.08977 22.4479 4.39569 22.7191C4.45234 22.7693 4.5053 22.8213 4.56195 22.8706C5.31736 23.5177 6.14449 24.0762 7.02709 24.535C7.06241 24.5536 7.09953 24.5693 7.13577 24.588C7.52882 24.7877 7.93183 24.9672 8.34328 25.1258C8.43618 25.1592 8.5207 25.1908 8.60892 25.2187C8.97487 25.3505 9.34642 25.466 9.72353 25.5651C9.83499 25.5949 9.94645 25.6255 10.0598 25.6515C10.4313 25.7379 10.8028 25.8038 11.1827 25.8577C11.2979 25.8744 11.4112 25.8967 11.5274 25.9107C12.5058 26.0296 13.4951 26.0296 14.4737 25.9107C14.5897 25.8967 14.7031 25.8744 14.8183 25.8577C15.1981 25.8038 15.5734 25.7379 15.9413 25.6515C16.0546 25.6255 16.166 25.5949 16.2775 25.5651C16.6577 25.4661 17.0292 25.3506 17.3921 25.2187C17.485 25.1871 17.5695 25.1555 17.6577 25.1258C18.0691 24.9672 18.4722 24.7877 18.8652 24.588C18.9015 24.5694 18.9386 24.5536 18.9739 24.535C19.8565 24.0762 20.6837 23.5177 21.4391 22.8706C21.4957 22.8213 21.5487 22.7693 21.6053 22.7191C21.9149 22.4473 22.2078 22.1622 22.484 21.8637C22.5601 21.782 22.6345 21.6993 22.7088 21.6157C22.9806 21.3098 23.2376 20.9915 23.4797 20.6608C23.5131 20.6153 23.553 20.5754 23.5856 20.529C23.5898 20.5208 23.5936 20.5125 23.5968 20.5039C26.8005 16.0142 26.8005 9.98561 23.5968 5.49578ZM22.537 7.25319C23.4253 8.71616 23.9617 10.3654 24.1039 12.0711H18.5402C18.472 10.9643 18.2979 9.86669 18.02 8.79323C19.5916 8.4989 21.1128 7.98024 22.537 7.25319ZM15.3682 2.11017C15.4202 2.12226 15.4703 2.13896 15.5223 2.15105C15.8549 2.22909 16.1846 2.31824 16.5069 2.4297C16.5562 2.44641 16.6045 2.46594 16.6528 2.48358C16.9723 2.59504 17.2872 2.71858 17.5956 2.85513C17.6495 2.88022 17.7024 2.90808 17.7563 2.93317C18.0517 3.07375 18.3402 3.22576 18.622 3.38925L18.8077 3.50163C19.0752 3.66512 19.3353 3.84004 19.5879 4.02644C19.653 4.07379 19.718 4.11935 19.7821 4.17132C20.0297 4.35707 20.2669 4.55615 20.4935 4.76857C20.553 4.82245 20.6143 4.87541 20.6728 4.93114C20.9106 5.15683 21.1372 5.39554 21.3564 5.64262C21.3843 5.67511 21.414 5.70483 21.4419 5.73552C20.1842 6.33489 18.8518 6.76289 17.4804 7.00801C16.8451 5.26144 16.0058 3.59595 14.98 2.04617C15.109 2.06936 15.2409 2.08236 15.3682 2.11017ZM9.32329 12.071C9.39655 11.066 9.56766 10.0706 9.83417 9.09877C10.8866 9.22378 11.9454 9.28577 13.0052 9.28452C14.066 9.28419 15.1259 9.22062 16.1791 9.09408C16.4451 10.0675 16.6153 11.0645 16.6871 12.071H9.32329ZM16.6871 13.9287C16.6139 14.9337 16.4428 15.9292 16.1763 16.901C15.1239 16.776 14.065 16.714 13.0052 16.7152C11.9445 16.714 10.8847 16.776 9.83134 16.901C9.56559 15.9291 9.39546 14.9337 9.32324 13.9287H16.6871ZM13.0052 2.45947C14.0622 3.9576 14.9316 5.57971 15.5939 7.28944C14.734 7.38076 13.8699 7.42664 13.0052 7.42691C12.1414 7.42588 11.2783 7.37973 10.4193 7.28851C11.0824 5.57993 11.9507 3.95836 13.0052 2.45947ZM4.65496 5.64164C4.87326 5.39456 5.1008 5.15585 5.33858 4.93016C5.39709 4.87442 5.45842 4.82147 5.51786 4.76759C5.74698 4.55893 5.98416 4.35985 6.22934 4.17034C6.29345 4.12109 6.35843 4.07744 6.42347 4.02547C6.67611 3.83972 6.9362 3.66474 7.20369 3.50065L7.38944 3.38827C7.6712 3.22358 7.95975 3.07152 8.25511 2.93219C8.30899 2.90711 8.36195 2.87924 8.41583 2.85415C8.72419 2.71483 9.03909 2.59128 9.35861 2.4826C9.40689 2.46496 9.45152 2.44543 9.50442 2.42872C9.82671 2.32096 10.1546 2.23181 10.489 2.15007C10.541 2.13798 10.5912 2.12128 10.6441 2.11012C10.7714 2.08225 10.9033 2.06925 11.0324 2.04601C10.0062 3.59606 9.1666 5.26187 8.53099 7.00877C7.15956 6.76365 5.82715 6.33566 4.56952 5.73628C4.59738 5.70385 4.6271 5.67413 4.65496 5.64164ZM3.47347 7.25319C4.89726 7.98019 6.41814 8.49885 7.98947 8.79323C7.71196 9.86674 7.53808 10.9644 7.47026 12.0711H1.90655C2.04881 10.3654 2.58522 8.71616 3.47347 7.25319ZM3.47347 18.7466C2.58516 17.2837 2.04876 15.6344 1.90655 13.9287H7.47026C7.5384 15.0355 7.71256 16.1331 7.99039 17.2066C6.41879 17.5009 4.89759 18.0195 3.47347 18.7466ZM10.6423 23.8896C10.5902 23.8775 10.5401 23.8608 10.4881 23.8487C10.1555 23.7707 9.82579 23.6815 9.50349 23.5701C9.45424 23.5534 9.40596 23.5338 9.35763 23.5162C9.03811 23.4047 8.72327 23.2812 8.41485 23.1446C8.36097 23.1195 8.30801 23.0917 8.25413 23.0666C7.95877 22.926 7.67022 22.774 7.38846 22.6105L7.20271 22.4981C6.93522 22.3346 6.67513 22.1597 6.42249 21.9733C6.35745 21.926 6.29247 21.8804 6.22836 21.8284C5.98068 21.6427 5.7435 21.4436 5.51688 21.2312C5.45745 21.1773 5.39611 21.1244 5.3376 21.0686C5.09982 20.8429 4.8732 20.6042 4.65398 20.3571C4.62612 20.3246 4.5964 20.2949 4.56854 20.2642C5.82622 19.6649 7.15858 19.2369 8.53001 18.9917C9.16535 20.7383 10.0046 22.4038 11.0304 23.9536C10.9014 23.9305 10.7695 23.9175 10.6423 23.8896ZM13.0052 23.5403C11.9482 22.0422 11.0788 20.4201 10.4165 18.7104C12.1367 18.5252 13.8718 18.5252 15.592 18.7104L15.591 18.7113C14.928 20.4198 14.0597 22.0414 13.0052 23.5403ZM21.3555 20.3581C21.1372 20.6052 20.9096 20.8439 20.6718 21.0696C20.6133 21.1253 20.552 21.1783 20.4926 21.2322C20.2634 21.4415 20.0263 21.6406 19.7811 21.8294C19.717 21.8786 19.652 21.9269 19.587 21.9743C19.3343 22.16 19.0742 22.335 18.8067 22.4991L18.621 22.6115C18.3398 22.7756 18.0513 22.9276 17.7553 23.0676C17.7014 23.0927 17.6485 23.1205 17.5946 23.1456C17.2862 23.2849 16.9713 23.4085 16.6518 23.5172C16.6035 23.5348 16.5589 23.5543 16.506 23.571C16.1837 23.6788 15.8558 23.7679 15.5214 23.8497C15.4694 23.8618 15.4193 23.8785 15.3663 23.8896C15.2391 23.9175 15.1071 23.9305 14.9781 23.9538C16.0038 22.404 16.8432 20.7385 17.4785 18.9919C18.8499 19.237 20.1823 19.665 21.4399 20.2644C21.413 20.2959 21.3833 20.3256 21.3555 20.3581ZM22.537 18.7466C21.1132 18.0196 19.5923 17.501 18.021 17.2066C18.2985 16.1331 18.4723 15.0354 18.5402 13.9287H24.1039C23.9616 15.6343 23.4252 17.2836 22.537 18.7466Z" fill="#B6B6B6"/>
</g>
<defs>
<clipPath id="clip0">
<rect width="26" height="26" fill="white"/>
</clipPath>
</defs>
</svg>
