<svg width="26" height="27" viewBox="0 0 26 27" fill="none" xmlns="http://www.w3.org/2000/svg">
<g clip-path="url(#clip0)">
<path d="M1.56275 11.6217C1.66913 11.6044 1.7768 11.5965 1.88452 11.5978H20.227L19.827 11.4118C19.4361 11.2268 19.0804 10.9749 18.776 10.6677L13.6323 5.52401C12.9548 4.87733 12.841 3.83702 13.3625 3.05913C13.9695 2.2302 15.1335 2.05022 15.9625 2.65719C16.0295 2.70626 16.0931 2.75974 16.153 2.81729L25.4544 12.1187C26.1813 12.8448 26.1819 14.0227 25.4559 14.7496C25.4554 14.75 25.4549 14.7506 25.4544 14.751L16.153 24.0525C15.4255 24.7779 14.2476 24.7763 13.5221 24.0488C13.465 23.9915 13.4117 23.9306 13.3625 23.8664C12.841 23.0885 12.9548 22.0482 13.6323 21.4016L18.7667 16.2486C19.0396 15.9753 19.3534 15.7462 19.6968 15.5696L20.2549 15.3184H1.98689C1.03658 15.3537 0.202818 14.6899 0.0242882 13.7558C-0.140173 12.7416 0.548599 11.7862 1.56275 11.6217Z" fill="white"/>
</g>
<defs>
<clipPath id="clip0">
<rect width="26" height="26" fill="white" transform="matrix(-1 0 0 1 26 0.446655)"/>
</clipPath>
</defs>
</svg>
