<svg width="27" height="27" viewBox="0 0 27 27" fill="none" xmlns="http://www.w3.org/2000/svg">
<path d="M20.9468 12.6738C20.7274 12.6738 20.5169 12.7609 20.3617 12.9161C20.2066 13.0713 20.1194 13.2817 20.1194 13.5012C20.1292 15.051 19.5983 16.5557 18.6182 17.7561C17.638 18.9566 16.2698 19.7777 14.7494 20.078C13.229 20.3783 11.6514 20.139 10.2884 19.4013C8.92541 18.6636 7.86232 17.4738 7.28224 16.0366C6.70215 14.5995 6.64137 13.005 7.11038 11.5279C7.57938 10.0507 8.54881 8.78337 9.85169 7.94407C11.1546 7.10477 12.7093 6.74608 14.2482 6.92976C15.7871 7.11345 17.2138 7.82802 18.2825 8.95039H16.2967C16.0773 8.95039 15.8668 9.03757 15.7116 9.19274C15.5565 9.34791 15.4693 9.55837 15.4693 9.77781C15.4693 9.99726 15.5565 10.2077 15.7116 10.3629C15.8668 10.5181 16.0773 10.6052 16.2967 10.6052H20.0449C20.2644 10.6052 20.4748 10.5181 20.63 10.3629C20.7852 10.2077 20.8723 9.99726 20.8723 9.77781V6.05443C20.8723 5.83498 20.7852 5.62453 20.63 5.46936C20.4748 5.31419 20.2644 5.22701 20.0449 5.22701C19.8255 5.22701 19.615 5.31419 19.4598 5.46936C19.3047 5.62453 19.2175 5.83498 19.2175 6.05443V7.51896C17.8396 6.20176 16.0491 5.40073 14.1487 5.25128C12.2484 5.10183 10.3547 5.61312 8.78781 6.69873C7.22091 7.78434 6.07692 9.37768 5.54921 11.2094C5.0215 13.0411 5.14244 14.9989 5.89158 16.7517C6.64072 18.5046 7.97212 19.945 9.66071 20.8295C11.3493 21.714 13.2915 21.9884 15.159 21.6061C17.0265 21.2239 18.7048 20.2086 19.9102 18.7319C21.1155 17.2551 21.7739 15.4074 21.7742 13.5012C21.7742 13.2817 21.687 13.0713 21.5319 12.9161C21.3767 12.7609 21.1662 12.6738 20.9468 12.6738Z" fill="#5F6368"/>
</svg>
