<svg width="27" height="27" viewBox="0 0 27 27" fill="none" xmlns="http://www.w3.org/2000/svg">
<path d="M19.125 12.375H10.5863L14.2988 8.67375C14.5106 8.4619 14.6296 8.17458 14.6296 7.875C14.6296 7.57541 14.5106 7.28809 14.2988 7.07625C14.0869 6.8644 13.7996 6.74539 13.5 6.74539C13.2004 6.74539 12.9131 6.8644 12.7013 7.07625L7.07626 12.7012C6.97383 12.8082 6.89355 12.9344 6.84001 13.0725C6.72749 13.3464 6.72749 13.6536 6.84001 13.9275C6.89355 14.0656 6.97383 14.1918 7.07626 14.2987L12.7013 19.9237C12.8058 20.0292 12.9303 20.1129 13.0674 20.17C13.2044 20.2271 13.3515 20.2565 13.5 20.2565C13.6485 20.2565 13.7956 20.2271 13.9327 20.17C14.0697 20.1129 14.1942 20.0292 14.2988 19.9237C14.4042 19.8192 14.4879 19.6947 14.545 19.5576C14.6021 19.4206 14.6315 19.2735 14.6315 19.125C14.6315 18.9765 14.6021 18.8294 14.545 18.6923C14.4879 18.5553 14.4042 18.4308 14.2988 18.3262L10.5863 14.625H19.125C19.4234 14.625 19.7095 14.5065 19.9205 14.2955C20.1315 14.0845 20.25 13.7984 20.25 13.5C20.25 13.2016 20.1315 12.9155 19.9205 12.7045C19.7095 12.4935 19.4234 12.375 19.125 12.375Z" fill="#BABCBE"/>
</svg>
