<svg width="40" height="40" viewBox="0 0 40 40" fill="none" xmlns="http://www.w3.org/2000/svg">
<path d="M18.5734 4.39057C19.0224 3.00861 20.9776 3.00861 21.4266 4.39058L24.1535 12.7832C24.3543 13.4012 24.9303 13.8197 25.5801 13.8197H34.4046C35.8577 13.8197 36.4619 15.6791 35.2863 16.5332L28.1471 21.7201C27.6214 22.1021 27.4014 22.7791 27.6022 23.3972L30.3291 31.7898C30.7781 33.1717 29.1964 34.3209 28.0209 33.4668L20.8817 28.2799C20.3559 27.8979 19.6441 27.8979 19.1183 28.2799L11.9791 33.4668C10.8036 34.3209 9.22185 33.1717 9.67088 31.7898L12.3978 23.3972C12.5986 22.7791 12.3786 22.1021 11.8529 21.7201L4.71372 16.5332C3.53815 15.6791 4.14231 13.8197 5.5954 13.8197H14.4199C15.0697 13.8197 15.6457 13.4012 15.8465 12.7832L18.5734 4.39057Z" fill="#E7EAEE" fill-opacity="0.67"/>
</svg>
