<svg width="24" height="24" viewBox="0 0 24 24" fill="none" xmlns="http://www.w3.org/2000/svg">
<g clip-path="url(#clip0_1204_342)">
<path d="M23.924 10.618C23.873 10.496 23.8 10.385 23.707 10.292L20.708 7.29299C20.317 6.90299 19.685 6.90299 19.294 7.29299C18.903 7.68397 18.903 8.31697 19.294 8.70697L20.587 9.99997H15.001C14.448 9.99997 14.001 10.448 14.001 11C14.001 11.552 14.448 11.9999 15.001 11.9999H20.587L19.294 13.2929C18.903 13.6839 18.903 14.3169 19.294 14.7069C19.489 14.9029 19.7449 14.9999 20.001 14.9999C20.257 14.9999 20.513 14.903 20.708 14.7069L23.707 11.7079C23.8 11.6159 23.873 11.5049 23.924 11.3819C24.0249 11.138 24.0249 10.862 23.924 10.618Z" fill="white" fill-opacity="0.2"/>
<path d="M17.0009 14C16.448 14 16.001 14.448 16.001 15V20H12.001V3.99998C12.001 3.55898 11.711 3.16898 11.288 3.042L7.81495 2.00002H16.001V7.00003C16.001 7.55203 16.448 8.00002 17.0009 8.00002C17.5539 8.00002 18.0009 7.55203 18.0009 7.00003V1.00003C18.0009 0.447984 17.5539 0 17.0009 0H1.00096C0.964961 0 0.932945 0.015 0.897977 0.0189844C0.850961 0.024 0.807977 0.0319688 0.762977 0.0429844C0.657977 0.0699844 0.562961 0.111 0.473992 0.166969C0.452008 0.180984 0.425008 0.181969 0.404008 0.197953C0.395945 0.204 0.392945 0.215016 0.38493 0.221016C0.275945 0.306984 0.184961 0.411984 0.118961 0.537C0.104945 0.564 0.101945 0.593016 0.0909766 0.621C0.0589609 0.696984 0.0239922 0.771 0.0119922 0.855C0.00697656 0.885 0.0159766 0.912984 0.0149922 0.942C0.0140078 0.962016 0.000976562 0.980016 0.000976562 0.999984V21C0.000976562 21.477 0.337961 21.887 0.804977 21.98L10.805 23.98C10.87 23.994 10.936 24 11.0009 24C11.2299 24 11.4549 23.9211 11.6349 23.773C11.8659 23.583 12.0009 23.3 12.0009 23V22H17.0009C17.5539 22 18.0009 21.552 18.0009 21V15C18.0009 14.448 17.5539 14 17.0009 14Z" fill="white" fill-opacity="0.2"/>
</g>
<defs>
<clipPath id="clip0_1204_342">
<rect width="24" height="24" fill="white"/>
</clipPath>
</defs>
</svg>
