<svg width="30" height="30" viewBox="0 0 30 30" fill="none" xmlns="http://www.w3.org/2000/svg">
<path d="M22.875 7.13752C22.3875 6.65002 21.6 6.65002 21.1125 7.13752L15 13.2375L8.88752 7.12502C8.40002 6.63752 7.61252 6.63752 7.12502 7.12502C6.63752 7.61252 6.63752 8.40003 7.12502 8.88753L13.2375 15L7.12502 21.1125C6.63752 21.6 6.63752 22.3875 7.12502 22.875C7.61252 23.3625 8.40002 23.3625 8.88752 22.875L15 16.7625L21.1125 22.875C21.6 23.3625 22.3875 23.3625 22.875 22.875C23.3625 22.3875 23.3625 21.6 22.875 21.1125L16.7625 15L22.875 8.88753C23.35 8.41253 23.35 7.61252 22.875 7.13752Z" fill="white"/>
</svg>
