<svg width="30" height="30" viewBox="0 0 30 30" fill="none" xmlns="http://www.w3.org/2000/svg">
<path d="M15 2.49998C8.0875 2.49998 2.5 8.08748 2.5 15C2.5 21.9125 8.0875 27.5 15 27.5C21.9125 27.5 27.5 21.9125 27.5 15C27.5 8.08748 21.9125 2.49998 15 2.49998ZM20.375 20.375C19.8875 20.8625 19.1 20.8625 18.6125 20.375L15 16.7625L11.3875 20.375C10.9 20.8625 10.1125 20.8625 9.625 20.375C9.1375 19.8875 9.1375 19.1 9.625 18.6125L13.2375 15L9.625 11.3875C9.1375 10.9 9.1375 10.1125 9.625 9.62498C10.1125 9.13748 10.9 9.13748 11.3875 9.62498L15 13.2375L18.6125 9.62498C19.1 9.13748 19.8875 9.13748 20.375 9.62498C20.8625 10.1125 20.8625 10.9 20.375 11.3875L16.7625 15L20.375 18.6125C20.85 19.0875 20.85 19.8875 20.375 20.375Z" fill="#53D3C3"/>
</svg>
