<svg width="44" height="44" viewBox="0 0 44 44" fill="none" xmlns="http://www.w3.org/2000/svg">
<g clip-path="url(#clip0)">
<path d="M44 22C44 9.86916 34.1309 0 22 0C14.7478 0 10.5005 3.14372 7.59769 6H4.99997C4.44722 6 3.99994 6.44729 3.99994 7.00004V8.40826C1.51753 9.8926 0 12.5449 0 15.4727V17.0001C0 17.5527 0.447282 18 1.00003 18H4.00003C4.00003 20.2051 5.79394 22 8.00007 22C10.2062 22 12 20.2051 12 18H15C15.5528 18 16 17.5527 16 17V15.4726C16 12.5449 14.4824 9.89251 12 8.40816V7.00004C12 6.44729 11.5527 6 11 6H10.5764C13.1845 3.83166 16.6487 1.99997 22 1.99997C33.0283 1.99997 42 10.9727 42 22C42 33.0274 33.0283 42 22 42H15C14.4473 42 14 42.4473 14 43.0001C14 43.5528 14.4473 44.0001 15 44.0001H33C33.5528 44.0001 34.0001 43.5528 34.0001 43.0001C34.0001 42.4473 33.5528 42 33 42H31.1116C38.7027 38.5272 44 30.8788 44 22ZM7.99997 20C6.89747 20 6 19.1035 6 18H10C10 19.1035 9.10257 20 7.99997 20ZM14 15.4727V16H1.99997V15.4727C1.99997 13.0958 3.32128 10.959 5.44725 9.89457C5.78616 9.7246 6 9.37894 6 9.00001V7.99997H10V9.00001C10 9.37894 10.2139 9.7246 10.5528 9.89457C12.6788 10.959 14 13.0957 14 15.4727Z" fill="#ABB0B5"/>
</g>
<defs>
<clipPath id="clip0">
<rect width="44" height="44" fill="white"/>
</clipPath>
</defs>
</svg>
