<svg width="44" height="44" viewBox="0 0 44 44" fill="none" xmlns="http://www.w3.org/2000/svg">
<g clip-path="url(#clip0)">
<path d="M42.1667 24.3435V9.1667C42.1667 7.14441 40.5213 5.5 38.5 5.5H5.5C3.47866 5.5 1.8333 7.14441 1.8333 9.1667V24.3435C0.74293 24.9795 0 26.1488 0 27.5V31.1667C0 33.1889 1.64536 34.8334 3.6667 34.8334V37.5834C3.6667 38.0901 4.0767 38.5001 4.58339 38.5001H6.4167C6.76405 38.5001 7.08091 38.3041 7.23671 37.9934L8.81667 34.8334H35.1834L36.7634 37.9934C36.9192 38.3041 37.236 38.5001 37.5834 38.5001H39.4167C39.9234 38.5001 40.3334 38.0901 40.3334 37.5834V34.8334C42.3547 34.8334 44.0001 33.189 44.0001 31.1667V27.5C44 26.1488 43.2571 24.9795 42.1667 24.3435ZM3.6667 9.1667C3.6667 8.15607 4.48852 7.33339 5.5 7.33339H38.5C39.5116 7.33339 40.3333 8.15607 40.3333 9.1667V23.8334H37.9963C38.1072 23.7001 38.2311 23.5886 38.3335 23.4422C38.5554 23.1271 38.5554 22.7063 38.3335 22.3913C37.3452 20.9778 35.9416 20.1668 34.4841 20.1668H27.8491C26.3918 20.1668 24.988 20.9779 23.9998 22.3913C23.7778 22.7064 23.7778 23.1272 23.9998 23.4422C24.1021 23.5886 24.226 23.7001 24.3369 23.8334H19.6629C19.7738 23.7001 19.8977 23.5886 20.0001 23.4422C20.222 23.1271 20.222 22.7063 20.0001 22.3913C19.0118 20.9778 17.6082 20.1668 16.1508 20.1668H9.51569C8.05836 20.1668 6.65466 20.9779 5.66637 22.3913C5.4444 22.7064 5.4444 23.1272 5.66637 23.4422C5.76873 23.5886 5.89265 23.7001 6.00351 23.8334H3.6667V9.1667ZM36.4035 22.9167C35.8323 23.512 35.1681 23.8334 34.4842 23.8334H27.8492C27.1653 23.8334 26.501 23.512 25.9299 22.9167C26.501 22.3214 27.1652 22 27.8492 22H34.4842C35.1681 22 35.8323 22.3214 36.4035 22.9167ZM18.0702 22.9167C17.499 23.512 16.8348 23.8334 16.1509 23.8334H9.51586C8.83197 23.8334 8.16767 23.512 7.59662 22.9167C8.16767 22.3214 8.83188 22 9.51577 22H16.1508C16.8348 22 17.499 22.3214 18.0702 22.9167ZM5.85088 36.6667H5.5V34.8334H6.76698L5.85088 36.6667ZM38.5 36.6667H38.1491L37.233 34.8334H38.5V36.6667ZM42.1667 31.1667C42.1667 32.1773 41.3449 33 40.3334 33H3.6667C2.65512 33 1.83339 32.1773 1.83339 31.1667V27.5C1.83339 26.4894 2.65521 25.6667 3.6667 25.6667H40.3334C41.345 25.6667 42.1667 26.4894 42.1667 27.5V31.1667Z" fill="#53D3C3"/>
</g>
<defs>
<clipPath id="clip0">
<rect width="44" height="44" fill="white"/>
</clipPath>
</defs>
</svg>
