<svg width="44" height="44" viewBox="0 0 44 44" fill="none" xmlns="http://www.w3.org/2000/svg">
<g clip-path="url(#clip0)">
<path d="M43.0833 5.5H0.916695C0.410008 5.5 0 5.91001 0 6.4167V10.0834C0 10.59 0.410008 11 0.916695 11H1.83339V13.75C1.83339 14.2567 2.2434 14.6667 2.75009 14.6667H3.66678V37.5834C3.66678 38.0901 4.07679 38.5001 4.58348 38.5001H6.41678C6.89657 38.5001 7.29403 38.1312 7.32987 37.6541L9.09812 14.6667H34.9022L36.6705 37.6541C36.7063 38.1312 37.1038 38.5001 37.5836 38.5001H39.4169C39.9236 38.5001 40.3336 38.0901 40.3336 37.5834V14.6667H41.25C41.7567 14.6667 42.1667 14.2567 42.1667 13.75V11H43.0834C43.5901 11 44.0001 10.59 44.0001 10.0833V6.4167C44 5.91001 43.59 5.5 43.0833 5.5ZM5.56806 36.6667L5.50275 14.6667H7.26103L5.56806 36.6667ZM38.5 36.6667L36.742 14.6667H38.5V36.6667ZM40.3333 12.8333H3.6667V11H40.3334V12.8333H40.3333ZM42.1667 9.1667H1.8333V7.3333H42.1666V9.1667H42.1667Z" fill="#ABB0B5"/>
</g>
<defs>
<clipPath id="clip0">
<rect width="44" height="44" fill="white"/>
</clipPath>
</defs>
</svg>
