<svg width="34" height="34" viewBox="0 0 34 34" fill="none" xmlns="http://www.w3.org/2000/svg">
<g clip-path="url(#clip0)">
<path d="M33.2916 4.25H0.708355C0.316824 4.25 0 4.56682 0 4.95836V7.79171C0 8.18318 0.316824 8.5 0.708355 8.5H1.41671V10.625C1.41671 11.0165 1.73354 11.3334 2.12507 11.3334H2.83342V29.0417C2.83342 29.4332 3.15025 29.7501 3.54178 29.7501H4.95842C5.32917 29.7501 5.6363 29.4651 5.66399 29.0964L7.03036 11.3334H26.9699L28.3363 29.0964C28.364 29.4651 28.6711 29.7501 29.0418 29.7501H30.4585C30.85 29.7501 31.1668 29.4332 31.1668 29.0417V11.3334H31.875C32.2665 11.3334 32.5834 11.0165 32.5834 10.625V8.5H33.2917C33.6832 8.5 34.0001 8.18318 34.0001 7.79164V4.95836C34 4.56682 33.6832 4.25 33.2916 4.25ZM4.30259 28.3334L4.25212 11.3334H5.6108L4.30259 28.3334ZM29.75 28.3334L28.3915 11.3334H29.75V28.3334ZM31.1666 9.91664H2.83336V8.5H31.1667V9.91664H31.1666ZM32.5834 7.08336H1.41664V5.66664H32.5833V7.08336H32.5834Z" fill="black"/>
</g>
<defs>
<clipPath id="clip0">
<rect width="34" height="34" fill="white"/>
</clipPath>
</defs>
</svg>
