<svg width="30" height="24" viewBox="0 0 30 24" fill="none" xmlns="http://www.w3.org/2000/svg">
<path d="M7.52873 21.1914C8.61981 22.3806 10.1767 23.0671 11.7888 23.0671H25.084C27.7933 23.0671 30 20.8604 30 18.1511V5.84893C30 3.13962 27.7933 0.932953 25.084 0.932953H11.7888C10.1706 0.932953 8.61981 1.61334 7.52873 2.80862L0.675793 10.2684C-0.225264 11.2553 -0.225264 12.7386 0.675793 13.7255L7.52873 21.1914Z" fill="#F3F2F7"/>
<path d="M13.8178 15.9873C13.965 16.1345 14.155 16.208 14.3511 16.208C14.5473 16.208 14.7373 16.1345 14.8844 15.9873L17.8144 13.0574L20.7443 15.9873C20.8914 16.1345 21.0815 16.208 21.2776 16.208C21.4738 16.208 21.6638 16.1345 21.8109 15.9873C22.1051 15.6931 22.1051 15.2211 21.8109 14.9269L18.8748 11.9969L21.8048 9.06698C22.099 8.77276 22.099 8.30078 21.8048 8.00656C21.5105 7.71233 21.0386 7.71233 20.7443 8.00656L17.8144 10.9365L14.8844 8.00656C14.5902 7.71233 14.1182 7.71233 13.824 8.00656C13.5298 8.30078 13.5298 8.77276 13.824 9.06698L16.7539 11.9969L13.824 14.9269C13.5298 15.2211 13.5298 15.6931 13.8178 15.9873Z" fill="black"/>
</svg>
