<svg width="26" height="26" viewBox="0 0 26 26" fill="none" xmlns="http://www.w3.org/2000/svg">
<path d="M13 0C5.82029 0 0 5.82029 0 13C0 20.1797 5.82029 25.9999 13 25.9999C20.1797 25.9999 25.9999 20.1797 25.9999 13C25.9923 5.8235 20.1765 0.00767159 13 0ZM13.9286 13C13.9286 13.5128 13.5128 13.9286 13 13.9286H5.57142C5.05857 13.9286 4.64284 13.5128 4.64284 13C4.64284 12.4871 5.05857 12.0714 5.57142 12.0714H12.0714V5.57142C12.0714 5.05857 12.4872 4.64284 13 4.64284C13.5129 4.64284 13.9286 5.05857 13.9286 5.57142V13Z" fill="#8A8A8E"/>
</svg>
