<svg width="24" height="24" viewBox="0 0 24 24" fill="none" xmlns="http://www.w3.org/2000/svg">
<path d="M12.0001 11.3894C9.13562 11.3894 6.80542 9.05918 6.80542 6.19469C6.80542 3.3302 9.13562 1 12.0001 1C14.8646 1 17.1948 3.3302 17.1948 6.19469C17.1948 9.05918 14.8646 11.3894 12.0001 11.3894ZM12.0001 2.83184C10.1458 2.83184 8.63726 4.34041 8.63726 6.19469C8.63726 8.04898 10.1458 9.55755 12.0001 9.55755C13.8544 9.55755 15.363 8.04898 15.363 6.19469C15.363 4.34041 13.8544 2.83184 12.0001 2.83184Z" fill="#2B963A"/>
<path d="M22.0841 23H1.91592C1.40857 23 1 22.5914 1 22.0841C1 19.0894 2.16735 16.2833 4.28204 14.1821C5.64694 12.8261 7.57306 12.0494 9.56204 12.0494H14.438C16.4314 12.0494 18.3531 12.8261 19.718 14.1821C21.8327 16.2833 23 19.0894 23 22.0841C23 22.5914 22.5914 23 22.0841 23ZM2.87673 21.1682H21.1233C20.9167 19.0131 19.9739 17.0196 18.4249 15.4841C17.4012 14.4694 15.9465 13.8857 14.438 13.8857H9.56204C8.04898 13.8857 6.59878 14.4694 5.5751 15.4841C4.02612 17.0196 3.08327 19.0131 2.87673 21.1682Z" fill="#2B963A"/>
</svg>
