<svg width="23" height="23" viewBox="0 0 23 23" fill="none" xmlns="http://www.w3.org/2000/svg">
<g style="mix-blend-mode:darken">
<path fill-rule="evenodd" clip-rule="evenodd" d="M9.25921 0C8.70692 0 8.25921 0.447715 8.25921 1V8.25963H1C0.447715 8.25963 0 8.70734 0 9.25963V13.7403C0 14.2926 0.447715 14.7403 1 14.7403H8.25921V22C8.25921 22.5523 8.70692 23 9.25921 23H13.7399C14.2922 23 14.7399 22.5523 14.7399 22V14.7403H22C22.5523 14.7403 23 14.2926 23 13.7403V9.25963C23 8.70734 22.5523 8.25963 22 8.25963H14.7399V1C14.7399 0.447715 14.2922 0 13.7399 0H9.25921Z" fill="#B8B8B8"/>
</g>
</svg>
