<svg width="29" height="17" viewBox="0 0 29 17" fill="none" xmlns="http://www.w3.org/2000/svg">
<path d="M0 6.72895V7.96098C0 8.15052 0.0379085 8.5675 0.189543 8.71914C0.379085 8.90868 5.3072 11.8466 5.59151 11.9414C5.87582 12.0361 9.00328 15.4479 9.09805 15.6374C9.17387 15.7891 9.88781 16.0165 10.2353 16.1113C10.488 16.1745 11.0503 16.3198 11.2778 16.3956C11.5052 16.4714 14.7212 15.1004 16.3007 14.4054C16.5218 14.2159 17.002 13.8368 17.1536 13.8368C17.3053 13.8368 20.1863 12.4468 21.6079 11.7518C23.2506 10.9621 26.5739 9.36358 26.7255 9.28776C26.9151 9.19299 28.621 7.29757 28.9053 7.01325C29.1896 6.72894 28.7157 6.44462 28.621 6.16031C28.5262 5.876 27.3889 5.40214 27.0098 5.2126C26.7066 5.06096 25.683 4.51761 25.2092 4.26488C24.1667 3.82262 22.0438 2.90017 21.8922 2.74854C21.7026 2.559 19.7124 0.284498 19.5229 0.0949555C19.3713 -0.0566786 18.7647 0.0317746 18.4804 0.0949555L8.81374 2.36947L1.3268 4.54921L0.852942 5.11784L0.473857 5.87601L0 6.72895Z" fill="#B8B8B8"/>
<path d="M14.1701 10.5838C14.0185 10.7354 13.6646 10.647 13.5067 10.5838C12.8243 10.2805 13.2855 10.8365 13.6014 11.1524C13.7594 11.3736 13.9616 11.8537 13.5067 12.0054C12.9381 12.1949 12.559 12.3845 12.7485 12.3845C12.9381 12.3845 13.791 12.6688 14.1701 12.574C14.5492 12.4792 14.2649 11.9106 14.3596 11.5315C14.4544 11.1524 14.9283 10.5838 15.023 10.5838C15.1178 10.5838 15.5917 10.8681 16.0655 10.7733C16.5394 10.6786 16.2551 11.1524 17.0132 11.1524C17.7714 11.1524 18.0557 11.8158 18.34 11.7211C18.6244 11.6263 17.8662 11.0577 20.8041 9.92042C23.1544 9.01061 22.1625 9.03589 21.3727 9.16225C21.0252 9.25701 20.2734 9.4655 20.0459 9.54133C19.7616 9.63612 19.193 9.6361 18.9087 9.73086C18.6243 9.82562 18.0557 9.73086 17.8662 9.73086C17.6766 9.73086 17.2028 9.54132 17.0132 9.44655C16.8237 9.35178 16.6342 9.73086 16.2551 9.73086C15.876 9.73086 15.5917 9.9204 15.4021 10.1099C15.2126 10.2995 14.9283 10.1099 14.7387 10.1099C14.5492 10.1099 14.3596 10.3943 14.1701 10.5838Z" fill="#A6A6A6"/>
<path d="M27.743 7.29743C28.3617 7.06998 28.8386 6.7604 28.9997 6.63403L27.4531 8.52946L26.8731 9.09809C26.7957 9.17391 24.6497 10.2669 23.5863 10.804L19.333 12.6994L19.913 12.3203C20.2352 11.9728 20.9377 11.2589 21.1697 11.1831C21.4597 11.0883 21.7497 10.3301 22.233 9.57195C22.6197 8.96541 22.7163 9.31922 22.7163 9.57195C22.5874 9.82467 22.407 10.2922 22.7163 10.1406C23.103 9.95103 23.2963 9.47717 23.5863 9.19286C23.8763 8.90855 24.553 8.43469 24.7463 8.15038C24.9397 7.86606 26.0997 7.58175 26.3897 7.48698C26.6797 7.3922 26.9697 7.58175 27.743 7.29743Z" fill="#A6A6A6"/>
<path d="M11.3724 13.0932C11.2966 13.169 11.0881 13.5039 10.9933 13.6618C11.1513 13.567 11.5241 13.3775 11.7515 13.3775C12.0358 13.3775 12.794 13.6618 12.6992 13.567C12.6045 13.4723 12.6045 12.1455 12.6045 12.4298C12.6045 12.7141 11.4672 12.9984 11.3724 13.0932Z" fill="#A6A6A6"/>
<path d="M11.9411 14.42C11.7894 14.3442 11.0565 14.1357 10.709 14.0409C10.8986 14.42 11.4672 14.9886 12.0358 14.9886C12.6045 14.9886 12.8888 14.6095 12.6045 14.7043C12.3201 14.7991 12.1306 14.5147 11.9411 14.42Z" fill="#A6A6A6"/>
<path d="M11.7515 15.2729C11.5241 15.1213 11.0249 15.0202 10.8038 14.9886C10.8038 15.9103 11.1829 15.9363 11.3724 16.0311C11.562 16.1259 12.6045 15.652 12.4149 15.652C12.2254 15.652 12.0358 15.4625 11.7515 15.2729Z" fill="#A6A6A6"/>
<path d="M5.87569 7.50165C5.95151 7.19838 6.09682 5.98531 6.16001 5.41668C6.44432 5.13237 7.0129 6.36439 6.53905 6.74348C6.15996 7.04675 6.19155 7.43847 6.25473 7.59642C6.3495 7.56483 6.57695 7.50165 6.72859 7.50165C6.91813 7.50165 7.20245 8.35459 7.39199 9.01799C7.54362 9.54871 7.96062 10.25 8.15016 10.5343C8.05539 10.4712 7.79003 10.3069 7.48676 10.1552C7.10767 9.96571 6.16001 8.82845 5.87569 8.35459C5.59138 7.88073 5.78092 7.88073 5.87569 7.50165Z" fill="#A6A6A6"/>
<path d="M1.89525 8.16507C1.74361 8.3167 0.884354 8.54415 0.473678 8.63892H0.378906L0.473678 8.73369C0.852763 8.82846 1.64884 9.01799 1.80048 9.01799C1.99002 9.01799 2.17956 9.11278 2.17956 9.20755C2.17956 9.30232 3.88545 9.96572 4.3593 10.1552C4.73839 10.3069 5.78087 10.9134 6.25473 11.1977C7.10767 12.1139 8.85147 13.9651 9.0031 14.0409C9.19264 14.1356 9.57173 14.7043 10.0456 14.8939C10.5194 15.0834 10.6142 15.7468 10.709 15.8416C10.7849 15.9174 10.6142 15.115 10.5194 14.7043L10.0456 14.3252C9.60332 13.9777 8.69983 13.2638 8.62402 13.188C8.52924 13.0932 7.39199 12.1455 7.20245 11.9559C7.0129 11.7664 6.3495 11.0082 6.16001 10.8187L5.49656 10.1552C5.30702 9.96569 4.92793 9.87095 4.73839 9.77618C4.54885 9.68141 3.41159 8.92324 3.22205 8.63892C3.0325 8.35461 2.65342 8.07029 2.55865 7.97552C2.46388 7.88075 2.08479 7.97552 1.89525 8.16507Z" fill="#A6A6A6"/>
<path d="M2.46388 7.50165C2.36911 7.40688 2.17956 6.64872 2.08479 6.45918C1.99002 6.55395 2.17956 7.31212 2.17956 7.40689C2.17956 7.50167 1.51616 7.31212 1.51616 7.40689C1.51616 7.48271 2.02161 7.69121 2.27433 7.78598C2.36911 7.72279 2.53969 7.57747 2.46388 7.50165Z" fill="#A6A6A6"/>
<path d="M1.99002 7.88075L1.32662 7.78598C1.35821 7.88075 1.4593 8.07029 1.61093 8.07029C1.76257 8.07029 1.92684 7.94393 1.99002 7.88075Z" fill="#A6A6A6"/>
<path d="M1.13708 5.02295L1.04231 5.70101C1.16867 5.66942 1.4593 5.58728 1.61093 5.51147C1.80048 5.4167 2.46388 5.89055 2.27433 5.60624C2.1227 5.37879 1.35821 5.21249 1.13708 5.02295Z" fill="#A6A6A6"/>
<path d="M1.89525 8.18742C1.74361 8.33905 0.884354 8.5665 0.473678 8.66127H0.378906L0.473678 8.75604C0.852763 8.85081 1.64884 9.04034 1.80048 9.04034C1.99002 9.04034 2.17956 9.13513 2.17956 9.2299C2.17956 9.32467 3.88545 9.98807 4.3593 10.1776C4.73839 10.3292 5.78087 10.9358 6.25473 11.2201C7.10767 12.1362 8.85147 13.9874 9.0031 14.0632C9.19264 14.158 9.57173 14.7266 10.0456 14.9162C10.5194 15.1058 10.6142 15.7691 10.709 15.8639C10.7849 15.9397 10.6142 15.1373 10.5194 14.7266L10.0456 14.3476C9.60332 14.0001 8.69983 13.2861 8.62401 13.2103C8.52924 13.1155 7.39199 12.1678 7.20244 11.9783C7.0129 11.7887 6.3495 11.0306 6.16 10.841L5.49656 10.1776C5.30702 9.98804 4.92793 9.8933 4.73839 9.79853C4.54885 9.70376 3.41159 8.94559 3.22205 8.66127C3.0325 8.37696 2.65342 8.09264 2.55865 7.99787C2.46388 7.9031 2.08479 7.99787 1.89525 8.18742Z" fill="#6B6B6B"/>
<path d="M3.79129 6.34973C3.71548 6.19809 2.74881 5.21247 2.27495 4.73862L1.99064 4.54907L1.1377 5.02293C1.4536 5.02293 1.95273 4.96607 2.18018 5.1177C2.46449 5.30724 2.74881 5.7811 2.84358 6.06541C2.93835 6.34973 3.79129 7.01313 3.98084 7.1079C4.17038 7.20267 5.11809 8.33993 5.30764 8.52947C5.49718 8.71901 6.44489 10.0458 6.82398 10.2354C7.12725 10.387 8.65622 11.8781 9.3828 12.6046C8.59304 11.7201 6.97561 9.91313 6.82398 9.7615C6.63444 9.57195 5.11809 7.96084 5.11809 7.86607C5.11809 7.7713 3.88607 6.53927 3.79129 6.34973Z" fill="#6B6B6B"/>
<path d="M20.159 2.28136C19.8222 2.10749 19.1555 1.64962 18.8643 1.44242C17.9781 0.746052 18.6754 0.320962 18.9252 0.663286C19.4089 1.06229 20.4824 1.9193 20.9067 2.15534C21.3309 2.39138 22.0817 2.85429 22.404 3.05624C21.7961 2.8704 20.4959 2.45524 20.159 2.28136Z" fill="#A6A6A6"/>
<path d="M11.1753 8.22008C10.9478 7.68936 9.75369 6.48261 9.18507 5.94557C8.65435 6.02139 10.6698 8.37803 11.7439 9.54688L11.1753 8.22008Z" fill="#A6A6A6"/>
<path d="M20.7542 4.6047C20.7967 4.61386 20.8267 4.61877 20.8419 4.61877C20.8181 4.61877 20.7887 4.61391 20.7542 4.6047C20.2689 4.49987 18.1502 3.83773 17.7144 3.57628C17.2406 3.29197 16.672 3.10243 16.5772 2.91288C16.4824 2.72334 16.5772 2.43903 17.6197 2.91288C18.5967 3.35699 20.2397 4.46707 20.7542 4.6047Z" fill="#A6A6A6"/>
<path d="M6.2552 10.5196C6.17938 10.5954 5.68657 11.5621 5.5918 11.9412L5.78134 12.0359C5.87611 11.6884 6.36892 10.6902 6.44474 10.6144L7.10814 9.95097C7.20291 9.8562 9.28788 8.05554 9.47742 7.96077C9.62906 7.88496 10.8674 7.17101 11.4676 6.82352L14.6898 5.40195L16.7748 4.45423C17.3119 4.2331 18.4428 3.75292 18.6702 3.60129C18.9546 3.41175 20.1866 3.2222 20.2814 3.2222C20.3761 3.2222 20.7552 2.93789 20.85 2.84312C20.9448 2.74835 21.3238 2.84312 21.5134 2.84312C21.665 2.84312 22.082 2.87471 22.1768 2.93789L21.8925 2.74835C21.7977 2.5588 21.0395 2.65358 20.85 2.65358C20.6604 2.65358 20.3761 2.93789 20.0918 3.03266C19.8075 3.12743 19.1441 3.12743 18.5755 3.41175C18.0068 3.69606 17.0591 4.07515 16.68 4.26469C16.301 4.45423 13.5526 5.68626 12.6996 6.06535C11.8467 6.44443 10.0461 7.39214 9.66697 7.58169C9.28788 7.77123 7.39245 9.38234 7.29768 9.47711L6.2552 10.5196Z" fill="white"/>
<path d="M5.93899 10.363C5.85932 10.4347 5.4211 11.3782 5.3067 11.7518L5.49621 11.8466C5.60897 11.5045 6.04367 10.5392 6.12333 10.4675L6.82041 9.83957C6.91999 9.74987 9.096 8.06034 9.29022 7.97558C9.4456 7.90777 10.7195 7.25935 11.337 6.94362L14.6289 5.69195L16.7605 4.85421C17.3083 4.66137 18.4628 4.2408 18.6978 4.10123C18.9916 3.92677 20.0911 3.59653 20.1857 3.60147C20.2804 3.60641 20.6894 3.5067 20.8491 3.5067C20.9832 3.5067 21.4378 3.30715 21.6073 3.22238C21.7961 3.128 22.2702 2.96615 22.3643 3.032L22.2342 2.93806C22.1494 2.74383 21.1133 3.27831 20.924 3.26843C20.7347 3.25855 20.3798 3.3321 20.091 3.41192C19.8021 3.49175 19.1957 3.65272 18.613 3.90701C18.0304 4.16129 17.0642 4.49046 16.6757 4.65998C16.2873 4.82951 13.4784 5.91659 12.6069 6.2507C11.7353 6.58481 9.88772 7.43737 9.49927 7.60689C9.11082 7.77642 7.13398 9.28654 7.0344 9.37624L5.93899 10.363Z" fill="#E1E1E1"/>
<path d="M18.0268 6.86036C17.8662 6.79896 17.6865 6.77851 17.5117 6.76108C17.3373 6.74715 17.1593 6.74422 16.9825 6.7518C16.8053 6.75588 16.6295 6.77397 16.4541 6.79557C16.2786 6.81717 16.1043 6.84929 15.9271 6.8994C16.103 6.92735 16.2816 6.93729 16.455 6.9407C16.6283 6.94411 16.8059 6.94354 16.9785 6.93994C17.1511 6.93634 17.3272 6.92175 17.4991 6.91114C17.6749 6.89304 17.8457 6.87192 18.0268 6.86036Z" fill="#273A14"/>
<path d="M11.3032 9.87698C11.1761 9.76125 11.0162 9.67664 10.8598 9.59667C10.7025 9.5201 10.5379 9.45247 10.3704 9.39502C10.2039 9.33418 10.0337 9.28692 9.86244 9.24306C9.69122 9.19919 9.51718 9.16551 9.33394 9.14756C9.48748 9.23771 9.65022 9.31214 9.81036 9.37852C9.9705 9.44491 10.1361 9.50915 10.2981 9.56874C10.4601 9.62834 10.6294 9.679 10.7934 9.7318C10.9636 9.77906 11.1304 9.82169 11.3032 9.87698Z" fill="#273A14"/>
<path d="M7.29698 5.11916C7.20221 5.02439 6.88275 4.93549 6.70799 4.91806C6.53358 4.90413 6.35564 4.9012 6.17877 4.90878C6.00155 4.91286 5.82576 4.93095 5.65034 4.95255C5.47492 4.97416 5.30058 5.00627 5.12342 5.05639C5.29926 5.08433 5.47702 5.02772 5.65034 5.03113C5.82366 5.03454 6.02571 5.02094 6.19831 5.01734C6.37091 5.01374 6.53611 5.02795 6.70799 5.01734C6.91789 5.03113 7.04721 5.05639 7.29698 5.11916Z" fill="#273A14"/>
<path d="M8.28569 4.88211C8.23036 4.82678 8.04386 4.77488 7.94183 4.7647C7.84001 4.75657 7.73612 4.75486 7.63286 4.75928C7.5294 4.76166 7.42677 4.77223 7.32436 4.78484C7.22195 4.79745 7.12017 4.8162 7.01674 4.84546C7.1194 4.86177 7.22317 4.82872 7.32436 4.83071C7.42555 4.8327 7.54351 4.82476 7.64427 4.82266C7.74504 4.82056 7.84148 4.82885 7.94183 4.82266C8.06437 4.83071 8.13987 4.84546 8.28569 4.88211Z" fill="#273A14"/>
<path d="M15.4339 2.3377C15.3885 2.33805 15.3444 2.35371 15.3046 2.36628C15.2642 2.38253 15.227 2.40305 15.1875 2.42513C15.1124 2.46985 15.0434 2.52312 14.9853 2.59132C15.0723 2.56736 15.1468 2.52631 15.2214 2.48527C15.2965 2.44054 15.3649 2.39096 15.4339 2.3377Z" fill="#273A14"/>
</svg>
