<svg width="26" height="26" viewBox="0 0 26 26" fill="none" xmlns="http://www.w3.org/2000/svg">
<path d="M19.9518 19.9519C15.3274 24.5762 8.48078 25.3536 4.01648 21.9835C4.29038 22.3461 4.58806 22.695 4.91684 23.0238C9.29152 27.3985 16.8918 26.8918 21.892 21.892C26.8917 16.8918 27.3984 9.29158 23.0233 4.9169C22.6949 4.58812 22.346 4.29044 21.9834 4.01654C25.3535 8.48084 24.5761 15.3275 19.9518 19.9519Z" fill="#EFBE09"/>
<path d="M21.0836 2.97676C25.4587 7.3519 24.9521 14.9517 19.9518 19.9519C14.9516 24.9521 7.35183 25.4588 2.9767 21.0836C-1.39844 16.7085 -0.891784 9.10872 4.10844 4.1085C9.10866 -0.891723 16.7084 -1.39837 21.0836 2.97676Z" fill="#FFF205"/>
<path d="M10.4283 22.2313C8.03087 22.2313 5.84422 21.3644 4.26985 19.7904C0.614912 16.1355 1.12248 9.68072 5.40159 5.40207C7.67192 3.13128 10.6716 1.82944 13.6315 1.82944C16.0289 1.82944 18.2156 2.69642 19.79 4.27033C23.4449 7.92527 22.9373 14.3801 18.6582 18.6587C16.3883 20.9286 13.3887 22.2313 10.4283 22.2313Z" fill="url(#paint0_linear)"/>
<path d="M20.2619 19.6154L22.208 21.5615C22.4188 21.3374 22.6223 21.1093 22.8157 20.8761L20.8728 18.9331C20.6794 19.1659 20.4722 19.3913 20.2619 19.6154Z" fill="#D9A921"/>
<path d="M18.5695 21.1564L20.5166 23.1034C20.7566 22.9173 20.9917 22.7207 21.2226 22.5163L19.2788 20.5724C19.0469 20.7768 18.8101 20.9698 18.5695 21.1564Z" fill="#D9A921"/>
<path d="M21.7022 17.8219L23.6479 19.7676C23.8244 19.507 23.9917 19.2427 24.1486 18.9752L22.207 17.0336C22.0497 17.3011 21.8783 17.5627 21.7022 17.8219Z" fill="#D9A921"/>
<path d="M22.8655 15.7518L24.8135 17.6993C24.9511 17.3966 25.0755 17.0907 25.1894 16.7825L23.2442 14.8373C23.1303 15.145 23.0027 15.4496 22.8655 15.7518Z" fill="#D9A921"/>
<path d="M16.6147 22.4349L18.5608 24.381C18.8365 24.2319 19.11 24.0755 19.3789 23.9054L17.4314 21.9584C17.1625 22.128 16.8904 22.2858 16.6147 22.4349Z" fill="#D9A921"/>
<path d="M14.3571 23.4107L16.3028 25.3564C16.6197 25.2521 16.9357 25.1378 17.2484 25.0084L15.3032 23.0636C14.9905 23.1926 14.6749 23.3069 14.3571 23.4107Z" fill="#D9A921"/>
<path d="M11.0978 24.0316L13.0453 25.9791C13.4344 25.9571 13.8254 25.9164 14.2163 25.857L12.2679 23.9086C11.8769 23.9676 11.4869 24.0101 11.0978 24.0316Z" fill="#D9A921"/>
<path d="M7.50046 23.6672L9.45299 25.6198C9.97427 25.7597 10.5074 25.8607 11.0489 25.9229L9.09724 23.9709C8.55537 23.9078 8.0222 23.8081 7.50046 23.6672Z" fill="#D9A921"/>
<path d="M23.8157 12.8222L25.76 14.7665C25.8341 14.3925 25.8912 14.018 25.9306 13.6439L23.984 11.6973C23.9447 12.0723 23.8893 12.4473 23.8157 12.8222Z" fill="#D9A921"/>
<path d="M25.9809 11.7541C25.9548 11.2607 25.9004 10.7718 25.8117 10.2917L23.8541 8.33415C23.9451 8.82114 24.0151 9.31362 24.0412 9.81433L25.9809 11.7541Z" fill="#D9A921"/>
<path d="M4.7233 7.89234C4.69529 8.34748 4.66257 8.79832 4.53376 10.5044C4.41981 12.0136 4.3744 12.6039 4.32234 13.2511C4.29258 13.6214 4.24565 14.2273 4.21806 14.5976C4.19052 14.9678 4.15289 15.411 4.13444 15.5823L10.1858 15.9728L10.3421 15.4593C10.4077 15.2371 10.5073 14.9068 10.5632 14.7251C10.6546 14.4285 10.665 14.2228 10.665 12.7028C10.665 11.4585 10.6482 10.9935 10.6016 10.946C10.5087 10.8515 7.63463 10.854 7.55757 10.9487C7.50609 11.0121 7.48082 11.2469 7.40957 12.3252C7.37067 12.9138 7.38373 12.928 7.96524 12.928C8.25151 12.928 8.44776 12.9523 8.48735 12.9926C8.52297 13.0289 8.55078 13.2028 8.55078 13.3893C8.55078 13.6436 8.52514 13.7545 8.44121 13.8632L8.33169 14.0051H7.44345C6.73207 14.0051 6.54253 13.9896 6.49163 13.927C6.44739 13.8728 6.43793 13.7209 6.46056 13.4289C6.50326 12.8774 6.58899 11.1703 6.62494 10.1555C6.64745 9.52071 6.67161 9.32839 6.73826 9.25336C6.81262 9.16961 6.9269 9.15798 7.67628 9.15798C8.26953 9.15798 8.54898 9.17769 8.59306 9.22261C8.62794 9.25816 8.65649 9.42296 8.65649 9.58884C8.65649 9.75472 8.68503 9.91952 8.71991 9.95507C8.81325 10.0502 10.5253 10.0455 10.6031 9.95001C10.6359 9.90972 10.6706 9.50654 10.6854 8.99404C10.6995 8.50658 10.7266 7.9546 10.7458 7.76744V7.31337L4.7233 7.89234Z" fill="#FFF205"/>
<path fill-rule="evenodd" clip-rule="evenodd" d="M11.6516 7.22469C11.5882 7.26669 11.5664 7.4556 11.5694 10.7304L11.5732 14.8174L11.8521 15.6655C12.0054 16.1319 11.9774 16.0851 12.0305 16.1449L19.0993 16.637C19.1604 16.5622 19.1616 16.3868 19.1051 15.7825C19.066 15.3643 19.0205 14.8124 19.0041 14.5561C18.9877 14.2997 18.9469 13.7544 18.9133 13.3443C18.8467 12.5304 18.7659 11.4929 18.6713 10.2371C18.6378 9.7928 18.5822 9.07971 18.5475 8.65248C18.5129 8.22525 18.4692 7.62401 18.4503 7.3164C18.428 6.95076 18.3847 6.7217 18.3252 6.65483L11.6516 7.22469ZM16.2488 9.86532C16.2228 9.19126 16.1933 8.97183 16.1174 8.88657C16.0314 8.79019 15.8982 8.77676 15.0266 8.77676C14.2399 8.77676 14.0187 8.79522 13.9611 8.86575C13.9096 8.92877 13.899 9.15049 13.9249 9.627C13.9449 9.99675 13.9835 11.0963 14.0105 12.0703C14.0582 13.7851 14.0902 14.1276 14.2181 14.292C14.312 14.4124 16.3034 14.4015 16.4028 14.28C16.4541 14.2172 16.4651 14.026 16.4393 13.643C16.3889 12.8937 16.2893 10.9184 16.2488 9.86532Z" fill="#FFF205"/>
<defs>
<linearGradient id="paint0_linear" x1="12.0299" y1="1.82944" x2="12.0299" y2="22.2313" gradientUnits="userSpaceOnUse">
<stop stop-color="#F2BC12"/>
<stop offset="1" stop-color="#F2BC12"/>
</linearGradient>
</defs>
</svg>
