<svg width="44" height="44" viewBox="0 0 44 44" fill="none" xmlns="http://www.w3.org/2000/svg">
<g clip-path="url(#clip0)">
<path d="M9.69554 36.9274C9.40067 36.3849 9.02832 35.8802 8.57926 35.4312C8.10838 34.9609 7.57472 34.5772 7.00256 34.2744C6.31882 33.9125 6.85929 33.1374 6.85929 33.1374C7.55911 32.0726 8.19722 31.0029 8.72481 30.071L5.18284 26.5319H1.74426C1.08295 26.5319 0.546875 25.9954 0.546875 25.3339C0.546875 24.6728 1.08295 24.1362 1.74426 24.1362H5.67798C5.99635 24.1362 6.30063 24.2624 6.52515 24.4867L19.4691 37.4174C19.694 37.6422 19.8201 37.9472 19.8201 38.2647V42.2175C19.8201 42.8793 19.2839 43.4147 18.6224 43.4147C17.9603 43.4147 17.4241 42.8794 17.4241 42.2175V38.7612L13.8962 35.2379C12.944 35.7999 11.8371 36.4889 10.7404 37.2466C10.7403 37.2463 10.112 37.6936 9.69554 36.9274Z" fill="#DCFF00"/>
<path d="M4.03376 35.9463C2.95645 35.9463 1.94403 36.3653 1.18175 37.1264C0.42084 37.8867 0.00195312 38.8981 0.00195312 39.9733C0.00195312 41.0492 0.420992 42.0597 1.18175 42.8198C1.94387 43.5803 2.95645 43.9998 4.03376 44.0001C5.11047 44.0001 6.12304 43.5801 6.88456 42.8198C7.64608 42.0595 8.06557 41.0488 8.06557 39.9733C8.06557 38.8979 7.64593 37.8865 6.88456 37.1264C6.1232 36.3653 5.11047 35.9463 4.03376 35.9463Z" fill="#DCFF00"/>
<path d="M15.3089 27.6405C14.778 28.171 13.9093 28.171 13.3784 27.6407L12.0427 26.3064C11.5118 25.7761 11.5118 24.9081 12.0427 24.3778L34.8429 1.60158C35.3738 1.07126 36.4198 0.581722 37.167 0.513802L42.7555 0.00561894C43.5029 -0.0623005 44.0587 0.493487 43.9908 1.2409L43.4835 6.81864C43.4156 7.56606 42.9256 8.61138 42.3947 9.14185L19.5932 31.9208C19.0622 32.4511 18.1935 32.4511 17.6626 31.9208L16.3251 30.5847C15.7942 30.0544 15.7942 29.1864 16.3251 28.656L35.4154 9.58348C35.6964 9.30331 35.6967 8.84789 35.4158 8.56742C35.1356 8.28649 34.6801 8.28649 34.3987 8.56711L15.3089 27.6405Z" fill="#DCFF00"/>
<g clip-path="url(#clip1)">
<path d="M34.3045 36.9274C34.5993 36.3849 34.9717 35.8802 35.4207 35.4312C35.8916 34.9609 36.4253 34.5772 36.9974 34.2744C37.6812 33.9125 37.1407 33.1374 37.1407 33.1374C36.4409 32.0726 35.8028 31.0029 35.2752 30.071L38.8172 26.5319H42.2557C42.917 26.5319 43.4531 25.9954 43.4531 25.3339C43.4531 24.6728 42.917 24.1362 42.2557 24.1362H38.322C38.0036 24.1362 37.6994 24.2624 37.4748 24.4867L24.5309 37.4174C24.306 37.6422 24.1799 37.9472 24.1799 38.2647V42.2175C24.1799 42.8793 24.7161 43.4147 25.3776 43.4147C26.0397 43.4147 26.5759 42.8794 26.5759 42.2175V38.7612L30.1038 35.2379C31.056 35.7999 32.1629 36.4889 33.2596 37.2466C33.2597 37.2463 33.888 37.6936 34.3045 36.9274Z" fill="#DCFF00"/>
<path d="M39.9662 35.9463C41.0435 35.9463 42.056 36.3653 42.8182 37.1264C43.5792 37.8867 43.998 38.8981 43.998 39.9733C43.998 41.0492 43.579 42.0597 42.8182 42.8198C42.0561 43.5803 41.0435 43.9998 39.9662 44.0001C38.8895 44.0001 37.877 43.5801 37.1154 42.8198C36.3539 42.0595 35.9344 41.0488 35.9344 39.9733C35.9344 38.8979 36.3541 37.8865 37.1154 37.1264C37.8768 36.3653 38.8895 35.9463 39.9662 35.9463Z" fill="#DCFF00"/>
<path d="M28.6911 27.6405C29.222 28.171 30.0907 28.171 30.6216 27.6407L31.9573 26.3064C32.4882 25.7761 32.4882 24.9081 31.9573 24.3778L9.1571 1.60158C8.62618 1.07126 7.58025 0.581722 6.83298 0.513802L1.24448 0.00561894C0.497066 -0.0623005 -0.0587234 0.493487 0.00919724 1.2409L0.516472 6.81864C0.584391 7.56606 1.07438 8.61138 1.6053 9.14185L24.4068 31.9208C24.9378 32.4511 25.8065 32.4511 26.3374 31.9208L27.6749 30.5847C28.2058 30.0544 28.2058 29.1864 27.6749 28.656L8.58464 9.58348C8.30356 9.30331 8.30326 8.84789 8.58418 8.56742C8.86435 8.28649 9.31993 8.28649 9.60131 8.56711L28.6911 27.6405Z" fill="#DCFF00"/>
</g>
</g>
<defs>
<clipPath id="clip0">
<rect width="44" height="44" fill="white"/>
</clipPath>
<clipPath id="clip1">
<rect width="44" height="44" fill="white" transform="matrix(-1 0 0 1 44 0)"/>
</clipPath>
</defs>
</svg>
