<svg width="44" height="44" viewBox="0 0 44 44" fill="none" xmlns="http://www.w3.org/2000/svg">
<path d="M23.2891 28.2687C24.7711 27.9048 25.8672 26.9509 25.8672 25.8546C25.8672 24.7583 24.7711 23.8044 23.2891 23.4404V28.2687Z" fill="#DCFF00"/>
<path d="M22 7.82031C14.1813 7.82031 7.82031 14.1813 7.82031 22C7.82031 29.8187 14.1813 36.1797 22 36.1797C29.8187 36.1797 36.1797 29.8187 36.1797 22C36.1797 14.1813 29.8187 7.82031 22 7.82031ZM28.4453 25.8546C28.4453 28.3451 26.2274 30.4275 23.2891 30.9066V32.3125C23.2891 33.025 22.7125 33.6016 22 33.6016C21.2875 33.6016 20.7109 33.025 20.7109 32.3125V30.9066C17.7726 30.4275 15.5547 28.3451 15.5547 25.8546C15.5547 25.1421 16.1312 24.5656 16.8438 24.5656C17.5563 24.5656 18.1328 25.1421 18.1328 25.8546C18.1328 26.9509 19.2289 27.9049 20.7109 28.2688V23.1722C17.7726 22.6932 15.5547 20.6107 15.5547 18.1203C15.5547 15.6298 17.7726 13.5474 20.7109 13.0683V11.675C20.7109 10.9624 21.2875 10.3859 22 10.3859C22.7125 10.3859 23.2891 10.9624 23.2891 11.675V13.0683C26.2274 13.5474 28.4453 15.6298 28.4453 18.1203C28.4453 18.8328 27.8688 19.4093 27.1562 19.4093C26.4437 19.4093 25.8672 18.8328 25.8672 18.1203C25.8672 17.024 24.7711 16.0701 23.2891 15.7061V20.8027C26.2274 21.2816 28.4453 23.3641 28.4453 25.8546Z" fill="#DCFF00"/>
<path d="M20.7109 15.7061C19.2289 16.07 18.1328 17.0239 18.1328 18.1202C18.1328 19.2165 19.2289 20.1704 20.7109 20.5344V15.7061Z" fill="#DCFF00"/>
<path d="M22 0C9.91633 0 0 9.91633 0 22C0 34.0837 9.91633 44 22 44C34.0837 44 44 34.0837 44 22C44 9.91633 34.0837 0 22 0ZM22 38.7578C12.76 38.7578 5.24219 31.24 5.24219 22C5.24219 12.76 12.76 5.24219 22 5.24219C31.24 5.24219 38.7578 12.76 38.7578 22C38.7578 31.24 31.24 38.7578 22 38.7578Z" fill="#DCFF00"/>
</svg>
