<svg width="20" height="26" viewBox="0 0 20 26" fill="none" xmlns="http://www.w3.org/2000/svg">
<path d="M18.4178 15.1667C17.8187 15.1667 17.3345 15.652 17.3345 16.25V21.6667H13.0012V4.33332C13.0012 3.85557 12.687 3.43307 12.2287 3.2955L8.46629 2.16668H17.3345V7.58337C17.3345 8.18137 17.8187 8.66668 18.4178 8.66668C19.0169 8.66668 19.5011 8.18137 19.5011 7.58337V1.08337C19.5011 0.485316 19.0169 0 18.4178 0H1.08448C1.04548 0 1.01079 0.01625 0.97291 0.0205664C0.921976 0.026 0.87541 0.0346328 0.82666 0.0465664C0.71291 0.0758164 0.609976 0.12025 0.513593 0.180883C0.489777 0.196066 0.460527 0.197133 0.437777 0.214449C0.429043 0.221 0.425793 0.232934 0.417109 0.239434C0.299042 0.332566 0.200476 0.446316 0.128976 0.58175C0.113792 0.611 0.110542 0.642434 0.0986597 0.67275C0.0639761 0.755066 0.0260933 0.83525 0.0130933 0.92625C0.00765967 0.95875 0.0174097 0.989066 0.0163433 1.0205C0.0152769 1.04218 0.00115967 1.06168 0.00115967 1.08332V22.75C0.00115967 23.2668 0.366226 23.7109 0.87216 23.8117L11.7055 25.9784C11.7759 25.9936 11.8474 26 11.9178 26C12.1659 26 12.4096 25.9145 12.6046 25.7541C12.8549 25.5483 13.0011 25.2417 13.0011 24.9167V23.8334H18.4178C19.0169 23.8334 19.5011 23.3481 19.5011 22.7501V16.25C19.5011 15.652 19.0169 15.1667 18.4178 15.1667Z" fill="white"/>
</svg>
