<svg id="Layer_1" enable-background="new 0 0 128 128" viewBox="0 0 128 128" xmlns="http://www.w3.org/2000/svg"><g><path d="m121.9 15-43-10.2c-.9-.2-2.2.3-2.2 1.7v8h-44.3c-1 0-1.8.8-1.8 1.8v36.4l-3.6-1.1c-1.9-.6-4-.4-5.8.6l-10.4 5.5c-.9.4-1.2 1.4-.8 2.3l2.8 5.3c.5.9 1.5 1.2 2.4.7l9.8-5.1 5.9 1.7-9.9 28.9-3.5 2.7-8-3.4c-.9-.4-1.9 0-2.3.9l-2.4 5.5c-.4.9 0 1.9.9 2.3l8.9 3.8c2.5 1.1 5.5.7 7.7-.9l8.2-6.2v15.5c0 1 .8 1.8 1.8 1.8h13.7l1 8.2c.1.9.9 1.5 1.7 1.5.1 0 6.2-.8 6.2-.8 1-.1 1.6-1 1.5-2l-.9-7h21.1v8c0 1 .9 2 2.2 1.7 10.8-2.5 43-10.2 43-10.2.8-.2 1.3-.9 1.3-1.7v-94.5c.1-.8-.4-1.5-1.2-1.7zm-87.8 95v-13.8l10.7 7.2.8 6.6zm16.3 9.5-2.2-17.4c-.1-.5-.3-1-.8-1.2 0 0-10.4-7-13.9-9.4-.6-.4-1.9-.5-2.7.2-2.6 2-10.5 7.9-10.5 7.9-1.2.9-2.8 1.1-4.2.5l-7.3-3.1 1-2.3 7.3 3.1c.6.2 1.2.2 1.7-.2l4.8-3.6c.3-.2.5-.5.6-.8l10.6-31.2c.3-.9-.2-1.9-1.1-2.2 0 0-8.5-2.5-8.5-2.5-.4-.1-.9-.1-1.3.1l-8.9 4.7-1.2-2.2 8.9-4.7c1-.5 2.1-.6 3.2-.3l10.8 3.1c3.7 1.1 7.2 2.9 10.2 5.4l8.6 7.2c.6.5 1.4.5 2 .2l8.2-4.9 1.3 2.1-8.1 5c-1.5.9-3.5.8-4.9-.4l-5.5-4.6c-.7-.6-2.3-.7-2.8.8-1.8 5.4-7.3 21.5-7.3 21.5-.3.7 0 1.6.7 2l9.8 6.6c1 .7 1.7 1.8 1.8 3l2.2 17.4zm4.8-9.5-1.1-8.6c-.3-2.2-1.5-4.2-3.4-5.5l-8.6-5.8 6.1-17.8 3.5 2.9c2.5 2.1 6.1 2.4 8.9.7l9.7-5.8c.8-.5 1.1-1.6.6-2.4l-3.1-5.2c-.2-.4-.6-.7-1.1-.8-.4-.1-.9 0-1.3.2l-8.6 5.1-7.7-6.4c-3.3-2.8-7.2-4.9-11.4-6.1l-3.6-1.1v-35.4h42.6v92zm64.6-.1-39.5 9.3v-110.5l39.5 9.3z"/><path d="m115.5 101.6c1 0 1.8-.8 1.8-1.8v-12.5c0-1-.8-1.8-1.8-1.8s-1.8.8-1.8 1.8v12.6c.1.9.8 1.7 1.8 1.7z"/><path d="m49.7 34.2c-5.9 0-10.7 4.8-10.7 10.7s4.8 10.8 10.8 10.8 10.8-4.8 10.8-10.8c-.1-5.9-4.9-10.7-10.9-10.7zm0 18c-4 0-7.3-3.2-7.3-7.3s3.2-7.3 7.3-7.3 7.3 3.2 7.3 7.3c0 4-3.3 7.3-7.3 7.3z"/></g></svg>