<svg width="80" height="80" viewBox="0 0 80 80" fill="none" xmlns="http://www.w3.org/2000/svg">
<path d="M25.5462 23.1311V17.5281C25.5462 11.4845 20.8548 6.5161 14.9225 6.07329C5.42734 14.7874 0 27.0991 0 40C0 52.9009 5.42734 65.2127 14.9223 73.9267C20.8547 73.4839 25.5461 68.5155 25.5461 62.4719V56.8689C21.6377 52.1245 19.4956 46.1699 19.4956 40C19.4956 33.8302 21.6378 27.8755 25.5462 23.1311ZM7.395 37.3639H12.0825V42.6361H7.395V37.3639ZM13.4572 60.9469L10.9147 56.3283L15.0211 54.0675L17.5636 58.6861L13.4572 60.9469ZM15.0211 25.9325L10.9147 23.6717L13.4572 19.0531L17.5636 21.3139L15.0211 25.9325Z" fill="white"/>
<path d="M28.7567 69.2198C33.8231 72.2284 39.7333 73.9587 46.041 73.9587C64.766 73.9587 79.9997 58.725 79.9997 40C79.9997 21.275 64.766 6.04125 46.041 6.04125C39.7331 6.04125 33.8233 7.77203 28.7572 10.7811C29.7042 12.8358 30.2335 15.1211 30.2335 17.528V24.8803L29.647 25.5448C26.1235 29.5377 24.183 34.6712 24.183 40C24.183 45.3287 26.1235 50.4623 29.647 54.4552L30.2335 55.1197V62.472C30.2335 64.8792 29.7039 67.1648 28.7567 69.2198ZM48.6769 66.5455H43.4049V61.858H48.6769V66.5455ZM67.8989 37.3639H72.5864V42.6361H67.8989V37.3639ZM62.9474 19.3655L66.6752 23.0934L63.3606 26.408L59.6328 22.68L62.9474 19.3655ZM63.3608 53.5919L66.6753 56.9064L62.9475 60.6344L59.633 57.3198L63.3608 53.5919ZM43.4049 13.4545H48.6769V18.142H43.4049V13.4545ZM46.041 27.8992C52.7241 27.8992 58.1417 33.3169 58.1417 40C58.1417 46.6831 52.7239 52.1009 46.041 52.1009C39.3578 52.1009 33.9402 46.6831 33.9402 40C33.9402 33.3169 39.3578 27.8992 46.041 27.8992Z" fill="white" fill-opacity="0.5"/>
</svg>
