<svg width="80" height="80" viewBox="0 0 80 80" fill="none" xmlns="http://www.w3.org/2000/svg">
<path d="M46.6817 44.8228C44.5531 45.4107 42.3128 45.7263 39.9998 45.7263C37.6868 45.7263 35.4465 45.4107 33.3179 44.8228V63.808H46.6817V44.8228Z" fill="white" fill-opacity="0.5"/>
<path d="M60.5976 20.5975C60.5976 9.24 51.3577 0 40.0001 0C28.6426 0 19.4026 9.24 19.4026 20.5975C19.4026 31.955 28.6426 41.195 40.0001 41.195C51.3577 41.195 60.5976 31.955 60.5976 20.5975ZM51.3297 30.1889H46.582V25.4412H51.3297V30.1889ZM33.3301 21.2883V30.2033H28.6262V10.9917H33.3301V16.5844H37.6483V10.9917H42.3522V16.5844H46.6703V11.2241H51.3742V21.2883H42.3522V30.2033H37.6483V21.2883H33.3301Z" fill="white"/>
<path d="M67.1576 75.2961V74.3433C67.1576 71.0327 64.4642 68.3392 61.1536 68.3392H18.8462C15.5356 68.3392 12.8421 71.0327 12.8421 74.3433V75.2961H7.23761V80H72.762V75.2961H67.1576Z" fill="white"/>
</svg>
