<svg width="47" height="47" viewBox="0 0 47 47" fill="none" xmlns="http://www.w3.org/2000/svg">
<path fill-rule="evenodd" clip-rule="evenodd" d="M20.1544 12.5704L19.604 13.1366L17.302 13.1386L15 13.1407V14.3086V15.4765H23H31V14.3086V13.1407H28.7042H26.4085L25.8456 12.5704L25.2828 12L22.9937 12.0021L20.7047 12.0042L20.1544 12.5704ZM16.1275 24.3037C16.1275 29.4099 16.1365 31.9901 16.1544 31.9901C16.1691 31.9901 16.1812 32.0512 16.1812 32.1259C16.1812 32.2006 16.1933 32.2617 16.2081 32.2617C16.2228 32.2617 16.2349 32.2984 16.2349 32.3432C16.2349 32.388 16.247 32.4247 16.2617 32.4247C16.2765 32.4247 16.2886 32.4614 16.2886 32.5062C16.2886 32.551 16.3007 32.5877 16.3154 32.5877C16.3302 32.5877 16.3423 32.6121 16.3423 32.642C16.3423 32.6719 16.3544 32.6963 16.3691 32.6963C16.3839 32.6963 16.396 32.7207 16.396 32.7506C16.396 32.7805 16.4081 32.8049 16.4228 32.8049C16.4376 32.8049 16.4497 32.8294 16.4497 32.8593C16.4497 32.8891 16.4617 32.9136 16.4765 32.9136C16.4913 32.9136 16.5034 32.9329 16.5034 32.9564C16.5034 32.98 16.5517 33.0463 16.6107 33.1037C16.6698 33.1611 16.7181 33.2218 16.7181 33.2386C16.7181 33.2782 16.8409 33.4025 16.8801 33.4025C16.8967 33.4025 16.9567 33.4514 17.0134 33.5111C17.0702 33.5709 17.1357 33.6198 17.159 33.6198C17.1823 33.6198 17.2013 33.632 17.2013 33.6469C17.2013 33.6619 17.2228 33.6741 17.2491 33.6741C17.2754 33.6741 17.3143 33.6985 17.3356 33.7284C17.3569 33.7583 17.3958 33.7827 17.422 33.7827C17.4483 33.7827 17.4698 33.7949 17.4698 33.8099C17.4698 33.8248 17.506 33.837 17.5503 33.837C17.5946 33.837 17.6309 33.8493 17.6309 33.8642C17.6309 33.8791 17.6671 33.8914 17.7114 33.8914C17.7557 33.8914 17.7919 33.9036 17.7919 33.9185C17.7919 33.9335 17.8403 33.9457 17.8993 33.9457C17.9584 33.9457 18.0067 33.9579 18.0067 33.9728C18.0067 33.9908 19.689 34 23 34C26.311 34 27.9933 33.9908 27.9933 33.9728C27.9933 33.9579 28.0416 33.9457 28.1007 33.9457C28.1597 33.9457 28.2081 33.9335 28.2081 33.9185C28.2081 33.9036 28.2443 33.8914 28.2886 33.8914C28.3329 33.8914 28.3691 33.8791 28.3691 33.8642C28.3691 33.8493 28.4054 33.837 28.4497 33.837C28.494 33.837 28.5302 33.8248 28.5302 33.8099C28.5302 33.7949 28.5517 33.7827 28.578 33.7827C28.6042 33.7827 28.6431 33.7583 28.6644 33.7284C28.6857 33.6985 28.7246 33.6741 28.7509 33.6741C28.7772 33.6741 28.7987 33.6619 28.7987 33.6469C28.7987 33.632 28.8177 33.6198 28.841 33.6198C28.8644 33.6198 28.9298 33.5709 28.9866 33.5111C29.0433 33.4514 29.1033 33.4025 29.1199 33.4025C29.1591 33.4025 29.2819 33.2782 29.2819 33.2386C29.2819 33.2218 29.3302 33.1611 29.3893 33.1037C29.4483 33.0463 29.4966 32.98 29.4966 32.9564C29.4966 32.9329 29.5087 32.9136 29.5235 32.9136C29.5383 32.9136 29.5503 32.8891 29.5503 32.8593C29.5503 32.8294 29.5624 32.8049 29.5772 32.8049C29.5919 32.8049 29.604 32.7805 29.604 32.7506C29.604 32.7207 29.6161 32.6963 29.6309 32.6963C29.6456 32.6963 29.6577 32.6719 29.6577 32.642C29.6577 32.6121 29.6698 32.5877 29.6846 32.5877C29.6993 32.5877 29.7114 32.551 29.7114 32.5062C29.7114 32.4614 29.7235 32.4247 29.7383 32.4247C29.753 32.4247 29.7651 32.388 29.7651 32.3432C29.7651 32.2984 29.7772 32.2617 29.7919 32.2617C29.8069 32.2617 29.8188 32.1893 29.8188 32.0988C29.8188 32.0082 29.8307 31.9358 29.8456 31.9358C29.8635 31.9358 29.8725 29.3646 29.8725 24.2765V16.6173H23H16.1275V24.3037ZM21.8725 25.3086V30.5235H20.7181H19.5638V25.3086V20.0938H20.7181H21.8725V25.3086ZM26.4362 25.3086V30.5235H25.2819H24.1275V25.3086V20.0938H25.2819H26.4362V25.3086Z" fill="white"/>
</svg>
