<svg width="47" height="47" viewBox="0 0 47 47" fill="none" xmlns="http://www.w3.org/2000/svg">
<path fill-rule="evenodd" clip-rule="evenodd" d="M22.5009 12.2067C22.7765 11.9311 23.2235 11.9311 23.4991 12.2067L27.9913 16.699C28.267 16.9746 28.267 17.4216 27.9913 17.6972C27.7157 17.9729 27.2687 17.9729 26.9931 17.6972L23.7059 14.41L23.7059 21.8824H22.2941L22.2941 14.41L19.0069 17.6972C18.7313 17.9729 18.2843 17.9729 18.0087 17.6972C17.733 17.4216 17.733 16.9746 18.0087 16.699L22.5009 12.2067ZM11.2067 24.4991C10.9311 24.2235 10.9311 23.7765 11.2067 23.5009L15.699 19.0087C15.9746 18.733 16.4216 18.733 16.6972 19.0087C16.9729 19.2843 16.9729 19.7313 16.6972 20.0069L13.41 23.2941L20.8824 23.2941V24.7059L13.41 24.7059L16.6972 27.9931C16.9729 28.2687 16.9729 28.7157 16.6972 28.9913C16.4216 29.267 15.9746 29.267 15.699 28.9913L11.2067 24.4991ZM30.301 19.0087L34.7933 23.5009C35.0689 23.7765 35.0689 24.2235 34.7933 24.4991L30.301 28.9913C30.0254 29.267 29.5784 29.267 29.3028 28.9913C29.0271 28.7157 29.0271 28.2687 29.3028 27.9931L32.59 24.7059H25.1176V23.2941H32.59L29.3028 20.0069C29.0271 19.7313 29.0271 19.2843 29.3028 19.0087C29.5784 18.733 30.0254 18.733 30.301 19.0087ZM22.2941 33.59L22.2941 26.1176H23.7059L23.7059 33.59L26.9931 30.3028C27.2687 30.0271 27.7157 30.0271 27.9913 30.3028C28.267 30.5784 28.267 31.0254 27.9913 31.301L23.4991 35.7933C23.2235 36.0689 22.7765 36.0689 22.5009 35.7933L18.0087 31.301C17.733 31.0254 17.733 30.5784 18.0087 30.3028C18.2843 30.0271 18.7313 30.0271 19.0069 30.3028L22.2941 33.59Z" fill="white"/>
</svg>
