<svg width="32" height="32" viewBox="0 0 32 32" fill="none" xmlns="http://www.w3.org/2000/svg">
<path fill-rule="evenodd" clip-rule="evenodd" d="M16.2626 3.01127C16.2506 3.02338 15.8974 3.04202 15.4776 3.05268C14.4574 3.07863 13.7602 3.13729 13.0596 3.25611C12.9696 3.27138 12.8283 3.29486 12.7456 3.30831C12.2447 3.38967 11.3834 3.59925 10.9382 3.74808C9.54907 4.21258 8.4637 4.9069 7.81829 5.74399C7.40635 6.27827 7.17809 6.77549 7.03544 7.44925C6.95563 7.82609 6.96092 8.45733 7.04742 8.88524C7.14886 9.38707 7.25614 9.73388 7.47602 10.271C7.53597 10.4174 8.22499 11.8145 9.24197 13.8514C9.40249 14.173 9.60448 14.5875 9.69083 14.7726C9.84381 15.1006 10.1811 15.695 10.3906 16.0061C10.5321 16.2162 10.681 16.3564 10.8585 16.4467C11.1818 16.6112 10.8925 16.6032 16.5068 16.6032C22.129 16.6032 21.831 16.6116 22.1594 16.4445C22.3628 16.341 22.5169 16.1734 22.7168 15.8384C22.8077 15.6861 22.9506 15.4499 23.0344 15.3135C23.1182 15.1771 23.2242 14.9753 23.27 14.8651C23.3158 14.7549 23.6158 14.1425 23.9366 13.5042C25.5405 10.313 25.6232 10.1328 25.843 9.35012C25.8858 9.19781 25.9342 8.9901 25.9507 8.88856C25.9672 8.78702 25.9919 8.63794 26.0057 8.55729C26.0379 8.36871 26.0381 7.83538 26.0059 7.67072C25.9923 7.60072 25.9676 7.47377 25.951 7.38864C25.8176 6.70183 25.4232 5.9666 24.8687 5.37134C24.6348 5.12025 24.0635 4.68899 23.6629 4.46119C23.1008 4.14155 22.9063 4.05306 22.1845 3.7882C21.6532 3.59324 20.668 3.36095 19.9278 3.25611C19.8307 3.24237 19.6658 3.2186 19.5615 3.20333C18.9863 3.11912 18.4462 3.07689 17.5534 3.04638C17.1432 3.03234 16.6899 3.01375 16.546 3.00505C16.4021 2.99637 16.2746 2.99916 16.2626 3.01127ZM5.45212 13.1173C5.04403 13.2561 4.68772 13.5057 4.45519 13.8157C4.1949 14.1627 3.99995 14.7234 4 15.1251C4.00005 15.4887 4.17175 16.0261 4.39218 16.3527C4.43135 16.4107 4.51401 16.5413 4.57586 16.6428C4.97074 17.2911 5.10594 17.5119 5.22983 17.711C5.30657 17.8343 5.4949 18.1429 5.64836 18.3968C5.80182 18.6506 5.99015 18.9592 6.06689 19.0825C6.14361 19.2058 6.29683 19.4551 6.40737 19.6364C6.51795 19.8177 6.65908 20.0492 6.72104 20.1507C7.03057 20.6581 7.38086 21.1195 7.65308 21.3785C7.85937 21.5747 8.29396 21.9032 8.5851 22.0828C9.02909 22.3568 9.69096 22.6097 10.188 22.6955C10.2887 22.7128 10.4205 22.7378 10.4808 22.751C10.6475 22.7875 22.3627 22.7826 22.5624 22.746C22.8603 22.6913 23.1917 22.6085 23.4557 22.5227C23.7809 22.417 24.347 22.1342 24.644 21.9291C24.9242 21.7356 25.3988 21.3403 25.4967 21.2189C25.5376 21.1681 25.629 21.0617 25.6997 20.9823C25.8428 20.8216 26.1375 20.3867 26.4152 19.9265C26.5158 19.7597 26.6942 19.466 26.8116 19.2737C26.929 19.0815 27.1173 18.773 27.2301 18.588C27.3428 18.403 27.4978 18.1508 27.5745 18.0275C27.6512 17.9042 27.8042 17.655 27.9146 17.4736C28.0251 17.2923 28.1762 17.0461 28.2505 16.9264C28.7172 16.1748 28.8018 16.0158 28.8984 15.709C28.9329 15.5992 28.9612 15.4676 28.9612 15.4165C28.9612 15.3655 28.9729 15.2826 28.9872 15.2323C29.0047 15.171 29.0042 15.0887 28.9859 14.982C28.9708 14.8945 28.9468 14.7543 28.9325 14.6703C28.8856 14.3956 28.7643 14.1273 28.5662 13.8603C28.2757 13.4685 27.8998 13.2125 27.4177 13.0782C27.0977 12.989 26.6236 12.9896 26.3423 13.0796C25.8746 13.2293 25.4939 13.4958 25.2418 13.8501C25.072 14.0887 24.9743 14.2457 24.5128 15.0208C23.4116 16.8701 23.4888 16.7521 23.185 17.0525C22.89 17.3442 22.7086 17.4614 22.3765 17.5751C21.9585 17.7181 22.2669 17.711 16.4723 17.711L11.1132 17.711L10.8469 17.643C10.3845 17.5248 9.88659 17.2109 9.62159 16.8705C9.49988 16.7141 9.4661 16.6591 8.49677 15.0373C8.12504 14.4154 7.76541 13.841 7.69756 13.761C7.41776 13.4308 7.04582 13.1897 6.64516 13.0785C6.46033 13.0273 6.36036 13.0165 6.08026 13.0178C5.75875 13.0192 5.72403 13.0248 5.45212 13.1173ZM15.9744 23.4035C15.9363 23.446 15.9311 23.54 15.9311 24.1889C15.9311 25.0889 15.9472 25.0433 15.6314 25.0433C15.4391 25.0433 15.3169 25.0697 14.6059 25.2649C14.162 25.3869 13.5927 25.5419 13.3408 25.6095C12.9244 25.7212 12.5643 25.8188 11.0514 26.2298C10.778 26.3041 10.4605 26.4023 10.3459 26.4481C9.9475 26.6075 9.47894 26.9698 9.21672 27.3213C8.92302 27.715 8.65742 28.4191 8.65734 28.8042C8.65729 29.0031 8.64026 28.9996 9.60132 28.9994C10.0879 28.9993 10.4899 28.988 10.5441 28.9728C10.6445 28.9447 10.9089 28.8854 11.4831 28.7622C11.8146 28.6911 11.9592 28.659 12.5624 28.523C12.6955 28.4929 12.9457 28.439 13.1184 28.403C13.2911 28.367 13.5207 28.315 13.6286 28.2874C13.7366 28.2599 13.9662 28.2079 14.1388 28.1719C14.3115 28.1359 14.5618 28.0819 14.6949 28.0519C15.4548 27.8805 15.327 27.8918 16.5068 27.8918C17.6857 27.8918 17.5543 27.8803 18.3121 28.0501C18.4417 28.0791 18.6536 28.1265 18.7831 28.1556C18.9126 28.1846 19.1246 28.232 19.2541 28.2611C19.3836 28.2901 19.5955 28.3375 19.725 28.3666C19.8546 28.3956 20.0665 28.443 20.196 28.4721C20.3255 28.5011 20.5375 28.5485 20.667 28.5776C20.7965 28.6066 21.0084 28.654 21.1379 28.6831C21.2675 28.7121 21.4794 28.7595 21.6089 28.7886C21.7384 28.8176 21.952 28.8649 22.0835 28.8938C22.215 28.9227 22.3651 28.9583 22.4171 28.9728C22.4716 28.9881 22.8835 28.9993 23.3906 28.9994C24.4766 28.9996 24.4063 29.0342 24.3036 28.55C24.1822 27.9771 24.0484 27.6821 23.7096 27.2398C23.4995 26.9656 23.2015 26.729 22.8251 26.5376C22.5389 26.3921 22.406 26.3497 21.2426 26.0325C21.0483 25.9796 20.2241 25.7511 19.4111 25.525L17.9328 25.1138L17.5466 25.1025C17.189 25.092 17.1576 25.087 17.1214 25.035C17.089 24.9883 17.0824 24.849 17.0824 24.2107C17.0824 23.5001 17.0788 23.4393 17.0345 23.3989C16.9936 23.3616 16.9163 23.3553 16.5022 23.3553C16.0661 23.3553 16.0134 23.3601 15.9744 23.4035Z" fill="white" fill-opacity="0.45"/>
</svg>
