<svg width="32" height="32" viewBox="0 0 32 32" fill="none" xmlns="http://www.w3.org/2000/svg">
<path fill-rule="evenodd" clip-rule="evenodd" d="M15.6939 4.05342C15.4683 4.11514 14.5212 4.40691 12.9388 4.90226C12.4168 5.06562 11.6316 5.30937 11.1939 5.4439C9.29022 6.02883 8.6898 6.21442 7.79592 6.49424C6.81657 6.80082 5.59833 7.17695 4.79592 7.42052C4.51361 7.50619 4.2719 7.62405 4.16837 7.72649L4 7.8931V15.6634V23.4336L4.13776 23.5565C4.2689 23.6735 5.26227 24.0839 6.38776 24.4859C6.67398 24.5882 7.14235 24.7596 7.42857 24.8669C7.7148 24.9742 8.23827 25.1668 8.59184 25.295C8.94541 25.4231 9.4551 25.611 9.72449 25.7124C10.2514 25.9108 10.8855 26.1488 11.7143 26.4591C12.0005 26.5662 12.524 26.7588 12.8776 26.887C13.2311 27.0151 13.7546 27.2088 14.0408 27.3172C14.327 27.4257 14.8849 27.6237 15.2806 27.7572L16 28L16.7194 27.7572C17.115 27.6237 17.673 27.4257 17.9592 27.3172C18.2454 27.2088 18.7689 27.0151 19.1224 26.887C19.7242 26.6689 20.0755 26.5385 21.2959 26.0804C21.5653 25.9792 22.0199 25.8129 22.3061 25.7108C22.5923 25.6087 23.0398 25.4443 23.3004 25.3456C23.561 25.2469 23.988 25.0862 24.2494 24.9883C24.5107 24.8906 24.9449 24.7279 25.2143 24.6268C25.4837 24.5258 25.9245 24.3605 26.1939 24.2595C27.5029 23.7685 27.7345 23.671 27.8622 23.5567L28 23.4336V15.758C28 9.1575 27.9874 8.05224 27.9104 7.86775C27.8155 7.64077 27.6421 7.54054 27.051 7.37105C26.7109 7.27351 25.6425 6.94446 24.2041 6.49424C23.6821 6.33088 22.8832 6.08289 22.4286 5.94317C21.974 5.80344 21.175 5.55546 20.6531 5.3921C20.1311 5.22873 19.3459 4.98498 18.9082 4.85046C18.4704 4.71593 17.7541 4.49508 17.3163 4.3597C15.9943 3.95068 16.0389 3.95907 15.6939 4.05342ZM14.957 6.61266C14.9994 6.69189 15.0204 8.63337 15.0204 12.4771C15.0204 18.8647 15.0522 18.3988 14.603 18.5962C14.388 18.6908 12.8896 19.208 8.51518 20.6975C7.42924 21.0673 6.45425 21.3706 6.34839 21.3715C6.22827 21.3725 6.142 21.3368 6.1188 21.2763C6.05469 21.1092 6.07612 9.37437 6.14078 9.25351C6.20371 9.13588 6.5958 8.96309 7.2449 8.76697C7.46378 8.70084 8.00102 8.53638 8.43878 8.40143C8.87653 8.26654 9.52398 8.06969 9.87755 7.96412C10.2311 7.8585 10.9474 7.6382 11.4694 7.47447C14.1561 6.63188 14.5875 6.50385 14.7581 6.49852C14.8327 6.49614 14.9221 6.54745 14.957 6.61266ZM17.6572 6.58957C18.0307 6.6966 19.1155 7.03067 20.5306 7.47447C21.0526 7.6382 21.7689 7.85832 22.1224 7.96376C22.476 8.0692 23.2061 8.29385 23.7449 8.46309C24.2837 8.63227 24.8209 8.79789 24.9388 8.83102C25.3897 8.95801 25.8025 9.14746 25.8592 9.25351C25.9239 9.37437 25.9453 21.1092 25.8812 21.2763C25.818 21.4412 25.5276 21.3886 24.3682 21.0024C23.5591 20.733 23.2175 20.5899 23.1173 20.4786L22.9796 20.3254V16.0314V11.7373L22.8465 11.5956C22.7733 11.5177 22.6804 11.4539 22.6401 11.4539C22.5998 11.4539 21.9916 11.2647 21.2885 11.0336C20.5854 10.8024 19.8081 10.5615 19.5611 10.4982C19.1188 10.3849 19.1107 10.3849 19.0254 10.5016C18.9527 10.6009 18.9388 11.2846 18.9388 14.737C18.9388 18.398 18.9281 18.8646 18.8426 18.9502C18.7896 19.0031 18.7139 19.0463 18.6742 19.0461C18.5962 19.0458 17.764 18.751 17.397 18.5937C16.9479 18.4013 16.9796 18.865 16.9796 12.4771C16.9796 8.63337 17.0006 6.69189 17.043 6.61266C17.1197 6.46932 17.2241 6.4654 17.6572 6.58957ZM11.6224 10.8407C11.0163 11.0378 10.2449 11.286 9.90816 11.3923C9.57143 11.4985 9.23396 11.6433 9.15816 11.714L9.02041 11.8426V14.3158C9.02041 15.9035 9.04312 16.8313 9.08378 16.9074C9.11867 16.9725 9.19692 17.0258 9.25771 17.0258C9.44512 17.0258 12.9034 15.6222 12.9847 15.5131C13.0429 15.4351 13.0612 14.8403 13.0612 13.0376V10.6648L12.9251 10.5695C12.8503 10.5171 12.7746 10.476 12.7568 10.4782C12.739 10.4804 12.2286 10.6436 11.6224 10.8407ZM16.7146 20.4617C17.0119 20.5666 18.2056 20.9776 19.3673 21.375C22.9506 22.6007 23.4239 22.771 23.5226 22.8696C23.6078 22.9549 23.6081 22.975 23.5254 23.0578C23.4744 23.1088 23.1724 23.2432 22.8541 23.3564C22.5359 23.4698 22.0413 23.6501 21.7551 23.7573C20.9448 24.0606 20.299 24.303 19.7653 24.5039C19.4959 24.6053 18.9862 24.7932 18.6327 24.9214C18.2791 25.0495 17.7556 25.2423 17.4694 25.3498C16.4384 25.737 16.1227 25.8429 16 25.8429C15.8773 25.8429 15.5616 25.737 14.5306 25.3498C14.2444 25.2423 13.7209 25.0495 13.3673 24.9214C13.0138 24.7932 12.5041 24.6053 12.2347 24.5039C11.1551 24.0974 10.6758 23.9195 10.0612 23.6971C8.3781 23.0879 8.29992 23.0471 8.47741 22.8696C8.57604 22.771 9.0468 22.6016 12.6327 21.3749C13.7944 20.9775 14.9791 20.568 15.2653 20.465C15.5515 20.362 15.8731 20.2762 15.9799 20.2744C16.0868 20.2725 16.4174 20.3568 16.7146 20.4617Z" fill="white" fill-opacity="0.45"/>
</svg>
