<svg width="40" height="40" viewBox="0 0 40 40" fill="none" xmlns="http://www.w3.org/2000/svg">
<g clip-path="url(#clip0)">
<path d="M20 16.1431C23.7538 16.1431 26.7969 13.1 26.7969 9.34619C26.7969 5.59238 23.7538 2.54932 20 2.54932C16.2462 2.54932 13.2031 5.59238 13.2031 9.34619C13.2031 13.1 16.2462 16.1431 20 16.1431Z" fill="white"/>
<path d="M33.75 16.1431C36.1231 16.1431 38.0469 14.2193 38.0469 11.8462C38.0469 9.4731 36.1231 7.54932 33.75 7.54932C31.3769 7.54932 29.4531 9.4731 29.4531 11.8462C29.4531 14.2193 31.3769 16.1431 33.75 16.1431Z" fill="white"/>
<path d="M6.25 16.1431C8.6231 16.1431 10.5469 14.2193 10.5469 11.8462C10.5469 9.4731 8.6231 7.54932 6.25 7.54932C3.8769 7.54932 1.95312 9.4731 1.95312 11.8462C1.95312 14.2193 3.8769 16.1431 6.25 16.1431Z" fill="white"/>
<path d="M10.4836 20.0019C8.79219 18.6161 7.26039 18.7995 5.30469 18.7995C2.37969 18.7995 0 21.1652 0 24.0722V32.6042C0 33.8667 1.03047 34.8933 2.29766 34.8933C7.76844 34.8933 7.10938 34.9922 7.10938 34.6573C7.10938 28.6116 6.39328 24.1779 10.4836 20.0019V20.0019Z" fill="white"/>
<path d="M21.8621 18.8305C18.4462 18.5455 15.477 18.8337 12.916 20.9477C8.6303 24.3805 9.45506 29.0026 9.45506 34.657C9.45506 36.153 10.6723 37.3929 12.191 37.3929C28.6818 37.3929 29.3381 37.9249 30.316 35.7593C30.6367 35.027 30.5488 35.2597 30.5488 28.2539C30.5488 22.6894 25.7306 18.8305 21.8621 18.8305V18.8305Z" fill="white"/>
<path d="M34.6972 18.7993C32.7308 18.7993 31.2075 18.6178 29.5183 20.0017C33.5781 24.1467 32.8925 28.2778 32.8925 34.6571C32.8925 34.9942 32.3454 34.8931 37.6222 34.8931C38.9347 34.8931 40.0019 33.8298 40.0019 32.5228V24.072C40.0019 21.165 37.6222 18.7993 34.6972 18.7993Z" fill="white"/>
</g>
<defs>
<clipPath id="clip0">
<rect width="40" height="40" fill="white"/>
</clipPath>
</defs>
</svg>
