<svg width="27" height="27" viewBox="0 0 27 27" fill="none" xmlns="http://www.w3.org/2000/svg">
<path d="M7.875 12.375H16.4137L12.7012 8.67375C12.4894 8.4619 12.3704 8.17458 12.3704 7.875C12.3704 7.57541 12.4894 7.28809 12.7012 7.07625C12.9131 6.8644 13.2004 6.74539 13.5 6.74539C13.7996 6.74539 14.0869 6.8644 14.2987 7.07625L19.9237 12.7012C20.0262 12.8082 20.1065 12.9344 20.16 13.0725C20.2725 13.3464 20.2725 13.6536 20.16 13.9275C20.1065 14.0656 20.0262 14.1918 19.9237 14.2987L14.2987 19.9237C14.1942 20.0292 14.0697 20.1129 13.9326 20.17C13.7956 20.2271 13.6485 20.2565 13.5 20.2565C13.3515 20.2565 13.2044 20.2271 13.0673 20.17C12.9303 20.1129 12.8058 20.0292 12.7012 19.9237C12.5958 19.8192 12.5121 19.6947 12.455 19.5576C12.3979 19.4206 12.3685 19.2735 12.3685 19.125C12.3685 18.9765 12.3979 18.8294 12.455 18.6923C12.5121 18.5553 12.5958 18.4308 12.7012 18.3262L16.4137 14.625H7.875C7.57663 14.625 7.29048 14.5065 7.0795 14.2955C6.86852 14.0845 6.75 13.7984 6.75 13.5C6.75 13.2016 6.86852 12.9155 7.0795 12.7045C7.29048 12.4935 7.57663 12.375 7.875 12.375Z" fill="#BABCBE"/>
</svg>
