<svg width="27" height="27" viewBox="0 0 27 27" fill="none" xmlns="http://www.w3.org/2000/svg">
<path d="M11.9545 9.09091C11.8017 9.09091 11.6523 9.13623 11.5252 9.22114C11.3982 9.30605 11.2991 9.42673 11.2406 9.56793C11.1822 9.70912 11.1668 9.86449 11.1967 10.0144C11.2265 10.1643 11.3001 10.302 11.4081 10.41C11.5162 10.5181 11.6539 10.5917 11.8038 10.6215C11.9537 10.6513 12.1091 10.636 12.2503 10.5775C12.3915 10.5191 12.5121 10.42 12.597 10.2929C12.682 10.1659 12.7273 10.0165 12.7273 9.86364C12.7273 9.6587 12.6459 9.46215 12.5009 9.31724C12.356 9.17232 12.1595 9.09091 11.9545 9.09091ZM8.86364 9.09091C8.71081 9.09091 8.56141 9.13623 8.43433 9.22114C8.30726 9.30605 8.20822 9.42673 8.14973 9.56793C8.09124 9.70912 8.07594 9.86449 8.10576 10.0144C8.13557 10.1643 8.20917 10.302 8.31724 10.41C8.4253 10.5181 8.56299 10.5917 8.71288 10.6215C8.86278 10.6513 9.01815 10.636 9.15935 10.5775C9.30054 10.5191 9.42123 10.42 9.50614 10.2929C9.59104 10.1659 9.63636 10.0165 9.63636 9.86364C9.63636 9.6587 9.55495 9.46215 9.41004 9.31724C9.26512 9.17232 9.06858 9.09091 8.86364 9.09091ZM15.0455 9.09091C14.8926 9.09091 14.7432 9.13623 14.6161 9.22114C14.4891 9.30605 14.39 9.42673 14.3315 9.56793C14.2731 9.70912 14.2578 9.86449 14.2876 10.0144C14.3174 10.1643 14.391 10.302 14.4991 10.41C14.6071 10.5181 14.7448 10.5917 14.8947 10.6215C15.0446 10.6513 15.2 10.636 15.3412 10.5775C15.4824 10.5191 15.603 10.42 15.688 10.2929C15.7729 10.1659 15.8182 10.0165 15.8182 9.86364C15.8182 9.6587 15.7368 9.46215 15.5919 9.31724C15.4469 9.17232 15.2504 9.09091 15.0455 9.09091ZM19.6818 6H7.31818C6.70336 6 6.11372 6.24424 5.67898 6.67898C5.24424 7.11372 5 7.70336 5 8.31818V20.6818C5 21.2966 5.24424 21.8863 5.67898 22.321C6.11372 22.7558 6.70336 23 7.31818 23H19.6818C20.2966 23 20.8863 22.7558 21.321 22.321C21.7558 21.8863 22 21.2966 22 20.6818V8.31818C22 7.70336 21.7558 7.11372 21.321 6.67898C20.8863 6.24424 20.2966 6 19.6818 6V6ZM20.4545 20.6818C20.4545 20.8868 20.3731 21.0833 20.2282 21.2282C20.0833 21.3731 19.8868 21.4545 19.6818 21.4545H7.31818C7.11324 21.4545 6.9167 21.3731 6.77178 21.2282C6.62687 21.0833 6.54545 20.8868 6.54545 20.6818V13.7273H20.4545V20.6818ZM20.4545 12.1818H6.54545V8.31818C6.54545 8.11324 6.62687 7.9167 6.77178 7.77178C6.9167 7.62687 7.11324 7.54545 7.31818 7.54545H19.6818C19.8868 7.54545 20.0833 7.62687 20.2282 7.77178C20.3731 7.9167 20.4545 8.11324 20.4545 8.31818V12.1818Z" fill="#CCCCCC"/>
</svg>
