<svg width="27" height="27" viewBox="0 0 27 27" fill="none" xmlns="http://www.w3.org/2000/svg">
<path d="M21.6962 11.4243L13.5942 4.22388C13.4299 4.07958 13.2187 4 13 4C12.7813 4 12.5701 4.07958 12.4058 4.22388L4.30377 11.4243C4.16606 11.5461 4.06896 11.7071 4.02551 11.8857C3.98205 12.0644 3.99434 12.252 4.06071 12.4234C4.12599 12.5925 4.24085 12.738 4.39023 12.8408C4.53962 12.9436 4.71658 12.9989 4.89792 12.9994H5.79815V21.0999C5.79815 21.3387 5.893 21.5676 6.06182 21.7364C6.23065 21.9052 6.45963 22 6.69838 22H19.3016C19.5404 22 19.7694 21.9052 19.9382 21.7364C20.107 21.5676 20.2018 21.3387 20.2018 21.0999V12.9994H21.1021C21.2834 12.9989 21.4604 12.9436 21.6098 12.8408C21.7592 12.738 21.874 12.5925 21.9393 12.4234C22.0057 12.252 22.0179 12.0644 21.9745 11.8857C21.931 11.7071 21.8339 11.5461 21.6962 11.4243V11.4243ZM13.9002 20.1999H12.0998V17.4997C12.0998 17.261 12.1946 17.0321 12.3634 16.8633C12.5323 16.6945 12.7612 16.5997 13 16.5997C13.2388 16.5997 13.4677 16.6945 13.6366 16.8633C13.8054 17.0321 13.9002 17.261 13.9002 17.4997V20.1999ZM18.4014 20.1999H15.7007V17.4997C15.7007 16.7836 15.4162 16.0968 14.9097 15.5904C14.4032 15.084 13.7163 14.7995 13 14.7995C12.2837 14.7995 11.5968 15.084 11.0903 15.5904C10.5838 16.0968 10.2993 16.7836 10.2993 17.4997V20.1999H7.59861V12.9994H18.4014V20.1999ZM7.26553 11.1993L13 6.10499L18.7345 11.1993H7.26553Z" fill="#5F6368"/>
</svg>
