<svg width="1920" height="1080" viewBox="0 0 1920 1080" fill="none" xmlns="http://www.w3.org/2000/svg">
<rect y="-3.05176e-05" width="1920" height="1080" fill="url(#paint0_radial)" fill-opacity="0.65"/>
<path d="M877.178 848.096C822.92 833.558 773.445 804.994 733.726 765.274C694.006 725.555 665.442 676.08 650.904 621.822L653.051 621.247C667.489 675.127 695.855 724.258 735.298 763.702C774.741 803.145 823.873 831.511 877.753 845.948L877.178 848.096Z" fill="white" fill-opacity="0.15"/>
<path d="M1042.82 229.904C1097.08 244.442 1146.55 273.006 1186.27 312.726C1225.99 352.445 1254.56 401.92 1269.1 456.178L1266.95 456.753C1252.51 402.873 1224.15 353.741 1184.7 314.298C1145.26 274.855 1096.13 246.489 1042.25 232.051L1042.82 229.904Z" fill="white" fill-opacity="0.05"/>
<path d="M1357 645.375C1338.32 715.062 1301.64 778.606 1250.62 829.621C1199.61 880.636 1136.06 917.323 1066.37 935.996L1065.64 933.237C1134.84 914.694 1197.94 878.262 1248.6 827.602C1299.26 776.941 1335.69 713.839 1354.24 644.635L1357 645.375Z" fill="white" fill-opacity="0.05"/>
<path d="M563.004 432.626C581.677 362.938 618.364 299.394 669.379 248.379C720.394 197.365 783.938 160.677 853.625 142.005L854.365 144.763C785.161 163.306 722.059 199.738 671.398 250.399C620.738 301.059 584.306 364.162 565.763 433.365L563.004 432.626Z" fill="white" fill-opacity="0.15"/>
<path d="M829.193 1027.18C743.499 1004.22 665.36 959.104 602.628 896.372C539.896 833.64 494.782 755.501 471.82 669.807L475.212 668.898C498.014 753.996 542.815 831.593 605.111 893.889C667.407 956.185 745.004 1000.99 830.102 1023.79L829.193 1027.18Z" fill="white" fill-opacity="0.05"/>
<path d="M1090.81 50.8203C1176.5 73.7818 1254.64 118.896 1317.37 181.628C1380.1 244.36 1425.22 322.499 1448.18 408.193L1444.79 409.102C1421.99 324.004 1377.19 246.407 1314.89 184.111C1252.59 121.815 1175 77.0143 1089.9 54.2124L1090.81 50.8203Z" fill="white" fill-opacity="0.15"/>
<path d="M1587.01 707.006C1557.51 817.068 1499.57 917.429 1419 998C1338.43 1078.57 1238.07 1136.51 1128.01 1166.01L1126.84 1161.65C1236.14 1132.36 1335.8 1074.82 1415.81 994.811C1495.82 914.799 1553.36 815.136 1582.65 705.838L1587.01 707.006Z" fill="white" fill-opacity="0.15"/>
<path d="M332.994 370.995C362.485 260.932 420.429 160.571 501 80.0001C581.571 -0.571261 681.932 -58.5144 791.994 -88.0056L793.162 -83.649C683.864 -54.3627 584.201 3.17791 504.189 83.1894C424.178 163.201 366.637 262.864 337.351 372.162L332.994 370.995Z" fill="white" fill-opacity="0.05"/>
<defs>
<radialGradient id="paint0_radial" cx="0" cy="0" r="1" gradientUnits="userSpaceOnUse" gradientTransform="translate(960 540) rotate(90) scale(540 960)">
<stop stop-opacity="0"/>
<stop offset="1" stop-opacity="0.9375"/>
</radialGradient>
</defs>
</svg>
