<svg width="26" height="26" viewBox="0 0 26 26" fill="none" xmlns="http://www.w3.org/2000/svg">
<g clip-path="url(#clip0)">
<path d="M20.9555 8.86835L23.0793 6.2136L21.1196 2.29443H15.5862L13.6265 6.2136L15.7503 8.86835C14.7103 9.24597 13.7748 9.8433 12.9999 10.6038C11.6196 9.24908 9.72939 8.41208 7.64704 8.41208C3.43046 8.41208 -1.52588e-05 11.8426 -1.52588e-05 16.0591C-1.52588e-05 20.2757 3.43046 23.7062 7.64704 23.7062C9.72939 23.7062 11.6196 22.8692 13 21.5145C14.3804 22.8692 16.2706 23.7062 18.3529 23.7062C22.5695 23.7062 26 20.2757 26 16.0591C26 12.7559 23.8946 9.93543 20.9555 8.86835ZM20.1744 3.82385L20.9391 5.35326H15.7667L16.5314 3.82385H20.1744ZM16.1205 6.88267H20.5854L19.3137 8.47229C18.6768 8.3921 18.0301 8.39194 17.3922 8.47229L16.1205 6.88267ZM13.7647 16.0591C13.7647 17.1317 13.4869 18.1405 13 19.0179C11.9802 17.1803 11.9795 14.9393 13 13.1004C13.4869 13.9778 13.7647 14.9866 13.7647 16.0591ZM7.64704 22.1768C4.27372 22.1768 1.5294 19.4324 1.5294 16.0591C1.5294 12.6859 4.27372 9.94149 7.64704 9.94149C9.35723 9.94149 10.9055 10.6472 12.0166 11.7822C10.2681 14.3644 10.268 17.7537 12.0166 20.3361C10.9055 21.4711 9.35723 22.1768 7.64704 22.1768ZM18.3529 22.1768C16.6427 22.1768 15.0946 21.4711 13.9833 20.3361C15.7319 17.7538 15.7319 14.3647 13.9833 11.7822C15.0946 10.6472 16.6427 9.94149 18.3529 9.94149C21.7262 9.94149 24.4706 12.6858 24.4706 16.0591C24.4706 19.4325 21.7262 22.1768 18.3529 22.1768Z" fill="#293340"/>
</g>
<defs>
<clipPath id="clip0">
<rect width="26" height="26" fill="white"/>
</clipPath>
</defs>
</svg>
