<svg width="26" height="26" viewBox="0 0 26 26" fill="none" xmlns="http://www.w3.org/2000/svg">
<g clip-path="url(#clip0)">
<path d="M21.1885 6.29327L15.2829 3.95022C15.284 3.92006 15.2852 3.88984 15.2852 3.85938C15.2852 2.86635 14.6483 2.01967 13.7617 1.70523V0H12.2383V1.70523C11.3517 2.01967 10.7148 2.86635 10.7148 3.85938C10.7148 3.88984 10.716 3.92006 10.7171 3.95022L4.81152 6.29327L0 14.3124V14.5234C0 16.629 2.38875 19.8555 5.33203 19.8555C8.27531 19.8555 10.6641 16.629 10.6641 14.5234V14.3124L6.44668 7.28345L11.2829 5.36468C11.5384 5.65571 11.8662 5.88148 12.2383 6.01346V21.4297H9.48233L7.19718 26H18.8028L16.5176 21.4297H13.7617V6.01352C14.1338 5.88154 14.4616 5.65576 14.7171 5.36473L19.5533 7.2835L15.3359 14.3124V14.5234C15.3359 16.629 17.7247 19.8555 20.668 19.8555C23.6112 19.8555 26 16.629 26 14.5234V14.3124L21.1885 6.29327ZM5.33203 18.332C3.60933 18.332 2.13281 16.6095 1.67223 15.2852H8.99179C8.53125 16.6095 7.05473 18.332 5.33203 18.332ZM8.557 13.7617H2.10707L5.33203 8.38678L8.557 13.7617ZM16.3378 24.4766H9.6622L10.4239 22.9531H15.5761L16.3378 24.4766ZM13 4.62109C12.58 4.62109 12.2383 4.27939 12.2383 3.85938C12.2383 3.43936 12.58 3.09766 13 3.09766C13.42 3.09766 13.7617 3.43936 13.7617 3.85938C13.7617 4.27939 13.42 4.62109 13 4.62109ZM20.668 8.38678L23.8929 13.7617H17.443L20.668 8.38678ZM20.668 18.332C18.9453 18.332 17.4688 16.6095 17.0082 15.2852H24.3278C23.8672 16.6095 22.3906 18.332 20.668 18.332Z" fill="#293340"/>
</g>
<defs>
<clipPath id="clip0">
<rect width="26" height="26" fill="white"/>
</clipPath>
</defs>
</svg>
