<svg width="218" height="218" viewBox="0 0 218 218" fill="none" xmlns="http://www.w3.org/2000/svg">
<path d="M183 113C185.209 113 187 111.209 187 109C187 106.791 185.209 105 183 105C180.791 105 179 106.791 179 109C179 111.209 180.791 113 183 113Z" fill="#293340"/>
<path d="M204.944 82.616H196.519C194.685 76.8519 192.279 71.2767 189.337 65.9753L195.499 59.8132C200.588 54.7231 200.588 46.4409 195.499 41.3502L176.649 22.5007C171.559 17.4106 163.276 17.4111 158.186 22.5007L151.583 29.1038C146.403 26.3886 140.977 24.1765 135.383 22.5012V13.0555C135.383 5.85669 129.527 0 122.328 0H95.6715C88.4722 0 82.616 5.85669 82.616 13.0555V22.5012C77.0229 24.177 71.5963 26.3886 66.4163 29.1038L59.8132 22.5007C54.7236 17.4106 46.4403 17.4111 41.3502 22.5007L22.5007 41.3502C17.4111 46.4403 17.4111 54.7225 22.5007 59.8132L28.6628 65.9753C25.7206 71.2767 23.3141 76.8519 21.4809 82.616H13.0555C5.85669 82.616 0 88.4727 0 95.6715V122.328C0 129.527 5.85669 135.383 13.0555 135.383H20.6005C22.321 141.502 24.6763 147.425 27.6289 153.057L22.5001 158.186C17.4106 163.276 17.4106 171.559 22.5007 176.649L25.1124 179.26C26.7066 180.855 29.2922 180.854 30.8869 179.26C32.4816 177.666 32.4816 175.08 30.8863 173.485L28.2751 170.875C26.369 168.969 26.369 165.867 28.2751 163.961L35.5654 156.67C36.865 155.371 37.1361 153.362 36.2274 151.764C32.4076 145.047 29.5448 137.837 27.7182 130.334C27.2728 128.504 25.634 127.216 23.7507 127.216H13.0555C10.3599 127.216 8.16681 125.023 8.16681 122.327V95.6709C8.16681 92.9753 10.3593 90.7823 13.0555 90.7823H24.52C26.35 90.7823 27.9566 89.5649 28.4515 87.803C30.4589 80.6549 33.4246 73.7937 37.2657 67.4089C38.2321 65.8016 37.9806 63.7425 36.6543 62.4162L28.2757 54.0387C26.3696 52.1326 26.3696 49.0308 28.2757 47.1247L47.1247 28.2757C49.0308 26.3695 52.132 26.3695 54.0382 28.2757L62.8028 37.0403C64.103 38.3405 66.1114 38.6105 67.7089 37.7024C74.0055 34.1215 80.7431 31.3769 87.7344 29.5453C89.5301 29.0749 90.7828 27.4519 90.7828 25.5953V13.0555C90.7828 10.3599 92.9759 8.16681 95.6715 8.16681H122.328C125.024 8.16681 127.217 10.3599 127.217 13.0555V25.5953C127.217 27.4519 128.469 29.0749 130.265 29.5453C137.256 31.3774 143.994 34.122 150.291 37.7024C151.887 38.6105 153.896 38.3399 155.197 37.0403L163.961 28.2757C165.867 26.3695 168.968 26.3695 170.874 28.2757L189.724 47.1247C191.63 49.0308 191.63 52.1326 189.724 54.0387L181.345 62.4173C180.019 63.7436 179.767 65.8027 180.734 67.41C184.575 73.7942 187.541 80.656 189.548 87.8041C190.043 89.566 191.649 90.7834 193.479 90.7834H204.944C207.64 90.7834 209.833 92.9764 209.833 95.672V122.329C209.833 125.024 207.64 127.217 204.944 127.217H194.248C192.365 127.217 190.726 128.505 190.281 130.335C188.454 137.839 185.591 145.05 181.771 151.766C180.863 153.363 181.134 155.372 182.434 156.672L189.724 163.961C191.63 165.867 191.63 168.969 189.724 170.875L170.875 189.724C168.969 191.63 165.868 191.63 163.961 189.724L157.057 182.821C155.731 181.494 153.673 181.242 152.064 182.209C145.261 186.303 137.927 189.396 130.265 191.404C128.469 191.874 127.217 193.497 127.217 195.354V204.945C127.217 207.64 125.024 209.833 122.328 209.833H95.6715C92.9759 209.833 90.7828 207.64 90.7828 204.945V195.354C90.7828 193.497 89.5306 191.874 87.7344 191.404C80.0729 189.396 72.738 186.302 65.9345 182.209C64.3273 181.241 62.2681 181.494 60.9418 182.821L54.0387 189.724C52.132 191.63 49.0314 191.63 47.1247 189.724L44.367 186.967C42.7729 185.372 40.1873 185.372 38.5925 186.967C36.9978 188.561 36.9978 191.147 38.5931 192.742L41.3508 195.499C46.4403 200.589 54.7236 200.589 59.8137 195.499L64.5004 190.812C70.2526 194.005 76.3243 196.564 82.6155 198.449V204.945C82.6155 212.143 88.4722 218 95.6709 218H122.327C129.527 218 135.383 212.143 135.383 204.945V198.449C141.675 196.564 147.746 194.005 153.497 190.812L158.185 195.499C163.275 200.589 171.558 200.589 176.648 195.499L195.498 176.65C200.587 171.56 200.587 163.277 195.498 158.187L190.369 153.058C193.322 147.426 195.676 141.504 197.397 135.384H204.942C212.141 135.384 217.998 129.527 217.998 122.329V95.672C217.999 88.4727 212.143 82.616 204.944 82.616Z" fill="#293340"/>
<path d="M35 113C37.2091 113 39 111.209 39 109C39 106.791 37.2091 105 35 105C32.7909 105 31 106.791 31 109C31 111.209 32.7909 113 35 113Z" fill="#293340"/>
</svg>
