<svg width="26" height="26" viewBox="0 0 26 26" fill="none" xmlns="http://www.w3.org/2000/svg">
<path d="M22.1924 3.80758C19.737 1.35225 16.4724 0 13 0C9.52758 0 6.263 1.35225 3.80758 3.80758C1.35225 6.263 0 9.52758 0 13C0 16.4724 1.35225 19.737 3.80758 22.1924C6.263 24.6477 9.52758 26 13 26C16.4724 26 19.737 24.6477 22.1924 22.1924C24.6477 19.737 26 16.4724 26 13C26 9.52758 24.6477 6.263 22.1924 3.80758ZM21.1151 21.1151C18.9475 23.2828 16.0655 24.4766 13 24.4766C9.93449 24.4766 7.0525 23.2828 4.88485 21.1151C2.7172 18.9475 1.52344 16.0655 1.52344 13C1.52344 9.93449 2.7172 7.0525 4.88485 4.88485C7.0525 2.7172 9.93449 1.52344 13 1.52344C16.0655 1.52344 18.9475 2.7172 21.1151 4.88485C23.2828 7.0525 24.4766 9.93449 24.4766 13C24.4766 16.0655 23.2828 18.9475 21.1151 21.1151Z" fill="#293340"/>
<path d="M16.2117 9.78699V5.30225H9.78666V9.78699H5.30191V16.212H9.78666V20.6967H16.2117V16.212H20.6964V9.78699H16.2117ZM19.173 14.6886H14.6883V19.1733H11.3101V14.6886H6.8254V11.3104H11.3101V6.82568H14.6883V11.3104H19.173V14.6886Z" fill="#293340"/>
</svg>
