<svg width="116" height="116" viewBox="0 0 116 116" fill="none" xmlns="http://www.w3.org/2000/svg">
<path d="M47.5174 0.0779984C19.9839 5.14453 0 29.3201 0 57.5626C0 89.7849 26.0184 116 57.9997 116C89.981 116 116 89.7849 116 57.5626C116 29.2904 95.9915 5.10985 68.4236 0.0669867C66.1945 -0.339811 64.0642 1.14812 63.6599 3.39184C63.2556 5.63555 64.733 7.78404 66.9594 8.19139C90.6263 12.5208 107.805 33.2841 107.805 57.5626C107.805 85.232 85.4622 107.743 57.9997 107.743C30.5373 107.743 8.19529 85.232 8.19529 57.5626C8.19529 33.3099 25.3519 12.55 48.9898 8.20074C51.2157 7.79119 52.6908 5.64106 52.2843 3.39734C51.8778 1.15417 49.7411 -0.331001 47.5174 0.0779984Z" fill="#293340"/>
</svg>
