<svg width="26" height="26" viewBox="0 0 26 26" fill="none" xmlns="http://www.w3.org/2000/svg">
<g clip-path="url(#clip0)">
<path d="M7.32967 7.53101H8.85275V9.05444H7.32967V7.53101Z" fill="#293340"/>
<path d="M24.3658 8.05791C25.3102 7.77212 26 6.89401 26 5.85746C26 4.58996 24.9688 3.5587 23.7012 3.5587H23.6066C23.3 3.5587 23.0506 3.30926 23.0506 3.00264C23.0506 2.69602 23.3 2.44659 23.6066 2.44659V0.923148C22.46 0.923148 21.5271 1.856 21.5271 3.00264C21.5271 4.14928 22.46 5.08213 23.6066 5.08213H23.7012C24.1287 5.08213 24.4766 5.42993 24.4766 5.85746C24.4766 6.28499 24.1288 6.63279 23.7012 6.63279H23.1783C21.4662 4.94218 19.1155 3.8968 16.525 3.8968H12.2963C11.9321 1.70884 10.0258 0.0356445 7.73612 0.0356445H6.59709V2.81008C6.59709 5.29785 4.57316 7.32179 2.08538 7.32179H0V14.0641H0.761719C2.60401 14.0641 4.10287 15.5629 4.10287 17.4052V25.9648H10.2531V22.8469H14.9694C15.9537 24.6999 17.9039 25.9648 20.1444 25.9648C23.3732 25.9648 26 23.3379 26 20.1091C26 19.0385 25.711 18.0342 25.2072 17.1698C25.733 15.9716 26 14.6956 26 13.3718C26 11.4039 25.3967 9.57434 24.3658 8.05791ZM8.72965 21.3234V24.3829H5.62631V17.4052C5.62631 14.9818 3.84536 12.9667 1.52344 12.6001V8.84523H2.08533C5.41313 8.84523 8.12048 6.13787 8.12048 2.81008V1.5828C9.64874 1.77277 10.8355 3.07968 10.8355 4.65852V5.42023H16.5249C20.9094 5.42023 24.4765 8.98731 24.4765 13.3718C24.4765 14.2065 24.3503 15.0182 24.1008 15.7963C23.0579 14.8388 21.6683 14.2534 20.1443 14.2534C16.9155 14.2534 14.2886 16.8803 14.2886 20.1091C14.2886 20.5254 14.3326 20.9315 14.4156 21.3234H8.72965ZM20.1444 24.4413C17.7556 24.4413 15.8121 22.4979 15.8121 20.1091C15.8121 17.7203 17.7556 15.7768 20.1444 15.7768C22.5332 15.7768 24.4766 17.7203 24.4766 20.1091C24.4766 22.4979 22.5331 24.4413 20.1444 24.4413Z" fill="#293340"/>
<path d="M18.697 8.97553L19.3744 7.61094C18.4831 7.16864 17.5245 6.94434 16.525 6.94434H13.8158V8.46777H16.525C17.2875 8.46777 18.0182 8.6386 18.697 8.97553Z" fill="#293340"/>
<path d="M20.9257 20.3559V17.3647H19.4022V20.3559L18.4255 19.3792L17.3483 20.4564L20.164 23.272L22.9796 20.4564L21.9024 19.3792L20.9257 20.3559Z" fill="#293340"/>
</g>
<defs>
<clipPath id="clip0">
<rect width="26" height="26" fill="white"/>
</clipPath>
</defs>
</svg>
