<svg width="26" height="26" viewBox="0 0 26 26" fill="none" xmlns="http://www.w3.org/2000/svg">
<g clip-path="url(#clip0)">
<path d="M24.3885 9.92376C24.371 9.9036 24.3561 9.88396 24.3354 9.86433L23.4243 8.98507C24.1799 8.81368 24.9934 8.18063 24.9934 7.53113C24.9934 6.77445 23.9433 6.50595 23.047 6.50595C22.1099 6.50595 22.0011 7.14802 21.99 7.60171L19.6393 5.33537C19.1617 4.86257 18.2559 4.4906 17.5788 4.4906H13.0005H12.9995H8.4201C7.74354 4.4906 6.83828 4.86257 6.36018 5.33537L4.01 7.60171C3.9978 7.14802 3.88902 6.50595 2.95298 6.50595C2.05568 6.50595 1.00608 6.77445 1.00608 7.53113C1.00608 8.18063 1.82007 8.81368 2.5757 8.98507L1.6646 9.86433C1.6439 9.88396 1.62958 9.9036 1.61154 9.92376C0.636761 10.7569 0 12.3021 0 13.4233V16.7551C0 17.5638 0.318911 18.2977 0.834156 18.8448V20.1369C0.834156 20.8925 1.46667 21.5086 2.24458 21.5086H3.95004C4.72795 21.5086 5.35993 20.8936 5.35993 20.1369V19.8063H12.9995H13.0005H20.6395V20.1369C20.6395 20.8936 21.271 21.5086 22.05 21.5086H23.7549C24.5333 21.5086 25.1648 20.8925 25.1648 20.1369V18.8448C25.6806 18.2977 25.9989 17.5638 25.9989 16.7551V13.4233C26 12.3021 25.3632 10.7569 24.3885 9.92376ZM7.22352 6.34251C7.5541 6.06711 8.13196 5.85804 8.4201 5.85804H12.9995H13.0005H17.5799C17.868 5.85804 18.4459 6.06711 18.7765 6.34251L21.8589 9.32998H13.0005H12.9995H4.1416L7.22352 6.34251ZM1.05755 12.9192C1.05755 12.0988 1.69962 11.4329 2.49239 11.4329C3.28462 11.4329 5.87359 12.9526 5.87359 13.773C5.87359 14.5933 3.28462 14.4034 2.49239 14.4034C1.69962 14.4034 1.05755 13.7401 1.05755 12.9192ZM5.36046 18.3455H5.08719H4.81391L3.19282 18.3481C2.74285 18.208 2.42553 18.0446 2.20107 17.8689C2.08751 17.7803 2.00049 17.688 1.93257 17.5962C1.86412 17.5033 1.81424 17.4121 1.78187 17.3208C1.58023 16.7509 1.99678 16.2272 1.99678 16.2272H4.7635L6.60798 18.3444L5.36046 18.3455ZM16.9782 18.3465H13.0005H12.9995H9.02184C8.19246 18.3465 7.51908 17.6731 7.51908 16.8443H12.9995H13.0005H18.4809C18.4809 17.6742 17.8075 18.3465 16.9782 18.3465ZM17.3273 15.8191H13.0005H12.9995H8.67268C7.7706 15.8191 7.03833 14.7069 7.03833 13.3352H12.9995H13.0005H18.9617C18.9617 14.7074 18.2294 15.8191 17.3273 15.8191ZM24.2187 17.3219C24.1858 17.4131 24.1359 17.5044 24.0674 17.5967C24 17.6885 23.913 17.7809 23.7989 17.8695C23.575 18.0451 23.2572 18.2096 22.8072 18.3486L21.1861 18.346H20.9128H20.6395H19.391L21.2365 16.2288H24.0027C24.0027 16.2282 24.4198 16.7509 24.2187 17.3219ZM23.5076 14.4034C22.7159 14.4034 20.1269 14.5923 20.1269 13.773C20.1269 12.9537 22.7159 11.4329 23.5076 11.4329C24.3004 11.4329 24.9424 12.0988 24.9424 12.9192C24.9424 13.739 24.3004 14.4034 23.5076 14.4034Z" fill="#293340"/>
</g>
<defs>
<clipPath id="clip0">
<rect width="25.9995" height="26" fill="white"/>
</clipPath>
</defs>
</svg>
