<svg width="96" height="96" viewBox="0 0 96 96" fill="none" xmlns="http://www.w3.org/2000/svg">
<path d="M88.4454 34.5467H82.9163C82.6857 33.9731 82.4407 33.4051 82.182 32.8425L86.1121 28.9125C89.0569 25.9676 89.0569 21.1762 86.1121 18.2314L77.7676 9.88683C74.8217 6.94148 70.0313 6.94148 67.0859 9.88683L62.9412 14.0321C62.4485 13.8191 61.9526 13.6165 61.4523 13.4244V7.553C61.4523 3.38845 58.0644 0 53.8993 0H42.0986C37.934 0 34.5456 3.38845 34.5456 7.553V13.4244C34.0452 13.616 33.5487 13.8186 33.0572 14.0321L28.9119 9.88683C25.966 6.94203 21.1762 6.94258 18.2308 9.88683L9.88628 18.2314C6.94148 21.1762 6.94148 25.9676 9.88628 28.9125L13.8163 32.842C13.5571 33.404 13.3122 33.9726 13.0815 34.5461H7.55244C3.38844 34.5461 0 37.934 0 42.0991V53.9003C0 58.0649 3.38789 61.4528 7.55244 61.4528H12.6516C12.9043 62.1441 13.1768 62.8289 13.469 63.5042L9.88628 67.087C8.46012 68.5137 7.67409 70.4105 7.67409 72.4278C7.67409 74.4451 8.46012 76.3419 9.88628 77.7686L18.2308 86.1132C21.1767 89.0574 25.9666 89.058 28.9119 86.1132L32.2789 82.7462C33.0242 83.0891 33.7805 83.4078 34.5456 83.7012V88.447C34.5456 92.6115 37.9335 96 42.0986 96H53.8993C58.0638 96 61.4523 92.6115 61.4523 88.447V83.7012C62.2179 83.4078 62.9742 83.0891 63.7189 82.7462L67.0859 86.1132C70.0318 89.0585 74.8222 89.0585 77.7676 86.1132L86.1121 77.7686C89.0569 74.8238 89.0569 70.0323 86.1121 67.0875L82.5288 63.5048C82.8216 62.8289 83.0941 62.1452 83.3462 61.4533H88.4454C92.6099 61.4533 95.9984 58.0654 95.9984 53.9009V42.0997C95.9984 37.9346 92.6105 34.5467 88.4454 34.5467ZM87.7419 53.1963H80.3282C78.4633 53.1963 76.8302 54.4464 76.3431 56.2468C75.7657 58.383 74.9433 60.4538 73.9003 62.4017C73.0399 64.0057 73.3327 65.9834 74.6197 67.2703L79.7766 72.4273L72.4268 79.7772L67.4332 74.7831C66.1194 73.4692 64.091 73.1957 62.475 74.1127C60.4863 75.2422 58.3671 76.1361 56.1769 76.7702C54.4112 77.281 53.1958 78.8976 53.1958 80.736V87.743H42.802V80.736C42.802 78.8981 41.5867 77.2815 39.8214 76.7702C37.6307 76.1361 35.511 75.2422 33.5229 74.1127C31.9079 73.1957 29.879 73.4692 28.5646 74.7831L23.5716 79.7766L16.2217 72.4273L21.3782 67.2703C22.6645 65.9834 22.9568 64.0062 22.0981 62.4023C21.054 60.4521 20.2311 58.3808 19.6548 56.2468C19.1676 54.4464 17.534 53.1963 15.6696 53.1963H8.25646V42.8031H15.9938C17.8048 42.8031 19.4043 41.6224 19.9388 39.8919C20.5591 37.8801 21.404 35.9271 22.4498 34.0876C23.3674 32.4721 23.0928 30.4426 21.7794 29.1293L16.2223 23.5727L23.5722 16.2234L29.2912 21.9429C30.5781 23.2298 32.5563 23.5221 34.1597 22.6629C35.9602 21.6985 37.8658 20.9219 39.8225 20.356C41.5878 19.8452 42.8031 18.2286 42.8031 16.3902V8.25645H53.1969V16.3891C53.1969 18.2269 54.4123 19.8436 56.178 20.3549C58.1348 20.9208 60.0399 21.6969 61.8398 22.6612C63.4443 23.5204 65.4214 23.2282 66.7089 21.9413L72.4284 16.2217L79.7783 23.5716L74.2211 29.1282C72.9078 30.4415 72.6332 32.4704 73.5507 34.0859C74.596 35.9266 75.4409 37.8801 76.0612 39.8913C76.5957 41.6224 78.1953 42.8026 80.0062 42.8026H87.7441V53.1963H87.7419Z" fill="#293340" fill-opacity="0.5"/>
<path d="M48 33C39.7287 33 33 39.7287 33 48C33 56.2713 39.7287 63 48 63C56.2713 63 63.0005 56.2707 63.0005 48C63.0005 39.7293 56.2713 33 48 33ZM48 54.8957C44.198 54.8957 41.1043 51.802 41.1043 48C41.1043 44.198 44.198 41.1043 48 41.1043C51.8025 41.1043 54.8962 44.1975 54.8962 48C54.8962 51.8025 51.8025 54.8957 48 54.8957Z" fill="#293340" fill-opacity="0.5"/>
</svg>
