<svg width="26" height="26" viewBox="0 0 26 26" fill="none" xmlns="http://www.w3.org/2000/svg">
<g clip-path="url(#clip0)">
<path d="M25.6657 3.3299C25.5794 3.27059 23.4905 1.87866 18.3736 1.87866C13.2566 1.87866 11.1675 3.27059 11.081 3.3299C10.8723 3.47312 10.7475 3.70996 10.7475 3.96308V5.4883C9.58016 5.71959 8.0226 6.18278 6.09073 7.0891C1.45833 9.26258 0.158253 11.4101 0.105091 11.5003C-0.0230524 11.7187 -0.0355494 11.9861 0.0719641 12.2154L3.19243 18.8662C4.72619 22.1353 7.99087 24.1258 11.4654 24.1258C12.2351 24.1258 13.0152 24.0282 13.7889 23.8251C13.7912 23.8245 13.7936 23.8239 13.796 23.8231H13.7962C13.8839 23.7991 13.9668 23.7599 14.0406 23.7071C15.4008 22.7347 16.4237 21.4469 17.0684 20.005C17.4459 20.1272 17.8351 20.2262 18.2344 20.2996C18.2574 20.3039 18.2804 20.3071 18.3038 20.3091H18.304C18.327 20.3113 18.3502 20.3123 18.3735 20.3123C18.4201 20.3123 18.4665 20.3081 18.5123 20.2996C22.8507 19.5014 25.9994 15.7205 25.9994 11.3095V3.96308C25.9994 3.70996 25.8746 3.47312 25.6657 3.3299ZM4.58237 18.214L1.65769 11.9802C2.16748 11.3758 3.59729 9.95507 6.74276 8.47924C9.88881 7.00341 11.8949 6.81199 12.6854 6.80643L15.61 13.0402C17.1488 16.32 16.1595 20.2216 13.262 22.3747C9.75413 23.2267 6.12108 21.4937 4.58237 18.214ZM24.4638 11.3095C24.4638 14.9324 21.9111 18.0444 18.3735 18.7627C18.1015 18.7075 17.8353 18.6379 17.5756 18.5552C17.9446 17.1256 17.9686 15.6067 17.6125 14.1314C18.5645 13.8674 19.6283 14.1082 20.3751 14.8551C20.5251 15.005 20.7217 15.08 20.9181 15.08C21.1144 15.08 21.311 15.005 21.461 14.8551C21.7607 14.5553 21.7607 14.0694 21.461 13.7694C20.2898 12.5985 18.6137 12.2329 17.1271 12.6729C17.0863 12.5777 17.0444 12.4826 17 12.388L15.755 9.73429C16.3751 9.72914 16.9575 9.48574 17.3965 9.04656C17.6962 8.74684 17.6962 8.26064 17.3965 7.96092C17.0968 7.66119 16.6106 7.66119 16.3109 7.96092C16.1571 8.11465 15.9528 8.19935 15.7354 8.19935C15.5182 8.19935 15.3139 8.11465 15.1601 7.96092C15.0653 7.8663 14.9521 7.80163 14.8321 7.76672L13.8797 5.73725C13.7722 5.50794 13.5588 5.34667 13.309 5.30561C13.2717 5.29946 12.9262 5.24729 12.2829 5.28438V4.42229C12.995 4.0936 14.8896 3.414 18.3736 3.414C21.8482 3.414 23.7458 4.09301 24.4638 4.42368V11.3095Z" fill="#293340"/>
<path d="M21.3387 9.73514C21.9663 9.73514 22.5562 9.49096 23 9.04722C23.2997 8.74729 23.2997 8.2613 23 7.96137C22.7001 7.66164 22.2141 7.66164 21.9141 7.96137C21.7604 8.1151 21.5561 8.1998 21.3389 8.1998C21.1215 8.1998 20.9172 8.1151 20.7634 7.96137C20.4637 7.66164 19.9775 7.66164 19.6776 7.96137C19.3779 8.2613 19.3779 8.74729 19.6776 9.04722C20.1213 9.49096 20.7113 9.73514 21.3387 9.73514Z" fill="#293340"/>
<path d="M8.48422 14.4899C8.62843 14.0912 8.42194 13.651 8.02322 13.507C7.43289 13.2938 6.79514 13.3231 6.22703 13.5897C5.65891 13.8563 5.22866 14.328 5.01541 14.9182C4.8714 15.3169 5.0779 15.7571 5.47661 15.9011C5.5627 15.9322 5.65078 15.9469 5.73746 15.9469C6.05167 15.9469 6.34664 15.7525 6.45951 15.4399C6.5333 15.2356 6.68247 15.0721 6.87925 14.9797C7.07603 14.8874 7.29701 14.8773 7.50132 14.9511C7.90004 15.0951 8.34021 14.8888 8.48422 14.4899Z" fill="#293340"/>
<path d="M10.5495 13.522C10.6358 13.553 10.7237 13.5679 10.8104 13.5679C11.1246 13.5679 11.4195 13.3735 11.5324 13.0608C11.6064 12.8563 11.7554 12.6929 11.9521 12.6006C12.1489 12.5082 12.3699 12.4981 12.5742 12.5721C12.9731 12.7161 13.4131 12.5096 13.5573 12.1109C13.7013 11.712 13.4948 11.272 13.0961 11.128C11.8778 10.6878 10.5285 11.3208 10.0883 12.5389C9.94429 12.9379 10.1508 13.3778 10.5495 13.522Z" fill="#293340"/>
<path d="M13.933 16.5323C14.077 16.1336 13.8705 15.6936 13.4718 15.5494C13.0731 15.4052 12.6329 15.6117 12.4889 16.0106C11.9583 17.4787 10.3321 18.2414 8.86419 17.7112C8.46527 17.5669 8.0253 17.7734 7.88129 18.1722C7.73707 18.5711 7.94357 19.011 8.34229 19.1553C8.83066 19.3316 9.33015 19.4153 9.82189 19.4153C11.6098 19.4153 13.2913 18.3082 13.933 16.5323Z" fill="#293340"/>
</g>
<defs>
<clipPath id="clip0">
<rect width="26" height="26" fill="white"/>
</clipPath>
</defs>
</svg>
