<svg width="26" height="26" viewBox="0 0 26 26" fill="none" xmlns="http://www.w3.org/2000/svg">
<g clip-path="url(#clip0)">
<path d="M21.0792 12.7045C23.7438 10.309 23.9621 6.20684 21.5665 3.54215C19.3694 1.09818 15.6919 0.682996 13.0052 2.57564C10.0764 0.508672 6.02663 1.20733 3.95966 4.13607C2.06304 6.82345 2.47655 10.5048 4.92209 12.7044C1.88344 14.3062 -0.0130652 17.4641 0.00070004 20.899V23.6847C0.00070004 24.1976 0.416433 24.6133 0.929285 24.6133H25.072C25.5849 24.6133 26.0006 24.1976 26.0006 23.6847V20.899C26.0143 17.4641 24.1178 14.3062 21.0792 12.7045ZM16.7148 3.25629C19.2754 3.25346 21.3535 5.3269 21.3564 7.88746C21.3584 9.71362 20.2883 11.3708 18.6231 12.1204C18.5516 12.1528 18.4801 12.1826 18.4077 12.2132C18.1785 12.3057 17.9421 12.3792 17.701 12.4333C17.6546 12.4435 17.6081 12.4491 17.5608 12.4584C17.2914 12.51 17.018 12.5377 16.7436 12.541C16.6201 12.541 16.4957 12.5317 16.3722 12.5206C16.3258 12.5206 16.2793 12.5206 16.2329 12.5113C15.7051 12.4492 15.1917 12.2979 14.7147 12.0638C14.6971 12.0554 14.6766 12.0563 14.659 12.0489C14.5661 12.0044 14.4733 11.9654 14.3906 11.9152C14.3981 11.9059 14.4027 11.8957 14.4101 11.8864C14.8359 11.3393 15.1716 10.7277 15.4046 10.0748L15.4334 9.99676C15.5393 9.68489 15.6216 9.36551 15.6795 9.04124C15.6878 8.99391 15.6943 8.94837 15.7018 8.89733C15.7555 8.56724 15.7837 8.23355 15.7863 7.8991C15.7836 7.56531 15.7554 7.23222 15.7018 6.90273C15.6943 6.85447 15.6878 6.80985 15.6795 6.75882C15.6216 6.4346 15.5393 6.11517 15.4334 5.8033L15.4046 5.72528C15.1716 5.07232 14.8359 4.46078 14.4101 3.91365C14.4027 3.90434 14.398 3.89417 14.3906 3.88486C15.0961 3.47332 15.8981 3.25634 16.7148 3.25629ZM4.64352 7.89916C4.63693 5.34164 6.70483 3.26303 9.26234 3.25645C10.4612 3.25335 11.6145 3.71533 12.4797 4.54516C12.5336 4.59718 12.5865 4.64914 12.6385 4.703C12.7979 4.87009 12.945 5.04855 13.0786 5.23691C13.1195 5.29447 13.1567 5.35579 13.1947 5.41521C13.3245 5.61494 13.4384 5.82452 13.5355 6.04199C13.5587 6.09493 13.5763 6.14879 13.5967 6.20168C13.6946 6.44221 13.7716 6.69075 13.827 6.94451C13.8336 6.97237 13.8354 7.00023 13.841 7.02901C13.9586 7.60557 13.9586 8.19998 13.841 8.77655C13.8354 8.80533 13.8335 8.83318 13.827 8.86104C13.7717 9.1148 13.6947 9.36334 13.5967 9.60388C13.5763 9.65682 13.5586 9.71068 13.5355 9.76356C13.4383 9.98071 13.3243 10.19 13.1947 10.3894C13.1566 10.4488 13.1195 10.5102 13.0786 10.5677C12.9451 10.7561 12.7979 10.9345 12.6385 11.1016C12.5865 11.1555 12.5335 11.2075 12.4797 11.2595C12.1038 11.6177 11.6703 11.9103 11.1974 12.1249C11.1222 12.1592 11.046 12.1908 10.969 12.2178C10.7451 12.3066 10.5148 12.378 10.28 12.4313C10.2215 12.4443 10.1611 12.4517 10.1017 12.4619C9.84957 12.5089 9.5939 12.5346 9.33748 12.539H9.23535C8.97893 12.5347 8.72326 12.5089 8.47114 12.4619C8.41172 12.4517 8.35133 12.4443 8.29284 12.4313C8.05801 12.378 7.82765 12.3066 7.60387 12.2178C7.52677 12.1871 7.45065 12.1556 7.37546 12.1249C5.71416 11.3748 4.64564 9.72189 4.64352 7.89916ZM16.7148 22.7562H1.85782V20.8991C1.84421 17.7525 3.82674 14.9431 6.79591 13.9014C8.38985 14.565 10.1828 14.565 11.7768 13.9014C12.0868 14.0147 12.3889 14.1484 12.6812 14.3016C12.8743 14.401 13.0526 14.5143 13.2383 14.6285C13.3591 14.7037 13.4816 14.7771 13.5977 14.8597C13.7769 14.9869 13.9459 15.1253 14.1121 15.2673C14.2189 15.3602 14.3248 15.453 14.425 15.5459C14.5782 15.6907 14.7221 15.844 14.8605 16.0009C14.9599 16.1142 15.0564 16.2293 15.1484 16.3482C15.27 16.5042 15.3861 16.6639 15.4938 16.8283C15.5867 16.9675 15.6693 17.1124 15.751 17.2573C15.8439 17.417 15.9293 17.5767 16.0073 17.7429C16.0853 17.9091 16.154 18.0911 16.2208 18.2685C16.2793 18.4226 16.3416 18.5758 16.3898 18.7328C16.4548 18.9482 16.5003 19.171 16.5458 19.3939C16.5737 19.5257 16.6099 19.6548 16.6303 19.7885C16.6853 20.1561 16.7135 20.5273 16.7148 20.8991V22.7562H16.7148ZM24.1434 22.7562H18.572V20.8991C18.572 20.6084 18.5553 20.3206 18.5293 20.0355C18.5219 19.9519 18.5089 19.8693 18.4996 19.7857C18.4745 19.5805 18.4457 19.3772 18.4067 19.1756C18.39 19.0896 18.3724 19.0032 18.3538 18.9165C18.3092 18.7098 18.2575 18.5049 18.1987 18.3018C18.1792 18.235 18.1616 18.1672 18.1412 18.1013C17.8811 17.2701 17.5044 16.4801 17.0223 15.7548L16.986 15.7019C16.8263 15.4648 16.6558 15.2355 16.4744 15.0138L16.4679 15.0055C16.2822 14.7752 16.0807 14.5514 15.869 14.3397C15.881 14.3397 15.894 14.3397 15.9071 14.3397C16.1691 14.3741 16.433 14.3927 16.6973 14.3954H16.7484C16.993 14.3933 17.2372 14.3774 17.4801 14.3481C17.5562 14.3388 17.6315 14.3248 17.7076 14.3127C17.9051 14.2824 18.1001 14.2431 18.2926 14.1948C18.3474 14.1809 18.4031 14.1679 18.4588 14.1521C18.7114 14.0834 18.9595 13.999 19.2016 13.8996C22.173 14.9402 24.1573 17.7509 24.1435 20.8991V22.7562H24.1434Z" fill="#293340"/>
</g>
<defs>
<clipPath id="clip0">
<rect width="26" height="26" fill="white"/>
</clipPath>
</defs>
</svg>
