<svg width="26" height="26" viewBox="0 0 26 26" fill="none" xmlns="http://www.w3.org/2000/svg">
<g clip-path="url(#clip0)">
<path d="M23.3426 4.21019L13.3894 0.0777603C13.1401 -0.0257319 12.8598 -0.0257827 12.6106 0.0777603L2.65743 4.21019C2.27835 4.36761 2.03125 4.7377 2.03125 5.14817V10.1717C2.03125 17.0888 6.21202 23.3108 12.6162 25.9248C12.8622 26.0252 13.1378 26.0252 13.3838 25.9248C19.7879 23.3109 23.9688 17.0888 23.9688 10.1717V5.14817C23.9688 4.7377 23.7217 4.36761 23.3426 4.21019ZM21.9375 10.1717C21.9375 16.0519 18.4844 21.465 13 23.8813C7.66218 21.5296 4.0625 16.2113 4.0625 10.1717V5.8262L13 2.11541L21.9375 5.8262V10.1717ZM11.8774 13.5951L16.2428 9.22976C16.6394 8.83316 17.2824 8.83311 17.6791 9.22976C18.0757 9.62641 18.0757 10.2695 17.679 10.6661L12.5956 15.7495C12.1989 16.1462 11.5558 16.1461 11.1593 15.7495L8.32091 12.9111C7.92426 12.5145 7.92426 11.8715 8.32091 11.4749C8.71757 11.0782 9.36061 11.0782 9.75721 11.4749L11.8774 13.5951Z" fill="#293340"/>
</g>
<defs>
<clipPath id="clip0">
<rect width="26" height="26" fill="white"/>
</clipPath>
</defs>
</svg>
