<svg width="26" height="26" viewBox="0 0 26 26" fill="none" xmlns="http://www.w3.org/2000/svg">
<g clip-path="url(#clip0)">
<path d="M18.8508 9.21639L21.5907 6.47654L15.1141 0L6.48298 8.63115L7.06827 9.21644H3.08165V26H22.9168V9.21644H18.8508V9.21639ZM15.1141 2.15781L19.4329 6.47659L13.6415 12.268H12.2776L8.64074 8.6311L15.1141 2.15781ZM21.391 24.4742H4.60743V16.8453H21.391V24.4742ZM4.60743 15.3195V10.7422H8.59405L10.1198 12.268H7.659V13.7937H18.3395V12.268H15.7993L17.325 10.7422H21.391V15.3195H4.60743Z" fill="#293340"/>
<path d="M16.7373 7.00778L15.6493 5.93811L12.9843 8.64881L11.8826 7.58392L10.8221 8.68096L13.0116 10.7973L16.7373 7.00778Z" fill="#293340"/>
</g>
<defs>
<clipPath id="clip0">
<rect width="26" height="26" fill="white"/>
</clipPath>
</defs>
</svg>
