<svg width="26" height="26" viewBox="0 0 26 26" fill="none" xmlns="http://www.w3.org/2000/svg">
<path d="M13.0658 0.000203125C13.0649 0.000203125 13.0641 0.000203125 13.0631 0.000152343C13.059 0.000152343 13.0549 0 13.0508 0C13.0501 0 13.0495 0 13.0489 0C13.0473 0 13.0456 5.07812e-05 13.044 5.07812e-05C5.87975 0.00370702 0 5.80185 0 12.9492C0 14.6969 0.348105 16.3989 1.03472 18.0079C2.36402 21.1232 4.87006 23.633 7.99199 24.9652C9.60084 25.6517 11.3026 25.9998 13.05 25.9999C13.0505 25.9999 13.051 26 13.0514 26C13.0526 26 13.0538 25.9999 13.055 25.9998C20.2431 25.9976 26 20.0751 26 12.9492C26 5.80297 20.2232 0.00827733 13.0658 0.000203125ZM10.5278 1.79984C9.22876 3.03138 8.16739 4.47377 7.36814 6.09374H3.83474C5.45522 3.9589 7.81202 2.40322 10.5278 1.79984ZM2.85827 7.60702H6.71718C6.18433 9.06682 5.86929 10.6228 5.78798 12.1875H1.54969C1.65922 10.5458 2.12006 8.98791 2.85827 7.60702ZM2.88696 18.3828C2.13083 16.9741 1.65943 15.3911 1.54928 13.7109H5.78281C5.85552 15.3103 6.17291 16.8914 6.71728 18.3828H2.88696ZM3.86592 19.9062H7.36814C8.16586 21.5232 9.22577 22.9651 10.5244 24.1969C7.82725 23.5914 5.48472 22.0382 3.86592 19.9062ZM7.30847 13.7109H12.289V18.3828H8.3599C7.75164 16.9173 7.39018 15.34 7.30847 13.7109ZM12.2891 23.7206C10.994 22.6423 9.92015 21.3474 9.10354 19.9062H12.289V23.7206H12.2891ZM12.2891 12.1875H7.3136C7.40496 10.5943 7.76434 9.05215 8.36 7.61717H12.2891V12.1875ZM12.2891 6.09374H9.10364C9.9202 4.65257 10.994 3.35765 12.2891 2.27926V6.09374ZM23.1534 7.61717C23.8852 8.99806 24.3419 10.5458 24.4505 12.1875H20.3135C20.2322 10.6228 19.9171 9.07698 19.3843 7.61717H23.1534ZM22.1856 6.09374H18.7334C17.9363 4.47803 16.8776 3.03727 15.5805 1.80613C18.2601 2.41419 20.5851 3.96652 22.1856 6.09374ZM13.8125 2.27957C15.1076 3.35795 16.1818 4.65257 16.9984 6.09374H13.8125V2.27957ZM13.8125 7.61717H17.7425C18.3381 9.05204 18.6967 10.5944 18.788 12.1875H13.8125V7.61717ZM18.7935 13.7008C18.7118 15.3298 18.3507 16.9174 17.7425 18.3828H13.8125V13.7008H18.7935ZM13.8125 23.7204V19.8961H16.9984C16.1818 21.3372 15.1076 22.6419 13.8125 23.7204ZM15.584 24.1905C16.8784 22.9611 17.9365 21.5115 18.7334 19.8961H22.1546C20.556 22.0202 18.2452 23.5804 15.584 24.1905ZM19.3843 18.3828C19.9287 16.8914 20.2461 15.3002 20.3188 13.7008H24.451C24.3418 15.381 23.8746 16.9741 23.1251 18.3828H19.3843Z" fill="#293340"/>
</svg>
