<svg width="26" height="26" viewBox="0 0 26 26" fill="none" xmlns="http://www.w3.org/2000/svg">
<g clip-path="url(#clip0)">
<path d="M25.1879 11.3742C24.7394 11.3742 24.3754 11.7382 24.3754 12.1867V21.3868L17.8758 23.9867V15.4365C17.8758 14.988 17.5119 14.624 17.0634 14.624C16.6149 14.624 16.2509 14.988 16.2509 15.4365V23.9851L9.75134 21.3852V8.51276L13.5162 10.019C13.9273 10.1848 14.4051 9.9833 14.5724 9.5657C14.7398 9.14972 14.5367 8.67688 14.1191 8.50951L9.25575 6.56288C9.25575 6.56288 9.25575 6.56288 9.25412 6.56288L9.24113 6.55801C9.04776 6.48001 8.83165 6.48001 8.63829 6.55801L8.62366 6.56288C8.62366 6.56288 8.62366 6.56288 8.62204 6.56288L0.512171 9.80781C0.205065 9.9313 0.00195312 10.2287 0.00195312 10.5618V25.1859C0.00195312 25.4556 0.13682 25.7074 0.359431 25.8586C0.495922 25.9512 0.653537 25.9983 0.814402 25.9983C0.916771 25.9983 1.01914 25.9788 1.11663 25.9398L8.93889 22.8119L16.7465 25.9349C16.7465 25.9349 16.7465 25.9349 16.7482 25.9349L16.7628 25.9414C16.9561 26.0194 17.1723 26.0194 17.3656 25.9414L17.3802 25.9349C17.3802 25.9349 17.3802 25.9349 17.3819 25.9349L25.4917 22.6916C25.7972 22.5665 26.0003 22.2692 26.0003 21.9361V12.1867C26.0003 11.7382 25.6364 11.3742 25.1879 11.3742ZM8.12645 21.3852L1.62685 23.9851V11.111L8.12645 8.51114V21.3852Z" fill="#DCFF00"/>
<path d="M20.3123 3.25C18.9686 3.25 17.875 4.34356 17.875 5.68735C17.875 7.03114 18.9686 8.1247 20.3123 8.1247C21.6561 8.1247 22.7497 7.03114 22.7497 5.68735C22.7497 4.34356 21.6561 3.25 20.3123 3.25ZM20.3123 6.4998C19.8639 6.4998 19.4999 6.13582 19.4999 5.68735C19.4999 5.23888 19.8639 4.8749 20.3123 4.8749C20.7608 4.8749 21.1248 5.23888 21.1248 5.68735C21.1248 6.13582 20.7608 6.4998 20.3123 6.4998Z" fill="#DCFF00"/>
<path d="M20.3121 0C17.1761 0 14.625 2.55109 14.625 5.68714C14.625 8.60546 19.1877 13.7743 19.7077 14.3544C19.862 14.525 20.0814 14.6241 20.3121 14.6241C20.5429 14.6241 20.7622 14.525 20.9166 14.3544C21.4366 13.7743 25.9993 8.60546 25.9993 5.68714C25.9993 2.55109 23.4482 0 20.3121 0ZM20.3121 12.5718C18.5378 10.4676 16.2499 7.2373 16.2499 5.68714C16.2499 3.44803 18.073 1.6249 20.3121 1.6249C22.5513 1.6249 24.3744 3.44803 24.3744 5.68714C24.3744 7.23567 22.0865 10.4676 20.3121 12.5718Z" fill="#DCFF00"/>
</g>
<defs>
<clipPath id="clip0">
<rect width="26" height="26" fill="white"/>
</clipPath>
</defs>
</svg>
