<svg width="26" height="26" viewBox="0 0 26 26" fill="none" xmlns="http://www.w3.org/2000/svg">
<path d="M13.7617 16.7042C14.6374 16.4891 15.2852 15.9254 15.2852 15.2776C15.2852 14.6298 14.6374 14.0661 13.7617 13.8511V16.7042Z" fill="#DCFF00"/>
<path d="M13 4.62109C8.37987 4.62109 4.62109 8.37987 4.62109 13C4.62109 17.6201 8.37987 21.3789 13 21.3789C17.6201 21.3789 21.3789 17.6201 21.3789 13C21.3789 8.37987 17.6201 4.62109 13 4.62109ZM16.8086 15.2777C16.8086 16.7494 15.498 17.9799 13.7617 18.263V19.0938C13.7617 19.5148 13.421 19.8555 13 19.8555C12.579 19.8555 12.2383 19.5148 12.2383 19.0938V18.263C10.502 17.9799 9.19141 16.7494 9.19141 15.2777C9.19141 14.8567 9.5321 14.516 9.95312 14.516C10.3742 14.516 10.7148 14.8567 10.7148 15.2777C10.7148 15.9256 11.3626 16.4892 12.2383 16.7043V13.6927C10.502 13.4096 9.19141 12.1791 9.19141 10.7074C9.19141 9.23579 10.502 8.00526 12.2383 7.7222V6.89884C12.2383 6.47781 12.579 6.13712 13 6.13712C13.421 6.13712 13.7617 6.47781 13.7617 6.89884V7.7222C15.498 8.00526 16.8086 9.23579 16.8086 10.7074C16.8086 11.1285 16.4679 11.4691 16.0469 11.4691C15.6258 11.4691 15.2852 11.1285 15.2852 10.7074C15.2852 10.0596 14.6374 9.49594 13.7617 9.28088V12.2925C15.498 12.5755 16.8086 13.8061 16.8086 15.2777Z" fill="#DCFF00"/>
<path d="M12.2383 9.28076C11.3626 9.49582 10.7148 10.0595 10.7148 10.7073C10.7148 11.3551 11.3626 11.9188 12.2383 12.1339V9.28076Z" fill="#DCFF00"/>
<path d="M13 0C5.85965 0 0 5.85965 0 13C0 20.1404 5.85965 26 13 26C20.1404 26 26 20.1404 26 13C26 5.85965 20.1404 0 13 0ZM13 22.9023C7.54 22.9023 3.09766 18.46 3.09766 13C3.09766 7.54 7.54 3.09766 13 3.09766C18.46 3.09766 22.9023 7.54 22.9023 13C22.9023 18.46 18.46 22.9023 13 22.9023Z" fill="#DCFF00"/>
</svg>
