<svg width="40" height="40" viewBox="0 0 40 40" fill="none" xmlns="http://www.w3.org/2000/svg">
<path d="M18.2727 14.8182H25.1818C25.6399 14.8182 26.0793 14.6362 26.4032 14.3123C26.7271 13.9883 26.9091 13.549 26.9091 13.0909C26.9091 12.6328 26.7271 12.1935 26.4032 11.8695C26.0793 11.5456 25.6399 11.3636 25.1818 11.3636H21.7273V9.63636C21.7273 9.17826 21.5453 8.73892 21.2214 8.415C20.8974 8.09107 20.4581 7.90909 20 7.90909C19.5419 7.90909 19.1026 8.09107 18.7786 8.415C18.4547 8.73892 18.2727 9.17826 18.2727 9.63636V11.3636C16.8984 11.3636 15.5804 11.9096 14.6086 12.8814C13.6369 13.8531 13.0909 15.1711 13.0909 16.5455C13.0909 17.9198 13.6369 19.2378 14.6086 20.2096C15.5804 21.1813 16.8984 21.7273 18.2727 21.7273H21.7273C22.1854 21.7273 22.6247 21.9092 22.9486 22.2332C23.2726 22.5571 23.4545 22.9964 23.4545 23.4545C23.4545 23.9126 23.2726 24.352 22.9486 24.6759C22.6247 24.9998 22.1854 25.1818 21.7273 25.1818H14.8182C14.3601 25.1818 13.9207 25.3638 13.5968 25.6877C13.2729 26.0116 13.0909 26.451 13.0909 26.9091C13.0909 27.3672 13.2729 27.8065 13.5968 28.1305C13.9207 28.4544 14.3601 28.6364 14.8182 28.6364H18.2727V30.3636C18.2727 30.8217 18.4547 31.2611 18.7786 31.585C19.1026 31.9089 19.5419 32.0909 20 32.0909C20.4581 32.0909 20.8974 31.9089 21.2214 31.585C21.5453 31.2611 21.7273 30.8217 21.7273 30.3636V28.6364C23.1016 28.6364 24.4196 28.0904 25.3914 27.1186C26.3632 26.1469 26.9091 24.8288 26.9091 23.4545C26.9091 22.0802 26.3632 20.7622 25.3914 19.7904C24.4196 18.8187 23.1016 18.2727 21.7273 18.2727H18.2727C17.8146 18.2727 17.3753 18.0907 17.0514 17.7668C16.7274 17.4429 16.5455 17.0036 16.5455 16.5455C16.5455 16.0874 16.7274 15.648 17.0514 15.3241C17.3753 15.0002 17.8146 14.8182 18.2727 14.8182V14.8182ZM20 1C16.2422 1 12.5687 2.11433 9.44417 4.20208C6.31964 6.28982 3.88436 9.25722 2.4463 12.729C1.00823 16.2008 0.631969 20.0211 1.36509 23.7067C2.09821 27.3923 3.90778 30.7778 6.56498 33.435C9.22218 36.0922 12.6077 37.9018 16.2933 38.6349C19.9789 39.368 23.7992 38.9918 27.271 37.5537C30.7428 36.1156 33.7102 33.6804 35.7979 30.5558C37.8857 27.4313 39 23.7578 39 20C39 14.9609 36.9982 10.1282 33.435 6.56497C29.8718 3.00178 25.0391 1 20 1V1ZM20 35.5454C16.9254 35.5454 13.9198 34.6337 11.3634 32.9256C8.80698 31.2174 6.81448 28.7895 5.63788 25.949C4.46128 23.1084 4.15343 19.9828 4.75325 16.9672C5.35308 13.9517 6.83364 11.1818 9.00771 9.0077C11.1818 6.83363 13.9517 5.35307 16.9672 4.75325C19.9828 4.15342 23.1084 4.46127 25.949 5.63787C28.7895 6.81447 31.2174 8.80697 32.9256 11.3634C34.6337 13.9198 35.5455 16.9254 35.5455 20C35.5455 24.1229 33.9076 28.077 30.9923 30.9923C28.077 33.9076 24.1229 35.5454 20 35.5454V35.5454Z" fill="#595959"/>
</svg>
