<svg width="40" height="40" viewBox="0 0 40 40" fill="none" xmlns="http://www.w3.org/2000/svg">
<path d="M21.15 26.802H11.25C10.8124 26.802 10.3927 26.9811 10.0833 27.2998C9.77385 27.6186 9.60001 28.0509 9.60001 28.5017C9.60001 28.9525 9.77385 29.3848 10.0833 29.7035C10.3927 30.0223 10.8124 30.2014 11.25 30.2014H21.15C21.5876 30.2014 22.0073 30.0223 22.3167 29.7035C22.6262 29.3848 22.8 28.9525 22.8 28.5017C22.8 28.0509 22.6262 27.6186 22.3167 27.2998C22.0073 26.9811 21.5876 26.802 21.15 26.802ZM14.55 16.6041H17.85C18.2876 16.6041 18.7073 16.425 19.0167 16.1062C19.3262 15.7875 19.5 15.3552 19.5 14.9044C19.5 14.4536 19.3262 14.0213 19.0167 13.7025C18.7073 13.3838 18.2876 13.2047 17.85 13.2047H14.55C14.1124 13.2047 13.6927 13.3838 13.3833 13.7025C13.0738 14.0213 12.9 14.4536 12.9 14.9044C12.9 15.3552 13.0738 15.7875 13.3833 16.1062C13.6927 16.425 14.1124 16.6041 14.55 16.6041ZM34.35 20.0034H29.4V4.70642C29.4012 4.40692 29.3255 4.11243 29.1806 3.85276C29.0357 3.59308 28.8268 3.37746 28.575 3.22771C28.3242 3.07854 28.0396 3 27.75 3C27.4604 3 27.1758 3.07854 26.925 3.22771L21.975 6.15113L17.025 3.22771C16.7742 3.07854 16.4896 3 16.2 3C15.9104 3 15.6258 3.07854 15.375 3.22771L10.425 6.15113L5.47501 3.22771C5.22418 3.07854 4.93965 3 4.65001 3C4.36038 3 4.07584 3.07854 3.82501 3.22771C3.57322 3.37746 3.3643 3.59308 3.21943 3.85276C3.07455 4.11243 2.99886 4.40692 3.00001 4.70642V31.901C3.00001 33.2533 3.52153 34.5503 4.44983 35.5065C5.37814 36.4628 6.63719 37 7.95001 37H31.05C32.3628 37 33.6219 36.4628 34.5502 35.5065C35.4785 34.5503 36 33.2533 36 31.901V21.703C36 21.2523 35.8262 20.8199 35.5167 20.5012C35.2073 20.1824 34.7876 20.0034 34.35 20.0034ZM7.95001 33.6007C7.5124 33.6007 7.09272 33.4216 6.78329 33.1029C6.47385 32.7841 6.30001 32.3518 6.30001 31.901V7.64683L9.60001 9.58445C9.85467 9.72146 10.1377 9.79302 10.425 9.79302C10.7123 9.79302 10.9954 9.72146 11.25 9.58445L16.2 6.66103L21.15 9.58445C21.4047 9.72146 21.6877 9.79302 21.975 9.79302C22.2623 9.79302 22.5453 9.72146 22.8 9.58445L26.1 7.64683V31.901C26.1045 32.4808 26.2049 33.0556 26.397 33.6007H7.95001ZM32.7 31.901C32.7 32.3518 32.5262 32.7841 32.2167 33.1029C31.9073 33.4216 31.4876 33.6007 31.05 33.6007C30.6124 33.6007 30.1927 33.4216 29.8833 33.1029C29.5738 32.7841 29.4 32.3518 29.4 31.901V23.4027H32.7V31.901ZM21.15 20.0034H11.25C10.8124 20.0034 10.3927 20.1824 10.0833 20.5012C9.77385 20.8199 9.60001 21.2523 9.60001 21.703C9.60001 22.1538 9.77385 22.5861 10.0833 22.9049C10.3927 23.2236 10.8124 23.4027 11.25 23.4027H21.15C21.5876 23.4027 22.0073 23.2236 22.3167 22.9049C22.6262 22.5861 22.8 22.1538 22.8 21.703C22.8 21.2523 22.6262 20.8199 22.3167 20.5012C22.0073 20.1824 21.5876 20.0034 21.15 20.0034Z" fill="#595959"/>
</svg>
