<svg id="Capa_1" fill="#fff" enable-background="new 0 0 512.001 512.001" height="512" viewBox="0 0 512.001 512.001" width="512" xmlns="http://www.w3.org/2000/svg"><g id="XMLID_1725_"><g id="XMLID_25_"><path id="XMLID_259_" d="m466.441 52.65-208-52.347c-1.602-.404-3.279-.404-4.881 0l-208 52.347c-4.445 1.118-7.56 5.114-7.56 9.697v168.045c0 32.347 5.311 64.195 15.783 94.664 10.216 29.72 25.104 57.466 44.251 82.468 19.146 25.003 42.053 46.608 68.082 64.218 26.685 18.053 56.049 31.482 87.277 39.913.854.23 1.729.346 2.606.346s1.753-.115 2.606-.346c31.229-8.432 60.593-21.86 87.277-39.913 26.029-17.609 48.935-39.215 68.082-64.218 19.147-25.002 34.035-52.748 44.251-82.468 10.475-30.469 15.785-62.317 15.785-94.664v-168.045c0-4.583-3.115-8.579-7.559-9.697zm-12.441 177.742c0 121.44-81.283 228.473-198 261.236-116.717-32.763-198-139.795-198-261.236v-160.25l198-49.83 198 49.83z"/><path id="XMLID_695_" d="m253.56 51.78-158.081 39.789c-4.443 1.118-7.559 5.114-7.559 9.697v129.127c0 50.966 15.832 99.819 45.784 141.277 29.84 41.302 71.033 71.626 119.127 87.693 1.028.344 2.099.516 3.169.516s2.141-.172 3.169-.516c82.076-27.421 143.514-97.251 160.337-182.241 1.072-5.417-2.45-10.679-7.868-11.751-5.417-1.075-10.679 2.449-11.751 7.868-15.214 76.856-70.203 140.198-143.888 166.069-88.715-31.117-148.079-114.648-148.079-208.915v-121.332l148.08-37.272 148.08 37.262v76.342c0 5.523 4.478 10 10 10s10-4.477 10-10v-84.138c0-4.583-3.115-8.579-7.56-9.697l-158.079-39.778c-1.603-.404-3.281-.404-4.881 0z"/><path id="XMLID_707_" d="m150 248.591c0 58.448 47.552 106 106 106s106-47.552 106-106-47.552-106-106-106-106 47.552-106 106zm131.363 14.417 12.042 37.062-31.526-22.905c-1.753-1.273-3.815-1.91-5.878-1.91s-4.125.637-5.878 1.91l-31.526 22.905 12.042-37.062c1.339-4.12-.128-8.634-3.633-11.18l-31.526-22.905h38.969c4.332 0 8.172-2.79 9.511-6.91l12.04-37.061 12.042 37.062c1.339 4.12 5.179 6.91 9.511 6.91h38.969l-31.526 22.905c-3.506 2.546-4.972 7.059-3.633 11.179zm-39.511-99.233-14.67 45.148h-47.449c12.273-23.5 35.077-40.65 62.119-45.148zm-71.852 84.816c0-4.338.33-8.599.953-12.766l38.418 27.913-14.656 45.109c-15.271-15.529-24.715-36.806-24.715-60.256zm47.605 76.92 38.395-27.895 38.395 27.896c-11.566 5.797-24.601 9.08-38.395 9.08-13.794-.001-26.829-3.284-38.395-9.081zm99.68-16.664-14.656-45.109 38.418-27.913c.623 4.167.953 8.428.953 12.766 0 23.45-9.444 44.727-24.715 60.256zm14.983-99.924h-47.449l-14.67-45.148c27.042 4.498 49.845 21.648 62.119 45.148z"/><path id="XMLID_713_" d="m414.08 220.39c-2.641 0-5.21 1.07-7.07 2.93s-2.93 4.441-2.93 7.07c0 2.63 1.069 5.21 2.93 7.07 1.86 1.87 4.44 2.93 7.07 2.93s5.21-1.059 7.069-2.93c1.86-1.86 2.931-4.441 2.931-7.07 0-2.63-1.07-5.21-2.931-7.07-1.859-1.859-4.439-2.93-7.069-2.93z"/></g></g></svg>