<svg width="24" height="24" viewBox="0 0 24 24" fill="none" xmlns="http://www.w3.org/2000/svg">
<g opacity="0.9">
<path d="M7.44256 12.6336C5.84675 12.6336 4.54846 13.9319 4.54846 15.5277C4.54846 17.1235 5.84671 18.4218 7.44256 18.4218C9.03842 18.4218 10.3367 17.1235 10.3367 15.5277C10.3366 13.9319 9.03832 12.6336 7.44256 12.6336ZM7.44256 17.0155C6.62221 17.0155 5.9548 16.3481 5.9548 15.5277C5.9548 14.7073 6.62221 14.04 7.44256 14.04C8.26292 14.04 8.93032 14.7074 8.93032 15.5277C8.93028 16.3481 8.26287 17.0155 7.44256 17.0155Z" fill="white"/>
<path d="M16.5573 12.6336C14.9615 12.6336 13.6632 13.9319 13.6632 15.5277C13.6632 17.1235 14.9615 18.4218 16.5573 18.4218C18.1532 18.4218 19.4514 17.1235 19.4514 15.5277C19.4514 13.9319 18.1531 12.6336 16.5573 12.6336ZM16.5573 17.0155C15.737 17.0155 15.0695 16.3481 15.0695 15.5277C15.0695 14.7073 15.737 14.04 16.5573 14.04C17.3777 14.04 18.0451 14.7074 18.0451 15.5277C18.0451 16.3481 17.3777 17.0155 16.5573 17.0155Z" fill="white"/>
<path d="M22.4258 10.4257C22.4258 7.64089 21.3413 5.02274 19.3721 3.05357C17.403 1.0844 14.7849 0 12 0C9.21519 0 6.59713 1.08445 4.62796 3.05362C2.65879 5.02279 1.57434 7.64089 1.57434 10.4257C1.57434 11.741 1.81556 13.0206 2.29171 14.2328C2.1854 14.6553 2.13159 15.0898 2.13159 15.5282C2.13159 18.2865 4.24513 20.5604 6.93786 20.8153V24H17.0622V20.8153C19.755 20.5604 21.8685 18.2864 21.8685 15.5281C21.8685 15.0898 21.8147 14.6552 21.7084 14.2328C22.1845 13.0205 22.4258 11.7409 22.4258 10.4257ZM20.2941 14.3943C20.4056 14.7609 20.4621 15.1424 20.4621 15.5281C20.4621 17.6811 18.7105 19.4327 16.5575 19.4327C16.5066 19.4327 16.4514 19.4315 16.3888 19.4288L15.6558 19.3977V22.5937H14.8826V21.2995H13.4763V22.5937H12.7031V21.2995H11.2969V22.5937H10.5237V21.2995H9.11736V22.5937H8.34416V19.3977L7.61117 19.4288C7.5486 19.4315 7.49338 19.4327 7.44252 19.4327C5.28951 19.4327 3.53788 17.6811 3.53788 15.5281C3.53788 15.1424 3.59442 14.761 3.70588 14.3943L3.77976 14.1514L3.68137 13.9173C3.21637 12.8109 2.98054 11.6361 2.98054 10.4257C2.98054 5.70379 6.62811 1.81828 11.2534 1.43747L10.3451 2.59312L11.7141 4.02468L9.78804 5.74536L11.0056 6.96289L9.76372 8.20475L10.7581 9.19915L11.9999 7.9573L13.2418 9.19915L14.2362 8.20475L11.8344 5.80297L13.7359 4.10418L12.2047 2.50293L13.021 1.46451C17.5153 1.97329 21.0193 5.79768 21.0193 10.4258C21.0193 11.6362 20.7835 12.811 20.3185 13.9174L20.2201 14.1515L20.2941 14.3943Z" fill="white"/>
<path d="M12.7032 17.4267H11.2969V19.489H12.7032V17.4267Z" fill="white"/>
</g>
</svg>
