<svg width="40" height="40" viewBox="0 0 40 40" fill="none" xmlns="http://www.w3.org/2000/svg">
<path d="M21.1719 25.6989C22.5191 25.3681 23.5156 24.5009 23.5156 23.5042C23.5156 22.5076 22.5191 21.6404 21.1719 21.3096V25.6989Z" fill="#B6D300"/>
<path d="M20 7.10938C12.8921 7.10938 7.10938 12.8921 7.10938 20C7.10938 27.1079 12.8921 32.8906 20 32.8906C27.1079 32.8906 32.8906 27.1079 32.8906 20C32.8906 12.8921 27.1079 7.10938 20 7.10938ZM25.8594 23.5042C25.8594 25.7683 23.843 27.6614 21.1719 28.0969V29.375C21.1719 30.0227 20.6477 30.5469 20 30.5469C19.3523 30.5469 18.8281 30.0227 18.8281 29.375V28.0969C16.157 27.6614 14.1406 25.7683 14.1406 23.5042C14.1406 22.8565 14.6648 22.3323 15.3125 22.3323C15.9602 22.3323 16.4844 22.8565 16.4844 23.5042C16.4844 24.5009 17.4809 25.368 18.8281 25.6989V21.0656C16.157 20.6302 14.1406 18.737 14.1406 16.473C14.1406 14.2089 16.157 12.3158 18.8281 11.8803V10.6136C18.8281 9.96586 19.3523 9.44172 20 9.44172C20.6477 9.44172 21.1719 9.96586 21.1719 10.6136V11.8803C23.843 12.3158 25.8594 14.2089 25.8594 16.473C25.8594 17.1207 25.3352 17.6448 24.6875 17.6448C24.0398 17.6448 23.5156 17.1207 23.5156 16.473C23.5156 15.4763 22.5191 14.6091 21.1719 14.2783V18.9116C23.843 19.347 25.8594 21.2401 25.8594 23.5042Z" fill="#B6D300"/>
<path d="M18.8281 14.2782C17.4809 14.6091 16.4844 15.4763 16.4844 16.4729C16.4844 17.4695 17.4809 18.3367 18.8281 18.6676V14.2782Z" fill="#B6D300"/>
<path d="M20 0C9.01484 0 0 9.01484 0 20C0 30.9852 9.01484 40 20 40C30.9852 40 40 30.9852 40 20C40 9.01484 30.9852 0 20 0ZM20 35.2344C11.6 35.2344 4.76562 28.4 4.76562 20C4.76562 11.6 11.6 4.76562 20 4.76562C28.4 4.76562 35.2344 11.6 35.2344 20C35.2344 28.4 28.4 35.2344 20 35.2344Z" fill="#B6D300"/>
</svg>
