<svg width="80" height="80" viewBox="0 0 80 80" fill="none" xmlns="http://www.w3.org/2000/svg">
<path d="M28.8875 52.9542C28.9382 49.1247 30.9339 45.7576 33.931 43.7965L18.941 35.9426C18.8052 38.8648 17.1313 41.3911 14.7122 42.7298L28.8875 52.9542Z" fill="white"/>
<path d="M40.0003 41.6844L61.0332 30.6644L56.5742 26.2053H23.4265L18.9675 30.6644L40.0003 41.6844ZM37.6565 30.7142H42.344V35.4017H37.6565V30.7142Z" fill="white"/>
<path d="M61.059 35.9426L46.069 43.7965C49.0662 45.7578 51.0618 49.1247 51.1124 52.9542L65.2877 42.7298C62.8687 41.3911 61.1948 38.8648 61.059 35.9426Z" fill="white"/>
<path d="M28.304 80H51.6969C53.6293 80 55.2013 78.4278 55.2013 76.4955V69.6766L66.8977 57.9801V47.3484L47.2419 61.5258C45.2951 63.202 42.7649 64.2187 40.0004 64.2187C37.2358 64.2187 34.7057 63.202 32.7588 61.5258L13.103 47.3484V57.98L24.7994 69.6764V76.4955C24.7994 78.4278 26.3715 80 28.304 80ZM37.6566 70.2344H42.3441V74.9219H37.6566V70.2344Z" fill="white"/>
<path d="M29.5874 15.4464H50.4133V21.5178H29.5874V15.4464Z" fill="white"/>
<path d="M40.0004 46.6741C36.4555 46.6741 33.5718 49.558 33.5718 53.1027C33.5718 56.6473 36.4555 59.5312 40.0004 59.5312C43.5452 59.5312 46.429 56.6473 46.429 53.1027C46.429 49.558 43.5452 46.6741 40.0004 46.6741ZM42.3441 55.1619H37.6566V50.4744H42.3441V55.1619Z" fill="white" fill-opacity="0.5"/>
<path d="M10.759 27.3661C12.1668 27.3661 13.4925 27.7233 14.651 28.3514L21.0621 21.9403L15.1652 16.0434C12.4441 13.3222 8.07192 13.2344 5.2438 15.7792L9.60098 20.1363L6.28645 23.4508L1.92676 19.0911C-0.696517 21.9161 -0.635579 26.3475 2.1127 29.0958L3.98036 30.9634C5.45551 28.7941 7.94348 27.3661 10.759 27.3661Z" fill="white"/>
<path d="M78.0734 19.0911L73.7135 23.4508L70.399 20.1363L74.7562 15.7792C71.9281 13.2344 67.5559 13.3222 64.8348 16.0434L58.9379 21.9403L65.349 28.3514C66.5075 27.7233 67.8332 27.3661 69.241 27.3661C72.0565 27.3661 74.5445 28.7941 76.0196 30.9636L77.8873 29.0959C80.6356 26.3477 80.6965 21.9161 78.0734 19.0911Z" fill="white"/>
<path d="M24.5948 0H55.405V10.7589H24.5948V0Z" fill="white"/>
<path d="M69.2411 32.0536C67.3088 32.0536 65.7366 33.6256 65.7366 35.558C65.7366 37.4903 67.3088 39.0625 69.2411 39.0625C71.1734 39.0625 72.7455 37.4903 72.7455 35.558C72.7455 33.6256 71.1734 32.0536 69.2411 32.0536Z" fill="white" fill-opacity="0.5"/>
<path d="M7.25476 35.558C7.25476 37.4903 8.82679 39.0625 10.7591 39.0625C12.6915 39.0625 14.2637 37.4903 14.2637 35.558C14.2637 33.6256 12.6915 32.0536 10.7591 32.0536C8.82679 32.0536 7.25476 33.6256 7.25476 35.558Z" fill="white" fill-opacity="0.5"/>
</svg>
