<svg width="18" height="18" viewBox="0 0 18 18" fill="none" xmlns="http://www.w3.org/2000/svg">
<g clip-path="url(#clip0_30:229)">
<path d="M12.8571 3.21436H1.92857C0.863449 3.21436 0 4.07781 0 5.14293V16.0715C0 17.1366 0.863449 18 1.92857 18H12.8571C13.9222 18 14.7857 17.1366 14.7857 16.0715V5.14293C14.7857 4.07781 13.9222 3.21436 12.8571 3.21436Z" fill="white"/>
<path d="M16.0713 1.24529e-09H4.49986C3.4405 -3.76661e-05 2.57943 0.854447 2.57129 1.91377C2.57129 1.91893 2.57129 1.92341 2.57129 1.92857H12.857C14.6313 1.93068 16.0692 3.36852 16.0713 5.14284V15.4286C16.0764 15.4286 16.0809 15.4286 16.0861 15.4286C17.1454 15.4204 17.9999 14.5593 17.9998 13.5V1.92857C17.9998 0.86345 17.1364 1.24529e-09 16.0713 1.24529e-09Z" fill="white"/>
</g>
<defs>
<clipPath id="clip0_30:229">
<rect width="18" height="18" fill="white"/>
</clipPath>
</defs>
</svg>
