<svg width="26" height="26" viewBox="0 0 26 26" fill="none" xmlns="http://www.w3.org/2000/svg">
<path d="M13.0002 12.7157C15.8909 12.7157 18.2346 9.86923 18.2346 6.35789C18.2346 2.84648 17.4651 0 13.0002 0C8.53522 0 7.76562 2.84648 7.76562 6.35789C7.76562 9.86923 10.1093 12.7157 13.0002 12.7157Z" fill="white"/>
<path d="M3.11334 22.4233C3.11244 22.2091 3.11155 22.3629 3.11334 22.4233V22.4233Z" fill="white"/>
<path d="M22.8862 22.5907C22.889 22.5321 22.8872 22.1841 22.8862 22.5907V22.5907Z" fill="white"/>
<path d="M22.8755 22.1667C22.7786 16.0499 21.9797 14.3069 15.8665 13.2036C15.8665 13.2036 15.006 14.3001 13.0003 14.3001C10.9946 14.3001 10.1339 13.2036 10.1339 13.2036C4.08741 14.2949 3.23996 16.012 3.12853 21.968C3.11939 22.4543 3.11516 22.4799 3.11353 22.4234C3.1139 22.5292 3.11434 22.7249 3.11434 23.0661C3.11434 23.0661 4.56975 26.0001 13.0003 26.0001C21.4307 26.0001 22.8862 23.0661 22.8862 23.0661C22.8862 22.8469 22.8864 22.6944 22.8866 22.5907C22.885 22.6257 22.8817 22.558 22.8755 22.1667Z" fill="white"/>
</svg>
