<svg width="1397" height="200" viewBox="0 0 1397 200" fill="none" xmlns="http://www.w3.org/2000/svg">
<path d="M-4.304 39.528C-4.304 22.7547 -0.258666 9.92799 7.832 1.04798C15.9227 -8.02934 27.8613 -12.568 43.648 -12.568C59.4347 -12.568 71.3733 -8.02934 79.464 1.04798C87.5547 9.92799 91.6 22.7547 91.6 39.528V46.04H60.816V37.456C60.816 23.84 55.3893 17.032 44.536 17.032C33.6827 17.032 28.256 23.84 28.256 37.456C28.256 43.1787 29.44 48.6053 31.808 53.736C34.176 58.8667 37.2347 63.504 40.984 67.648C44.7333 71.792 48.8773 75.936 53.416 80.08C57.9547 84.0267 62.3947 88.2693 66.736 92.808C71.2747 97.1493 75.4187 101.885 79.168 107.016C82.9173 111.949 85.976 117.869 88.344 124.776C90.712 131.683 91.896 139.181 91.896 147.272C91.896 164.045 87.752 176.971 79.464 186.048C71.176 194.928 59.1387 199.368 43.352 199.368C27.5653 199.368 15.528 194.928 7.24 186.048C-1.048 176.971 -5.192 164.045 -5.192 147.272V134.544H25.592V149.344C25.592 162.763 31.216 169.472 42.464 169.472C53.712 169.472 59.336 162.763 59.336 149.344C59.336 141.648 57.1653 134.445 52.824 127.736C48.4827 120.829 43.1547 114.613 36.84 109.088C30.7227 103.563 24.5067 97.84 18.192 91.92C11.8773 85.8027 6.54933 78.304 2.208 69.424C-2.13333 60.3467 -4.304 50.3813 -4.304 39.528ZM151.991 19.4V77.12H196.687V106.72H151.991V167.4H208.231V197H119.431V-10.2H208.231V19.4H151.991ZM237.287 197V-10.2H269.847V167.4H323.424V197H237.287ZM379.032 19.4V77.12H423.728V106.72H379.032V167.4H435.272V197H346.472V-10.2H435.272V19.4H379.032ZM527.969 119.744H558.753V147.272C558.753 164.045 554.609 176.971 546.321 186.048C538.033 194.928 525.995 199.368 510.209 199.368C494.422 199.368 482.385 194.928 474.097 186.048C465.809 176.971 461.665 164.045 461.665 147.272V39.528C461.665 22.7547 465.809 9.92799 474.097 1.04798C482.385 -8.02934 494.422 -12.568 510.209 -12.568C525.995 -12.568 538.033 -8.02934 546.321 1.04798C554.609 9.92799 558.753 22.7547 558.753 39.528V59.656H527.969V37.456C527.969 23.84 522.345 17.032 511.097 17.032C499.849 17.032 494.225 23.84 494.225 37.456V149.344C494.225 162.763 499.849 169.472 511.097 169.472C522.345 169.472 527.969 162.763 527.969 149.344V119.744ZM577.916 19.4V-10.2H678.556V19.4H644.516V197H611.956V19.4H577.916ZM752.473 39.528C752.473 22.7547 756.518 9.92799 764.609 1.04798C772.7 -8.02934 784.638 -12.568 800.425 -12.568C816.212 -12.568 828.15 -8.02934 836.241 1.04798C844.332 9.92799 848.377 22.7547 848.377 39.528V46.04H817.593V37.456C817.593 23.84 812.166 17.032 801.313 17.032C790.46 17.032 785.033 23.84 785.033 37.456C785.033 43.1787 786.217 48.6053 788.585 53.736C790.953 58.8667 794.012 63.504 797.761 67.648C801.51 71.792 805.654 75.936 810.193 80.08C814.732 84.0267 819.172 88.2693 823.513 92.808C828.052 97.1493 832.196 101.885 835.945 107.016C839.695 111.949 842.753 117.869 845.121 124.776C847.489 131.683 848.673 139.181 848.673 147.272C848.673 164.045 844.529 176.971 836.241 186.048C827.953 194.928 815.916 199.368 800.129 199.368C784.342 199.368 772.305 194.928 764.017 186.048C755.729 176.971 751.585 164.045 751.585 147.272V134.544H782.369V149.344C782.369 162.763 787.993 169.472 799.241 169.472C810.489 169.472 816.113 162.763 816.113 149.344C816.113 141.648 813.942 134.445 809.601 127.736C805.26 120.829 799.932 114.613 793.617 109.088C787.5 103.563 781.284 97.84 774.969 91.92C768.654 85.8027 763.326 78.304 758.985 69.424C754.644 60.3467 752.473 50.3813 752.473 39.528ZM924.16 -10.2C956.523 -10.2 972.704 6.86932 972.704 41.008V67.944C972.704 102.083 956.523 119.152 924.16 119.152H908.768V197H876.208V-10.2H924.16ZM924.16 19.4H908.768V89.552H924.16C929.488 89.552 933.435 88.072 936 85.112C938.763 82.152 940.144 77.12 940.144 70.016V38.936C940.144 31.832 938.763 26.8 936 23.84C933.435 20.88 929.488 19.4 924.16 19.4ZM1065.13 -10.2L1098.28 197H1065.43L1059.8 159.408H1019.84L1014.22 197H984.324L1017.48 -10.2H1065.13ZM1039.68 26.504L1023.99 131.288H1055.36L1039.68 26.504ZM1202.06 197L1190.22 86.592L1178.38 197H1133.68L1110.59 -10.2H1142.26L1159.73 153.192L1175.42 -10.2H1206.79L1223.07 154.376L1239.94 -10.2H1268.36L1245.27 197H1202.06ZM1363.22 197L1322.67 46.928V197H1293.36V-10.2H1334.21L1367.66 113.824V-10.2H1396.67V197H1363.22Z" fill="url(#paint0_linear)"/>
<defs>
<linearGradient id="paint0_linear" x1="-12" y1="123" x2="1838" y2="116" gradientUnits="userSpaceOnUse">
<stop stop-color="white" stop-opacity="0.08"/>
<stop offset="1" stop-color="white" stop-opacity="0"/>
</linearGradient>
</defs>
</svg>
