<svg width="23" height="23" viewBox="0 0 23 23" fill="none" xmlns="http://www.w3.org/2000/svg">
<path fill-rule="evenodd" clip-rule="evenodd" d="M10.5243 3.04987C10.3533 3.13537 10.2566 3.25756 10.2239 3.42939C10.2022 3.54337 10.205 6.55934 10.2269 6.66489C10.2557 6.80336 10.3601 6.94737 10.474 7.00576C10.5888 7.06463 10.6349 7.07387 10.8816 7.08753C11.1834 7.10421 11.532 7.14215 11.7043 7.17703C11.859 7.20832 12.3067 7.32523 12.3814 7.35383C12.4295 7.37222 12.51 7.4019 12.5603 7.41978C12.6555 7.45363 12.7924 7.51213 13.0162 7.61454C13.2779 7.73436 13.8524 8.10313 14.008 8.25118C14.0207 8.26331 14.0721 8.30685 14.1222 8.34792C14.2396 8.44425 14.558 8.7626 14.6543 8.87995C14.6954 8.93001 14.7389 8.98139 14.7511 8.99414C14.8992 9.14967 15.268 9.72403 15.3879 9.98571C15.4903 10.2094 15.5488 10.3463 15.5827 10.4415C15.6005 10.4918 15.6302 10.5723 15.6486 10.6203C15.6772 10.695 15.7942 11.1427 15.8255 11.2973C15.8604 11.4696 15.8983 11.8181 15.915 12.1198C15.9286 12.3664 15.9379 12.4125 15.9968 12.5274C16.0552 12.6412 16.1992 12.7456 16.3377 12.7743C16.4433 12.7963 19.4599 12.7991 19.5739 12.7774C19.7801 12.7382 19.9313 12.5949 19.988 12.3851C20.0177 12.2751 19.9888 11.537 19.9401 11.1643C19.902 10.8724 19.8663 10.6341 19.8504 10.5662C19.8461 10.5479 19.8338 10.4881 19.8231 10.4332C19.8124 10.3784 19.7898 10.2737 19.7729 10.2006C19.756 10.1275 19.7385 10.049 19.7339 10.0261C19.6979 9.84847 19.4747 9.13126 19.4027 8.96215C19.3892 8.93045 19.3616 8.86338 19.3413 8.81312C19.225 8.52517 18.9577 7.96274 18.8438 7.76628C18.8094 7.70688 18.7486 7.60219 18.7087 7.53365C18.4929 7.1627 17.9404 6.39602 17.7626 6.22095C17.7394 6.1981 17.6869 6.13847 17.6458 6.08842C17.5492 5.97057 17.0322 5.4537 16.9143 5.35706C16.8642 5.31602 16.8046 5.26346 16.7817 5.24028C16.6084 5.06436 15.8373 4.50826 15.4771 4.29944C15.4131 4.26235 15.3084 4.20155 15.2444 4.16436C15.0421 4.04677 14.4834 3.78079 14.189 3.66197C14.1387 3.64168 14.0717 3.61403 14.04 3.60054C13.8708 3.52855 13.1534 3.30538 12.9758 3.26947C12.9529 3.26485 12.8744 3.24729 12.8013 3.23044C12.7281 3.21359 12.6234 3.19099 12.5686 3.18024C12.5137 3.1695 12.4539 3.15721 12.4356 3.15294C12.3674 3.13704 12.1265 3.10094 11.8373 3.06331C11.6146 3.03433 11.272 3.0125 10.9398 3.00608L10.624 3L10.5243 3.04987ZM8.78752 4.76729C8.6367 4.80632 8.46094 4.85707 8.39695 4.88009C8.33296 4.9031 8.19086 4.95268 8.08117 4.99027C7.97148 5.02786 7.81442 5.08915 7.73215 5.12647C7.50348 5.23021 6.96612 5.49802 6.82636 5.57791C6.54482 5.73884 5.92522 6.17951 5.72884 6.35848C5.69652 6.38795 5.62939 6.44569 5.57964 6.48681C5.47741 6.57136 5.08099 6.96414 5.00911 7.05214C4.98314 7.08393 4.9179 7.15858 4.86414 7.21804C4.62876 7.47833 4.30984 7.92184 4.06323 8.33177C3.94118 8.53469 3.69166 9.02845 3.6185 9.21191C3.59844 9.26218 3.56389 9.34318 3.5417 9.39193C3.49122 9.50283 3.264 10.1855 3.23659 10.3086C3.2254 10.3589 3.20277 10.4598 3.18631 10.5329C3.16984 10.606 3.14757 10.7107 3.13682 10.7656C3.12608 10.8204 3.11367 10.8802 3.10926 10.8985C3.10486 10.9168 3.09374 10.9878 3.08458 11.0563C3.07541 11.1249 3.06067 11.2296 3.05182 11.289C3.02455 11.4722 2.9997 11.978 3 12.3441C3.00037 12.7751 3.02985 13.1718 3.08649 13.5073C3.0973 13.5712 3.11184 13.661 3.11882 13.7067C3.13659 13.8231 3.20534 14.1151 3.26749 14.3381C3.3094 14.4885 3.49104 15.0341 3.52767 15.1196C3.67158 15.4555 3.86428 15.8604 3.95243 16.0122C3.98826 16.0739 4.04904 16.1786 4.08748 16.2448C4.25937 16.541 4.72413 17.1848 4.86425 17.3207C4.8878 17.3436 4.94065 17.4032 4.98171 17.4533C5.07804 17.5708 5.4295 17.9222 5.547 18.0185C5.59706 18.0595 5.65673 18.1123 5.67958 18.1359C5.81467 18.2751 6.46036 18.7413 6.75157 18.91C6.81556 18.947 6.92026 19.0078 6.98425 19.045C7.13955 19.1353 7.54092 19.3265 7.88122 19.4722C7.96676 19.5088 8.51244 19.6904 8.66287 19.7323C8.88595 19.7945 9.17798 19.8632 9.29443 19.881C9.34014 19.8879 9.42989 19.9025 9.49387 19.9133C10.0893 20.0138 11.0575 20.029 11.696 19.948C11.9286 19.9185 12.0699 19.8986 12.1032 19.8905C12.1215 19.8861 12.1813 19.8737 12.2362 19.863C12.291 19.8522 12.3957 19.8299 12.4689 19.8135C12.542 19.797 12.6429 19.7744 12.6932 19.7632C12.8163 19.7358 13.4992 19.5086 13.6101 19.4582C13.6588 19.436 13.7399 19.4014 13.7901 19.3814C14.1214 19.2493 14.6644 18.9541 15.0533 18.6948C15.24 18.5702 15.7158 18.2065 15.7845 18.1358C15.8074 18.1123 15.8671 18.0595 15.9171 18.0185C16.0327 17.9237 16.4175 17.5395 16.5158 17.4207C16.557 17.3709 16.6147 17.3038 16.6442 17.2715C16.8391 17.0578 17.2806 16.4316 17.4414 16.141C17.6673 15.7327 17.9168 15.1993 18.0127 14.9197C18.0503 14.81 18.0998 14.6679 18.1228 14.604C18.1588 14.5038 18.3108 13.9312 18.3108 13.8959C18.3108 13.8891 18.299 13.8718 18.2847 13.8574C18.2615 13.8342 18.1467 13.8313 17.2724 13.8313H16.2863L16.0811 13.7791C15.7074 13.6841 15.4368 13.5092 15.2045 13.2123C15.073 13.0443 15.0608 13.0522 14.995 13.3493C14.9707 13.4587 14.8771 13.748 14.7972 13.9606C14.7825 13.9997 14.7362 14.1007 14.6944 14.1849C14.3827 14.8117 13.9177 15.3725 13.3663 15.7866C13.127 15.9664 12.6777 16.2306 12.4987 16.2969C12.464 16.3097 12.3945 16.3367 12.3442 16.3568C12.2939 16.3769 12.2154 16.4075 12.1697 16.4247C12.0618 16.4654 11.6497 16.571 11.5215 16.5909C11.4667 16.5994 11.3657 16.6151 11.2971 16.6259C11.1331 16.6516 10.3311 16.6516 10.167 16.6259C10.0984 16.6151 9.99746 16.5993 9.94261 16.5908C9.79561 16.568 9.43687 16.4694 9.22795 16.3942C9.03109 16.3234 8.65461 16.1464 8.54653 16.0738C8.50997 16.0493 8.44683 16.0123 8.40621 15.9917C8.25256 15.9137 7.86922 15.6048 7.63256 15.3682C7.06286 14.7986 6.69111 14.1539 6.48281 13.3743C6.45106 13.2555 6.41814 13.1135 6.40963 13.0586C6.40114 13.0038 6.38537 12.9028 6.3746 12.8343C6.34965 12.6754 6.34932 11.877 6.37413 11.6878C6.39697 11.5137 6.39801 11.5086 6.47992 11.177C6.54307 10.9212 6.56235 10.8602 6.64529 10.6534C6.66452 10.6054 6.69079 10.5378 6.70364 10.503C6.76992 10.3242 7.03424 9.87494 7.21406 9.63563C7.62823 9.08438 8.18919 8.61947 8.81608 8.30789C8.90032 8.26602 9.00129 8.21973 9.04045 8.20502C9.25305 8.12516 9.54249 8.0316 9.65185 8.00735C9.94903 7.94148 9.95696 7.92935 9.78888 7.79787C9.49198 7.56562 9.31697 7.29505 9.22195 6.92143L9.16978 6.71632V5.7304C9.16978 4.85624 9.16682 4.7415 9.14367 4.71834C9.10953 4.68423 9.10746 4.68451 8.78752 4.76729ZM10.3581 8.92897C10.3398 8.93708 10.2932 8.94424 10.2545 8.94489C10.1615 8.94643 9.9666 8.99269 9.685 9.08004C9.3826 9.17384 9.04844 9.34694 8.73319 9.57305C8.55316 9.7022 8.22525 10.03 8.06668 10.2393C7.882 10.4832 7.728 10.7387 7.66775 10.9014C7.65482 10.9364 7.62769 11.0061 7.6075 11.0563C7.53886 11.2272 7.52063 11.2805 7.48827 11.4053C7.4705 11.4738 7.44891 11.5748 7.44029 11.6296C7.43166 11.6844 7.41587 11.7854 7.4052 11.8539C7.36698 12.0993 7.38187 12.5472 7.44029 12.9091C7.48927 13.2125 7.68038 13.6954 7.88743 14.039C8.12741 14.4372 8.56377 14.8734 8.96203 15.1134C9.11823 15.2074 9.46532 15.3768 9.57127 15.4107C9.62414 15.4276 9.68386 15.4502 9.70398 15.461C9.72411 15.4717 9.79725 15.495 9.86653 15.5126C10.4005 15.6487 11.0707 15.6486 11.5963 15.5124C11.7211 15.4801 11.7745 15.4619 11.9453 15.3932C11.9956 15.373 12.0653 15.3459 12.1003 15.333C12.3858 15.2273 12.8159 14.9233 13.1333 14.603C13.4316 14.3019 13.7128 13.8836 13.8331 13.5621C14.0387 13.0124 14.0785 12.8029 14.0785 12.2693C14.0785 11.7838 14.0535 11.6213 13.9124 11.1929C13.8408 10.9753 13.7274 10.7279 13.6099 10.5329C13.3629 10.1229 12.8789 9.63909 12.4689 9.3921C12.0946 9.16672 11.6077 8.99449 11.1808 8.93646C11.0547 8.91931 10.3934 8.9133 10.3581 8.92897ZM10.8886 10.367C11.0608 10.4192 11.1821 10.5305 11.2644 10.7116C11.3281 10.8519 11.2948 11.1288 11.2006 11.2435C11.0613 11.4129 10.9467 11.4714 10.7535 11.4716C10.4642 11.4719 10.2738 11.3321 10.1906 11.0583C10.1301 10.8589 10.1876 10.6605 10.3495 10.5108C10.5086 10.3636 10.7049 10.3113 10.8886 10.367ZM9.56215 11.7305C9.65259 11.7568 9.72015 11.8024 9.80623 11.8952C9.86988 11.9639 9.90904 12.0428 9.94035 12.1655C9.9646 12.2605 9.9646 12.2781 9.94035 12.3732C9.92578 12.4303 9.90053 12.5032 9.88423 12.5352C9.8406 12.6209 9.72281 12.7299 9.61864 12.781C9.54096 12.8192 9.50574 12.826 9.38584 12.826C9.26595 12.826 9.23073 12.8192 9.15305 12.781C9.04887 12.7299 8.93109 12.6209 8.88746 12.5352C8.87115 12.5032 8.84591 12.4303 8.83133 12.3732C8.80708 12.2781 8.80708 12.2605 8.83133 12.1655C8.87242 12.0045 8.92071 11.9276 9.05718 11.8062C9.16009 11.7146 9.38922 11.6803 9.56215 11.7305ZM12.2939 11.7388C12.5028 11.8335 12.66 12.0532 12.66 12.2503C12.66 12.4848 12.4707 12.7453 12.2546 12.8081C11.9699 12.8909 11.6642 12.7434 11.5636 12.4747C11.5396 12.4106 11.5299 12.3448 11.53 12.2479C11.5302 12.0579 11.5806 11.9566 11.7496 11.8062C11.8595 11.7084 12.148 11.6727 12.2939 11.7388ZM10.8346 13.0605C11.0013 13.1031 11.0886 13.1591 11.2006 13.2952C11.2552 13.3616 11.2971 13.5007 11.2971 13.6153C11.2971 13.7298 11.2552 13.8689 11.2006 13.9353C11.0889 14.0712 11.0012 14.1275 10.8359 14.1697C10.7409 14.1939 10.7233 14.1939 10.6282 14.1697C10.5711 14.1551 10.4981 14.1299 10.4661 14.1135C10.3805 14.0699 10.2714 13.9522 10.2202 13.848C10.1821 13.7704 10.1753 13.7351 10.1753 13.6153C10.1753 13.4954 10.1821 13.4602 10.2202 13.3825C10.2691 13.283 10.3787 13.1621 10.4578 13.1204C10.498 13.0992 10.6689 13.0435 10.7183 13.0355C10.7244 13.0345 10.7767 13.0458 10.8346 13.0605Z" fill="white"/>
</svg>
