<svg width="23" height="23" viewBox="0 0 23 23" fill="none" xmlns="http://www.w3.org/2000/svg">
<path fill-rule="evenodd" clip-rule="evenodd" d="M14.2875 4.57115C14.2075 4.64502 14.038 4.9843 12.8816 7.38546C12.6333 7.9011 12.22 8.75892 11.9632 9.29174C11.5085 10.235 11.0608 11.1645 10.1366 13.0835C9.88829 13.5991 9.48282 14.4405 9.23558 14.9533C8.6948 16.0749 8.71916 16.0196 8.64745 16.2877C8.6079 16.4355 8.6079 16.8982 8.64745 17.0461C8.74641 17.4161 8.87696 17.6563 9.10476 17.8875C9.22645 18.011 9.56393 18.2502 9.61655 18.2502C9.6328 18.2502 9.6744 18.2651 9.70898 18.2832C9.8378 18.3508 9.99134 18.3752 10.2885 18.3752C10.4499 18.3752 10.6088 18.3669 10.6415 18.3568C10.6742 18.3467 10.7426 18.3262 10.7934 18.3113C10.9071 18.278 11.1856 18.1399 11.2962 18.0619C11.4886 17.9262 11.6868 17.686 11.8069 17.443C11.9151 17.224 11.9109 17.2389 12.0864 16.4689C12.1178 16.3314 12.1731 16.0877 12.2094 15.9273C12.2457 15.7668 12.3012 15.5231 12.3326 15.3856C12.364 15.2481 12.4194 15.0043 12.4557 14.8439C12.492 14.6835 12.5474 14.4397 12.5789 14.3022C12.6103 14.1647 12.6657 13.921 12.702 13.7606C12.7383 13.6001 12.7937 13.3564 12.8252 13.2189C12.8566 13.0814 12.9028 12.8751 12.9277 12.7605C12.9527 12.646 12.9989 12.4397 13.0303 12.3022C13.0618 12.1647 13.1172 11.921 13.1535 11.7605C13.1898 11.6001 13.2452 11.3564 13.2766 11.2189C13.3081 11.0814 13.3635 10.8376 13.3998 10.6772C13.4361 10.5168 13.4915 10.273 13.5229 10.1355C13.5543 9.998 13.6097 9.75425 13.6461 9.59383C13.6824 9.43341 13.7378 9.18966 13.7692 9.05216C13.8006 8.91465 13.856 8.6709 13.8923 8.51048C13.9286 8.35006 13.984 8.10631 14.0155 7.9688C14.0469 7.8313 14.1023 7.58755 14.1386 7.42713C14.1749 7.26671 14.2303 7.02296 14.2617 6.88545C14.2932 6.74795 14.3486 6.5042 14.3849 6.34378C14.4212 6.18336 14.4766 5.93961 14.508 5.8021C14.5394 5.6646 14.5946 5.42085 14.6306 5.26043C14.6666 5.10001 14.7046 4.93486 14.7149 4.89342C14.772 4.66511 14.6598 4.5 14.4475 4.5C14.3817 4.5 14.3485 4.51477 14.2875 4.57115ZM11.132 6.15351C11.0957 6.18051 11.0892 6.21855 11.0754 6.48266C11.0382 7.19785 11.0179 7.68684 11.0076 8.11464C10.9948 8.64754 10.9936 8.64313 11.1649 8.66988C11.4683 8.71723 11.582 8.73028 11.607 8.72053C11.6221 8.71465 11.6679 8.63688 11.7088 8.54767C11.7497 8.45846 11.9942 7.94953 12.2523 7.41671C12.5103 6.88389 12.7328 6.4127 12.7467 6.36961C12.7686 6.30165 12.7673 6.28659 12.737 6.2558C12.6798 6.19769 12.2159 6.14746 11.604 6.13311C11.2464 6.12469 11.1661 6.12817 11.132 6.15351ZM9.86375 6.1798C9.85665 6.18701 9.78354 6.20105 9.70129 6.21101C9.53698 6.2309 9.3557 6.26007 9.21308 6.28957C9.16229 6.30007 9.06994 6.31855 9.00786 6.33061C8.76211 6.37838 8.25952 6.51943 7.95092 6.62724C7.5671 6.76131 7.46631 6.79881 7.34549 6.85245C7.27212 6.88502 7.14283 6.94191 7.05817 6.97889C6.72635 7.12379 6.23093 7.38582 5.92941 7.5759C5.54113 7.82066 5.45399 7.87795 5.30345 7.98741C5.21315 8.05308 5.12774 8.12208 5.11362 8.14075C5.05806 8.21425 5.08546 8.28644 5.27934 8.57742C5.98457 9.63587 5.99116 9.64517 6.04741 9.6595C6.08821 9.66989 6.12745 9.65896 6.19573 9.61814C6.31737 9.54543 6.78337 9.31289 6.96582 9.23385C7.04483 9.19962 7.14632 9.15553 7.19132 9.13589C7.45383 9.02136 8.17374 8.81163 8.57687 8.73221C8.95636 8.65746 9.38837 8.6084 9.85615 8.58694C10.1278 8.57448 10.1638 8.56848 10.1908 8.53131C10.2236 8.48617 10.2198 8.18864 10.1784 7.56255C10.1674 7.3964 10.1493 7.10577 10.1381 6.9167C10.1039 6.34057 10.0935 6.27436 10.0274 6.21665C9.97322 6.16936 9.89205 6.15109 9.86375 6.1798ZM14.83 6.88814C14.8139 6.94696 14.7056 7.41065 14.6312 7.73963C14.5949 7.90005 14.5394 8.14381 14.508 8.28131C14.4766 8.41881 14.4212 8.66257 14.3849 8.82299C14.3486 8.9834 14.2916 9.22835 14.2583 9.36729C14.2214 9.52123 14.2002 9.65935 14.2041 9.72085L14.2104 9.82181L14.4362 9.98411C14.5604 10.0734 14.6928 10.1609 14.7306 10.1785C14.7927 10.2076 14.804 10.2075 14.849 10.1775C14.8764 10.1593 14.9848 10.0112 15.0899 9.84827C15.1951 9.68542 15.4751 9.25216 15.7122 8.88549C16.3087 7.9633 16.4311 7.76791 16.4473 7.71213C16.4745 7.61863 16.3365 7.5229 15.7545 7.23171C15.0932 6.90089 15.0395 6.87681 14.929 6.86143C14.8543 6.85104 14.8391 6.85514 14.83 6.88814ZM17.2708 8.38033C17.185 8.47025 17.1558 8.50456 16.9916 8.70861C16.9409 8.77151 16.8946 8.82767 16.8887 8.8334C16.8827 8.83913 16.8366 8.89538 16.7861 8.9584C16.7356 9.02143 16.6891 9.07768 16.6828 9.08341C16.6764 9.08914 16.5936 9.19226 16.4987 9.31258C16.4039 9.43289 16.3211 9.53602 16.3147 9.54175C16.3084 9.54748 16.2619 9.60373 16.2114 9.66675C16.1609 9.72977 16.1148 9.78602 16.1088 9.79175C16.1029 9.79748 16.0567 9.85373 16.0062 9.91675C15.9557 9.97977 15.9092 10.036 15.9029 10.0418C15.8966 10.0475 15.8136 10.1506 15.7184 10.2709C15.6233 10.3912 15.5236 10.5131 15.4968 10.5418C15.47 10.5704 15.4346 10.6252 15.4182 10.6635C15.383 10.7457 15.3974 10.7763 15.5396 10.9221C15.5874 10.971 15.6681 11.0624 15.7189 11.125C15.7697 11.1877 15.8357 11.2653 15.8656 11.2975C15.9384 11.3759 16.2203 11.7429 16.3606 11.9418C16.5359 12.1904 16.8089 12.6672 16.9667 13.0001C17.1856 13.4619 17.2145 13.5312 17.3022 13.8014C17.3907 14.0746 17.418 14.1285 17.4928 14.1782C17.5467 14.2141 17.557 14.2112 17.8943 14.0632C18.0188 14.0086 18.0823 13.9822 18.3458 13.8751C18.4023 13.8522 18.4946 13.8147 18.551 13.7918C18.6075 13.7689 18.6998 13.7314 18.7563 13.7085C18.8127 13.6856 18.9051 13.6481 18.9615 13.6251C19.0179 13.6022 19.1103 13.5647 19.1667 13.5418C19.2232 13.5189 19.3155 13.4814 19.372 13.4585C19.4284 13.4356 19.5185 13.3992 19.5721 13.3776C19.6257 13.356 19.718 13.3185 19.7773 13.2942C19.8366 13.27 19.9312 13.2314 19.9877 13.2085C20.0441 13.1856 20.1365 13.1481 20.1929 13.1251C20.2493 13.1022 20.3417 13.0647 20.3981 13.0418C20.4546 13.0189 20.5492 12.9806 20.6085 12.9566C20.7936 12.8819 20.8552 12.8458 20.8981 12.7867L20.9396 12.7295L20.7418 12.3243C20.5347 11.9002 20.1872 11.2943 19.9882 11.0105C19.9239 10.9189 19.8287 10.7819 19.7766 10.7062C19.6779 10.5627 19.3903 10.1832 19.3071 10.0867C19.2807 10.056 19.2175 9.97969 19.1667 9.91709C19.0456 9.76777 18.1614 8.87051 18.0169 8.75036C17.9551 8.69894 17.9 8.65173 17.8943 8.64544C17.8619 8.60929 17.5644 8.3735 17.5041 8.33616C17.4025 8.27327 17.3664 8.28008 17.2708 8.38033ZM3.92501 9.20324C3.75756 9.37227 3.57917 9.56212 3.52858 9.62512C3.478 9.68812 3.42201 9.75373 3.40415 9.77092C3.29817 9.87294 2.76706 10.6035 2.62418 10.8439C2.57648 10.9241 2.51857 11.017 2.49548 11.0504C2.34494 11.2679 1.90838 12.1569 1.72213 12.6251C1.69707 12.6882 1.66317 12.7717 1.64679 12.8109C1.59008 12.9463 1.51696 13.1848 1.51696 13.2342C1.51696 13.3087 1.55479 13.3439 1.70167 13.406C1.77504 13.437 1.86739 13.4766 1.9069 13.494C1.9464 13.5114 2.03108 13.5427 2.09507 13.5636C2.15908 13.5844 2.23943 13.6162 2.27364 13.6342C2.34525 13.6717 2.44581 13.6765 2.50367 13.6451C2.52565 13.6332 2.59536 13.5183 2.65859 13.3899C2.72183 13.2615 2.80365 13.1048 2.84041 13.0418C2.87716 12.9788 2.93151 12.885 2.96114 12.8335C3.04508 12.6874 3.17735 12.4799 3.32188 12.2675C3.44924 12.0803 3.83046 11.5854 3.89693 11.5209C3.91464 11.5038 3.97055 11.4383 4.02114 11.3755C4.13777 11.2308 4.44929 10.9141 4.59533 10.7918C4.65688 10.7402 4.74096 10.6652 4.78215 10.6251C4.82334 10.585 4.94486 10.4819 5.05217 10.3959C5.22216 10.2598 5.33424 10.1419 5.33424 10.0991C5.33424 10.0836 5.09453 9.77385 5.04798 9.72925C5.03007 9.71206 4.97416 9.64644 4.92378 9.58341C4.87339 9.52039 4.81798 9.45477 4.80064 9.43758C4.7833 9.42039 4.72772 9.35485 4.67713 9.29195C4.41095 8.96095 4.34595 8.8959 4.28143 8.8959C4.24188 8.8959 4.15653 8.96951 3.92501 9.20324ZM21.1369 13.8776C21.0054 13.9173 20.8637 13.9589 20.5824 14.0405C20.5034 14.0634 20.3741 14.1009 20.2951 14.1238C20.2161 14.1468 20.0892 14.1835 20.0131 14.2055C19.8027 14.2662 19.6038 14.324 19.4335 14.3737C19.3489 14.3984 19.215 14.4374 19.136 14.4603C19.0569 14.4833 18.9276 14.5208 18.8486 14.5437C18.7696 14.5666 18.6425 14.6034 18.5662 14.6254C18.4373 14.6627 18.344 14.6898 17.9969 14.7909C17.9236 14.8122 17.8373 14.8356 17.8053 14.8429C17.7733 14.8501 17.7238 14.8797 17.6953 14.9086C17.6387 14.966 17.6382 15.0081 17.6891 15.3648C17.7598 15.8598 17.7834 16.9123 17.7332 17.3335C17.6842 17.7444 17.6757 17.7978 17.6045 18.146C17.5658 18.3359 17.5601 18.4367 17.5864 18.4689C17.6089 18.4964 17.872 18.5002 19.7593 18.4998C21.7733 18.4993 21.9095 18.497 21.9533 18.4628L22 18.4263L21.9907 17.7185C21.9856 17.3291 21.9722 16.9075 21.9609 16.7814C21.9238 16.3666 21.8837 16.0352 21.835 15.7398C21.8218 15.6596 21.8034 15.5471 21.7943 15.4898C21.7442 15.1776 21.571 14.469 21.4632 14.1359C21.4029 13.9495 21.3327 13.8299 21.2867 13.8354C21.2777 13.8365 21.2103 13.8555 21.1369 13.8776ZM1.26051 14.2969C1.20433 14.3459 1.18917 14.3947 1.14549 14.6668C1.13353 14.7413 1.11518 14.8538 1.10474 14.9168C1.025 15.3969 1.0004 15.779 1.00001 16.5419C0.999679 17.1824 1.01002 17.3921 1.06369 17.8335C1.12688 18.3534 1.14769 18.446 1.20866 18.4791C1.26453 18.5095 1.56324 18.5058 1.6057 18.4742C1.6371 18.4508 1.6416 18.3803 1.64917 17.7919C1.66036 16.9212 1.70005 16.4904 1.82481 15.8856C1.83427 15.8398 1.85294 15.746 1.8663 15.6773C1.91659 15.4188 1.9955 15.1078 2.06291 14.9023C2.15638 14.6176 2.15317 14.5142 2.04908 14.4577C2.013 14.4381 1.72359 14.3549 1.46565 14.2901C1.4205 14.2787 1.36831 14.2648 1.34966 14.2591C1.331 14.2533 1.2909 14.2703 1.26051 14.2969ZM10.57 15.8215C10.7263 15.8696 10.8207 15.9283 10.9449 16.0543C11.0804 16.192 11.1068 16.2379 11.1412 16.396C11.155 16.459 11.1741 16.542 11.1837 16.5804C11.1939 16.6211 11.1932 16.6716 11.182 16.7015C11.1714 16.7298 11.1626 16.7781 11.1623 16.8088C11.1613 16.9424 11.0144 17.1663 10.8316 17.313C10.7084 17.4118 10.5564 17.4586 10.3592 17.4583C10.1224 17.458 9.9583 17.3935 9.78092 17.231C9.66034 17.1205 9.52179 16.8142 9.52109 16.6564C9.52056 16.5366 9.58929 16.3088 9.66455 16.181C9.75337 16.0301 9.95955 15.8714 10.1265 15.8253C10.2638 15.7874 10.4541 15.7858 10.57 15.8215Z" fill="white"/>
</svg>
