<svg width="38" height="38" viewBox="0 0 38 38" fill="none" xmlns="http://www.w3.org/2000/svg">
<path d="M16.1258 20.4268C16.1893 21.0648 17.0519 21.5966 17.4753 21.7827C16.5227 20.9851 16.6814 19.8685 16.9196 19.8685C17.1577 19.8685 17.3165 20.8256 17.4753 20.666C17.634 20.5065 17.3165 19.8685 17.1577 19.3899C17.0307 19.007 17.0519 18.3796 17.0784 18.1137C18.0309 15.8007 18.0309 13.9662 18.0309 13.4877C18.0309 13.1048 18.6131 11.4139 18.9041 10.6164C18.9041 10.9088 18.9676 11.9244 19.2217 13.6472C19.5392 15.8007 18.9835 16.1995 18.7454 19.3899C18.5072 22.5803 19.3804 24.335 19.5392 25.2921C19.6979 26.2492 19.2217 28.4027 19.2217 29.5193C19.2217 30.636 20.333 32.63 20.5711 34.3049C20.8093 35.9799 20.333 35.6608 19.5392 36.4584C18.7454 37.256 20.6505 36.937 21.0474 36.937C21.4443 36.937 21.5237 36.4584 21.7619 36.2989C22 36.1394 21.7619 35.4215 21.5237 34.7835C21.2856 34.1454 21.5237 33.5073 21.5237 32.8692C21.5237 32.2312 21.6031 28.0837 21.5237 27.6849C21.4443 27.2861 21.5237 25.9302 21.7619 25.2921C21.9524 24.7816 22 21.3573 22 19.7089V2.00233C20.333 1.92257 20.333 3.91656 20.4124 4.31535C20.4918 4.71415 21.1268 5.67126 21.1268 6.07006C21.1268 6.46886 19.301 7.02717 18.1897 7.42597C17.0784 7.82477 17.1577 10.3771 17.1577 10.6164C17.1577 10.8556 16.6814 11.733 16.6814 12.2115C16.6814 12.6901 16.3639 13.8067 16.1258 14.365C15.8876 14.9234 16.0464 19.6292 16.1258 20.4268Z" fill="#AECF09"/>
</svg>
