<svg width="26" height="26" viewBox="0 0 26 26" fill="none" xmlns="http://www.w3.org/2000/svg">
<path d="M22.198 3.80608C17.1287 -1.26326 8.87761 -1.26326 3.80828 3.80608C1.35267 6.26265 0 9.52807 0 13.0009C0 16.4738 1.35267 19.7392 3.80828 22.1948C6.34345 24.73 9.67331 25.9971 13.0031 25.9971C16.3329 25.9971 19.6628 24.73 22.198 22.1948C27.2673 17.1255 27.2673 8.87639 22.198 3.80608ZM20.7738 20.7706C16.4891 25.0553 9.51716 25.0553 5.23245 20.7706C3.15761 18.6958 2.01441 15.936 2.01441 13.0009C2.01441 10.0659 3.15761 7.30611 5.23245 5.23025C9.51716 0.945543 16.4891 0.946558 20.7738 5.23025C25.0575 9.51497 25.0575 16.4869 20.7738 20.7706Z" fill="white"/>
<path d="M17.3434 15.7843L14.4919 12.937L17.3434 10.0896C17.7362 9.69677 17.7362 9.05921 17.3444 8.66534C16.9506 8.27052 16.313 8.27153 15.9192 8.66433L13.0658 11.5137L10.2123 8.66433C9.81852 8.27153 9.18096 8.27052 8.78715 8.66534C8.39435 9.05916 8.39435 9.69672 8.78816 10.0896L11.6396 12.937L8.78816 15.7843C8.39435 16.1771 8.39435 16.8147 8.78715 17.2086C8.98357 17.4059 9.24241 17.5036 9.50027 17.5036C9.75814 17.5036 10.016 17.4049 10.2124 17.2095L13.0658 14.3601L15.9192 17.2095C16.1157 17.4059 16.3735 17.5036 16.6314 17.5036C16.8892 17.5036 17.1481 17.4049 17.3445 17.2086C17.7372 16.8147 17.7372 16.1771 17.3434 15.7843Z" fill="white"/>
</svg>
