<svg width="12" height="12" viewBox="0 0 12 12" fill="none" xmlns="http://www.w3.org/2000/svg">
<g clip-path="url(#clip0)">
<path d="M10.946 1.42969H1.05537C0.893016 1.42969 0.741023 1.4696 0.603516 1.53539L5.97724 6.90912L7.18167 5.75161C7.18167 5.75161 7.18177 5.75149 7.18179 5.75145C7.18181 5.7514 7.18191 5.75135 7.18191 5.75135L11.398 1.53548C11.2605 1.46965 11.1084 1.42969 10.946 1.42969Z" fill="white"/>
<path d="M11.8953 2.03268L7.92773 6.00004L11.8952 9.96747C11.961 9.82997 12.0009 9.67797 12.0009 9.51562V2.48437C12.0009 2.32211 11.961 2.17015 11.8953 2.03268Z" fill="white"/>
<path d="M0.105703 2.0325C0.0399141 2.17001 0 2.322 0 2.48435V9.5156C0 9.67786 0.0398672 9.82988 0.105609 9.96734L4.07318 5.99998L0.105703 2.0325Z" fill="white"/>
<path d="M7.42863 6.49718L6.22403 7.65483C6.15536 7.7235 6.06541 7.75783 5.97548 7.75783C5.88555 7.75783 5.79557 7.7235 5.72692 7.65483L4.5692 6.49713L0.601562 10.4645C0.739094 10.5303 0.89118 10.5703 1.05358 10.5703H10.9442C11.1066 10.5703 11.2585 10.5304 11.3961 10.4646L7.42863 6.49718Z" fill="white"/>
</g>
<defs>
<clipPath id="clip0">
<rect width="12" height="12" fill="white"/>
</clipPath>
</defs>
</svg>
