<svg width="24" height="24" viewBox="0 0 24 24" fill="none" xmlns="http://www.w3.org/2000/svg">
<path d="M18.835 1.5311H5.16504C2.31737 1.5311 0 3.89907 0 6.80895V12.037C0 14.9469 2.31737 17.3148 5.16504 17.3148H13.8054L20.0867 22.4689V17.1559C22.3586 16.5773 24 14.4855 24 12.037V6.80895C24 3.89907 21.6826 1.5311 18.835 1.5311ZM5.52686 11.6774C4.9153 11.6774 4.37035 11.5441 4.01736 11.3529L4.27518 10.3114C4.54251 10.474 5.09696 10.6652 5.52691 10.6652C5.96635 10.6652 6.14802 10.5121 6.14802 10.2734C6.14802 10.0339 6.00446 9.91959 5.46029 9.73798C4.49496 9.4128 4.12217 8.88764 4.13167 8.33319C4.13167 7.4638 4.87729 6.80464 6.03306 6.80464C6.57796 6.80464 7.0658 6.92841 7.35213 7.07197L7.0943 8.07536C6.88408 7.96036 6.48274 7.8073 6.08136 7.8073C5.72758 7.8073 5.52691 7.95086 5.52691 8.18963C5.52691 8.40936 5.70852 8.52436 6.28202 8.72503C7.17046 9.03047 7.54325 9.48015 7.5528 10.1679C7.55275 11.0373 6.86498 11.6774 5.52686 11.6774ZM15.4929 11.5822H14.0786V9.04065C14.0786 8.3617 13.8582 7.96986 13.3902 7.96986C13.0562 7.96986 12.8167 8.19909 12.7215 8.4767C12.6834 8.58142 12.6644 8.73453 12.6644 8.84949V11.5822H11.2501V8.96376C11.2501 8.3712 11.0399 7.96986 10.5806 7.96986C10.2086 7.96986 9.98806 8.25698 9.9024 8.49576C9.85479 8.61003 9.84529 8.74403 9.84529 8.85904V11.5822H8.431V8.39985C8.431 7.81758 8.41195 7.32024 8.3929 6.90935H9.61607L9.68273 7.53997H9.71128C9.91195 7.24408 10.3228 6.80464 11.1256 6.80464C11.7276 6.80464 12.2052 7.11007 12.4058 7.59713H12.4249C12.597 7.35835 12.8072 7.16718 13.027 7.03391C13.2855 6.88085 13.5719 6.80469 13.9161 6.80469C14.8141 6.80469 15.493 7.4353 15.493 8.82985V11.5822H15.4929ZM17.8894 11.6774C17.2778 11.6774 16.7329 11.5441 16.3799 11.3529L16.6377 10.3114C16.9051 10.474 17.4595 10.6652 17.8895 10.6652C18.3289 10.6652 18.5106 10.5121 18.5106 10.2734C18.5106 10.0339 18.367 9.91959 17.8228 9.73798C16.8575 9.4128 16.4847 8.88764 16.4942 8.33319C16.4942 7.4638 17.2398 6.80464 18.3956 6.80464C18.9405 6.80464 19.4276 6.92841 19.7146 7.07197L19.4568 8.07536C19.2466 7.96036 18.8452 7.8073 18.4439 7.8073C18.0901 7.8073 17.8894 7.95086 17.8894 8.18963C17.8894 8.40936 18.071 8.52436 18.6445 8.72503C19.533 9.03047 19.9057 9.48015 19.9153 10.1679C19.9153 11.0373 19.2275 11.6774 17.8894 11.6774Z" fill="white" fill-opacity="0.5"/>
</svg>
