<svg width="14" height="14" viewBox="0 0 14 14" fill="none" xmlns="http://www.w3.org/2000/svg">
<path d="M10.9375 5.93359C9.2639 5.93359 7.90234 7.29515 7.90234 8.96875C7.90234 9.52309 8.05183 10.0431 8.31244 10.4908L7.41016 11.1926V6.0425C8.89044 5.84164 10.0352 4.56966 10.0352 3.03516C10.0352 1.36155 8.6736 0 7 0C5.3264 0 3.96484 1.36155 3.96484 3.03516C3.96484 4.56966 5.10956 5.84164 6.58984 6.0425V11.1926L5.68755 10.4908C5.94817 10.0431 6.09766 9.52309 6.09766 8.96875C6.09766 7.29515 4.7361 5.93359 3.0625 5.93359C1.3889 5.93359 0.0273438 7.29515 0.0273438 8.96875C0.0273438 10.6424 1.3889 12.0039 3.0625 12.0039C3.88702 12.0039 4.63567 11.6733 5.18323 11.1378L6.58984 12.2318V13.1797H5.25C5.02348 13.1797 4.83984 13.3633 4.83984 13.5898C4.83984 13.8164 5.02348 14 5.25 14H8.75C8.97652 14 9.16016 13.8164 9.16016 13.5898C9.16016 13.3633 8.97652 13.1797 8.75 13.1797H7.41016V12.2318L8.81677 11.1378C9.36433 11.6733 10.113 12.0039 10.9375 12.0039C12.6111 12.0039 13.9727 10.6424 13.9727 8.96875C13.9727 7.29515 12.6111 5.93359 10.9375 5.93359Z" fill="white"/>
</svg>
