<svg width="22" height="22" viewBox="0 0 22 22" fill="none" xmlns="http://www.w3.org/2000/svg">
<path d="M4.55469 22H17.4453C18.5115 22 19.3789 21.1326 19.3789 20.0664V6.44531H14.8672C13.801 6.44531 12.9336 5.57795 12.9336 4.51172V0H4.55469C3.48846 0 2.62109 0.867367 2.62109 1.93359V20.0664C2.62109 21.1326 3.48846 22 4.55469 22ZM7.13281 9.06641H14.8672C15.2234 9.06641 15.5117 9.35468 15.5117 9.71094C15.5117 10.0672 15.2234 10.3555 14.8672 10.3555H7.13281C6.77656 10.3555 6.48828 10.0672 6.48828 9.71094C6.48828 9.35468 6.77656 9.06641 7.13281 9.06641ZM7.13281 11.6445H14.8672C15.2234 11.6445 15.5117 11.9328 15.5117 12.2891C15.5117 12.6453 15.2234 12.9336 14.8672 12.9336H7.13281C6.77656 12.9336 6.48828 12.6453 6.48828 12.2891C6.48828 11.9328 6.77656 11.6445 7.13281 11.6445ZM7.13281 14.2227H14.8672C15.2234 14.2227 15.5117 14.5109 15.5117 14.8672C15.5117 15.2234 15.2234 15.5117 14.8672 15.5117H7.13281C6.77656 15.5117 6.48828 15.2234 6.48828 14.8672C6.48828 14.5109 6.77656 14.2227 7.13281 14.2227ZM7.13281 16.8008H12.2891C12.6453 16.8008 12.9336 17.0891 12.9336 17.4453C12.9336 17.8016 12.6453 18.0898 12.2891 18.0898H7.13281C6.77656 18.0898 6.48828 17.8016 6.48828 17.4453C6.48828 17.0891 6.77656 16.8008 7.13281 16.8008Z" fill="#71E5A8"/>
<path d="M14.8672 5.15625H19.0013L14.2227 0.377655V4.51172C14.2227 4.86733 14.5116 5.15625 14.8672 5.15625Z" fill="#71E5A8"/>
</svg>
