<svg width="22" height="22" viewBox="0 0 22 22" fill="none" xmlns="http://www.w3.org/2000/svg">
<g clip-path="url(#clip0)">
<path d="M21.8473 8.08516C21.795 7.93292 21.6096 7.81451 21.4549 7.81451C20.7847 7.81451 20.1147 7.81451 19.4446 7.81451C19.2899 7.81451 19.1045 7.93292 19.0522 8.08516C19.001 8.23417 18.9627 8.36712 18.9373 8.49216L17.5945 4.7772C17.373 4.16461 16.7865 3.75304 16.1351 3.75304H5.86492C5.21353 3.75304 4.62708 4.16461 4.40549 4.77731L3.06263 8.4926C3.03715 8.36746 2.99891 8.23433 2.94768 8.08516C2.89539 7.93292 2.70998 7.81451 2.55529 7.81451C1.88522 7.81451 1.21516 7.81451 0.545034 7.81451C0.39034 7.81451 0.204929 7.93292 0.152639 8.08516C-0.0509448 8.6779 -0.0508333 9.01723 0.152695 9.61003C0.204985 9.76227 0.390395 9.88068 0.54509 9.88068C1.21521 9.88068 1.88528 9.88068 2.55534 9.88068C2.55724 9.88068 2.55924 9.88017 2.5612 9.88012L2.53087 9.96413C2.12097 10.1003 1.82502 10.4862 1.82502 10.9419V14.0528V14.3091V17.7515C1.82502 18.0252 2.04677 18.247 2.32043 18.247H4.81378C5.08738 18.247 5.30919 18.0252 5.30919 17.7515V15.3399H16.6908V17.7515C16.6908 18.0252 16.9126 18.247 17.1862 18.247H19.6796C19.9532 18.247 20.175 18.0252 20.175 17.7515V14.3091V14.0528V10.9419C20.175 10.4863 19.8792 10.1005 19.4694 9.96418L19.439 9.88012C19.4409 9.88017 19.4428 9.88062 19.4447 9.88062C20.1148 9.88062 20.7848 9.88062 21.4549 9.88062C21.6097 9.88062 21.795 9.76222 21.8473 9.60997C22.0508 9.01723 22.0507 8.6779 21.8473 8.08516ZM6.05462 5.57615H15.9441L17.511 9.91106H4.48777L6.05462 5.57615ZM6.33045 12.9649H4.24455C3.79703 12.9649 3.43429 12.6021 3.43429 12.1546C3.43429 11.7071 3.79697 11.3443 4.24455 11.3443H6.33045C6.77793 11.3443 7.14072 11.7071 7.14072 12.1546C7.14078 12.6021 6.77793 12.9649 6.33045 12.9649ZM17.7553 12.9649H15.6694C15.2219 12.9649 14.8591 12.6021 14.8591 12.1546C14.8591 11.7071 15.2219 11.3443 15.6694 11.3443H17.7553C18.2028 11.3443 18.5656 11.7071 18.5656 12.1546C18.5656 12.6021 18.2028 12.9649 17.7553 12.9649Z" fill="white"/>
</g>
<defs>
<clipPath id="clip0">
<rect width="22" height="22" fill="white"/>
</clipPath>
</defs>
</svg>
