<svg width="22" height="22" viewBox="0 0 22 22" fill="none" xmlns="http://www.w3.org/2000/svg">
<path d="M14.8135 1.22675V3.8689H7.18652V1.22675H2.70703V22H13.9343V16.6414H19.293V1.22675H14.8135ZM11.0021 11.3008C12.4592 11.3008 13.6447 12.3759 13.6447 13.6972C13.6447 14.8169 12.7931 15.7592 11.6467 16.0209V17.0156H10.3576V16.0209C9.21121 15.7592 8.35957 14.8169 8.35957 13.6972H9.64863C9.64863 14.3073 10.2558 14.804 11.0021 14.804C11.7485 14.804 12.3557 14.3073 12.3557 13.6972C12.3557 13.0866 11.7485 12.5898 11.0021 12.5898C9.54508 12.5898 8.35957 11.5148 8.35957 10.1935C8.35957 9.07371 9.21121 8.13141 10.3576 7.86973V6.875H11.6467V7.86973C12.7931 8.13141 13.6447 9.07371 13.6447 10.1935H12.3557C12.3557 9.58332 11.7485 9.0866 11.0021 9.0866C10.2558 9.0866 9.64863 9.58332 9.64863 10.1935C9.64863 10.8041 10.2558 11.3008 11.0021 11.3008ZM15.2234 22L19.293 17.9304H15.2234V22Z" fill="white"/>
<path d="M8.47559 0V1.22676V2.57984H13.5244V1.22676V0H8.47559Z" fill="white"/>
</svg>
