<svg width="26" height="26" viewBox="0 0 26 26" fill="none" xmlns="http://www.w3.org/2000/svg">
<path d="M13 1.21875C13.2795 1.21875 13.5411 1.274 13.7865 1.3845C14.029 1.48369 14.2493 1.63019 14.4345 1.81545C14.6198 2.0007 14.7663 2.22101 14.8655 2.4635C14.976 2.70725 15.0312 2.9705 15.0312 3.25C15.0312 3.5295 14.976 3.79112 14.8655 4.0365C14.7664 4.27907 14.62 4.49949 14.4349 4.68487C14.2478 4.87129 14.028 5.02167 13.7865 5.1285C13.537 5.23096 13.2697 5.28288 13 5.28125C12.7205 5.28125 12.4589 5.23087 12.2135 5.1285C11.7269 4.91218 11.3378 4.52309 11.1215 4.0365C11.019 3.78702 10.9671 3.51969 10.9687 3.25C10.9687 2.9705 11.0191 2.70887 11.1215 2.4635C11.2304 2.21812 11.3799 2.002 11.5651 1.81512C11.752 1.62987 11.9681 1.48525 12.2135 1.3845C12.4608 1.27383 12.729 1.21731 13 1.21875ZM4.27861 6.10675C4.27636 5.74949 4.38015 5.3996 4.57685 5.10136C4.77356 4.80313 5.05432 4.56996 5.38361 4.43137C5.60916 4.33092 5.85332 4.27901 6.10023 4.27901C6.34715 4.27901 6.5913 4.33092 6.81686 4.43137C7.03786 4.524 7.22798 4.65562 7.38886 4.82462C7.55786 4.9855 7.68948 5.17562 7.78211 5.395C7.88279 5.62078 7.93483 5.86522 7.93483 6.11243C7.93483 6.35965 7.88279 6.60409 7.78211 6.82987C7.59749 7.26447 7.25146 7.6105 6.81686 7.79512C6.35696 7.98271 5.84188 7.98271 5.38198 7.79512C5.16612 7.70472 4.96845 7.57588 4.79861 7.41487C4.63744 7.24454 4.50859 7.04631 4.41836 6.82987C4.32505 6.60025 4.27757 6.3546 4.27861 6.10675ZM3.24998 11.375C3.46355 11.3712 3.67554 11.4122 3.87229 11.4953C4.06905 11.5784 4.24621 11.7018 4.39236 11.8576C4.54813 12.0038 4.67155 12.1809 4.75468 12.3777C4.8378 12.5744 4.87879 12.7864 4.87498 13C4.87696 13.2177 4.8338 13.4335 4.74823 13.6337C4.57978 14.0203 4.27161 14.3291 3.88536 14.4982C3.68463 14.584 3.46827 14.6272 3.24998 14.625C3.03225 14.627 2.81646 14.5838 2.61623 14.4982C2.42423 14.4151 2.24825 14.2991 2.09623 14.1554C1.95192 14.0035 1.83532 13.8275 1.75173 13.6354C1.66594 13.4346 1.62278 13.2183 1.62498 13C1.62253 12.7877 1.66301 12.577 1.74399 12.3807C1.82497 12.1844 1.94478 12.0065 2.09623 11.8576C2.24544 11.7027 2.42478 11.58 2.62319 11.497C2.82161 11.414 3.03492 11.3725 3.24998 11.375ZM4.68486 19.8932C4.68719 19.6152 4.76989 19.3438 4.92299 19.1117C5.07609 18.8796 5.29306 18.6967 5.54773 18.5851C5.72232 18.5103 5.91028 18.4717 6.10023 18.4717C6.29018 18.4717 6.47815 18.5103 6.65273 18.5851C6.83148 18.6615 6.98261 18.7639 7.10936 18.8906C7.30762 19.0921 7.44228 19.3473 7.4966 19.6247C7.55092 19.9021 7.52249 20.1893 7.41486 20.4506C7.26272 20.7938 6.98266 21.0642 6.63426 21.2041C6.28586 21.344 5.89663 21.3424 5.54936 21.1997C5.21564 21.0515 4.94834 20.7853 4.79861 20.4522C4.72279 20.2757 4.68408 20.0854 4.68486 19.8932ZM13 21.5312C13.338 21.5312 13.6256 21.6499 13.8629 21.8871C13.978 21.999 14.069 22.1333 14.1302 22.2817C14.1914 22.4301 14.2215 22.5895 14.2187 22.75C14.2215 22.9105 14.1914 23.0699 14.1302 23.2183C14.069 23.3667 13.978 23.501 13.8629 23.6129C13.751 23.728 13.6167 23.819 13.4683 23.8802C13.3199 23.9414 13.1605 23.9715 13 23.9687C12.8395 23.9715 12.6801 23.9414 12.5317 23.8802C12.3833 23.819 12.249 23.728 12.1371 23.6129C12.022 23.501 11.931 23.3667 11.8698 23.2183C11.8086 23.0699 11.7785 22.9105 11.7812 22.75C11.7812 22.412 11.8999 22.1244 12.1371 21.8871C12.249 21.772 12.3833 21.681 12.5317 21.6198C12.6801 21.5586 12.8395 21.5285 13 21.5312ZM18.8776 19.8932C18.8776 19.6056 18.9751 19.3651 19.1701 19.1701C19.3651 18.9751 19.6056 18.8776 19.8932 18.8776C20.1809 18.8776 20.423 18.9751 20.6164 19.1701C20.8114 19.3651 20.9089 19.6056 20.9089 19.8932C20.9089 20.1809 20.8114 20.423 20.6164 20.6164C20.5222 20.7119 20.4094 20.7871 20.285 20.8374C20.1607 20.8877 20.0273 20.912 19.8932 20.9089C19.7591 20.912 19.6258 20.8877 19.5014 20.8374C19.3771 20.7871 19.2643 20.7119 19.1701 20.6164C19.0746 20.5222 18.9994 20.4094 18.9491 20.2851C18.8988 20.1607 18.8744 20.0274 18.8776 19.8932ZM22.75 12.1875C22.8567 12.1863 22.9625 12.2071 23.0609 12.2484C23.1593 12.2898 23.2482 12.3509 23.322 12.428C23.3991 12.5018 23.4602 12.5907 23.5016 12.6891C23.5429 12.7874 23.5637 12.8933 23.5625 13C23.5637 13.1067 23.5429 13.2126 23.5016 13.3109C23.4602 13.4093 23.3991 13.4982 23.322 13.572C23.2482 13.6491 23.1593 13.7102 23.0609 13.7516C22.9625 13.7929 22.8567 13.8137 22.75 13.8125C22.6433 13.8137 22.5374 13.7929 22.439 13.7516C22.3407 13.7102 22.2518 13.6491 22.178 13.572C22.1009 13.4982 22.0398 13.4093 21.9984 13.3109C21.957 13.2126 21.9363 13.1067 21.9375 13C21.9363 12.8933 21.957 12.7874 21.9984 12.6891C22.0398 12.5907 22.1009 12.5018 22.178 12.428C22.2518 12.3509 22.3407 12.2898 22.439 12.2484C22.5374 12.2071 22.6433 12.1863 22.75 12.1875ZM19.8932 3.87237C20.1987 3.87237 20.4864 3.93087 20.7561 4.05112C21.2912 4.28264 21.7182 4.70906 21.9505 5.24387C22.0691 5.51362 22.1292 5.80125 22.1292 6.10512C22.1292 6.41062 22.0691 6.69825 21.9505 6.96962C21.7182 7.50443 21.2912 7.93085 20.7561 8.16237C20.4846 8.28126 20.1913 8.34215 19.8949 8.34112C19.5894 8.34112 19.3017 8.281 19.0304 8.16237C18.496 7.93024 18.0697 7.50395 17.8376 6.96962C17.7185 6.69761 17.6576 6.40369 17.6589 6.10675C17.6589 5.80125 17.719 5.51362 17.8376 5.24387C18.0691 4.70875 18.4956 4.28174 19.0304 4.0495C19.3017 3.93087 19.5894 3.87075 19.8932 3.87075V3.87237Z" fill="white"/>
</svg>
