<svg width="136" height="55" viewBox="0 0 136 55" fill="none" xmlns="http://www.w3.org/2000/svg">
<path d="M55.1827 17.2433C55.7938 16.888 65.0333 12.8305 64.8393 11.9576C64.2248 9.1925 43.7047 13.993 42.1209 14.6005C36.5995 16.7183 26.5078 20.6709 23.5701 26.3917C21.5762 30.2745 24.1775 31.082 27.4327 30.915C35.6303 30.4946 43.5914 27.0663 51.7775 25.9851C54.7533 25.592 64.4205 23.2061 61.8915 29.1362C59.2471 35.3369 50.5357 38.1693 44.7638 40.5208C40.5053 42.2557 41.7299 40.4897 43.2899 37.3697" stroke="white" stroke-linecap="round" stroke-linejoin="round"/>
<path d="M64.3309 16.3286C64.3309 23.9512 61.8059 36.894 65.2457 43.7736" stroke="white" stroke-linecap="round" stroke-linejoin="round"/>
<path d="M62.5015 19.073C64.5877 26.7659 64.2946 34.9277 57.5207 40.47C55.5198 42.107 56.0497 38.1405 56.0976 37.1664C56.3031 32.988 58.9887 28.7252 62.1457 26.0359C65.3078 23.3422 76.4918 19.7857 78.2569 25.8834C79.5837 30.4667 78.4354 38.2845 72.5646 38.2845" stroke="white" stroke-linecap="round" stroke-linejoin="round"/>
<path d="M78.0531 27.3066C75.871 26.9574 62.5657 26.7358 69.413 32.3382C74.3111 36.3457 79.4767 33.525 83.3389 29.1362C88.0478 23.7851 86.3683 21.8176 79.9336 21.8176C75.6082 21.8176 76.6196 27.1732 80.0861 27.3066C84.587 27.4797 88.1163 21.9999 88.1163 17.7516C88.1163 13.153 87.1809 23.2406 90.1493 23.2406C92.2218 23.2406 93.3772 19.7539 93.5545 18.1582C93.9478 14.6186 92.9427 17.0086 94.1136 18.514C95.5924 20.4154 97.3597 10.1148 99.0943 13.5841" stroke="white" stroke-linecap="round" stroke-linejoin="round"/>
<path d="M99.0947 13.584C100.315 22.4274 101.534 31.2708 102.754 40.1142" stroke="white" stroke-linecap="round" stroke-linejoin="round"/>
</svg>
