<svg width="30" height="30" viewBox="0 0 30 30" fill="none" xmlns="http://www.w3.org/2000/svg">
<g clip-path="url(#clip0)">
<path d="M4.62844 27.8634C3.93273 28.0014 3.53788 24.1276 3.53788 24.1276C3.53788 24.1276 2.93402 24.2213 2.9349 25.799C1.14863 25.3569 1.91388 18.5604 1.91388 18.5604C1.91388 18.5604 0.846977 18.3741 0.0344172 19.0006C-0.266363 18.3741 1.49625 17.5862 1.49625 17.5862C1.49625 17.5862 1.07861 17.2607 0.335197 17.423C0.197628 16.9595 1.56626 16.6342 1.56626 16.6342C1.56626 16.6342 1.12593 16.1938 0.243908 16.2624C0.360679 15.6831 1.47442 15.6589 1.47442 15.6589C1.47442 15.6589 2.14504 12.3191 2.09963 11.7847C2.05423 11.2512 2.21648 10.4388 0.568741 12.8525C0.499281 7.35474 5.04591 7.35474 6.34557 6.14741C7.64418 4.94191 10.1632 4.32868 10.6841 3.8277C11.2055 3.32624 12.5172 2.08874 13.5378 2.13415C12.4013 3.01617 11.4721 4.15309 12.4467 3.85135C16.9958 2.32046 20.5906 2.90035 22.4009 3.89771C24.2104 4.89555 28.8284 8.37727 29.7332 13.4106C30.6378 18.4444 28.9796 18.9089 28.6199 19.7449C30.4757 24.3139 26.2765 27.6788 26.2765 27.6788C26.2765 27.6788 26.6473 20.5551 24.9306 19.6282C24.4439 19.3964 24.7674 21.3217 23.9805 21.9715C24.049 19.6058 23.1675 17.5175 23.1675 17.5175C23.1675 17.5175 23.4456 19.0488 22.9358 19.7209C22.844 18.0505 22.0543 16.9141 22.0543 16.9141C22.0543 16.9141 22.5178 18.6308 21.7762 19.1184C21.6844 17.5621 20.826 16.1706 20.826 16.1706C20.826 16.1706 20.6416 16.8084 20.7092 18.4222C20.2689 17.4934 16.8808 12.993 16.1838 14.2221C15.488 15.4522 20.0353 18.6308 20.0575 20.4171C18.528 18.8403 12.6113 13.6414 11.7988 13.2475C10.9863 12.8535 14.0731 17.5861 16.0902 19.0479C14.4438 18.8616 12.2854 16.6814 12.2854 16.6814C12.2854 16.6814 13.6541 19.1869 14.6747 20.0452C13.6305 20.5551 11.3334 17.4934 10.8468 16.8213C10.8931 17.5871 10.8616 18.7281 12.8805 20.1899C10.9548 20.8156 8.96828 15.5894 8.71291 16.1252C8.08626 18.8161 9.45402 20.7193 11.3107 22.2506C9.29272 22.2264 6.20593 18.4454 6.20593 18.4454C6.20593 18.4454 5.32486 21.6934 6.92617 22.3886C4.18723 22.5982 4.23359 26.3321 4.62844 27.8634Z" fill="white"/>
</g>
<defs>
<clipPath id="clip0">
<rect width="30" height="30" fill="white"/>
</clipPath>
</defs>
</svg>
