<svg width="26" height="26" viewBox="0 0 26 26" fill="none" xmlns="http://www.w3.org/2000/svg">
<g clip-path="url(#clip0)">
<path d="M23.3808 0.000140384L21.4717 1.9093L24.0904 4.52802L25.9995 2.61886L23.3808 0.000140384Z" fill="white"/>
<path d="M18.0411 0.824219L15.1773 3.68807C15.1034 3.76201 15.044 3.84925 15.0026 3.94517L13.3488 7.76974C13.214 8.08173 13.2832 8.44446 13.5235 8.68485L17.3141 12.4754C17.4728 12.6341 17.6849 12.7182 17.9004 12.7182C18.0113 12.7182 18.1231 12.6959 18.2291 12.6501L22.054 10.9967C22.15 10.9552 22.2373 10.8959 22.3112 10.8219L25.175 7.95808L18.0411 0.824219Z" fill="white"/>
<path d="M4.25197 19.1287L0.717773 22.6628L3.33649 25.2815L6.87068 21.7474L4.25197 19.1287Z" fill="white"/>
<path d="M14.5593 16.5262C14.5593 16.085 14.3875 15.6702 14.0755 15.3583L10.6428 11.9254C10.3308 11.6135 9.91599 11.4417 9.47481 11.4417C9.03363 11.4417 8.61891 11.6135 8.30691 11.9254L6.23833 13.994L4.12338 13.9498C3.89533 13.9448 3.67966 14.0327 3.51996 14.1924L0.24377 17.4686C-0.0799545 17.7923 -0.0799545 18.3171 0.24377 18.6408L1.32051 19.7175L3.66737 17.3706C3.82281 17.2152 4.03365 17.1278 4.25343 17.1278C4.47321 17.1278 4.6841 17.2151 4.83954 17.3706L8.63038 21.1615C8.95411 21.4852 8.95411 22.0099 8.63038 22.3337L6.28347 24.6806L7.36017 25.7573C7.522 25.9191 7.73416 26.0001 7.94627 26.0001C8.15838 26.0001 8.37054 25.9192 8.53233 25.7573L11.8086 22.481C11.9683 22.3213 12.0559 22.1034 12.0512 21.8777L12.007 19.7627L14.0755 17.6942C14.3875 17.3821 14.5593 16.9674 14.5593 16.5262ZM11.1973 17.0629C11.0355 17.2247 10.8233 17.3057 10.6112 17.3057C10.3991 17.3057 10.187 17.2248 10.0252 17.0629L8.93781 15.9755C8.61408 15.6518 8.61408 15.127 8.93781 14.8033C9.26148 14.4796 9.78629 14.4796 10.11 14.8033L11.1974 15.8907C11.521 16.2144 11.521 16.7393 11.1973 17.0629Z" fill="white"/>
</g>
<defs>
<clipPath id="clip0">
<rect width="26" height="26" fill="white"/>
</clipPath>
</defs>
</svg>
