<svg width="26" height="26" viewBox="0 0 26 26" fill="none" xmlns="http://www.w3.org/2000/svg">
<g clip-path="url(#clip0)">
<path d="M25.3313 8.96844L17.0327 0.669869C16.0468 -0.316002 14.4286 -0.194206 13.5937 0.906319L8.62445 7.43429C7.9393 8.33903 8.02777 9.62661 8.83055 10.4292L15.5713 17.1702C16.3739 17.9728 17.6603 18.0613 18.5662 17.3769L25.0946 12.4073C26.2044 11.5656 26.308 9.9436 25.3313 8.96844ZM21.774 10.9747L19.133 12.8972C18.8297 13.1143 18.4149 13.0793 18.1519 12.8163L13.1842 7.84867C12.921 7.58544 12.8867 7.17027 13.1031 6.86756L15.0264 4.22714C15.3079 3.83279 15.8657 3.81236 16.1847 4.13113L21.87 9.81644C22.2019 10.1483 22.1586 10.7 21.774 10.9747Z" fill="white"/>
<path d="M0.761719 26H5.07098C5.27332 26 5.46672 25.9196 5.60954 25.7768L13.8161 17.5697L8.43028 12.1837L6.68666 13.9271C6.54364 14.07 6.4633 14.2634 6.4633 14.4655C6.4633 14.6678 6.54364 14.8614 6.68666 15.0041L6.89256 15.2102L4.82997 15.8983C4.60225 15.9741 4.42372 16.152 4.34854 16.3795L3.39124 19.2495L0.520706 20.2068C0.209869 20.3101 0 20.6011 0 20.929V25.2383C0 25.6594 0.34079 26 0.761719 26Z" fill="white"/>
</g>
<defs>
<clipPath id="clip0">
<rect width="26" height="26" fill="white"/>
</clipPath>
</defs>
</svg>
