<svg width="26" height="26" viewBox="0 0 26 26" fill="none" xmlns="http://www.w3.org/2000/svg">
<path d="M19.8047 10.7148V9.95312C19.8047 9.5321 19.464 9.19141 19.043 9.19141H17.8349L16.5347 7.89115C16.3918 7.7483 16.1984 7.66797 15.9961 7.66797H15.2344V6.14453H15.9961C16.4171 6.14453 16.7578 5.80384 16.7578 5.38281C16.7578 4.96179 16.4171 4.62109 15.9961 4.62109C14.3313 4.62109 10.0224 4.62109 8.37891 4.62109C7.95788 4.62109 7.61719 4.96179 7.61719 5.38281C7.61719 5.80384 7.95788 6.14453 8.37891 6.14453H9.14062V7.66797H8.37891C8.17659 7.66797 7.98317 7.7483 7.84037 7.89115L6.31693 9.41459C6.17409 9.55739 6.09375 9.75081 6.09375 9.95312V17.5703C6.09375 17.7726 6.17409 17.9661 6.31693 18.1088L9.36381 21.1557C9.50661 21.2986 9.70003 21.3789 9.90234 21.3789H17.5195C17.8082 21.3789 18.0715 21.216 18.2009 20.9579L19.7244 17.911C19.7772 17.8054 19.8047 17.6886 19.8047 17.5703H21.4297V10.7148H19.8047ZM15.154 14.8641L13.6306 17.911C13.4434 18.2843 12.9887 18.4405 12.6085 18.2517C12.2321 18.0635 12.0796 17.606 12.2678 17.2296L13.2401 15.2852H11.4258C10.8618 15.2852 10.4905 14.6889 10.7444 14.1827L12.2678 11.1359C12.456 10.7602 12.9135 10.6077 13.2899 10.7952C13.6663 10.9834 13.8188 11.4409 13.6306 11.8173L12.6583 13.7617H14.4727C15.0366 13.7617 15.4079 14.3579 15.154 14.8641Z" fill="white"/>
<path d="M3.80859 9.19141C3.38757 9.19141 3.04688 9.5321 3.04688 9.95312V13H1.52344V9.95312C1.52344 9.5321 1.18275 9.19141 0.761719 9.19141C0.340691 9.19141 0 9.5321 0 9.95312V17.5703C0 17.9913 0.340691 18.332 0.761719 18.332C1.18275 18.332 1.52344 17.9913 1.52344 17.5703V14.5234H3.04688V17.5703C3.04688 17.9913 3.38757 18.332 3.80859 18.332H4.57031V9.19141H3.80859Z" fill="white"/>
<path d="M24.4766 9.19141H23.7148C23.2942 9.19141 22.9531 9.53245 22.9531 9.95312V19.0938C22.9531 19.5144 23.2942 19.8555 23.7148 19.8555H24.4766C25.318 19.8555 26 19.1734 26 18.332V10.7148C26 9.87345 25.318 9.19141 24.4766 9.19141Z" fill="white"/>
</svg>
