<svg width="26" height="26" viewBox="0 0 26 26" fill="none" xmlns="http://www.w3.org/2000/svg">
<path d="M14.5585 5.55428C14.5585 8.51496 12.1585 10.915 9.19783 10.915C6.23715 10.915 3.83716 8.51496 3.83716 5.55428C3.83716 2.5936 6.23715 0.193604 9.19783 0.193604C12.1585 0.193604 14.5585 2.5936 14.5585 5.55428Z" fill="white"/>
<path d="M15.0487 16.4994C13.4084 15.1386 11.3418 14.3983 9.21043 14.4082H9.19249C6.70845 14.4143 4.39369 15.3813 2.68329 17.134C1.03946 18.8262 0.0906547 21.1046 0 23.6007L14.8856 23.5705C13.5231 21.3922 13.5871 18.6123 15.0487 16.4994Z" fill="white"/>
<path d="M20.3791 14.5352C17.2749 14.5352 14.7585 17.0516 14.7585 20.1558C14.7585 23.26 17.2749 25.7764 20.3791 25.7764C23.4834 25.7764 25.9997 23.26 25.9997 20.1558C26.0122 18.6612 25.4242 17.2244 24.3672 16.1677C23.3105 15.1108 21.8738 14.5227 20.3791 14.5352ZM22.8268 20.5789H17.9315C17.698 20.5789 17.5084 20.3895 17.5084 20.1558C17.5084 19.9221 17.698 19.7328 17.9315 19.7328H22.8268C23.0605 19.7328 23.2499 19.9221 23.2499 20.1558C23.2499 20.3895 23.0605 20.5789 22.8268 20.5789Z" fill="white"/>
</svg>
