<svg width="26" height="26" viewBox="0 0 26 26" fill="none" xmlns="http://www.w3.org/2000/svg">
<path d="M13 5.14539C10.4754 5.14539 8.4292 7.19159 8.4292 9.71619C8.4292 12.2408 10.4754 14.287 13 14.287C15.5246 14.287 17.5708 12.2408 17.5708 9.71619C17.5708 7.19159 15.5246 5.14539 13 5.14539Z" fill="white"/>
<path d="M13 0.26001C5.96181 0.26001 0.26001 5.96181 0.26001 13C0.26001 16.0108 1.31301 18.7772 3.06021 20.9586C5.39501 23.8706 8.97781 25.74 13 25.74C17.0222 25.74 20.605 23.8706 22.9398 20.9586C24.687 18.7772 25.74 16.0134 25.74 13C25.74 5.96181 20.033 0.26001 13 0.26001ZM22.2638 20.1682C19.9602 17.6904 16.6686 16.1304 13 16.1304C9.33141 16.1304 6.03981 17.693 3.73621 20.1682C2.20221 18.187 1.27661 15.704 1.27661 13C1.27661 6.52601 6.52601 1.27401 13.0026 1.27401C19.4766 1.27401 24.7286 6.52341 24.7286 13C24.726 15.704 23.7978 18.1844 22.2638 20.1682Z" fill="white"/>
</svg>
