<svg width="30" height="30" viewBox="0 0 30 30" fill="none" xmlns="http://www.w3.org/2000/svg">
<path d="M22.5 11.7187C22.5 10.9434 21.8691 10.3124 21.0938 10.3124H20.8734C17.0367 10.3124 13.2281 9.36274 9.84234 7.56274C8.39109 8.38259 7.5 9.90134 7.5 11.5818V14.4093L7.69266 14.0624H7.96875C10.0364 14.0624 11.7188 15.7448 11.7188 17.8124V18.0885L9.05344 19.5693C10.4705 21.4124 12.6572 22.4999 15 22.4999C18.7111 22.4999 21.7927 19.7877 22.388 16.2435L21.5625 17.069L20.9611 16.4676L20.8913 16.747C20.7347 17.3732 20.1722 17.8124 19.5272 17.8124H18.75V17.0352C18.75 16.3898 19.1892 15.8273 19.815 15.6712L20.0944 15.6013L19.4934 14.9999L22.5 11.9934V11.7187Z" fill="white"/>
<path d="M17.2692 23.9555L23.9996 24.8733C24.4678 24.9371 24.908 25.081 25.3125 25.2839V13.3191L23.4272 15.2044C23.3349 19.036 20.6789 22.2357 17.1099 23.1596L17.2692 23.9555Z" fill="white"/>
<path d="M6.62344 15.9872C6.58547 15.6595 6.5625 15.3291 6.5625 15V11.5819C6.5625 9.46359 7.73953 7.55953 9.63422 6.61172L9.85359 6.5025L10.0683 6.61969C13.372 8.4225 17.1089 9.375 20.8734 9.375H21.0938C22.1841 9.375 23.0953 10.1273 23.3559 11.1375L25.0523 9.44109C23.9986 4.77281 19.8145 1.40625 15 1.40625C9.31359 1.40625 4.6875 6.03234 4.6875 11.7188V19.0247L5.24719 18.465L6.62344 15.9872Z" fill="white"/>
<path d="M8.90637 26.2754V24.623L9.15575 24.4913C10.0014 24.0441 10.5859 23.213 10.7378 22.2802C9.77028 21.7135 8.91387 20.9537 8.22668 20.0288L7.31637 20.5346L4.91309 22.9379C5.2384 23.738 5.89512 24.3751 6.71918 24.6671L7.03137 24.7768V25.1082C7.03137 26.468 7.8395 27.6933 9.08965 28.2291L9.44919 28.3829L9.36387 28.2127C9.06434 27.6146 8.90637 26.9443 8.90637 26.2754Z" fill="white"/>
<path d="M28.0676 7.96875C27.9293 7.96875 27.7938 8.02453 27.6959 8.1225L20.8184 15L21.5618 15.7434L28.4393 8.86594C28.5373 8.76797 28.593 8.6325 28.593 8.49422C28.593 8.20453 28.3573 7.96875 28.0676 7.96875Z" fill="white"/>
<path d="M8.23764 15.0127L6.20654 18.6685L7.11311 19.575L10.7689 17.5439C10.6414 16.2071 9.57451 15.1402 8.23764 15.0127Z" fill="white"/>
<path d="M23.8734 25.8028L16.4808 24.7945L16.1906 23.3438C15.8006 23.3991 15.4055 23.4375 15 23.4375C14.5973 23.4375 14.1998 23.4056 13.808 23.3503L13.5192 24.7945L9.84375 25.2956V26.2753C9.84375 26.7998 9.96797 27.3248 10.2023 27.7936L10.6022 28.5938H26.685C26.4778 27.1641 25.3383 26.002 23.8734 25.8028Z" fill="white"/>
<path d="M6.15838 25.7986L6.12697 25.8028C4.66166 26.002 3.52213 27.1641 3.31494 28.5937H7.86744C6.95432 27.9239 6.33978 26.9241 6.15838 25.7986Z" fill="white"/>
<path d="M5.625 19.4128L1.56 23.4778C1.46203 23.5758 1.40625 23.7113 1.40625 23.8496C1.40625 24.1392 1.64203 24.375 1.93172 24.375C2.07 24.375 2.20547 24.3192 2.30344 24.2213L6.36844 20.1563L5.625 19.4128Z" fill="white"/>
</svg>
