<svg width="30" height="30" viewBox="0 0 30 30" fill="none" xmlns="http://www.w3.org/2000/svg">
<g clip-path="url(#clip0)">
<path d="M2 30.6266H10.9295V27.1826C10.9279 26.6086 11.0402 26.04 11.2598 25.5096C11.4795 24.9793 11.8022 24.4978 12.2092 24.093C12.2237 24.0785 12.2393 24.0646 12.2549 24.0517C12.5855 23.7809 12.9356 23.5348 13.3025 23.3156C11.8855 22.7966 10.3446 21.845 8.30812 19.8638C7.54877 19.1203 6.87026 18.2985 6.28392 17.4121L2 19.7929V30.6266Z" fill="white"/>
<path d="M9.83785 -0.626587H2V18.516L5.03658 16.8283C4.65592 16.5656 4.33726 16.223 4.1029 15.8242C3.86855 15.4255 3.72417 14.9804 3.67986 14.52C3.62405 13.5445 3.52694 10.451 4.39589 9.58204C5.32567 8.65226 6.2934 8.43014 7.2723 8.91902C7.32586 8.94619 7.37482 8.98159 7.4174 9.02395L8.69711 10.3042V7.7448C8.69711 5.81659 9.43435 4.3555 11.1622 2.85814C12.5063 1.5488 13.9815 0.381082 15.5644 -0.626587H11.6662C10.3416 0.239299 9.23386 1.39823 8.42871 2.7606C7.62356 4.12297 7.14253 5.65227 7.02283 7.23024L5.90665 7.14318C6.01634 5.65264 6.42022 4.1986 7.09497 2.86502C7.76971 1.53144 8.70195 0.344726 9.83785 -0.626587Z" fill="white"/>
<path d="M21.7578 28.3934L22.643 27.5083L24.6441 29.5094L23.759 30.3946L21.7578 28.3934Z" fill="white"/>
<path d="M17.5184 -0.478638C15.4738 0.651335 13.5897 2.04987 11.9162 3.67971C10.415 4.98174 9.81223 6.15317 9.81223 7.74485V11.6515C9.81221 11.7619 9.77946 11.8697 9.71814 11.9615C9.65681 12.0533 9.56966 12.1248 9.46769 12.167C9.36573 12.2092 9.25353 12.2203 9.14529 12.1988C9.03705 12.1772 8.93762 12.1241 8.85957 12.0461L6.69584 9.88235C6.33197 9.72217 5.86763 9.68869 5.18397 10.3718C4.83516 10.7206 4.69787 12.742 4.78828 14.4118C4.85916 14.8901 5.17281 16.1162 6.46256 16.1162C6.55747 16.1165 6.65073 16.1411 6.7334 16.1877C6.81607 16.2343 6.88539 16.3014 6.93471 16.3824C7.5931 17.3222 8.31195 18.2182 9.08671 19.0646C12.3828 22.2714 14.2401 22.5499 16.0355 22.8195L16.3486 22.8809L13.8841 20.4163L14.6732 19.6272L18.3153 23.2693L18.8823 23.3809C19.0843 23.4209 19.2926 23.4167 19.4928 23.3685C19.693 23.3203 19.8804 23.2294 20.0421 23.1019C20.1638 22.9978 20.2606 22.8676 20.3253 22.7211C20.39 22.5746 20.421 22.4154 20.416 22.2553C20.4374 21.807 20.5764 21.3722 20.8189 20.9946C21.0614 20.6169 21.399 20.3097 21.7978 20.1038C21.9652 19.9621 21.8285 19.5429 21.6533 19.2589L21.3011 18.9067H18.7417V17.7905H21.3011L22.2242 16.8669C22.4692 16.532 22.4932 16.3311 22.184 15.8679C22.1712 15.8484 21.5908 14.6914 21.5908 14.6914C21.5561 14.6221 21.5363 14.5463 21.5325 14.4689C21.5288 14.3915 21.5412 14.3142 21.5689 14.2419C21.5967 14.1695 21.6392 14.1037 21.6938 14.0487C21.7484 13.9937 21.8139 13.9507 21.886 13.9224C22.4677 13.6839 23.0656 13.4869 23.6752 13.333C23.8308 13.3145 23.9778 13.2523 24.0994 13.1535C24.2209 13.0547 24.3119 12.9234 24.3617 12.7749C24.4142 12.5418 24.4016 12.2987 24.3251 12.0723C24.2486 11.8458 24.1112 11.6448 23.9281 11.4913L19.9957 6.9998C19.906 6.89709 19.8569 6.76507 19.8579 6.62867V5.55211C19.8618 3.31962 19.0268 1.16714 17.5184 -0.478638ZM6.48042 14.5776L5.92233 12.3452L7.00502 12.074L7.56312 14.3063L6.48042 14.5776ZM13.105 19.462C12.4662 19.3865 11.8508 19.1762 11.2995 18.8449C10.7482 18.5137 10.2736 18.069 9.9071 17.5405C9.56071 17.0155 9.33573 16.4199 9.24856 15.797L8.53476 16.5108L7.74561 15.7217L9.41989 14.0474C9.52455 13.9428 9.66648 13.884 9.81446 13.884C9.96245 13.884 10.1044 13.9428 10.209 14.0474L11.8833 15.7217L11.0942 16.5108L10.377 15.7937C10.4543 16.1973 10.611 16.5817 10.838 16.9244C11.1116 17.3174 11.4655 17.6478 11.8763 17.8938C12.2871 18.1398 12.7455 18.2958 13.2211 18.3514L13.105 19.462ZM16.8816 15.5621C15.6007 15.5642 14.3585 15.1233 13.3656 14.3142C12.7248 13.7838 12.2154 13.1124 11.8772 12.3525L11.3939 13.078L10.4652 12.4585L11.5814 10.7842C11.6452 10.6886 11.7371 10.615 11.8444 10.5735C11.9517 10.532 12.0692 10.5247 12.1808 10.5526L14.4131 11.1107L14.143 12.1934L12.8862 11.8792C13.1549 12.4896 13.5623 13.0289 14.0761 13.4541C14.912 14.1331 15.9667 14.4842 17.0429 14.442L17.092 15.5581C17.0306 15.5581 16.9592 15.5621 16.8794 15.5621H16.8816ZM15.3932 9.41913C14.8011 9.41913 14.2333 9.18393 13.8146 8.76528C13.396 8.34663 13.1608 7.77882 13.1608 7.18676H14.277C14.277 7.48279 14.3946 7.7667 14.6039 7.97602C14.8132 8.18535 15.0971 8.30295 15.3932 8.30295C15.6892 8.30295 15.9731 8.18535 16.1824 7.97602C16.3917 7.7667 16.5093 7.48279 16.5093 7.18676H17.6255C17.6255 7.77882 17.3903 8.34663 16.9717 8.76528C16.553 9.18393 15.9852 9.41913 15.3932 9.41913Z" fill="white"/>
<path d="M20.0845 26.7194L20.9696 25.8342L21.8548 26.7194L20.9696 27.6045L20.0845 26.7194Z" fill="white"/>
<path d="M17.5522 24.0942L18.3415 23.305L20.1363 25.0997L19.347 25.889L17.5522 24.0942Z" fill="white"/>
</g>
<defs>
<clipPath id="clip0">
<rect width="30" height="30" fill="white"/>
</clipPath>
</defs>
</svg>
