<svg width="30" height="30" viewBox="0 0 30 30" fill="none" xmlns="http://www.w3.org/2000/svg">
<path d="M14.9514 5.05033C16.346 5.05033 17.4766 3.91978 17.4766 2.52517C17.4766 1.13056 16.346 0 14.9514 0C13.5568 0 12.4263 1.13056 12.4263 2.52517C12.4263 3.91978 13.5568 5.05033 14.9514 5.05033Z" fill="white"/>
<path d="M15.8312 6.25439C15.202 6.12664 14.5179 6.13225 13.9 6.27792C9.7018 6.76984 8.33865 11.6291 8.72356 15.3342C8.89052 16.9361 11.4157 16.9529 11.247 15.3342C11.107 13.984 11.1669 11.9462 11.8846 10.4979C11.8846 12.2583 11.8846 14.0187 11.8846 15.7785C11.8846 15.8407 11.8908 15.899 11.8936 15.9589C11.8919 15.9875 11.8852 16.0116 11.8852 16.0407C11.8852 20.231 11.8779 24.4197 11.7048 28.6066C11.628 30.4678 14.514 30.4606 14.5902 28.6066C14.7258 25.3251 14.76 22.0419 14.7678 18.7581C14.9045 18.767 15.0412 18.767 15.1779 18.7592C15.1864 22.043 15.2194 25.3262 15.3539 28.6066C15.4306 30.4606 18.3166 30.4678 18.2393 28.6066C18.0662 24.4197 18.06 20.231 18.06 16.0407C18.06 15.9107 18.0426 15.7925 18.0163 15.6788C18.0124 13.8596 17.9429 12.0387 17.9642 10.2206C18.8237 11.6756 18.9021 13.8949 18.7531 15.3331C18.5839 16.9506 21.1096 16.9344 21.2766 15.3331C21.6704 11.5512 20.2417 6.5659 15.8312 6.25439Z" fill="white"/>
</svg>
