<svg width="30" height="30" viewBox="0 0 30 30" fill="none" xmlns="http://www.w3.org/2000/svg">
<path d="M10.0005 22.5H8.75049H7.50049V23.75H5.00049V26.25H7.50049V30H10.0005V26.25H12.5005V23.75H10.0005V22.5Z" fill="white"/>
<path d="M9.17925 20.8212C8.9178 20.5587 8.67112 20.2819 8.44034 19.9921C7.02342 19.924 5.67165 19.3767 4.60653 18.4398C3.54141 17.5028 2.82612 16.2319 2.57787 14.8353C2.32962 13.4386 2.56312 11.999 3.24013 10.7524C3.91713 9.50587 4.99749 8.52621 6.30415 7.97401C7.61081 7.42181 9.06629 7.32981 10.4321 7.7131C11.7979 8.09638 12.993 8.93221 13.8216 10.0836C14.6501 11.235 15.063 12.6338 14.9926 14.0506C14.9222 15.4674 14.3726 16.8182 13.4339 17.8818C14.1739 18.3885 15.0375 18.6847 15.9327 18.7388C17.0966 17.0563 17.6322 15.0183 17.446 12.9809C17.2598 10.9435 16.3636 9.03639 14.914 7.59269C13.4645 6.14899 11.5537 5.26056 9.51556 5.08263C7.47745 4.90471 5.44163 5.44861 3.76382 6.61929C2.08602 7.78998 0.872922 9.513 0.336512 11.4873C-0.199897 13.4616 -0.0255103 15.5616 0.829201 17.4203C1.68391 19.2791 3.16459 20.7784 5.01252 21.6563C6.86044 22.5342 8.9581 22.7349 10.9389 22.2232C10.3018 21.8232 9.7115 21.3529 9.17925 20.8212Z" fill="white"/>
<path d="M27.3984 6.92413L29.8498 6.43381L28.9659 2.01443C28.9175 1.77243 28.7985 1.55017 28.624 1.37566C28.4495 1.20115 28.2273 1.0822 27.9853 1.03381L23.5659 0.149902L23.0756 2.60131L25.2046 3.02725L21.4885 6.74334C20.4381 5.96027 19.2255 5.42256 17.94 5.16974C16.6544 4.91693 15.3285 4.95542 14.0598 5.28241C15.009 5.8801 15.8518 6.63211 16.5534 7.50741C17.9685 7.57553 19.3186 8.12226 20.3824 9.05802C21.4462 9.99378 22.1607 11.2631 22.4088 12.658C22.6569 14.0529 22.4239 15.4907 21.7479 16.7359C21.072 17.9811 19.9932 18.9598 18.6883 19.5116C17.3834 20.0635 15.9297 20.1559 14.5655 19.7735C13.2012 19.3912 12.0073 18.5569 11.1792 17.4073C10.3511 16.2577 9.93805 14.8609 10.0076 13.4458C10.0772 12.0307 10.6253 10.6812 11.5621 9.61835C10.8219 9.1123 9.95852 8.81604 9.06354 8.761C8.14486 10.0841 7.60926 11.6351 7.51574 13.2431C7.42222 14.8511 7.77442 16.4538 8.53353 17.8744C9.29264 19.2951 10.4292 20.4786 11.818 21.2946C13.2067 22.1105 14.7938 22.5273 16.4043 22.4989C18.0148 22.4706 19.5862 21.9982 20.9453 21.1338C22.3045 20.2694 23.3987 19.0466 24.1073 17.6001C24.8159 16.1536 25.1114 14.5395 24.9614 12.9358C24.8113 11.3321 24.2214 9.8009 23.2567 8.511L26.9724 4.79522L27.3984 6.92413Z" fill="white"/>
</svg>
