<svg width="30" height="30" viewBox="0 0 30 30" fill="none" xmlns="http://www.w3.org/2000/svg">
<g clip-path="url(#clip0)">
<path d="M4.62856 27.8632C3.93286 28.0013 3.53801 24.1275 3.53801 24.1275C3.53801 24.1275 2.93414 24.2212 2.93502 25.7989C1.14875 25.3567 1.914 18.5603 1.914 18.5603C1.914 18.5603 0.847099 18.3739 0.0345392 19.0005C-0.266241 18.3739 1.49637 17.5861 1.49637 17.5861C1.49637 17.5861 1.07874 17.2606 0.33532 17.4229C0.19775 16.9594 1.56638 16.634 1.56638 16.634C1.56638 16.634 1.12605 16.1937 0.24403 16.2623C0.360801 15.683 1.47454 15.6588 1.47454 15.6588C1.47454 15.6588 2.14516 12.319 2.09975 11.7846C2.05435 11.2511 2.21661 10.4386 0.568863 12.8524C0.499403 7.35462 5.04604 7.35462 6.34569 6.14729C7.64431 4.94179 10.1633 4.32856 10.6843 3.82758C11.2056 3.32612 12.5174 2.08862 13.5379 2.13403C12.4015 3.01605 11.4722 4.15296 12.4469 3.85123C16.996 2.32034 20.5907 2.90023 22.401 3.89759C24.2105 4.89543 28.8286 8.37715 29.7333 13.4105C30.6379 18.4443 28.9797 18.9087 28.62 19.7448C30.4758 24.3138 26.2766 27.6787 26.2766 27.6787C26.2766 27.6787 26.6474 20.555 24.9307 19.628C24.444 19.3962 24.7675 21.3216 23.9806 21.9714C24.0491 19.6057 23.1676 17.5174 23.1676 17.5174C23.1676 17.5174 23.4457 19.0487 22.9359 19.7208C22.8441 18.0504 22.0544 16.9139 22.0544 16.9139C22.0544 16.9139 22.5179 18.6307 21.7763 19.1182C21.6845 17.5619 20.8262 16.1705 20.8262 16.1705C20.8262 16.1705 20.6417 16.8083 20.7093 18.4221C20.269 17.4933 16.8809 12.9928 16.1839 14.222C15.4882 15.4521 20.0354 18.6307 20.0577 20.4169C18.5281 18.8402 12.6114 13.6413 11.7989 13.2473C10.9865 12.8534 14.0732 17.586 16.0903 19.0477C14.444 18.8614 12.2856 16.6813 12.2856 16.6813C12.2856 16.6813 13.6542 19.1868 14.6748 20.0451C13.6306 20.555 11.3335 17.4933 10.8469 16.8212C10.8932 17.5869 10.8618 18.728 12.8806 20.1898C10.9549 20.8155 8.96841 15.5893 8.71303 16.1251C8.08639 18.816 9.45415 20.7191 11.3108 22.2504C9.29284 22.2263 6.20605 18.4452 6.20605 18.4452C6.20605 18.4452 5.32499 21.6932 6.92629 22.3885C4.18736 22.5981 4.23372 26.332 4.62856 27.8632Z" fill="white"/>
</g>
<defs>
<clipPath id="clip0">
<rect width="30" height="30" fill="white"/>
</clipPath>
</defs>
</svg>
