<svg width="30" height="30" viewBox="0 0 30 30" fill="none" xmlns="http://www.w3.org/2000/svg">
<path d="M27.0501 20.6628L26.3872 20L24.981 21.4062C24.8931 21.4942 24.8438 21.6134 24.8438 21.7377C24.8438 21.862 24.8931 21.9812 24.981 22.0691L26.3872 23.4753L27.0501 22.8125L26.444 22.2064H29.0624V21.2689H26.444L27.0501 20.6628Z" fill="white"/>
<path d="M4.67516 20L4.01234 20.6628L4.61844 21.2689H2V22.2064H4.61844L4.01234 22.8125L4.67516 23.4753L6.08141 22.0691C6.16928 21.9812 6.21865 21.862 6.21865 21.7377C6.21865 21.6134 6.16928 21.4942 6.08141 21.4062L4.67516 20Z" fill="white"/>
<path d="M5.15625 16.875V11.25C4.65897 11.25 4.18206 11.4475 3.83042 11.7992C3.47879 12.1508 3.28125 12.6277 3.28125 13.125V15C3.28125 15.4973 3.47879 15.9742 3.83042 16.3258C4.18206 16.6775 4.65897 16.875 5.15625 16.875Z" fill="white"/>
<path d="M7.43203 9.35016L6.14297 6.77203L6.98203 6.35297L8.27016 8.93109L9.16453 8.4825C9.79872 8.16776 10.4571 7.90426 11.1333 7.69453L10.3364 5.30391L11.227 5.00766L12.0389 7.44516C12.857 7.25527 13.6918 7.14677 14.5312 7.12125V4.6875H15.4688V7.125C16.3058 7.15979 17.1376 7.27389 17.9531 7.46578L18.7725 5.00813L19.6631 5.30437L18.8597 7.71469C19.5323 7.92085 20.1892 8.17526 20.8252 8.47594L21.4045 8.76656L23.0452 6.30234L23.8252 6.82266L22.2469 9.18984L24.1875 10.163L25.7812 7.37719C25.7259 3.97969 23.4019 1.875 19.6875 1.875H9.84375C6.25781 1.875 4.26562 3.82734 4.21875 7.37672L5.8125 10.163L7.43203 9.35016Z" fill="white"/>
<path d="M23.9062 17.3437V11.0704L20.4145 9.31821C18.7316 8.48264 16.878 8.04785 14.9991 8.04785C13.1201 8.04785 11.2666 8.48264 9.58359 9.31821L6.09375 11.0704V17.3437C6.09375 20.2401 9.13219 24.3252 12 26.7084C14.6606 28.4704 15.6014 28.6991 17.9836 26.7243L17.9883 26.7187H16.875V25.7812H19.0345L17.9883 26.7187H16.875V25.7812H19.0345C21.5527 23.361 23.9062 19.8927 23.9062 17.3437ZM17.3438 10.7812H20.625V11.7187H17.3438V10.7812ZM13.5938 15.4687H14.5312V19.2187H16.4062V20.1562H14.0625C13.9382 20.1562 13.819 20.1068 13.731 20.0189C13.6431 19.931 13.5938 19.8117 13.5938 19.6874V15.4687ZM9.375 10.7812H12.6562V11.7187H9.375V10.7812ZM10.7812 15.4687C10.1599 15.4679 9.56417 15.2208 9.12479 14.7814C8.68541 14.342 8.43824 13.7463 8.4375 13.1249H9.375C9.375 13.4979 9.52316 13.8556 9.78688 14.1193C10.0506 14.383 10.4083 14.5312 10.7812 14.5312C11.1542 14.5312 11.5119 14.383 11.7756 14.1193C12.0393 13.8556 12.1875 13.4979 12.1875 13.1249H13.125C13.1243 13.7463 12.8771 14.342 12.4377 14.7814C11.9983 15.2208 11.4026 15.4679 10.7812 15.4687ZM16.875 22.9687H13.125V22.0312H16.875V22.9687ZM16.875 13.1249H17.8125C17.8125 13.4979 17.9607 13.8556 18.2244 14.1193C18.4881 14.383 18.8458 14.5312 19.2188 14.5312C19.5917 14.5312 19.9494 14.383 20.2131 14.1193C20.4768 13.8556 20.625 13.4979 20.625 13.1249H21.5625C21.5625 13.7465 21.3156 14.3427 20.876 14.7822C20.4365 15.2217 19.8404 15.4687 19.2188 15.4687C18.5971 15.4687 18.001 15.2217 17.5615 14.7822C17.1219 14.3427 16.875 13.7465 16.875 13.1249Z" fill="white"/>
<path d="M24.8438 16.875C25.341 16.875 25.8179 16.6775 26.1696 16.3258C26.5212 15.9742 26.7188 15.4973 26.7188 15V13.125C26.7188 12.6277 26.5212 12.1508 26.1696 11.7992C25.8179 11.4475 25.341 11.25 24.8438 11.25V16.875Z" fill="white"/>
</svg>
