<svg width="30" height="30" viewBox="0 0 30 30" fill="none" xmlns="http://www.w3.org/2000/svg">
<g clip-path="url(#clip0)">
<path d="M29.8062 13.7509C29.1141 13.4703 28.097 12.1497 27.0175 10.7527C25.0602 8.21306 22.841 5.33521 20.4497 5.33521C17.2902 5.33521 15.5663 7.25412 14.9699 8.08218C14.3025 7.33197 12.4765 5.592 9.90943 5.592C7.89399 5.592 5.43674 8.47679 3.27111 11.0219C2.02054 12.4899 0.839549 13.8764 0.208788 14.0912C0.0898061 14.1324 0.00785842 14.2413 0.000530408 14.3658C-0.00679761 14.4907 0.0623064 14.6088 0.176797 14.6624C1.23597 15.1618 2.32178 16.5099 3.57881 18.0699C5.33745 20.2543 7.33146 22.7298 9.98003 23.746C11.5927 24.364 13.3257 24.6652 15.2803 24.6652C17.1502 24.6652 18.962 24.3795 20.3307 24.1323C22.6836 23.7057 26.2019 19.0293 28.3029 16.2343C28.974 15.3408 29.6689 14.4175 29.8438 14.3049C29.9453 14.2468 30.0077 14.1342 29.9994 14.0161C29.9921 13.8978 29.9179 13.7948 29.8062 13.7509ZM26.558 14.6641C25.16 15.5883 21.6646 17.4691 16.0663 17.7265C10.2808 17.9882 6.00816 15.944 4.17805 14.8582C5.42397 14.5676 6.48055 13.9816 7.43082 13.4539C8.50836 12.8565 9.43988 12.3402 10.4112 12.3402C11.6124 12.3402 12.7961 12.7292 13.7469 13.0423C14.5099 13.2936 15.1155 13.4905 15.56 13.4576C15.9601 13.431 16.4902 13.2744 17.1036 13.0918C18.0365 12.8153 19.1983 12.4711 20.3179 12.4711C21.1226 12.4711 22.1545 12.9504 23.2466 13.4585C24.3306 13.9647 25.4447 14.4828 26.558 14.6641Z" fill="white"/>
</g>
<defs>
<clipPath id="clip0">
<rect width="30" height="30" fill="white"/>
</clipPath>
</defs>
</svg>
