<svg width="30" height="30" viewBox="0 0 30 30" fill="none" xmlns="http://www.w3.org/2000/svg">
<g clip-path="url(#clip0)">
<path d="M29.9837 23.5334C29.9406 23.8066 29.7051 24.0079 29.4284 24.0079H0.571634C0.295036 24.0079 0.0594789 23.8066 0.0163308 23.5334C0.00354099 23.4526 -0.269964 21.528 2.02869 19.3704C3.11189 18.3536 5.15503 17.8628 7.13084 17.3882C9.03709 16.9305 11.1976 16.4115 11.5113 15.5275C12.1983 13.5913 11.6621 10.986 11.6205 10.7918C10.0102 9.93779 8.76217 8.49015 8.24285 6.71237C8.15571 6.41427 8.32676 6.10211 8.62486 6.01497C8.92226 5.92769 9.23512 6.09888 9.32211 6.39698C10.0292 8.81735 12.3641 10.5076 15.0001 10.5076C17.6362 10.5076 19.9711 8.81735 20.6781 6.39698C20.7653 6.09902 21.0778 5.92811 21.3755 6.01497C21.6734 6.10211 21.8445 6.41427 21.7575 6.71237C21.2279 8.52501 19.9413 9.99556 18.2851 10.8424C18.2442 11.0672 17.8068 13.605 18.489 15.5275C18.8027 16.4115 20.9632 16.9305 22.8693 17.3882C24.8453 17.8628 26.8884 18.3535 27.9715 19.3704C30.27 21.528 29.9965 23.4524 29.9837 23.5334Z" fill="white"/>
</g>
<defs>
<clipPath id="clip0">
<rect width="30" height="30" fill="white"/>
</clipPath>
</defs>
</svg>
