<svg width="30" height="30" viewBox="0 0 30 30" fill="none" xmlns="http://www.w3.org/2000/svg">
<path d="M22.7539 17.1085C22.4136 16.1802 21.1567 12.6946 19.374 7.09228C17.2802 0.511411 15.4969 0 15.0003 0C14.5037 0 12.7204 0.511411 10.6266 7.09228C8.84483 12.6917 7.58715 16.1797 7.24667 17.1085C5.9893 17.6505 0.754594 20.1418 0.680477 24.074C0.661484 25.08 0.985439 25.9299 1.64292 26.5999C3.01657 27.9998 5.50445 28.2087 6.86512 28.2087C7.32419 28.2087 7.62035 28.1844 7.6327 28.1833C7.92608 28.1588 8.1611 27.9307 8.19476 27.6383C8.22842 27.3458 8.05069 27.0702 7.77044 26.9799C6.90496 26.7007 5.43048 25.9881 5.15872 25.2642C5.11224 25.1404 5.07889 24.9651 5.23423 24.7062C5.36362 24.4906 5.60481 24.204 6.20316 24.204C7.37205 24.204 8.90521 25.2492 9.32876 25.9271C9.50293 26.2056 9.65179 26.4765 9.79585 26.7382C10.2764 27.6117 10.7304 28.4367 11.8898 29.1534C13.1264 29.9175 14.4026 30 14.8939 30C14.9408 30 14.9767 29.9992 15.0004 29.9985C15.0241 29.9992 15.0601 30 15.107 30C15.5983 30 16.8745 29.9175 18.1111 29.1534C19.2705 28.4369 19.7245 27.6117 20.205 26.7382C20.3491 26.4765 20.498 26.2056 20.6721 25.9271C21.0957 25.2492 22.6287 24.204 23.7977 24.204C24.3961 24.204 24.6373 24.4906 24.7665 24.7062C24.922 24.9651 24.8885 25.1405 24.842 25.2644C24.5703 25.9882 23.0958 26.7008 22.2308 26.9797C21.9504 27.0697 21.7723 27.3452 21.8058 27.638C21.8393 27.9307 22.0747 28.1591 22.3682 28.1835C22.3807 28.1844 22.677 28.2088 23.1358 28.2088C23.1359 28.2088 23.1359 28.2088 23.1361 28.2088C24.4969 28.2088 26.9843 27.9998 28.358 26.6C29.0156 25.9299 29.3394 25.08 29.3204 24.074C29.246 20.1418 24.0113 17.6505 22.7539 17.1085Z" fill="white"/>
</svg>
