<svg width="30" height="30" viewBox="0 0 30 30" fill="none" xmlns="http://www.w3.org/2000/svg">
<g clip-path="url(#clip0)">
<path d="M6.8623 29.8509H14.9999H23.1375V28.7659H6.8623V29.8509Z" fill="white"/>
<path d="M23.8423 2.44948C23.5712 2.24073 23.2628 2.08539 22.9336 1.99176L19.7337 1.07732C19.645 1.05192 19.5642 1.00433 19.4991 0.939061L18.7091 0.14917C17.5664 0.757491 16.2945 1.08289 15 1.09802C13.7056 1.08289 12.4337 0.757491 11.2909 0.14917L10.501 0.939061C10.4358 1.00439 10.355 1.05198 10.2663 1.07738L7.06641 1.99176C6.73727 2.08539 6.42896 2.24073 6.15779 2.44948L0 7.18639L3.73026 12.7826L4.76723 11.9529L2.07097 7.90906C1.90833 7.6599 1.97674 7.32619 2.22436 7.16112C2.47197 6.99604 2.80627 7.06125 2.97372 7.3072L5.61759 11.2725L5.98085 10.9819C6.14373 10.8516 6.36689 10.8262 6.55493 10.9166C6.74297 11.007 6.86247 11.1971 6.86247 11.4057V27.681H23.1377V11.4057C23.1377 11.197 23.2572 11.0069 23.4453 10.9165C23.6332 10.8262 23.8564 10.8516 24.0193 10.9818L24.3826 11.2724L27.0264 7.30714C27.1933 7.05947 27.5288 6.99319 27.7773 7.15886C28.0258 7.32453 28.0936 7.65978 27.9292 7.909L25.2329 11.9529L26.2699 12.7826L30.0002 7.18633L23.8423 2.44948Z" fill="white"/>
</g>
<defs>
<clipPath id="clip0">
<rect width="30" height="30" fill="white"/>
</clipPath>
</defs>
</svg>
