<svg width="60" height="53" viewBox="0 0 60 60" fill="none" xmlns="http://www.w3.org/2000/svg">
<path d="M17.9646 39.7544L10.7366 33.4298L42.9974 6.90425C43.9369 6.13177 45.1807 7.38937 44.3979 8.32029L17.9646 39.7544Z" fill="#232323"/>
<path d="M17.0614 40.6581L9.8333 34.3335L0.399035 38.851C-0.323772 40.2967 0.0979374 42.4651 0.399107 43.3686L6.21927 38.851L0.798215 44.2721C2.24383 47.1633 5.01459 49.0908 6.21927 49.6931L9.8333 46.9826L8.02628 50.5967C9.4719 51.3195 11.038 51.5002 11.6403 51.5002L17.0614 40.6581Z" fill="#232323"/>
<path fill-rule="evenodd" clip-rule="evenodd" d="M59.5388 38.2191C57.8378 43.8621 50.6959 46.5985 42.1437 46.5985C33.6694 46.5985 27.3474 43.5279 25.7743 38.2148C25.5246 39.105 25.3945 40.0929 25.3945 41.1873C25.3945 48.1446 32.3241 52.2675 42.1437 52.2675C51.9632 52.2675 59.9235 48.66 59.9235 41.1873C59.9235 40.0898 59.7909 39.1039 59.5388 38.2191Z" fill="#232323"/>
<ellipse cx="42.3945" cy="38" rx="15" ry="7" fill="#232323"/>
</svg>
