<svg width="55" height="55" viewBox="0 0 55 55" fill="none" xmlns="http://www.w3.org/2000/svg">
<path d="M32.3608 23.611V23.1249C32.3608 20.7085 30.4019 18.7496 27.9856 18.7496H27.7433C25.4607 18.7496 23.6104 20.6 23.6104 22.8825V23.0979C23.6104 25.4463 25.6516 27.2733 27.9856 27.0139V27.0139C30.3196 26.7546 32.3608 28.5816 32.3608 30.93V31.8379C32.3608 34.2749 30.3852 36.2505 27.9482 36.2505V36.2505C25.5525 36.2505 23.6104 34.3084 23.6104 31.9127V30.4169" stroke="white" stroke-linecap="round" stroke-linejoin="round"/>
<path d="M52.7808 27.5C52.7808 33.6838 50.5142 39.653 46.4099 44.2783C42.3056 48.9036 36.6483 51.8641 30.5084 52.5996C24.3686 53.3351 18.1721 51.7946 13.0915 48.2696C8.01082 44.7446 4.39846 39.4795 2.9379 33.4708C1.47734 27.462 2.2699 21.1262 5.16561 15.6624C8.06132 10.1986 12.8593 5.98561 18.6517 3.82073C24.4441 1.65585 30.8292 1.6892 36.5986 3.91448C42.3681 6.13976 47.1218 10.4026 49.9603 15.8964" stroke="white" stroke-linecap="round" stroke-linejoin="round"/>
<path d="M13.75 13.75C17.1135 10.3865 21.5932 8.37249 26.3415 8.0891C31.0898 7.80572 35.7773 9.27259 39.517 12.2122C43.2567 15.1518 45.7892 19.3601 46.6353 24.041C47.4815 28.7219 46.5825 33.5505 44.1086 37.6133C41.6347 41.6761 37.7574 44.6912 33.2104 46.0881C28.6634 47.4849 23.7621 47.1667 19.4339 45.1936C15.1057 43.2205 11.6509 39.7294 9.7231 35.3808C7.79531 31.0322 7.5283 26.1278 8.97261 21.5957" stroke="white" stroke-linecap="round" stroke-linejoin="round"/>
<path d="M27.5 18.7499V15.8331" stroke="white" stroke-linecap="round" stroke-linejoin="round"/>
<path d="M27.5 39.1671V37.2225" stroke="white" stroke-linecap="round" stroke-linejoin="round"/>
</svg>
