<svg width="21" height="51" viewBox="0 0 21 51" fill="none" xmlns="http://www.w3.org/2000/svg">
<path d="M13.2891 31.9339C13.2891 31.9339 13.1818 31.9339 12.9964 31.9339V30.5447H12.1175V17.6989C12.1175 17.1812 11.9741 16.7628 11.7958 16.7628H11.474V4.08936C11.0281 5.01691 10.4319 5.99597 9.70971 6.94975C8.24753 8.87997 5.91952 11.1332 4.17138 11.1332C3.87832 11.1332 3.62383 11.052 3.39381 10.9273V16.7628C3.39381 16.7628 3.25011 16.7628 3.07206 16.7628C2.89424 16.7628 2.75006 17.1812 2.75006 17.6989V30.5447H1.874V31.9339C0.292461 31.9339 0 34.1352 0 34.1352V48.2648C0 48.2648 0.760691 50.4533 7.43476 50.3993C14.1088 50.3481 14.8698 48.2648 14.8698 48.2648V36.2778V34.1352C14.8698 31.9926 13.2891 31.9339 13.2891 31.9339Z" fill="#232323"/>
<path d="M11.2348 0.15941C12.1813 0.861362 11.2474 3.67513 9.14876 6.44586C7.05041 9.21659 4.58124 10.8931 3.63478 10.192C2.68832 9.49 3.622 6.67623 5.72083 3.9055C7.81882 1.13466 10.2882 -0.541588 11.2348 0.15941Z" fill="#232323"/>
<path d="M16.7097 11.8579C14.3419 11.8579 12.4207 12.3823 12.4207 13.0281V15.9131C12.78 16.1694 13.0646 16.69 13.0646 17.5822V29.4929H13.943V31.0049C14.8095 31.2902 15.8164 32.1236 15.8164 34.0176V41.4514C15.9643 41.4552 16.111 41.4605 16.2681 41.4605C19.9355 41.4605 21.0002 39.7054 21.0002 39.7054V13.0281C21.0001 12.3823 19.0803 11.8579 16.7097 11.8579Z" fill="#232323"/>
</svg>
