<svg width="44" height="48" viewBox="0 0 44 48" fill="none" xmlns="http://www.w3.org/2000/svg">
<path d="M7 30.5C6.38685 30.5 3.97222 29.6188 1.82722 28.757C0.713657 28.3096 -0.0199711 27.2184 0.11124 26.0255C0.459079 22.8632 1.53085 20.163 2 18.5C1.00001 16.5 0.681818 12 2.5 9.5C5.24072 5.73151 10.6222 3.16115 13.9953 1.9774C14.928 1.65008 15.6874 0.937741 16 0H28C28.3155 0.946434 29.0531 1.68882 29.9842 2.0472C37.5825 4.97204 42.0597 8.64918 43 11C44 13.5 43 18 43 18C43 18 44.5 26 43.5 27.5C42.7 28.7 38.6667 30 37 30.5C35.8 29.3 34.8333 24 34.5 21.5C32.9 24.7 32.8333 36.1667 33 41.5C31.4 46.7 24.3333 47.3333 21 47C14.5 47 11.5 42 11.5 41.5C12.3 32.7 10.5 24.5 9.5 21.5C8.93579 24.5 8 29 7 30.5Z" fill="#232323"/>
</svg>
