<svg width="16" height="16" viewBox="0 0 16 16" fill="none" xmlns="http://www.w3.org/2000/svg">
<path d="M7.0625 7.25C5.06366 7.25 3.4375 5.62384 3.4375 3.625C3.4375 1.62616 5.06366 0 7.0625 0C9.06134 0 10.6875 1.62616 10.6875 3.625C10.6875 5.62384 9.06134 7.25 7.0625 7.25Z" fill="white"/>
<path d="M8.46875 9.90622C8.46875 9.10372 8.69406 8.35287 9.08463 7.7135C8.47478 8.01641 7.78837 8.18747 7.0625 8.18747C6.121 8.18747 5.24525 7.90078 4.51784 7.41016C3.61841 7.75881 2.79328 8.29425 2.09069 8.99684C0.762625 10.3249 0.03125 12.0906 0.03125 13.9687V15.5312C0.03125 15.7901 0.241125 16 0.5 16H13.625C13.8839 16 14.0938 15.7901 14.0938 15.5312V13.9687C14.0938 13.9405 14.093 13.9123 14.0926 13.8841C13.6529 14.0399 13.18 14.125 12.6875 14.125C10.3613 14.125 8.46875 12.2324 8.46875 9.90622Z" fill="white"/>
<path d="M12.6875 6.625C10.8782 6.625 9.40625 8.09697 9.40625 9.90625C9.40625 11.7155 10.8782 13.1875 12.6875 13.1875C14.4968 13.1875 15.9688 11.7155 15.9688 9.90625C15.9688 8.09697 14.4968 6.625 12.6875 6.625ZM13.625 10.375H13.1562V10.8438C13.1562 11.1026 12.9464 11.3125 12.6875 11.3125C12.4286 11.3125 12.2188 11.1026 12.2188 10.8438V10.375H11.75C11.4911 10.375 11.2812 10.1651 11.2812 9.90625C11.2812 9.64738 11.4911 9.4375 11.75 9.4375H12.2188V8.96875C12.2188 8.70988 12.4286 8.5 12.6875 8.5C12.9464 8.5 13.1562 8.70988 13.1562 8.96875V9.4375H13.625C13.8839 9.4375 14.0938 9.64738 14.0938 9.90625C14.0938 10.1651 13.8839 10.375 13.625 10.375Z" fill="white"/>
</svg>
