<svg width="22" height="30" viewBox="0 0 22 30" fill="none" xmlns="http://www.w3.org/2000/svg">
<path d="M19.8815 5.13731C18.0608 1.99528 14.8269 0.0756866 11.2307 0.00232727C11.0772 -0.000836792 10.9227 -0.000836792 10.7691 0.00232727C7.17301 0.0756866 3.93911 1.99528 2.11836 5.13731C0.257309 8.34895 0.206391 12.2068 1.98213 15.457L9.42137 29.0734C9.42471 29.0795 9.42805 29.0855 9.43151 29.0915C9.75881 29.6604 10.3452 30 11.0001 30C11.6549 30 12.2413 29.6603 12.5685 29.0915C12.572 29.0855 12.5753 29.0795 12.5786 29.0734L20.0179 15.457C21.7935 12.2068 21.7426 8.34895 19.8815 5.13731ZM10.9999 13.5937C8.67372 13.5937 6.7812 11.7012 6.7812 9.37498C6.7812 7.04875 8.67372 5.15623 10.9999 5.15623C13.3262 5.15623 15.2187 7.04875 15.2187 9.37498C15.2187 11.7012 13.3262 13.5937 10.9999 13.5937Z" fill="#1BBD1B"/>
</svg>
