<svg width="12" height="17" viewBox="0 0 12 17" fill="none" xmlns="http://www.w3.org/2000/svg">
<path d="M2.472 0.199999H6.552C8.184 0.199999 9.392 0.567999 10.176 1.304C10.96 2.024 11.352 3.144 11.352 4.664V5.048C11.352 6.568 10.96 7.696 10.176 8.432C9.392 9.168 8.184 9.536 6.552 9.536H4.416V11.528H8.448V13.16H4.416V17H2.472V13.16H0.888V11.528H2.472V9.536H0.888V7.832H2.472V0.199999ZM9.408 5.048V4.664C9.408 3.688 9.184 2.984 8.736 2.552C8.288 2.12 7.56 1.904 6.552 1.904H4.416V7.832H6.552C7.56 7.832 8.288 7.616 8.736 7.184C9.184 6.752 9.408 6.04 9.408 5.048Z" fill="white" fill-opacity="0.4"/>
</svg>
