<svg width="40" height="40" viewBox="0 0 40 40" fill="none" xmlns="http://www.w3.org/2000/svg">
<g clip-path="url(#clip0)">
<path d="M36.8712 15.4589C36.8712 14.4143 36.3531 13.4436 35.4848 12.8625L21.7364 3.65781C20.6802 2.95103 19.3157 2.95103 18.2595 3.65781L4.5111 12.8625C3.64318 13.4436 3.12469 14.4143 3.12469 15.4589V38.4386C3.12469 39.3013 2.42523 40.0008 1.5625 40.0008C0.699461 40.0008 0 39.3013 0 38.4386V15.4589C0 13.3697 1.03668 11.4285 2.77251 10.2661L16.5213 1.06138C18.6331 -0.352492 21.3629 -0.352492 23.4747 1.06138L37.2231 10.2661C38.9596 11.4285 39.9959 13.3697 39.9959 15.4589C39.9959 16.3217 39.2965 17.0211 38.4334 17.0211C37.5707 17.0211 36.8712 16.3217 36.8712 15.4589ZM38.4334 21.7056C37.5707 21.7056 36.8712 22.405 36.8712 23.2677V38.4386C36.8712 39.3013 37.5707 40.0008 38.4334 40.0008C39.2965 40.0008 39.9959 39.3013 39.9959 38.4386V23.2677C39.9959 22.405 39.2965 21.7056 38.4334 21.7056ZM32.203 26.1394C33.2006 27.1798 33.7466 28.507 33.7466 29.9239V38.4386C33.7466 39.3013 33.0471 40.0008 32.1841 40.0008H28.0532C27.1905 40.0008 26.491 39.3013 26.491 38.4386V37.6574H13.5049V38.4386C13.5049 39.3013 12.8054 40.0008 11.9427 40.0008H7.81187C6.94883 40.0008 6.24937 39.3013 6.24937 38.4386V29.9599C6.24937 28.5229 6.82036 27.2088 7.76029 26.2008C7.78318 26.1452 7.80882 26.0903 7.83872 26.0363L10.7733 20.747C11.8679 18.7924 14.0139 17.5814 16.3772 17.5814H23.6163C25.9814 17.5814 28.1286 18.7939 29.2193 20.7455L32.1761 26.0842C32.1859 26.1022 32.1938 26.1211 32.203 26.1394ZM13.5028 22.2683L12.4191 24.2211H27.5726L26.4889 22.2646C25.9609 21.3198 24.8321 20.7061 23.6163 20.7061H16.3772C15.1623 20.7061 14.0341 21.3192 13.5028 22.2683ZM30.6219 29.9236C30.6219 28.5024 29.2611 27.3458 27.5887 27.3458H12.4075C10.7348 27.3458 9.37406 28.5186 9.37406 29.9599V34.5327H15.1968L16.4959 32.6345C16.7871 32.2091 17.2695 31.9549 17.7853 31.9549H22.2729C22.7737 31.9549 23.244 32.1947 23.5378 32.6L24.9389 34.5327H30.6219V29.9236ZM26.9503 29.4552C26.0876 29.4552 25.3881 30.1546 25.3881 31.0174C25.3881 31.8804 26.0876 32.5799 26.9503 32.5799C27.8133 32.5799 28.5128 31.8804 28.5128 31.0174C28.5128 30.1546 27.8133 29.4552 26.9503 29.4552ZM12.9675 29.4552C12.1045 29.4552 11.405 30.1546 11.405 31.0174C11.405 31.8804 12.1045 32.5799 12.9675 32.5799C13.8302 32.5799 14.5297 31.8804 14.5297 31.0174C14.5297 30.1546 13.8302 29.4552 12.9675 29.4552Z" fill="white"/>
</g>
<defs>
<clipPath id="clip0">
<rect width="40" height="40" fill="white"/>
</clipPath>
</defs>
</svg>
