<svg width="40" height="40" viewBox="0 0 40 40" fill="none" xmlns="http://www.w3.org/2000/svg">
<g clip-path="url(#clip0)">
<path d="M32.4283 19.5448C36.5278 15.8594 36.8635 9.54842 33.1781 5.44889C29.7979 1.68895 24.1402 1.05019 20.0069 3.96195C15.501 0.782004 9.27053 1.85686 6.09058 6.36261C3.17271 10.4971 3.80886 16.1606 7.57123 19.5447C2.8964 22.009 -0.021307 26.8673 -0.000129634 32.1518V36.4375C-0.000129634 37.2265 0.63946 37.8661 1.42846 37.8661H38.5711C39.3601 37.8661 39.9997 37.2265 39.9997 36.4375V32.1518C40.0208 26.8673 37.1031 22.009 32.4283 19.5448ZM25.7139 5.0091C29.6533 5.00475 32.8503 8.19466 32.8547 12.134C32.8578 14.9435 31.2115 17.493 28.6496 18.6461C28.5397 18.6961 28.4297 18.7418 28.3183 18.789C27.9657 18.9312 27.6021 19.0444 27.2311 19.1276C27.1597 19.1434 27.0882 19.1519 27.0154 19.1662C26.6009 19.2456 26.1803 19.2882 25.7582 19.2934C25.5682 19.2934 25.3768 19.279 25.1868 19.262C25.1154 19.262 25.0439 19.262 24.9725 19.2477C24.1606 19.1521 23.3707 18.9193 22.6368 18.5591C22.6097 18.5462 22.5782 18.5476 22.5511 18.5362C22.4082 18.4677 22.2654 18.4077 22.1382 18.3305C22.1497 18.3162 22.1568 18.3005 22.1682 18.2862C22.8233 17.4445 23.3397 16.5036 23.6982 15.4991L23.7424 15.3791C23.9054 14.8993 24.032 14.4079 24.121 13.909C24.1339 13.8362 24.1439 13.7661 24.1554 13.6876C24.238 13.1798 24.2814 12.6664 24.2854 12.1519C24.2813 11.6384 24.2378 11.1259 24.1554 10.619C24.1439 10.5448 24.1339 10.4761 24.121 10.3976C24.032 9.89881 23.9054 9.40738 23.7424 8.92758L23.6982 8.80755C23.3397 7.80301 22.8232 6.86216 22.1682 6.02043C22.1567 6.00611 22.1496 5.99046 22.1382 5.97615C23.2236 5.343 24.4575 5.00919 25.7139 5.0091ZM7.14267 12.152C7.13254 8.21735 10.3139 5.01948 14.2485 5.00935C16.0929 5.00458 17.8673 5.71532 19.1984 6.99199C19.2812 7.07201 19.3627 7.15195 19.4426 7.23482C19.6879 7.49188 19.9142 7.76643 20.1198 8.05622C20.1826 8.14478 20.2398 8.23911 20.2983 8.33052C20.498 8.6378 20.6732 8.96023 20.8226 9.2948C20.8583 9.37624 20.8854 9.45911 20.9168 9.54047C21.0674 9.91053 21.1859 10.2929 21.2711 10.6833C21.2812 10.7262 21.284 10.769 21.2926 10.8133C21.4735 11.7003 21.4735 12.6148 21.2926 13.5018C21.284 13.5461 21.2811 13.5889 21.2711 13.6318C21.186 14.0222 21.0675 14.4046 20.9168 14.7746C20.8854 14.8561 20.8582 14.9389 20.8226 15.0203C20.6731 15.3544 20.4978 15.6763 20.2983 15.9832C20.2397 16.0746 20.1826 16.1689 20.1198 16.2575C19.9143 16.5473 19.6879 16.8218 19.4426 17.0789C19.3626 17.1617 19.2811 17.2417 19.1984 17.3217C18.62 17.8729 17.9531 18.323 17.2255 18.6531C17.1098 18.7059 16.9926 18.7545 16.8741 18.796C16.5298 18.9327 16.1754 19.0425 15.8142 19.1245C15.7242 19.1445 15.6313 19.1559 15.5399 19.1716C15.152 19.2439 14.7586 19.2835 14.3641 19.2903H14.207C13.8125 19.2836 13.4192 19.2439 13.0313 19.1716C12.9399 19.1559 12.847 19.1445 12.757 19.1245C12.3957 19.0425 12.0413 18.9327 11.6971 18.796C11.5784 18.7489 11.4613 18.7003 11.3457 18.6531C8.78981 17.4991 7.14593 14.9562 7.14267 12.152ZM25.7139 35.009H2.85697V32.1519C2.83605 27.3109 5.88609 22.9888 10.454 21.3862C12.9063 22.4072 15.6646 22.4072 18.1169 21.3862C18.5938 21.5605 19.0587 21.7662 19.5083 22.002C19.8055 22.1548 20.0798 22.3291 20.3655 22.5048C20.5512 22.6205 20.7397 22.7334 20.9183 22.8605C21.194 23.0562 21.454 23.2691 21.7098 23.4876C21.8741 23.6305 22.0369 23.7733 22.1911 23.9162C22.4269 24.139 22.6483 24.3747 22.8611 24.6162C23.014 24.7905 23.1625 24.9676 23.304 25.1505C23.4912 25.3905 23.6697 25.6363 23.8354 25.8891C23.9783 26.1033 24.1055 26.3262 24.2311 26.5491C24.374 26.7947 24.5054 27.0405 24.6254 27.2962C24.7454 27.5519 24.8511 27.8319 24.9539 28.1048C25.0439 28.3419 25.1396 28.5777 25.2139 28.8191C25.3139 29.1504 25.3839 29.4933 25.4539 29.8362C25.4967 30.039 25.5525 30.2376 25.5839 30.4433C25.6685 31.0089 25.7119 31.5799 25.7139 32.1519V35.009H25.7139ZM37.1425 35.009H28.5711V32.1519C28.5711 31.7047 28.5454 31.2618 28.5054 30.8233C28.494 30.6947 28.474 30.5676 28.4597 30.439C28.4211 30.1233 28.3769 29.8105 28.3168 29.5004C28.2911 29.3681 28.264 29.2352 28.2354 29.1018C28.1668 28.7837 28.0873 28.4685 27.9968 28.1561C27.9669 28.0532 27.9397 27.9489 27.9083 27.8476C27.5082 26.5688 26.9286 25.3534 26.1869 24.2376L26.1311 24.1562C25.8855 23.7914 25.623 23.4386 25.344 23.0977L25.334 23.0848C25.0483 22.7305 24.7383 22.3862 24.4126 22.0605C24.4312 22.0605 24.4512 22.0605 24.4712 22.0605C24.8743 22.1135 25.2803 22.1421 25.6869 22.1462H25.7655C26.1418 22.1429 26.5176 22.1186 26.8913 22.0734C27.0084 22.059 27.1241 22.0376 27.2412 22.019C27.5451 21.9724 27.8451 21.9119 28.1412 21.8376C28.2255 21.8162 28.3112 21.7962 28.3969 21.7719C28.7856 21.6662 29.1673 21.5364 29.5398 21.3834C34.1111 22.9844 37.1639 27.3084 37.1426 32.1519V35.009H37.1425Z" fill="white"/>
</g>
<defs>
<clipPath id="clip0">
<rect width="40" height="40" fill="white"/>
</clipPath>
</defs>
</svg>
