<svg width="36" height="36" viewBox="0 0 36 36" fill="none" xmlns="http://www.w3.org/2000/svg">
<path d="M12.6115 14.6667C12.69 14.7345 12.7758 14.7939 12.8666 14.8449L11.4173 16.5239C10.8588 17.171 10.9306 18.1484 11.5776 18.707C12.2247 19.2655 13.2021 19.1937 13.7607 18.5467L15.1975 16.8821C15.2396 16.9284 15.2834 16.9731 15.3308 17.0139C15.6307 17.2728 16.0292 17.4173 16.4555 17.3858C17.308 17.3232 17.9484 16.5814 17.8858 15.7288L17.706 13.2819C17.6731 12.8337 17.4513 12.4454 17.1255 12.1858C16.8211 11.9014 16.4046 11.7387 15.9563 11.7716L13.5095 11.9514C12.657 12.014 12.0167 12.7558 12.0793 13.6084C12.1106 14.0347 12.3117 14.4079 12.6115 14.6667Z" fill="white"/>
<path d="M29.5826 1C29.266 2.36962 29.2182 5.3296 30.1523 7.11552C31.0604 8.85179 32.9239 11.462 34.746 13.4417C34.9059 13.6155 35.0077 13.8382 34.9946 14.0739C34.9295 15.2479 34.2541 17.0532 31.8616 17.0532C31.5134 17.6584 31.3298 19.7288 33.0011 21.6399C32.9694 22.5636 32.5453 24.0288 31.4817 24.0288C32.3364 24.3154 32.8871 27.3541 30.1523 27.6598C30.0934 27.7251 30.04 27.815 29.9969 27.9349C29.1569 30.2753 30.2298 33.3564 28.0186 34.4939C27.0335 35.0007 25.7529 35.2088 24.1699 34.7309C19.422 33.2976 1.85463 30.8132 1 22.9777" stroke="white" stroke-width="2" stroke-linecap="round" stroke-linejoin="round"/>
<path d="M33.001 21.6399C32.3996 21.6399 30.798 21.8501 29.2027 22.691C27.6074 23.5319 27.0186 23.4554 27.0186 23.4554C27.4301 24.6658 28.6329 27.2776 30.1523 27.6599" stroke="white" stroke-width="2"/>
<path d="M32.193 23.2137C31.3067 23.5322 28.3575 24.3603 26.9142 23.2137" stroke="white" stroke-width="2"/>
<path d="M22.1152 15.5099C21.7553 12.2606 19.7792 7.69254 14.4681 4.86326" stroke="white" stroke-width="2" stroke-linecap="round" stroke-linejoin="round"/>
</svg>
