<svg width="40" height="30" viewBox="0 0 40 30" fill="none" xmlns="http://www.w3.org/2000/svg">
<path d="M35.9853 23.2529C35.982 23.1491 35.9678 23.0458 35.9439 22.9444L38.1609 22.8759C39.0152 22.8495 39.6865 22.1354 39.6601 21.2811C39.6337 20.4267 38.9196 19.7554 38.0652 19.7818L35.8674 19.8497C35.873 19.7874 35.8762 19.7249 35.8743 19.6624C35.862 19.2664 35.6988 18.8751 35.3873 18.5825C34.7644 17.997 33.785 18.0273 33.1994 18.6501L31.519 20.4377C31.2112 20.7652 31.0752 21.1912 31.1045 21.6068C31.101 22.0233 31.2629 22.4402 31.5904 22.748L33.378 24.4284C34.0009 25.0139 34.9804 24.9836 35.5659 24.3607C35.8586 24.0493 35.9975 23.6487 35.9853 23.2529Z" fill="white"/>
<path d="M24.5386 1C24.2779 2.12792 24.2385 4.56555 25.0078 6.03631C25.7484 7.45232 27.2606 9.57413 28.7471 11.1986C28.9066 11.3728 29.0094 11.5958 28.9913 11.8312C28.9168 12.7981 28.3425 14.2203 26.4154 14.2203C26.1287 14.7187 25.9775 16.4237 27.3538 17.9976C27.3278 18.7582 26.9785 19.9649 26.1026 19.9649C26.8064 20.2009 27.26 22.7034 25.0078 22.9552V22.9552C23.5204 24.6016 25.0526 27.8201 23.0136 28.6949C22.2374 29.028 21.2613 29.1347 20.0811 28.7784C16.171 27.598 1.70381 25.552 1 19.0992" stroke="white" stroke-width="2" stroke-linecap="round" stroke-linejoin="round"/>
<path d="M27.3538 17.9976C26.8585 17.9976 25.5395 18.1707 24.2258 18.8632C22.912 19.5557 22.4271 19.4927 22.4271 19.4927C22.766 20.4895 23.7565 22.6404 25.0078 22.9552" stroke="white" stroke-width="2"/>
<path d="M26.6883 19.2936C25.9584 19.5559 23.5297 20.2379 22.3411 19.2936" stroke="white" stroke-width="2"/>
<path d="M18.389 12.9493C18.0926 10.2734 16.4652 6.5115 12.0914 4.1815" stroke="white" stroke-width="2" stroke-linecap="round" stroke-linejoin="round"/>
</svg>
