<svg id="Layer_1" fill="#fff" enable-background="new 0 0 512.081 512.081" height="512" viewBox="0 0 512.081 512.081" width="512" xmlns="http://www.w3.org/2000/svg"><path d="m429.795 405.113c-3.942-2.544-9.205-1.408-11.749 2.538-3.661 5.678-8.112 10.806-13.229 15.24-3.548 3.074-3.932 8.442-.857 11.99 3.063 3.536 8.432 3.941 11.99.857 6.336-5.491 11.849-11.841 16.384-18.875 2.543-3.945 1.407-9.206-2.539-11.75z"/><path d="m348.169 299.272c6.571-.946 13.433-.983 20.192-.032 4.657.655 8.947-2.586 9.6-7.235.653-4.648-2.585-8.947-7.234-9.6-8.259-1.16-16.723-1.147-24.979.04-4.646.669-7.871 4.978-7.202 9.624.663 4.615 4.937 7.871 9.623 7.203z"/><path d="m311.885 315.893c5.115-4.441 10.819-8.118 16.952-10.93 4.268-1.956 6.141-7.001 4.185-11.269-1.955-4.269-7.003-6.141-11.269-4.185-7.605 3.486-14.675 8.044-21.013 13.546-3.545 3.078-3.924 8.446-.847 11.991 3.084 3.551 8.453 3.92 11.992.847z"/><path d="m446.287 369.245c0-4.857-3.899-8.549-8.5-8.549-4.551 0-8.528 3.625-8.499 8.67 0 6.794-.96 13.51-2.854 19.96-1.321 4.505 1.258 9.228 5.763 10.55 4.492 1.321 9.225-1.249 10.55-5.762 2.359-8.037 3.54-16.316 3.54-24.869z"/><path d="m348.323 439.483c-6.695-.948-13.205-2.849-19.348-5.649-4.267-1.945-9.313-.063-11.26 4.208s-.063 9.313 4.209 11.26c10.943 4.989 22.497 7.097 25.217 7.097 4.166 0 7.805-3.065 8.405-7.309.659-4.647-2.575-8.949-7.223-9.607z"/><path d="m420.478 319.198c-3.939 2.552-5.065 7.815-2.513 11.755 3.679 5.679 6.515 11.838 8.429 18.306 1.33 4.493 6.051 7.072 10.563 5.738 4.501-1.333 7.069-6.062 5.737-10.563-2.377-8.03-5.896-15.675-10.462-22.723-2.55-3.939-7.814-5.066-11.754-2.513z"/><path d="m288.679 397.29c7.361-.586 74.685 15.999 89.754 1.136 23.995-23.669.558-75.444 16.706-89.625 9.907 6.012 10.022 9.005 15.11 9.005 7.827 0 11.531-9.782 5.556-14.936-1.253-1.082-2.543-2.115-3.852-3.122 1.061-.532 2.183-1.093 3.39-1.695 10.669-5.317 14.541-18.65 8.311-28.844-23.758-38.865-28.424-55.834-27.572-59.377 3.828-15.293 13.985-65.487-6.779-99.83 14.651-13.348 27.269-31.971 34.331-58.474 1.506-5.654-3.402-10.984-9.168-9.929-.741.135-74.747 13.01-140.804-24.585-73.115-41.614-177.903-5.685-202.423 94.552-26.342 107.686 50.788 189.028 63.141 233.923-3.707 38.042-21.502 72.908-52.927 103.646-4.386 4.29-2.502 11.763 3.44 13.424 51.744 14.459 137.535 40.098 147.463 47.341 3.179 2.319 7.056 2.817 10.644 1.356 6.238-2.542 11.979-10.639 19.717-41.895 13.877-56.06 8.494-62.256 18.087-69.172 2.963.493 5.95-.619 7.875-2.899zm-197.948-183.906c-22.571-73.833-1.856-156.717 68.925-187.206 35.001-15.077 74.649-13.153 106.092 4.742 54.973 31.287 113.415 30.377 138.747 28.056-24.187 64.766-90.059 66.122-111.422 75.97-10.826 4.992-16.288 21.066-17.707 52.12-.949 20.771.269 43.062 1.175 55.506-3.626-.481-6.886-2.578-8.846-5.693-1.43-2.271-10.589-25.516-30.054-36.524-9.126-13.042-28.008-23.753-42.706-18.57-13.842 4.879-18.827 22.074-18.516 36.666-19.321 27.761-26.31 76.649-31.133 110.036-12.579-29.814-40.19-68.117-54.555-115.103zm139.886 55.157c0 2.998-2.109 4.341-3.017 4.779-3.341 1.613-5.43-.502-7.324-2.093-18.362-15.55-33.727-44.852-25.732-67.099 7.026-19.529 36.073.754 36.073 24.867zm28.144 139.057c-9.313 55.354-16.979 79.511-21.047 87.007-21.894-10.996-100.702-33.912-135.611-43.82 24.149-26.467 39.485-55.69 45.767-87.191 18.763-1.556 7.81-61.827 33.437-120.769 6.14 16.532 17.418 31.78 30.851 42.438 14.042 11.141 34.46.762 34.46-16.723v-37.034c2.16 3.402 4.114 7.054 5.799 10.695 4.631 10.008 14.729 16.475 25.726 16.475 8.506 0 15.114-7.255 14.481-15.607-1.327-17.472-2.071-37.831-1.273-55.274 1.59-34.776 8.354-38.289 8.423-38.32 11.41-5.262 46.353-8.595 76.871-29.445 13.162 23.564 10.465 59.747 3.916 85.918-1.029 4.114-4.162 16.633 29.441 71.606 1.331 2.177.511 5.03-1.795 6.179-5.401 2.692-9.362 4.699-12.296 6.211-.388-.183-.772-.376-1.163-.554-6.174-2.806-12.93 2.411-11.915 9.019-21.285 21.816 1.184 71.68-15.52 88.512-.946.557-11.674 5.674-71.72-5.187-2.379-.43-4.762-.579-7.117-.474-.657-3.887-1-7.838-1.005-11.819-.009-8.204-9.276-8.833-8.51-8.49-4.694.005-8.495 3.815-8.49 8.51.007 5.812.595 11.577 1.726 17.226-7.262 4.913-12.004 12.393-13.436 20.911z"/><path d="m312 422.939c-5.122-4.427-9.578-9.55-13.244-15.224-2.549-3.943-7.811-5.074-11.753-2.526s-5.074 7.81-2.526 11.752c4.543 7.03 10.063 13.375 16.406 18.859 3.544 3.065 8.915 2.685 11.989-.872 3.07-3.551 2.68-8.919-.872-11.989z"/><path d="m279.76 355.253c4.504 1.315 9.225-1.265 10.543-5.773 1.893-6.472 4.708-12.64 8.37-18.334 2.539-3.948 1.396-9.208-2.552-11.747-3.948-2.538-9.208-1.396-11.747 2.552-4.544 7.065-8.039 14.723-10.388 22.759-1.317 4.505 1.268 9.226 5.774 10.543z"/><path d="m387.853 433.802c-6.139 2.806-12.645 4.714-19.338 5.67-4.647.664-7.876 4.969-7.213 9.617.662 4.627 4.947 7.877 9.617 7.212 8.306-1.187 16.381-3.554 24.002-7.038 4.27-1.952 6.148-6.995 4.196-11.264-1.952-4.272-6.998-6.148-11.264-4.197z"/><path d="m128.026 208.813c-14.958-37.837-7.228-80.087-7.137-80.571.826-4.337-2.017-8.524-6.354-9.355-4.346-.829-8.532 2.013-9.362 6.353-.365 1.906-8.746 47.164 7.974 89.455 1.623 4.108 6.269 6.123 10.381 4.499 4.109-1.624 6.123-6.272 4.498-10.381z"/><path d="m120.335 106.998c4.54 0 8.013-3.667 8.013-8 0-4.418-3.595-8-8.013-8s-8 3.582-8 8 3.582 8 8 8z"/></svg>