<svg width="55" height="55" viewBox="0 0 55 55" fill="none" xmlns="http://www.w3.org/2000/svg">
<path d="M23.324 28.7719L23.4595 28.6171L24.119 27.8636L24.1336 27.847L24.1489 27.831C25.97 25.927 26.9377 23.5482 26.9377 20.4481C26.9377 18.1287 26.143 16.4467 24.9871 15.3422C23.8204 14.2275 22.2158 13.6346 20.4908 13.6346C18.7665 13.6346 17.2058 14.2257 16.0802 15.3323C14.962 16.4316 14.197 18.115 14.197 20.4481C14.197 23.5143 15.6585 26.6715 17.5202 28.6064L17.6632 28.7551L17.7358 28.9482C18.2365 30.2816 18.0418 31.4524 17.6593 32.3024C17.4713 32.7201 17.2379 33.0622 17.0182 33.317C16.9084 33.4443 16.7952 33.5577 16.684 33.6517C16.5958 33.7262 16.4352 33.8528 16.2333 33.9286L16.2261 33.9313L16.2261 33.9313C14.2358 34.6616 12.1016 35.6842 10.4859 36.8269C9.67738 37.3987 9.03439 37.9758 8.60229 38.531C8.16734 39.0898 8 39.5553 8 39.9286V39.9329V39.9371V39.9413V39.9455V39.9497V39.9538V39.9579V39.9619V39.966V39.97V39.974V39.978V39.9819V39.9858V39.9897V39.9936V39.9974V40.0012V40.005V40.0088V40.0126V40.0163V40.02V40.0236V40.0273V40.0309V40.0345V40.0381V40.0416V40.0451V40.0486V40.0521V40.0556V40.059V40.0624V40.0658V40.0692V40.0725V40.0758V40.0791V40.0824V40.0856V40.0888V40.092V40.0952V40.0984V40.1015V40.1046V40.1077V40.1108V40.1138V40.1169V40.1199V40.1229V40.1258V40.1288V40.1317V40.1346V40.1375V40.1403V40.1432V40.146V40.1488V40.1516V40.1543V40.1571V40.1598V40.1625V40.1652V40.1678V40.1705V40.1731V40.1757V40.1783V40.1808V40.1834V40.1859V40.1884V40.1909V40.1934V40.1958V40.1983V40.2007V40.2031V40.2055V40.2078V40.2102V40.2125V40.2148V40.2171V40.2194V40.2216V40.2239V40.2261V40.2283V40.2305V40.2326V40.2348V40.2369V40.2391V40.2412V40.2432V40.2453V40.2474V40.2494V40.2514V40.2535V40.2554V40.2574V40.2594V40.2613V40.2633V40.2652V40.2671V40.269V40.2708V40.2727V40.2745V40.2764V40.2782V40.28V40.2818V40.2835V40.2853V40.287V40.2888V40.2905V40.2922V40.2939V40.2956V40.2972V40.2989V40.3005V40.3021V40.3038V40.3054V40.3069V40.3085V40.3101V40.3116V40.3132V40.3147V40.3162V40.3177V40.3192V40.3207V40.3221V40.3236V40.325V40.3265V40.3279V40.3293V40.3307V40.3321V40.3335V40.3348V40.3362V40.3375V40.3389V40.3402V40.3415V40.3428V40.3441V40.3454V40.3467V40.3479V40.3492V40.3505V40.3517V40.3529V40.3541V40.3554V40.3566V40.3578V40.3589V40.3601V40.3613V40.3624V40.3636V40.3647V40.3659V40.367V40.3681V40.3692V40.3704V40.3715V40.3725V40.3736V40.3747V40.3758V40.3768V40.3779V40.3789V40.38V40.381V40.382V40.3831V40.3841V40.3851V40.3861V40.3871V40.3881V40.3891V40.3901V40.391V40.392V40.393V40.3939V40.3949V40.3958V40.3968V40.3977V40.3987V40.3996V40.4005V40.4015V40.4024V40.4033V40.4042V40.4051V40.406V40.4069V40.4078V40.4087V40.4096V40.4105V40.4114V40.4122V40.4131V40.414V40.4149V40.4157V40.4166V40.4175V40.4183V40.4192V40.42V40.4209V40.4217V40.4226V40.4234V40.4243V40.4251V40.426V40.4268V40.4277V40.4285V40.4293V40.4302V40.431V40.4319V40.4327V40.4335V40.4344V40.4352V40.436V40.4369V40.4377V40.4386V40.4394V40.4402V40.4411V40.4419V40.4427V40.4436V40.4444V40.4453V40.4461V40.447V40.4478V40.4486V40.4495V40.4503V40.4512V40.452V40.4529V40.4538V40.4546V40.4555V40.4563V40.4572V40.4581V40.459V40.4598V40.4607V40.4616V40.4625V40.4634V40.4642V40.4651V40.466V40.4669V40.4678V40.4688V40.4697V40.4706V40.4715V40.4724V40.4734V40.4743V40.4752V40.4762V40.4771V40.4781V40.479V40.48V40.481V40.4819V40.4829V40.4839V40.4849V40.4859V40.4869V40.4879V40.4889V40.4899V40.4909V40.492V40.493V40.4941V40.4951V40.4962V40.4972V40.4983V40.4994V40.5005V40.5016V40.5027V40.5038V40.5049V40.506V40.5071V40.5083V40.5094V40.5106V40.5118V40.5129V40.5141V40.5153V40.5165V40.5177V40.5189V40.5201V40.5214V40.5226V40.5239V40.5251V40.5264V40.5277V40.529V40.5303V40.5316V40.5329V40.5342V40.5356V40.5369V40.5383V40.5396V40.541V40.5424V40.5438V40.5452V40.5467V40.5481V40.5495V40.551V40.5525V40.554V40.5555V40.557V40.5585V40.56V40.5615V40.5631V40.5647V40.5662V40.5678V40.5694V40.5711V40.5727V40.5743V40.576V40.5776V40.5793V40.581V40.5827V40.5845V40.5862V40.5879V40.5897V40.5915V40.5933V40.5951V40.5969V40.5987V40.6006V40.6024V40.6043V40.6062V40.6081V40.61V40.612V40.6139V40.6159V40.6179V40.6199V40.6219V40.6239V40.626V40.628V40.6301V40.6322V40.6343V40.6364V40.6386V40.6407V40.6429V40.6451V40.6473V40.6495V40.6518V40.6541V40.6563V40.6586V40.6609V40.6633V40.6656V40.668V40.6704V40.6728V40.6752V40.6776V40.6801V40.6826V40.6851V40.6876V40.6901V40.6927V40.6952V40.6978V40.7004V40.7031V40.7057V40.7084V40.7111V40.7138V40.7165V40.7192V40.722V40.7248V40.7276V40.7304V40.7333V40.7361V40.739V40.7419V40.7449V40.7478V40.7508V40.7538V40.7568V40.7598V40.7629V40.766V40.7691V40.7722V40.7753V40.7785V40.7817V40.7849V40.7881V40.7914V40.7947V40.798V40.8013V40.8046V40.808V40.8114V40.8148V40.8183V40.8217V40.8252V40.8287V40.8322V40.8358V40.8394V40.843V40.8466V40.8503V40.8539V40.8576V40.8614V40.8651V40.8689V40.8727V40.8765V40.8804V40.8842V40.8881V40.8921V40.896V40.9V40.904V40.908V40.9121V40.9162V40.9203V40.9244V40.9286V40.9327V40.937V40.9412C8 41.4875 8.2405 41.9606 8.81629 42.4119C9.42186 42.8864 10.3529 43.2921 11.5781 43.6111C14.0204 44.2471 17.2989 44.4572 20.5298 44.4572C23.7649 44.4572 27.0224 44.247 29.4426 43.6116C30.6566 43.2929 31.576 42.888 32.1732 42.4151C32.7401 41.966 32.98 41.4925 32.98 40.9412V40.937V40.9328V40.9286V40.9244V40.9203V40.9162V40.9121V40.9081V40.9041V40.9001V40.8961V40.8922V40.8883V40.8844V40.8805V40.8767V40.8728V40.869V40.8653V40.8615V40.8578V40.8541V40.8505V40.8468V40.8432V40.8396V40.836V40.8325V40.8289V40.8254V40.822V40.8185V40.8151V40.8117V40.8083V40.8049V40.8016V40.7983V40.795V40.7917V40.7885V40.7852V40.782V40.7789V40.7757V40.7726V40.7694V40.7664V40.7633V40.7602V40.7572V40.7542V40.7512V40.7482V40.7453V40.7424V40.7395V40.7366V40.7337V40.7309V40.7281V40.7253V40.7225V40.7197V40.717V40.7143V40.7116V40.7089V40.7062V40.7036V40.701V40.6984V40.6958V40.6932V40.6907V40.6882V40.6856V40.6832V40.6807V40.6782V40.6758V40.6734V40.671V40.6686V40.6663V40.6639V40.6616V40.6593V40.657V40.6547V40.6525V40.6502V40.648V40.6458V40.6436V40.6414V40.6393V40.6371V40.635V40.6329V40.6308V40.6287V40.6267V40.6247V40.6226V40.6206V40.6186V40.6166V40.6147V40.6127V40.6108V40.6089V40.607V40.6051V40.6032V40.6014V40.5995V40.5977V40.5959V40.5941V40.5923V40.5905V40.5888V40.587V40.5853V40.5836V40.5819V40.5802V40.5785V40.5768V40.5752V40.5735V40.5719V40.5703V40.5687V40.5671V40.5655V40.564V40.5624V40.5609V40.5594V40.5579V40.5564V40.5549V40.5534V40.5519V40.5505V40.549V40.5476V40.5462V40.5448V40.5434V40.542V40.5406V40.5392V40.5379V40.5365V40.5352V40.5339V40.5325V40.5312V40.5299V40.5287V40.5274V40.5261V40.5249V40.5236V40.5224V40.5211V40.5199V40.5187V40.5175V40.5163V40.5151V40.5139V40.5128V40.5116V40.5105V40.5093V40.5082V40.507V40.5059V40.5048V40.5037V40.5026V40.5015V40.5004V40.4994V40.4983V40.4972V40.4962V40.4951V40.4941V40.493V40.492V40.491V40.49V40.489V40.488V40.487V40.486V40.485V40.484V40.483V40.482V40.4811V40.4801V40.4792V40.4782V40.4773V40.4763V40.4754V40.4745V40.4735V40.4726V40.4717V40.4708V40.4699V40.4689V40.468V40.4671V40.4662V40.4654V40.4645V40.4636V40.4627V40.4618V40.4609V40.4601V40.4592V40.4583V40.4575V40.4566V40.4557V40.4549V40.454V40.4532V40.4523V40.4515V40.4506V40.4498V40.4489V40.4481V40.4472V40.4464V40.4455V40.4447V40.4439V40.443V40.4422V40.4414V40.4405V40.4397V40.4388V40.438V40.4372V40.4363V40.4355V40.4347V40.4338V40.433V40.4321V40.4313V40.4305V40.4296V40.4288V40.4279V40.4271V40.4263V40.4254V40.4246V40.4237V40.4229V40.422V40.4212V40.4203V40.4194V40.4186V40.4177V40.4168V40.416V40.4151V40.4142V40.4133V40.4125V40.4116V40.4107V40.4098V40.4089V40.408V40.4071V40.4062V40.4053V40.4044V40.4035V40.4026V40.4016V40.4007V40.3998V40.3988V40.3979V40.3969V40.396V40.395V40.3941V40.3931V40.3921V40.3911V40.3902V40.3892V40.3882V40.3872V40.3862V40.3852V40.3841V40.3831V40.3821V40.381V40.38V40.3789V40.3779V40.3768V40.3758V40.3747V40.3736V40.3725V40.3714V40.3703V40.3692V40.368V40.3669V40.3658V40.3646V40.3635V40.3623V40.3611V40.36V40.3588V40.3576V40.3564V40.3551V40.3539V40.3527V40.3514V40.3502V40.3489V40.3477V40.3464V40.3451V40.3438V40.3425V40.3412V40.3398V40.3385V40.3371V40.3358V40.3344V40.333V40.3316V40.3302V40.3288V40.3274V40.326V40.3245V40.3231V40.3216V40.3201V40.3186V40.3171V40.3156V40.3141V40.3125V40.311V40.3094V40.3078V40.3062V40.3046V40.303V40.3014V40.2997V40.2981V40.2964V40.2947V40.293V40.2913V40.2896V40.2879V40.2861V40.2844V40.2826V40.2808V40.279V40.2772V40.2753V40.2735V40.2716V40.2698V40.2679V40.266V40.264V40.2621V40.2601V40.2582V40.2562V40.2542V40.2522V40.2502V40.2481V40.246V40.244V40.2419V40.2398V40.2376V40.2355V40.2333V40.2312V40.229V40.2268V40.2245V40.2223V40.22V40.2177V40.2154V40.2131V40.2108V40.2085V40.2061V40.2037V40.2013V40.1989V40.1964V40.194V40.1915V40.189V40.1865V40.184V40.1814V40.1788V40.1763V40.1736V40.171V40.1684V40.1657V40.163V40.1603V40.1576V40.1548V40.1521V40.1493V40.1465V40.1437V40.1408V40.1379V40.1351V40.1321V40.1292V40.1263V40.1233V40.1203V40.1173V40.1143V40.1112V40.1081V40.105V40.1019V40.0988V40.0956V40.0924V40.0892V40.086V40.0827V40.0794V40.0761V40.0728V40.0695V40.0661V40.0627V40.0593V40.0558V40.0524V40.0489V40.0454V40.0419V40.0383V40.0347V40.0311V40.0275V40.0238V40.0202V40.0165V40.0127V40.009V40.0052V40.0014V39.9976V39.9937V39.9899V39.986V39.982V39.9781V39.9741V39.9701V39.9661V39.962V39.9579V39.9538V39.9497V39.9455V39.9414V39.9371V39.9329V39.9286C32.98 39.5294 32.8066 39.0491 32.3702 38.487C31.9349 37.9266 31.2858 37.3483 30.4647 36.7795C28.8237 35.6426 26.6391 34.6412 24.5536 33.9406L23.324 28.7719ZM23.324 28.7719L23.2607 28.9676M23.324 28.7719L23.2607 28.9676M23.2607 28.9676C22.8055 30.373 22.9247 31.5201 23.2436 32.3592M23.2607 28.9676L23.2436 32.3592M23.2436 32.3592C23.4 32.7706 23.601 33.0993 23.7942 33.3422M23.2436 32.3592L23.7942 33.3422M23.7942 33.3422C23.8902 33.4629 23.9902 33.57 24.0899 33.6587M23.7942 33.3422L24.0899 33.6587M24.0899 33.6587C24.1512 33.7134 24.3208 33.8624 24.5531 33.9404L24.0899 33.6587Z" stroke="white" stroke-width="2"/>
<path d="M36.0114 23.0497L35.9138 23.1814L35.8634 23.3373C35.4561 24.5962 35.492 25.5718 35.9347 26.2848C36.1504 26.6323 36.4254 26.8515 36.664 26.9874C36.7817 27.0545 36.8892 27.1007 36.9739 27.1325C37.0414 27.1579 37.1399 27.1893 37.1171 27.1816C39.0741 27.8385 41.1226 28.778 42.6597 29.8429C43.4288 30.3757 44.0341 30.9155 44.4385 31.436C44.8442 31.9581 44.9998 32.397 45 32.7542V32.7576V32.7616V32.7655V32.7695V32.7734V32.7772V32.7811V32.7849V32.7887V32.7925V32.7963V32.8V32.8037V32.8074V32.811V32.8147V32.8183V32.8219V32.8254V32.829V32.8325V32.836V32.8395V32.8429V32.8463V32.8498V32.8531V32.8565V32.8598V32.8631V32.8664V32.8697V32.873V32.8762V32.8794V32.8826V32.8857V32.8889V32.892V32.8951V32.8982V32.9012V32.9042V32.9073V32.9102V32.9132V32.9162V32.9191V32.922V32.9249V32.9278V32.9306V32.9334V32.9362V32.939V32.9418V32.9445V32.9473V32.95V32.9527V32.9553V32.958V32.9606V32.9632V32.9658V32.9684V32.971V32.9735V32.976V32.9785V32.981V32.9835V32.9859V32.9884V32.9908V32.9932V32.9955V32.9979V33.0002V33.0026V33.0049V33.0072V33.0094V33.0117V33.0139V33.0161V33.0183V33.0205V33.0227V33.0249V33.027V33.0291V33.0312V33.0333V33.0354V33.0374V33.0395V33.0415V33.0435V33.0455V33.0475V33.0495V33.0514V33.0533V33.0553V33.0572V33.0591V33.0609V33.0628V33.0646V33.0665V33.0683V33.0701V33.0719V33.0737V33.0754V33.0772V33.0789V33.0806V33.0823V33.084V33.0857V33.0874V33.089V33.0907V33.0923V33.0939V33.0955V33.0971V33.0987V33.1002V33.1018V33.1033V33.1049V33.1064V33.1079V33.1094V33.1109V33.1123V33.1138V33.1152V33.1167V33.1181V33.1195V33.1209V33.1223V33.1237V33.125V33.1264V33.1277V33.1291V33.1304V33.1317V33.133V33.1343V33.1356V33.1369V33.1382V33.1394V33.1407V33.1419V33.1431V33.1443V33.1456V33.1468V33.1479V33.1491V33.1503V33.1515V33.1526V33.1538V33.1549V33.156V33.1572V33.1583V33.1594V33.1605V33.1616V33.1627V33.1637V33.1648V33.1659V33.1669V33.168V33.169V33.1701V33.1711V33.1721V33.1731V33.1741V33.1751V33.1761V33.1771V33.1781V33.1791V33.18V33.181V33.1819V33.1829V33.1838V33.1848V33.1857V33.1866V33.1876V33.1885V33.1894V33.1903V33.1912V33.1921V33.193V33.1939V33.1948V33.1957V33.1965V33.1974V33.1983V33.1991V33.2V33.2009V33.2017V33.2026V33.2034V33.2042V33.2051V33.2059V33.2068V33.2076V33.2084V33.2092V33.2101V33.2109V33.2117V33.2125V33.2133V33.2141V33.2149V33.2157V33.2165V33.2173V33.2181V33.2189V33.2197V33.2205V33.2213V33.2221V33.2229V33.2237V33.2245V33.2253V33.2261V33.2269V33.2276V33.2284V33.2292V33.23V33.2308V33.2316V33.2324V33.2331V33.2339V33.2347V33.2355V33.2363V33.2371V33.2379V33.2387V33.2394V33.2402V33.241V33.2418V33.2426V33.2434V33.2442V33.245V33.2458V33.2466V33.2474V33.2482V33.249V33.2499V33.2507V33.2515V33.2523V33.2531V33.2539V33.2548V33.2556V33.2564V33.2573V33.2581V33.259V33.2598V33.2606V33.2615V33.2624V33.2632V33.2641V33.2649V33.2658V33.2667V33.2676V33.2685V33.2694V33.2702V33.2711V33.272V33.273V33.2739V33.2748V33.2757V33.2766V33.2776V33.2785V33.2795V33.2804V33.2814V33.2823V33.2833V33.2843V33.2852V33.2862V33.2872V33.2882V33.2892V33.2902V33.2913V33.2923V33.2933V33.2944V33.2954V33.2965V33.2975V33.2986V33.2997V33.3008V33.3018V33.3029V33.3041V33.3052V33.3063V33.3074V33.3086V33.3097V33.3109V33.312V33.3132V33.3144V33.3156V33.3168V33.318V33.3192V33.3204V33.3217V33.3229V33.3242V33.3254V33.3267V33.328V33.3293V33.3306V33.3319V33.3333V33.3346V33.3359V33.3373V33.3387V33.34V33.3414V33.3428V33.3442V33.3457V33.3471V33.3485V33.35V33.3515V33.3529V33.3544V33.3559V33.3575V33.359V33.3605V33.3621V33.3636V33.3652V33.3668V33.3684V33.37V33.3717V33.3733V33.3749V33.3766V33.3783V33.38V33.3817V33.3834V33.3851V33.3869V33.3887V33.3904V33.3922V33.394V33.3958V33.3977V33.3995V33.4014V33.4032V33.4051V33.407V33.409V33.4109V33.4128V33.4148V33.4168V33.4188V33.4208V33.4228V33.4249V33.4269V33.429V33.4311V33.4332V33.4353V33.4374V33.4396V33.4418V33.4439V33.4461V33.4484V33.4506V33.4529V33.4551V33.4574V33.4597V33.462V33.4644V33.4667V33.4691V33.4715V33.4739V33.4763V33.4788V33.4813V33.4837V33.4862V33.4888V33.4913V33.4938V33.4964V33.499V33.5016V33.5043V33.5069V33.5096V33.5123V33.515V33.5177V33.5205V33.5232V33.526V33.5288V33.5316V33.5345V33.5374V33.5402V33.5431V33.5461V33.549V33.552V33.555V33.558V33.561V33.5641V33.5672V33.5703V33.5734V33.5765V33.5797V33.5828V33.5861V33.5893V33.5925V33.5958V33.5991V33.6024V33.6057V33.6091V33.6125V33.6159V33.6193V33.6227V33.6262V33.6297V33.6332V33.6368V33.6403V33.6439V33.6475V33.6512V33.6548V33.6585V33.6622V33.6659V33.6697V33.6735V33.6773V33.6811V33.685V33.6888V33.6927V33.6967V33.7006V33.7046C45 34.4721 44.4399 35.2033 42.8089 35.8154C41.3712 36.3549 39.403 36.6697 37.2124 36.8257C36.3056 35.0259 34.7048 33.5828 33.0328 32.4624C31.5928 31.4974 30.0324 30.7271 28.6556 30.1439C30.4208 27.6597 31.9438 24.2163 31.9438 20.4467C31.9438 16.6977 30.5665 13.774 28.4614 11.7677C29.434 9.949 31.2114 9 33.316 9C34.9185 9 36.3213 9.54847 37.3228 10.5671C38.3211 11.5827 39.0043 13.1514 39.0043 15.3478C39.0043 18.3001 38.2625 20.5337 36.5951 22.2753L36.5515 22.3208L36.514 22.3715L36.0114 23.0497Z" stroke="white" stroke-width="2"/>
</svg>
