<svg width="43" height="34" viewBox="0 0 43 34" fill="none" xmlns="http://www.w3.org/2000/svg">
<path d="M4.07315 3.73401C3.99089 3.73401 3.90871 3.74505 3.82784 3.7658L3.82784 1.54781C3.82784 0.693011 3.27867 1.1479e-05 2.60128 1.15537e-05C1.9239 1.16284e-05 1.37473 0.693011 1.37473 1.54781L1.37473 3.74671C1.3255 3.73917 1.27603 3.73401 1.22648 3.73401C0.912563 3.73401 0.598647 3.88508 0.359224 4.18741C-0.119787 4.79188 -0.119787 5.77184 0.359224 6.37631L1.73403 8.11118C1.98588 8.42899 2.31999 8.57799 2.64985 8.56159C2.97972 8.57799 3.31383 8.42899 3.56568 8.11118L4.94049 6.37631C5.4195 5.77184 5.4195 4.79188 4.94049 4.18741C4.70098 3.88518 4.38706 3.73401 4.07315 3.73401V3.73401Z" fill="white"/>
<path d="M37.6793 4.82879C37.7616 4.82879 37.8438 4.81775 37.9246 4.79701V7.015C37.9246 7.86979 38.4738 8.56279 39.1512 8.56279C39.8286 8.56279 40.3778 7.86979 40.3778 7.015V4.8161C40.427 4.82363 40.4765 4.82879 40.526 4.82879C40.8399 4.82879 41.1538 4.67773 41.3933 4.37539C41.8723 3.77093 41.8723 2.79097 41.3933 2.1865L40.0185 0.451628C39.7666 0.133814 39.4325 -0.0151865 39.1026 0.0012201C38.7728 -0.0151865 38.4387 0.133814 38.1868 0.451628L36.8121 2.1865C36.3331 2.79097 36.3331 3.77093 36.8121 4.37539C37.0516 4.67762 37.3655 4.82879 37.6793 4.82879Z" fill="white"/>
<path d="M22.1477 20.8602L3.79074 26.0418C1.91639 26.5709 0.826387 28.5199 1.35676 30.3938C1.91001 32.3487 3.99695 33.4323 5.91419 32.7602L25.1485 26.0181C28.8586 24.7176 32.9158 24.8153 36.559 26.293L42 28.5L37.0635 24.2038C32.9738 20.6447 27.3653 19.3875 22.1477 20.8602Z" stroke="white" stroke-width="2"/>
</svg>
