<svg width="55" height="55" viewBox="0 0 55 55" fill="none" xmlns="http://www.w3.org/2000/svg">
<path d="M46.3535 23.7902C46.0447 25.182 45.1435 27.9816 42.6114 30.6761C40.1 33.3487 35.9191 35.9878 28.9285 37H28.8826H28.824H28.7655H28.707H28.6487H28.5903H28.5321H28.4739H28.4157H28.3577H28.2997H28.2418H28.1839H28.1261H28.0684H28.0107H27.9531H27.8956H27.8381H27.7807H27.7234H27.6661H27.6089H27.5518H27.4947H27.4377H27.3808H27.3239H27.2671H27.2104H27.1537H27.0971H27.0406H26.9841H26.9277H26.8714H26.8151H26.7589H26.7028H26.6467H26.5907H26.5348H26.4789H26.4231H26.3674H26.3117H26.2561H26.2006H26.1451H26.0898H26.0344H25.9792H25.924H25.8689H25.8138H25.7588H25.7039H25.6491H25.5943H25.5396H25.4849H25.4303H25.3758H25.3214H25.267H25.2127H25.1585H25.1043H25.0502H24.9962H24.9422H24.8883H24.8345H24.7807H24.727H24.6734H24.6199H24.5664H24.513H24.4596H24.4063H24.3531H24.3H24.2469H24.1939H24.141H24.0881H24.0353H23.9826H23.9299H23.8773H23.8248H23.7724H23.72H23.6677H23.6154H23.5632H23.5111H23.4591H23.4071H23.3552H23.3034H23.2516H23.1999H23.1483H23.0968H23.0453H22.9939H22.9425H22.8913H22.8401H22.7889H22.7379H22.6869H22.636H22.5851H22.5343H22.4836H22.433H22.3824H22.3319H22.2815H22.2311H22.1808H22.1306H22.0804H22.0304H21.9804H21.9304H21.8805H21.8307H21.781H21.7314H21.6818H21.6323H21.5828H21.5334H21.4841H21.4349H21.3857H21.3366H21.2876H21.2387H21.1898H21.141H21.0923H21.0436H20.995H20.9465H20.898H20.8496H20.8013H20.7531H20.7049H20.6568H20.6088H20.5609H20.513H20.4652H20.4174H20.3698H20.3222H20.2746H20.2272H20.1798H20.1325H20.0853H20.0381H19.991H19.944H19.8971H19.8502H19.8034H19.7566H19.71H19.6634H19.6169H19.5704H19.5241H19.4778H19.4315H19.3854H19.3393H19.2933H19.2474H19.2015H19.1557H19.11H19.0644H19.0188H18.9733H18.9279H18.8825H18.8372H18.792H18.7469H18.7018H18.6568H18.6119H18.5671H18.5223H18.4776H18.433H18.3884H18.3439H18.2995H18.2552H18.2109H18.1668H18.1227H18.0786H18.0346H17.9908H17.9469H17.9032H17.8595H17.8159H17.7724H17.729H17.6856H17.6423H17.5991H17.5559H17.5128H17.4698H17.4269H17.384H17.3413H17.2985H17.2559H17.2134H17.1709H17.1285H17.0861H17.0439H17.0017H16.9596H16.9175H16.8755H16.8337H16.7918H16.7501H16.7084H16.6668H16.6253H16.5839H16.5425H16.5012H16.46H16.4189H16.3778H16.3368H16.2959H16.255H16.2143H16.1736H16.133H16.0924H16.052H16.0116H15.9712H15.931H15.8908H15.8507H15.8107H15.7708H15.7309H15.6911H15.6514H15.6118H15.5722H15.5327H15.4933H15.454H15.4147H15.3756H15.3365H15.2974H15.2585H15.2196H15.1808H15.1421H15.1034H15.0648H15.0263H14.9879H14.9496H14.9113H14.8731H14.835H14.797H14.759H14.7211H14.6833H14.6456H14.6079H14.5703H14.5328H14.4954H14.458H14.4208H14.3836H14.3465H14.3094H14.2724H14.2356H14.1987H14.162H14.1254H14.0888H14.0523H14.0158H13.9795H13.9432H13.907H13.8709H13.8349H13.7989H13.763H13.7272H13.6915H13.6558H13.6203H13.5848H13.5493H13.514H13.4787H13.4436H13.4085H13.3734H13.3385H13.3036H13.2688H13.2341H13.1994H13.1649H13.1304H13.096H13.0617H13.0274H12.9932H12.9591H12.9251H12.8912H12.8573H12.8236H12.7899H12.7562H12.7227H12.6892H12.6558H12.6225H12.5893H12.5562H12.5231H12.4901H12.4572H12.4243H12.3916H12.3589H12.3263H12.2938H12.2614H12.229H12.1967H12.1645H12.1324H12.1004H12.0684H12.0365H12.0047H11.973H11.9413H11.9098H11.8783H11.8469H11.8155H11.7843H11.7531H11.722H11.691H11.6601H11.6292H11.5985H11.5678H11.5372H11.5066H11.4762H11.4458H11.4155H11.3853H11.3552H11.3251H11.2952H11.2653H11.2355H11.2057H11.1761H11.1465H11.117H11.0876H11.0583H11.0291H10.9999H10.9708H10.9418H10.9129H10.884H10.8553H10.8266H10.798H10.7695H10.7411H10.7127H10.6844H10.6562H10.6281H10.6001H10.5721H10.5443H10.5165H10.4888H10.4611H10.4336H10.4061H10.3787H10.3514H10.3242H10.2971H10.27H10.2431H10.2162H10.1894H10.1626H10.136H10.1094H10.0829H10.0565H10.0302H10.004H9.97781H9.95174H9.92574H9.89983H9.874H9.84826H9.8226H9.79701H9.77151H9.7461H9.72076H9.69551H9.67034H9.64525H9.62025H9.59533H9.57049H9.54573H9.52106H9.49646H9.47196H9.44753H9.42319H9.39893H9.37475H9.35065H9.32664H9.30271H9.27887H9.2551H9.23142H9.20783H9.18431H9.16088H9.13754H9.11427H9.09109H9.06799H9.04498H9.02205H8.9992H8.97644H8.95376H8.93116H8.90865H8.88622H8.86388H8.84161H8.81944H8.79734H8.77533H8.7534H8.73156H8.7098H8.68813H8.66654H8.64503H8.62361H8.60227H8.58102H8.55985H8.53876H8.51776H8.49684H8.47601H8.45526H8.4346H8.41402H8.39352H8.37311H8.35278C7.71543 37 7.34719 36.4692 7.47883 35.9634C8.19794 33.2 9.77793 28.4136 12.7933 24.3385C15.7916 20.2865 20.1535 17 26.5 17C36.5743 17 43.8036 21.5371 46.1004 23.1901C46.3243 23.3512 46.4003 23.5792 46.3535 23.7902Z" stroke="white" stroke-width="2"/>
<path d="M35 27C35 32.0195 31.1467 36 26.5 36C21.8533 36 18 32.0195 18 27C18 21.9805 21.8533 18 26.5 18C31.1467 18 35 21.9805 35 27Z" stroke="white" stroke-width="2"/>
<path d="M4.12063 20.9898C4.21226 21.0386 4.30899 21.0776 4.40883 21.1072L3.36677 23.0652C2.96516 23.8198 3.25133 24.7571 4.00591 25.1587C4.76049 25.5603 5.69783 25.2741 6.09943 24.5195L7.13252 22.5784C7.18382 22.6143 7.23651 22.6482 7.29171 22.6775C7.6414 22.8637 8.06206 22.9164 8.47081 22.7915C9.2884 22.5419 9.74881 21.6768 9.4992 20.8592L8.7828 18.5126C8.65157 18.0828 8.34938 17.7532 7.97422 17.5721C7.61448 17.362 7.17228 17.2955 6.74241 17.4267L4.39594 18.1432C3.57835 18.3928 3.11795 19.2578 3.36755 20.0754C3.49236 20.4842 3.77103 20.8038 4.12063 20.9898Z" fill="white"/>
<path d="M46.9437 38.3526C46.8817 38.2694 46.8108 38.1929 46.7332 38.1235L48.5111 36.7974C49.1964 36.2864 49.3376 35.3166 48.8265 34.6314C48.3155 33.9462 47.3456 33.805 46.6604 34.316L44.8978 35.6306C44.8667 35.5763 44.8335 35.5232 44.7961 35.4731C44.5593 35.1555 44.2014 34.9283 43.7784 34.8669C42.9324 34.7437 42.1469 35.3296 42.0237 36.1755L41.6703 38.6034C41.6055 39.0482 41.7381 39.4752 42.0002 39.7991C42.2359 40.1426 42.6074 40.3915 43.0521 40.4562L45.48 40.8096C46.3259 40.9328 47.1114 40.3469 47.2346 39.501C47.2962 39.078 47.1805 38.6701 46.9437 38.3526Z" fill="white"/>
</svg>
