<svg width="31" height="43" viewBox="0 0 31 43" fill="none" xmlns="http://www.w3.org/2000/svg">
<path d="M18.9512 13.5571L23.2224 13.449C23.3397 13.446 23.401 13.5902 23.3154 13.668C23.2932 13.6882 23.2642 13.6995 23.2338 13.6998L19.3598 13.7423C18.9626 13.7466 18.5672 13.7826 18.1775 13.8499L17.0375 14.0467L18.6641 13.5994C18.7574 13.5738 18.8538 13.5596 18.9512 13.5571Z" stroke="white"/>
<path d="M12.9613 13.5834L8.38895 13.4508C8.26946 13.4473 8.20862 13.5959 8.2982 13.6724C8.3199 13.6909 8.34755 13.7013 8.3765 13.7017L12.5157 13.766C12.9355 13.7726 13.3534 13.8105 13.7659 13.8794L14.9872 14.0836L13.2346 13.6227C13.1456 13.5993 13.0539 13.5861 12.9613 13.5834Z" stroke="white"/>
<g filter="url(#filter0_d)">
<path d="M6.5747 29.7069C5.31494 28.1278 5 22.2405 5 19.4943L5.99265 19.2368C5.94891 19.9234 6.12853 22.1547 6.96837 24.5577C7.09167 24.9105 7.25419 25.1997 7.44562 25.4347C9.36423 27.7899 13.3493 23.4099 15.8917 25.0726C17.1514 24.1114 19.216 25.187 20.0909 25.845C21.0094 26.1883 23.109 26.5659 24.1588 25.3301C25.2086 24.0943 25.2961 20.753 25.2086 19.2368L26.1272 19.4943V21.554C26.5209 26.2741 24.4213 30.2218 24.5525 29.9644C24.6575 29.7584 24.3338 29.5353 24.1588 29.4494C24.1588 30.5479 22.4092 31.8524 21.5343 32.3673C21.7443 32.024 21.4469 31.7094 21.2719 31.5949C21.1407 32.3673 19.8809 33.9293 15.8917 33.9979C11.9024 34.0666 10.2053 32.4245 9.85532 31.5949C9.54038 31.7323 9.46165 32.1671 9.46165 32.3673C8.72679 31.9554 7.49327 30.0216 6.96837 29.1062L6.5747 29.7069Z" stroke="white"/>
</g>
<path d="M14.5046 26.8261C13.2473 27.8648 10.9945 27.8648 9.63239 27.8648C10.2611 28.2802 11.6756 29.1319 12.3043 29.215C12.9329 29.2981 13.1949 28.7649 13.2473 28.488H18.591C18.6958 28.6957 19.0625 29.1319 19.6912 29.215C20.3199 29.2981 21.6296 28.3495 22.2059 27.8648C20.1941 27.9479 18.2243 27.207 17.4908 26.8261C17.4908 26.9923 17.91 27.4493 18.1195 27.657C16.9879 27.4909 16.3383 26.8954 16.0763 26.6184C15.6048 27.2416 14.5046 27.657 14.1903 27.657C14.5675 27.4078 14.557 26.9993 14.5046 26.8261Z" stroke="white"/>
<path d="M25.1351 14.9566C25.1351 17.7661 26.2517 18.246 26.7217 19.2368L26.8627 14.9566C27.4737 14.7584 28.7521 13.7201 28.9777 11.1519C29.2033 8.58381 27.6617 6.51503 26.8627 5.80165C26.8157 4.96939 26.7217 4.37491 26.7217 4.37491C26.7217 4.37491 26.0637 5.52423 25.7347 5.56386C25.1707 1.37874 19.8597 0.808046 17.2748 1.04584C20.9971 1.33119 21.9277 2.9878 21.9277 3.78043C19.1078 1.11717 13.9848 1.48179 11.7758 1.997C19.7845 1.71165 21.1287 4.7316 20.7997 6.27724C19.3898 2.82927 14.8778 2.94816 12.0578 2.82927C9.8018 2.73415 8.67381 3.10669 8.39181 3.30485C8.84301 3.30485 8.95581 3.54264 8.95581 3.66154C7.03822 3.66154 6.37082 4.37491 6.27682 4.7316C6.95362 4.63648 7.12282 4.92976 7.12282 5.08828C5.20523 5.08828 4.72583 5.88092 4.72583 6.27724C5.06423 6.18212 5.52483 6.23761 5.71283 6.27724C4.35923 6.94305 3.55084 8.06067 3.31584 8.53625C2.18784 11.2708 4.44383 15.1944 4.44383 16.3834C4.44383 17.3345 4.72583 18.3253 4.72583 19.2368L6.27682 15.413C6.27682 15.413 6.46482 12.8958 6.69982 11.1519C8.95581 6.75282 15.3008 8.41735 18.5438 8.77404C21.7867 9.13073 22.0687 8.17956 23.9017 8.77404C25.7347 9.36852 25.1351 14.116 25.1351 14.9566Z" stroke="white"/>
<defs>
<filter id="filter0_d" x="0.5" y="18.5664" width="30.1765" height="23.9336" filterUnits="userSpaceOnUse" color-interpolation-filters="sRGB">
<feFlood flood-opacity="0" result="BackgroundImageFix"/>
<feColorMatrix in="SourceAlpha" type="matrix" values="0 0 0 0 0 0 0 0 0 0 0 0 0 0 0 0 0 0 127 0"/>
<feOffset dy="4"/>
<feGaussianBlur stdDeviation="2"/>
<feColorMatrix type="matrix" values="0 0 0 0 0 0 0 0 0 0 0 0 0 0 0 0 0 0 0.25 0"/>
<feBlend mode="normal" in2="BackgroundImageFix" result="effect1_dropShadow"/>
<feBlend mode="normal" in="SourceGraphic" in2="effect1_dropShadow" result="shape"/>
</filter>
</defs>
</svg>
