<svg width="55" height="40" viewBox="0 0 55 40" fill="none" xmlns="http://www.w3.org/2000/svg">
<g filter="url(#filter0_d)">
<path d="M31.3082 17.3324L5.48014 23.1097C3.36571 23.5827 2.14301 25.8004 2.87175 27.8409C3.50759 29.6213 5.41063 30.6082 7.23216 30.1022L33.2915 22.8635C37.6678 21.6478 42.3044 21.7407 46.6285 23.1306L54 25.5L46.4102 20.2657C42.0045 17.2272 36.5311 16.1641 31.3082 17.3324Z" stroke="white" stroke-width="2"/>
<circle cx="9.5" cy="8.5" r="8" stroke="white"/>
<path d="M9.5 0C8.38376 -1.3311e-08 7.27846 0.219859 6.24719 0.647024C5.21592 1.07419 4.27889 1.70029 3.48959 2.48959C2.70029 3.27889 2.07419 4.21592 1.64702 5.24719C1.21986 6.27846 1 7.38376 1 8.5C1 9.61624 1.21986 10.7215 1.64702 11.7528C2.07419 12.7841 2.70029 13.7211 3.48959 14.5104C4.27889 15.2997 5.21592 15.9258 6.24719 16.353C7.27846 16.7801 8.38376 17 9.5 17L9.5 8.5V0Z" fill="white"/>
<path d="M16.9133 5.34157C16.1704 4.0171 15.0862 2.91586 13.7734 2.15237C12.4607 1.38888 10.9674 0.991012 9.44883 1.00015L9.5 9.5L16.9133 5.34157Z" fill="white" fill-opacity="0.56"/>
</g>
<defs>
<filter id="filter0_d" x="-3" y="0" width="61.5677" height="39.2346" filterUnits="userSpaceOnUse" color-interpolation-filters="sRGB">
<feFlood flood-opacity="0" result="BackgroundImageFix"/>
<feColorMatrix in="SourceAlpha" type="matrix" values="0 0 0 0 0 0 0 0 0 0 0 0 0 0 0 0 0 0 127 0"/>
<feOffset dy="4"/>
<feGaussianBlur stdDeviation="2"/>
<feColorMatrix type="matrix" values="0 0 0 0 0 0 0 0 0 0 0 0 0 0 0 0 0 0 0.25 0"/>
<feBlend mode="normal" in2="BackgroundImageFix" result="effect1_dropShadow"/>
<feBlend mode="normal" in="SourceGraphic" in2="effect1_dropShadow" result="shape"/>
</filter>
</defs>
</svg>
