<svg width="39" height="33" viewBox="0 0 39 33" fill="none" xmlns="http://www.w3.org/2000/svg">
<path d="M32.5 24.7242C32.5 29.5 34.089 30.3158 34.7578 32L34.9585 24.7242C35.828 24.3874 37.6472 22.6223 37.9683 18.2569C38.2893 13.8914 36.0955 10.3748 34.9585 9.16212C34.8916 7.74738 34.7578 6.73686 34.7578 6.73686C34.7578 6.73686 33.8214 8.69054 33.3532 8.75791C32.5506 1.64381 24.9927 0.673705 21.3141 1.07792C26.6113 1.56297 27.9356 4.37897 27.9356 5.72633C23.9226 1.19918 16.6322 1.81897 13.4886 2.69476C24.8857 2.2097 26.7986 7.34317 26.3304 9.97054C24.3239 4.10949 17.903 4.3116 13.8899 4.10949C10.6795 3.94781 9.07427 4.58107 8.67296 4.91791C9.31505 4.91791 9.47557 5.32212 9.47557 5.52423C6.7467 5.52423 5.79694 6.73686 5.66317 7.34318C6.6263 7.18149 6.86709 7.68002 6.86709 7.94949C4.13821 7.94949 3.45599 9.29686 3.45599 9.97054C3.93756 9.80886 4.59302 9.90317 4.86056 9.97054C2.93429 11.1023 1.78388 13.0021 1.44946 13.8105C-0.15576 18.459 3.05468 25.1284 3.05468 27.1495C3.05468 28.7663 3.45599 30.4505 3.45599 32L5.66317 25.5C5.66317 25.5 5.93071 21.2211 6.26513 18.2569C9.47557 10.779 18.5049 13.6084 23.12 14.2147C27.735 14.8211 28.1363 13.2042 30.7448 14.2147C33.3532 15.2253 32.5 23.2953 32.5 24.7242Z" stroke="white" stroke-width="1.5"/>
</svg>
