<svg width="40" height="40" viewBox="0 0 40 40" fill="none" xmlns="http://www.w3.org/2000/svg">
<path d="M27.4479 18.8281V6.32812H12.5521V18.8281H0V33.6719H40V18.8281H27.4479ZM12.5521 31.3281H2.34375V21.1719H12.5521V31.3281ZM25.1041 31.3281H14.8959V21.1719H25.1041V31.3281ZM25.1041 18.8281H14.8959V8.67188H25.1041V18.8281ZM37.6562 31.3281H27.4479V21.1719H37.6562V31.3281Z" fill="white" fill-opacity="0.5"/>
<path d="M9.48371 24.6639L7.82645 23.0066L4.58301 26.25L7.82645 29.4935L9.48371 27.8362L7.89754 26.25L9.48371 24.6639Z" fill="white" fill-opacity="0.5"/>
<path d="M21.5864 23.9631L20.0003 25.5492L18.4141 23.9631L16.7568 25.6203L20.0003 28.8638L23.2437 25.6203L21.5864 23.9631Z" fill="white" fill-opacity="0.5"/>
<path d="M20.0003 11.1362L16.7568 14.3797L18.4141 16.0369L20.0003 14.4508L21.5864 16.0369L23.2437 14.3797L20.0003 11.1362Z" fill="white" fill-opacity="0.5"/>
<path d="M32.1729 23.0066L30.5156 24.6639L32.1018 26.25L30.5156 27.8362L32.1729 29.4935L35.4163 26.25L32.1729 23.0066Z" fill="white" fill-opacity="0.5"/>
</svg>
