<?xml version="1.0" encoding="iso-8859-1"?>
<!-- Generator: Adobe Illustrator 19.0.0, SVG Export Plug-In . SVG Version: 6.00 Build 0)  -->
<svg version="1.1" fill="#fff" id="Capa_1" xmlns="http://www.w3.org/2000/svg" xmlns:xlink="http://www.w3.org/1999/xlink" x="0px" y="0px"
	 viewBox="0 0 512.001 512.001" style="enable-background:new 0 0 512.001 512.001;" xml:space="preserve">
<g>
	<g>
		<path d="M505.594,224.387l-20.44-7.87c-29.731-11.447-56.173-30.479-76.466-55.04c-18.416-22.286-45.559-35.068-74.469-35.068
			c-26.265,0-51.73,10.895-69.868,29.892l-8.35,8.745l-8.35-8.745c-18.138-18.997-43.604-29.892-69.868-29.892
			c-28.91,0-56.053,12.782-74.469,35.069c-20.293,24.56-46.734,43.592-76.466,55.039l-20.44,7.87
			c-4.497,1.731-7.119,6.422-6.239,11.159c0.881,4.737,5.014,8.173,9.832,8.173c14.86,0,32.8,19.009,53.573,41.02
			c40.125,42.516,95.066,100.726,192.236,100.853c0.021,0,0.044,0,0.065,0h0.25c0.021,0,0.044,0,0.065,0
			c97.17-0.127,152.111-58.337,192.236-100.853c20.773-22.011,38.713-41.02,53.573-41.02c4.818,0,8.951-3.436,9.832-8.173
			C512.713,230.81,510.091,226.118,505.594,224.387z M433.883,271.012c-39.749,42.118-89.219,94.529-177.882,94.581
			c-88.663-0.051-138.133-52.463-177.882-94.581c-8.511-9.017-16.408-17.378-24.057-24.493c29.165-4.976,72.398-8.648,105.12,4.448
			c47.148,18.872,83.134,20.951,96.699,20.951c0.08,0,0.158,0,0.238,0c13.567,0,49.555-2.08,96.699-20.951
			c32.506-13.01,75.073-9.611,105.128-4.455C450.297,253.629,442.396,261.992,433.883,271.012z M345.388,232.399
			c-38.794,15.527-69.572,18.799-84.243,19.385c-0.061-0.001-0.122-0.001-0.184-0.001h-9.92c-0.056,0-0.111,0-0.167,0.001
			c-14.677-0.584-45.46-3.855-84.26-19.386c-35.818-14.336-81.226-11.191-112.732-6.116c24.851-12.738,47.003-30.463,64.851-52.063
			c14.603-17.673,36.126-27.809,59.051-27.809c20.827,0,41.021,8.639,55.403,23.703l15.582,16.32c1.887,1.976,4.5,3.094,7.232,3.094
			c2.732,0,5.346-1.118,7.232-3.094l15.582-16.32c14.383-15.064,34.576-23.703,55.403-23.703c22.925,0,44.448,10.136,59.051,27.808
			c17.843,21.595,39.986,39.315,64.829,52.053C425.755,221.038,380.968,218.157,345.388,232.399z"/>
	</g>
</g>
<g>
	<g>
		<path d="M384.831,191.475c-12.652-15.312-31.301-24.094-51.163-24.094c-5.522,0-10,4.477-10,10s4.478,10.001,10,10.001
			c13.877,0,26.905,6.135,35.745,16.833c1.978,2.394,4.835,3.631,7.715,3.631c2.243,0,4.5-0.751,6.364-2.292
			C387.749,202.036,388.348,195.733,384.831,191.475z"/>
	</g>
</g>
<g>
	<g>
		<path d="M221.176,320.933c-21.755-3.108-40.521-11.184-57.37-24.687c-4.31-3.453-10.602-2.76-14.058,1.549
			c-3.453,4.31-2.76,10.604,1.55,14.057c19.72,15.804,41.652,25.25,67.05,28.879c0.479,0.069,0.955,0.102,1.427,0.102
			c4.896,0,9.174-3.6,9.887-8.587C230.443,326.78,226.644,321.715,221.176,320.933z"/>
	</g>
</g>
<g>
	<g>
		<path d="M259.785,326.45l-0.495-0.071c-5.474-0.783-10.534,3.016-11.315,8.484c-0.781,5.467,3.017,10.533,8.483,11.315
			l0.495,0.071c0.48,0.068,0.957,0.102,1.429,0.102c4.896,0,9.174-3.599,9.887-8.586C269.05,332.298,265.252,327.232,259.785,326.45
			z"/>
	</g>
</g>
<g>
</g>
<g>
</g>
<g>
</g>
<g>
</g>
<g>
</g>
<g>
</g>
<g>
</g>
<g>
</g>
<g>
</g>
<g>
</g>
<g>
</g>
<g>
</g>
<g>
</g>
<g>
</g>
<g>
</g>
</svg>
