<svg width="27" height="36" viewBox="0 0 27 36" fill="none" xmlns="http://www.w3.org/2000/svg">
<path d="M5.81588 4.56271C5.76398 4.65261 5.72169 4.74794 5.68862 4.84669L3.76779 3.73769C3.02751 3.31029 2.08086 3.56395 1.65346 4.30422C1.22606 5.0445 1.47972 5.99115 2.21999 6.41855L4.12429 7.518C4.08671 7.56803 4.05103 7.61952 4.01976 7.67367C3.8217 8.01673 3.75446 8.43532 3.86522 8.84814C4.08647 9.67386 4.93514 10.1638 5.76086 9.94259L8.13074 9.30758C8.56488 9.19125 8.90473 8.90062 9.09865 8.53193C9.32098 8.17965 9.40275 7.74001 9.28643 7.30587L8.65137 4.93608C8.43012 4.11037 7.58145 3.62039 6.75573 3.84163C6.34287 3.95226 6.01389 4.21974 5.81588 4.56271Z" fill="white"/>
<path d="M16 1C14.5306 9 9.38775 15.875 7.18367 18.9444C4.97959 22.0139 4 22.4861 4 23.4306C4 24.375 4 27.2083 5.95918 28.1528C7.91837 29.0972 11.3859 28.7949 13.0612 29.3333C14.5306 29.8056 16.9796 31.4583 14.5306 35" stroke="white" stroke-width="2" stroke-linecap="round" stroke-linejoin="round"/>
<path d="M21 29.9184C23.3892 30.5394 27.6896 27.5894 22.6724 22" stroke="white" stroke-width="2" stroke-linecap="round" stroke-linejoin="round"/>
<path d="M12.1801 25.5427C13.8956 24.7207 16.6396 26.5332 17.7972 27.5422C14.196 23.9457 11.4513 24.6026 11.151 25.1031C10.9085 25.5074 11.1769 25.7255 11.5659 25.8794C11.6753 25.9227 12.0716 25.5884 12.1801 25.5427Z" fill="white" stroke="white"/>
</svg>
