<svg width="55" height="55" viewBox="0 0 55 55" fill="none" xmlns="http://www.w3.org/2000/svg">
<path d="M13.3841 16.4501C13.3054 16.5178 13.234 16.5938 13.1701 16.6761L11.7234 14.9949C11.1658 14.347 10.1885 14.2738 9.54058 14.8313C8.89267 15.3889 8.81944 16.3662 9.37701 17.0141L10.8113 18.6808C10.7593 18.7157 10.7087 18.7525 10.6613 18.7932C10.361 19.0516 10.1593 19.4245 10.1275 19.8508C10.0636 20.7032 10.7028 21.446 11.5553 21.5099L14.0019 21.6932C14.4501 21.7268 14.8669 21.5647 15.1717 21.2808C15.4979 21.0217 15.7203 20.6337 15.7539 20.1855L15.9371 17.739C16.001 16.8865 15.3618 16.1438 14.5093 16.0799C14.0831 16.0479 13.6842 16.1917 13.3841 16.4501Z" fill="white"/>
<path d="M22.4022 20C19.3545 24.2059 18 24.8529 18 26.1471C18 27.4412 18 31.3235 20.709 32.6176C23.418 33.9118 28.2127 33.4975 30.5292 34.2353C32.561 34.8824 35.9473 37.1471 32.561 42" stroke="white" stroke-width="2" stroke-linecap="round" stroke-linejoin="round"/>
<path d="M41 34.8878C44.5837 35.7417 51.0344 31.6855 43.5086 24" stroke="white" stroke-width="2" stroke-linecap="round" stroke-linejoin="round"/>
<path d="M29.2087 29.0413C31.5594 27.9148 35.3194 30.3984 36.9056 31.781C31.971 26.853 28.2101 27.753 27.7986 28.4389C27.4663 28.9928 27.8341 29.2917 28.3671 29.5025C28.517 29.5618 29.0601 29.1038 29.2087 29.0413Z" fill="white" stroke="white"/>
</svg>
