<svg width="900" height="900" viewBox="0 0 900 900" fill="none" xmlns="http://www.w3.org/2000/svg">
<mask id="mask0" mask-type="alpha" maskUnits="userSpaceOnUse" x="0" y="0" width="900" height="900">
<path d="M900 0H0V900H900V0Z" fill="#C4C4C4"/>
</mask>
<g mask="url(#mask0)">
<path d="M450.055 592.555C528.755 592.555 592.555 528.755 592.555 450.055C592.555 371.354 528.755 307.555 450.055 307.555C371.354 307.555 307.555 371.354 307.555 450.055C307.555 528.755 371.354 592.555 450.055 592.555Z" fill="white" fill-opacity="0.04"/>
<path d="M392.72 664.032C355.159 653.967 320.909 634.193 293.413 606.697C265.916 579.2 246.142 544.951 236.078 507.39L237.565 506.992C247.559 544.291 267.196 578.303 294.501 605.608C321.806 632.914 355.818 652.551 393.118 662.545L392.72 664.032Z" fill="white" fill-opacity="0.15"/>
<path d="M507.39 236.078C544.951 246.143 579.201 265.917 606.697 293.413C634.194 320.91 653.968 355.159 664.032 392.72L662.546 393.118C652.551 355.819 632.914 321.807 605.609 294.502C578.304 267.196 544.292 247.559 506.992 237.565L507.39 236.078Z" fill="white" fill-opacity="0.05"/>
<path d="M724.88 523.696C711.954 571.938 686.558 615.927 651.242 651.243C615.926 686.559 571.937 711.956 523.695 724.883L523.182 722.973C571.089 710.136 614.774 684.915 649.844 649.845C684.914 614.775 710.134 571.091 722.971 523.184L724.88 523.696Z" fill="white" fill-opacity="0.05"/>
<path d="M175.229 376.417C188.155 328.175 213.552 284.185 248.868 248.869C284.184 213.554 328.173 188.156 376.416 175.23L376.927 177.139C329.02 189.976 285.336 215.197 250.266 250.267C215.196 285.338 189.975 329.022 177.138 376.928L175.229 376.417Z" fill="white" fill-opacity="0.15"/>
<path d="M359.502 788.005C300.179 772.11 246.086 740.878 202.659 697.451C159.231 654.023 128.001 599.93 112.105 540.607L114.453 539.979C130.238 598.89 161.252 652.606 204.378 695.732C247.503 738.857 301.221 769.871 360.131 785.656L359.502 788.005Z" fill="white" fill-opacity="0.05"/>
<path d="M540.609 112.105C599.931 128 654.024 159.231 697.451 202.658C740.878 246.086 772.11 300.179 788.005 359.502L785.656 360.131C769.871 301.22 738.857 247.503 695.732 204.377C652.606 161.252 598.89 130.238 539.979 114.454L540.609 112.105Z" fill="white" fill-opacity="0.15"/>
<path d="M884.11 566.36C863.694 642.552 823.582 712.028 767.805 767.805C712.028 823.582 642.552 863.694 566.36 884.11L565.551 881.094C641.215 860.82 710.208 820.986 765.597 765.597C820.986 710.208 860.82 641.214 881.094 565.551L884.11 566.36Z" fill="white" fill-opacity="0.15"/>
<path d="M16 333.751C36.4156 257.558 76.5277 188.082 132.305 132.305C188.082 76.5278 257.558 36.4157 333.75 16L334.559 19.016C258.896 39.2898 189.902 79.1232 134.513 134.513C79.1231 189.902 39.2898 258.896 19.016 334.559L16 333.751Z" fill="white" fill-opacity="0.05"/>
</g>
</svg>
