<svg width="40" height="40" viewBox="0 0 40 40" fill="none" xmlns="http://www.w3.org/2000/svg">
<path d="M33 24.1336C33 31.0395 27.3812 36.6578 20.4758 36.6578H16.0424C15.3078 36.6578 14.7124 36.0625 14.7124 35.3279V34.8845C14.7124 34.1498 15.3077 33.5545 16.0424 33.5545H20.4758C25.6702 33.5545 29.8966 29.3281 29.8966 24.1336C29.8966 18.9392 25.6702 14.7128 20.4758 14.7128H12.2965L17.9296 20.3458C18.5346 20.9506 18.5346 21.9352 17.9296 22.54C17.3425 23.1266 16.3208 23.1258 15.735 22.54L7.45359 14.2583C7.16053 13.9653 6.99902 13.5756 6.99902 13.161C6.99902 12.7468 7.16053 12.3569 7.45359 12.0639L15.7355 3.78193C16.3212 3.19574 17.3438 3.19574 17.9296 3.78193C18.5347 4.38658 18.5347 5.37131 17.9296 5.97589L12.2966 11.6094H20.4758C27.3812 11.6094 33 17.2279 33 24.1336Z" fill="#DCFF00"/>
</svg>
