<svg width="40" height="40" viewBox="0 0 40 40" fill="none" xmlns="http://www.w3.org/2000/svg">
<path fill-rule="evenodd" clip-rule="evenodd" d="M19.2556 5.12939H11.4705V5.13038L2.24425 22.4295H2.24316V32.233H3.68416C3.68468 29.8448 5.62087 27.9089 8.00922 27.9089C10.3976 27.9089 12.3338 29.8448 12.3343 32.233H13.2V22.4295H9.16429L15.5075 7.72482H11.4708V7.72443H17.2386V23.7144C16.0689 24.082 15.2205 25.1748 15.2205 26.4657C15.2205 28.0581 16.5115 29.3491 18.1039 29.3491C18.3024 29.3491 18.4961 29.329 18.6833 29.2908V27.7868C18.5063 27.8643 18.3108 27.9073 18.1053 27.9073C17.3091 27.9073 16.6636 27.2619 16.6636 26.4656C16.6636 25.6694 17.3091 25.024 18.1053 25.024C18.3108 25.024 18.5063 25.067 18.6833 25.1445V23.8711H18.9686V7.72443H19.2556V5.12939ZM10.894 32.233C10.894 33.8254 9.60303 35.1163 8.01058 35.1163C6.41814 35.1163 5.12721 33.8254 5.12721 32.233C5.12721 30.6405 6.41814 29.3496 8.01058 29.3496C9.60303 29.3496 10.894 30.6405 10.894 32.233ZM37.9982 17.2387H31.3665V18.9687L31.3657 18.9687V17.2387L27.9056 23.5821H29.6356L31.9423 18.9687L37.9982 18.9687V17.2387ZM28.8425 23.5828C24.5041 23.5828 20.9872 27.0997 20.9872 31.4381V32.8096H26.4214C26.2621 32.3588 26.1754 31.8737 26.1754 31.3683C26.1754 28.9796 28.1118 27.0432 30.5005 27.0432C32.8891 27.0432 34.8255 28.9796 34.8255 31.3683C34.8255 31.8737 34.7389 32.3588 34.5796 32.8096H37.9991V23.5828H28.8425ZM33.6739 31.3673C33.6739 33.119 32.2539 34.539 30.5022 34.539C28.7505 34.539 27.3305 33.119 27.3305 31.3673C27.3305 29.6156 28.7505 28.1956 30.5022 28.1956C32.2539 28.1956 33.6739 29.6156 33.6739 31.3673Z" fill="#DCFF00"/>
</svg>
