<svg width="24" height="24" viewBox="0 0 24 24" fill="none" xmlns="http://www.w3.org/2000/svg">
<path d="M17.5261 4.54214L18.1849 3.28548L16.8701 2.59616L16.2124 3.85074C15.137 3.37871 13.9683 3.08155 12.7422 2.9956V1.48454H15.1307V0H8.869V1.48454H11.2576V2.99565C10.0314 3.08155 8.86272 3.37875 7.78737 3.85079L7.12967 2.59621L5.81487 3.28553L6.47365 4.54219C3.48152 6.39795 1.48438 9.71218 1.48438 13.4845C1.48438 19.2828 6.20159 24 11.9998 24C17.7981 24 22.5153 19.2828 22.5153 13.4845C22.5153 9.71218 20.5182 6.39795 17.5261 4.54214ZM11.9998 22.5155C7.02016 22.5155 2.96891 18.4642 2.96891 13.4845C2.96891 8.50486 7.02016 4.45361 11.9998 4.45361C16.9795 4.45361 21.0308 8.50486 21.0308 13.4845C21.0308 18.4642 16.9795 22.5155 11.9998 22.5155Z" fill="#2B963A"/>
<path d="M12.7421 7.17504H11.2576V14.2266H18.3091V12.7421H12.7421V7.17504Z" fill="#2B963A"/>
</svg>
