<svg width="26" height="26" viewBox="0 0 26 26" fill="none" xmlns="http://www.w3.org/2000/svg">
<path d="M22.198 3.80603C17.1287 -1.26331 8.87761 -1.26331 3.80828 3.80603C1.35267 6.2626 0 9.52802 0 13.0009C0 16.4737 1.35267 19.7392 3.80828 22.1948C6.34345 24.7299 9.67331 25.997 13.0031 25.997C16.3329 25.997 19.6628 24.7299 22.198 22.1948C27.2673 17.1254 27.2673 8.87634 22.198 3.80603ZM20.7738 20.7705C16.4891 25.0553 9.51716 25.0553 5.23245 20.7705C3.15761 18.6957 2.01441 15.9359 2.01441 13.0009C2.01441 10.0659 3.15761 7.30607 5.23245 5.23021C9.51716 0.945497 16.4891 0.946512 20.7738 5.23021C25.0575 9.51492 25.0575 16.4869 20.7738 20.7705Z" fill="white" fill-opacity="0.3"/>
<path d="M17.3434 15.7844L14.4919 12.937L17.3434 10.0896C17.7362 9.6968 17.7362 9.05924 17.3444 8.66537C16.9506 8.27055 16.313 8.27156 15.9192 8.66436L13.0658 11.5138L10.2123 8.66436C9.81852 8.27156 9.18096 8.27055 8.78715 8.66537C8.39435 9.05919 8.39435 9.69675 8.78816 10.0896L11.6396 12.937L8.78816 15.7844C8.39435 16.1772 8.39435 16.8147 8.78715 17.2086C8.98357 17.406 9.24241 17.5037 9.50027 17.5037C9.75814 17.5037 10.016 17.405 10.2124 17.2096L13.0658 14.3601L15.9192 17.2096C16.1157 17.406 16.3735 17.5037 16.6314 17.5037C16.8892 17.5037 17.1481 17.405 17.3445 17.2086C17.7372 16.8147 17.7372 16.1772 17.3434 15.7844Z" fill="white" fill-opacity="0.3"/>
</svg>
