<svg width="33" height="28" viewBox="0 0 33 28" fill="none" xmlns="http://www.w3.org/2000/svg">
<path fill-rule="evenodd" clip-rule="evenodd" d="M5.93574 25.4741L3.81913 22.6386C3.48447 22.1902 3.58224 21.555 4.03511 21.2266C5.46742 20.1877 7.40455 18.7593 7.65124 18.4852C8.02527 18.0696 8.45561 17.5294 8.48596 16.2601C8.46766 16.0984 8.62983 15.6464 9.42495 15.1324L10.8999 13.952L10.5937 12.966C10.4699 12.5674 10.6068 12.1338 10.9369 11.8784L15.9426 8.0067C16.2978 7.73196 16.7926 7.72769 17.1525 7.99625L17.7739 8.45995L21.5842 5.60327L21.6316 5.20163C21.8381 3.44914 24.0615 2.82284 25.1524 4.20987L28.7013 1.51959L29.6877 2.78273L24.0052 7.18357C24.3919 7.70924 24.2883 8.44745 23.7718 8.8463L20.6483 11.2584C20.3805 11.4651 20.3758 11.8675 20.6408 12.0779C21.6561 12.8842 23.1177 14.005 23.4716 14.1232C23.5766 14.1582 23.6752 14.2213 23.797 14.2992C24.2216 14.5707 24.9275 15.0221 27.1617 15.0929C27.758 15.1117 28.2351 15.6171 28.1807 16.2112L27.9783 18.4246C27.9296 18.9563 27.4716 19.3536 26.9423 19.2835C25.0556 19.0336 22.361 18.3746 22.0449 18.2536C21.9646 18.2228 21.8723 18.1909 21.768 18.1549C21.0191 17.8963 19.6485 17.4231 17.5876 15.5927C17.5669 15.8713 17.4297 16.526 17.0466 16.9158L15.5209 18.094L17.1212 22.2522C17.2811 22.6677 17.1471 23.1389 16.7923 23.408L15.7202 24.2214C15.1735 24.6361 14.381 24.3895 14.1661 23.7378L12.7831 19.544C12.5106 18.7174 11.3852 18.6095 10.9606 19.3693L7.61 25.3638C7.25658 25.9961 6.36905 26.0546 5.93574 25.4741ZM23.0718 5.87194L24.0194 5.12579C23.6551 4.71159 22.9741 5.01357 23.0365 5.56169L23.0718 5.87194ZM15.7066 15.0187L15.828 14.9361C16.1046 14.7481 16.4811 14.8708 16.464 15.2049C16.4366 15.7395 16.1342 16.4395 15.0858 17.0076C14.8052 16.2809 15.0625 15.4567 15.7066 15.0187Z" fill="#B8B8B8"/>
</svg>
