<svg width="27" height="27" viewBox="0 0 27 27" fill="none" xmlns="http://www.w3.org/2000/svg">
<path d="M15.7089 11.7322V11.5112C15.7089 10.4128 14.8185 9.52246 13.7202 9.52246H13.61C12.5725 9.52246 11.7314 10.3635 11.7314 11.4011V11.499C11.7314 12.5664 12.6593 13.3968 13.7202 13.279V13.279C14.7811 13.1611 15.7089 13.9915 15.7089 15.059V15.4717C15.7089 16.5794 14.8109 17.4774 13.7032 17.4774V17.4774C12.6142 17.4774 11.7314 16.5946 11.7314 15.5057V14.8258" stroke="#B8B8B8" stroke-width="1.3" stroke-linecap="round" stroke-linejoin="round"/>
<path d="M24.9907 13.5C24.9907 16.3108 23.9605 19.0241 22.0949 21.1265C20.2293 23.2289 17.6578 24.5746 14.8669 24.9089C12.0761 25.2432 9.25951 24.543 6.95013 22.9407C4.64075 21.3384 2.99877 18.9452 2.33488 16.214C1.67099 13.4827 2.03124 10.6028 3.34747 8.11927C4.6637 5.63571 6.84461 3.72073 9.47752 2.73669C12.1104 1.75266 15.0127 1.76782 17.6352 2.77931C20.2577 3.7908 22.4185 5.72845 23.7087 8.22563" stroke="#B8B8B8" stroke-width="1.3" stroke-linecap="round" stroke-linejoin="round"/>
<path d="M7.25 7.25C8.77887 5.72113 10.8151 4.80568 12.9734 4.67687C15.1317 4.54805 17.2624 5.21481 18.9623 6.55099C20.6621 7.88716 21.8133 9.80006 22.1979 11.9277C22.5825 14.0554 22.1739 16.2502 21.0494 18.097C19.9249 19.9437 18.1625 21.3142 16.0957 21.9491C14.0288 22.5841 11.801 22.4394 9.83361 21.5425C7.86624 20.6457 6.29586 19.0588 5.41959 17.0822C4.54332 15.1055 4.42196 12.8763 5.07846 10.8162" stroke="#B8B8B8" stroke-width="1.3" stroke-linecap="round" stroke-linejoin="round"/>
<path d="M13.5 9.5226V8.19678" stroke="#B8B8B8" stroke-linecap="round" stroke-linejoin="round"/>
<path d="M13.5 18.8033V17.9194" stroke="#B8B8B8" stroke-linecap="round" stroke-linejoin="round"/>
</svg>
