<svg width="44" height="44" viewBox="0 0 44 44" fill="none" xmlns="http://www.w3.org/2000/svg">
<g clip-path="url(#clip0)">
<path d="M34.0674 23.0605H39.2233V35.406H34.0674V23.0605Z" fill="#D4FF00"/>
<path d="M24.3037 23.0605H29.46V35.406H24.3037V23.0605Z" fill="#D4FF00"/>
<path d="M14.54 23.0605H19.6963V35.406H14.54V23.0605Z" fill="#D4FF00"/>
<path d="M4.77637 23.0605H9.93228V35.406H4.77637V23.0605Z" fill="#D4FF00"/>
<path d="M40.943 19.1934V17.9043H3.05762V19.1934C3.05762 19.9054 3.63467 20.4824 4.34668 20.4824H39.6539C40.3656 20.4824 40.943 19.9054 40.943 19.1934Z" fill="#D4FF00"/>
<path d="M42.7099 37.9844H1.29004C0.578033 37.9844 0.000976562 38.5614 0.000976562 39.2734V42.7109C0.000976562 43.4229 0.578033 44 1.29004 44H42.7099C43.4219 44 43.999 43.4229 43.999 42.7109V39.2734C43.999 38.5614 43.4219 37.9844 42.7099 37.9844Z" fill="#D4FF00"/>
<path d="M1.28895 15.3264H42.7108C43.2875 15.3264 43.7941 14.9434 43.9512 14.3885C44.108 13.8336 43.8777 13.2418 43.3865 12.9396L22.6756 0.191345C22.2614 -0.0637817 21.7387 -0.0637817 21.3241 0.191345L0.613196 12.9396C0.122077 13.2421 -0.108208 13.8336 0.0488961 14.3885C0.206001 14.9434 0.712562 15.3264 1.28895 15.3264ZM21.1237 7.58197H22.8764C23.5884 7.58197 24.1654 8.15903 24.1654 8.87103C24.1654 9.58304 23.5884 10.1601 22.8764 10.1601H21.1237C20.4117 10.1601 19.8347 9.58304 19.8347 8.87103C19.8347 8.15903 20.4117 7.58197 21.1237 7.58197Z" fill="#D4FF00"/>
</g>
<defs>
<clipPath id="clip0">
<rect width="44" height="44" fill="white"/>
</clipPath>
</defs>
</svg>
