<svg width="26" height="26" viewBox="0 0 26 26" fill="none" xmlns="http://www.w3.org/2000/svg">
<g clip-path="url(#clip0)">
<path d="M16.7793 18.4899C16.7793 20.0605 18.0572 21.3386 19.628 21.3386C21.1987 21.3386 22.4767 20.0605 22.4767 18.4899C22.4767 17.432 20.896 15.4714 19.628 14.1782C18.3601 15.4714 16.7793 17.432 16.7793 18.4899Z" fill="#F02D2D"/>
<path d="M22.1924 3.8076C19.737 1.35225 16.4724 0 13 0C9.52763 0 6.26295 1.35225 3.8076 3.8076C1.35225 6.26295 0 9.52763 0 13C0 16.4724 1.35225 19.737 3.8076 22.1924C6.26295 24.6478 9.52763 26 13 26C16.4724 26 19.737 24.6478 22.1924 22.1924C24.6478 19.737 26 16.4724 26 13C26 9.52763 24.6478 6.26295 22.1924 3.8076ZM15.9691 8.63281C15.9691 9.35149 16.5539 9.93626 17.2726 9.93626C17.9912 9.93626 18.576 9.35149 18.576 8.63281H20.0995C20.0995 10.1916 18.8313 11.4597 17.2726 11.4597C15.7138 11.4597 14.4457 10.1916 14.4457 8.63281H15.9691ZM5.90054 8.63281H7.42398C7.42398 9.35149 8.00876 9.93626 8.72743 9.93626C9.44611 9.93626 10.0309 9.35149 10.0309 8.63281H11.5543C11.5543 10.1916 10.2862 11.4597 8.72743 11.4597C7.16869 11.4597 5.90054 10.1916 5.90054 8.63281ZM19.6272 22.8621C17.2162 22.8621 15.255 20.9007 15.255 18.4899C15.255 18.2527 15.2903 18.0012 15.3605 17.7348C14.6762 17.2823 13.8613 17.024 13 17.024C11.1659 17.024 9.53716 18.1898 8.94682 19.9249L7.50452 19.4341C8.30511 17.0813 10.5135 15.5006 13 15.5006C14.0759 15.5006 15.0987 15.7981 15.9788 16.3246C16.2932 15.7878 16.7104 15.204 17.2341 14.5687C18.1573 13.4485 19.068 12.592 19.1062 12.5561L19.6272 12.0679L20.1481 12.5561C20.1863 12.592 21.097 13.4485 22.0202 14.5687C23.3518 16.1847 23.9993 17.4674 23.9993 18.4899C23.9993 20.9007 22.0379 22.8621 19.6272 22.8621Z" fill="#F02D2D"/>
</g>
<defs>
<clipPath id="clip0">
<rect width="26" height="26" fill="white"/>
</clipPath>
</defs>
</svg>
