<svg width="26" height="26" viewBox="0 0 26 26" fill="none" xmlns="http://www.w3.org/2000/svg">
<path d="M22.9246 15.4086C24.6171 15.4086 25.9939 14.0317 25.9939 12.3394V10.8734H24.0487C23.4513 10.8734 22.8736 11.0479 22.3786 11.3706C22.3233 11.0661 22.254 10.7653 22.17 10.4694L22.7568 10.1317C23.4668 9.7218 23.9747 9.05994 24.1869 8.26804C24.3991 7.47608 24.2902 6.64899 23.8803 5.939L23.1473 4.66936L21.4627 5.64194C20.9453 5.94067 20.5324 6.38067 20.2656 6.90756C20.0541 6.65905 19.8287 6.42069 19.5906 6.19304L19.8734 5.70328C20.2833 4.99328 20.3922 4.16614 20.18 3.37429C19.9678 2.58233 19.46 1.92048 18.7499 1.51059L17.4804 0.777588L16.5078 2.46209C16.0978 3.17208 15.9889 3.99923 16.2011 4.79113C16.4133 5.58303 16.9212 6.24489 17.6311 6.65478L18.18 6.97174C19.9789 8.4967 21.0098 10.7204 21.0098 13.0832C21.0098 16.4563 18.9155 19.3491 15.959 20.5304V22.8726C16.37 23.5684 17.0246 24.0665 17.8064 24.276C18.0709 24.3469 18.3392 24.3819 18.6058 24.3819C19.1376 24.3819 19.6626 24.2424 20.1355 23.9693L21.4051 23.2364L20.4325 21.5518C20.1331 21.0331 19.6917 20.6195 19.1631 20.3527C19.3987 20.1525 19.6244 19.9412 19.8395 19.7194L20.4315 20.0624C20.9045 20.3355 21.4293 20.475 21.9612 20.475C22.2278 20.475 22.4962 20.4399 22.7605 20.3691C23.5524 20.1569 24.2143 19.649 24.6242 18.939L25.3572 17.6694L23.6727 16.6969C23.1554 16.3982 22.5675 16.2609 21.9768 16.2938C22.0805 16.0046 22.1706 15.7089 22.2463 15.4077L22.9246 15.4086Z" fill="#DCFF00"/>
<path d="M4.98439 13.0864C4.98439 10.7235 6.01526 8.49982 7.81417 6.97487L8.36304 6.6579C9.07304 6.24801 9.58088 5.58616 9.79309 4.79425C10.0053 4.0023 9.89642 3.17521 9.48648 2.46521L8.51396 0.780762L7.24432 1.51371C5.77868 2.3599 5.2747 4.24076 6.12088 5.7064L6.40367 6.19617C6.16542 6.42386 5.94001 6.66232 5.72846 6.91094C5.46161 6.38395 5.04873 5.94384 4.53119 5.64506L2.84663 4.67248L2.11364 5.94207C1.7037 6.65206 1.59482 7.47921 1.80703 8.27111C2.01924 9.06301 2.52708 9.72487 3.23799 10.1353L3.82414 10.4727C3.74015 10.7686 3.67083 11.0694 3.61559 11.3739C3.12054 11.0511 2.54267 10.8765 1.9451 10.8765H0V12.3425C0 14.0349 1.37688 15.4117 3.07032 15.4117L3.74797 15.4108C3.82368 15.7122 3.91386 16.0078 4.01755 16.297C3.42669 16.2641 2.83866 16.4014 2.32127 16.7001L0.636772 17.6725L1.36977 18.9422C1.77966 19.6522 2.44152 20.1601 3.23347 20.3723C3.49783 20.4431 3.76604 20.4781 4.03258 20.4781C4.5646 20.4781 5.08976 20.3385 5.56338 20.0651L6.15475 19.7225C6.3698 19.9443 6.59552 20.1556 6.83108 20.3558C6.30242 20.6226 5.86089 21.0362 5.56145 21.555L4.58887 23.2396L5.85845 23.9725C6.33141 24.2456 6.85627 24.3851 7.38818 24.3851C7.65477 24.3851 7.92314 24.3501 8.18755 24.2792C8.96904 24.0698 9.62343 23.572 10.035 22.8757V20.5334C7.07858 19.352 4.98439 16.4593 4.98439 13.0864Z" fill="#DCFF00"/>
<path d="M18.2559 13.0583C18.2559 10.157 15.8955 7.79663 12.9942 7.79663C10.0928 7.79663 7.73242 10.157 7.73242 13.0583C7.73242 15.9597 10.0928 18.32 12.9942 18.32C15.8955 18.32 18.2559 15.9597 18.2559 13.0583ZM14.7719 15.6399H11.2171V14.1165H12.2328V12.0002H11.471V10.4769H13.7562V14.1165H14.7719V15.6399Z" fill="#DCFF00"/>
<path d="M14.4362 19.6887C13.9713 19.7898 13.4889 19.8435 12.9941 19.8435C12.4996 19.8435 12.0175 19.7898 11.5527 19.6889V25.2233L12.9946 24.7248L14.4362 25.2232V19.6887H14.4362Z" fill="#DCFF00"/>
</svg>
