<svg width="306" height="126" viewBox="0 0 306 126" fill="none" xmlns="http://www.w3.org/2000/svg">
<path d="M10 1H295.405C301.199 1 305.484 6.39669 304.17 12.0407L279.493 118.041C278.544 122.116 274.912 125 270.727 125H9.99998C5.02942 125 1 120.971 1 116V10C1 5.02944 5.02944 1 10 1Z" fill="white" fill-opacity="0.1"/>
<path d="M10 1H295.405C301.199 1 305.484 6.39669 304.17 12.0407L279.493 118.041C278.544 122.116 274.912 125 270.727 125H9.99998C5.02942 125 1 120.971 1 116V10C1 5.02944 5.02944 1 10 1Z" fill="url(#paint0_linear)"/>
<path d="M10 1H295.405C301.199 1 305.484 6.39669 304.17 12.0407L279.493 118.041C278.544 122.116 274.912 125 270.727 125H9.99998C5.02942 125 1 120.971 1 116V10C1 5.02944 5.02944 1 10 1Z" stroke="#7F7F80" stroke-width="2"/>
<path d="M10 1H295.405C301.199 1 305.484 6.39669 304.17 12.0407L279.493 118.041C278.544 122.116 274.912 125 270.727 125H9.99998C5.02942 125 1 120.971 1 116V10C1 5.02944 5.02944 1 10 1Z" stroke="url(#paint1_linear)" stroke-width="2"/>
<defs>
<linearGradient id="paint0_linear" x1="-756" y1="446.5" x2="308" y2="-3.11622e-05" gradientUnits="userSpaceOnUse">
<stop stop-color="white"/>
<stop offset="0.958333" stop-color="white" stop-opacity="0"/>
</linearGradient>
<linearGradient id="paint1_linear" x1="11.5197" y1="121" x2="286.855" y2="-26.4769" gradientUnits="userSpaceOnUse">
<stop stop-color="#F02D2D"/>
<stop offset="1" stop-color="#F02D2D" stop-opacity="0"/>
</linearGradient>
</defs>
</svg>
