<svg width="24" height="22" viewBox="0 0 24 22" fill="none" xmlns="http://www.w3.org/2000/svg">
<path d="M24 6.92188C24 5.35578 24 4.26017 24 4.15625C24 2.99314 23.0537 2.04688 21.8906 2.04688H21.6094V4.625C21.6094 5.01331 21.2946 5.32812 20.9062 5.32812C20.5179 5.32812 20.2031 5.01331 20.2031 4.625C20.2031 3.83567 20.2031 1.661 20.2031 0.875C20.2031 0.486687 19.8883 0.171875 19.5 0.171875C19.1117 0.171875 18.7969 0.486687 18.7969 0.875V2.04688H14.1094V4.625C14.1094 5.01331 13.7946 5.32812 13.4062 5.32812C13.0179 5.32812 12.7031 5.01331 12.7031 4.625C12.7031 3.83567 12.7031 1.661 12.7031 0.875C12.7031 0.486687 12.3883 0.171875 12 0.171875C11.6117 0.171875 11.2969 0.486687 11.2969 0.875V2.04688H6.60938V4.625C6.60938 5.01331 6.29456 5.32812 5.90625 5.32812C5.51794 5.32812 5.20312 5.01331 5.20312 4.625C5.20312 3.83567 5.20312 1.661 5.20312 0.875C5.20312 0.486687 4.88831 0.171875 4.5 0.171875C4.11169 0.171875 3.79688 0.486687 3.79688 0.875V2.04688H2.10938C0.946266 2.04688 0 2.99314 0 4.15625V6.92188H24Z" fill="white" fill-opacity="0.5"/>
<path d="M0 8.32812V19.7188C0 20.8819 0.946266 21.8281 2.10938 21.8281H21.8906C23.0537 21.8281 24 20.8819 24 19.7188C24 19.4176 24 12.8369 24 8.32812C23.5624 8.32812 0.242063 8.32812 0 8.32812ZM6.75 18.0781H5.25C4.86169 18.0781 4.54688 17.7633 4.54688 17.375C4.54688 16.9867 4.86169 16.6719 5.25 16.6719H6.75C7.13831 16.6719 7.45312 16.9867 7.45312 17.375C7.45312 17.7633 7.13831 18.0781 6.75 18.0781ZM6.75 15.0781H5.25C4.86169 15.0781 4.54688 14.7633 4.54688 14.375C4.54688 13.9867 4.86169 13.6719 5.25 13.6719H6.75C7.13831 13.6719 7.45312 13.9867 7.45312 14.375C7.45312 14.7633 7.13831 15.0781 6.75 15.0781ZM6.75 12.0781H5.25C4.86169 12.0781 4.54688 11.7633 4.54688 11.375C4.54688 10.9867 4.86169 10.6719 5.25 10.6719H6.75C7.13831 10.6719 7.45312 10.9867 7.45312 11.375C7.45312 11.7633 7.13831 12.0781 6.75 12.0781ZM12.75 18.0781H11.25C10.8617 18.0781 10.5469 17.7633 10.5469 17.375C10.5469 16.9867 10.8617 16.6719 11.25 16.6719H12.75C13.1383 16.6719 13.4531 16.9867 13.4531 17.375C13.4531 17.7633 13.1383 18.0781 12.75 18.0781ZM12.75 15.0781H11.25C10.8617 15.0781 10.5469 14.7633 10.5469 14.375C10.5469 13.9867 10.8617 13.6719 11.25 13.6719H12.75C13.1383 13.6719 13.4531 13.9867 13.4531 14.375C13.4531 14.7633 13.1383 15.0781 12.75 15.0781ZM12.75 12.0781H11.25C10.8617 12.0781 10.5469 11.7633 10.5469 11.375C10.5469 10.9867 10.8617 10.6719 11.25 10.6719H12.75C13.1383 10.6719 13.4531 10.9867 13.4531 11.375C13.4531 11.7633 13.1383 12.0781 12.75 12.0781ZM18.75 18.0781H17.25C16.8617 18.0781 16.5469 17.7633 16.5469 17.375C16.5469 16.9867 16.8617 16.6719 17.25 16.6719H18.75C19.1383 16.6719 19.4531 16.9867 19.4531 17.375C19.4531 17.7633 19.1383 18.0781 18.75 18.0781ZM18.75 15.0781H17.25C16.8617 15.0781 16.5469 14.7633 16.5469 14.375C16.5469 13.9867 16.8617 13.6719 17.25 13.6719H18.75C19.1383 13.6719 19.4531 13.9867 19.4531 14.375C19.4531 14.7633 19.1383 15.0781 18.75 15.0781ZM18.75 12.0781H17.25C16.8617 12.0781 16.5469 11.7633 16.5469 11.375C16.5469 10.9867 16.8617 10.6719 17.25 10.6719H18.75C19.1383 10.6719 19.4531 10.9867 19.4531 11.375C19.4531 11.7633 19.1383 12.0781 18.75 12.0781Z" fill="white" fill-opacity="0.5"/>
</svg>
