<svg width="18" height="24" viewBox="0 0 18 24" fill="none" xmlns="http://www.w3.org/2000/svg">
<path d="M9.00074 0C4.16262 0 0.226562 4.00679 0.226562 8.93181C0.226562 11.6867 1.61988 15.0304 4.36793 18.8701C6.37897 21.6802 8.36066 23.6843 8.44405 23.7683C8.59733 23.9226 8.79899 24 9.00088 24C9.19691 24 9.39308 23.927 9.54514 23.7805C9.62872 23.7 11.6154 21.777 13.6303 19.0058C16.3805 15.2229 17.775 11.8336 17.775 8.93177C17.7749 4.00679 13.8388 0 9.00074 0ZM9.00074 12.7878C6.63542 12.7878 4.71115 10.8635 4.71115 8.49822C4.71115 6.13295 6.63547 4.20863 9.00074 4.20863C11.366 4.20863 13.2903 6.13295 13.2903 8.49822C13.2903 10.8635 11.366 12.7878 9.00074 12.7878Z" fill="white" fill-opacity="0.5"/>
</svg>
