<svg width="24" height="24" viewBox="0 0 24 24" fill="none" xmlns="http://www.w3.org/2000/svg">
<path d="M16.9408 19.9594C17.6896 19.4913 18.3677 18.9204 18.9554 18.266L21.074 19.4901L23.003 16.1471L20.8887 14.9257C21.1575 14.1045 21.3156 13.2335 21.3453 12.3307L23.7506 11.9063L23.0804 8.10493L20.6755 8.52927C20.3431 7.70511 19.8972 6.93877 19.3565 6.25008L20.9286 4.37584L17.9731 1.89479L16.4023 3.76744C15.6352 3.35612 14.8043 3.04864 13.9288 2.86414V0.421875H10.0707V2.86414C9.19503 3.04864 8.36422 3.35612 7.59694 3.76744L6.02629 1.89479L3.0708 4.37593L4.6427 6.25017C4.10204 6.93886 3.65615 7.70529 3.32379 8.52935L0.918874 8.10502L0.249023 11.9064L2.65403 12.3308C2.68367 13.2337 2.84189 14.1045 3.11071 14.9259L0.996212 16.1472L2.92533 19.4902L5.04399 18.2665C5.63146 18.9206 6.30963 19.4916 7.0585 19.9596L6.2222 22.2582L9.84771 23.5782L10.6829 21.2828C11.1133 21.3437 11.5528 21.376 11.9997 21.376C12.4467 21.376 12.8863 21.3439 13.3167 21.2828L14.1517 23.5784L17.7771 22.258L16.9408 19.9594ZM11.9996 16.9492C9.28281 16.9492 7.07257 14.7379 7.07257 12.0197C7.07257 9.30163 9.28281 7.09016 11.9996 7.09016C14.7163 7.09016 16.9265 9.30163 16.9265 12.0197C16.9265 14.7379 14.7164 16.9492 11.9996 16.9492Z" fill="#DCFF00"/>
</svg>
