<svg width="766" height="766" viewBox="0 0 766 766" fill="none" xmlns="http://www.w3.org/2000/svg">
<path d="M508.523 608.67C529.895 595.31 549.251 579.017 566.023 560.338L626.491 595.275L681.548 499.86L621.202 464.999C628.875 441.562 633.388 416.703 634.234 390.934L702.887 378.823L683.758 270.324L615.118 282.435C605.632 258.912 592.906 237.04 577.472 217.383L622.341 163.889L537.987 93.0762L493.155 146.525C471.258 134.785 447.546 126.009 422.555 120.743V51.0366H312.439V120.743C287.446 126.009 263.734 134.785 241.834 146.525L197.005 93.0762L112.651 163.892L157.515 217.386C142.084 237.042 129.357 258.917 119.871 282.438L51.231 270.326L32.1123 378.825L100.755 390.937C101.601 416.708 106.117 441.562 113.79 465.007L53.4383 499.865L108.499 595.277L168.969 560.351C185.736 579.022 205.092 595.318 226.466 608.677L202.597 674.282L306.075 711.958L329.911 646.441C342.196 648.18 354.74 649.102 367.497 649.102C380.254 649.102 392.801 648.185 405.085 646.441L428.919 711.963L532.393 674.277L508.523 608.67ZM367.492 522.753C289.952 522.753 226.868 459.64 226.868 382.057C226.868 304.48 289.952 241.361 367.492 241.361C445.033 241.361 508.117 304.48 508.117 382.057C508.117 459.64 445.035 522.753 367.492 522.753Z" fill="#252A2D" fill-opacity="0.5"/>
<mask id="path-2-inside-1" fill="white">
<path d="M468.725 754.318C468.963 755.348 469.993 755.991 471.022 755.748C555.094 735.895 630.007 688.197 683.569 620.375C737.528 552.052 766.598 467.385 765.991 380.326C765.383 293.268 735.133 209.014 680.226 141.451C625.722 74.384 550.15 27.7364 465.809 9.05937C464.777 8.8307 463.756 9.48773 463.533 10.5215C463.309 11.5552 463.967 12.5742 465 12.8029C548.49 31.2959 623.299 77.4751 677.254 143.867C731.611 210.754 761.559 294.165 762.161 380.353C762.763 466.541 733.982 550.362 680.564 618.002C627.541 685.14 553.384 732.359 470.161 752.016C469.132 752.259 468.488 753.287 468.725 754.318Z"/>
</mask>
<path d="M468.725 754.318C468.963 755.348 469.993 755.991 471.022 755.748C555.094 735.895 630.007 688.197 683.569 620.375C737.528 552.052 766.598 467.385 765.991 380.326C765.383 293.268 735.133 209.014 680.226 141.451C625.722 74.384 550.15 27.7364 465.809 9.05937C464.777 8.8307 463.756 9.48773 463.533 10.5215C463.309 11.5552 463.967 12.5742 465 12.8029C548.49 31.2959 623.299 77.4751 677.254 143.867C731.611 210.754 761.559 294.165 762.161 380.353C762.763 466.541 733.982 550.362 680.564 618.002C627.541 685.14 553.384 732.359 470.161 752.016C469.132 752.259 468.488 753.287 468.725 754.318Z" stroke="#252A2D" stroke-opacity="0.5" stroke-width="8" mask="url(#path-2-inside-1)"/>
</svg>
