<svg width="54" height="54" viewBox="0 0 54 54" fill="none" xmlns="http://www.w3.org/2000/svg">
<g clip-path="url(#clip0)">
<path d="M40.1243 25.2492C39.6413 25.2492 39.2493 25.6412 39.2493 26.1241V36.032L32.2498 38.8319V29.6239C32.2498 29.1409 31.8578 28.749 31.3748 28.749C30.8919 28.749 30.4999 29.1409 30.4999 29.6239V38.8301L23.5003 36.0303V22.1676L27.5548 23.7898C27.9975 23.9683 28.512 23.7513 28.6922 23.3016C28.8725 22.8536 28.6537 22.3444 28.204 22.1641L22.9666 20.0678C22.9666 20.0678 22.9666 20.0678 22.9649 20.0678L22.9509 20.0625C22.7426 19.9785 22.5099 19.9785 22.3016 20.0625L22.2859 20.0678C22.2859 20.0678 22.2859 20.0678 22.2841 20.0678L13.5504 23.5623C13.2197 23.6953 13.001 24.0155 13.001 24.3742V40.1233C13.001 40.4138 13.1462 40.685 13.386 40.8477C13.5329 40.9475 13.7027 40.9982 13.8759 40.9982C13.9862 40.9982 14.0964 40.9772 14.2014 40.9352L22.6254 37.5667L31.0336 40.93C31.0336 40.93 31.0336 40.93 31.0354 40.93L31.0511 40.937C31.2593 41.021 31.4921 41.021 31.7003 40.937L31.7161 40.93C31.7161 40.93 31.7161 40.93 31.7178 40.93L40.4515 37.4372C40.7805 37.3024 40.9992 36.9822 40.9992 36.6235V26.1241C40.9992 25.6412 40.6073 25.2492 40.1243 25.2492ZM21.7504 36.0303L14.7509 38.8301V24.9657L21.7504 22.1659V36.0303Z" fill="#DCFF00"/>
<path d="M34.8748 16.4995C33.4277 16.4995 32.25 17.6772 32.25 19.1243C32.25 20.5715 33.4277 21.7492 34.8748 21.7492C36.322 21.7492 37.4997 20.5715 37.4997 19.1243C37.4997 17.6772 36.322 16.4995 34.8748 16.4995ZM34.8748 19.9993C34.3919 19.9993 33.9999 19.6073 33.9999 19.1243C33.9999 18.6414 34.3919 18.2494 34.8748 18.2494C35.3578 18.2494 35.7498 18.6414 35.7498 19.1243C35.7498 19.6073 35.3578 19.9993 34.8748 19.9993Z" fill="#DCFF00"/>
<path d="M34.8746 13C31.4973 13 28.75 15.7473 28.75 19.1246C28.75 22.2674 33.6637 27.8338 34.2237 28.4585C34.3899 28.6423 34.6261 28.749 34.8746 28.749C35.1231 28.749 35.3593 28.6423 35.5256 28.4585C36.0855 27.8338 40.9992 22.2674 40.9992 19.1246C40.9992 15.7473 38.2519 13 34.8746 13ZM34.8746 26.5389C32.9637 24.2728 30.4999 20.794 30.4999 19.1246C30.4999 16.7133 32.4633 14.7499 34.8746 14.7499C37.286 14.7499 39.2493 16.7133 39.2493 19.1246C39.2493 20.7923 36.7855 24.2728 34.8746 26.5389Z" fill="#DCFF00"/>
</g>
<defs>
<clipPath id="clip0">
<rect width="28" height="28" fill="white" transform="translate(13 13)"/>
</clipPath>
</defs>
</svg>
