<svg width="54" height="54" viewBox="0 0 54 54" fill="none" xmlns="http://www.w3.org/2000/svg">
<path d="M29.0562 25.6304C28.3009 25.6304 27.6865 26.2448 27.6865 27C27.6865 27.7553 28.3009 28.3697 29.0562 28.3697C29.8114 28.3697 30.4258 27.7553 30.4258 27C30.4258 26.2448 29.8114 25.6304 29.0562 25.6304Z" fill="#DCFF00"/>
<path d="M29.9629 21.4785V23.9484C30.6663 24.1578 31.2684 24.604 31.6764 25.1946L34.0256 24.4313C33.2266 22.8917 31.7332 21.7683 29.9629 21.4785Z" fill="#DCFF00"/>
<path d="M34.5891 26.1562L32.2393 26.9198C32.2399 26.9465 32.2413 26.973 32.2413 26.9998C32.2413 27.727 31.9958 28.3975 31.584 28.9342L33.0348 30.931C34.0345 29.9197 34.6527 28.5307 34.6527 26.9998C34.6527 26.7131 34.6309 26.4314 34.5891 26.1562Z" fill="#DCFF00"/>
<path d="M29.0563 15.0566H18.0197C17.5187 15.0566 17.1126 15.4628 17.1126 15.9638C17.1126 16.4648 17.5187 16.871 18.0197 16.871H22.7352C21.7403 17.494 20.8433 18.2592 20.073 19.1383H13.9072C13.4062 19.1384 13 19.5446 13 20.0456C13 20.5466 13.4062 20.9527 13.9072 20.9527H18.7607C17.7141 22.7277 17.1125 24.795 17.1125 27.0004C17.1125 29.5665 17.9262 31.9462 19.3088 33.8952H16.7349C16.2339 33.8952 15.8277 34.3014 15.8277 34.8024C15.8277 35.3034 16.2339 35.7095 16.7349 35.7095H20.8922C21.4578 36.2401 22.075 36.7162 22.7352 37.1297H14.0007C13.4997 37.1297 13.0936 37.5359 13.0936 38.0369C13.0936 38.5379 13.4997 38.944 14.0007 38.944H29.0563C35.6421 38.944 41 33.5861 41 27.0003C41 20.4145 35.6421 15.0566 29.0563 15.0566ZM33.4629 32.9537C33.4462 32.9678 33.4296 32.982 33.4117 32.9949C33.3914 33.0097 33.3707 33.0234 33.3498 33.0362C32.1377 33.9008 30.6553 34.4101 29.0563 34.4101C27.4572 34.4101 25.975 33.9008 24.7628 33.0362C24.7418 33.0234 24.7211 33.0097 24.7009 32.9949C24.683 32.9819 24.6664 32.9677 24.6497 32.9537C22.8288 31.6023 21.6465 29.4369 21.6465 27.0004C21.6465 22.9146 24.9705 19.5906 29.0563 19.5906C33.142 19.5906 36.4661 22.9146 36.4661 27.0004C36.4661 29.437 35.2838 31.6023 33.4629 32.9537Z" fill="#DCFF00"/>
<path d="M24.0859 24.4313L26.435 25.1946C26.8432 24.6041 27.4452 24.1579 28.1486 23.9484V21.4785C26.3784 21.7684 24.8849 22.8917 24.0859 24.4313Z" fill="#DCFF00"/>
<path d="M30.1157 30.0024C29.784 30.1199 29.4275 30.1845 29.0559 30.1845C28.6845 30.1845 28.3278 30.1199 27.9961 30.0024L26.5449 31.9997C27.3005 32.3807 28.1535 32.5958 29.0559 32.5958C29.9583 32.5958 30.8113 32.3808 31.5669 31.9997L30.1157 30.0024Z" fill="#DCFF00"/>
<path d="M25.8724 26.9998C25.8724 26.973 25.8737 26.9465 25.8744 26.9198L23.5245 26.1562C23.4827 26.4314 23.4609 26.7131 23.4609 26.9998C23.4609 28.5307 24.0792 29.9198 25.0788 30.9311L26.5297 28.9342C26.1179 28.3976 25.8724 27.727 25.8724 26.9998Z" fill="#DCFF00"/>
</svg>
