<svg width="40" height="38" viewBox="0 0 40 38" fill="none" xmlns="http://www.w3.org/2000/svg">
<path d="M40 12.2031C40 9.59297 40 7.76695 40 7.59375C40 5.65523 38.4229 4.07812 36.4844 4.07812H36.0156V8.375C36.0156 9.02219 35.4909 9.54688 34.8438 9.54688C34.1966 9.54688 33.6719 9.02219 33.6719 8.375C33.6719 7.05945 33.6719 3.435 33.6719 2.125C33.6719 1.47781 33.1472 0.953125 32.5 0.953125C31.8528 0.953125 31.3281 1.47781 31.3281 2.125V4.07812H23.5156V8.375C23.5156 9.02219 22.9909 9.54688 22.3438 9.54688C21.6966 9.54688 21.1719 9.02219 21.1719 8.375C21.1719 7.05945 21.1719 3.435 21.1719 2.125C21.1719 1.47781 20.6472 0.953125 20 0.953125C19.3528 0.953125 18.8281 1.47781 18.8281 2.125V4.07812H11.0156V8.375C11.0156 9.02219 10.4909 9.54688 9.84375 9.54688C9.19656 9.54688 8.67188 9.02219 8.67188 8.375C8.67188 7.05945 8.67188 3.435 8.67188 2.125C8.67188 1.47781 8.14719 0.953125 7.5 0.953125C6.85281 0.953125 6.32812 1.47781 6.32812 2.125V4.07812H3.51562C1.57711 4.07812 0 5.65523 0 7.59375V12.2031H40Z" fill="#2D3236"/>
<path d="M0 14.5469V33.5312C0 35.4698 1.57711 37.0469 3.51562 37.0469H36.4844C38.4229 37.0469 40 35.4698 40 33.5312C40 33.0293 40 22.0616 40 14.5469C39.2707 14.5469 0.403437 14.5469 0 14.5469ZM11.25 30.7969H8.75C8.10281 30.7969 7.57812 30.2722 7.57812 29.625C7.57812 28.9778 8.10281 28.4531 8.75 28.4531H11.25C11.8972 28.4531 12.4219 28.9778 12.4219 29.625C12.4219 30.2722 11.8972 30.7969 11.25 30.7969ZM11.25 25.7969H8.75C8.10281 25.7969 7.57812 25.2722 7.57812 24.625C7.57812 23.9778 8.10281 23.4531 8.75 23.4531H11.25C11.8972 23.4531 12.4219 23.9778 12.4219 24.625C12.4219 25.2722 11.8972 25.7969 11.25 25.7969ZM11.25 20.7969H8.75C8.10281 20.7969 7.57812 20.2722 7.57812 19.625C7.57812 18.9778 8.10281 18.4531 8.75 18.4531H11.25C11.8972 18.4531 12.4219 18.9778 12.4219 19.625C12.4219 20.2722 11.8972 20.7969 11.25 20.7969ZM21.25 30.7969H18.75C18.1028 30.7969 17.5781 30.2722 17.5781 29.625C17.5781 28.9778 18.1028 28.4531 18.75 28.4531H21.25C21.8972 28.4531 22.4219 28.9778 22.4219 29.625C22.4219 30.2722 21.8972 30.7969 21.25 30.7969ZM21.25 25.7969H18.75C18.1028 25.7969 17.5781 25.2722 17.5781 24.625C17.5781 23.9778 18.1028 23.4531 18.75 23.4531H21.25C21.8972 23.4531 22.4219 23.9778 22.4219 24.625C22.4219 25.2722 21.8972 25.7969 21.25 25.7969ZM21.25 20.7969H18.75C18.1028 20.7969 17.5781 20.2722 17.5781 19.625C17.5781 18.9778 18.1028 18.4531 18.75 18.4531H21.25C21.8972 18.4531 22.4219 18.9778 22.4219 19.625C22.4219 20.2722 21.8972 20.7969 21.25 20.7969ZM31.25 30.7969H28.75C28.1028 30.7969 27.5781 30.2722 27.5781 29.625C27.5781 28.9778 28.1028 28.4531 28.75 28.4531H31.25C31.8972 28.4531 32.4219 28.9778 32.4219 29.625C32.4219 30.2722 31.8972 30.7969 31.25 30.7969ZM31.25 25.7969H28.75C28.1028 25.7969 27.5781 25.2722 27.5781 24.625C27.5781 23.9778 28.1028 23.4531 28.75 23.4531H31.25C31.8972 23.4531 32.4219 23.9778 32.4219 24.625C32.4219 25.2722 31.8972 25.7969 31.25 25.7969ZM31.25 20.7969H28.75C28.1028 20.7969 27.5781 20.2722 27.5781 19.625C27.5781 18.9778 28.1028 18.4531 28.75 18.4531H31.25C31.8972 18.4531 32.4219 18.9778 32.4219 19.625C32.4219 20.2722 31.8972 20.7969 31.25 20.7969Z" fill="#2D3236"/>
</svg>
