<svg width="30" height="22" viewBox="0 0 30 22" fill="none" xmlns="http://www.w3.org/2000/svg">
<path d="M29.7442 10.3319L20.7447 0.33247C20.5527 0.120482 20.2847 0.000488281 20.0007 0.000488281H14.0011C13.6071 0.000488281 13.2491 0.232476 13.0871 0.592456C12.9271 0.954437 12.9931 1.37641 13.2571 1.6684L21.6547 10.9999L13.2571 20.3294C12.9931 20.6234 12.9251 21.0453 13.0871 21.4053C13.2491 21.7673 13.6071 21.9993 14.0011 21.9993H20.0007C20.2847 21.9993 20.5527 21.8773 20.7447 21.6693L29.7442 11.6699C30.0862 11.2899 30.0862 10.7099 29.7442 10.3319Z" fill="#DCFF00"/>
<path d="M16.7442 10.3319L7.7447 0.33247C7.55272 0.120482 7.28473 0.000488281 7.00075 0.000488281H1.00107C0.607092 0.000488281 0.249111 0.232476 0.0871198 0.592456C-0.0728715 0.954437 -0.00687508 1.37641 0.257111 1.6684L8.65466 10.9999L0.257111 20.3294C-0.00687508 20.6234 -0.0748714 21.0453 0.0871198 21.4053C0.249111 21.7673 0.607092 21.9993 1.00107 21.9993H7.00075C7.28473 21.9993 7.55272 21.8773 7.7447 21.6693L16.7442 11.6699C17.0862 11.2899 17.0862 10.7099 16.7442 10.3319Z" fill="#DCFF00"/>
</svg>
