<svg width="140" height="140" viewBox="0 0 140 140" fill="none" xmlns="http://www.w3.org/2000/svg">
<g clip-path="url(#clip0)">
<path d="M109.375 52.5H105V35C105 15.6975 89.3025 0 70 0C50.6975 0 35 15.6975 35 35V52.5H30.625C23.3917 52.5 17.5 58.3858 17.5 65.625V126.875C17.5 134.114 23.3917 140 30.625 140H109.375C116.608 140 122.5 134.114 122.5 126.875V65.625C122.5 58.3858 116.608 52.5 109.375 52.5ZM46.6667 35C46.6667 22.1317 57.1317 11.6667 70 11.6667C82.8683 11.6667 93.3333 22.1317 93.3333 35V52.5H46.6667V35ZM75.8333 97.545V110.833C75.8333 114.053 73.2258 116.667 70 116.667C66.7742 116.667 64.1667 114.053 64.1667 110.833V97.545C60.6958 95.5208 58.3333 91.7992 58.3333 87.5C58.3333 81.0658 63.5658 75.8333 70 75.8333C76.4342 75.8333 81.6667 81.0658 81.6667 87.5C81.6667 91.7992 79.3042 95.5208 75.8333 97.545Z" fill="white" fill-opacity="0.2"/>
</g>
<defs>
<clipPath id="clip0">
<rect width="140" height="140" fill="white"/>
</clipPath>
</defs>
</svg>
