<svg width="44" height="44" viewBox="0 0 44 44" fill="none" xmlns="http://www.w3.org/2000/svg">
<g clip-path="url(#clip0)">
<path d="M21.6867 21.1949C24.5985 21.1949 27.1198 20.1506 29.18 18.0901C31.2401 16.03 32.2845 13.5093 32.2845 10.5971C32.2845 7.686 31.2401 5.16496 29.1796 3.10414C27.1192 1.04434 24.5981 0 21.6867 0C18.7745 0 16.2538 1.04434 14.1937 3.10448C12.1335 5.16462 11.0889 7.68567 11.0889 10.5971C11.0889 13.5093 12.1335 16.0303 14.194 18.0904C16.2545 20.1502 18.7755 21.1949 21.6867 21.1949Z" fill="#D4FF00"/>
<path d="M40.2297 33.834C40.1703 32.9766 40.0501 32.0414 39.8732 31.0538C39.6946 30.0588 39.4646 29.1182 39.1894 28.2585C38.905 27.3699 38.5183 26.4924 38.0403 25.6515C37.5442 24.7787 36.9614 24.0187 36.3075 23.3933C35.6237 22.739 34.7864 22.213 33.8183 21.8293C32.8535 21.4476 31.7843 21.2542 30.6406 21.2542C30.1915 21.2542 29.7571 21.4385 28.9182 21.9847C28.4019 22.3214 27.798 22.7108 27.1239 23.1415C26.5476 23.5087 25.7667 23.8528 24.8023 24.1644C23.8613 24.4688 22.906 24.6232 21.963 24.6232C21.02 24.6232 20.065 24.4688 19.123 24.1644C18.1596 23.8532 17.3788 23.5091 16.8031 23.1418C16.1354 22.7152 15.5311 22.3258 15.0071 21.9844C14.1692 21.4382 13.7345 21.2539 13.2854 21.2539C12.1413 21.2539 11.0725 21.4476 10.108 21.8296C9.14057 22.2126 8.30302 22.7387 7.61855 23.3936C6.96495 24.0193 6.38186 24.779 5.88637 25.6515C5.40868 26.4924 5.02197 27.3695 4.7373 28.2588C4.46237 29.1185 4.23242 30.0588 4.05383 31.0538C3.87692 32.04 3.75674 32.9756 3.69733 33.835C3.63892 34.6769 3.60938 35.5507 3.60938 36.4332C3.60938 38.73 4.33951 40.5894 5.77929 41.9607C7.20128 43.3139 9.08283 44.0004 11.3709 44.0004H32.5571C34.8452 44.0004 36.7261 43.3142 38.1484 41.9607C39.5885 40.5904 40.3186 38.7307 40.3186 36.4329C40.3183 35.5463 40.2884 34.6719 40.2297 33.834Z" fill="#D4FF00"/>
</g>
<defs>
<clipPath id="clip0">
<rect width="43.9998" height="44" fill="white"/>
</clipPath>
</defs>
</svg>
