<svg width="44" height="44" viewBox="0 0 44 44" fill="none" xmlns="http://www.w3.org/2000/svg">
<path d="M37.7665 5.3167C37.3698 5.08595 36.8798 5.08595 36.4832 5.3167C34.9469 6.16902 33.2168 6.611 31.4599 6.6C28.8912 6.65681 26.4074 5.67918 24.5666 3.8867C22.4415 1.80658 19.5683 0.669969 16.5953 0.733391C14.201 0.71268 11.8601 1.44083 9.9 2.81609V2.2C9.9 0.985016 8.91507 0 7.7 0C6.48493 0 5.5 0.98493 5.5 2.2V41.8C5.5 43.015 6.48493 44 7.7 44C8.91498 44 9.9 43.0151 9.9 41.8V22.7333C10.143 22.7105 10.3745 22.619 10.5673 22.4693C12.312 21.1845 14.4287 20.5047 16.5953 20.5333C19.1688 20.4742 21.658 21.4519 23.5033 23.2466C25.6243 25.3237 28.4919 26.4602 31.46 26.3999C33.7347 26.4264 35.9658 25.7755 37.8693 24.5299C38.2766 24.2476 38.5139 23.7786 38.5 23.2832V6.6C38.5046 6.07131 38.2244 5.58104 37.7665 5.3167Z" fill="#D4FF00"/>
</svg>
