<svg width="30" height="26" viewBox="0 0 30 26" fill="none" xmlns="http://www.w3.org/2000/svg">
<path d="M28.4829 4.99692L6.82826 4.99318L5.92063 1.8684C5.78534 1.4025 5.41029 1.03441 4.94196 0.907753L1.76536 0.0487847C1.64566 0.0164202 1.52256 0 1.39953 0C0.769138 0 0.213825 0.425379 0.0491468 1.03447C-0.0484821 1.3953 0.000362099 1.77261 0.186577 2.09679C0.372732 2.42097 0.673948 2.65324 1.03484 2.7508L3.45212 3.40446L8.35951 21.1051C7.66052 21.45 7.20729 22.1646 7.20729 22.9604C7.20729 24.1014 8.13563 25.0297 9.27666 25.0297C10.4177 25.0297 11.3461 24.1014 11.3461 22.9604C11.3461 22.9334 11.3455 22.9066 11.3445 22.8796H21.3345C21.3334 22.9066 21.333 22.9335 21.333 22.9604C21.333 24.1014 22.2613 25.0297 23.4024 25.0297C24.5435 25.0297 25.4718 24.1014 25.4718 22.9604C25.4718 21.9115 24.6744 21.0323 23.654 20.9068C21.1709 20.5058 11.037 20.0157 11.037 20.0157L10.7042 18.7132H23.3483C23.9948 18.7132 24.5695 18.2787 24.7461 17.6569L27.4787 8.03104H28.4829C29.3208 8.03104 30 7.3518 30 6.51395C30 5.6761 29.3207 4.99692 28.4829 4.99692ZM12.3776 15.492H10.0075C9.94269 15.4908 9.84756 15.5057 9.80419 15.3532C9.7491 15.1596 9.67194 14.8936 9.67194 14.8936L7.81437 8.34992C7.80533 8.3181 7.81187 8.28323 7.8318 8.25688C7.85185 8.23034 7.88362 8.21452 7.91688 8.21452H10.7974C10.8476 8.21452 10.8904 8.24873 10.9013 8.29775L12.4723 15.3326L12.478 15.3543C12.481 15.364 12.4825 15.3745 12.4825 15.3853C12.4825 15.4436 12.4355 15.4911 12.3776 15.492ZM18.4262 8.34421L17.146 15.4088C17.1351 15.4577 17.0925 15.4919 17.0422 15.4919H15.2545C15.2042 15.4919 15.1615 15.4576 15.1505 15.4087L13.8703 8.34397C13.8633 8.31244 13.8709 8.27978 13.8913 8.25438C13.9116 8.22909 13.9418 8.21458 13.9743 8.21458H18.3223C18.3548 8.21458 18.3851 8.22909 18.4054 8.25456C18.4258 8.27978 18.4333 8.31256 18.4262 8.34421ZM24.4823 8.35016L22.4768 15.4145C22.4638 15.4602 22.4217 15.4921 22.3743 15.4921H19.9216C19.8891 15.4921 19.8588 15.4776 19.8386 15.4523C19.8182 15.4269 19.8107 15.394 19.8177 15.3624L21.3953 8.29781C21.406 8.24962 21.4498 8.21464 21.4993 8.21464H24.3798C24.413 8.21464 24.4447 8.2304 24.4647 8.25688C24.4848 8.28329 24.4913 8.31815 24.4823 8.35016Z" fill="white"/>
</svg>
