<svg width="40" height="40" viewBox="0 0 40 40" fill="none" xmlns="http://www.w3.org/2000/svg">
<g clip-path="url(#clip0)">
<path d="M8.95309 39.1912C8.51485 39.1912 8.07966 39.0544 7.70825 38.7859C7.0164 38.2845 6.69321 37.4226 6.88151 36.591L9.45482 25.2556L0.727785 17.6022C0.0862895 17.0422 -0.158773 16.1553 0.104601 15.3438C0.367974 14.5339 1.08455 13.9604 1.93296 13.882L13.4799 12.8337L18.0451 2.15012C18.3817 1.36519 19.1484 0.858276 20.0001 0.858276C20.8519 0.858276 21.6185 1.36519 21.9551 2.14829L26.5204 12.8337L38.0655 13.882C38.9157 13.9586 39.6323 14.5339 39.8957 15.3438C40.159 16.1538 39.9155 17.0422 39.274 17.6022L30.547 25.254L33.1203 36.5892C33.3089 37.4226 32.9854 38.2845 32.2938 38.7844C31.6038 39.2842 30.6837 39.3227 29.9571 38.886L20.0001 32.9358L10.0432 38.8893C9.70659 39.0892 9.33152 39.1912 8.95309 39.1912ZM20.0001 30.3726C20.3786 30.3726 20.7533 30.4742 21.0902 30.6741L30.4872 36.2944L28.0585 25.5955C27.8852 24.8341 28.1437 24.0391 28.732 23.524L36.9723 16.2972L26.0702 15.3072C25.2853 15.2355 24.6102 14.742 24.3035 14.0187L20.0001 3.93666L15.6915 14.0202C15.3882 14.7386 14.7131 15.2321 13.93 15.3038L3.02643 16.2939L11.2664 23.5206C11.8566 24.0373 12.1148 24.8308 11.9399 25.594L9.51311 36.2925L18.91 30.6741C19.2466 30.4742 19.6217 30.3726 20.0001 30.3726ZM13.3917 13.0403C13.3917 13.0403 13.3917 13.0421 13.3899 13.0436L13.3917 13.0403ZM26.6052 13.0354L26.607 13.0388C26.607 13.0369 26.607 13.0369 26.6052 13.0354Z" fill="white"/>
</g>
<defs>
<clipPath id="clip0">
<rect width="40" height="40" fill="white"/>
</clipPath>
</defs>
</svg>
