<svg width="24" height="24" viewBox="0 0 24 24" fill="none" xmlns="http://www.w3.org/2000/svg">
<g clip-path="url(#clip0)">
<path d="M21.1579 11.3718V9.15763C21.1579 4.10124 17.0565 0 12.0001 0C6.94299 0 2.84253 4.10124 2.84253 9.15768V11.3726C1.87167 12.1371 1.24023 13.2928 1.24023 14.6046C1.24023 16.9093 3.15861 18.7786 5.52458 18.7786V23.3917C5.52458 23.7275 5.79704 24 6.13408 24H6.83082C7.16762 24 7.44003 23.7276 7.44003 23.3917V21.2206C7.44003 20.8837 7.71244 20.6112 8.04825 20.6112H8.3446C8.68164 20.6112 8.95415 20.8837 8.95415 21.2206V23.3917C8.95415 23.7275 9.22626 24 9.56232 24H10.6346C10.9717 24 11.2441 23.7276 11.2441 23.3917V21.2206C11.2441 20.8837 11.5163 20.6112 11.8524 20.6112H12.1488C12.4855 20.6112 12.758 20.8837 12.758 21.2206V23.3917C12.758 23.7275 13.0304 24 13.3665 24H14.4387C14.7755 24 15.0479 23.7276 15.0479 23.3917V21.2206C15.0479 20.8837 15.3204 20.6112 15.6565 20.6112H15.9529C16.2897 20.6112 16.562 20.8837 16.562 21.2206V23.3917C16.562 23.7275 16.8345 24 17.1706 24H17.8663C18.2032 24 18.4755 23.7276 18.4755 23.3917V18.7786C20.8416 18.7786 22.7603 16.9093 22.7603 14.6046C22.7603 13.2928 22.1278 12.1371 21.1579 11.3718ZM7.74059 14.7714C6.2792 14.7714 5.09702 13.5875 5.09702 12.1282C5.09702 11.1349 5.65016 10.2805 6.45917 9.82901L10.3451 12.5036C10.1609 13.784 9.07106 14.7714 7.74059 14.7714ZM12.0001 18.1397C11.2125 18.1397 10.5752 17.4998 10.5752 16.7155C10.5752 15.9289 11.2126 14.2299 12.0001 14.2299C12.7877 14.2299 13.4243 15.9289 13.4243 16.7155C13.4243 17.4998 12.7877 18.1397 12.0001 18.1397ZM16.2599 14.7714C14.9293 14.7714 13.8396 13.7833 13.6564 12.5028L17.5413 9.8297C18.3502 10.2813 18.9035 11.1349 18.9035 12.1281C18.9035 13.5875 17.7213 14.7714 16.2599 14.7714Z" fill="white"/>
</g>
<defs>
<clipPath id="clip0">
<rect width="24" height="24" fill="white"/>
</clipPath>
</defs>
</svg>
