<svg width="24" height="24" viewBox="0 0 24 24" fill="none" xmlns="http://www.w3.org/2000/svg">
<g clip-path="url(#clip0)">
<path d="M23.2942 4.70588e-05C20.6258 0 17.9733 1.03544 15.9784 3.03031L7.50781 11.5009L9.50433 13.4974L17.8036 5.19812L18.8019 6.19638L10.5026 14.4957L12.4991 16.4922L20.9697 8.02165C22.9094 6.08198 24 3.45511 24.0001 0.705882V0L23.2942 4.70588e-05Z" fill="white"/>
<path d="M5.43966 11.501L4.44141 12.4993L6.4734 14.5313L5.51063 15.4941L8.50545 18.4889L9.46822 17.5261L11.5003 19.5581L12.4985 18.5599C11.908 17.9692 5.7758 11.8371 5.43966 11.501Z" fill="white"/>
<path d="M2.64612 18.3595C1.17049 18.4504 0 19.6735 0 21.1769C0 22.7337 1.26659 24.0005 2.82353 24.0005C4.32574 24.0005 5.54998 22.8312 5.64094 21.3544L7.50781 19.4875L4.51299 16.4927L2.64612 18.3595Z" fill="white"/>
</g>
<defs>
<clipPath id="clip0">
<rect width="24" height="24" fill="white"/>
</clipPath>
</defs>
</svg>
