<svg width="24" height="24" viewBox="0 0 24 24" fill="none" xmlns="http://www.w3.org/2000/svg">
<g clip-path="url(#clip0)">
<path d="M5.89714 3.5625L4.49023 7.78125H5.82092L7.22684 3.5625H5.89714Z" fill="white"/>
<path d="M23.2976 3.5625H22.5944V2.85938C22.5944 2.47073 22.2799 2.15625 21.8913 2.15625C21.5027 2.15625 21.1882 2.47073 21.1882 2.85938V3.5625H8.71075L7.30469 7.78125H24.0007V4.26562C24.0007 3.87698 23.6862 3.5625 23.2976 3.5625Z" fill="white"/>
<path d="M2.10938 3.5625C1.72073 3.5625 1.40625 3.87698 1.40625 4.26562C1.40625 4.65356 1.09041 4.96875 0.703125 4.96875C0.314484 4.96875 0 5.28323 0 5.67188V7.78125H3.00853L4.41478 3.5625H2.10938Z" fill="white"/>
<path d="M0 9.1875V9.89062C0 10.2793 0.314484 10.5938 0.703125 10.5938C1.09041 10.5938 1.40625 10.9089 1.41309 11.1973L0.245578 19.4357C0.0646406 20.7038 1.044 21.8438 2.325 21.8438H5.09081C6.14827 21.8438 7.04775 21.052 7.18369 20.0022L7.66847 16.2188H10.5469C11.71 16.2188 12.6563 15.2725 12.6563 14.1094V12H20.4844C20.7508 12 20.9939 11.8496 21.1133 11.6114L22.3253 9.1875C5.31225 9.1875 9.10641 9.1875 0 9.1875ZM8.4375 14.8125C7.66158 14.8125 7.03125 14.1815 7.03125 13.4062C7.03125 12.631 7.66158 12 8.4375 12H8.48419C8.29055 12.6206 8.25586 13.2853 8.42653 13.9253C8.51081 14.2436 8.65313 14.5355 8.8193 14.8125H8.4375ZM11.25 14.1094C11.25 14.4437 11.0107 14.7108 10.6981 14.7819C10.2537 14.5044 9.92166 14.0757 9.78469 13.5649C9.64359 13.0333 9.72905 12.4728 10.002 12H11.25V14.1094Z" fill="white"/>
</g>
<defs>
<clipPath id="clip0">
<rect width="24" height="24" fill="white"/>
</clipPath>
</defs>
</svg>
