<svg width="24" height="24" viewBox="0 0 24 24" fill="none" xmlns="http://www.w3.org/2000/svg">
<g clip-path="url(#clip0)">
<path d="M5.24023 12.9809V21.2001C5.24023 21.69 5.63616 22.0857 6.12587 22.0857C6.61475 22.0857 7.01151 21.69 7.01151 21.2001V12.9809C7.01151 12.4918 6.61475 12.0952 6.12587 12.0952C5.63616 12.0952 5.24023 12.4914 5.24023 12.9809Z" fill="white"/>
<path d="M2.45991 22.096H4.40999V12.3377C4.41533 12.2909 4.42385 12.2443 4.42385 12.1963C4.42385 7.98634 7.82193 4.5617 11.9982 4.5617C16.1739 4.5617 19.572 7.98634 19.572 12.1963C19.572 12.2607 19.5814 12.3231 19.591 12.3853V22.096H21.5413C22.8987 22.096 24.0001 20.9569 24.0001 19.5515V14.4627C24.0001 13.3037 23.2494 12.3273 22.2245 12.02C22.1303 6.42718 17.5806 1.90479 11.9986 1.90479C6.41501 1.90479 1.86473 6.4276 1.77136 12.0222C0.747928 12.3299 0 13.3054 0 14.4635V19.5515C0 20.9561 1.10126 22.096 2.45991 22.096Z" fill="white"/>
<path d="M16.9922 12.9809V21.2001C16.9922 21.69 17.3887 22.0857 17.8777 22.0857C18.3668 22.0857 18.7633 21.69 18.7633 21.2001V12.9809C18.7633 12.4918 18.3668 12.0952 17.8777 12.0952C17.3878 12.0952 16.9922 12.4914 16.9922 12.9809Z" fill="white"/>
</g>
<defs>
<clipPath id="clip0">
<rect width="24" height="24" fill="white"/>
</clipPath>
</defs>
</svg>
