<svg width="24" height="24" viewBox="0 0 24 24" fill="none" xmlns="http://www.w3.org/2000/svg">
<g clip-path="url(#clip0)">
<path d="M21.9724 10.8995C21.9724 4.59297 17.5026 -0.0218951 12.0021 7.81351e-05C6.50172 -0.0218951 2.02734 4.59297 2.02734 10.8995L2.04718 23.5199L5.37442 21.935L8.70145 23.9999L12.0194 21.9351L15.3375 24L18.6555 21.9353L21.974 23.5205L21.9724 10.8995ZM7.66604 13.8026C6.19485 13.4583 5.28136 11.9865 5.62573 10.5153L10.9534 11.7624C10.609 13.2335 9.13723 14.147 7.66604 13.8026ZM16.3353 13.8026C14.8641 14.147 13.3923 13.2335 13.0479 11.7623L18.3756 10.5152C18.7199 11.9865 17.8065 13.4583 16.3353 13.8026Z" fill="white"/>
</g>
<defs>
<clipPath id="clip0">
<rect width="24" height="24" fill="white"/>
</clipPath>
</defs>
</svg>
