<svg width="24" height="24" viewBox="0 0 24 24" fill="none" xmlns="http://www.w3.org/2000/svg">
<g clip-path="url(#clip0)">
<path d="M8.79998 11.2002H4V20.0002H8.79998V11.2002Z" fill="white"/>
<path d="M7.99953 9.10534V7.19971H4.79956V9.10534L4.15234 10.3997H8.64675L7.99953 9.10534Z" fill="white"/>
<path d="M7.29362 1.98641L6.78323 0.285222C6.73242 0.115995 6.57645 0 6.40002 0C6.22322 0 6.06762 0.115995 6.01682 0.285222L5.50604 1.98641C5.07566 3.42119 4.85005 4.9044 4.81445 6.39999H7.98526C7.94961 4.9044 7.72401 3.42119 7.29362 1.98641Z" fill="white"/>
<path d="M8.44437 21.8347C8.45676 21.8019 8.46958 21.7695 8.47835 21.7351L8.71196 20.8003H4.08759L4.32077 21.7351C4.32959 21.7695 4.34236 21.8019 4.35518 21.8347C4.13997 22.0155 4 22.2834 4 22.5859V23.0147C4 23.5583 4.44201 24.0003 4.98558 24.0003H7.81436C8.35754 24.0003 8.79993 23.5583 8.79993 23.0147V22.5859C8.79998 22.2835 8.65997 22.0155 8.44437 21.8347Z" fill="white"/>
<path d="M19.2007 12.306V10.4004H16.0007V12.306L15.3535 13.6004H19.8479L19.2007 12.306Z" fill="white"/>
<path d="M19.9992 14.3999H15.1992V19.9999H19.9992V14.3999Z" fill="white"/>
<path d="M18.4948 5.18607L17.9844 3.48488C17.9336 3.3157 17.7776 3.19971 17.6012 3.19971C17.4244 3.19971 17.2688 3.3157 17.218 3.48488L16.7072 5.18607C16.2768 6.62085 16.0512 8.10406 16.0156 9.59965H19.1864C19.1508 8.1041 18.9252 6.6209 18.4948 5.18607Z" fill="white"/>
<path d="M19.6436 21.8347C19.656 21.8019 19.6688 21.7695 19.6776 21.7351L19.9112 20.8003H15.2868L15.52 21.7351C15.5288 21.7695 15.5416 21.8019 15.5544 21.8347C15.3392 22.0155 15.1992 22.2834 15.1992 22.5859V23.0147C15.1992 23.5583 15.6412 24.0003 16.1848 24.0003H19.0136C19.5568 24.0003 19.9991 23.5583 19.9991 23.0147V22.5859C19.9992 22.2835 19.8593 22.0155 19.6436 21.8347Z" fill="white"/>
<path d="M14.3996 12.7998H9.59961V19.9998H14.3996V12.7998Z" fill="white"/>
<path d="M13.6012 10.7054V8.7998H10.4011V10.7054L9.75391 11.9998H14.2483L13.6012 10.7054Z" fill="white"/>
<path d="M12.8932 3.58646L12.3828 1.88527C12.332 1.71609 12.1761 1.6001 11.9996 1.6001C11.8228 1.6001 11.6672 1.71609 11.6164 1.88527L11.1056 3.58646C10.6753 5.02124 10.4497 6.50445 10.4141 8.00004H13.5849C13.5493 6.50445 13.3237 5.02124 12.8932 3.58646Z" fill="white"/>
<path d="M14.044 21.8347C14.0564 21.8019 14.0692 21.7695 14.078 21.7351L14.3116 20.8003H9.6872L9.92038 21.7351C9.9292 21.7695 9.94197 21.8019 9.95479 21.8347C9.73958 22.0155 9.59961 22.2834 9.59961 22.5859V23.0147C9.59961 23.5583 10.0416 24.0003 10.5852 24.0003H13.414C13.9572 24.0003 14.3995 23.5583 14.3995 23.0147V22.5859C14.3996 22.2835 14.2596 22.0155 14.044 21.8347Z" fill="white"/>
</g>
<defs>
<clipPath id="clip0">
<rect width="24" height="24" fill="white"/>
</clipPath>
</defs>
</svg>
