<svg width="24" height="24" viewBox="0 0 24 24" fill="none" xmlns="http://www.w3.org/2000/svg">
<g clip-path="url(#clip0)">
<path d="M11.9997 3.05957C11.7646 3.23836 8.5394 5.63785 4.40318 6.46605C3.85791 16.0108 11.9946 20.9524 11.9997 20.9495C12.0049 20.9524 20.1416 16.0109 19.5964 6.4658C15.4599 5.63785 11.9997 3.05957 11.9997 3.05957Z" fill="white"/>
<path d="M22.286 4.92819C22.2695 4.63833 22.0591 4.39627 21.7743 4.33902C16.7303 3.32939 12.4238 0.157993 12.3813 0.126331C12.1535 -0.0434569 11.8407 -0.0420913 11.6142 0.130377C11.4444 0.259552 7.39685 3.30436 2.22603 4.33932C1.94113 4.39632 1.73083 4.63864 1.71414 4.92855C1.29981 12.1815 4.7028 17.399 7.63067 20.4985C8.72941 21.6621 9.76043 22.5221 10.4319 23.0386C10.8172 23.3347 11.1283 23.5522 11.3213 23.6826C11.6818 23.9263 11.7855 23.9961 11.9844 23.9997C11.9927 24 12.0009 24 12.0087 24C12.205 24 12.3234 23.9209 12.6356 23.7116C12.8047 23.5982 13.0786 23.4092 13.4197 23.151C14.0142 22.7023 14.9333 21.9554 15.9374 20.9444C17.824 19.0452 19.326 16.9305 20.4009 14.6594C21.8463 11.6065 22.4806 8.3325 22.286 4.92819ZM16.6986 18.1764C14.7618 20.6052 12.7601 22.0847 12.0001 22.6015C11.2404 22.0847 9.23867 20.6055 7.30106 18.1753C4.27016 14.3737 2.81288 10.1068 2.96592 5.48576C7.33166 4.4998 10.8631 2.21917 12.0035 1.42192C13.1592 2.21801 16.7515 4.51361 21.0343 5.4854C21.1874 10.1071 19.7302 14.3746 16.6986 18.1764Z" fill="white"/>
</g>
<defs>
<clipPath id="clip0">
<rect width="24" height="24" fill="white"/>
</clipPath>
</defs>
</svg>
