<svg width="24" height="24" viewBox="0 0 24 24" fill="none" xmlns="http://www.w3.org/2000/svg">
<path d="M17.4395 15.4759C16.8998 15.1298 16.5862 14.5133 16.6211 13.867C16.6282 13.7343 16.6297 13.5993 16.6255 13.4658C16.5883 12.2844 16.1017 11.1716 15.2554 10.3323C14.4091 9.49314 13.2923 9.01577 12.1107 8.98816C10.8529 8.95835 9.66551 9.42606 8.76687 10.304C7.8679 11.1822 7.3728 12.3578 7.3728 13.6144C7.3728 13.6996 7.37515 13.7859 7.37983 13.8708C7.41508 14.5144 7.1014 15.1294 6.56121 15.4758C5.16387 16.3719 4.34951 17.9593 4.43594 19.6186C4.49552 20.7626 4.97983 21.8407 5.79963 22.6542C6.61924 23.4676 7.70098 23.9437 8.84552 23.995C8.91509 23.998 8.98455 23.9996 9.05402 23.9996C9.79582 23.9996 10.5277 23.8225 11.1826 23.483C11.6947 23.2175 12.3061 23.2175 12.8182 23.483C13.5345 23.8543 14.3428 24.0313 15.1553 23.995C16.2999 23.9437 17.3816 23.4676 18.2012 22.6542C19.021 21.8408 19.5053 20.7626 19.5649 19.6186C19.6511 17.9594 18.8368 16.372 17.4395 15.4759Z" fill="white"/>
<path d="M6.17623 9.18986C6.17623 8.8292 6.06866 8.16419 5.13833 6.5605C4.65847 5.7333 4.18559 5.04719 4.16567 5.01836C4.03442 4.82828 3.81814 4.71484 3.58714 4.71484C3.35614 4.71484 3.13991 4.82828 3.00861 5.01836C2.98873 5.04714 2.51586 5.73325 2.03595 6.5605C1.10567 8.16419 0.998047 8.82916 0.998047 9.18986C0.998047 10.6174 2.15952 11.7789 3.58709 11.7789C5.01467 11.7789 6.17623 10.6174 6.17623 9.18986Z" fill="white"/>
<path d="M21.9645 6.5605C21.4846 5.73325 21.0117 5.04714 20.9918 5.01836C20.8605 4.82828 20.6443 4.71484 20.4133 4.71484C20.1823 4.71484 19.966 4.82828 19.8348 5.01836C19.8149 5.04719 19.342 5.7333 18.8621 6.5605C17.9318 8.16419 17.8242 8.82916 17.8242 9.18986C17.8242 10.6174 18.9856 11.7789 20.4133 11.7789C21.8409 11.7789 23.0023 10.6174 23.0023 9.18986C23.0024 8.82916 22.8948 8.16419 21.9645 6.5605Z" fill="white"/>
<path d="M8.73558 7.06402C10.1632 7.06402 11.3246 5.90259 11.3246 4.47497C11.3246 4.11431 11.217 3.44934 10.2867 1.84566C9.80686 1.01845 9.33403 0.332344 9.31411 0.303516C9.18286 0.113438 8.96658 0 8.73558 0C8.50458 0 8.2883 0.113438 8.15705 0.303516C8.13712 0.332344 7.6643 1.01845 7.18439 1.84566C6.25411 3.44934 6.14648 4.11427 6.14648 4.47497C6.14658 5.90259 7.308 7.06402 8.73558 7.06402Z" fill="white"/>
<path d="M15.2649 7.06402C16.6925 7.06402 17.8539 5.90259 17.8539 4.47497C17.8539 4.11431 17.7463 3.44934 16.816 1.84566C16.3362 1.01845 15.8633 0.332344 15.8434 0.303516C15.7121 0.113438 15.4958 0 15.2649 0C15.0339 0 14.8176 0.113438 14.6863 0.303516C14.6664 0.332344 14.1936 1.01845 13.7137 1.84566C12.7834 3.44934 12.6758 4.11427 12.6758 4.47497C12.6758 5.90259 13.8372 7.06402 15.2649 7.06402Z" fill="white"/>
</svg>
