<svg width="24" height="24" viewBox="0 0 24 24" fill="none" xmlns="http://www.w3.org/2000/svg">
<path d="M8.88849 6.04452C6.06057 8.97041 6.67767 13.826 9.91701 15.977C10.0237 16.0479 10.1657 16.0338 10.2574 15.9443C10.9394 15.2779 11.5163 14.6325 12.0215 13.8116C12.0988 13.686 12.0507 13.5231 11.921 13.4528C11.4269 13.1851 10.9353 12.6832 10.6585 12.153L10.6582 12.1532C10.3266 11.493 10.2137 10.7529 10.3893 9.98861C10.3894 9.98866 10.3896 9.98871 10.3898 9.98871C10.5918 9.01018 11.6423 8.09993 12.4447 7.2581C12.443 7.25753 12.4413 7.25692 12.4396 7.25636L15.4458 4.18815C16.6438 2.96543 18.6144 2.95534 19.8248 4.16578C21.0475 5.36373 21.0677 7.34424 19.8697 8.56692L18.0489 10.4394C17.9646 10.526 17.9373 10.6525 17.9767 10.7668C18.3959 11.9825 18.4991 13.6968 18.2181 14.992C18.2102 15.0282 18.255 15.052 18.2809 15.0255L22.1563 11.0701C24.632 8.54333 24.611 4.42943 22.1096 1.92809C19.5569 -0.624601 15.4013 -0.603357 12.8748 1.97522L8.90401 6.02792C8.89876 6.03345 8.89379 6.03908 8.88849 6.04452Z" fill="white"/>
<path d="M16.134 16.5341C16.1339 16.5343 16.1338 16.5344 16.1338 16.5346C16.1363 16.5335 16.1386 16.5325 16.1411 16.5315C16.932 15.0852 17.0877 13.4266 16.717 11.8096L16.7153 11.8114L16.7135 11.8106C16.3615 10.3705 15.3958 8.94041 14.0842 8.05994C13.9714 7.9842 13.7912 7.99297 13.6855 8.07841C13.0211 8.61561 12.3708 9.30446 11.9417 10.1835C11.8743 10.3215 11.9248 10.4873 12.0576 10.5644C12.5556 10.8535 13.0053 11.2768 13.3064 11.8388L13.3069 11.8384C13.5416 12.2354 13.7728 12.9887 13.623 13.798C13.6229 13.798 13.6228 13.798 13.6227 13.798C13.483 14.871 12.3994 15.8553 11.538 16.7422L11.5384 16.7426C10.8827 17.4131 9.21589 19.1123 8.54846 19.7942C7.3505 21.0169 5.36999 21.0371 4.14732 19.8391C2.92465 18.6412 2.90444 16.6607 4.10239 15.438L5.92866 13.5599C6.01144 13.4748 6.03957 13.3511 6.00276 13.2382C5.59725 11.994 5.48615 10.3184 5.74211 9.02463C5.74924 8.98857 5.70488 8.96554 5.67913 8.99181L1.86203 12.8877C-0.639023 15.4404 -0.617826 19.5965 1.90921 22.1235C4.46176 24.6244 8.59644 24.5822 11.0974 22.0296C11.9662 21.0578 15.6855 17.6142 16.134 16.5341Z" fill="white"/>
</svg>
