<svg width="24" height="24" viewBox="0 0 24 24" fill="none" xmlns="http://www.w3.org/2000/svg">
<path d="M23.7395 7.56919C23.7395 6.54733 23.5386 5.55705 23.1454 4.62131C22.7636 3.72001 22.2182 2.91056 21.5236 2.21593C20.829 1.5213 20.0195 0.975928 19.1182 0.594168C18.1854 0.198056 17.1922 0 16.1704 0C15.1485 0 14.1582 0.200926 13.2225 0.594168C12.3212 0.975928 11.5117 1.5213 10.8171 2.21593C10.1225 2.91056 9.57711 3.72001 9.19535 4.62131C8.79923 5.55418 8.60118 6.54733 8.60118 7.56919C8.60118 8.8465 8.92266 10.098 9.53405 11.2117L0.47227 20.2649C0.262733 20.4744 0.196714 20.793 0.325881 21.0944C0.351714 21.1576 0.39477 21.215 0.443566 21.2637L2.47292 23.2931C2.52172 23.3419 2.57913 23.3821 2.64228 23.4108C2.94366 23.54 3.26228 23.4768 3.47181 23.2644L4.72617 22.01L6.53164 23.8155C6.58043 23.8643 6.63784 23.9045 6.70096 23.9332C7.00235 24.0623 7.32099 23.9992 7.5305 23.7868L9.53115 21.7861C9.57995 21.7373 9.62013 21.6799 9.64884 21.6168C9.778 21.3154 9.71486 20.9968 9.50245 20.7873L7.72568 19.0105L12.525 14.2084C13.6358 14.8198 14.8901 15.1412 16.1675 15.1412C17.1893 15.1412 18.1796 14.9403 19.1153 14.5471C20.0166 14.1653 20.8261 13.6199 21.5207 12.9253C22.2153 12.2307 22.7607 11.4213 23.1425 10.5199C23.5386 9.58132 23.7395 8.59104 23.7395 7.56919ZM18.8226 10.2243C18.1136 10.9333 17.1693 11.3236 16.1675 11.3236C15.1658 11.3236 14.2214 10.9333 13.5124 10.2243C12.8034 9.5153 12.4102 8.57095 12.4102 7.56919C12.4102 6.56455 12.8006 5.62307 13.5096 4.91409C14.2185 4.2051 15.1629 3.81473 16.1647 3.81473C17.1664 3.81473 18.1108 4.2051 18.8197 4.91409C19.5287 5.62307 19.9191 6.56742 19.9191 7.56919C19.9248 8.57095 19.5344 9.5153 18.8226 10.2243Z" fill="white"/>
</svg>
