<svg width="18" height="18" viewBox="0 0 18 18" fill="none" xmlns="http://www.w3.org/2000/svg">
<path d="M5.75537 16.4268C5.97119 16.4268 6.15381 16.3438 6.29492 16.2026L12.8774 9.76953C13.0352 9.61182 13.1182 9.4209 13.1182 9.21338C13.1182 8.99756 13.0352 8.79834 12.8774 8.65723L6.30322 2.23242C6.15381 2.08301 5.97119 2 5.75537 2C5.32373 2 5 2.33203 5 2.76367C5 2.96289 5.08301 3.16211 5.21582 3.30322L11.2588 9.21338L5.21582 15.1235C5.08301 15.2646 5 15.4556 5 15.6631C5 16.0947 5.32373 16.4268 5.75537 16.4268Z" fill="#BFBFBF"/>
</svg>
