<svg width="18" height="18" viewBox="0 0 18 18" fill="none" xmlns="http://www.w3.org/2000/svg">
<path d="M8.89795 17.7676C9.03076 17.7676 9.24658 17.7178 9.4541 17.6016C14.1772 14.9536 15.7959 13.833 15.7959 10.8032V4.45312C15.7959 3.58154 15.4224 3.30762 14.7168 3.00879C13.7373 2.60205 10.5747 1.46484 9.59521 1.12451C9.37109 1.0498 9.13037 1 8.89795 1C8.66553 1 8.4248 1.06641 8.20898 1.12451C7.22949 1.40674 4.05859 2.61035 3.0791 3.00879C2.38184 3.29932 2 3.58154 2 4.45312V10.8032C2 13.833 3.62695 14.9453 8.3418 17.6016C8.55762 17.7178 8.76514 17.7676 8.89795 17.7676ZM9.22998 2.41113C10.4834 2.90918 12.9155 3.78906 14.2021 4.229C14.4263 4.31201 14.4761 4.42822 14.4761 4.71045V10.4961C14.4761 13.061 13.2476 13.7334 9.4126 16.0659C9.17188 16.2153 9.03906 16.2568 8.90625 16.2651V2.33643C8.98926 2.33643 9.09717 2.36133 9.22998 2.41113Z" fill="#737373"/>
</svg>
