<svg width="22" height="22" viewBox="0 0 22 22" fill="none" xmlns="http://www.w3.org/2000/svg">
<path d="M11 0C4.92486 0 0 4.92486 0 11C0 17.0751 4.92486 22 11 22C17.0751 22 22 17.0751 22 11C22 4.92486 17.0751 0 11 0ZM14.6754 7.08284C15.61 7.08284 16.3677 7.84051 16.3677 8.77515C16.3677 9.70978 15.61 10.4675 14.6754 10.4675C13.7408 10.4675 12.9831 9.70978 12.9831 8.77515C12.9831 7.84051 13.7408 7.08284 14.6754 7.08284ZM7.3246 7.08284C8.25924 7.08284 9.0169 7.84051 9.0169 8.77515C9.0169 9.70978 8.25924 10.4675 7.3246 10.4675C6.38996 10.4675 5.63229 9.70978 5.63229 8.77515C5.63229 7.84051 6.38996 7.08284 7.3246 7.08284ZM11 17.8901C8.12695 17.8901 5.528 16.0767 4.53287 13.3777L5.89387 12.8759C6.67978 15.0074 8.73178 16.4396 11 16.4396C13.2682 16.4396 15.3202 15.0074 16.1061 12.8759L17.4671 13.3777C16.472 16.0767 13.8731 17.8901 11 17.8901Z" fill="white"/>
</svg>
