<svg width="70" height="140" viewBox="0 0 70 140" fill="none" xmlns="http://www.w3.org/2000/svg">
<g clip-path="url(#clip0)">
<path d="M133.525 65.5363C133.575 67.8226 131.743 69.7282 129.421 69.7282C127.198 69.7282 125.371 67.9508 125.322 65.7168C125.188 59.526 123.528 51.0438 116.377 45.7964C104.898 37.3686 84.8225 41.1935 71.1443 45.1647C70.3951 45.3797 69.6087 45.3799 68.8583 45.1647C55.1853 41.1951 35.1063 37.3675 23.6252 45.7964C16.4747 51.0438 14.8149 59.526 14.6809 65.7168C14.644 67.4023 13.5986 68.8185 12.1515 69.4165C9.37826 70.551 6.41386 68.4715 6.47757 65.5363C6.77262 52.079 12.8108 40.5348 25.6433 35.4165C30.2852 33.6098 36.0776 32.4324 43.7972 32.5863C43.7699 32.559 44.0157 32.8745 34.5165 20.1638C27.8595 12.1587 33.5491 0 43.9831 0C45.1261 0 46.2172 0.475792 46.9938 1.31527C47.0293 1.35355 51.4509 5.96381 58.9952 8.3209C62.5062 2.61139 68.4099 0.582436 68.7052 0.483996C69.5447 0.202349 70.458 0.202349 71.2975 0.483996C71.5928 0.582436 77.4964 2.61139 81.0074 8.3209C88.5518 5.96381 92.9734 1.35355 93.0226 1.30159C93.7991 0.46212 94.8765 0 96.0195 0C106.472 0 112.131 12.1732 105.486 20.1638C99.9112 27.6236 104.006 22.1438 96.2109 32.5808C96.1521 32.6396 104.319 32.1031 112.254 34.6645C126.246 39.1676 133.208 51.0577 133.525 65.5363Z" fill="white" fill-opacity="0.2"/>
<path d="M121.538 77.2672C121.478 77.1822 122.22 78.2043 101.087 49.1053C94.4697 48.5589 87.1502 49.6658 80.7344 51.1369C81.4863 52.1131 82.3668 53.0155 83.4005 53.7893C85.2134 55.1484 85.5798 57.7187 84.2208 59.5317C82.8558 61.3501 80.2884 61.7061 78.4785 60.352C75.8069 58.3477 73.8217 55.873 72.3506 53.3026C70.7952 53.6048 69.2109 53.6053 67.6528 53.3026C66.1817 55.873 64.1965 58.3477 61.5249 60.352C59.718 61.7039 57.1496 61.3528 55.7826 59.5317C54.4236 57.7187 54.79 55.1484 56.6029 53.7893C57.6366 53.0155 58.5171 52.1131 59.2663 51.1369C52.7797 49.6497 45.4932 48.5625 38.9166 49.1053C17.8045 78.1759 18.5251 77.1825 18.4657 77.2672C5.48561 96.148 12.6364 122.179 33.3684 131.677C57.0085 142.508 81.8374 143.038 106.635 131.677C127.38 122.173 134.508 96.134 121.538 77.2672ZM74.1088 110.748V111.565C74.1088 113.944 72.2163 115.708 70.0072 115.708C67.742 115.708 65.9055 113.872 65.9055 111.606V111.212C64.0144 110.881 62.2876 110.173 60.1071 108.746C58.1638 107.474 57.7071 104.884 58.9209 103.028C60.1613 101.133 62.7029 100.601 64.599 101.841C66.5981 103.149 67.2391 103.252 69.9798 103.232C72.618 103.215 73.6697 101.144 73.8748 99.9229C74.1209 98.4591 73.4936 97.2828 71.8193 96.6905C68.6976 95.5858 65.0209 94.1833 62.4478 92.1658C56.8089 87.7445 58.513 77.6167 65.9058 74.9301V74.3769C65.9058 71.9985 67.7983 70.2343 70.0074 70.2343C72.2727 70.2343 74.1091 72.0707 74.1091 74.3359V74.6818C76.201 75.2905 77.8129 76.3151 78.7325 77.1633C78.7024 77.1961 78.6994 77.1833 78.727 77.2073C80.3822 78.7397 80.491 81.3227 78.9655 82.9877C77.438 84.6546 74.851 84.7703 73.1805 83.2491C72.1223 82.4654 70.5092 82.1272 68.8103 82.642C67.8396 82.9346 67.3135 83.9737 67.3077 84.9051C67.3127 85.3327 67.4357 85.6111 67.5109 85.6702C69.058 86.8837 71.9393 87.9922 74.5537 88.9165C85.2998 92.7149 84.1081 107.134 74.1088 110.748Z" fill="white" fill-opacity="0.2"/>
</g>
<defs>
<clipPath id="clip0">
<rect width="70" height="140" fill="white"/>
</clipPath>
</defs>
</svg>
