<svg width="20" height="20" viewBox="0 0 20 20" fill="none" xmlns="http://www.w3.org/2000/svg">
<path d="M4.67392 4.0552L12.647 1.8789L12.2247 1.02544C11.9485 0.470698 11.2747 0.241614 10.72 0.517863L3.5824 4.0552H4.67392Z" fill="#D92C2C"/>
<path d="M15.1218 1.94189C15.023 1.94189 14.9241 1.95537 14.8253 1.98232L12.9522 2.49439L7.23181 4.05531H13.7248H16.5547L16.2043 2.77064C16.0695 2.2698 15.6159 1.94189 15.1218 1.94189Z" fill="#D92C2C"/>
<path d="M17.7249 4.84131H17.4688H17.1207H16.7726H14.1157H4.35261H3.07243H1.99439H1.7945H1.12521C0.770354 4.84131 0.453678 5.00526 0.247052 5.26354C0.152723 5.38258 0.0808535 5.51958 0.0404267 5.67006C0.0157215 5.76439 0 5.86321 0 5.96427V6.09903V7.37921V18.4763C0 19.0962 0.503088 19.5993 1.12296 19.5993H17.7226C18.3425 19.5993 18.8456 19.0962 18.8456 18.4763V15.3433H12.1819C11.1286 15.3433 10.2729 14.4876 10.2729 13.4342V12.4056V12.0575V11.7094V10.9368C10.2729 10.4202 10.4795 9.95082 10.8142 9.60719C11.1106 9.30172 11.5081 9.0951 11.9528 9.04344C12.027 9.03448 12.1033 9.02997 12.1797 9.02997H17.9113H18.2594H18.6075H18.8456V5.96427C18.8478 5.3444 18.3448 4.84131 17.7249 4.84131Z" fill="#D92C2C"/>
<path d="M19.6339 10.1033C19.5216 9.99996 19.3891 9.92136 19.2409 9.8697C19.1263 9.83154 19.005 9.80908 18.877 9.80908H18.8478H18.8254H18.4773H17.2218H12.1819C11.562 9.80908 11.059 10.3121 11.059 10.932V11.4913V11.8394V12.1875V13.4317C11.059 14.0516 11.562 14.5547 12.1819 14.5547H18.8478H18.877C19.005 14.5547 19.1263 14.5322 19.2409 14.4941C19.3891 14.4447 19.5216 14.3638 19.6339 14.2605C19.8585 14.0561 20 13.7596 20 13.4318V10.932C20 10.6041 19.8585 10.3076 19.6339 10.1033ZM14.5267 12.4054C14.5267 12.7153 14.2751 12.9668 13.9652 12.9668H13.5924C13.2824 12.9668 13.0309 12.7153 13.0309 12.4054V12.0325C13.0309 11.8529 13.114 11.6934 13.2465 11.5923C13.3431 11.5182 13.4621 11.471 13.5924 11.471H13.6867H13.9652C14.2751 11.471 14.5267 11.7226 14.5267 12.0325V12.4054Z" fill="#D92C2C"/>
</svg>
