<svg width="24" height="24" viewBox="0 0 24 24" fill="none" xmlns="http://www.w3.org/2000/svg">
<g clip-path="url(#clip0)">
<path d="M16.21 4.15991L20.21 8.15991V4.15991H16.21ZM20.21 16.1599L16.21 20.1599H20.21V16.1599ZM8.20999 20.1599L4.20999 16.1599V20.1599H8.20999ZM4.20999 8.15991L8.20999 4.15991H4.20999V8.15991ZM17.16 7.20991C14.43 4.47991 9.98999 4.47991 7.25999 7.20991C4.52999 9.93991 4.52999 14.3799 7.25999 17.1099C9.98999 19.8399 14.43 19.8399 17.16 17.1099C19.89 14.3799 19.89 9.94991 17.16 7.20991ZM16.06 16.0099C13.93 18.1399 10.49 18.1399 8.35999 16.0099C6.22999 13.8799 6.22999 10.4399 8.35999 8.30991C10.49 6.17991 13.93 6.17991 16.06 8.30991C18.19 10.4399 18.19 13.8799 16.06 16.0099Z" fill="white"/>
</g>
<defs>
<clipPath id="clip0">
<rect width="24" height="24" fill="white"/>
</clipPath>
</defs>
</svg>
