<svg width="24" height="24" viewBox="0 0 24 24" fill="none" xmlns="http://www.w3.org/2000/svg">
<path d="M19.875 3H15.75V2.25C15.75 1.00734 14.7427 0 13.5 0H10.5C9.25734 0 8.25 1.00734 8.25 2.25V3H4.125C3.08948 3 2.25 3.83948 2.25 4.875V6.375C2.25 6.78923 2.58577 7.125 3 7.125H21C21.4142 7.125 21.75 6.78923 21.75 6.375V4.875C21.75 3.83948 20.9105 3 19.875 3ZM9.75 2.25C9.75 1.83656 10.0866 1.5 10.5 1.5H13.5C13.9134 1.5 14.25 1.83656 14.25 2.25V3H9.75V2.25Z" fill="white"/>
<path d="M3.67364 8.625C3.53981 8.625 3.43317 8.73684 3.43954 8.87053L4.05829 21.8569C4.11548 23.0588 5.10267 24 6.30548 24H17.6952C18.898 24 19.8852 23.0588 19.9424 21.8569L20.5611 8.87053C20.5675 8.73684 20.4608 8.625 20.327 8.625H3.67364ZM15.0003 10.5C15.0003 10.0856 15.3359 9.75 15.7503 9.75C16.1647 9.75 16.5003 10.0856 16.5003 10.5V20.25C16.5003 20.6644 16.1647 21 15.7503 21C15.3359 21 15.0003 20.6644 15.0003 20.25V10.5ZM11.2503 10.5C11.2503 10.0856 11.5859 9.75 12.0003 9.75C12.4147 9.75 12.7503 10.0856 12.7503 10.5V20.25C12.7503 20.6644 12.4147 21 12.0003 21C11.5859 21 11.2503 20.6644 11.2503 20.25V10.5ZM7.50032 10.5C7.50032 10.0856 7.83595 9.75 8.25032 9.75C8.6647 9.75 9.00032 10.0856 9.00032 10.5V20.25C9.00032 20.6644 8.6647 21 8.25032 21C7.83595 21 7.50032 20.6644 7.50032 20.25V10.5Z" fill="white"/>
</svg>
