<svg width="269" height="339" viewBox="0 0 269 339" fill="none" xmlns="http://www.w3.org/2000/svg">
<path d="M-45.2266 142.969C-36.5049 142.969 -28.611 139.469 -22.7778 133.85L9.22312 149.849C9.06265 151.153 8.82617 152.434 8.82617 153.779C8.82617 171.662 23.3754 186.211 41.2578 186.211C59.1403 186.211 73.6895 171.662 73.6895 153.779C73.6895 148.788 72.462 144.115 70.4378 139.886L113.849 96.475C118.077 98.4991 122.751 99.7266 127.742 99.7266C145.625 99.7266 160.174 85.1774 160.174 67.2949C160.174 63.9279 159.512 60.7438 158.555 57.6893L196.274 29.4073C201.42 32.8447 207.588 34.8633 214.227 34.8633C232.109 34.8633 246.658 20.3141 246.658 2.43164C246.658 -15.4508 232.109 -30 214.227 -30C196.344 -30 181.795 -15.4508 181.795 2.43164C181.795 5.79868 182.457 8.98272 183.414 12.0373L145.695 40.3192C140.549 36.8818 134.381 34.8633 127.742 34.8633C109.86 34.8633 95.3105 49.4125 95.3105 67.2949C95.3105 72.2864 96.538 76.9597 98.5622 81.1882L55.1511 124.599C50.9225 122.575 46.2492 121.348 41.2578 121.348C32.5362 121.348 24.6422 124.847 18.809 130.466L-13.1919 114.467C-13.0314 113.164 -12.7949 111.883 -12.7949 110.537C-12.7949 92.6547 -27.3441 78.1055 -45.2266 78.1055C-63.109 78.1055 -77.6582 92.6547 -77.6582 110.537C-77.6582 128.42 -63.109 142.969 -45.2266 142.969Z" fill="#AFB9C5" fill-opacity="0.16"/>
<path d="M258.189 317.379H246.658V88.916C246.658 82.9421 241.822 78.1055 235.848 78.1055H192.605C186.632 78.1055 181.795 82.9421 181.795 88.916V317.379H160.174V153.779C160.174 147.805 155.337 142.969 149.363 142.969H106.121C100.147 142.969 95.3105 147.805 95.3105 153.779V317.379H73.6895V240.264C73.6895 234.29 68.8529 229.453 62.8789 229.453H19.6367C13.6628 229.453 8.82617 234.29 8.82617 240.264V317.379H-12.7949V197.021C-12.7949 191.048 -17.6315 186.211 -23.6055 186.211H-66.8477C-72.8216 186.211 -77.6582 191.048 -77.6582 197.021V317.379H-89.1895C-95.1634 317.379 -100 322.215 -100 328.189C-100 334.163 -95.1634 339 -89.1895 339H258.189C264.163 339 269 334.163 269 328.189C269 322.215 264.163 317.379 258.189 317.379Z" fill="#AFB9C5" fill-opacity="0.16"/>
</svg>
