<svg width="24" height="24" viewBox="0 0 24 24" fill="none" xmlns="http://www.w3.org/2000/svg">
<path d="M17.2969 0C15.7461 0 14.4844 1.26169 14.4844 2.8125C14.4844 4.03467 15.2682 5.0767 16.3594 5.46375V16.8281C16.3594 19.7489 13.9832 22.125 11.0625 22.125C8.14177 22.125 5.76562 19.7489 5.76562 16.8281H9.04688L3.89062 11.6719V16.8281C3.89062 20.7827 7.10794 24 11.0625 24C15.0171 24 18.2344 20.7827 18.2344 16.8281V5.46375C19.3255 5.0767 20.1094 4.03467 20.1094 2.8125C20.1094 1.26169 18.8477 0 17.2969 0ZM17.2969 3.75C16.7799 3.75 16.3594 3.32944 16.3594 2.8125C16.3594 2.29556 16.7799 1.875 17.2969 1.875C17.8138 1.875 18.2344 2.29556 18.2344 2.8125C18.2344 3.32944 17.8138 3.75 17.2969 3.75Z" fill="#454F58"/>
</svg>
