<svg width="24" height="24" viewBox="0 0 24 24" fill="none" xmlns="http://www.w3.org/2000/svg">
<path d="M11.6357 9.57275H11.1114V10.097H11.6357V9.57275Z" fill="#333D47" fill-opacity="0.9"/>
<path d="M20.2708 9.57275H19.7465V10.097H20.2708V9.57275Z" fill="#333D47" fill-opacity="0.9"/>
<path d="M13.7947 9.57275H13.2704V10.097H13.7947V9.57275Z" fill="#333D47" fill-opacity="0.9"/>
<path d="M9.47778 9.57275H8.95349V10.097H9.47778V9.57275Z" fill="#333D47" fill-opacity="0.9"/>
<path d="M15.9536 9.57275H15.4294V10.097H15.9536V9.57275Z" fill="#333D47" fill-opacity="0.9"/>
<path d="M18.1128 9.57275H17.5885V10.097H18.1128V9.57275Z" fill="#333D47" fill-opacity="0.9"/>
<path d="M12.7558 19.2451L8.0417 12.8047L12.2045 12.8317L13.626 19.2451H12.7558Z" fill="#333D47" fill-opacity="0.9"/>
<path d="M5.15991 9.57275H4.63562V10.097H5.15991V9.57275Z" fill="#333D47" fill-opacity="0.9"/>
<path d="M2.4135 11.5656C2.69359 11.5653 2.96212 11.4539 3.16018 11.2559C3.35824 11.0578 3.46965 10.7893 3.46997 10.5092V9.63205C3.72109 9.58712 3.97569 9.5645 4.2308 9.56445H23.25V10.7363L22.6228 11.2004C21.0472 12.361 19.1425 12.9891 17.1856 12.9934H12.7206L12.6221 12.5485C12.6106 12.4966 12.5819 12.4502 12.5406 12.4169C12.4993 12.3835 12.4479 12.3651 12.3948 12.3648L7.57936 12.3335C7.536 12.3336 7.49349 12.3455 7.45643 12.368C7.41937 12.3905 7.38919 12.4227 7.36917 12.4612C7.34941 12.4999 7.34077 12.5433 7.34423 12.5865C7.34769 12.6298 7.36311 12.6713 7.38877 12.7063L7.59886 12.9934H2.05674C1.71029 12.993 1.37815 12.8552 1.13317 12.6102C0.888199 12.3653 0.750397 12.0331 0.75 11.6867C0.75 11.6459 0.752485 11.6057 0.756142 11.5656H2.4135ZM19.278 11.3313C19.278 11.3934 19.3026 11.453 19.3466 11.497C19.3906 11.5409 19.4502 11.5656 19.5123 11.5656H20.5053C20.5675 11.5656 20.6271 11.5409 20.6711 11.497C20.715 11.453 20.7397 11.3934 20.7397 11.3313V10.3382C20.7397 10.276 20.715 10.2164 20.6711 10.1724C20.6271 10.1285 20.5675 10.1038 20.5053 10.1038H19.5123C19.4502 10.1038 19.3906 10.1285 19.3466 10.1724C19.3026 10.2164 19.278 10.276 19.278 10.3382V11.3313ZM17.1193 11.3313C17.1193 11.3934 17.144 11.453 17.1879 11.497C17.2319 11.5409 17.2915 11.5656 17.3536 11.5656H18.3466C18.4088 11.5656 18.4684 11.5409 18.5124 11.497C18.5563 11.453 18.581 11.3934 18.581 11.3313V10.3382C18.581 10.276 18.5563 10.2164 18.5124 10.1724C18.4684 10.1285 18.4088 10.1038 18.3466 10.1038H17.3536C17.2915 10.1038 17.2319 10.1285 17.1879 10.1724C17.144 10.2164 17.1193 10.276 17.1193 10.3382V11.3313ZM14.9605 11.3313C14.9605 11.3934 14.9852 11.453 15.0292 11.497C15.0731 11.5409 15.1327 11.5656 15.1949 11.5656H16.1879C16.2501 11.5656 16.3097 11.5409 16.3536 11.497C16.3976 11.453 16.4223 11.3934 16.4223 11.3313V10.3382C16.4223 10.276 16.3976 10.2164 16.3536 10.1724C16.3097 10.1285 16.2501 10.1038 16.1879 10.1038H15.1949C15.1327 10.1038 15.0731 10.1285 15.0292 10.1724C14.9852 10.2164 14.9605 10.276 14.9605 10.3382V11.3313ZM12.8018 11.3313C12.8018 11.3934 12.8265 11.453 12.8704 11.497C12.9144 11.5409 12.974 11.5656 13.0362 11.5656H14.0292C14.0913 11.5656 14.1509 11.5409 14.1949 11.497C14.2389 11.453 14.2635 11.3934 14.2635 11.3313V10.3382C14.2635 10.276 14.2389 10.2164 14.1949 10.1724C14.1509 10.1285 14.0913 10.1038 14.0292 10.1038H13.0359C12.9738 10.1038 12.9142 10.1285 12.8702 10.1724C12.8263 10.2164 12.8016 10.276 12.8016 10.3382L12.8018 11.3313ZM10.6431 11.3313C10.6431 11.3934 10.6678 11.453 10.7118 11.497C10.7557 11.5409 10.8153 11.5656 10.8775 11.5656H11.8705C11.9326 11.5656 11.9923 11.5409 12.0362 11.497C12.0802 11.453 12.1049 11.3934 12.1049 11.3313V10.3382C12.1049 10.276 12.0802 10.2164 12.0362 10.1724C11.9923 10.1285 11.9326 10.1038 11.8705 10.1038H10.8775C10.8153 10.1038 10.7557 10.1285 10.7118 10.1724C10.6678 10.2164 10.6431 10.276 10.6431 10.3382V11.3313ZM8.48438 11.3313C8.48438 11.3934 8.50907 11.453 8.55302 11.497C8.59698 11.5409 8.65659 11.5656 8.71875 11.5656H9.7118C9.77396 11.5656 9.83357 11.5409 9.87752 11.497C9.92148 11.453 9.94617 11.3934 9.94617 11.3313V10.3382C9.94617 10.276 9.92148 10.2164 9.87752 10.1724C9.83357 10.1285 9.77396 10.1038 9.7118 10.1038H8.71875C8.65659 10.1038 8.59698 10.1285 8.55302 10.1724C8.50907 10.2164 8.48438 10.276 8.48438 10.3382V11.3313ZM6.32564 11.3313C6.32564 11.3934 6.35033 11.453 6.39429 11.497C6.43824 11.5409 6.49785 11.5656 6.56001 11.5656H7.55306C7.61522 11.5656 7.67484 11.5409 7.71879 11.497C7.76274 11.453 7.78744 11.3934 7.78744 11.3313V10.3382C7.78744 10.276 7.76274 10.2164 7.71879 10.1724C7.67484 10.1285 7.61522 10.1038 7.55306 10.1038H6.56001C6.49785 10.1038 6.43824 10.1285 6.39429 10.1724C6.35033 10.2164 6.32564 10.276 6.32564 10.3382V11.3313ZM4.16695 11.3313C4.16695 11.3934 4.19165 11.453 4.2356 11.497C4.27955 11.5409 4.33917 11.5656 4.40133 11.5656H5.39433C5.45649 11.5656 5.5161 11.5409 5.56006 11.497C5.60401 11.453 5.6287 11.3934 5.6287 11.3313V10.3382C5.6287 10.276 5.60401 10.2164 5.56006 10.1724C5.5161 10.1285 5.45649 10.1038 5.39433 10.1038H4.40133C4.33917 10.1038 4.27955 10.1285 4.2356 10.1724C4.19165 10.2164 4.16695 10.276 4.16695 10.3382V11.3313Z" fill="#333D47" fill-opacity="0.9"/>
<path d="M2.41326 11.0965H0.88982C0.998147 10.8822 1.16361 10.7019 1.36794 10.5757L1.95388 10.2125C2.28051 10.0102 2.63264 9.85238 3.00098 9.74316V10.5088C3.00079 10.6646 2.93881 10.814 2.82863 10.9242C2.71845 11.0344 2.56907 11.0964 2.41326 11.0965Z" fill="#333D47" fill-opacity="0.9"/>
<path d="M22.5359 6.75488H23.0771V9.09494H21.0972L22.5359 6.75488Z" fill="#333D47" fill-opacity="0.9"/>
<path d="M7.31885 9.57275H6.79455V10.097H7.31885V9.57275Z" fill="#333D47" fill-opacity="0.9"/>
<path d="M13.7243 13.8868C13.7753 13.889 13.8246 13.9062 13.866 13.9362C13.9073 13.9662 13.939 14.0077 13.9569 14.0556C13.9749 14.1034 13.9785 14.1555 13.9671 14.2053C13.9558 14.2551 13.93 14.3005 13.8931 14.3358C13.8562 14.3712 13.8097 14.3949 13.7594 14.404C13.7091 14.4132 13.6573 14.4073 13.6103 14.3872C13.5633 14.3672 13.5232 14.3337 13.4951 14.2911C13.4669 14.2484 13.4519 14.1984 13.4519 14.1473C13.4537 14.0767 13.4833 14.0097 13.5343 13.9608C13.5853 13.912 13.6536 13.8854 13.7243 13.8868Z" fill="#333D47" fill-opacity="0.9"/>
<path d="M14.6197 14.4072C14.5576 14.4072 14.498 14.3825 14.454 14.3386C14.41 14.2946 14.3854 14.235 14.3854 14.1729C14.3854 14.1107 14.41 14.0511 14.454 14.0071C14.498 13.9632 14.5576 13.9385 14.6197 13.9385H17.2354C17.2975 13.9385 17.3571 13.9632 17.4011 14.0071C17.445 14.0511 17.4697 14.1107 17.4697 14.1729C17.4697 14.235 17.445 14.2946 17.4011 14.3386C17.3571 14.3825 17.2975 14.4072 17.2354 14.4072H14.6197Z" fill="#333D47" fill-opacity="0.9"/>
</svg>
