<svg width="24" height="24" viewBox="0 0 24 24" fill="none" xmlns="http://www.w3.org/2000/svg">
<path d="M2.60748 9.82821C2.85399 9.39811 3.20957 9.04063 3.63834 8.79184C4.06712 8.54304 4.55393 8.41172 5.04967 8.41113H9.18123V5.78613H0.743727C0.594542 5.78613 0.451468 5.72687 0.345978 5.62138C0.24049 5.51589 0.181227 5.37282 0.181227 5.22363C0.181227 5.07445 0.24049 4.93137 0.345978 4.82589C0.451468 4.7204 0.594542 4.66113 0.743727 4.66113H9.18123V4.47363C9.18123 4.32445 9.24049 4.18137 9.34598 4.07589C9.45147 3.9704 9.59454 3.91113 9.74373 3.91113C9.89291 3.91113 10.036 3.9704 10.1415 4.07589C10.247 4.18137 10.3062 4.32445 10.3062 4.47363V4.66113H18.7437C18.8929 4.66113 19.036 4.7204 19.1415 4.82589C19.247 4.93137 19.3062 5.07445 19.3062 5.22363C19.3062 5.37282 19.247 5.51589 19.1415 5.62138C19.036 5.72687 18.8929 5.78613 18.7437 5.78613H10.3062V8.41113H11.3529C11.8756 8.40935 12.3884 8.55406 12.833 8.82886C13.2776 9.10365 13.6363 9.49753 13.8685 9.96584L14.5912 11.4111H22.2629L22.7214 10.2647C22.7485 10.1956 22.789 10.1326 22.8406 10.0793C22.8921 10.0259 22.9537 9.98327 23.0218 9.95381C23.0899 9.92436 23.1631 9.90866 23.2373 9.90763C23.3115 9.9066 23.3851 9.92026 23.454 9.94781C23.5229 9.97536 23.5857 10.0163 23.6387 10.0682C23.6917 10.1201 23.7339 10.182 23.7629 10.2502C23.7919 10.3185 23.8071 10.3919 23.8076 10.4661C23.8081 10.5403 23.794 10.6138 23.766 10.6825L22.266 14.4325C22.2236 14.5372 22.1508 14.6267 22.0571 14.6897C21.9634 14.7528 21.853 14.7863 21.7401 14.7861H13.6812L11.4312 16.4736C10.9438 16.8376 10.3521 17.0349 9.74373 17.0361H9.39915L8.77735 18.9015C8.74002 19.0135 8.66839 19.1109 8.57262 19.18C8.47685 19.249 8.36178 19.2861 8.24373 19.2861H1.49373C1.34454 19.2861 1.20147 19.2269 1.09598 19.1214C0.99049 19.0159 0.931227 18.8728 0.931227 18.7236C0.931227 18.5744 0.99049 18.4314 1.09598 18.3259C1.20147 18.2204 1.34454 18.1611 1.49373 18.1611H3.33826L3.71326 17.0361H3.11541C2.52499 17.0367 1.94941 16.8511 1.47043 16.5059C0.991455 16.1607 0.63344 15.6733 0.447243 15.113L0.210054 14.4015C0.185034 14.3265 0.176134 14.2469 0.183937 14.1682C0.19174 14.0895 0.216068 14.0132 0.255335 13.9445L2.60748 9.82821ZM7.83831 18.1611L8.21331 17.0361H4.89924L4.52424 18.1611H7.83831ZM1.9254 14.7861H4.13509C4.68559 14.7865 5.22409 14.6252 5.68368 14.3221C6.14326 14.0191 6.50368 13.5877 6.72015 13.0815L7.95948 10.1898C7.99614 10.1042 8.011 10.0109 8.00273 9.91817C7.99446 9.82546 7.9633 9.73625 7.91206 9.65854C7.86083 9.58083 7.79111 9.51705 7.70915 9.47292C7.6272 9.42879 7.53557 9.40569 7.44249 9.40568H4.34682C4.24748 9.40568 4.14991 9.43198 4.06404 9.48192C3.97816 9.53185 3.90705 9.60364 3.85791 9.68998L1.43649 13.9454C1.3878 14.031 1.36242 14.1278 1.36288 14.2263C1.36335 14.3247 1.38964 14.4213 1.43912 14.5064C1.48861 14.5915 1.55957 14.6621 1.6449 14.7112C1.73023 14.7603 1.82696 14.7861 1.9254 14.7861Z" fill="#333D47" fill-opacity="0.9"/>
</svg>
