<svg width="24" height="24" viewBox="0 0 24 24" fill="none" xmlns="http://www.w3.org/2000/svg">
<g clip-path="url(#clip0)">
<path d="M16.3516 7.80222C16.4925 7.48377 16.6118 7.15617 16.7086 6.82165C17.3977 4.38994 16.8595 2.01565 15.5335 1.63594C14.2096 1.26522 12.5017 2.99965 11.8122 5.43094C11.6468 6.01645 11.5502 6.61922 11.5242 7.22708C12.0273 6.96308 13.3327 6.68537 16.3516 7.80222Z" fill="#333D47" fill-opacity="0.9"/>
<path d="M10.2947 3.05743L2.89757 0H0V0.651857L9.65957 4.647C9.82804 4.10087 10.0404 3.56927 10.2947 3.05743Z" fill="#333D47" fill-opacity="0.9"/>
<path d="M18.8836 7.56899C18.2211 9.90342 16.8856 11.7566 15.3428 12.6784L16.7999 12.8194C16.964 12.6827 17.1175 12.5338 17.2593 12.3741C18.1797 11.2709 18.9092 10.0215 19.4176 8.67771C20.0687 7.19529 20.4853 5.6206 20.6523 4.01013C20.7015 3.47309 20.6726 2.93176 20.5666 2.40299L18.5335 1.38684C19.3512 2.98113 19.5398 5.25042 18.8836 7.56899Z" fill="#333D47" fill-opacity="0.9"/>
<path d="M10.4011 18.0362C10.3533 18.2976 10.3198 18.5615 10.3008 18.8265C10.9877 18.8089 11.6666 18.6743 12.3082 18.4284C11.6992 18.1908 11.0544 18.0582 10.4011 18.0362Z" fill="#333D47" fill-opacity="0.9"/>
<path d="M21.5068 4.08375C21.3329 5.78271 20.8949 7.44412 20.2087 9.00803C19.6578 10.4369 18.8782 11.7667 17.9004 12.9453C17.8198 13.0357 17.7097 13.1527 17.5781 13.2775L18.4331 13.286H18.4456C18.9551 13.286 19.4686 12.5673 19.8097 12.0899C19.8637 12.0149 19.9143 11.9437 19.961 11.8803C20.6926 10.8634 21.2797 9.74997 21.7053 8.57175C22.193 7.35737 22.4993 6.07779 22.6143 4.77418C22.665 4.26744 22.6436 3.75607 22.5508 3.25532C22.5461 3.24075 22.5418 3.22618 22.5384 3.21246C22.4988 2.96281 22.3451 2.74588 22.1227 2.62575C22.1201 2.62575 22.1184 2.62232 22.1158 2.62146C22.1131 2.62126 22.1104 2.62126 22.1077 2.62146L21.4288 2.31461C21.534 2.89816 21.5602 3.4932 21.5068 4.08375Z" fill="#333D47" fill-opacity="0.9"/>
<path d="M10.1433 9.13991C10.309 8.81261 10.4914 8.49404 10.6898 8.18548C10.6058 7.17951 10.7074 6.16667 10.9898 5.19748C11.8315 2.22105 13.9315 0.294624 15.7679 0.814053C17.6043 1.33348 18.3775 4.07934 17.534 7.0562C17.3936 7.55341 17.2085 8.03694 16.9812 8.50091C16.976 8.51205 16.9717 8.52362 16.9666 8.53477C16.5283 9.49468 15.8544 10.3282 15.0076 10.9579C14.5947 11.2272 14.2116 11.5395 13.8646 11.8896C13.6895 12.0751 13.5195 12.2628 13.3546 12.4528C15.2759 12.3268 17.2443 10.2092 18.0599 7.33605C19.0143 3.96362 18.0723 0.732624 15.9599 0.136053C14.969 -0.144233 13.8535 0.200339 12.815 1.10762C11.6387 2.20325 10.7991 3.6116 10.3949 5.16748C10.0153 6.4562 9.92937 7.8136 10.1433 9.13991Z" fill="#333D47" fill-opacity="0.9"/>
<path d="M18.3624 21.0008L14.5018 16.4382C14.4203 16.3419 14.3005 16.2864 14.1744 16.2865H10.9172C10.7971 16.583 10.6921 16.8854 10.6027 17.1925C11.7838 17.2945 13.2864 17.5894 13.2864 18.4294C13.2864 19.4764 10.9537 19.6722 9.90838 19.7048C9.89177 19.7094 9.87487 19.7128 9.85781 19.7151C9.84483 19.7132 9.83195 19.7106 9.81924 19.7074C9.69067 19.7112 9.56209 19.7151 9.42924 19.7151C9.15709 19.7151 8.91495 19.7061 8.68609 19.692C8.6494 19.7051 8.61101 19.7129 8.57209 19.7151C8.51011 19.714 8.4491 19.6994 8.39338 19.6722C7.27909 19.5865 5.57209 19.3157 5.57209 18.4294C5.57209 17.5894 7.08581 17.2988 8.21167 17.199C8.23109 16.8904 8.25452 16.5862 8.28195 16.2865H4.68409C4.55779 16.2863 4.43783 16.3418 4.35624 16.4382L0.496094 21.0008H18.3624Z" fill="#333D47" fill-opacity="0.9"/>
<path d="M20.6496 12.391L20.5065 12.589C20.3981 12.7403 20.2759 12.9109 20.1396 13.0819C21.5874 12.7819 23.0308 11.1036 23.6432 8.94361C24.1057 7.49576 24.0509 5.93221 23.4881 4.52032C23.4821 4.63904 23.4752 4.74447 23.4692 4.83147C23.3484 6.21896 23.0241 7.58113 22.5066 8.87418C22.053 10.1266 21.4281 11.3101 20.6496 12.391Z" fill="#333D47" fill-opacity="0.9"/>
<path d="M18.8571 21.8577H0V24.0005H18.8571V21.8577Z" fill="#333D47" fill-opacity="0.9"/>
<path d="M10.4393 10.558C9.52644 12.8354 9.04859 15.6267 9.0083 18.8491C9.15116 18.854 9.29887 18.8561 9.45144 18.8555C9.52123 17.7635 9.78613 16.6929 10.2336 15.6944L10.237 15.6867C10.74 14.5604 11.387 13.5042 12.1617 12.5444C12.4934 12.1265 12.8569 11.7082 13.2417 11.3015C13.6298 10.907 14.0589 10.5551 14.5219 10.252C15.1235 9.80698 15.6195 9.23464 15.9743 8.57581C12.7416 7.39595 11.8922 8.00538 11.869 8.02295C11.7284 8.18499 11.5995 8.35686 11.4833 8.53724C11.0664 9.17293 10.7166 9.85012 10.4393 10.558Z" fill="#333D47" fill-opacity="0.9"/>
<path d="M8.16552 18.0646C7.61095 18.0993 7.06549 18.2224 6.5498 18.4293C7.06105 18.6351 7.60214 18.7571 8.15223 18.7906C8.15566 18.5476 8.15694 18.3029 8.16552 18.0646Z" fill="#333D47" fill-opacity="0.9"/>
<path d="M5.99909 12.8579C6.70917 12.8579 7.28481 12.2823 7.28481 11.5722C7.28481 10.8621 6.70917 10.2865 5.99909 10.2865C5.28901 10.2865 4.71338 10.8621 4.71338 11.5722C4.71338 12.2823 5.28901 12.8579 5.99909 12.8579ZM5.99909 11.1436C6.23579 11.1436 6.42766 11.3355 6.42766 11.5722C6.42766 11.8089 6.23579 12.0008 5.99909 12.0008C5.7624 12.0008 5.57052 11.8089 5.57052 11.5722C5.57052 11.3355 5.7624 11.1436 5.99909 11.1436Z" fill="#333D47" fill-opacity="0.9"/>
<path d="M3.42857 9.85714C3.66527 9.85714 3.85714 9.66526 3.85714 9.42857C3.85714 9.19188 3.66527 9 3.42857 9C3.19188 9 3 9.19188 3 9.42857C3 9.66526 3.19188 9.85714 3.42857 9.85714Z" fill="#333D47" fill-opacity="0.9"/>
<path d="M4.71519 7.7148C4.95189 7.7148 5.14377 7.52293 5.14377 7.28623C5.14377 7.04954 4.95189 6.85767 4.71519 6.85767C4.4785 6.85767 4.28662 7.04954 4.28662 7.28623C4.28662 7.52293 4.4785 7.7148 4.71519 7.7148Z" fill="#333D47" fill-opacity="0.9"/>
</g>
<defs>
<clipPath id="clip0">
<rect width="24" height="24" fill="white"/>
</clipPath>
</defs>
</svg>
