<svg width="30" height="30" viewBox="0 0 30 30" fill="none" xmlns="http://www.w3.org/2000/svg">
<path d="M13 16H17V17H13V16Z" fill="#475059"/>
<path d="M23.0935 17.3041H18.8086V18.0288C18.8086 18.4292 18.4678 18.7534 18.0469 18.7534H11.9531C11.5322 18.7534 11.1914 18.4292 11.1914 18.0288V17.3041H6.90654C5.92166 17.3041 5.05064 16.7068 4.73882 15.818L2 8V23.826C2 25.0247 3.02515 26 4.28516 26H25.7148C26.9749 26 28 25.0247 28 23.826V8.00057L25.261 15.818C24.9494 16.7068 24.0783 17.3041 23.0935 17.3041Z" fill="#475059"/>
<path d="M18.1277 4H11.8721C10.5786 4 9.52624 5.00937 9.52624 6.25V7H3L5.94922 15.4873C6.05613 15.7941 6.35465 16 6.69146 16H11.0901V15.25C11.0901 14.8355 11.44 14.5 11.8721 14.5H18.1277C18.5598 14.5 18.9097 14.8355 18.9097 15.25V16H23.3083C23.6451 16 23.9437 15.7941 24.0506 15.4873L27 7H20.4736V6.25C20.4736 5.00937 19.4212 4 18.1277 4ZM11.0901 7V6.25C11.0901 5.83613 11.4406 5.5 11.8721 5.5H18.1277C18.5592 5.5 18.9097 5.83613 18.9097 6.25V7H11.0901Z" fill="#475059"/>
</svg>
