<svg width="101" height="101" viewBox="0 0 101 101" fill="none" xmlns="http://www.w3.org/2000/svg">
<g clip-path="url(#clip0)">
<path d="M78.9062 37.875H75.75V25.25C75.75 11.3246 64.4254 0 50.5 0C36.5746 0 25.25 11.3246 25.25 25.25V37.875H22.0938C16.8754 37.875 12.625 42.1212 12.625 47.3438V91.5312C12.625 96.7538 16.8754 101 22.0938 101H78.9062C84.1246 101 88.375 96.7538 88.375 91.5312V47.3438C88.375 42.1212 84.1246 37.875 78.9062 37.875ZM33.6667 25.25C33.6667 15.9664 41.2164 8.41667 50.5 8.41667C59.7836 8.41667 67.3333 15.9664 67.3333 25.25V37.875H33.6667V25.25ZM54.7083 70.3717V79.9583C54.7083 82.2813 52.8272 84.1667 50.5 84.1667C48.1728 84.1667 46.2917 82.2813 46.2917 79.9583V70.3717C43.7877 68.9115 42.0833 66.2265 42.0833 63.125C42.0833 58.4832 45.8582 54.7083 50.5 54.7083C55.1418 54.7083 58.9167 58.4832 58.9167 63.125C58.9167 66.2265 57.2123 68.9115 54.7083 70.3717Z" fill="white" fill-opacity="0.6"/>
</g>
<defs>
<clipPath id="clip0">
<rect width="101" height="101" fill="white"/>
</clipPath>
</defs>
</svg>
