<svg width="31" height="30" viewBox="0 0 31 30" fill="none" xmlns="http://www.w3.org/2000/svg">
<g clip-path="url(#clip0)">
<path d="M26.8739 7.03392H7.54085V9.72883C7.54085 9.96217 7.57547 10.1883 7.59194 10.4185C6.44238 9.4833 5.7833 8.25372 5.7833 7.03392C5.7833 4.12641 9.33103 1.76128 13.6923 1.76128C14.6757 1.76128 15.6104 1.91694 16.5115 2.15175C16.4369 3.38238 17.4333 4.66141 19.0284 5.24204C21.0218 5.96774 22.7699 5.24181 23.2335 3.96677H23.2344C23.7381 2.57655 22.6834 0.960599 20.8322 0.287751C19.4379 -0.223637 18.1993 -0.00980209 17.4068 0.572884C16.2278 0.216512 14.9893 0.00367247 13.6922 0.00367247C8.36209 0.00367247 4.0257 3.15748 4.0257 7.03386C4.0257 9.32143 5.53203 11.4856 8.05528 12.7999C8.91988 15.3826 10.8402 17.5339 13.4442 18.6349C15.2232 19.3876 16.3285 20.9528 16.3285 22.7207V22.8388C14.1311 22.6691 12.0948 21.9146 10.7761 20.686L9.57814 21.9715C11.233 23.5144 13.6665 24.4219 16.3286 24.596V28.2416H12.8135V29.9992H21.6012V28.2416H18.0861V24.6355C23.0055 24.3112 26.8739 21.2984 26.8739 17.6377C26.8739 16.4586 26.4563 15.3214 25.7021 14.3008C26.4438 12.9216 26.8739 11.3663 26.8739 9.72877V7.03392ZM14.571 14.1227V12.3652H16.3286V10.6076H18.0861V12.3652H19.8437V14.1227H18.0861V15.8802H16.3286V14.1227H14.571ZM25.1163 17.6378C25.1163 20.3447 22.0298 22.5555 18.0861 22.8512V22.7207C18.0861 20.9529 19.1915 19.3876 20.9705 18.635C22.434 18.0161 23.6705 17.0558 24.64 15.8852C24.9431 16.448 25.1163 17.0384 25.1163 17.6378Z" fill="#475059"/>
</g>
<defs>
<clipPath id="clip0">
<rect width="30" height="30" fill="white" transform="translate(0.449219 -0.000579834)"/>
</clipPath>
</defs>
</svg>
