<svg width="30" height="30" viewBox="0 0 30 30" fill="none" xmlns="http://www.w3.org/2000/svg">
<path d="M29.375 2.05127C29.3743 2.05127 29.3736 2.05127 29.3728 2.05127C29.0287 2.05236 28.7502 2.33144 28.7498 2.67552V2.75271C28.7213 5.46864 26.072 10.0432 25.0533 11.5774C24.0117 13.1456 22.6168 13.8736 21.8118 14.183C21.6022 12.8225 20.943 10.0831 18.979 9.22149L18.9116 9.19195C17.8034 8.70724 16.4121 8.44035 14.9944 8.44035C13.5765 8.44035 12.1852 8.70724 11.0754 9.19258L11.0084 9.22196C9.04516 10.0833 8.38622 12.8225 8.17668 14.1828C7.3707 13.8734 5.97641 13.1453 4.9351 11.5774C3.91755 10.0451 1.2721 5.47145 1.25007 2.74365V2.6763C1.25007 2.33207 0.971769 2.05268 0.627533 2.05127C0.626751 2.05127 0.625814 2.05127 0.625033 2.05127C0.282046 2.05127 0.00281265 2.328 0 2.67146V12.7739C0 21.0801 6.6755 27.8871 14.8806 27.9479L14.9942 27.9484C14.9947 27.9484 14.9945 27.9484 14.995 27.9484C18.9997 27.9484 22.7652 26.3888 25.5968 23.5569C28.4288 20.7249 29.9883 16.9594 29.9883 12.9548L29.9997 2.75912C29.9998 2.72974 30 2.70052 29.9997 2.67115C29.9972 2.32816 29.7181 2.05127 29.375 2.05127ZM18.5411 19.3061C18.2667 19.6355 17.8964 19.8028 17.4086 19.8172C17.3753 19.8181 17.3429 19.8186 17.3112 19.8186H17.3109C16.8588 19.8186 16.6488 19.7184 16.6063 19.6328C16.4463 19.3098 16.9187 18.2915 17.4475 17.5974C17.592 17.4085 17.6167 17.1539 17.5115 16.9408C17.4062 16.7275 17.189 16.5925 16.9512 16.5925H13.0372C12.7996 16.5925 12.5827 16.7275 12.4774 16.9405C12.3721 17.1535 12.3966 17.408 12.5407 17.5969C13.0701 18.2915 13.5426 19.3098 13.3826 19.6328C13.3401 19.7186 13.1299 19.8186 12.6775 19.8186C12.6458 19.8186 12.6132 19.8181 12.5799 19.8172C12.092 19.8028 11.7217 19.6356 11.4473 19.3061C10.6918 18.3985 10.7921 16.4758 10.8943 15.8121C10.8962 15.8001 10.8978 15.7881 10.899 15.7759C10.901 15.7557 11.1278 13.7378 12.2783 13.3484C13.4568 12.9492 14.5053 12.4593 14.9942 12.2191C15.4831 12.4592 16.5316 12.9492 17.7101 13.3484C18.673 13.6744 19.0322 15.2123 19.0894 15.7759C19.0905 15.7876 19.0922 15.8 19.094 15.8117C19.1963 16.4758 19.2966 18.3987 18.5411 19.3061Z" fill="white"/>
</svg>
