<svg width="30" height="30" viewBox="0 0 30 30" fill="none" xmlns="http://www.w3.org/2000/svg">
<g clip-path="url(#clip0)">
<path d="M17.3517 2.33381L2.45209 4.96702C0.867067 5.24715 -0.203617 6.69664 0.0319885 8.24346C0.299645 10.0006 2.11757 11.1132 3.86666 10.5903L13.6153 7.9069C18.8846 6.45647 24.5033 6.71217 29.5963 8.66791L29.61 8.67319C29.8819 8.77778 30.1182 8.46143 29.9345 8.23877C28.2184 6.15875 23.3234 1.07352 17.3517 2.33381Z" fill="white"/>
<path d="M23.8158 20.9012C24.2016 20.4472 24.5008 19.9561 24.6983 19.4351C24.8708 18.9801 24.6344 18.4742 24.1704 18.3051C23.7066 18.136 23.1905 18.3676 23.018 18.8227C22.6642 19.7563 21.7392 20.6242 20.4134 21.2666C18.9804 21.961 17.1629 22.3434 15.2959 22.3434C13.4289 22.3434 11.6115 21.961 10.1784 21.2666C8.85269 20.6243 7.92767 19.7564 7.57376 18.8228C7.40132 18.3678 6.88552 18.1361 6.4214 18.3052C5.95745 18.4743 5.72114 18.9803 5.89358 19.4353C6.09105 19.9563 6.39034 20.4474 6.77601 20.9013L4.67659 22.96C4.32655 23.3032 4.32655 23.8597 4.67659 24.2029C4.85161 24.3745 5.08095 24.4603 5.31034 24.4603C5.53974 24.4603 5.76913 24.3745 5.94409 24.2029L8.09935 22.0894C8.68247 22.4982 9.35079 22.8548 10.0855 23.1495L9.24526 25.9754C9.10669 26.4414 9.37968 26.9293 9.85487 27.0652C9.9386 27.0891 10.023 27.1005 10.1061 27.1005C10.4943 27.1005 10.852 26.8512 10.9662 26.4674L11.7914 23.6919C12.6107 23.891 13.4818 24.0217 14.3859 24.0744V26.9853C14.3859 27.4707 14.7872 27.8642 15.2822 27.8642C15.7772 27.8642 16.1785 27.4707 16.1785 26.9853V24.0761C17.0924 24.0244 17.9729 23.8931 18.8004 23.692L19.6257 26.4675C19.7398 26.8513 20.0976 27.1006 20.4857 27.1006C20.5688 27.1006 20.6532 27.0891 20.737 27.0652C21.2122 26.9293 21.4851 26.4414 21.3466 25.9754L20.5063 23.1496C21.2409 22.8549 21.9092 22.4983 22.4924 22.0895L24.6476 24.203C24.8226 24.3746 25.052 24.4604 25.2814 24.4604C25.5107 24.4604 25.7401 24.3745 25.9151 24.203C26.2652 23.8597 26.2652 23.3033 25.9151 22.96L23.8158 20.9012Z" fill="white"/>
</g>
<defs>
<clipPath id="clip0">
<rect width="30" height="30" fill="white"/>
</clipPath>
</defs>
</svg>
