<svg width="30" height="30" viewBox="0 0 30 30" fill="none" xmlns="http://www.w3.org/2000/svg">
<path d="M26.3877 18.8874L24.9814 20.2936L25.6443 20.9564L26.2504 20.3503V23.9063H27.1879V20.3503L27.7939 20.9564L28.4568 20.2936L27.0505 18.8874C26.9626 18.7995 26.8434 18.7501 26.7191 18.7501C26.5948 18.7501 26.4756 18.7995 26.3877 18.8874Z" fill="white"/>
<path d="M14.2303 2.13843C13.9092 2.1853 13.5816 2.2439 13.2398 2.32921C9.23438 3.34733 6.09375 7.26561 6.09375 11.25C6.09375 14.1066 8.45672 19.2187 10.7812 19.2187C10.8473 19.2188 10.9126 19.2327 10.973 19.2595C11.3558 19.4301 11.6942 19.6868 11.9616 20.0095C12.1462 19.9378 12.3291 19.8745 12.5081 19.8145C13.1426 19.6561 13.7254 19.3364 14.1998 18.8864C14.7204 18.3513 15.0107 17.6337 15.0084 16.8872C14.6243 16.9132 14.2392 16.8504 13.8833 16.7036C13.5273 16.5568 13.2099 16.3299 12.9558 16.0406L10.9556 16.8408L10.6069 15.9698L12.352 15.2719C12.1399 14.9511 11.9458 14.6187 11.7708 14.2762C11.6127 13.9328 11.5842 13.5437 11.6906 13.1809C11.797 12.818 12.0311 12.506 12.3497 12.3023L12.3534 12.2976C12.4988 12.1744 12.6272 12.052 12.7477 11.9301L10.6331 11.227L10.9294 10.3364L13.3528 11.1441C13.5008 10.8899 13.5836 10.6031 13.5938 10.3092C13.5896 10.0959 13.5317 9.88717 13.4255 9.70218C13.2229 9.31173 13.1197 8.87734 13.125 8.43749C13.1282 7.97967 13.2156 7.52635 13.3828 7.10015C13.4506 6.91691 13.5046 6.72889 13.5445 6.53765L11.5102 7.89374L10.9898 7.11374L13.5253 5.42343C13.4805 5.25668 13.4239 5.09331 13.3561 4.93452C13.1718 4.55162 13.0921 4.12678 13.125 3.70312C13.1878 3.07546 13.53 2.65171 14.2303 2.13843Z" fill="white"/>
<path d="M12.1707 20.9405C12.1542 21.205 12.1171 21.4678 12.0596 21.7266L13.9168 21.1172C16.0032 20.363 16.2746 19.1231 16.7621 16.875H15.9422C15.9469 17.8735 15.5598 18.834 14.8641 19.5502C14.2867 20.103 13.5785 20.5004 12.8058 20.7052C12.5855 20.7783 12.3755 20.8542 12.1707 20.9405Z" fill="white"/>
<path d="M16.4761 2.08035C16.2886 2.06066 16.0964 2.04723 15.8996 2.04004C15.8663 2.13487 15.8029 2.21621 15.7191 2.2716C14.2622 3.18988 14.0949 3.44066 14.063 3.79691C14.0454 4.06878 14.1024 4.34029 14.228 4.58207C14.4429 5.05996 14.5467 5.58033 14.5317 6.1041C14.52 6.55041 14.4311 6.99131 14.2688 7.40723C14.1361 7.73469 14.0663 8.08422 14.063 8.43754C14.0586 8.7401 14.1321 9.0387 14.2763 9.30473C14.4425 9.61576 14.5302 9.96269 14.5317 10.3154C14.5122 10.8965 14.316 11.4578 13.9692 11.9246C14.2519 11.9626 14.5312 12.0227 14.8046 12.1041L15.5475 10.9899C15.7688 10.62 15.8522 9.95254 15.6061 9.70645C15.2912 9.35884 15.1168 8.90657 15.1168 8.43754C15.1168 7.96851 15.2912 7.51624 15.6061 7.16863C16.111 6.66379 15.7725 5.83176 15.5264 5.38082C14.9986 4.41426 15.0277 3.52832 15.6061 2.94988L16.4761 2.08035Z" fill="white"/>
<path d="M21.612 19.478C21.8215 19.095 22.0926 18.7492 22.4145 18.4543C22.0741 18.4932 21.7291 18.534 21.4066 18.5724C20.4504 18.6858 19.8996 18.75 19.6877 18.75C19.2694 18.7445 18.8582 18.6403 18.4877 18.4461C18.1171 18.2518 17.7975 17.9729 17.5549 17.6321C17.0998 19.6622 16.5959 21.1477 14.2221 22.0032L11.6674 22.8418C11.4176 23.3806 11.0612 23.8633 10.6198 24.2607L5.98242 28.125H18.2923C18.3821 26.3943 18.88 24.7094 19.7454 23.2079L21.612 19.478Z" fill="white"/>
<path d="M26.2504 14.0626C26.2504 13.9383 26.201 13.819 26.1131 13.7311C26.0252 13.6432 25.9059 13.5938 25.7816 13.5938H25.3893L24.0547 14.0387L23.7585 13.148L25.0597 12.7144L25.4132 12.361C25.6138 12.0193 25.469 11.5993 24.9815 11.1118C24.8936 11.0239 24.8442 10.9047 24.8442 10.7804C24.8442 10.6561 24.8936 10.5369 24.9815 10.449L25.4502 9.98023C25.5205 9.92163 25.5779 9.84918 25.6188 9.7674C25.6598 9.68561 25.6835 9.59626 25.6883 9.50492C25.6851 9.47726 25.6757 9.39195 25.5332 9.30289L22.7596 7.92195C21.8971 7.42976 21.9538 6.75007 22.0035 6.14773C22.0166 5.98789 22.0316 5.81492 22.0316 5.62742C22.0316 5.32132 21.6341 4.52492 20.5682 3.69242C19.689 3.02028 18.6794 2.53865 17.6038 2.2782L16.2693 3.61273C15.8943 3.98773 16.2008 4.65945 16.349 4.93179C16.9827 6.09054 16.9536 7.14757 16.2693 7.83148C16.1318 8.00359 16.0569 8.21731 16.0569 8.43757C16.0569 8.65783 16.1318 8.87155 16.2693 9.04367C16.933 9.70695 16.7099 10.8741 16.3396 11.4915L15.3904 12.9165C15.3333 13.002 15.2498 13.0664 15.1525 13.0998C15.0553 13.1332 14.9498 13.1337 14.8522 13.1012C13.4825 12.6446 13.1488 12.8809 12.9304 13.0384C12.79 13.1138 12.6806 13.2363 12.6214 13.3843C12.5621 13.5323 12.5569 13.6964 12.6065 13.8479C13.7197 16.0074 14.3825 15.9802 15.149 15.9465C15.2549 15.9418 17.3441 15.9376 17.3441 15.9376C17.4277 15.9376 17.5097 15.9599 17.5818 16.0023C17.6538 16.0446 17.7132 16.1055 17.7538 16.1785C17.7688 16.2057 17.7885 16.2446 17.8133 16.2938C18.1415 16.9459 18.6904 17.8126 19.6883 17.8126C19.8547 17.8126 23.706 17.3555 24.3107 17.3438L26.1388 16.8873C26.417 16.7556 26.6583 16.5572 26.8413 16.3097C27.0244 16.0622 27.1434 15.7734 27.1879 15.4688C27.1879 15.2377 27.1344 15.1407 26.8518 14.8594L26.3877 14.3954C26.344 14.3517 26.3094 14.2998 26.2858 14.2427C26.2622 14.1856 26.2502 14.1244 26.2504 14.0626ZM17.8869 7.24695C18.1639 6.81273 18.5329 6.44468 18.9679 6.16882C19.6122 5.76642 20.3665 5.57625 21.1246 5.62507L21.0636 6.56257C20.5039 6.52381 19.9462 6.66258 19.4699 6.95914C19.1497 7.163 18.8786 7.43511 18.6758 7.75601L17.8869 7.24695ZM20.8766 9.7707C20.2991 10.1318 19.6311 10.3219 18.9501 10.3191C18.8643 10.3191 18.7874 10.3159 18.7199 10.3116L18.7808 9.37414C19.3405 9.41255 19.8981 9.27381 20.3746 8.97757C20.6948 8.77371 20.9659 8.50159 21.1686 8.1807L21.958 8.68695C21.6815 9.12325 21.3123 9.49328 20.8766 9.7707Z" fill="white"/>
</svg>
