<svg width="30" height="30" viewBox="0 0 30 30" fill="none" xmlns="http://www.w3.org/2000/svg">
<g clip-path="url(#clip0)">
<path d="M29.6117 13.9484C29.3482 13.6376 23.0508 6.34937 15.0007 6.34937C6.95021 6.34937 0.653197 13.6376 0.389082 13.9487C-0.129094 14.5579 -0.129094 15.442 0.389387 16.0518C0.653197 16.3626 6.95021 23.6505 15.0007 23.6505C23.0508 23.6505 29.3482 16.362 29.612 16.0512C30.1302 15.442 30.1302 14.5579 29.6117 13.9484ZM17.4597 10.7275C18.001 10.432 18.7559 10.7711 19.1455 11.4845C19.5351 12.1983 19.412 13.0165 18.8707 13.312C18.3297 13.6078 17.5745 13.2684 17.1846 12.555C16.7953 11.8412 16.918 11.023 17.4597 10.7275ZM15.0007 21.01C9.3772 21.01 4.64477 16.6913 3.00677 15C4.11288 13.8576 6.63127 11.5183 9.88137 10.1195C9.24743 11.0839 8.87578 12.2363 8.87578 13.4768C8.87578 16.8594 11.6178 19.6014 15.0004 19.6014C18.383 19.6014 21.1253 16.8594 21.1253 13.4768C21.1253 12.2363 20.7539 11.0839 20.12 10.1195C23.3701 11.5186 25.8882 13.8576 26.9943 15C25.3563 16.6922 20.6239 21.01 15.0007 21.01Z" fill="white"/>
</g>
<defs>
<clipPath id="clip0">
<rect width="30" height="30" fill="white"/>
</clipPath>
</defs>
</svg>
