<svg width="30" height="30" viewBox="0 0 30 30" fill="none" xmlns="http://www.w3.org/2000/svg">
<g clip-path="url(#clip0)">
<path d="M10.2238 4.85915C11.9242 4.85915 12.3166 2.78723 10.6228 1.09328C9.49143 -0.0380212 8.01828 -0.337165 7.26898 0.411954C6.51969 1.16125 6.81895 2.63441 7.9503 3.76576C8.66133 4.47685 9.50732 4.85915 10.2238 4.85915Z" fill="white"/>
<path d="M11.3673 9.84226C11.4424 9.84226 11.5168 9.84595 11.59 9.85339C11.6591 9.86036 11.7188 9.80657 11.7188 9.73725V5.54642C11.7188 5.4553 11.619 5.39852 11.5414 5.44628C9.95386 6.42387 7.57964 5.26515 6.48467 3.39833C6.42959 3.3044 6.28743 3.32912 6.26845 3.43636C6.04202 4.71497 6.0923 5.50874 6.09335 9.7352C6.09335 9.80335 6.15137 9.85814 6.21928 9.8524C6.43211 9.83441 7.06855 9.84226 11.3673 9.84226Z" fill="white"/>
<path d="M12.188 14.5301C12.3019 14.5301 12.4139 14.5383 12.5234 14.554C12.5939 14.5641 12.6568 14.5096 12.6568 14.4384V12.0689C12.6568 11.357 12.0796 10.7798 11.3677 10.7798H6.44541C5.73344 10.7798 5.15625 11.357 5.15625 12.0689V14.4353C5.15625 14.5066 5.21918 14.5611 5.2898 14.5513C5.54112 14.5165 6.19824 14.5301 12.188 14.5301Z" fill="white"/>
<path d="M12.1876 15.4678H5.62462C4.8479 15.4678 4.21826 16.0974 4.21826 16.8741V18.1047C4.21826 18.2018 4.29696 18.2805 4.39406 18.2805H13.4182C13.5153 18.2805 13.594 18.2018 13.594 18.1047V16.8741C13.594 16.0974 12.9643 15.4678 12.1876 15.4678Z" fill="white"/>
<path d="M4.39406 20.1556H13.4182C13.5153 20.1556 13.594 20.0769 13.594 19.9798V19.3938C13.594 19.2967 13.5153 19.218 13.4182 19.218H4.39406C4.29696 19.218 4.21826 19.2967 4.21826 19.3938V19.9798C4.21826 20.0769 4.29696 20.1556 4.39406 20.1556Z" fill="white"/>
<path d="M4.21826 28.1248C4.21826 29.1604 5.0578 30 6.0934 30H11.7188C12.7544 30 13.594 29.1604 13.594 28.1248V21.2688C13.594 21.1717 13.5153 21.093 13.4182 21.093H4.39406C4.29696 21.093 4.21826 21.1717 4.21826 21.2688V28.1248Z" fill="white"/>
<path d="M23.9073 13.5925H18.2819C17.2463 13.5925 16.4067 14.4321 16.4067 15.4677V24.1988C16.4067 24.2959 16.4854 24.3746 16.5825 24.3746H25.6066C25.7037 24.3746 25.7824 24.2959 25.7824 24.1988V15.4677C25.7824 14.4321 24.9429 13.5925 23.9073 13.5925Z" fill="white"/>
<path d="M16.5825 26.2498H25.6066C25.7037 26.2498 25.7824 26.1711 25.7824 26.074V25.4881C25.7824 25.391 25.7037 25.3123 25.6066 25.3123H16.5825C16.4854 25.3123 16.4067 25.391 16.4067 25.4881V26.074C16.4067 26.1711 16.4854 26.2498 16.5825 26.2498Z" fill="white"/>
<path d="M16.4067 28.5936C16.4067 29.3703 17.0364 30 17.8131 30H24.3761C25.1528 30 25.7824 29.3703 25.7824 28.5936V27.363C25.7824 27.266 25.7037 27.1873 25.6066 27.1873H16.5825C16.4854 27.1873 16.4067 27.266 16.4067 27.363V28.5936Z" fill="white"/>
</g>
<defs>
<clipPath id="clip0">
<rect width="30" height="30" fill="white"/>
</clipPath>
</defs>
</svg>
