<svg width="30" height="30" viewBox="0 0 30 30" fill="none" xmlns="http://www.w3.org/2000/svg">
<path d="M9.84375 16.4062H13.5938V20.1562H9.84375V16.4062Z" fill="white"/>
<path d="M16.4062 22.9688H20.1562V26.7188H16.4062V22.9688Z" fill="white"/>
<path d="M4.21875 3.28125H25.7812V7.03125H4.21875V3.28125Z" fill="white"/>
<path d="M3.28125 22.9688H7.03125V26.7188H3.28125V22.9688Z" fill="white"/>
<path d="M9.84375 22.9688H13.5938V26.7188H9.84375V22.9688Z" fill="white"/>
<path d="M3.28125 16.4062H7.03125V20.1562H3.28125V16.4062Z" fill="white"/>
<path d="M2.34361 2.8125V13.5938H25.4394C25.3236 13.5938 25.2078 13.5825 25.0953 13.5595L22.8767 13.1161C22.6574 13.072 22.4999 12.8798 22.4999 12.6562H7.49986C7.49986 12.915 7.28986 13.125 7.03111 13.125H4.21861C3.4433 13.125 2.81236 12.4941 2.81236 11.7188V8.90625C2.81236 8.7525 2.88783 8.60859 3.01393 8.52094C3.14049 8.43328 3.30174 8.41313 3.44564 8.46703L7.19564 9.87328C7.37846 9.94219 7.49986 10.117 7.49986 10.3125H22.4999C22.4999 10.0889 22.6574 9.89672 22.8767 9.85313L25.0963 9.40922C25.2074 9.38625 25.3231 9.375 25.4394 9.375C26.4031 9.375 27.1874 10.1592 27.1874 11.123V11.8453C27.1874 12.8095 26.4031 13.5938 25.4394 13.5938H27.6561V2.8125C27.6561 2.73984 27.673 2.66766 27.7053 2.60297L28.3039 1.40625H1.6958L2.29393 2.60297C2.32674 2.66766 2.34361 2.73984 2.34361 2.8125ZM3.28111 2.8125C3.28111 2.55375 3.49111 2.34375 3.74986 2.34375H26.2499C26.5086 2.34375 26.7186 2.55375 26.7186 2.8125V7.5C26.7186 7.75875 26.5086 7.96875 26.2499 7.96875H3.74986C3.49111 7.96875 3.28111 7.75875 3.28111 7.5V2.8125Z" fill="white"/>
<path d="M3.75 11.7189C3.75 11.9771 3.96047 12.1876 4.21875 12.1876H6.5625V10.6375L3.75 9.58276V11.7189Z" fill="white"/>
<path d="M16.4062 16.4062H20.1562V20.1562H16.4062V16.4062Z" fill="white"/>
<path d="M22.9688 16.4062H26.7188V20.1562H22.9688V16.4062Z" fill="white"/>
<path d="M28.125 14.5312H1.875C1.61672 14.5312 1.40625 14.7417 1.40625 15V28.125C1.40625 28.3837 1.61672 28.5938 1.875 28.5938H28.125C28.3833 28.5938 28.5938 28.3837 28.5938 28.125V15C28.5938 14.7417 28.3833 14.5312 28.125 14.5312ZM7.96875 26.7188C7.96875 27.2358 7.54828 27.6562 7.03125 27.6562H3.28125C2.76422 27.6562 2.34375 27.2358 2.34375 26.7188V22.9688C2.34375 22.4517 2.76422 22.0312 3.28125 22.0312H7.03125C7.54828 22.0312 7.96875 22.4517 7.96875 22.9688V26.7188ZM7.96875 20.1562C7.96875 20.6733 7.54828 21.0938 7.03125 21.0938H3.28125C2.76422 21.0938 2.34375 20.6733 2.34375 20.1562V16.4062C2.34375 15.8892 2.76422 15.4688 3.28125 15.4688H7.03125C7.54828 15.4688 7.96875 15.8892 7.96875 16.4062V20.1562ZM14.5312 26.7188C14.5312 27.2358 14.1108 27.6562 13.5938 27.6562H9.84375C9.32672 27.6562 8.90625 27.2358 8.90625 26.7188V22.9688C8.90625 22.4517 9.32672 22.0312 9.84375 22.0312H13.5938C14.1108 22.0312 14.5312 22.4517 14.5312 22.9688V26.7188ZM14.5312 20.1562C14.5312 20.6733 14.1108 21.0938 13.5938 21.0938H9.84375C9.32672 21.0938 8.90625 20.6733 8.90625 20.1562V16.4062C8.90625 15.8892 9.32672 15.4688 9.84375 15.4688H13.5938C14.1108 15.4688 14.5312 15.8892 14.5312 16.4062V20.1562ZM21.0938 26.7188C21.0938 27.2358 20.6733 27.6562 20.1562 27.6562H16.4062C15.8892 27.6562 15.4688 27.2358 15.4688 26.7188V22.9688C15.4688 22.4517 15.8892 22.0312 16.4062 22.0312H20.1562C20.6733 22.0312 21.0938 22.4517 21.0938 22.9688V26.7188ZM21.0938 20.1562C21.0938 20.6733 20.6733 21.0938 20.1562 21.0938H16.4062C15.8892 21.0938 15.4688 20.6733 15.4688 20.1562V16.4062C15.4688 15.8892 15.8892 15.4688 16.4062 15.4688H20.1562C20.6733 15.4688 21.0938 15.8892 21.0938 16.4062V20.1562ZM27.6562 26.7188C27.6562 27.2358 27.2358 27.6562 26.7188 27.6562H22.9688C22.4517 27.6562 22.0312 27.2358 22.0312 26.7188V22.9688C22.0312 22.4517 22.4517 22.0312 22.9688 22.0312H26.7188C27.2358 22.0312 27.6562 22.4517 27.6562 22.9688V26.7188ZM27.6562 20.1562C27.6562 20.6733 27.2358 21.0938 26.7188 21.0938H22.9688C22.4517 21.0938 22.0312 20.6733 22.0312 20.1562V16.4062C22.0312 15.8892 22.4517 15.4688 22.9688 15.4688H26.7188C27.2358 15.4688 27.6562 15.8892 27.6562 16.4062V20.1562Z" fill="white"/>
<path d="M22.9688 22.9688H26.7188V26.7188H22.9688V22.9688Z" fill="white"/>
<path d="M25.2811 10.328L23.4375 10.6969V12.2719L25.2802 12.6404C25.778 12.7407 26.25 12.3455 26.25 11.8458V11.1235C26.25 10.6233 25.7709 10.2291 25.2811 10.328Z" fill="white"/>
<path d="M7.5 11.25H22.5V11.7188H7.5V11.25Z" fill="white"/>
</svg>
