<svg width="30" height="30" viewBox="0 0 30 30" fill="none" xmlns="http://www.w3.org/2000/svg">
<path d="M22.557 16.1786C22.5377 16.1258 20.6147 10.8645 19.7678 8.40034C19.2214 6.81034 18.3052 6.00415 17.0447 6.00415C15.2908 6.00415 14.7069 6.00415 12.9549 6.00415C11.6944 6.00415 10.7782 6.81034 10.2318 8.40034C9.38499 10.8645 7.46194 16.1258 7.44255 16.1786C7.21919 16.7894 7.53331 17.4658 8.14421 17.6891C8.75505 17.9125 9.43139 17.5982 9.65469 16.9874C9.67069 16.9436 10.9892 13.3362 11.9295 10.6801C12.0136 10.9562 12.1856 11.1933 12.4119 11.3614L12.4148 13.087L10.389 18.1952C10.2785 18.4738 10.4403 18.7851 10.7308 18.8549C11.0332 18.9276 11.4337 19.0266 11.8681 19.1351V28.5867C11.8681 29.3672 12.5009 30 13.2814 30C14.0619 30 14.6947 29.3672 14.6947 28.5867V19.8032C14.8977 19.8212 15.1018 19.8211 15.3048 19.8029V28.5867C15.3048 29.3672 15.9376 30 16.7181 30C17.4986 30 18.1314 29.3672 18.1314 28.5867V19.1338C18.5654 19.0253 18.9655 18.9265 19.268 18.854C19.5565 18.7849 19.721 18.4736 19.6102 18.1942L17.5848 13.087L17.5876 11.3613C17.814 11.1933 17.9858 10.9562 18.07 10.68C19.0102 13.3362 20.3288 16.9435 20.3448 16.9874C20.5682 17.5983 21.2445 17.9124 21.8553 17.689C22.4663 17.4658 22.7804 16.7894 22.557 16.1786Z" fill="white"/>
<path d="M15 5.1443C16.4206 5.1443 17.5721 3.99271 17.5721 2.57215C17.5721 1.15159 16.4206 0 15 0C13.5794 0 12.4279 1.15159 12.4279 2.57215C12.4279 3.99271 13.5794 5.1443 15 5.1443Z" fill="white"/>
</svg>
