<svg width="30" height="30" viewBox="0 0 30 30" fill="none" xmlns="http://www.w3.org/2000/svg">
<path d="M23.0249 6.24947L21.1929 0.688602C21.0657 0.302446 20.6476 0 20.2411 0H9.74369C9.33701 0 8.91939 0.302848 8.79295 0.68934L6.97459 6.2494C6.86619 6.58076 6.78429 7.134 6.79201 7.48259L7.27334 29.2325C7.28274 29.6558 7.63475 30 8.05807 30H11.8143C12.2289 30 12.6078 29.6654 12.6591 29.2539L15.0004 10.4602L17.3419 29.2539C17.393 29.6654 17.772 30 18.1865 30H21.9428C22.3662 30 22.7182 29.6557 22.7275 29.2325L23.2088 7.48259C23.2166 7.1338 23.1341 6.58056 23.0249 6.24947ZM10.1369 4.89957L8.9157 8.60632C8.85527 8.7897 8.68476 8.90601 8.50164 8.90601C8.45643 8.90601 8.41048 8.89897 8.36514 8.88401C8.13641 8.80869 8.01212 8.56218 8.08745 8.33345L9.30863 4.6267C9.38396 4.39797 9.63046 4.27348 9.85919 4.34901C10.0879 4.42433 10.2122 4.67084 10.1369 4.89957ZM10.6852 2.60355H9.65676C9.41595 2.60355 9.22076 2.40836 9.22076 2.16756C9.22076 1.92676 9.41595 1.73157 9.65676 1.73157H10.6852C10.926 1.73157 11.1212 1.92676 11.1212 2.16756C11.1212 2.40836 10.926 2.60355 10.6852 2.60355ZM13.1 2.60355H12.0715C11.8307 2.60355 11.6355 2.40836 11.6355 2.16756C11.6355 1.92676 11.8307 1.73157 12.0715 1.73157H13.1C13.3408 1.73157 13.536 1.92676 13.536 2.16756C13.536 2.40836 13.3408 2.60355 13.1 2.60355ZM15.5147 2.60355H14.4862C14.2454 2.60355 14.0502 2.40836 14.0502 2.16756C14.0502 1.92676 14.2454 1.73157 14.4862 1.73157H15.5147C15.7555 1.73157 15.9507 1.92676 15.9507 2.16756C15.9507 2.40836 15.7555 2.60355 15.5147 2.60355ZM17.9294 2.60355H16.9009C16.6601 2.60355 16.4649 2.40836 16.4649 2.16756C16.4649 1.92676 16.6601 1.73157 16.9009 1.73157H17.9294C18.1702 1.73157 18.3654 1.92676 18.3654 2.16756C18.3654 2.40836 18.1702 2.60355 17.9294 2.60355ZM18.8796 2.16756C18.8796 1.92676 19.0748 1.73157 19.3156 1.73157H20.3442C20.585 1.73157 20.7802 1.92676 20.7802 2.16756C20.7802 2.40836 20.585 2.60355 20.3442 2.60355H19.3156C19.0749 2.60355 18.8796 2.40836 18.8796 2.16756ZM21.6357 8.88395C21.5904 8.8989 21.5444 8.90595 21.4992 8.90595C21.3161 8.90595 21.1457 8.7897 21.0852 8.60625L19.864 4.8995C19.7887 4.67077 19.913 4.42426 20.1417 4.34894C20.3707 4.27334 20.6169 4.3979 20.6923 4.62663L21.9134 8.33339C21.9888 8.56211 21.8644 8.80862 21.6357 8.88395Z" fill="white"/>
</svg>
