<svg width="30" height="30" viewBox="0 0 30 30" fill="none" xmlns="http://www.w3.org/2000/svg">
<g clip-path="url(#clip0)">
<path d="M29.9764 19.7462C29.9685 19.842 29.928 19.9322 29.8616 20.0016C29.5311 20.3556 27.4686 22.0618 18.71 22.0618H17.8405L1.11081 21.6306C0.808258 21.622 0.521449 21.4938 0.313216 21.2741C0.104982 21.0545 -0.00769519 20.7613 -0.000130584 20.4587L0.0467444 18.1665C0.050388 17.9942 0.120916 17.8302 0.2434 17.709C0.365883 17.5878 0.530711 17.5191 0.702994 17.5173C1.11315 17.5173 2.38346 17.5595 4.12253 17.6087C9.8694 17.7657 21.8272 18.0915 22.8725 18.0001C26.9436 17.6415 28.1671 16.9079 28.6897 16.5938L28.8632 16.4931C28.9119 16.4668 28.9655 16.4505 29.0206 16.4452C29.0758 16.44 29.1315 16.4458 29.1843 16.4624C29.2372 16.479 29.2862 16.506 29.3285 16.5419C29.3707 16.5778 29.4054 16.6217 29.4303 16.6712C29.7387 17.3028 29.9225 17.988 29.9717 18.6892C30.0038 19.0407 30.0053 19.3944 29.9764 19.7462Z" fill="white"/>
<path d="M13.6081 11.2664C13.5749 11.2664 13.542 11.2593 13.5117 11.2455C13.4814 11.2318 13.4543 11.2118 13.4324 11.1868C13.3911 11.1404 13.3699 11.0796 13.3734 11.0176C13.3769 10.9557 13.4049 10.8977 13.4511 10.8563L14.6628 9.76644C14.6854 9.74404 14.7123 9.72647 14.7419 9.71481C14.7715 9.70314 14.8032 9.69763 14.835 9.69859C14.8668 9.69956 14.8981 9.707 14.9269 9.72044C14.9557 9.73388 14.9815 9.75305 15.0027 9.77679C15.0239 9.80052 15.04 9.82832 15.0501 9.85849C15.0602 9.88866 15.0641 9.92057 15.0614 9.95227C15.0588 9.98398 15.0497 10.0148 15.0348 10.0429C15.0199 10.071 14.9994 10.0957 14.9745 10.1157L13.7628 11.2055C13.7204 11.244 13.6654 11.2657 13.6081 11.2664Z" fill="white"/>
<path d="M15.0845 12.7687C15.0397 12.7687 14.9958 12.7559 14.9581 12.7317C14.9204 12.7076 14.8903 12.6731 14.8716 12.6324C14.8528 12.5917 14.8462 12.5465 14.8523 12.5021C14.8585 12.4577 14.8772 12.4161 14.9064 12.382L16.0173 11.1C16.0371 11.0757 16.0616 11.0556 16.0894 11.0409C16.1171 11.0262 16.1475 11.0172 16.1788 11.0145C16.2101 11.0118 16.2416 11.0154 16.2714 11.0251C16.3013 11.0348 16.3289 11.0504 16.3526 11.071C16.3763 11.0916 16.3956 11.1167 16.4094 11.1449C16.4232 11.1731 16.4313 11.2037 16.433 11.2351C16.4347 11.2664 16.4302 11.2978 16.4195 11.3273C16.4089 11.3569 16.3925 11.384 16.3712 11.407L15.2626 12.6867C15.2406 12.7124 15.2133 12.7331 15.1825 12.7472C15.1518 12.7614 15.1183 12.7687 15.0845 12.7687Z" fill="white"/>
<path d="M16.8604 14.0767C16.8162 14.0769 16.7729 14.0639 16.7362 14.0392C16.71 14.0229 16.6873 14.0016 16.6693 13.9765C16.6513 13.9515 16.6385 13.9231 16.6315 13.893C16.6246 13.863 16.6236 13.8319 16.6287 13.8014C16.6338 13.771 16.6448 13.7419 16.6612 13.7157L17.5331 12.2696C17.5488 12.2429 17.5696 12.2195 17.5944 12.2008C17.6193 12.1822 17.6475 12.1686 17.6776 12.161C17.7077 12.1534 17.739 12.1518 17.7697 12.1564C17.8004 12.1609 17.8299 12.1715 17.8565 12.1876C17.8825 12.2041 17.905 12.2255 17.9227 12.2507C17.9405 12.2758 17.9531 12.3042 17.9598 12.3343C17.9666 12.3643 17.9673 12.3954 17.9621 12.4257C17.9568 12.456 17.9456 12.485 17.9292 12.511L17.0573 13.9571C17.0375 13.9923 17.009 14.0218 16.9745 14.0428C16.9401 14.0637 16.9007 14.0754 16.8604 14.0767Z" fill="white"/>
<path d="M18.8153 15.0444C18.7749 15.0443 18.7352 15.0338 18.7001 15.0138C18.6649 14.9938 18.6356 14.9651 18.6148 14.9304C18.5941 14.8958 18.5826 14.8563 18.5816 14.8159C18.5806 14.7755 18.5901 14.7356 18.609 14.6999L19.345 13.2351C19.3594 13.2078 19.3791 13.1837 19.4029 13.1641C19.4267 13.1444 19.4541 13.1297 19.4836 13.1206C19.5131 13.1116 19.5441 13.1085 19.5748 13.1114C19.6055 13.1144 19.6353 13.1233 19.6626 13.1378C19.6898 13.1523 19.7139 13.1719 19.7335 13.1957C19.7532 13.2195 19.7679 13.2469 19.777 13.2764C19.786 13.3059 19.7891 13.3369 19.7862 13.3676C19.7832 13.3983 19.7743 13.4281 19.7598 13.4554L19.0215 14.9202C19.0016 14.9576 18.9719 14.989 18.9356 15.0108C18.8993 15.0327 18.8577 15.0443 18.8153 15.0444Z" fill="white"/>
<path d="M21.5487 14.4773L22.7206 14.6578L22.669 17.5406C22.5495 17.5406 22.362 17.5406 22.062 17.5406C19.0456 17.5406 8.98151 17.264 4.14635 17.1328C2.27135 17.0812 1.11588 17.0484 0.701037 17.0414C0.586596 17.0475 0.473675 17.0704 0.365881 17.1093C0.000256002 13.0031 1.14869 9.24839 1.31276 8.74214C1.32131 8.60691 1.36161 8.47559 1.43038 8.35883C1.49915 8.24208 1.59447 8.14317 1.7086 8.07012C1.82273 7.99708 1.95247 7.95195 2.0873 7.9384C2.22213 7.92486 2.35825 7.94327 2.48463 7.99214C5.61043 9.13832 9.03416 9.18132 12.1878 8.11402C12.4 8.04924 12.6278 8.05719 12.835 8.13658C13.0422 8.21598 13.2169 8.36229 13.3315 8.5523C13.5784 8.94136 13.8307 9.30542 14.0885 9.64449L13.1346 10.5046C13.0656 10.5661 13.0093 10.6406 12.9691 10.7239C12.9289 10.8071 12.9055 10.8975 12.9003 10.9898C12.895 11.0821 12.9081 11.1746 12.9387 11.2618C12.9692 11.3491 13.0167 11.4295 13.0784 11.4984C13.2025 11.6371 13.3766 11.7209 13.5625 11.7314C13.7483 11.742 13.9307 11.6784 14.0698 11.5546L15.0003 10.7203C15.1268 10.8585 15.2557 10.9921 15.3846 11.1187L14.5526 12.0773C14.4311 12.219 14.3708 12.4032 14.3851 12.5894C14.3994 12.7755 14.487 12.9484 14.6288 13.0699C14.7705 13.1914 14.9547 13.2516 15.1408 13.2374C15.327 13.2231 15.4998 13.1354 15.6214 12.9937L16.4299 12.0562C16.5846 12.1828 16.7393 12.2906 16.8987 12.4101L16.2659 13.4648C16.1659 13.6221 16.1324 13.8126 16.1728 13.9946C16.2133 14.1765 16.3243 14.335 16.4815 14.4351C16.5945 14.5064 16.7252 14.5445 16.8589 14.5453C16.9777 14.5454 17.0947 14.5153 17.1988 14.4579C17.3029 14.4005 17.3908 14.3177 17.4542 14.2171L18.0659 13.1812C18.2721 13.3 18.4737 13.4078 18.6706 13.5046L18.2018 14.4796C18.1139 14.6441 18.0949 14.8367 18.1489 15.0151C18.203 15.1936 18.3257 15.3432 18.4901 15.4312C18.5717 15.4747 18.661 15.5016 18.7529 15.5105C18.8449 15.5194 18.9377 15.5101 19.0261 15.4831C19.1145 15.4561 19.1967 15.412 19.268 15.3532C19.3393 15.2944 19.3983 15.2222 19.4417 15.1406L19.9667 14.0625C20.4685 14.2466 20.9864 14.3839 21.5135 14.4726H21.544L21.5487 14.4773Z" fill="white"/>
<path d="M28.7931 16.0195C28.7409 16.0352 28.6906 16.0564 28.6431 16.0828C28.5868 16.1133 28.5235 16.1484 28.4532 16.193C27.9728 16.4812 26.8642 17.1469 23.147 17.5055L23.1962 14.693C24.0938 14.6719 27.3915 14.7047 28.7931 16.0195Z" fill="white"/>
</g>
<defs>
<clipPath id="clip0">
<rect width="30" height="30" fill="white"/>
</clipPath>
</defs>
</svg>
