<svg width="20" height="20" viewBox="0 0 20 20" fill="none" xmlns="http://www.w3.org/2000/svg">
<path d="M16.2742 6.2898C16.2742 2.82445 13.4717 0.0135938 10.0095 0C2.40759 0.191211 1.37466 10.7611 8.72013 12.4526V14.6304H6.58017C6.25173 14.6304 5.98544 14.8967 5.98544 15.2252V16.564C5.98544 16.8925 6.25169 17.1588 6.58017 17.1588H8.72013V19.4052C8.72013 19.7337 8.98638 20 9.31486 20H10.6537C10.9822 20 11.2485 19.7337 11.2485 19.4052V17.1588H13.3884C13.7169 17.1588 13.9831 16.8925 13.9831 16.564V15.2252C13.9831 14.8967 13.7169 14.6304 13.3884 14.6304H11.2485V12.4526C14.1163 11.8674 16.2742 9.33062 16.2742 6.2898ZM9.98427 10.0053C7.93228 10.0053 6.2688 8.34184 6.2688 6.28984C6.46451 1.36137 13.5048 1.36277 13.6997 6.28988C13.6997 8.34184 12.0363 10.0053 9.98427 10.0053Z" fill="white"/>
</svg>
