<svg width="20" height="20" viewBox="0 0 20 20" fill="none" xmlns="http://www.w3.org/2000/svg">
<path d="M10.8186 0V2.25289H16.1541L12.1936 6.2134C10.9223 5.27027 9.3484 4.71219 7.64395 4.71219C3.4223 4.71219 0 8.13445 0 12.3561C0 16.5777 3.42231 20 7.64391 20C11.8655 20 15.2878 16.5777 15.2878 12.3561C15.2878 10.6516 14.7297 9.07766 13.7866 7.80641L17.7471 3.84594V9.18145H20V0L10.8186 0ZM7.64391 17.4825C4.81266 17.4825 2.51746 15.1873 2.51746 12.3561C2.51746 9.52481 4.81266 7.22961 7.64391 7.22961C10.4752 7.22961 12.7704 9.52481 12.7704 12.3561C12.7704 15.1873 10.4752 17.4825 7.64391 17.4825Z" fill="white"/>
</svg>
