<svg width="1920" height="200" viewBox="0 0 1920 200" fill="none" xmlns="http://www.w3.org/2000/svg">
<path d="M63.48 119.744H94.264V147.272C94.264 164.045 90.12 176.971 81.832 186.048C73.544 194.928 61.5067 199.368 45.72 199.368C29.9333 199.368 17.896 194.928 9.608 186.048C1.32 176.971 -2.824 164.045 -2.824 147.272V39.528C-2.824 22.7547 1.32 9.92799 9.608 1.04798C17.896 -8.02934 29.9333 -12.568 45.72 -12.568C61.5067 -12.568 73.544 -8.02934 81.832 1.04798C90.12 9.92799 94.264 22.7547 94.264 39.528V59.656H63.48V37.456C63.48 23.84 57.856 17.032 46.608 17.032C35.36 17.032 29.736 23.84 29.736 37.456V149.344C29.736 162.763 35.36 169.472 46.608 169.472C57.856 169.472 63.48 162.763 63.48 149.344V119.744ZM152.5 108.2V197H119.94V-10.2H152.5V78.6H189.5V-10.2H222.652V197H189.5V108.2H152.5ZM324.404 -10.2L357.556 197H324.7L319.076 159.408H279.116L273.492 197H243.596L276.748 -10.2H324.404ZM298.948 26.504L283.26 131.288H314.636L298.948 26.504ZM479.871 197H446.719C444.746 191.08 443.759 182.595 443.759 171.544V138.984C443.759 129.512 442.082 122.803 438.727 118.856C435.372 114.712 429.946 112.64 422.447 112.64H411.199V197H378.639V-10.2H427.775C444.548 -10.2 456.783 -6.25335 464.479 1.63999C472.175 9.33599 476.023 21.2747 476.023 37.456V53.736C476.023 75.048 468.919 89.0587 454.711 95.768C469.116 101.885 476.319 116.587 476.319 139.872V171.84C476.319 183.088 477.503 191.475 479.871 197ZM426.887 19.4H411.199V83.04H423.927C430.439 83.04 435.274 81.3627 438.431 78.008C441.786 74.6533 443.463 69.0293 443.463 61.136V40.712C443.463 26.504 437.938 19.4 426.887 19.4ZM575.877 -10.2L609.029 197H576.173L570.549 159.408H530.589L524.965 197H495.069L528.221 -10.2H575.877ZM550.421 26.504L534.733 131.288H566.109L550.421 26.504ZM693.463 119.744H724.247V147.272C724.247 164.045 720.103 176.971 711.815 186.048C703.527 194.928 691.489 199.368 675.703 199.368C659.916 199.368 647.879 194.928 639.591 186.048C631.303 176.971 627.159 164.045 627.159 147.272V39.528C627.159 22.7547 631.303 9.92799 639.591 1.04798C647.879 -8.02934 659.916 -12.568 675.703 -12.568C691.489 -12.568 703.527 -8.02934 711.815 1.04798C720.103 9.92799 724.247 22.7547 724.247 39.528V59.656H693.463V37.456C693.463 23.84 687.839 17.032 676.591 17.032C665.343 17.032 659.719 23.84 659.719 37.456V149.344C659.719 162.763 665.343 169.472 676.591 169.472C687.839 169.472 693.463 162.763 693.463 149.344V119.744ZM740.451 19.4V-10.2H841.091V19.4H807.051V197H774.491V19.4H740.451ZM893.91 19.4V77.12H938.606V106.72H893.91V167.4H950.15V197H861.35V-10.2H950.15V19.4H893.91ZM1077.48 197H1044.33C1042.35 191.08 1041.37 182.595 1041.37 171.544V138.984C1041.37 129.512 1039.69 122.803 1036.33 118.856C1032.98 114.712 1027.55 112.64 1020.05 112.64H1008.81V197H976.247V-10.2H1025.38C1042.16 -10.2 1054.39 -6.25335 1062.09 1.63999C1069.78 9.33599 1073.63 21.2747 1073.63 37.456V53.736C1073.63 75.048 1066.53 89.0587 1052.32 95.768C1066.72 101.885 1073.93 116.587 1073.93 139.872V171.84C1073.93 183.088 1075.11 191.475 1077.48 197ZM1024.49 19.4H1008.81V83.04H1021.53C1028.05 83.04 1032.88 81.3627 1036.04 78.008C1039.39 74.6533 1041.07 69.0293 1041.07 61.136V40.712C1041.07 26.504 1035.55 19.4 1024.49 19.4ZM1149 39.528C1149 22.7547 1153.04 9.92799 1161.13 1.04798C1169.22 -8.02934 1181.16 -12.568 1196.95 -12.568C1212.74 -12.568 1224.67 -8.02934 1232.77 1.04798C1240.86 9.92799 1244.9 22.7547 1244.9 39.528V46.04H1214.12V37.456C1214.12 23.84 1208.69 17.032 1197.84 17.032C1186.98 17.032 1181.56 23.84 1181.56 37.456C1181.56 43.1787 1182.74 48.6053 1185.11 53.736C1187.48 58.8667 1190.54 63.504 1194.29 67.648C1198.03 71.792 1202.18 75.936 1206.72 80.08C1211.26 84.0267 1215.7 88.2693 1220.04 92.808C1224.58 97.1493 1228.72 101.885 1232.47 107.016C1236.22 111.949 1239.28 117.869 1241.65 124.776C1244.01 131.683 1245.2 139.181 1245.2 147.272C1245.2 164.045 1241.05 176.971 1232.77 186.048C1224.48 194.928 1212.44 199.368 1196.65 199.368C1180.87 199.368 1168.83 194.928 1160.54 186.048C1152.25 176.971 1148.11 164.045 1148.11 147.272V134.544H1178.89V149.344C1178.89 162.763 1184.52 169.472 1195.77 169.472C1207.01 169.472 1212.64 162.763 1212.64 149.344C1212.64 141.648 1210.47 134.445 1206.13 127.736C1201.78 120.829 1196.46 114.613 1190.14 109.088C1184.02 103.563 1177.81 97.84 1171.49 91.92C1165.18 85.8027 1159.85 78.304 1155.51 69.424C1151.17 60.3467 1149 50.3813 1149 39.528ZM1302.33 19.4V77.12H1347.03V106.72H1302.33V167.4H1358.57V197H1269.77V-10.2H1358.57V19.4H1302.33ZM1384.67 197V-10.2H1417.23V167.4H1470.81V197H1384.67ZM1523.45 19.4V77.12H1568.15V106.72H1523.45V167.4H1579.69V197H1490.89V-10.2H1579.69V19.4H1523.45ZM1669.43 119.744H1700.21V147.272C1700.21 164.045 1696.07 176.971 1687.78 186.048C1679.49 194.928 1667.46 199.368 1651.67 199.368C1635.88 199.368 1623.85 194.928 1615.56 186.048C1607.27 176.971 1603.13 164.045 1603.13 147.272V39.528C1603.13 22.7547 1607.27 9.92799 1615.56 1.04798C1623.85 -8.02934 1635.88 -12.568 1651.67 -12.568C1667.46 -12.568 1679.49 -8.02934 1687.78 1.04798C1696.07 9.92799 1700.21 22.7547 1700.21 39.528V59.656H1669.43V37.456C1669.43 23.84 1663.81 17.032 1652.56 17.032C1641.31 17.032 1635.69 23.84 1635.69 37.456V149.344C1635.69 162.763 1641.31 169.472 1652.56 169.472C1663.81 169.472 1669.43 162.763 1669.43 149.344V119.744ZM1716.42 19.4V-10.2H1817.06V19.4H1783.02V197H1750.46V19.4H1716.42ZM1837.32 197V-10.2H1869.88V197H1837.32ZM1929.5 37.456V149.344C1929.5 162.96 1935.13 169.768 1946.37 169.768C1957.62 169.768 1963.25 162.96 1963.25 149.344V37.456C1963.25 23.84 1957.62 17.032 1946.37 17.032C1935.13 17.032 1929.5 23.84 1929.5 37.456ZM1896.94 147.272V39.528C1896.94 22.952 1901.18 10.1253 1909.67 1.04798C1918.15 -8.02934 1930.39 -12.568 1946.37 -12.568C1962.36 -12.568 1974.59 -8.02934 1983.08 1.04798C1991.56 10.1253 1995.81 22.952 1995.81 39.528V147.272C1995.81 163.848 1991.56 176.675 1983.08 185.752C1974.59 194.829 1962.36 199.368 1946.37 199.368C1930.39 199.368 1918.15 194.829 1909.67 185.752C1901.18 176.675 1896.94 163.848 1896.94 147.272ZM2092.44 197L2051.89 46.928V197H2022.59V-10.2H2063.44L2096.88 113.824V-10.2H2125.89V197H2092.44Z" fill="url(#paint0_linear)"/>
<defs>
<linearGradient id="paint0_linear" x1="-12" y1="271" x2="2306" y2="271" gradientUnits="userSpaceOnUse">
<stop stop-color="white" stop-opacity="0.08"/>
<stop offset="1" stop-color="white" stop-opacity="0"/>
</linearGradient>
</defs>
</svg>
