<svg width="30" height="30" viewBox="0 0 30 30" fill="none" xmlns="http://www.w3.org/2000/svg">
<path d="M10.377 14.002L17.0161 7.38614C17.2606 7.12868 17.5659 7 17.9326 7C18.2993 7 18.6046 7.12882 18.8491 7.38614L19.623 8.14844C19.8742 8.39914 19.9999 8.70387 19.9999 9.06295C19.9999 9.41523 19.8743 9.72359 19.623 9.98774L14.6742 14.9167L19.6232 19.8558C19.8744 20.1065 20 20.4112 20 20.7703C20 21.1226 19.8744 21.4311 19.6232 21.6951L18.8493 22.4573C18.5981 22.708 18.2924 22.8333 17.9327 22.8333C17.5729 22.8333 17.2673 22.708 17.0162 22.4573L10.377 15.8415C10.1257 15.5772 10 15.269 10 14.9167C9.99996 14.5576 10.1257 14.2527 10.377 14.002Z" fill="white" fill-opacity="0.1"/>
</svg>
