<svg width="47" height="54" viewBox="0 0 47 54" fill="none" xmlns="http://www.w3.org/2000/svg">
<path d="M38.2308 23.6727V27.8126C38.2308 29.342 39.4706 30.5818 41 30.5818C42.5294 30.5818 43.7692 29.342 43.7692 27.8126V23.6727H45.2355C46.0124 23.6727 46.493 22.8287 46.0909 22.164C45.4217 21.0578 44.4644 19.4839 43.5015 17.9303C42.352 16.0758 39.6942 16.1051 38.5441 17.9593L35.9473 22.1456C35.5341 22.8118 36.0131 23.6727 36.7971 23.6727H38.2308Z" fill="white"/>
<path d="M43.7692 42.3273L43.7692 38.1874C43.7692 36.658 42.5294 35.4182 41 35.4182C39.4706 35.4182 38.2308 36.658 38.2308 38.1874L38.2308 42.3273L36.7645 42.3273C35.9876 42.3273 35.507 43.1713 35.9091 43.836C36.5783 44.9422 37.5356 46.5161 38.4985 48.0696C39.648 49.9242 42.3058 49.8949 43.4559 48.0407L46.0527 43.8544C46.4659 43.1882 45.9868 42.3273 45.2029 42.3273L43.7692 42.3273Z" fill="white"/>
<path d="M9.67273 8.76923L13.8126 8.76923C15.342 8.76923 16.5818 7.5294 16.5818 6C16.5818 4.4706 15.342 3.23077 13.8126 3.23077L9.67273 3.23077L9.67273 1.76454C9.67273 0.987605 8.82875 0.506969 8.16398 0.909105C7.05778 1.57827 5.48386 2.53561 3.93035 3.49853C2.07581 4.64803 2.10511 7.3058 3.95926 8.45593L8.1456 11.0527C8.81177 11.4659 9.67273 10.9868 9.67273 10.2029L9.67273 8.76923Z" fill="white"/>
<path d="M28.3273 3.23077L24.1874 3.23077C22.658 3.23077 21.4182 4.4706 21.4182 6C21.4182 7.5294 22.658 8.76923 24.1874 8.76923L28.3273 8.76923L28.3273 10.2355C28.3273 11.0124 29.1713 11.493 29.836 11.0909C30.9422 10.4217 32.5161 9.46439 34.0696 8.50147C35.9242 7.35197 35.8949 4.6942 34.0407 3.54407L29.8544 0.947276C29.1882 0.534055 28.3273 1.01315 28.3273 1.79707L28.3273 3.23077Z" fill="white"/>
<path d="M5 32H34V39.5C34 47.5081 27.5081 54 19.5 54V54C11.4919 54 5 47.5081 5 39.5V32Z" fill="#727371"/>
<path d="M19 31H5V23C5 16.9249 9.92487 12 16 12H19V14.2353C17.067 14.2353 15.5 15.8023 15.5 17.7353V25.2647C15.5 27.1977 17.067 28.7647 19 28.7647V31Z" fill="#9EC626"/>
<path d="M20 31H34V23C34 16.9249 29.0751 12 23 12H20V14.2353C21.933 14.2353 23.5 15.8023 23.5 17.7353V25.2647C23.5 27.1977 21.933 28.7647 20 28.7647V31Z" fill="#727371"/>
<path d="M16.5 18C16.5 16.3431 17.8431 15 19.5 15V15C21.1569 15 22.5 16.3431 22.5 18V25C22.5 26.6569 21.1569 28 19.5 28V28C17.8431 28 16.5 26.6569 16.5 25V18Z" fill="#727371"/>
<path d="M25.4904 36.7861L22.9193 39.316L22.8292 39.1175C22.3579 38.0793 21.1301 37.6056 20.0766 38.0839L16.5957 39.6642L16.471 39.3894C16.3254 39.0688 15.948 38.9271 15.6274 39.0726L14.7114 39.4885L14.351 38.6946L17.0685 37.4608C17.3196 37.5678 17.5972 37.5707 17.8414 37.4598L21.0781 35.9904C21.5666 35.7686 21.7833 35.1914 21.5615 34.7029L21.5546 34.6876C21.3328 34.1991 20.7556 33.9823 20.2671 34.2041L17.0305 35.6736C16.7709 35.7914 16.5905 36.0022 16.521 36.2547L12.5668 38.0499C12.292 38.1747 12.1669 38.5077 12.2917 38.7825L12.9779 40.2939L12.8558 40.3494C12.5352 40.4949 12.3934 40.8723 12.539 41.1929L12.6638 41.4677L12.3279 41.6202C11.2897 42.0915 10.816 43.3194 11.2942 44.3728L13.2904 48.7697C13.7618 49.8079 14.9896 50.2816 16.043 49.8033L23.814 46.2753C24.7758 45.8387 25.2439 44.7607 24.9363 43.7587L28.5484 43.4814C29.3838 43.4152 29.9046 42.5343 29.558 41.7709L27.4509 37.1297C27.0891 36.3733 26.0901 36.2008 25.4904 36.7861ZM19.6856 46.7134L15.5024 48.6125C15.2581 48.7234 14.9543 48.622 14.8364 48.3624C14.7255 48.1182 14.827 47.8143 15.0865 47.6965L19.2697 45.7973C19.514 45.6864 19.8178 45.7879 19.9356 46.0474C20.0382 46.3139 19.9298 46.6025 19.6856 46.7134ZM18.1185 41.4771C18.1948 41.6451 18.1267 41.8601 17.9435 41.9433L17.4855 42.1512C17.3175 42.2275 17.1025 42.1594 17.0193 41.9762L16.8114 41.5182C16.7351 41.3502 16.8032 41.1352 16.9864 41.052L17.4444 40.8441C17.6276 40.7609 17.8274 40.8359 17.9106 41.0191L18.1185 41.4771ZM19.469 40.8824C19.5452 41.0504 19.4771 41.2654 19.2939 41.3486L18.8359 41.5565C18.668 41.6328 18.4529 41.5647 18.3697 41.3815L18.1618 40.9235C18.0856 40.7555 18.1536 40.5405 18.3368 40.4573L18.7949 40.2494C18.9628 40.1731 19.1778 40.2412 19.261 40.4244L19.469 40.8824ZM20.8277 40.2656C20.904 40.4335 20.8359 40.6485 20.6527 40.7317L20.1947 40.9397C20.0267 41.0159 19.8117 40.9478 19.7285 40.7646L19.5206 40.3066C19.4443 40.1387 19.5124 39.9236 19.6956 39.8404L20.1536 39.6325C20.3216 39.5562 20.5366 39.6243 20.6198 39.8075L20.8277 40.2656Z" fill="white"/>
</svg>
