<svg width="43" height="42" viewBox="0 0 43 42" fill="none" xmlns="http://www.w3.org/2000/svg">
<path d="M34.2308 9.67273V13.8126C34.2308 15.342 35.4706 16.5818 37 16.5818C38.5294 16.5818 39.7692 15.342 39.7692 13.8126V9.67273H41.2355C42.0124 9.67273 42.493 8.82875 42.0909 8.16398C41.4217 7.05778 40.4644 5.48386 39.5015 3.93035C38.352 2.07581 35.6942 2.10512 34.5441 3.95926L31.9473 8.1456C31.5341 8.81177 32.0131 9.67273 32.7971 9.67273H34.2308Z" fill="white"/>
<path d="M39.7692 28.3273L39.7692 24.1874C39.7692 22.658 38.5294 21.4182 37 21.4182C35.4706 21.4182 34.2308 22.658 34.2308 24.1874L34.2308 28.3273L32.7645 28.3273C31.9876 28.3273 31.507 29.1713 31.9091 29.836C32.5783 30.9422 33.5356 32.5161 34.4985 34.0696C35.648 35.9242 38.3058 35.8949 39.4559 34.0407L42.0527 29.8544C42.4659 29.1882 41.9869 28.3273 41.2029 28.3273L39.7692 28.3273Z" fill="white"/>
<path d="M0 20H29V27.5C29 35.5081 22.5081 42 14.5 42V42C6.49187 42 0 35.5081 0 27.5V20Z" fill="#727371"/>
<path d="M14 19H0V11C0 4.92487 4.92487 2.31823e-06 11 0H14V2.23529C12.067 2.2353 10.5 3.8023 10.5 5.7353V13.2647C10.5 15.1977 12.067 16.7647 14 16.7647V19Z" fill="#727371"/>
<path d="M15 19H29V11C29 4.92487 24.0751 0 18 0H15V2.23529C16.933 2.23529 18.5 3.8023 18.5 5.73529V13.2647C18.5 15.1977 16.933 16.7647 15 16.7647V19Z" fill="#727371"/>
<path d="M11.5 6C11.5 4.34315 12.8431 3 14.5 3V3C16.1569 3 17.5 4.34315 17.5 6V13C17.5 14.6569 16.1569 16 14.5 16V16C12.8431 16 11.5 14.6569 11.5 13V6Z" fill="#9EC626"/>
<path d="M4.94678 28.9761H7.27148V30H3.3252V29.2266L5.56201 26.2734H3.39111V25.2451H7.20117V25.9966L4.94678 28.9761ZM7.79883 27.5786C7.79883 27.1069 7.88965 26.6865 8.07129 26.3174C8.25293 25.9482 8.51367 25.6626 8.85352 25.4604C9.19629 25.2583 9.59326 25.1572 10.0444 25.1572C10.686 25.1572 11.209 25.3535 11.6133 25.7461C12.0205 26.1387 12.2476 26.6719 12.2944 27.3457L12.3032 27.6709C12.3032 28.4004 12.0996 28.9863 11.6924 29.4287C11.2852 29.8682 10.7388 30.0879 10.0532 30.0879C9.36768 30.0879 8.81982 29.8682 8.40967 29.4287C8.00244 28.9893 7.79883 28.3916 7.79883 27.6357V27.5786ZM9.06885 27.6709C9.06885 28.1221 9.15381 28.4678 9.32373 28.708C9.49365 28.9453 9.73682 29.064 10.0532 29.064C10.3608 29.064 10.6011 28.9468 10.7739 28.7124C10.9468 28.4751 11.0332 28.0972 11.0332 27.5786C11.0332 27.1362 10.9468 26.7935 10.7739 26.5503C10.6011 26.3071 10.3579 26.1855 10.0444 26.1855C9.73389 26.1855 9.49365 26.3071 9.32373 26.5503C9.15381 26.7905 9.06885 27.1641 9.06885 27.6709ZM12.8877 27.5786C12.8877 27.1069 12.9785 26.6865 13.1602 26.3174C13.3418 25.9482 13.6025 25.6626 13.9424 25.4604C14.2852 25.2583 14.6821 25.1572 15.1333 25.1572C15.7749 25.1572 16.2979 25.3535 16.7021 25.7461C17.1094 26.1387 17.3364 26.6719 17.3833 27.3457L17.3921 27.6709C17.3921 28.4004 17.1885 28.9863 16.7812 29.4287C16.374 29.8682 15.8276 30.0879 15.1421 30.0879C14.4565 30.0879 13.9087 29.8682 13.4985 29.4287C13.0913 28.9893 12.8877 28.3916 12.8877 27.6357V27.5786ZM14.1577 27.6709C14.1577 28.1221 14.2427 28.4678 14.4126 28.708C14.5825 28.9453 14.8257 29.064 15.1421 29.064C15.4497 29.064 15.6899 28.9468 15.8628 28.7124C16.0356 28.4751 16.1221 28.0972 16.1221 27.5786C16.1221 27.1362 16.0356 26.7935 15.8628 26.5503C15.6899 26.3071 15.4468 26.1855 15.1333 26.1855C14.8228 26.1855 14.5825 26.3071 14.4126 26.5503C14.2427 26.7905 14.1577 27.1641 14.1577 27.6709ZM19.3652 25.2451L19.4048 25.7769C19.7417 25.3638 20.1973 25.1572 20.7715 25.1572C21.3838 25.1572 21.8042 25.3989 22.0327 25.8823C22.3667 25.3989 22.8428 25.1572 23.4609 25.1572C23.9766 25.1572 24.3604 25.3081 24.6123 25.6099C24.8643 25.9087 24.9902 26.3599 24.9902 26.9634V30H23.7158V26.9678C23.7158 26.6982 23.6631 26.502 23.5576 26.3789C23.4521 26.2529 23.2661 26.1899 22.9995 26.1899C22.6187 26.1899 22.355 26.3716 22.2085 26.7349L22.2129 30H20.9429V26.9722C20.9429 26.6968 20.8887 26.4976 20.7803 26.3745C20.6719 26.2515 20.4873 26.1899 20.2266 26.1899C19.8662 26.1899 19.6055 26.3394 19.4443 26.6382V30H18.1743V25.2451H19.3652Z" fill="white"/>
</svg>
