<svg width="24" height="24" viewBox="0 0 24 24" fill="none" xmlns="http://www.w3.org/2000/svg">
<g clip-path="url(#clip0)">
<path d="M19.0315 17.198H19.4455C21.1808 17.1982 22.7654 16.2119 23.5314 14.6546C24.2974 13.0975 24.1117 11.2403 23.0526 9.86568C21.9933 8.49089 20.2448 7.83785 18.5438 8.18165C18.3201 7.06496 17.5967 6.11239 16.5811 5.59679C15.5656 5.08119 14.3697 5.05957 13.3361 5.53797C12.4007 2.9614 9.55371 1.63108 6.97714 2.56647C4.40057 3.50206 3.07024 6.34906 4.00563 8.92564C1.7486 8.99678 -0.0342584 10.8649 -0.00050512 13.1228C0.0334503 15.3808 1.87169 17.1944 4.12993 17.198" fill="#A3D4F7"/>
<path d="M9.92436 18.8538H8.85375L9.80309 17.9046C9.95993 17.7421 9.95771 17.484 9.79804 17.3244C9.63836 17.1647 9.38006 17.1625 9.21776 17.3193L8.26863 18.2685V17.1981C8.26863 16.9695 8.08329 16.7841 7.85469 16.7841C7.6259 16.7841 7.44076 16.9695 7.44076 17.1981V18.2685L6.49162 17.3193C6.32912 17.1625 6.07102 17.1647 5.91135 17.3244C5.75168 17.484 5.74925 17.7421 5.9063 17.9046L6.85543 18.8538H5.78503C5.55623 18.8538 5.37109 19.0391 5.37109 19.2677C5.37109 19.4963 5.55623 19.6816 5.78503 19.6816H6.85543L5.9063 20.6308C5.79857 20.7347 5.75552 20.8887 5.79331 21.0334C5.83131 21.1781 5.94429 21.2911 6.08901 21.3289C6.23372 21.3669 6.38753 21.3236 6.49162 21.2161L7.44076 20.267V21.3374C7.44076 21.566 7.6259 21.7513 7.85469 21.7513C8.08329 21.7513 8.26863 21.566 8.26863 21.3374V20.267L9.21776 21.2161C9.38006 21.3729 9.63836 21.3707 9.79804 21.211C9.95771 21.0514 9.95993 20.7933 9.80309 20.6308L8.85375 19.6816H9.92436C10.153 19.6816 10.3383 19.4963 10.3383 19.2677C10.3383 19.0391 10.153 18.8538 9.92436 18.8538Z" fill="#B7F9FE"/>
<path d="M17.3785 18.0258H16.3079L17.2572 17.0767C17.414 16.9142 17.4118 16.6561 17.2522 16.4964C17.0925 16.3368 16.8342 16.3345 16.6719 16.4914L15.7227 17.4405V16.3701C15.7227 16.1415 15.5374 15.9562 15.3088 15.9562C15.08 15.9562 14.8949 16.1415 14.8949 16.3701V17.4405L13.9457 16.4914C13.7832 16.3345 13.5251 16.3368 13.3655 16.4964C13.2058 16.6561 13.2034 16.9142 13.3604 17.0767L14.3095 18.0258H13.2391C13.0103 18.0258 12.8252 18.2112 12.8252 18.4398C12.8252 18.6684 13.0103 18.8537 13.2391 18.8537H14.3095L13.3604 19.8028C13.2527 19.9067 13.2096 20.0607 13.2474 20.2054C13.2854 20.3502 13.3984 20.4631 13.5431 20.5009C13.6878 20.5389 13.8416 20.4957 13.9457 20.3882L14.8949 19.439V20.5094C14.8949 20.738 15.08 20.9234 15.3088 20.9234C15.5374 20.9234 15.7227 20.738 15.7227 20.5094V19.439L16.6719 20.3882C16.8342 20.545 17.0925 20.5428 17.2522 20.3831C17.4118 20.2234 17.414 19.9653 17.2572 19.8028L16.3079 18.8537H17.3785C17.6071 18.8537 17.7924 18.6684 17.7924 18.4398C17.7924 18.2112 17.6071 18.0258 17.3785 18.0258Z" fill="#B7F9FE"/>
<path d="M12.7005 14.8357L11.7512 13.8865H12.8218C13.0504 13.8865 13.2358 13.7012 13.2358 13.4726C13.2358 13.244 13.0504 13.0587 12.8218 13.0587H11.7512L12.7005 12.1095C12.8574 11.947 12.8552 11.6889 12.6955 11.5293C12.5358 11.3696 12.2775 11.3674 12.1152 11.5242L11.1661 12.4733V11.4029C11.1661 11.1744 10.9807 10.989 10.7522 10.989C10.5234 10.989 10.3382 11.1744 10.3382 11.4029V12.4733L9.38908 11.5242C9.22658 11.3674 8.96848 11.3696 8.80881 11.5293C8.64914 11.6889 8.64671 11.947 8.80376 12.1095L9.75289 13.0587H8.68249C8.45369 13.0587 8.26855 13.244 8.26855 13.4726C8.26855 13.7012 8.45369 13.8865 8.68249 13.8865H9.75289L8.80376 14.8357C8.69603 14.9396 8.65298 15.0936 8.69077 15.2383C8.72877 15.383 8.84176 15.496 8.98647 15.5338C9.13118 15.5718 9.28499 15.5285 9.38908 15.421L10.3382 14.4719V15.5423C10.3382 15.7709 10.5234 15.9562 10.7522 15.9562C10.9807 15.9562 11.1661 15.7709 11.1661 15.5423V14.4719L12.1152 15.421C12.2775 15.5778 12.5358 15.5756 12.6955 15.4159C12.8552 15.2563 12.8574 14.9982 12.7005 14.8357Z" fill="#B7F9FE"/>
</g>
<defs>
<clipPath id="clip0">
<rect width="24" height="24" fill="white"/>
</clipPath>
</defs>
</svg>
