<svg width="24" height="24" viewBox="0 0 24 24" fill="none" xmlns="http://www.w3.org/2000/svg">
<g clip-path="url(#clip0)">
<path d="M20.3303 9.76271C20.3303 13.1325 17.5985 15.8644 14.2286 15.8644C10.8586 15.8644 8.12695 13.1325 8.12695 9.76271C8.12695 6.39287 10.8586 3.66101 14.2286 3.66101C17.5985 3.66101 20.3303 6.39287 20.3303 9.76271Z" fill="#FDD020"/>
<path d="M14.229 2.44068C14.0042 2.44068 13.8223 2.25854 13.8223 2.0339V0.40678C13.8223 0.182137 14.0042 0 14.229 0C14.4537 0 14.6358 0.182137 14.6358 0.40678V2.0339C14.6358 2.25854 14.4537 2.44068 14.229 2.44068Z" fill="#FDD020"/>
<path d="M23.5847 10.1695H21.9576C21.7327 10.1695 21.5508 9.98735 21.5508 9.76271C21.5508 9.53806 21.7327 9.35593 21.9576 9.35593H23.5847C23.8093 9.35593 23.9915 9.53806 23.9915 9.76271C23.9915 9.98735 23.8093 10.1695 23.5847 10.1695Z" fill="#FDD020"/>
<path d="M19.1094 15.0508C18.8119 15.0508 18.5149 15.0806 18.2233 15.1394C18.0035 14.042 17.2926 13.1059 16.2945 12.5992C15.2966 12.0925 14.1214 12.0712 13.1056 12.5414C12.1864 10.0093 9.38859 8.70201 6.85654 9.62123C4.3245 10.5407 3.01716 13.3385 3.93639 15.8705C1.71837 15.9406 -0.0336832 17.7763 -0.000513268 19.9953C0.0328554 22.2141 1.83933 23.9964 4.05854 23.9999H19.1094C21.5805 23.9999 23.584 21.9966 23.584 19.5254C23.584 17.0541 21.5805 15.0508 19.1094 15.0508Z" fill="#A3D4F7"/>
<path d="M8.53337 4.06782L6.90625 2.4407L8.53337 4.06782Z" fill="#FDD020"/>
<path d="M8.53508 4.47462C8.42703 4.47462 8.32375 4.43172 8.24748 4.35545L6.62036 2.72832C6.51449 2.62623 6.47218 2.47488 6.50933 2.33267C6.54667 2.19045 6.6577 2.07942 6.79991 2.04228C6.94213 2.00494 7.09328 2.04744 7.19557 2.15311L8.82269 3.78023C8.93889 3.89663 8.97364 4.07161 8.91068 4.22356C8.84772 4.37551 8.69954 4.47462 8.53508 4.47462Z" fill="#FDD020"/>
<path d="M19.9238 4.06782L21.5509 2.4407L19.9238 4.06782Z" fill="#FDD020"/>
<path d="M19.9234 4.47462C19.7587 4.47462 19.6106 4.37551 19.5476 4.22356C19.4846 4.07161 19.5194 3.89663 19.6358 3.78023L21.2629 2.15311C21.365 2.04744 21.5161 2.00494 21.6583 2.04228C21.8006 2.07942 21.9118 2.19045 21.9489 2.33267C21.9861 2.47488 21.9438 2.62623 21.8381 2.72832L20.211 4.35545C20.1347 4.43172 20.0312 4.47462 19.9234 4.47462Z" fill="#FDD020"/>
</g>
<defs>
<clipPath id="clip0">
<rect width="24" height="24" fill="white"/>
</clipPath>
</defs>
</svg>
