<svg width="24" height="24" viewBox="0 0 24 24" fill="none" xmlns="http://www.w3.org/2000/svg">
<path d="M11.9995 24C11.7345 24 11.5195 23.7851 11.5195 23.52V14.88C11.5195 14.6149 11.7345 14.4 11.9995 14.4C12.2646 14.4 12.4795 14.6149 12.4795 14.88V23.52C12.4795 23.7851 12.2646 24 11.9995 24Z" fill="#A3D4F7"/>
<path d="M13.9205 23.04C13.7933 23.04 13.6712 22.9894 13.5812 22.8994L12.0005 21.3188L10.4199 22.8994C10.2315 23.0813 9.93219 23.0787 9.74703 22.8935C9.56187 22.7084 9.5593 22.4091 9.74117 22.2206L11.6612 20.3006C11.8487 20.1134 12.1524 20.1134 12.3399 20.3006L14.2599 22.2206C14.397 22.358 14.4383 22.5645 14.364 22.7438C14.2897 22.9231 14.1146 23.04 13.9205 23.04Z" fill="#A3D4F7"/>
<path d="M11.9995 9.6C11.7345 9.6 11.5195 9.38508 11.5195 9.12V0.48C11.5195 0.214922 11.7345 0 11.9995 0C12.2646 0 12.4795 0.214922 12.4795 0.48V9.12C12.4795 9.38508 12.2646 9.6 11.9995 9.6Z" fill="#A3D4F7"/>
<path d="M12.0005 3.83995C11.8733 3.83995 11.7512 3.78932 11.6612 3.69932L9.74117 1.77933C9.5593 1.59089 9.56187 1.29159 9.74703 1.10644C9.93219 0.921279 10.2315 0.918701 10.4199 1.10058L12.0005 2.6812L13.5812 1.10058C13.7696 0.918701 14.0689 0.921279 14.2541 1.10644C14.4392 1.29159 14.4418 1.59089 14.2599 1.77933L12.3399 3.69932C12.2499 3.78932 12.1278 3.83995 12.0005 3.83995Z" fill="#A3D4F7"/>
<path d="M23.5204 12.48H14.8804C14.6153 12.48 14.4004 12.2651 14.4004 12C14.4004 11.7349 14.6153 11.52 14.8804 11.52H23.5204C23.7855 11.52 24.0004 11.7349 24.0004 12C24.0004 12.2651 23.7855 12.48 23.5204 12.48Z" fill="#A3D4F7"/>
<path d="M22.559 14.3999C22.4318 14.3999 22.3096 14.3493 22.2196 14.2593L20.2996 12.3393C20.1124 12.1518 20.1124 11.8481 20.2996 11.6606L22.2196 9.74056C22.4081 9.55869 22.7074 9.56126 22.8925 9.74642C23.0777 9.93158 23.0803 10.2309 22.8984 10.4193L21.3178 11.9999L22.8984 13.5806C23.0355 13.7179 23.0768 13.9244 23.0025 14.1037C22.9282 14.283 22.7531 14.3999 22.559 14.3999Z" fill="#A3D4F7"/>
<path d="M9.12 12.48H0.48C0.214922 12.48 0 12.2651 0 12C0 11.7349 0.214922 11.52 0.48 11.52H9.12C9.38508 11.52 9.6 11.7349 9.6 12C9.6 12.2651 9.38508 12.48 9.12 12.48Z" fill="#A3D4F7"/>
<path d="M1.44089 14.3999C1.24682 14.3999 1.07175 14.283 0.99745 14.1037C0.923153 13.9244 0.964403 13.7179 1.10151 13.5806L2.68214 11.9999L1.10151 10.4193C0.919638 10.2309 0.922216 9.93158 1.10737 9.74642C1.29253 9.56126 1.59182 9.55869 1.78026 9.74056L3.70026 11.6606C3.88752 11.8481 3.88752 12.1518 3.70026 12.3393L1.78026 14.2593C1.69026 14.3493 1.56815 14.3999 1.44089 14.3999Z" fill="#A3D4F7"/>
<path d="M21.5998 21.6L17.7598 20.64L16.7998 16.8L20.6398 17.76L21.5998 21.6Z" fill="#B7F9FE"/>
<path d="M21.6003 22.0801C21.5612 22.0801 21.522 22.0752 21.4841 22.0658L17.6441 21.1058C17.4723 21.0629 17.3377 20.9286 17.2946 20.7568L16.3346 16.9168C16.2938 16.7532 16.3416 16.5803 16.4607 16.461C16.58 16.3417 16.753 16.2936 16.9166 16.3344L20.7566 17.2944C20.9284 17.3373 21.0629 17.4716 21.106 17.6434L22.066 21.4834C22.1019 21.6268 22.0698 21.7789 21.9788 21.8954C21.8877 22.0119 21.7482 22.0801 21.6003 22.0801ZM18.1559 20.244L20.9398 20.9401L20.2438 18.1562L17.4598 17.4601L18.1559 20.244Z" fill="#A3D4F7"/>
<path d="M16.8004 17.2799C16.6731 17.2799 16.551 17.2293 16.461 17.1393L13.581 14.2593C13.3991 14.0709 13.4017 13.7716 13.5869 13.5864C13.772 13.4013 14.0713 13.3987 14.2598 13.5806L17.1398 16.4606C17.2769 16.5979 17.3181 16.8044 17.2438 16.9837C17.1695 17.163 16.9945 17.2799 16.8004 17.2799Z" fill="#A3D4F7"/>
<path d="M14.881 19.2C14.7418 19.2002 14.6091 19.1398 14.518 19.0345C14.4266 18.9293 14.3855 18.7896 14.4052 18.6518L14.8852 15.2918C14.9155 15.0808 15.0814 14.9151 15.2923 14.8847L18.6523 14.4047C18.9148 14.3672 19.1581 14.5493 19.1956 14.8118C19.2333 15.0743 19.0512 15.3176 18.7887 15.3553L15.7848 15.7842L15.3556 18.7882C15.3219 19.0245 15.1196 19.1998 14.881 19.2Z" fill="#A3D4F7"/>
<path d="M2.40039 21.6L6.24038 20.64L7.20038 16.8L3.36039 17.76L2.40039 21.6Z" fill="#B7F9FE"/>
<path d="M2.39901 22.0801C2.25112 22.0801 2.11167 22.0119 2.02049 21.8954C1.92956 21.7789 1.89745 21.6268 1.93331 21.4834L2.89331 17.6434C2.93643 17.4716 3.07096 17.3373 3.24276 17.2944L7.08276 16.3344C7.24635 16.2936 7.41932 16.3417 7.53862 16.461C7.65768 16.5803 7.70549 16.7532 7.66471 16.9168L6.70471 20.7568C6.66159 20.9286 6.52706 21.0629 6.35526 21.1058L2.51526 22.0658C2.47729 22.0752 2.43815 22.0801 2.39901 22.0801ZM3.75463 18.1562L3.05854 20.9401L5.84245 20.244L6.53854 17.4601L3.75463 18.1562Z" fill="#A3D4F7"/>
<path d="M7.20065 17.2799C7.00659 17.2799 6.83151 17.163 6.75722 16.9837C6.68292 16.8044 6.72417 16.5979 6.86128 16.4606L9.74127 13.5806C9.92971 13.3987 10.229 13.4013 10.4142 13.5864C10.5993 13.7716 10.6019 14.0709 10.42 14.2593L7.54003 17.1393C7.45003 17.2293 7.32792 17.2799 7.20065 17.2799Z" fill="#A3D4F7"/>
<path d="M9.11936 19.2C8.88077 19.1998 8.6785 19.0245 8.64475 18.7882L8.21561 15.7842L5.21163 15.3553C4.94913 15.3176 4.76702 15.0743 4.80475 14.8118C4.84225 14.5493 5.08554 14.3672 5.34804 14.4047L8.70803 14.8847C8.91897 14.9151 9.08491 15.0808 9.11514 15.2918L9.59514 18.6518C9.61483 18.7896 9.57382 18.9293 9.48241 19.0345C9.39124 19.1398 9.25858 19.2002 9.11936 19.2Z" fill="#A3D4F7"/>
<path d="M21.5998 2.39999L17.7598 3.35999L16.7998 7.19999L20.6398 6.23999L21.5998 2.39999Z" fill="#B7F9FE"/>
<path d="M16.7994 7.68006C16.6515 7.68006 16.5121 7.61186 16.4209 7.49538C16.3299 7.37889 16.2978 7.22678 16.3337 7.08334L17.2937 3.24335C17.3368 3.07155 17.4714 2.93726 17.6432 2.89437L21.4832 1.93437C21.6467 1.89359 21.8197 1.94163 21.939 2.06093C22.0581 2.18023 22.1059 2.35319 22.0651 2.51679L21.1051 6.35678C21.062 6.52858 20.9274 6.66288 20.7557 6.70577L16.9157 7.66577C16.8777 7.67514 16.8385 7.68006 16.7994 7.68006ZM18.155 3.75616L17.4589 6.54006L20.2428 5.84397L20.9389 3.06007L18.155 3.75616Z" fill="#A3D4F7"/>
<path d="M13.9204 10.5599C13.7263 10.5599 13.5512 10.443 13.4769 10.2637C13.4026 10.0844 13.4439 9.87792 13.581 9.74058L16.461 6.86059C16.6495 6.67871 16.9488 6.68129 17.1339 6.86644C17.3191 7.0516 17.3216 7.3509 17.1398 7.53933L14.2598 10.4193C14.1698 10.5093 14.0476 10.5599 13.9204 10.5599Z" fill="#A3D4F7"/>
<path d="M18.7201 9.59999C18.6971 9.59999 18.6741 9.59835 18.6514 9.5953L15.2914 9.1153C15.0805 9.08483 14.9145 8.91913 14.8843 8.70819L14.4043 5.34818C14.3668 5.08568 14.5489 4.8424 14.8114 4.80467C15.0739 4.76717 15.3172 4.94928 15.3547 5.21178L15.7838 8.21577L18.7878 8.64467C19.0372 8.6803 19.2167 8.90272 19.1989 9.15397C19.1811 9.40522 18.972 9.59999 18.7201 9.59999Z" fill="#A3D4F7"/>
<path d="M2.40039 2.39999L6.24038 3.35999L7.20038 7.19999L3.36039 6.23999L2.40039 2.39999Z" fill="#B7F9FE"/>
<path d="M7.19992 7.68006C7.16078 7.68006 7.12164 7.67514 7.08367 7.66577L3.24367 6.70577C3.07188 6.66288 2.93734 6.52858 2.89422 6.35678L1.93422 2.51679C1.89344 2.35319 1.94125 2.18023 2.06031 2.06093C2.17961 1.94163 2.35258 1.89359 2.51617 1.93437L6.35617 2.89437C6.52797 2.93726 6.6625 3.07155 6.70563 3.24335L7.66563 7.08334C7.70149 7.22678 7.66938 7.37889 7.57844 7.49538C7.48727 7.61186 7.34781 7.68006 7.19992 7.68006ZM3.75555 5.84397L6.53945 6.54006L5.84336 3.75616L3.05945 3.06007L3.75555 5.84397Z" fill="#A3D4F7"/>
<path d="M10.0807 10.5599C9.95339 10.5599 9.83128 10.5093 9.74128 10.4193L6.86129 7.53933C6.67941 7.3509 6.68199 7.0516 6.86715 6.86644C7.0523 6.68129 7.3516 6.67871 7.54004 6.86059L10.42 9.74058C10.5571 9.87792 10.5984 10.0844 10.5241 10.2637C10.4498 10.443 10.2747 10.5599 10.0807 10.5599Z" fill="#A3D4F7"/>
<path d="M5.27887 9.59999C5.02692 9.59999 4.81786 9.40522 4.80005 9.15397C4.78223 8.90272 4.96176 8.6803 5.21114 8.64467L8.21512 8.21577L8.64426 5.21178C8.68176 4.94928 8.92504 4.76717 9.18754 4.80467C9.45004 4.8424 9.63215 5.08568 9.59465 5.34818L9.11465 8.70819C9.08441 8.91913 8.91848 9.08483 8.70754 9.1153L5.34755 9.5953C5.32481 9.59835 5.30184 9.59999 5.27887 9.59999Z" fill="#A3D4F7"/>
<path d="M14.8801 12C14.8801 13.5905 13.5906 14.88 12.0001 14.88C10.4096 14.88 9.12012 13.5905 9.12012 12C9.12012 10.4095 10.4096 9.12 12.0001 9.12C13.5906 9.12 14.8801 10.4095 14.8801 12Z" fill="#B7F9FE"/>
<path d="M11.9996 15.36C10.1439 15.36 8.63965 13.8558 8.63965 12C8.63965 10.1442 10.1439 8.64001 11.9996 8.64001C13.8554 8.64001 15.3596 10.1442 15.3596 12C15.3575 13.8549 13.8545 15.3579 11.9996 15.36ZM11.9996 9.60001C10.6743 9.60001 9.59965 10.6746 9.59965 12C9.59965 13.3254 10.6743 14.4 11.9996 14.4C13.325 14.4 14.3996 13.3254 14.3996 12C14.398 10.6751 13.3246 9.60166 11.9996 9.60001Z" fill="#A3D4F7"/>
</svg>
