<svg width="24" height="24" viewBox="0 0 24 24" fill="none" xmlns="http://www.w3.org/2000/svg">
<path d="M18.8002 12C18.8002 15.7555 15.7557 18.8 12.0002 18.8C8.24473 18.8 5.2002 15.7555 5.2002 12C5.2002 8.24454 8.24473 5.20001 12.0002 5.20001C15.7557 5.20001 18.8002 8.24454 18.8002 12Z" fill="#FDD020"/>
<path d="M11.9996 24C11.7787 24 11.5996 23.8209 11.5996 23.6V20.4C11.5996 20.1791 11.7787 20 11.9996 20C12.2205 20 12.3996 20.1791 12.3996 20.4V23.6C12.3996 23.8209 12.2205 24 11.9996 24Z" fill="#FDD020"/>
<path d="M11.9996 4C11.7787 4 11.5996 3.8209 11.5996 3.6V0.4C11.5996 0.179102 11.7787 0 11.9996 0C12.2205 0 12.3996 0.179102 12.3996 0.4V3.6C12.3996 3.8209 12.2205 4 11.9996 4Z" fill="#FDD020"/>
<path d="M5.99961 6.00001L3.59961 3.60001L5.99961 6.00001Z" fill="#FDD020"/>
<path d="M6.00016 6.39994C5.89411 6.39994 5.79235 6.35776 5.71735 6.28276L3.31735 3.88276C3.16579 3.72573 3.16794 3.47631 3.32223 3.32202C3.47653 3.16772 3.72594 3.16557 3.88297 3.31714L6.28298 5.71713C6.39724 5.83159 6.43161 6.00366 6.3697 6.15307C6.30778 6.30248 6.16188 6.39994 6.00016 6.39994Z" fill="#FDD020"/>
<path d="M20.4 20.4L18 18L20.4 20.4Z" fill="#FDD020"/>
<path d="M20.4006 20.7999C20.2945 20.7999 20.1928 20.7578 20.1178 20.6828L17.7177 18.2828C17.5662 18.1257 17.5683 17.8763 17.7226 17.722C17.8769 17.5677 18.1263 17.5656 18.2834 17.7171L20.6834 20.1171C20.7976 20.2316 20.832 20.4036 20.7701 20.5531C20.7082 20.7025 20.5623 20.7999 20.4006 20.7999Z" fill="#FDD020"/>
<path d="M18 6.00001L20.4 3.60001L18 6.00001Z" fill="#FDD020"/>
<path d="M18.0005 6.39994C17.8388 6.39994 17.6929 6.30248 17.631 6.15307C17.5691 6.00366 17.6035 5.83159 17.7177 5.71713L20.1177 3.31714C20.2748 3.16557 20.5242 3.16772 20.6785 3.32202C20.8328 3.47631 20.8349 3.72573 20.6833 3.88276L18.2834 6.28276C18.2084 6.35776 18.1066 6.39994 18.0005 6.39994Z" fill="#FDD020"/>
<path d="M23.6 12.4H20.4C20.1791 12.4 20 12.2209 20 12C20 11.7791 20.1791 11.6 20.4 11.6H23.6C23.8209 11.6 24 11.7791 24 12C24 12.2209 23.8209 12.4 23.6 12.4Z" fill="#FDD020"/>
<path d="M3.6 12.4H0.4C0.179102 12.4 0 12.2209 0 12C0 11.7791 0.179102 11.6 0.4 11.6H3.6C3.8209 11.6 4 11.7791 4 12C4 12.2209 3.8209 12.4 3.6 12.4Z" fill="#FDD020"/>
<path d="M3.59961 20.4L5.99961 18L3.59961 20.4Z" fill="#FDD020"/>
<path d="M3.60113 20.7999C3.43941 20.7999 3.29351 20.7025 3.2316 20.5531C3.16968 20.4036 3.20406 20.2316 3.31832 20.1171L5.71831 17.7171C5.87535 17.5656 6.12476 17.5677 6.27906 17.722C6.43335 17.8763 6.4355 18.1257 6.28394 18.2828L3.88394 20.6828C3.80894 20.7578 3.70718 20.7999 3.60113 20.7999Z" fill="#FDD020"/>
</svg>
