<svg width="24" height="24" viewBox="0 0 24 24" fill="none" xmlns="http://www.w3.org/2000/svg">
<g clip-path="url(#clip0)">
<path d="M19.4458 10.3679C19.1431 10.3679 18.8409 10.398 18.5442 10.458C18.3204 9.34129 17.597 8.3887 16.5814 7.8731C15.5659 7.35749 14.37 7.33586 13.3364 7.81428C12.4009 5.23766 9.55389 3.90731 6.97727 4.84272C4.40065 5.77813 3.0703 8.62539 4.00571 11.2018C1.74864 11.2732 -0.0342591 13.1413 -0.000505111 15.3992C0.033451 17.6573 1.87173 19.4709 4.13001 19.4746H19.4458C21.9604 19.4746 23.9992 17.436 23.9992 14.9212C23.9992 12.4064 21.9604 10.3679 19.4458 10.3679Z" fill="#A3D4F7"/>
</g>
<defs>
<clipPath id="clip0">
<rect width="24" height="24" fill="white"/>
</clipPath>
</defs>
</svg>
