<svg width="24" height="24" viewBox="0 0 24 24" fill="none" xmlns="http://www.w3.org/2000/svg">
<g clip-path="url(#clip0)">
<path d="M19.0315 17.4049H19.4455C21.1808 17.4051 22.7654 16.4188 23.5314 14.8615C24.2974 13.3044 24.1117 11.4472 23.0526 10.0726C21.9933 8.69779 20.2448 8.04476 18.5438 8.38856C18.3201 7.27187 17.5967 6.3193 16.5811 5.8037C15.5656 5.2881 14.3697 5.26648 13.3361 5.74488C12.4007 3.16831 9.55371 1.83798 6.97714 2.77338C4.40057 3.70897 3.07024 6.55597 4.00563 9.13255C1.7486 9.20369 -0.0342584 11.0718 -0.00050512 13.3297C0.0334503 15.5877 1.87169 17.4013 4.12993 17.4049" fill="#A3D4F7"/>
<path d="M16.5493 19.0608H12.41C12.1812 19.0608 11.9961 18.8754 11.9961 18.6468C11.9961 18.4183 12.1812 18.2329 12.41 18.2329H16.5493C16.7779 18.2329 16.9633 18.4183 16.9633 18.6468C16.9633 18.8754 16.7779 19.0608 16.5493 19.0608Z" fill="#92AEBA"/>
<path d="M8.27032 19.0608H4.95886C4.73006 19.0608 4.54492 18.8754 4.54492 18.6468C4.54492 18.4183 4.73006 18.2329 4.95886 18.2329H8.27032C8.49891 18.2329 8.68425 18.4183 8.68425 18.6468C8.68425 18.8754 8.49891 19.0608 8.27032 19.0608Z" fill="#92AEBA"/>
<path d="M10.7555 19.0608H9.9276C9.69881 19.0608 9.51367 18.8754 9.51367 18.6468C9.51367 18.4183 9.69881 18.2329 9.9276 18.2329H10.7555C10.9841 18.2329 11.1694 18.4183 11.1694 18.6468C11.1694 18.8754 10.9841 19.0608 10.7555 19.0608Z" fill="#92AEBA"/>
<path d="M11.5823 21.5443H6.61511C6.38631 21.5443 6.20117 21.3589 6.20117 21.1303C6.20117 20.9017 6.38631 20.7164 6.61511 20.7164H11.5823C11.8109 20.7164 11.9962 20.9017 11.9962 21.1303C11.9962 21.3589 11.8109 21.5443 11.5823 21.5443Z" fill="#92AEBA"/>
<path d="M18.2035 21.5443H16.5477C16.3189 21.5443 16.1338 21.3589 16.1338 21.1303C16.1338 20.9017 16.3189 20.7164 16.5477 20.7164H18.2035C18.4321 20.7164 18.6174 20.9017 18.6174 21.1303C18.6174 21.3589 18.4321 21.5443 18.2035 21.5443Z" fill="#92AEBA"/>
<path d="M14.8919 21.5443H13.2362C13.0074 21.5443 12.8223 21.3589 12.8223 21.1303C12.8223 20.9017 13.0074 20.7164 13.2362 20.7164H14.8919C15.1205 20.7164 15.3058 20.9017 15.3058 21.1303C15.3058 21.3589 15.1205 21.5443 14.8919 21.5443Z" fill="#92AEBA"/>
<path d="M16.5493 14.0935H12.41C12.1812 14.0935 11.9961 13.9081 11.9961 13.6795C11.9961 13.4509 12.1812 13.2656 12.41 13.2656H16.5493C16.7779 13.2656 16.9633 13.4509 16.9633 13.6795C16.9633 13.9081 16.7779 14.0935 16.5493 14.0935Z" fill="#92AEBA"/>
<path d="M8.27032 14.0935H4.95886C4.73006 14.0935 4.54492 13.9081 4.54492 13.6795C4.54492 13.4509 4.73006 13.2656 4.95886 13.2656H8.27032C8.49891 13.2656 8.68425 13.4509 8.68425 13.6795C8.68425 13.9081 8.49891 14.0935 8.27032 14.0935Z" fill="#92AEBA"/>
<path d="M10.7555 14.0935H9.9276C9.69881 14.0935 9.51367 13.9081 9.51367 13.6795C9.51367 13.4509 9.69881 13.2656 9.9276 13.2656H10.7555C10.9841 13.2656 11.1694 13.4509 11.1694 13.6795C11.1694 13.9081 10.9841 14.0935 10.7555 14.0935Z" fill="#92AEBA"/>
<path d="M11.5823 16.577H6.61511C6.38631 16.577 6.20117 16.3916 6.20117 16.163C6.20117 15.9345 6.38631 15.7491 6.61511 15.7491H11.5823C11.8109 15.7491 11.9962 15.9345 11.9962 16.163C11.9962 16.3916 11.8109 16.577 11.5823 16.577Z" fill="#92AEBA"/>
<path d="M18.2035 16.577H16.5477C16.3189 16.577 16.1338 16.3916 16.1338 16.163C16.1338 15.9345 16.3189 15.7491 16.5477 15.7491H18.2035C18.4321 15.7491 18.6174 15.9345 18.6174 16.163C18.6174 16.3916 18.4321 16.577 18.2035 16.577Z" fill="#92AEBA"/>
<path d="M14.8919 16.577H13.2362C13.0074 16.577 12.8223 16.3916 12.8223 16.163C12.8223 15.9345 13.0074 15.7491 13.2362 15.7491H14.8919C15.1205 15.7491 15.3058 15.9345 15.3058 16.163C15.3058 16.3916 15.1205 16.577 14.8919 16.577Z" fill="#92AEBA"/>
</g>
<defs>
<clipPath id="clip0">
<rect width="24" height="24" fill="white"/>
</clipPath>
</defs>
</svg>
