<svg width="24" height="24" viewBox="0 0 24 24" fill="none" xmlns="http://www.w3.org/2000/svg">
<g clip-path="url(#clip0)">
<path d="M19.0315 17.405H19.4455C21.1808 17.4052 22.7654 16.4189 23.5314 14.8616C24.2974 13.3045 24.1117 11.4472 23.0526 10.0726C21.9933 8.69786 20.2448 8.04482 18.5438 8.38862C18.3201 7.27193 17.5967 6.31936 16.5811 5.80376C15.5656 5.28816 14.3697 5.26654 13.3361 5.74494C12.4007 3.16837 9.55371 1.83805 6.97714 2.77344C4.40057 3.70903 3.07024 6.55604 4.00563 9.13261C1.7486 9.20375 -0.0342584 11.0719 -0.00050512 13.3297C0.0334503 15.5878 1.87169 17.4014 4.12993 17.405" fill="#D0DAD9"/>
<path d="M17.375 19.0608C17.375 19.9751 16.6336 20.7165 15.7192 20.7165C14.8046 20.7165 14.0635 19.9751 14.0635 19.0608C14.0635 17.819 15.7192 14.9214 15.7192 14.9214C15.7192 14.9214 17.375 17.819 17.375 19.0608Z" fill="#60A2D7"/>
<path d="M13.2402 14.9214C13.2402 15.8357 12.4988 16.5771 11.5844 16.5771C10.6699 16.5771 9.92871 15.8357 9.92871 14.9214C9.92871 13.6796 11.5844 10.782 11.5844 10.782C11.5844 10.782 13.2402 13.6796 13.2402 14.9214Z" fill="#60A2D7"/>
<path d="M9.09759 19.8886C9.09759 20.803 8.35623 21.5443 7.44186 21.5443C6.52729 21.5443 5.78613 20.803 5.78613 19.8886C5.78613 18.6468 7.44186 15.7493 7.44186 15.7493C7.44186 15.7493 9.09759 18.6468 9.09759 19.8886Z" fill="#60A2D7"/>
</g>
<defs>
<clipPath id="clip0">
<rect width="24" height="24" fill="white"/>
</clipPath>
</defs>
</svg>
