<svg width="24" height="24" viewBox="0 0 24 24" fill="none" xmlns="http://www.w3.org/2000/svg">
<g clip-path="url(#clip0)">
<path d="M19.4458 8.29819C19.1431 8.29819 18.8409 8.3283 18.5442 8.38833C18.3204 7.27162 17.597 6.31903 16.5814 5.80343C15.5659 5.28782 14.37 5.26619 13.3364 5.74461C12.4009 3.16799 9.55389 1.83764 6.97727 2.77305C4.40065 3.70846 3.0703 6.55572 4.00571 9.13213C1.74864 9.20348 -0.0342591 11.0717 -0.000505111 13.3296C0.033451 15.5876 1.87173 17.4013 4.13001 17.4049H19.4458C21.9604 17.4049 23.9992 15.3663 23.9992 12.8515C23.9992 10.3368 21.9604 8.29819 19.4458 8.29819Z" fill="#60A2D7"/>
<path d="M19.4458 12.4377C19.1431 12.4377 18.8409 12.4678 18.5442 12.5278C18.3204 11.4111 17.597 10.4585 16.5814 9.94289C15.5659 9.42728 14.37 9.40566 13.3364 9.88407C12.4009 7.30745 9.55389 5.9771 6.97727 6.91251C4.40065 7.84792 3.0703 10.6952 4.00571 13.2716C1.74864 13.3429 -0.0342591 15.2111 -0.000505111 17.469C0.033451 19.7271 1.87173 21.5407 4.13001 21.5443H19.4458C21.9604 21.5443 23.9992 19.5058 23.9992 16.991C23.9992 14.4762 21.9604 12.4377 19.4458 12.4377Z" fill="#A3D4F7"/>
</g>
<defs>
<clipPath id="clip0">
<rect width="24" height="24" fill="white"/>
</clipPath>
</defs>
</svg>
