<svg width="24" height="24" viewBox="0 0 24 24" fill="none" xmlns="http://www.w3.org/2000/svg">
<g clip-path="url(#clip0)">
<path d="M19.0315 17.4049H19.4455C21.1808 17.4051 22.7654 16.4188 23.5314 14.8615C24.2974 13.3044 24.1117 11.4472 23.0526 10.0726C21.9933 8.69779 20.2448 8.04476 18.5438 8.38856C18.3201 7.27187 17.5967 6.3193 16.5811 5.8037C15.5656 5.2881 14.3697 5.26648 13.3361 5.74488C12.4007 3.16831 9.55371 1.83798 6.97714 2.77338C4.40057 3.70897 3.07024 6.55597 4.00563 9.13255C1.7486 9.20369 -0.0342584 11.0718 -0.00050512 13.3297C0.0334503 15.5877 1.87169 17.4013 4.12993 17.4049" fill="#A3D4F7"/>
<path d="M13.6513 19.8885C13.6513 20.8029 12.9099 21.5442 11.9956 21.5442C11.081 21.5442 10.3398 20.8029 10.3398 19.8885C10.3398 18.9741 11.081 18.2328 11.9956 18.2328C12.9099 18.2328 13.6513 18.9741 13.6513 19.8885Z" fill="#B7F9FE"/>
<path d="M12.8212 14.9213C12.8212 15.8357 12.0799 16.5771 11.1655 16.5771C10.2509 16.5771 9.50977 15.8357 9.50977 14.9213C9.50977 14.007 10.2509 13.2656 11.1655 13.2656C12.0799 13.2656 12.8212 14.007 12.8212 14.9213Z" fill="#B7F9FE"/>
<path d="M9.09649 17.8189H8.43982L8.97522 17.2837C9.13206 17.1212 9.12984 16.8631 8.97017 16.7034C8.8105 16.5438 8.55219 16.5415 8.38989 16.6984L7.85469 17.2336V16.5771C7.85469 16.3485 7.66935 16.1632 7.44076 16.1632C7.21196 16.1632 7.02683 16.3485 7.02683 16.5771V17.2336L6.49162 16.6984C6.32912 16.5415 6.07102 16.5438 5.91135 16.7034C5.75168 16.8631 5.74925 17.1212 5.9063 17.2837L6.4415 17.8189H5.78503C5.55623 17.8189 5.37109 18.0042 5.37109 18.2328C5.37109 18.4614 5.55623 18.6468 5.78503 18.6468H6.4415L5.9063 19.182C5.79857 19.2859 5.75552 19.4399 5.79331 19.5846C5.83131 19.7293 5.94429 19.8423 6.08901 19.8801C6.23372 19.9181 6.38753 19.8748 6.49162 19.7673L7.02683 19.2321V19.8886C7.02683 20.1172 7.21196 20.3025 7.44076 20.3025C7.66935 20.3025 7.85469 20.1172 7.85469 19.8886V19.2321L8.38989 19.7673C8.55219 19.9241 8.8105 19.9219 8.97017 19.7622C9.12984 19.6026 9.13206 19.3445 8.97522 19.182L8.43982 18.6468H9.09649C9.32508 18.6468 9.51042 18.4614 9.51042 18.2328C9.51042 18.0042 9.32508 17.8189 9.09649 17.8189Z" fill="#B7F9FE"/>
<path d="M17.3738 16.1631H16.7172L17.2526 15.6279C17.4094 15.4654 17.4072 15.2073 17.2475 15.0476C17.0879 14.8879 16.8295 14.8857 16.6672 15.0426L16.132 15.5778V14.9213C16.132 14.6927 15.9467 14.5074 15.7181 14.5074C15.4893 14.5074 15.3042 14.6927 15.3042 14.9213V15.5778L14.769 15.0426C14.6065 14.8857 14.3484 14.8879 14.1887 15.0476C14.029 15.2073 14.0266 15.4654 14.1836 15.6279L14.7188 16.1631H14.0624C13.8336 16.1631 13.6484 16.3484 13.6484 16.577C13.6484 16.8056 13.8336 16.991 14.0624 16.991H14.7188L14.1836 17.5262C14.0759 17.6301 14.0329 17.7841 14.0707 17.9288C14.1087 18.0735 14.2216 18.1865 14.3664 18.2243C14.5111 18.2623 14.6649 18.219 14.769 18.1115L15.3042 17.5763V18.2328C15.3042 18.4614 15.4893 18.6467 15.7181 18.6467C15.9467 18.6467 16.132 18.4614 16.132 18.2328V17.5763L16.6672 18.1115C16.8295 18.2683 17.0879 18.2661 17.2475 18.1064C17.4072 17.9468 17.4094 17.6887 17.2526 17.5262L16.7172 16.991H17.3738C17.6024 16.991 17.7878 16.8056 17.7878 16.577C17.7878 16.3484 17.6024 16.1631 17.3738 16.1631Z" fill="#B7F9FE"/>
</g>
<defs>
<clipPath id="clip0">
<rect width="24" height="24" fill="white"/>
</clipPath>
</defs>
</svg>
