<svg width="24" height="24" viewBox="0 0 24 24" fill="none" xmlns="http://www.w3.org/2000/svg">
<g clip-path="url(#clip0)">
<path d="M19.0315 17.4049H19.4455C21.1808 17.4051 22.7654 16.4188 23.5314 14.8615C24.2974 13.3044 24.1117 11.4472 23.0526 10.0726C21.9933 8.69779 20.2448 8.04476 18.5438 8.38856C18.3201 7.27187 17.5967 6.3193 16.5811 5.8037C15.5656 5.2881 14.3697 5.26648 13.3361 5.74488C12.4007 3.16831 9.55371 1.83798 6.97714 2.77338C4.40057 3.70897 3.07024 6.55597 4.00563 9.13255C1.7486 9.20369 -0.0342584 11.0718 -0.00050512 13.3297C0.0334503 15.5877 1.87169 17.4013 4.12993 17.4049" fill="#A3D4F7"/>
<path d="M16.5493 20.0608H12.41C12.1812 20.0608 11.9961 19.8754 11.9961 19.6468C11.9961 19.4183 12.1812 19.2329 12.41 19.2329H16.5493C16.7779 19.2329 16.9633 19.4183 16.9633 19.6468C16.9633 19.8754 16.7779 20.0608 16.5493 20.0608Z" fill="#92AEBA"/>
<path d="M8.27227 20.0608H4.96081C4.73201 20.0608 4.54688 19.8754 4.54688 19.6468C4.54688 19.4183 4.73201 19.2329 4.96081 19.2329H8.27227C8.50087 19.2329 8.68621 19.4183 8.68621 19.6468C8.68621 19.8754 8.50087 20.0608 8.27227 20.0608Z" fill="#92AEBA"/>
<path d="M10.7574 20.0608H9.92956C9.70076 20.0608 9.51562 19.8754 9.51562 19.6468C9.51562 19.4183 9.70076 19.2329 9.92956 19.2329H10.7574C10.986 19.2329 11.1713 19.4183 11.1713 19.6468C11.1713 19.8754 10.986 20.0608 10.7574 20.0608Z" fill="#92AEBA"/>
<path d="M11.5843 22.5443H6.61706C6.38826 22.5443 6.20312 22.359 6.20312 22.1304C6.20312 21.9018 6.38826 21.7164 6.61706 21.7164H11.5843C11.8129 21.7164 11.9982 21.9018 11.9982 22.1304C11.9982 22.359 11.8129 22.5443 11.5843 22.5443Z" fill="#92AEBA"/>
<path d="M18.2064 22.5443H16.5507C16.3219 22.5443 16.1367 22.359 16.1367 22.1304C16.1367 21.9018 16.3219 21.7164 16.5507 21.7164H18.2064C18.435 21.7164 18.6203 21.9018 18.6203 22.1304C18.6203 22.359 18.435 22.5443 18.2064 22.5443Z" fill="#92AEBA"/>
<path d="M14.8939 22.5443H13.2381C13.0094 22.5443 12.8242 22.359 12.8242 22.1304C12.8242 21.9018 13.0094 21.7164 13.2381 21.7164H14.8939C15.1224 21.7164 15.3078 21.9018 15.3078 22.1304C15.3078 22.359 15.1224 22.5443 14.8939 22.5443Z" fill="#92AEBA"/>
<path d="M16.5493 15.0935H12.41C12.1812 15.0935 11.9961 14.9082 11.9961 14.6796C11.9961 14.451 12.1812 14.2656 12.41 14.2656H16.5493C16.7779 14.2656 16.9633 14.451 16.9633 14.6796C16.9633 14.9082 16.7779 15.0935 16.5493 15.0935Z" fill="#92AEBA"/>
<path d="M8.27227 15.0935H4.96081C4.73201 15.0935 4.54688 14.9082 4.54688 14.6796C4.54688 14.451 4.73201 14.2656 4.96081 14.2656H8.27227C8.50087 14.2656 8.68621 14.451 8.68621 14.6796C8.68621 14.9082 8.50087 15.0935 8.27227 15.0935Z" fill="#92AEBA"/>
<path d="M10.7574 15.0935H9.92956C9.70076 15.0935 9.51562 14.9082 9.51562 14.6796C9.51562 14.451 9.70076 14.2656 9.92956 14.2656H10.7574C10.986 14.2656 11.1713 14.451 11.1713 14.6796C11.1713 14.9082 10.986 15.0935 10.7574 15.0935Z" fill="#92AEBA"/>
<path d="M11.5843 17.577H6.61706C6.38826 17.577 6.20312 17.3917 6.20312 17.1631C6.20312 16.9345 6.38826 16.7491 6.61706 16.7491H11.5843C11.8129 16.7491 11.9982 16.9345 11.9982 17.1631C11.9982 17.3917 11.8129 17.577 11.5843 17.577Z" fill="#92AEBA"/>
<path d="M18.2064 17.577H16.5507C16.3219 17.577 16.1367 17.3917 16.1367 17.1631C16.1367 16.9345 16.3219 16.7491 16.5507 16.7491H18.2064C18.435 16.7491 18.6203 16.9345 18.6203 17.1631C18.6203 17.3917 18.435 17.577 18.2064 17.577Z" fill="#92AEBA"/>
<path d="M14.8939 17.577H13.2381C13.0094 17.577 12.8242 17.3917 12.8242 17.1631C12.8242 16.9345 13.0094 16.7491 13.2381 16.7491H14.8939C15.1224 16.7491 15.3078 16.9345 15.3078 17.1631C15.3078 17.3917 15.1224 17.577 14.8939 17.577Z" fill="#92AEBA"/>
<path d="M13.6513 18.6229C13.6513 19.5373 12.9099 20.2786 11.9956 20.2786C11.081 20.2786 10.3398 19.5373 10.3398 18.6229C10.3398 17.7086 11.081 16.9672 11.9956 16.9672C12.9099 16.9672 13.6513 17.7086 13.6513 18.6229Z" fill="#B7F9FE"/>
<path d="M12.8212 13.6557C12.8212 14.5701 12.0799 15.3115 11.1655 15.3115C10.2509 15.3115 9.50977 14.5701 9.50977 13.6557C9.50977 12.7414 10.2509 12 11.1655 12C12.0799 12 12.8212 12.7414 12.8212 13.6557Z" fill="#B7F9FE"/>
<path d="M9.09649 16.5533H8.43982L8.97522 16.0181C9.13206 15.8556 9.12984 15.5975 8.97017 15.4378C8.8105 15.2782 8.55219 15.2759 8.38989 15.4328L7.85469 15.968V15.3115C7.85469 15.0829 7.66935 14.8976 7.44076 14.8976C7.21196 14.8976 7.02683 15.0829 7.02683 15.3115V15.968L6.49162 15.4328C6.32912 15.2759 6.07102 15.2782 5.91135 15.4378C5.75168 15.5975 5.74925 15.8556 5.9063 16.0181L6.4415 16.5533H5.78503C5.55623 16.5533 5.37109 16.7386 5.37109 16.9672C5.37109 17.1958 5.55623 17.3812 5.78503 17.3812H6.4415L5.9063 17.9164C5.79857 18.0203 5.75552 18.1743 5.79331 18.319C5.83131 18.4637 5.94429 18.5767 6.08901 18.6145C6.23372 18.6525 6.38753 18.6092 6.49162 18.5017L7.02683 17.9665V18.623C7.02683 18.8516 7.21196 19.0369 7.44076 19.0369C7.66935 19.0369 7.85469 18.8516 7.85469 18.623V17.9665L8.38989 18.5017C8.55219 18.6585 8.8105 18.6563 8.97017 18.4966C9.12984 18.337 9.13206 18.0789 8.97522 17.9164L8.43982 17.3812H9.09649C9.32508 17.3812 9.51042 17.1958 9.51042 16.9672C9.51042 16.7386 9.32508 16.5533 9.09649 16.5533Z" fill="#B7F9FE"/>
<path d="M17.3738 14.8975H16.7172L17.2526 14.3623C17.4094 14.1998 17.4072 13.9417 17.2475 13.782C17.0879 13.6223 16.8295 13.6201 16.6672 13.777L16.132 14.3122V13.6557C16.132 13.4271 15.9467 13.2418 15.7181 13.2418C15.4893 13.2418 15.3042 13.4271 15.3042 13.6557V14.3122L14.769 13.777C14.6065 13.6201 14.3484 13.6223 14.1887 13.782C14.029 13.9417 14.0266 14.1998 14.1836 14.3623L14.7188 14.8975H14.0624C13.8336 14.8975 13.6484 15.0828 13.6484 15.3114C13.6484 15.54 13.8336 15.7254 14.0624 15.7254H14.7188L14.1836 16.2606C14.0759 16.3645 14.0329 16.5185 14.0707 16.6632C14.1087 16.8079 14.2216 16.9209 14.3664 16.9587C14.5111 16.9967 14.6649 16.9534 14.769 16.8459L15.3042 16.3107V16.9672C15.3042 17.1958 15.4893 17.3811 15.7181 17.3811C15.9467 17.3811 16.132 17.1958 16.132 16.9672V16.3107L16.6672 16.8459C16.8295 17.0027 17.0879 17.0005 17.2475 16.8408C17.4072 16.6812 17.4094 16.4231 17.2526 16.2606L16.7172 15.7254H17.3738C17.6024 15.7254 17.7878 15.54 17.7878 15.3114C17.7878 15.0828 17.6024 14.8975 17.3738 14.8975Z" fill="#B7F9FE"/>
</g>
<defs>
<clipPath id="clip0">
<rect width="24" height="24" fill="white"/>
</clipPath>
</defs>
</svg>
