<svg width="20" height="20" viewBox="0 0 20 20" fill="none" xmlns="http://www.w3.org/2000/svg">
<path d="M9.99998 0C4.47501 0 0 4.47501 0 9.99998C0 15.5249 4.47501 20 9.99998 20C15.5249 20 20 15.525 20 9.99998C20 4.47497 15.525 0 9.99998 0ZM2.00001 9.99998C2.00001 5.58 5.58 1.99997 10 1.99997C11.85 1.99997 13.545 2.63498 14.9 3.68498L3.68498 14.9C2.63498 13.545 2.00001 11.85 2.00001 9.99998ZM9.99998 18C8.14996 18 6.45496 17.365 5.1 16.315L16.315 5.1C17.365 6.45501 18 8.15001 18 9.99998C18 14.42 14.42 18 9.99998 18Z" fill="white"/>
</svg>
