<svg width="27" height="27" viewBox="0 0 27 27" fill="none" xmlns="http://www.w3.org/2000/svg">
<path d="M13.5 0C6.0558 0 0 6.0558 0 13.5C0 20.9442 6.0558 27 13.5 27C20.9442 27 27 20.9442 27 13.5C27 6.0558 20.9442 0 13.5 0Z" fill="#007AFF"/>
<path d="M20.3423 10.6392L13.0297 17.9515C12.8103 18.1709 12.5224 18.2813 12.2344 18.2813C11.9464 18.2813 11.6584 18.1709 11.439 17.9515L7.78285 14.2953C7.34285 13.8555 7.34285 13.1445 7.78285 12.7047C8.22265 12.2647 8.93353 12.2647 9.37354 12.7047L12.2344 15.5655L18.7516 9.04848C19.1914 8.60847 19.9023 8.60847 20.3423 9.04848C20.7821 9.48827 20.7821 10.1992 20.3423 10.6392Z" fill="white"/>
</svg>
