<svg width="40" height="40" viewBox="0 0 40 40" fill="none" xmlns="http://www.w3.org/2000/svg">
<g clip-path="url(#clip0)">
<path d="M5.84399 22.4373C6.78247 23.3769 7.16702 24.7617 6.84654 26.0515C6.35331 28.036 6.94498 30.167 8.38926 31.6113C9.83354 33.0556 11.9622 33.6427 13.9479 33.154C15.2434 32.8313 16.6248 33.2181 17.5632 34.1566L19.2203 32.4994L7.5011 20.7802L5.84399 22.4373Z" fill="white"/>
<path d="M6.00119 38.9708L9.80737 35.1639C8.66005 34.7584 7.59555 34.1322 6.73192 33.2685C5.85954 32.3966 5.22482 31.3409 4.82285 30.2054L1.02855 34.0004C-0.342524 35.3714 -0.342524 37.6008 1.02855 38.9719C2.39955 40.3431 4.62995 40.342 6.00119 38.9708Z" fill="white"/>
<path d="M23.288 5.11166L27.975 0.424661L29.6319 2.0816L24.9449 6.7686L23.288 5.11166Z" fill="white"/>
<path d="M10.361 2.08026L12.0179 0.423324L16.7049 5.11033L15.048 6.76727L10.361 2.08026Z" fill="white"/>
<path d="M18.8275 0.000244141H21.1714V7.10993H18.8275V0.000244141Z" fill="white"/>
<path d="M22.4375 34.1566C23.376 33.2181 24.7573 32.8313 26.0528 33.154C28.0385 33.6427 30.1672 33.0556 31.6114 31.6113C33.0557 30.167 33.6475 28.036 33.1542 26.0515C32.8337 24.7617 33.2182 23.377 34.1567 22.4373L32.4995 20.7802L20.7803 32.4994L22.4375 34.1566Z" fill="white"/>
<path d="M35.1773 30.2054C34.7753 31.3409 34.1405 32.3965 33.2682 33.2685C32.4046 34.1322 31.3401 34.7584 30.1927 35.1639L33.9989 38.9708C35.3702 40.342 37.6006 40.343 38.9716 38.972C40.3426 37.6009 40.3426 35.3715 38.9716 34.0004L35.1773 30.2054Z" fill="white"/>
<path d="M15.0286 18.3431L18.343 15.0287L5.65894 2.34409C4.16888 0.854031 2.10653 0.000244141 0.000732422 0.000244141C0.000732422 2.10604 0.854519 4.16839 2.34458 5.65846L15.0286 18.3431Z" fill="white"/>
<path d="M21.6525 24.9718L24.9663 21.6579L26.6341 23.3258L23.3203 26.6396L21.6525 24.9718Z" fill="white"/>
<path d="M13.3604 23.3258L16.6747 26.6401L37.6564 5.65846C39.1465 4.16839 40.0002 2.10604 40.0002 0.000244141C37.8944 0.000244141 35.8321 0.854031 34.342 2.34409L13.3604 23.3258Z" fill="white"/>
</g>
<defs>
<clipPath id="clip0">
<rect width="40" height="40" fill="white"/>
</clipPath>
</defs>
</svg>
