<svg width="40" height="40" viewBox="0 0 40 40" fill="none" xmlns="http://www.w3.org/2000/svg">
<g clip-path="url(#clip0)">
<path d="M12.4691 21.9662C13.5533 21.9662 14.4353 21.0841 14.4353 20C14.4353 18.9158 13.5533 18.0338 12.4691 18.0338C11.385 18.0338 10.5031 18.9158 10.5031 20C10.5031 21.0841 11.385 21.9662 12.4691 21.9662Z" fill="white"/>
<path d="M12.4679 24.3099C10.754 24.3099 9.29822 25.4359 8.80127 26.987H16.1345C15.6376 25.4359 14.1817 24.3099 12.4679 24.3099Z" fill="white"/>
<path d="M36.3177 5.64844H3.68234C1.62477 5.64844 0 7.31953 0 9.33078V30.6693C0 32.7268 1.67109 34.3516 3.68234 34.3516H36.3177C38.3752 34.3516 40 32.6805 40 30.6692V9.33078C40 7.27313 38.3289 5.64844 36.3177 5.64844ZM17.4895 29.3308H7.44789C6.8007 29.3308 6.27602 28.8061 6.27602 28.1589C6.27602 25.9202 7.47008 23.9554 9.25469 22.8674C8.57383 22.105 8.15891 21.1002 8.15891 20.0001C8.15891 17.6236 10.0923 15.6902 12.4688 15.6902C14.8452 15.6902 16.7787 17.6236 16.7787 20.0001C16.7787 21.1003 16.3638 22.1051 15.6828 22.8675C17.4674 23.9555 18.6615 25.9204 18.6615 28.159C18.6614 28.8061 18.1367 29.3308 17.4895 29.3308ZM30.0416 29.3308H23.7656C23.1184 29.3308 22.5938 28.8061 22.5938 28.1589C22.5938 27.5117 23.1184 26.987 23.7656 26.987H30.0416C30.6888 26.987 31.2135 27.5117 31.2135 28.1589C31.2135 28.8061 30.6888 29.3308 30.0416 29.3308ZM32.5521 24.3099H23.7656C23.1184 24.3099 22.5938 23.7852 22.5938 23.1381C22.5938 22.4909 23.1184 21.9662 23.7656 21.9662H32.5521C33.1993 21.9662 33.724 22.4909 33.724 23.1381C33.724 23.7852 33.1993 24.3099 32.5521 24.3099ZM32.5521 19.2891H23.7656C23.1184 19.2891 22.5938 18.7644 22.5938 18.1172C22.5938 17.47 23.1184 16.9453 23.7656 16.9453H32.5521C33.1993 16.9453 33.724 17.47 33.724 18.1172C33.724 18.7644 33.1993 19.2891 32.5521 19.2891ZM32.5521 13.013H7.44789C6.8007 13.013 6.27602 12.4883 6.27602 11.8411C6.27602 11.1939 6.8007 10.6692 7.44789 10.6692H32.5521C33.1993 10.6692 33.724 11.1939 33.724 11.8411C33.724 12.4883 33.1993 13.013 32.5521 13.013Z" fill="white"/>
</g>
<defs>
<clipPath id="clip0">
<rect width="40" height="40" fill="white"/>
</clipPath>
</defs>
</svg>
