<svg width="40" height="40" viewBox="0 0 40 40" fill="none" xmlns="http://www.w3.org/2000/svg">
<g clip-path="url(#clip0)">
<path d="M30.9707 20.9644H35.6579V32.1875H30.9707V20.9644Z" fill="white"/>
<path d="M22.0945 20.9644H26.782V32.1875H22.0945V20.9644Z" fill="white"/>
<path d="M13.218 20.9644H17.9055V32.1875H13.218V20.9644Z" fill="white"/>
<path d="M4.34204 20.9644H9.02924V32.1875H4.34204V20.9644Z" fill="white"/>
<path d="M37.2208 17.4487V16.2769H2.77954V17.4487C2.77954 18.096 3.30414 18.6206 3.95142 18.6206H36.0489C36.6959 18.6206 37.2208 18.096 37.2208 17.4487Z" fill="white"/>
<path d="M38.8275 34.5312H1.1731C0.525818 34.5312 0.0012207 35.0558 0.0012207 35.7031V38.8281C0.0012207 39.4754 0.525818 40 1.1731 40H38.8275C39.4748 40 39.9994 39.4754 39.9994 38.8281V35.7031C39.9994 35.0558 39.4748 34.5312 38.8275 34.5312Z" fill="white"/>
<path d="M1.17311 13.9331H38.8294C39.3537 13.9331 39.8142 13.5849 39.957 13.0804C40.0995 12.576 39.8902 12.038 39.4437 11.7633L20.6156 0.17395C20.239 -0.0579834 19.7638 -0.0579834 19.3869 0.17395L0.558794 11.7633C0.112322 12.0383 -0.0970284 12.576 0.0457938 13.0804C0.188616 13.5849 0.649126 13.9331 1.17311 13.9331ZM19.2047 6.8927H20.7981C21.4453 6.8927 21.9699 7.4173 21.9699 8.06458C21.9699 8.71185 21.4453 9.23645 20.7981 9.23645H19.2047C18.5575 9.23645 18.0329 8.71185 18.0329 8.06458C18.0329 7.4173 18.5575 6.8927 19.2047 6.8927Z" fill="white"/>
</g>
<defs>
<clipPath id="clip0">
<rect width="40" height="40" fill="white"/>
</clipPath>
</defs>
</svg>
