<svg width="40" height="40" viewBox="0 0 40 40" fill="none" xmlns="http://www.w3.org/2000/svg">
<g clip-path="url(#clip0)">
<path d="M28.7512 0H26.6678H13.3345H11.2512C8.72285 0 6.66785 2.055 6.66785 4.58333V35.4167C6.66785 37.945 8.72285 40 11.2512 40H28.7512C31.2795 40 33.3345 37.945 33.3345 35.4167V4.58333C33.3345 2.055 31.2795 0 28.7512 0ZM30.0012 35C30.0012 35.92 29.2545 36.6667 28.3345 36.6667H11.6678C10.7478 36.6667 10.0012 35.92 10.0012 35V5C10.0012 4.08 10.7478 3.33333 11.6678 3.33333H12.5012C13.4212 3.33333 14.1678 4.08 14.1678 5C14.1678 5.92 14.9145 6.66667 15.8345 6.66667H24.1678C25.0878 6.66667 25.8345 5.92 25.8345 5C25.8345 4.08 26.5812 3.33333 27.5012 3.33333H28.3345C29.2545 3.33333 30.0012 4.08 30.0012 5V35Z" fill="white"/>
</g>
<defs>
<clipPath id="clip0">
<rect width="40" height="40" fill="white"/>
</clipPath>
</defs>
</svg>
