<svg width="40" height="40" viewBox="0 0 40 40" fill="none" xmlns="http://www.w3.org/2000/svg">
<g clip-path="url(#clip0)">
<path d="M25 10.8333C24.08 10.8333 23.3334 10.0866 23.3334 9.16665V6.66665H16.6667V9.16665C16.6667 10.0866 15.92 10.8333 15 10.8333C14.08 10.8333 13.3334 10.0866 13.3334 9.16665V6.66665C13.3334 4.82831 14.8284 3.33331 16.6667 3.33331H23.3334C25.1717 3.33331 26.6667 4.82831 26.6667 6.66665V9.16665C26.6667 10.0866 25.92 10.8333 25 10.8333Z" fill="white"/>
<path d="M21.1833 25.6334C20.8833 25.75 20.45 25.8334 20 25.8334C19.55 25.8334 19.1167 25.75 18.7167 25.6L0 19.3667V32.0834C0 34.6167 2.05 36.6667 4.58333 36.6667H35.4167C37.95 36.6667 40 34.6167 40 32.0834V19.3667L21.1833 25.6334Z" fill="white"/>
<path d="M40 12.9166V16.7333L20.4 23.2666C20.2667 23.3166 20.1333 23.3333 20 23.3333C19.8667 23.3333 19.7333 23.3166 19.6 23.2666L0 16.7333V12.9166C0 10.3833 2.05 8.33331 4.58333 8.33331H35.4167C37.95 8.33331 40 10.3833 40 12.9166Z" fill="white"/>
</g>
<defs>
<clipPath id="clip0">
<rect width="40" height="40" fill="white"/>
</clipPath>
</defs>
</svg>
