<svg width="24" height="24" viewBox="0 0 24 24" fill="none" xmlns="http://www.w3.org/2000/svg">
<g clip-path="url(#clip0)">
<path d="M20.4833 3.51613C15.795 -1.17232 8.20575 -1.17307 3.51664 3.51613C-1.17186 8.20459 -1.17256 15.7937 3.51664 20.4829C8.205 25.1713 15.7942 25.172 20.4833 20.4829C25.1718 15.7944 25.1725 8.20529 20.4833 3.51613ZM19.9819 18.7727C19.4214 18.2714 18.8218 17.8279 18.1898 17.4456C18.6075 16.0026 18.855 14.4147 18.9135 12.7641H22.4407C22.2812 14.9889 21.4264 17.076 19.9819 18.7727ZM1.55924 12.7641H5.08647C5.14497 14.4147 5.39245 16.0026 5.81019 17.4456C5.17817 17.8279 4.57857 18.2714 4.01803 18.7727C2.57358 17.076 1.71876 14.9889 1.55924 12.7641ZM4.01807 5.22633C4.57862 5.72758 5.17822 6.17117 5.81023 6.55345C5.3925 7.99644 5.14501 9.58435 5.08651 11.235H1.55924C1.71876 9.01013 2.57358 6.92304 4.01807 5.22633ZM11.2355 6.71148C9.98859 6.6223 8.78634 6.31519 7.67176 5.80856C8.31998 4.13934 9.51498 2.13731 11.2355 1.64116V6.71148ZM11.2355 8.24341V11.235H6.6162C6.66913 9.83872 6.86697 8.49792 7.19599 7.27113C8.4626 7.82483 9.8248 8.1555 11.2355 8.24341ZM11.2355 12.7641V15.7557C9.8248 15.8436 8.4626 16.1742 7.19599 16.7279C6.86697 15.5011 6.66913 14.1603 6.6162 12.7641H11.2355ZM11.2355 17.2876V22.3579C9.51507 21.8617 8.32008 19.8599 7.67176 18.1905C8.78634 17.6839 9.98859 17.3768 11.2355 17.2876ZM12.7645 17.2876C14.0114 17.3768 15.2137 17.6839 16.3282 18.1905C15.68 19.8598 14.485 21.8617 12.7645 22.3579V17.2876ZM12.7645 15.7557V12.7641H17.3838C17.3309 14.1603 17.133 15.5011 16.804 16.7279C15.5374 16.1742 14.1752 15.8436 12.7645 15.7557ZM12.7645 11.235V8.24341C14.1752 8.1555 15.5374 7.82483 16.804 7.27113C17.133 8.49792 17.3309 9.83872 17.3838 11.235H12.7645ZM12.7645 6.71148V1.64121C14.485 2.13735 15.68 4.13939 16.3282 5.8086C15.2137 6.31519 14.0114 6.6223 12.7645 6.71148ZM16.1986 2.40451C17.1772 2.83307 18.0903 3.41417 18.9087 4.13517C18.5192 4.47867 18.1081 4.79014 17.6788 5.06868C17.2976 4.12482 16.8106 3.20757 16.1986 2.40451ZM6.32113 5.06868C5.89187 4.79014 5.48083 4.47867 5.0912 4.13517C5.90967 3.41417 6.82271 2.83307 7.80136 2.40451C7.1893 3.20767 6.70233 4.12492 6.32113 5.06868ZM6.32118 18.9304C6.70233 19.8742 7.18939 20.7915 7.80141 21.5946C6.82275 21.166 5.90972 20.5849 5.09124 19.8639C5.48083 19.5204 5.89192 19.2089 6.32118 18.9304ZM17.6788 18.9304C18.1081 19.2089 18.5192 19.5204 18.9087 19.8638C18.0903 20.5849 17.1772 21.166 16.1986 21.5945C16.8106 20.7915 17.2976 19.8742 17.6788 18.9304ZM18.9135 11.235C18.855 9.5844 18.6075 7.99644 18.1898 6.5535C18.8218 6.17122 19.4214 5.72762 19.982 5.22638C21.4264 6.92304 22.2812 9.01013 22.4408 11.235H18.9135Z" fill="white"/>
</g>
<defs>
<clipPath id="clip0">
<rect width="24" height="24" fill="white"/>
</clipPath>
</defs>
</svg>
