<svg width="24" height="24" viewBox="0 0 24 24" fill="none" xmlns="http://www.w3.org/2000/svg">
<g clip-path="url(#clip0)">
<path d="M19.7533 10.8489C19.0037 5.22659 12.3938 2.20476 7.58968 5.50773C5.18593 5.0052 1.17247 4.57008 0.192184 6.80628C-0.800277 9.06129 2.27553 11.7292 4.28402 13.1636C5.14725 18.9243 11.6867 21.7365 16.4523 18.4895C24.8934 20.2353 26.6271 15.7521 19.7533 10.8489ZM10.6995 14.9433C2.94416 11.5355 -2.76134 5.5248 6.09654 6.84725C5.25017 7.8202 4.78988 8.70676 4.47348 9.78503C5.82503 10.9753 8.01677 12.4669 11.1776 13.855C13.876 15.0411 16.5899 15.8182 18.7112 16.0406C19.2697 15.1145 19.6496 14.0945 19.7843 12.8684C26.801 18.5654 18.2448 18.2582 10.6995 14.9433Z" fill="white"/>
</g>
<defs>
<clipPath id="clip0">
<rect width="24" height="24" fill="white"/>
</clipPath>
</defs>
</svg>
