<svg width="24" height="24" viewBox="0 0 24 24" fill="none" xmlns="http://www.w3.org/2000/svg">
<path d="M18.7618 8.2312C18.6962 8.09039 18.555 8.00002 18.3994 8.00002H13.6594L18.3374 0.614016C18.4154 0.490828 18.4202 0.334828 18.3498 0.207234C18.2794 0.0792188 18.145 0 17.9994 0H11.5994C11.4478 0 11.3094 0.0855937 11.2414 0.221203L5.2414 12.2212C5.17938 12.3448 5.18618 12.492 5.25898 12.61C5.33219 12.728 5.46058 12.8 5.59938 12.8H9.71257L5.23057 23.4448C5.15416 23.6268 5.22218 23.838 5.39055 23.9412C5.45533 23.9808 5.52733 24 5.59896 24C5.71376 24 5.82696 23.9507 5.90538 23.858L18.7054 8.65795C18.8058 8.5388 18.8274 8.37239 18.7618 8.2312Z" fill="white"/>
</svg>
