<svg width="24" height="24" viewBox="0 0 24 24" fill="none" xmlns="http://www.w3.org/2000/svg">
<path d="M8.12345 23.9997C5.45557 15.2086 11.0927 11.9988 11.0927 11.9988C10.6983 16.6898 13.3641 20.3444 13.3641 20.3444C14.3445 20.0486 16.2159 18.666 16.2159 18.666C16.2159 20.3444 15.2285 23.9976 15.2285 23.9976C15.2285 23.9976 18.6852 21.3248 19.7733 16.8856C20.86 12.4464 17.7033 7.98964 17.7033 7.98964C17.8935 11.1316 16.8306 14.2219 14.748 16.5828C14.8522 16.4625 14.9396 16.3289 15.0068 16.1842C15.3809 15.4359 15.9816 13.4911 15.6299 8.98756C15.1348 2.66578 9.40669 0 9.40669 0C9.9004 3.85181 8.41996 4.73924 4.95207 12.0505C1.48418 19.3605 8.12345 23.9997 8.12345 23.9997Z" fill="white"/>
</svg>
