<svg width="24" height="24" viewBox="0 0 24 24" fill="none" xmlns="http://www.w3.org/2000/svg">
<g clip-path="url(#clip0)">
<path d="M15.3726 9.21688C15.1074 9.21688 14.826 9.01223 14.7438 8.76007L12.1484 0.77266C12.0663 0.520442 11.9337 0.520442 11.8516 0.77266L9.25665 8.76007C9.17451 9.01229 8.89304 9.21688 8.62788 9.21688H0.229282C-0.0358782 9.21688 -0.0771857 9.34322 0.137507 9.49935L6.93173 14.435C7.14642 14.5912 7.25403 14.9221 7.17189 15.1743L4.57703 23.1613C4.49488 23.4135 4.6025 23.4917 4.81719 23.3356L11.6114 18.4C11.8261 18.2438 12.1739 18.2438 12.3886 18.4L19.1829 23.3361C19.3975 23.4922 19.5052 23.4139 19.423 23.1617L16.8281 15.1748C16.746 14.9226 16.8536 14.5916 17.0683 14.4355L23.8625 9.49983C24.0772 9.3437 24.0359 9.21735 23.7707 9.21735H15.3726V9.21688Z" fill="white"/>
</g>
<defs>
<clipPath id="clip0">
<rect width="24" height="24" fill="white"/>
</clipPath>
</defs>
</svg>
