<svg width="24" height="24" viewBox="0 0 24 24" fill="none" xmlns="http://www.w3.org/2000/svg">
<g clip-path="url(#clip0)">
<path d="M6.54908 14.8772C7.16406 15.3981 7.57184 16.1039 7.71917 16.8743H11.2971V11.8632C10.0854 11.5502 9.18768 10.4478 9.18768 9.13957H10.594C10.594 9.91501 11.2249 10.5459 12.0003 10.5459C12.7757 10.5459 13.4066 9.91501 13.4066 9.13957H14.8129C14.8129 10.4477 13.9152 11.5502 12.7034 11.8632V16.8743H16.2822C16.4311 16.104 16.8428 15.3947 17.4636 14.8668C19.354 13.2594 20.4381 10.9156 20.4381 8.43642C20.4381 0.872748 11.2137 -2.84182 5.96049 2.55492C2.53211 6.07716 2.82518 11.7226 6.54908 14.8772Z" fill="white"/>
<path d="M12.0001 23.9996C13.551 23.9996 14.8127 22.7379 14.8127 21.187H9.1875C9.1875 22.7379 10.4492 23.9996 12.0001 23.9996Z" fill="white"/>
<path d="M7.78125 18.2808H16.2191V19.7808H7.78125V18.2808Z" fill="white"/>
</g>
<defs>
<clipPath id="clip0">
<rect width="24" height="24" fill="white"/>
</clipPath>
</defs>
</svg>
