<svg width="24" height="24" viewBox="0 0 24 24" fill="none" xmlns="http://www.w3.org/2000/svg">
<g clip-path="url(#clip0)">
<path d="M21.0449 21.0948C21.0449 20.3518 20.4436 19.7505 19.7006 19.7505H4.29941C3.55636 19.7505 2.95508 20.3518 2.95508 21.0948C2.95508 21.8379 3.55636 22.4391 4.29941 22.4391H19.7006C20.4436 22.4391 21.0449 21.8354 21.0449 21.0948Z" fill="white"/>
<path d="M1.59848 10.2131C1.62048 10.2131 1.64004 10.2131 1.66203 10.2107L3.79341 17.9247H12.0012H20.2065L22.3379 10.2107C22.3598 10.2107 22.3794 10.2131 22.4014 10.2131C23.2838 10.2131 23.9999 9.49699 23.9999 8.61462C23.9999 7.73225 23.2838 7.01608 22.4014 7.01608C21.5191 7.01608 20.8029 7.73225 20.8029 8.61462C20.8029 8.78571 20.8298 8.95192 20.8811 9.10591L17.0265 11.3595L12.8835 4.49119C13.3138 4.20521 13.5997 3.71392 13.5997 3.15908C13.5997 2.27671 12.8835 1.56055 12.0012 1.56055C11.1188 1.56055 10.4027 2.27671 10.4027 3.15908C10.4027 3.71636 10.6862 4.20521 11.1188 4.49119L6.97586 11.3595L3.1213 9.10591C3.17018 8.95192 3.19951 8.78571 3.19951 8.61462C3.19951 7.73225 2.48335 7.01608 1.60098 7.01608C0.716162 7.01608 0 7.73225 0 8.61462C0 9.49699 0.716114 10.2131 1.59848 10.2131Z" fill="white"/>
</g>
<defs>
<clipPath id="clip0">
<rect width="24" height="24" fill="white"/>
</clipPath>
</defs>
</svg>
