<svg width="24" height="24" viewBox="0 0 24 24" fill="none" xmlns="http://www.w3.org/2000/svg">
<path d="M12.6273 16.6899V17.6787L14.1078 18.5287C14.4083 18.7012 14.5121 19.0845 14.3396 19.3849C14.2236 19.5869 14.0124 19.7 13.795 19.7C13.6891 19.7 13.5817 19.6732 13.4833 19.6166L12.0001 18.765L10.5168 19.6166C10.4184 19.6732 10.3109 19.7 10.2052 19.7C9.98787 19.7 9.77649 19.587 9.66057 19.3849C9.48807 19.0844 9.59182 18.701 9.89228 18.5287L11.373 17.6787V16.6899C11.3267 16.6568 11.282 16.6209 11.2408 16.5803L9.43689 14.8057C9.12225 14.4961 9.02691 14.0322 9.19414 13.6236C9.36136 13.215 9.75478 12.9511 10.1961 12.9511H13.804C14.2455 12.9511 14.6388 13.215 14.806 13.6236C14.9732 14.0322 14.8779 14.4961 14.5631 14.8057L12.7594 16.5804C12.7181 16.621 12.6736 16.6569 12.6273 16.6899ZM22.1458 7.70189C22.8379 9.501 25.0155 15.8588 22.547 18.923C20.1584 21.8883 16.2457 22.9137 14.5749 23.3515C14.318 23.4188 14.0962 23.477 13.9608 23.521C12.8121 23.8948 12.0797 23.9054 11.9999 23.9054C11.9201 23.9054 11.1876 23.8946 10.0387 23.521C9.90357 23.477 9.68164 23.4189 9.42472 23.3515C7.75395 22.9137 3.84122 21.8883 1.45261 18.923C-1.01591 15.8587 1.16181 9.501 1.85381 7.70189C1.18326 7.18064 0 6.02924 0 4.39297C0 2.26392 1.80124 0.0947266 3.56924 0.0947266C3.5927 0.0947266 3.61603 0.0951029 3.63949 0.0959811C4.80758 0.136251 5.78171 1.3569 6.29343 2.15001C6.71784 1.87728 7.31825 1.59087 7.96747 1.59087H16.0325C16.6817 1.59087 17.2822 1.87728 17.7066 2.15001C18.2183 1.3569 19.1925 0.136251 20.3606 0.0959811C20.3842 0.0951029 20.4073 0.0947266 20.4309 0.0947266C22.1988 0.0947266 24 2.26392 24 4.39297C24 6.02924 22.8167 7.18064 22.1458 7.70189ZM7.86999 10.978C8.69609 10.978 9.42045 10.4198 9.63171 9.62056C9.70159 9.35661 9.59245 9.0776 9.36199 8.93107L7.43931 7.70817C7.20835 7.56126 6.9094 7.58108 6.69977 7.75659C6.28452 8.10434 6.04654 8.61393 6.04654 9.15463C6.04654 10.16 6.86462 10.978 7.86999 10.978ZM16.3893 16.2362C16.3893 14.4865 15.6118 13.0213 14.0782 11.8813C13.4743 11.4325 12.7556 11.1951 12.0001 11.1951C11.2445 11.1951 10.5258 11.4325 9.92188 11.8813C8.38836 13.0213 7.61081 14.4865 7.61081 16.2362C7.61081 18.9536 9.502 20.1156 11.0886 20.6119C11.6797 20.7967 12.3205 20.7967 12.9117 20.6119C14.498 20.1156 16.3893 18.9537 16.3893 16.2362ZM17.9535 9.1545C17.9535 8.61381 17.7155 8.10434 17.3002 7.75647C17.0906 7.58096 16.7914 7.56101 16.5607 7.70804L14.638 8.93095C14.4076 9.07748 14.2984 9.35648 14.3683 9.62043C14.5795 10.4197 15.3039 10.9778 16.13 10.9778C17.1355 10.978 17.9535 10.16 17.9535 9.1545Z" fill="white"/>
</svg>
