<svg width="34" height="34" viewBox="0 0 34 34" fill="none" xmlns="http://www.w3.org/2000/svg">
<g clip-path="url(#clip0)">
<path d="M32.1456 17.0538C31.8807 16.9433 31.5761 17.0042 31.3735 17.2068C29.2683 19.3063 26.9407 21.1707 24.4318 22.7672C24.1145 22.9571 23.997 23.3593 24.1627 23.6908L24.6387 24.6442C22.4075 26.7451 20.9554 26.9109 20.546 26.9109C20.0147 26.9109 19.8504 26.2025 19.8376 26.2025V12.75H21.9767C23.1497 14.3154 25.3696 14.6313 26.9351 13.4583C28.5005 12.2853 28.8164 10.0654 27.6434 8.49998C26.4704 6.93459 24.2506 6.61863 22.6851 7.79163C22.416 7.99277 22.178 8.23077 21.9767 8.49998H19.8334V7.40209C20.7358 6.60309 21.2515 5.4556 21.2501 4.24999C21.2501 1.9026 19.3475 0 17.0001 0C14.6527 0 12.7501 1.9026 12.7501 4.24999C12.7487 5.4556 13.2643 6.60309 14.1667 7.40209V8.49998H12.0276C10.8546 6.93459 8.63469 6.61863 7.06924 7.79163C5.50378 8.96463 5.18789 11.1846 6.36088 12.75C7.53388 14.3154 9.75377 14.6313 11.3192 13.4583C11.5884 13.2572 11.8264 13.0192 12.0276 12.75H14.1667L14.1752 26.0921C14.1752 26.1006 14.0336 26.9166 13.457 26.9166C13.049 26.9166 11.5955 26.7452 9.36423 24.65L9.84023 23.6966C10.006 23.3651 9.88838 22.9627 9.57109 22.7729C7.0622 21.1778 4.7346 19.312 2.62946 17.2125C2.3546 16.9334 1.90696 16.9306 1.62785 17.2054C1.49325 17.3386 1.41675 17.5199 1.41675 17.7083C1.41675 25.1501 4.33085 26.6999 4.66374 26.8529C4.75585 26.8954 4.85639 26.9167 4.95839 26.9167H5.90474C7.56788 30.5278 11.5558 31.7787 14.2291 32.6173C14.9473 32.8 15.6429 33.0649 16.3002 33.4092C16.3654 33.7945 16.7309 34.0552 17.1162 33.99C17.4137 33.9404 17.6461 33.7067 17.6971 33.4092C18.3544 33.0649 19.05 32.8 19.7682 32.6173C22.4429 31.7787 26.4266 30.5277 28.0925 26.9167H29.0417C29.1437 26.9167 29.2443 26.8954 29.3363 26.8529C29.6692 26.6999 32.5833 25.1501 32.5833 17.7083C32.5833 17.4221 32.4105 17.1629 32.1456 17.0538ZM17.0001 5.66663C16.2181 5.66663 15.5834 5.03199 15.5834 4.24999C15.5834 3.46799 16.2181 2.83335 17.0001 2.83335C17.7821 2.83335 18.4167 3.46799 18.4167 4.24999C18.4167 5.03199 17.7821 5.66663 17.0001 5.66663Z" fill="white"/>
</g>
<defs>
<clipPath id="clip0">
<rect width="34" height="34" fill="white"/>
</clipPath>
</defs>
</svg>
