<svg width="24" height="24" viewBox="0 0 24 24" fill="none" xmlns="http://www.w3.org/2000/svg">
<path d="M10.1879 7.19166C10.0587 7.06764 9.89432 7 9.70058 7C9.31311 7 9.00195 7.29312 9.00195 7.66516C9.00195 7.85118 9.08414 8.02029 9.21917 8.14994L13.3288 12.0056L9.21917 15.8501C9.08414 15.9797 9.00195 16.1545 9.00195 16.3348C9.00195 16.7069 9.31311 17 9.70058 17C9.89432 17 10.0587 16.9324 10.1879 16.8083L14.7554 12.5242C14.9198 12.3777 14.9961 12.1973 15.002 12C15.002 11.8027 14.9198 11.6336 14.7554 11.4814L10.1879 7.19166Z" fill="white"/>
</svg>
