<svg width="36" height="36" viewBox="0 0 36 36" fill="none" xmlns="http://www.w3.org/2000/svg">
<g clip-path="url(#clip0)">
<path d="M0.000520736 15.6503C-0.0151397 17.0112 0.823777 18.236 2.09837 18.7132V12.8812C2.09837 12.7972 2.1403 12.6714 2.1403 12.5875C0.857105 13.0608 0.00365282 14.2825 0.000520736 15.6503Z" fill="white"/>
<path d="M11.4514 22.867H5.9549L8.01083 30.3355C8.31528 31.4753 9.34855 32.2674 10.5283 32.2656C11.3677 32.2755 12.1619 31.8862 12.6682 31.2167C13.1793 30.5796 13.337 29.7288 13.0877 28.951L11.4514 22.867Z" fill="white"/>
<path d="M2.13934 12.5453H2.18127V12.5034C2.18127 12.5453 2.18127 12.5453 2.13934 12.5453Z" fill="white"/>
<path d="M32.227 11.958H31.8913V19.5104H32.227C34.3126 19.5104 36.0032 17.8197 36.0032 15.7343C36.0032 13.6487 34.3125 11.958 32.227 11.958Z" fill="white"/>
<path d="M3.35907 12.8811V18.8391C3.40444 20.382 4.66868 21.609 6.21216 21.6083H13.8485V10.2797H6.21216C4.70169 10.2797 3.35907 11.3706 3.35907 12.8811Z" fill="white"/>
<path d="M15.1069 21.7761L30.6312 27.9859V3.73425L15.1069 9.94405V21.7761Z" fill="white"/>
</g>
<defs>
<clipPath id="clip0">
<rect width="36" height="36" fill="white"/>
</clipPath>
</defs>
</svg>
