<svg width="20" height="20" viewBox="0 0 20 20" fill="none" xmlns="http://www.w3.org/2000/svg">
<g clip-path="url(#clip0)">
<path d="M16.4283 10C16.0338 10 15.7141 10.3198 15.7141 10.7143V17.857C15.7141 18.2515 15.3943 18.5713 14.9998 18.5713H2.14283C1.74833 18.5713 1.42854 18.2515 1.42854 17.857V3.57154C1.42854 3.17704 1.74833 2.85725 2.14283 2.85725H10.7141C11.1086 2.85725 11.4284 2.53746 11.4284 2.14296C11.4284 1.74846 11.1086 1.42871 10.7141 1.42871H2.14283C0.959376 1.42871 0 2.38809 0 3.57154V17.857C0 19.0405 0.959376 19.9999 2.14283 19.9999H14.9998C16.1833 19.9999 17.1426 19.0405 17.1426 17.857V10.7143C17.1426 10.3198 16.8228 10 16.4283 10Z" fill="#4E6ED9"/>
<path d="M19.1994 0.80113C18.6866 0.28819 17.991 8.01842e-05 17.2656 0.000163888C16.5399 -0.00192872 15.8435 0.286683 15.3321 0.80159L5.92361 10.2093C5.84556 10.2879 5.78667 10.3835 5.75148 10.4886L4.32294 14.7742C4.19826 15.1485 4.40061 15.553 4.7749 15.6776C4.84751 15.7018 4.92356 15.7141 5.00006 15.7142C5.07673 15.7141 5.15295 15.7018 5.22577 15.6778L9.51143 14.2493C9.61669 14.2141 9.71232 14.1549 9.79071 14.0764L19.1991 4.66797C20.267 3.60024 20.2671 1.86899 19.1994 0.80113ZM18.1892 3.65867L8.90357 12.9443L6.12932 13.8707L7.05287 11.1L16.342 1.81441C16.8527 1.30474 17.6799 1.30557 18.1896 1.81625C18.433 2.06021 18.5702 2.39046 18.5713 2.73512C18.5722 3.08161 18.4346 3.41408 18.1892 3.65867Z" fill="#4E6ED9"/>
</g>
<defs>
<clipPath id="clip0">
<rect width="20" height="20" fill="white"/>
</clipPath>
</defs>
</svg>
