<svg width="26" height="26" viewBox="0 0 26 26" fill="none" xmlns="http://www.w3.org/2000/svg">
<path d="M26 14.1344V11.9672L23.7459 11.3779L23.5698 10.4839L25.4382 9.06845L24.6123 7.06374L22.2837 7.38888L21.776 6.67096L22.9742 4.65948L21.4444 3.12894L19.4001 4.30733L18.6759 3.81293L19.0346 1.44253L17.0377 0.60951L15.5756 2.5262L14.743 2.35009L14.1541 0H11.988L11.3653 2.36363L10.5462 2.52613L9.09086 0.562047L7.08723 1.39513L7.41217 3.81293L6.62018 4.30056L4.50145 3.03408L2.97165 4.56469L4.24423 6.69805L3.79072 7.40912L1.38775 7.07051L0.561912 9.07522L2.51821 10.5449L2.35578 11.3711L0 11.9739V14.1412L2.3488 14.744L2.5113 15.5905L0.588792 17.0331L1.4214 19.0311L3.79058 18.6924L4.27125 19.4577L3.05954 21.5301L4.58941 23.0606L6.63366 21.8281L7.39172 22.3225L7.08717 24.6456L9.09079 25.4717L10.4852 23.589L11.3923 23.7582L11.988 26H14.1541L14.7159 23.7582L15.6366 23.5821L17.0377 25.4175L19.0414 24.5912L18.703 22.3089L19.3934 21.8078L21.3564 22.9523L22.8862 21.4217L21.7491 19.4645L22.2837 18.6924L24.5716 19.0175L25.4043 17.0196L23.5631 15.6311L23.7459 14.7169L26 14.1344ZM24.0843 17.3853L23.8947 17.839L21.7355 17.5343L20.456 19.4171L21.5187 21.2524L21.1668 21.6046L19.3188 20.5277L17.5182 21.7603L17.8432 23.914L17.3897 24.1038L16.0629 22.37L13.8359 22.8101L13.3079 24.9232H12.8205L12.252 22.8034L10.0452 22.3632L8.72523 24.1511L8.27172 23.9614L8.56957 21.7603L6.70807 20.521L4.75854 21.7061L4.4133 21.3608L5.56407 19.3899L4.33882 17.5208L2.09151 17.839L1.90877 17.392L3.72971 16.0239L3.30999 13.8702L1.07622 13.2945V12.8069L3.30999 12.238L3.73648 10.0979L1.88852 8.70953L2.07127 8.26252L4.35243 8.58758L5.55736 6.77253L4.33889 4.74073L4.67736 4.40213L6.07181 5.23514L6.69453 5.6076L8.58312 4.37497L8.27849 2.08582L8.73207 1.89624L10.1061 3.75192L12.2384 3.33877L12.8341 1.09031H13.3215L13.8833 3.32522L16.0291 3.75185L17.3897 1.9368L17.8364 2.12645L17.4979 4.36814L19.3391 5.594L21.2547 4.49678L21.6 4.84223L20.4697 6.73854L21.7152 8.56714L23.9151 8.25561L24.1046 8.70939L22.3312 10.0436L22.7711 12.2446L24.8899 12.7932V13.2809L22.7644 13.8295L22.3244 16.0442L24.0843 17.3853ZM13 4.33333C8.21356 4.33333 4.33333 8.21356 4.33333 13C4.33333 17.7865 8.21356 21.6667 13 21.6667C17.7864 21.6667 21.6667 17.7865 21.6667 13C21.6667 8.21356 17.7864 4.33333 13 4.33333ZM5.41667 13C5.41667 10.9744 6.20547 9.07007 7.63777 7.63784C9.07007 6.20547 10.9744 5.41667 13 5.41667C13.5075 5.41667 14.0075 5.46623 14.4943 5.56298L12.6141 12.6005L5.5619 14.4888C5.46589 14.0037 5.41667 13.5056 5.41667 13ZM13 20.5833C10.9744 20.5833 9.07007 19.7945 7.63777 18.3622C6.83021 17.5547 6.22734 16.5971 5.85494 15.5524L12.8578 13.6906L17.9315 18.7612C16.5586 19.9402 14.8287 20.5833 13 20.5833ZM18.6979 18.0037L13.6229 12.9255L15.5221 5.84458C16.5787 6.2161 17.5469 6.82249 18.3622 7.63777C19.7945 9.07007 20.5833 10.9744 20.5833 13C20.5833 14.861 19.917 16.6195 18.6979 18.0037Z" fill="#8A8A8E"/>
</svg>
