<svg width="50" height="50" viewBox="0 0 50 50" fill="none" xmlns="http://www.w3.org/2000/svg">
<g opacity="0.4" clip-path="url(#clip0)">
<path d="M34.9985 26.9747C41.5674 26.9747 46.8925 21.6496 46.8925 15.0807C46.8925 8.51178 41.5674 3.18665 34.9985 3.18665C28.4296 3.18665 23.1045 8.51178 23.1045 15.0807C23.1045 21.6496 28.4296 26.9747 34.9985 26.9747Z" fill="white"/>
<path d="M10.9372 26.9745C15.0899 26.9745 18.4564 23.608 18.4564 19.4553C18.4564 15.3025 15.0899 11.936 10.9372 11.936C6.78443 11.936 3.41797 15.3025 3.41797 19.4553C3.41797 23.608 6.78443 26.9745 10.9372 26.9745Z" fill="white"/>
<path d="M18.3455 33.727C15.3857 31.302 12.7051 31.623 9.2828 31.623C4.16427 31.623 0 35.7626 0 40.8497V55.7801C0 57.9894 1.80324 59.7858 4.02073 59.7858C13.5942 59.7858 12.4409 59.959 12.4409 59.3729C12.4409 48.7932 11.1878 41.0347 18.3455 33.727Z" fill="white"/>
<path d="M38.256 31.6777C32.2783 31.1791 27.0826 31.6834 22.601 35.3826C15.1013 41.3897 16.5446 49.4781 16.5446 59.3729C16.5446 61.9908 18.6746 64.1606 21.3323 64.1606C50.1899 64.1606 51.3384 65.0915 53.0497 61.3019C53.6109 60.0204 53.4571 60.4277 53.4571 48.168C53.4571 38.4305 45.0256 31.6777 38.256 31.6777Z" fill="white"/>
</g>
<defs>
<clipPath id="clip0">
<rect width="50" height="50" fill="white"/>
</clipPath>
</defs>
</svg>
