<svg width="14" height="14" viewBox="0 0 14 14" fill="none" xmlns="http://www.w3.org/2000/svg">
<path d="M5.71747 11.3267C6.95167 11.3267 8.10409 10.929 9.04089 10.2662L12.5651 13.757C12.7286 13.919 12.9442 14 13.1673 14C13.6506 14 14 13.6318 14 13.1604C14 12.9395 13.9257 12.7333 13.7621 12.5713L10.2602 9.09521C10.9963 8.13782 11.4349 6.95213 11.4349 5.66334C11.4349 2.54813 8.86245 0 5.71747 0C2.56506 0 0 2.54813 0 5.66334C0 8.77854 2.56506 11.3267 5.71747 11.3267ZM5.71747 10.1042C3.25651 10.1042 1.2342 8.09364 1.2342 5.66334C1.2342 3.23304 3.25651 1.22251 5.71747 1.22251C8.171 1.22251 10.2007 3.23304 10.2007 5.66334C10.2007 8.09364 8.171 10.1042 5.71747 10.1042Z" fill="#8E8E93"/>
</svg>
