<svg width="18" height="18" viewBox="0 0 18 18" fill="none" xmlns="http://www.w3.org/2000/svg">
<g clip-path="url(#clip0)">
<path d="M0.000351921 7.825C-0.00747829 8.50546 0.41198 9.11786 1.04928 9.35646V6.44043C1.04928 6.39846 1.07024 6.33554 1.07024 6.29358C0.428644 6.53025 0.00191796 7.14109 0.000351921 7.825Z" fill="white"/>
<path d="M5.72579 11.4333H2.97754L4.00551 15.1675C4.15773 15.7374 4.67437 16.1335 5.26424 16.1326C5.68394 16.1376 6.08104 15.9429 6.33417 15.6081C6.58976 15.2896 6.66858 14.8642 6.54394 14.4753L5.72579 11.4333Z" fill="white"/>
<path d="M1.06982 6.27249H1.09079V6.25153C1.09079 6.27249 1.09079 6.27249 1.06982 6.27249Z" fill="white"/>
<path d="M16.1136 5.979H15.9458V9.75521H16.1136C17.1564 9.75521 18.0017 8.90987 18.0017 7.86713C18.0017 6.82435 17.1564 5.979 16.1136 5.979Z" fill="white"/>
<path d="M1.67969 6.44041V9.41942C1.70238 10.1909 2.33449 10.8044 3.10623 10.804H6.9244V5.13971H3.10623C2.351 5.13971 1.67969 5.68517 1.67969 6.44041Z" fill="white"/>
<path d="M7.55371 10.8879L15.3159 13.9928V1.867L7.55371 4.9719V10.8879Z" fill="white"/>
</g>
<defs>
<clipPath id="clip0">
<rect width="18" height="18" fill="white"/>
</clipPath>
</defs>
</svg>
