<svg width="26" height="26" viewBox="0 0 26 26" fill="none" xmlns="http://www.w3.org/2000/svg">
<path d="M11.3753 0.000793457C5.10311 0.000793457 0.000899055 4.15568 0.000899055 9.26277C0.000899055 11.8496 1.30083 14.2756 3.5952 16.0208C2.83636 17.2053 1.85492 18.4045 0.616739 18.71C0.225136 18.8075 -0.0364738 19.178 0.00414887 19.5793C0.0447716 19.9823 0.374628 20.2926 0.77923 20.3105C0.797104 20.3105 0.866975 20.3138 0.983968 20.3138C1.82405 20.3138 5.06736 20.1789 8.74778 18.2696C9.59111 18.4402 10.4734 18.5247 11.3753 18.5247C17.6458 18.5247 22.7496 14.3699 22.7496 9.26277C22.7496 4.15568 17.6458 0.000793457 11.3753 0.000793457Z" fill="#8A8A8E"/>
<path d="M25.3812 24.337C24.3461 24.0819 23.5629 23.3247 23.0153 22.574C24.9214 21.0807 25.9987 19.0268 25.9987 16.8381C25.9987 15.0052 25.2285 13.3201 23.9497 11.9731C22.5051 16.6674 17.424 20.1496 11.3745 20.1496C10.5669 20.1496 9.76909 20.0879 8.99401 19.966C8.53253 20.1886 8.08081 20.3852 7.63721 20.5607C9.27674 23.0793 12.5201 24.8001 16.2492 24.8001C17.0113 24.8001 17.7506 24.7302 18.4526 24.5937C20.7843 25.7816 22.9113 26.0009 24.1625 25.9993C24.8482 25.9993 25.2707 25.9343 25.3178 25.9262C25.6981 25.8644 25.9824 25.5427 25.9987 25.1576C26.0133 24.7725 25.7566 24.428 25.3812 24.337Z" fill="#8A8A8E"/>
</svg>
