<svg width="16" height="16" viewBox="0 0 16 16" fill="none" xmlns="http://www.w3.org/2000/svg">
<path d="M4.38403 11.5886C5.21251 12.4157 6.08702 13.1624 7.00755 13.8288C7.92808 14.4951 8.84862 15.0235 9.76915 15.4141C10.6897 15.8047 11.5613 16 12.384 16C12.9421 16 13.4628 15.8995 13.9461 15.6984C14.4293 15.4974 14.8666 15.1815 15.2578 14.7507C15.488 14.4979 15.6692 14.2251 15.8015 13.9321C15.9338 13.6449 16 13.3549 16 13.0619C16 12.8437 15.9569 12.6369 15.8706 12.4416C15.7843 12.2405 15.6375 12.0682 15.4304 11.9246L12.781 10.0463C12.5796 9.90845 12.3927 9.80506 12.2201 9.73613C12.0475 9.66721 11.8835 9.63274 11.7282 9.63274C11.5325 9.63274 11.3427 9.68731 11.1586 9.79645C10.9745 9.89984 10.7846 10.0492 10.589 10.2445L9.97627 10.8476C9.88997 10.9395 9.78065 10.9855 9.64833 10.9855C9.57929 10.9855 9.51312 10.974 9.44984 10.951C9.3923 10.928 9.3434 10.9079 9.30313 10.8907C9.03272 10.7471 8.68752 10.5001 8.26753 10.1497C7.84754 9.79357 7.42467 9.40298 6.99892 8.97792C6.57893 8.55286 6.19058 8.13068 5.83387 7.71136C5.47717 7.29205 5.22977 6.95028 5.09169 6.68605C5.06868 6.6401 5.04567 6.5884 5.02265 6.53096C5.00539 6.46778 4.99676 6.4046 4.99676 6.34141C4.99676 6.21504 5.03991 6.10878 5.12621 6.02262L5.73894 5.39365C5.9288 5.19835 6.07839 5.0088 6.1877 4.82499C6.29702 4.64118 6.35167 4.45162 6.35167 4.25633C6.35167 4.10124 6.31428 3.93753 6.23948 3.76521C6.17044 3.59289 6.06401 3.40621 5.92017 3.20517L4.06472 0.594507C3.91514 0.387722 3.73679 0.238377 3.52967 0.146473C3.32255 0.0488243 3.10392 0 2.87379 0C2.28119 0 1.726 0.249865 1.2082 0.749596C0.788206 1.15168 0.480403 1.59684 0.28479 2.08508C0.0949299 2.56758 0 3.08455 0 3.63597C0 4.46311 0.192736 5.33333 0.578209 6.24663C0.963682 7.15419 1.48723 8.06462 2.14887 8.97792C2.8105 9.89122 3.55556 10.7614 4.38403 11.5886Z" fill="white"/>
</svg>
