<svg width="50" height="50" viewBox="0 0 50 50" fill="none" xmlns="http://www.w3.org/2000/svg">
<g opacity="0.4" clip-path="url(#clip0)">
<path d="M37.8208 41.5409L46.8315 43.9553L40.1805 55.2957C39.1807 57.0304 37.1389 57.8752 35.2056 57.3539C33.8252 57.0015 32.6943 56.0144 32.1584 54.6944C31.6002 53.4256 31.7156 51.9614 32.4659 50.7958L37.8208 41.5409Z" fill="white"/>
<path d="M8.55271 14.5309L9.10303 14.6784L5.78552 27.0595L5.2352 26.912C1.81622 25.9959 -0.212621 22.4817 0.703457 19.0628C1.61957 15.6438 5.13386 13.6149 8.55271 14.5309Z" fill="white"/>
<path d="M55.474 28.725L52.8569 38.4923C52.1047 41.0018 49.4932 42.4579 46.9632 41.7788L34.4445 38.4245L39.4208 19.8528L51.9395 23.2071C54.4157 23.8706 56.1375 26.2488 55.474 28.725Z" fill="white"/>
<path d="M32.3097 38.1467L4.13207 41.5075L14.7849 1.75041L37.5071 18.7498L32.3097 38.1467Z" fill="white"/>
</g>
<defs>
<clipPath id="clip0">
<rect width="50" height="50" fill="white"/>
</clipPath>
</defs>
</svg>
