<svg width="28" height="28" viewBox="0 0 28 28" fill="none" xmlns="http://www.w3.org/2000/svg">
<g clip-path="url(#clip0)">
<path d="M20.6706 12.4059L19.5946 12.172C19.501 11.8856 19.3851 11.6061 19.2483 11.337L19.844 10.4104C19.9504 10.2448 19.927 10.0275 19.7879 9.8884L18.1116 8.2121C17.9725 8.07303 17.7552 8.04964 17.5896 8.15602L16.663 8.75171C16.3939 8.61488 16.1144 8.49899 15.828 8.40543L15.5941 7.32941C15.5523 7.13715 15.382 7 15.1853 7H12.8147C12.618 7 12.4477 7.13715 12.4059 7.32941L12.172 8.40543C11.8856 8.49899 11.6061 8.61488 11.337 8.75171L10.4104 8.15602C10.2448 8.04964 10.0275 8.07303 9.8884 8.2121L8.2121 9.8884C8.07303 10.0275 8.04964 10.2448 8.15602 10.4104L8.75171 11.337C8.61488 11.6061 8.49899 11.8856 8.40543 12.172L7.32941 12.4059C7.13715 12.4478 7 12.618 7 12.8147V15.1853C7 15.382 7.13715 15.5522 7.32941 15.5941L8.40543 15.828C8.49899 16.1144 8.61488 16.3939 8.75171 16.663L8.15602 17.5896C8.04964 17.7552 8.07303 17.9725 8.2121 18.1116L9.8884 19.7879C10.0275 19.927 10.2448 19.9504 10.4104 19.844L11.337 19.2483C11.6061 19.3851 11.8856 19.501 12.172 19.5946L12.4059 20.6706C12.4477 20.8629 12.618 21 12.8147 21H15.1853C15.382 21 15.5523 20.8629 15.5941 20.6706L15.828 19.5946C16.1144 19.501 16.3939 19.3851 16.663 19.2483L17.5896 19.844C17.7552 19.9504 17.9725 19.9271 18.1116 19.7879L19.7879 18.1116C19.927 17.9725 19.9504 17.7552 19.844 17.5896L19.2483 16.663C19.3851 16.3939 19.501 16.1144 19.5946 15.828L20.6706 15.5941C20.8629 15.5522 21 15.382 21 15.1853V12.8147C21 12.618 20.8629 12.4478 20.6706 12.4059ZM16.51 14C16.51 15.384 15.384 16.51 14 16.51C12.616 16.51 11.49 15.384 11.49 14C11.49 12.616 12.616 11.49 14 11.49C15.384 11.49 16.51 12.616 16.51 14Z" fill="#5B5B5B"/>
</g>
<defs>
<clipPath id="clip0">
<rect width="14" height="14" fill="white" transform="translate(7 7)"/>
</clipPath>
</defs>
</svg>
