<svg width="50" height="50" viewBox="0 0 50 50" fill="none" xmlns="http://www.w3.org/2000/svg">
<circle cx="25" cy="25" r="25" fill="url(#paint0_linear)"/>
<g clip-path="url(#clip0)">
<path d="M25 22.6859C27.2523 22.6859 29.0781 20.86 29.0781 18.6077C29.0781 16.3554 27.2523 14.5296 25 14.5296C22.7477 14.5296 20.9219 16.3554 20.9219 18.6077C20.9219 20.86 22.7477 22.6859 25 22.6859Z" fill="white"/>
<path d="M33.25 22.6858C34.6739 22.6858 35.8281 21.5315 35.8281 20.1077C35.8281 18.6838 34.6739 17.5295 33.25 17.5295C31.8261 17.5295 30.6719 18.6838 30.6719 20.1077C30.6719 21.5315 31.8261 22.6858 33.25 22.6858Z" fill="white"/>
<path d="M16.75 22.6858C18.1739 22.6858 19.3281 21.5315 19.3281 20.1077C19.3281 18.6838 18.1739 17.5295 16.75 17.5295C15.3261 17.5295 14.1719 18.6838 14.1719 20.1077C14.1719 21.5315 15.3261 22.6858 16.75 22.6858Z" fill="white"/>
<path d="M19.2902 25.001C18.2753 24.1695 17.3562 24.2796 16.1828 24.2796C14.4278 24.2796 13 25.699 13 27.4432V32.5624C13 33.3199 13.6183 33.9358 14.3786 33.9358C17.6611 33.9358 17.2656 33.9952 17.2656 33.7943C17.2656 30.1668 16.836 27.5066 19.2902 25.001Z" fill="white"/>
<path d="M26.1172 24.2984C24.0676 24.1274 22.2862 24.3003 20.7496 25.5687C18.1781 27.6283 18.673 30.4016 18.673 33.7943C18.673 34.6919 19.4033 35.4358 20.3146 35.4358C30.209 35.4358 30.6028 35.755 31.1895 34.4557C31.382 34.0163 31.3292 34.1559 31.3292 29.9524C31.3292 26.6137 28.4383 24.2984 26.1172 24.2984Z" fill="white"/>
<path d="M33.8183 24.2795C32.6384 24.2795 31.7244 24.1706 30.7109 25.001C33.1468 27.4879 32.7355 29.9666 32.7355 33.7942C32.7355 33.9964 32.4072 33.9358 35.5733 33.9358C36.3608 33.9358 37.0011 33.2978 37.0011 32.5136V27.4431C37.0011 25.6989 35.5733 24.2795 33.8183 24.2795Z" fill="white"/>
</g>
<defs>
<linearGradient id="paint0_linear" x1="0" y1="25" x2="50" y2="25" gradientUnits="userSpaceOnUse">
<stop stop-color="#A1C4FD"/>
<stop offset="1" stop-color="#C2E9FB"/>
</linearGradient>
<clipPath id="clip0">
<rect width="24" height="24" fill="white" transform="translate(13 13)"/>
</clipPath>
</defs>
</svg>
