<svg width="26" height="26" viewBox="0 0 26 26" fill="none" xmlns="http://www.w3.org/2000/svg">
<path d="M12.9995 5.1454C10.4749 5.1454 8.42871 7.1916 8.42871 9.7162C8.42871 12.2408 10.4749 14.287 12.9995 14.287C15.5241 14.287 17.5703 12.2408 17.5703 9.7162C17.5703 7.1916 15.5241 5.1454 12.9995 5.1454Z" fill="#8A8A8E"/>
<path d="M12.9998 0.26001C5.96157 0.26001 0.259766 5.96181 0.259766 13C0.259766 16.0108 1.31277 18.7772 3.05997 20.9586C5.39477 23.8706 8.97757 25.74 12.9998 25.74C17.022 25.74 20.6048 23.8706 22.9396 20.9586C24.6868 18.7772 25.7398 16.0134 25.7398 13C25.7398 5.96181 20.0328 0.26001 12.9998 0.26001ZM22.2636 20.1682C19.96 17.6904 16.6684 16.1304 12.9998 16.1304C9.33117 16.1304 6.03957 17.693 3.73597 20.1682C2.20197 18.187 1.27637 15.704 1.27637 13C1.27637 6.52601 6.52577 1.27401 13.0024 1.27401C19.4764 1.27401 24.7284 6.52341 24.7284 13C24.7258 15.704 23.7976 18.1844 22.2636 20.1682Z" fill="#8A8A8E"/>
</svg>
