<svg width="40" height="40" viewBox="0 0 40 40" fill="none" xmlns="http://www.w3.org/2000/svg">
<path d="M39.8986 34.2751C39.7227 33.4304 38.8952 32.8882 38.0505 33.064C37.2055 33.2399 36.6633 34.0673 36.8392 34.9122C36.9405 35.3987 36.8199 35.8976 36.5083 36.2808C36.3277 36.5026 35.9254 36.875 35.2584 36.875H28.2031C27.3402 36.875 26.6406 37.5745 26.6406 38.4375C26.6406 39.3005 27.3402 40 28.2031 40H35.2584C36.6903 40 38.0295 39.363 38.9327 38.2524C39.8404 37.1362 40.1925 35.6866 39.8986 34.2751Z" fill="white"/>
<path d="M21.5867 21.3101C26.7201 21.7829 31.3896 24.5342 34.2979 28.8716C34.7784 29.5884 35.7492 29.7799 36.4658 29.2993C37.1826 28.8187 37.374 27.848 36.8935 27.1313C34.3296 23.3074 30.6064 20.5274 26.3613 19.1304C28.9484 17.1906 30.6253 14.1 30.6253 10.625C30.6253 4.76633 25.8589 0 20.0003 0C14.1417 0 9.37534 4.76633 9.37534 10.625C9.37534 14.1023 11.0544 17.1947 13.6443 19.1341C11.2716 19.9152 9.04502 21.13 7.09643 22.7327C3.52362 25.6716 1.03948 29.7708 0.101742 34.2752C-0.192164 35.6866 0.159946 37.1362 1.0676 38.2524C1.97073 39.363 3.31002 40 4.74198 40H11.5628C12.4258 40 13.1253 39.3005 13.1253 38.4375C13.1253 37.5745 12.4258 36.875 11.5628 36.875H4.74182C4.07479 36.875 3.67245 36.5027 3.4919 36.2808C3.18026 35.8975 3.05963 35.3988 3.16096 34.9121C4.69096 27.563 10.8938 22.0838 18.2537 21.3273L15.2708 34.8984C15.1565 35.4189 15.3153 35.9618 15.6921 36.3386L18.8172 39.4641C19.1102 39.7573 19.5077 39.9219 19.9222 39.9219C20.3367 39.9219 20.7341 39.7572 21.0271 39.4641L24.152 36.3386C24.5288 35.9617 24.6875 35.4189 24.5731 34.8984L21.5867 21.3101ZM12.5003 10.625C12.5003 6.48945 15.8648 3.125 20.0003 3.125C24.1359 3.125 27.5003 6.48945 27.5003 10.625C27.5003 14.6357 24.3359 17.921 20.3726 18.1158C20.2487 18.1135 20.1246 18.112 20.0003 18.112C19.8784 18.112 19.7566 18.1138 19.6348 18.116C15.6684 17.9247 12.5003 14.638 12.5003 10.625ZM19.9221 36.1495L18.5067 34.7338L19.9221 28.2944L21.3374 34.7339L19.9221 36.1495Z" fill="white"/>
</svg>
