<svg width="20" height="20" viewBox="0 0 20 20" fill="none" xmlns="http://www.w3.org/2000/svg">
<path d="M0 17.6562H5.27645L5.86238 15.3125H4.72656V14.1406H15.2734V15.3125H14.1376L14.7236 17.6562H20V0H0V17.6562ZM15.2734 12.3047H14.1016V11.1328H15.2734V12.3047ZM15.2734 9.96094H14.1016V8.78906H15.2734V9.96094ZM15.2734 7.61719H14.1016V6.44531H15.2734V7.61719ZM17.6172 12.3047H16.4453V11.1328H17.6172V12.3047ZM17.6172 9.96094H16.4453V8.78906H17.6172V9.96094ZM17.6172 7.61719H16.4453V6.44531H17.6172V7.61719ZM11.7578 1.75781H17.6172V5.27344H11.7578V1.75781ZM11.7578 6.44531H12.9297V7.61719H11.7578V6.44531ZM11.7578 8.78906H12.9297V9.96094H11.7578V8.78906ZM11.7578 11.1328H12.9297V12.3047H11.7578V11.1328ZM2.38281 1.75781H10.5859V12.3047H2.38281V1.75781Z" fill="#1BBD1B"/>
<path d="M9.41406 2.92969H3.55469V4.10156H9.41406V2.92969Z" fill="#1BBD1B"/>
<path d="M9.41406 5.27344H3.55469V11.1328H9.41406V5.27344Z" fill="#1BBD1B"/>
<path d="M16.4453 2.92969H12.9297V4.10156H16.4453V2.92969Z" fill="#1BBD1B"/>
<path d="M7.07031 15.3125L5.89844 20H14.1016L12.9297 15.3125H7.07031Z" fill="#1BBD1B"/>
</svg>
