<svg width="20" height="20" viewBox="0 0 20 20" fill="none" xmlns="http://www.w3.org/2000/svg">
<path d="M7.07031 4.14062V7.07031H12.9297V4.14062C12.9297 3.93598 12.9248 3.74086 12.9163 3.55469H7.08375C7.0752 3.74086 7.07031 3.93598 7.07031 4.14062Z" fill="#1BBD1B"/>
<path d="M5.89844 4.14062C5.89844 3.93715 5.90305 3.7423 5.9109 3.55469H1.75781C0.788555 3.55469 0 4.34324 0 5.3125V7.07031H5.89844V4.14062Z" fill="#1BBD1B"/>
<path d="M3.55469 10C3.55469 10.3236 3.29234 10.5859 2.96875 10.5859C2.64516 10.5859 2.38281 10.3236 2.38281 10V8.24219H0V18.2422C0 19.2114 0.788555 20 1.75781 20H18.2422C19.2114 20 20 19.2114 20 18.2422V8.24219H3.55469V10ZM8.82812 16.4648H11.1719C11.4955 16.4648 11.7578 16.7272 11.7578 17.0508C11.7578 17.3744 11.4955 17.6367 11.1719 17.6367H8.82812C8.50453 17.6367 8.24219 17.3744 8.24219 17.0508C8.24219 16.7272 8.50453 16.4648 8.82812 16.4648Z" fill="#1BBD1B"/>
<path d="M14.1013 7.07031H19.9998V5.3125C19.9998 4.34324 19.2112 3.55469 18.242 3.55469H14.0889C14.0967 3.7423 14.1013 3.93715 14.1013 4.14062V7.07031Z" fill="#1BBD1B"/>
<path d="M7.47531 1.17188H12.525C12.6597 1.58812 12.863 2.39027 12.9165 3.55469H14.0893C14.0029 1.48324 13.4814 0.380586 13.4573 0.330742C13.3595 0.128477 13.1546 0 12.9299 0H7.07055C6.84586 0 6.64098 0.128477 6.54312 0.330742C6.51898 0.380586 5.99762 1.48324 5.91113 3.55469H7.08398C7.1375 2.38945 7.34098 1.58711 7.47531 1.17188Z" fill="#1BBD1B"/>
</svg>
