<svg width="20" height="20" viewBox="0 0 20 20" fill="none" xmlns="http://www.w3.org/2000/svg">
<path d="M19.2857 14.2857H16.4285C16.274 14.2857 16.1236 14.3358 16 14.4285L13.5714 16.25L11.1428 14.4285C11.0192 14.3358 10.8688 14.2857 10.7142 14.2857H0.714299C0.319796 14.2857 0 14.6055 0 15V16.4285C0.00234375 18.4 1.59994 19.9976 3.57141 20H16.4285C18.4 19.9976 19.9976 18.4 20 16.4285V15C20 14.6055 19.6802 14.2857 19.2857 14.2857Z" fill="#1BBD1B"/>
<path d="M19.2857 11.4285H0.714299C0.319796 11.4285 0 11.7483 0 12.1428C0 12.5373 0.319796 12.8571 0.714299 12.8571H19.2857C19.6802 12.8571 20 12.5373 20 12.1428C20 11.7483 19.6802 11.4285 19.2857 11.4285Z" fill="#1BBD1B"/>
<path d="M10.7143 0H9.28572C4.15982 0.00590121 0.00590122 4.15981 0 9.28571C0 9.68021 0.319796 10 0.714299 10H19.2857C19.6802 10 20 9.68021 20 9.28571C19.9941 4.15981 15.8402 0.00590121 10.7143 0ZM7.14287 5.71426C7.14287 6.10876 6.82307 6.42856 6.42857 6.42856C6.03406 6.42856 5.71427 6.10876 5.71427 5.71426V4.99996C5.71427 4.60546 6.03406 4.28566 6.42857 4.28566C6.82307 4.28566 7.14287 4.60546 7.14287 4.99996V5.71426ZM10.7143 5.71426C10.7143 6.10876 10.3945 6.42856 9.99998 6.42856C9.60548 6.42856 9.28568 6.10876 9.28568 5.71426V4.99996C9.28568 4.60546 9.60548 4.28566 9.99998 4.28566C10.3945 4.28566 10.7143 4.6055 10.7143 5V5.71426ZM14.2857 5.71426C14.2857 6.10876 13.9659 6.42856 13.5714 6.42856C13.1769 6.42856 12.8571 6.10876 12.8571 5.71426V4.99996C12.8571 4.60546 13.1769 4.28566 13.5714 4.28566C13.9659 4.28566 14.2857 4.60546 14.2857 4.99996V5.71426Z" fill="#1BBD1B"/>
</svg>
