<svg width="20" height="17" viewBox="0 0 20 17" fill="none" xmlns="http://www.w3.org/2000/svg">
<path d="M19.9997 9.20515C19.9997 8.81176 19.9109 8.43602 19.7505 8.09226C19.734 8.00487 19.7151 7.91761 19.6915 7.82911L17.9542 3.52369L17.9424 3.48495C17.3346 1.67508 16.4697 0 14.2766 0H5.89163C3.6445 0 2.85043 1.71658 2.22927 3.4749L0.412068 7.79082C0.149359 8.21173 0 8.69323 0 9.20515V10.5449C0 10.752 0.0244837 10.9546 0.0710384 11.1498C0.0257794 11.2677 0 11.3947 0 11.5287V15.5133C0 16.0976 0.473679 16.5714 1.05798 16.5714H3.25347C3.83746 16.5714 4.31114 16.0976 4.31114 15.5133V13.5207H15.814V15.5133C15.814 16.0976 16.2878 16.5714 16.8721 16.5714H18.9419C19.5264 16.5714 20 16.0976 20 15.5133V11.5282C20 11.3948 19.974 11.2671 19.9291 11.1496C19.9754 10.9542 20 10.7518 20 10.5447V9.2052H19.9997V9.20515ZM3.51859 3.90716C4.21035 1.95548 4.76663 1.35969 5.89163 1.35969H14.2761C15.3929 1.35969 16.0147 2.02419 16.6466 3.89876L17.9143 6.46785C17.5004 6.31456 17.0448 6.22949 16.5663 6.22949H3.43348C3.00256 6.22949 2.59076 6.29879 2.21081 6.4242L3.51859 3.90716ZM4.60762 11.0537H2.29115C1.87407 11.0537 1.53582 10.7151 1.53582 10.2981C1.53582 9.88091 1.87407 9.54256 2.29115 9.54256H4.60762C5.02487 9.54256 5.36313 9.88091 5.36313 10.2981C5.36313 10.7151 5.02465 11.0537 4.60762 11.0537ZM12.7907 10.9023H7.40247C7.13829 10.9023 6.92424 10.6882 6.92424 10.4241C6.92424 10.1596 7.13829 9.94547 7.40247 9.94547H12.7907C13.0552 9.94547 13.2692 10.1596 13.2692 10.4241C13.2692 10.6882 13.0552 10.9023 12.7907 10.9023ZM17.6502 11.0537H15.3338C14.9164 11.0537 14.5783 10.7151 14.5783 10.2981C14.5783 9.88091 14.9166 9.54256 15.3338 9.54256H17.6502C18.0676 9.54256 18.406 9.88091 18.406 10.2981C18.406 10.7151 18.0676 11.0537 17.6502 11.0537Z" fill="#1BBD1B"/>
</svg>
