<svg width="20" height="20" viewBox="0 0 20 20" fill="none" xmlns="http://www.w3.org/2000/svg">
<g clip-path="url(#clip0)">
<path d="M6.0498 8.20427H7.9025V16.4857H6.0498V8.20427Z" fill="#1BBD1B"/>
<path d="M9.07324 8.20427H10.9258V16.4857H9.07324V8.20427Z" fill="#1BBD1B"/>
<path d="M12.0986 8.20427H13.9513V16.4857H12.0986V8.20427Z" fill="#1BBD1B"/>
<path d="M3.02539 8.20427H4.87805V16.4857H3.02539V8.20427Z" fill="#1BBD1B"/>
<path d="M15.1221 8.20427H16.9747V16.4857H15.1221V8.20427Z" fill="#1BBD1B"/>
<path d="M0 5.86052H20V7.03239H0V5.86052Z" fill="#1BBD1B"/>
<path d="M19.5504 4.68812L10.0003 0.0011673L0.450195 4.68812H19.5504Z" fill="#1BBD1B"/>
<path d="M18.1475 8.20427H20.0005V16.4857H18.1475V8.20427Z" fill="#1BBD1B"/>
<path d="M0 17.6574H20V20.0012H0V17.6574Z" fill="#1BBD1B"/>
<path d="M0 8.20427H1.8527V16.4857H0V8.20427Z" fill="#1BBD1B"/>
</g>
<defs>
<clipPath id="clip0">
<rect width="20" height="20" fill="white"/>
</clipPath>
</defs>
</svg>
