<svg width="20" height="20" viewBox="0 0 20 20" fill="none" xmlns="http://www.w3.org/2000/svg">
<g clip-path="url(#clip0)">
<path d="M15.6591 12.6964C15.6022 12.1587 15.5363 11.5344 15.4669 10.8803C11.9564 11.4537 7.98305 11.4439 4.53356 10.8807C4.46297 11.547 4.39748 12.1666 4.3418 12.6952C8.00572 13.1862 12.001 13.1866 15.6591 12.6964Z" fill="#1BBD1B"/>
<path d="M15.3427 9.70859C15.3405 9.68789 14.8817 5.35247 14.8784 5.31918C14.7815 4.40271 13.8821 3.7904 12.9917 4.04075L10.1592 4.83761C10.0553 4.86702 9.94468 4.86702 9.84076 4.83761L7.00821 4.04075C6.1175 3.79028 5.2184 4.40314 5.12154 5.31918C5.12154 5.31926 4.65723 9.70899 4.65723 9.70899C7.95962 10.2551 11.8557 10.2864 15.3427 9.70859Z" fill="#1BBD1B"/>
<path d="M18.9706 13.3012C13.542 14.5311 6.61039 14.5593 1.03098 13.3012C0.503843 13.181 0 13.584 0 14.127C0 14.5172 0.263137 14.8549 0.640392 14.9494C6.3258 16.3708 13.6732 16.3714 19.3596 14.9494C19.7369 14.8549 20 14.5172 20 14.1278C20 13.585 19.4973 13.1823 18.9706 13.3012Z" fill="#1BBD1B"/>
</g>
<defs>
<clipPath id="clip0">
<rect width="20" height="20" fill="white"/>
</clipPath>
</defs>
</svg>
