<svg width="20" height="20" viewBox="0 0 20 20" fill="none" xmlns="http://www.w3.org/2000/svg">
<g clip-path="url(#clip0)">
<path d="M10.0005 2.98272C10.8668 2.98272 11.6151 2.43035 11.8839 1.61777C11.371 1.75894 10.7174 1.84414 10.0005 1.84414C9.28365 1.84414 8.62997 1.75894 8.11719 1.61777C8.38586 2.43028 9.13409 2.98272 10.0005 2.98272Z" fill="#1BBD1B"/>
<path d="M19.9751 3.98199C19.934 3.86654 19.8484 3.77159 19.7368 3.71988L15.9238 1.95963C15.1127 1.68487 14.2864 1.46783 13.452 1.3092C13.4226 1.30345 13.3934 1.30067 13.3645 1.30067C13.158 1.30067 12.973 1.44326 12.927 1.65238C12.6223 2.99372 11.435 3.99796 9.99996 3.99796C8.56503 3.99796 7.37759 2.99379 7.07298 1.65238C7.02642 1.44326 6.8418 1.30067 6.63539 1.30067C6.60656 1.30067 6.57732 1.30345 6.54795 1.3092C5.71364 1.46783 4.88732 1.68487 4.07493 1.95963L0.263222 3.71982C0.151015 3.77152 0.0647961 3.86647 0.0256118 3.98192C-0.0149261 4.09873 -0.00761713 4.22481 0.0495014 4.33499L1.70485 7.60184C1.78234 7.75689 1.93996 7.84994 2.10671 7.84994C2.14976 7.84994 2.19341 7.84372 2.23645 7.83079L4.075 7.28586V18.2473C4.075 18.4962 4.2781 18.6993 4.52769 18.6993H15.4724C15.7214 18.6993 15.9238 18.4962 15.9238 18.2473V7.286L17.7637 7.83092C17.8067 7.84385 17.8503 7.85008 17.8933 7.85008C18.0597 7.85008 18.2167 7.75702 18.2953 7.60198L19.9512 4.33512C20.007 4.22488 20.015 4.0988 19.9751 3.98199Z" fill="#1BBD1B"/>
</g>
<defs>
<clipPath id="clip0">
<rect width="20" height="20" fill="white"/>
</clipPath>
</defs>
</svg>
