<svg width="14" height="14" viewBox="0 0 14 14" fill="none" xmlns="http://www.w3.org/2000/svg">
<g clip-path="url(#clip0)">
<path d="M5.79705 8.20286C4.46077 6.86658 4.15905 5.53031 4.09098 4.99493C4.07196 4.84689 4.1229 4.69844 4.22881 4.59327L5.31019 3.51238C5.46926 3.3534 5.49749 3.10565 5.37826 2.91496L3.6565 0.241445C3.52459 0.0302982 3.25374 -0.0459068 3.03108 0.0654796L0.26705 1.36724C0.0869951 1.4559 -0.0189107 1.6472 0.00153257 1.84686C0.14636 3.22272 0.746188 6.60493 4.06998 9.92896C7.39377 13.253 10.7755 13.8526 12.1521 13.9974C12.3517 14.0179 12.543 13.9119 12.6317 13.7319L13.9335 10.9679C14.0444 10.7457 13.9687 10.4756 13.7585 10.3434L11.0849 8.62214C10.8944 8.50278 10.6466 8.53081 10.4875 8.68972L9.40664 9.7711C9.30147 9.87701 9.15301 9.92795 9.00498 9.90893C8.4696 9.84086 7.13333 9.53913 5.79705 8.20286Z" fill="#B3B3B3"/>
<path d="M10.6204 5.54937V6.50355C10.6204 6.59595 10.6732 6.68024 10.7563 6.72062C10.8394 6.761 10.9383 6.75038 11.0109 6.69327L13.7605 4.53268C13.8182 4.48748 13.852 4.41822 13.852 4.34489C13.852 4.27155 13.8182 4.2023 13.7605 4.1571L11.0066 1.99337C10.9346 1.93728 10.8369 1.92706 10.7549 1.96701C10.6728 2.00696 10.6206 2.09013 10.6204 2.18141V3.14161C10.6201 3.27273 10.5144 3.37926 10.3833 3.38058C9.3401 3.39386 7.04217 3.56306 6.59368 5.72196C6.57348 5.82116 6.61804 5.92231 6.70488 5.97436C6.79171 6.0264 6.90193 6.01802 6.97989 5.95344C7.36392 5.63965 8.03761 5.31041 9.1721 5.31041H10.3814C10.5134 5.31041 10.6204 5.4174 10.6204 5.54937Z" fill="#B3B3B3"/>
</g>
<defs>
<clipPath id="clip0">
<rect width="14" height="14" fill="white"/>
</clipPath>
</defs>
</svg>
