<svg width="20" height="20" viewBox="0 0 20 20" fill="none" xmlns="http://www.w3.org/2000/svg">
<path d="M5.48004 14.4857C6.51564 15.5197 7.60877 16.4531 8.75944 17.2859C9.9101 18.1188 11.0608 18.7794 12.2114 19.2676C13.3621 19.7559 14.4516 20 15.48 20C16.1776 20 16.8285 19.8743 17.4326 19.623C18.0367 19.3717 18.5832 18.9768 19.0723 18.4383C19.3599 18.1224 19.5865 17.7814 19.7519 17.4152C19.9173 17.0562 20 16.6936 20 16.3274C20 16.0546 19.9461 15.7961 19.8382 15.552C19.7303 15.3007 19.5469 15.0853 19.288 14.9058L15.9763 12.5579C15.7246 12.3856 15.4908 12.2563 15.2751 12.1702C15.0593 12.084 14.8544 12.0409 14.6602 12.0409C14.4157 12.0409 14.1784 12.1091 13.9482 12.2456C13.7181 12.3748 13.4808 12.5615 13.2362 12.8056L12.4703 13.5595C12.3625 13.6744 12.2258 13.7318 12.0604 13.7318C11.9741 13.7318 11.8914 13.7175 11.8123 13.6887C11.7404 13.66 11.6793 13.6349 11.6289 13.6134C11.2909 13.4339 10.8594 13.1251 10.3344 12.6871C9.80942 12.242 9.28083 11.7537 8.74865 11.2224C8.22366 10.6911 7.73822 10.1633 7.29234 9.6392C6.84646 9.11506 6.53722 8.68785 6.36462 8.35757C6.33585 8.30013 6.30708 8.23551 6.27832 8.1637C6.25674 8.08472 6.24595 8.00574 6.24595 7.92676C6.24595 7.7688 6.29989 7.63597 6.40777 7.52827L7.17368 6.74206C7.411 6.49794 7.59799 6.26099 7.73463 6.03123C7.87127 5.80147 7.93959 5.56453 7.93959 5.32041C7.93959 5.12655 7.89284 4.92192 7.79935 4.70652C7.71305 4.49111 7.58001 4.25776 7.40022 4.00646L5.08091 0.743134C4.89392 0.484653 4.67098 0.297972 4.41208 0.183091C4.15318 0.0610303 3.8799 0 3.59223 0C2.85149 0 2.1575 0.312332 1.51025 0.936995C0.985257 1.4396 0.600503 1.99605 0.355987 2.60635C0.118662 3.20948 0 3.85568 0 4.54496C0 5.57889 0.240921 6.66667 0.722762 7.80829C1.2046 8.94274 1.85904 10.0808 2.68608 11.2224C3.51312 12.364 4.44444 13.4518 5.48004 14.4857Z" fill="white"/>
</svg>
