<svg width="40" height="40" viewBox="0 0 40 40" fill="none" xmlns="http://www.w3.org/2000/svg">
<g clip-path="url(#clip0)">
<path d="M36.3372 23.8514C35.9995 23.0477 35.3865 22.4198 34.6107 22.0825C34.4716 22.022 34.3887 21.8748 34.4088 21.7242C34.4535 21.3972 34.4464 21.0657 34.3884 20.7395C34.0985 19.109 32.6178 18.004 31.0886 18.276C29.5592 18.5481 28.5507 20.096 28.8407 21.7262C28.9143 22.1413 29.0651 22.5287 29.2878 22.8774C29.3405 22.9593 29.3551 23.0598 29.3292 23.153C29.303 23.2466 29.2381 23.3246 29.1507 23.3669L26.9113 24.4829C26.8321 25.1726 26.6808 25.8587 26.3421 26.5123C24.8436 29.4059 20.893 29.5525 20.1159 29.5525H20.1158C20.0597 29.5525 20.0207 29.5518 20.0006 29.5513C19.9806 29.5518 19.9415 29.5525 19.8853 29.5525C19.1085 29.5525 15.1576 29.4059 13.659 26.5123C13.3205 25.8587 13.1691 25.1726 13.0898 24.483L10.8501 23.3669C10.7629 23.3246 10.6978 23.2465 10.6716 23.153C10.6454 23.0598 10.6606 22.9593 10.713 22.8774C10.9357 22.5287 11.0865 22.1412 11.1603 21.7262C11.45 20.096 10.4418 18.548 8.91224 18.276C7.38285 18.0041 5.90229 19.109 5.61262 20.7395C5.55444 21.0657 5.54756 21.3972 5.5922 21.7242C5.61238 21.8748 5.52947 22.022 5.39011 22.0825C4.61459 22.4198 4.00131 23.0479 3.6638 23.8514C3.33231 24.6397 3.3071 25.5036 3.5932 26.284C3.88311 27.0738 4.45519 27.6823 5.20401 27.9973C5.39959 28.0797 5.60426 28.1402 5.81201 28.177C7.18826 28.4219 8.62184 27.6114 9.22073 26.2499C9.25751 26.1654 9.32885 26.0989 9.41532 26.0672C9.50105 26.0357 9.59908 26.0406 9.68174 26.0809L16.6932 29.575L11.2959 32.2647C11.2122 32.3054 11.1121 32.3101 11.0249 32.2766C10.9372 32.2429 10.8666 32.1737 10.8308 32.0865L10.8114 32.0371C10.2243 30.6408 8.78088 29.8084 7.37965 30.0578C7.17203 30.0948 6.96735 30.1552 6.77117 30.2376C6.0296 30.5497 5.45998 31.1502 5.1681 31.9288C4.87351 32.7145 4.89614 33.5862 5.23107 34.3835C5.56908 35.1868 6.18236 35.8151 6.95788 36.1525C7.097 36.213 7.1799 36.3601 7.15948 36.5107C7.11508 36.8377 7.12172 37.1692 7.1799 37.4955C7.47006 39.1259 8.95037 40.2308 10.4803 39.959C12.0094 39.6867 13.0179 38.139 12.7281 36.5086C12.6608 36.1331 12.5295 35.777 12.3361 35.4504C12.2878 35.369 12.2758 35.2702 12.3031 35.1794C12.3301 35.0885 12.3949 35.0125 12.4801 34.9711L20.0006 31.2232L27.5213 34.9711C27.6065 35.0125 27.6715 35.0885 27.6982 35.1794C27.7256 35.2702 27.7135 35.369 27.6654 35.4504C27.4721 35.777 27.3404 36.1329 27.2733 36.5086C26.9837 38.139 27.9921 39.6867 29.5212 39.959C31.051 40.231 32.5311 39.1259 32.8213 37.4955C32.8797 37.1692 32.8863 36.8377 32.8417 36.5107C32.8215 36.3601 32.9044 36.213 33.0435 36.1525C33.8191 35.8151 34.4321 35.1868 34.7701 34.3835C35.1053 33.5862 35.1275 32.7145 34.8331 31.9288C34.5412 31.1502 33.9718 30.5496 33.23 30.2376C33.0337 30.1552 32.829 30.0948 32.6218 30.0578C31.2202 29.8084 29.7769 30.6408 29.1898 32.0371L29.1704 32.0865C29.1348 32.1738 29.064 32.2429 28.9763 32.2766C28.8891 32.3101 28.7889 32.3054 28.7053 32.2647L23.308 29.575L30.3194 26.0809C30.4021 26.0406 30.5001 26.0357 30.5861 26.0672C30.6723 26.099 30.7437 26.1654 30.7807 26.2499C31.3793 27.6116 32.8128 28.4219 34.1894 28.177C34.3972 28.1402 34.6017 28.0797 34.7974 27.9973C35.5462 27.6823 36.1179 27.0738 36.408 26.284C36.694 25.5036 36.6687 24.6396 36.3372 23.8514Z" fill="white"/>
<path d="M12.9097 19.3891L12.9468 19.4233L12.9751 19.4651C13.7449 20.6018 13.8074 21.8929 13.8678 23.1416C13.9193 24.2082 13.968 25.2154 14.4323 26.112C15.6991 28.5581 19.1971 28.6819 19.8855 28.6819C19.9468 28.6819 19.9818 28.681 19.9857 28.6807L20.0007 28.6802L20.0162 28.6807C20.0196 28.6808 20.0547 28.6818 20.1161 28.6818C20.8044 28.6818 24.3024 28.558 25.5693 26.1118C26.0336 25.2153 26.0824 24.2079 26.134 23.1414C26.1944 21.8927 26.2569 20.6015 27.0264 19.4649L27.0547 19.4231L27.0918 19.3889C28.0773 18.4807 28.9643 17.4629 29.7283 16.3632C30.9684 14.0062 31.473 10.6082 30.9838 7.89763C29.9982 2.43578 26.6109 0 20.0008 0C13.3908 0 10.0034 2.43578 9.01759 7.89788C8.52854 10.6081 9.03309 14.0062 10.2731 16.3634C11.0375 17.4633 11.9246 18.4812 12.9097 19.3891ZM21.3156 12.9959C21.8922 11.6387 23.7585 11.1329 25.4844 11.8659C27.2108 12.599 28.1424 14.2934 27.5659 15.6506C26.9895 17.0078 25.1232 17.5137 23.3972 16.7808C21.6712 16.0474 20.7391 14.353 21.3156 12.9959ZM22.3512 21.2301C22.3512 22.7828 21.2992 22.7393 20.0008 22.7393C18.7023 22.7393 17.6504 22.7828 17.6504 21.2301C17.6504 19.6777 20.0008 17.1169 20.0008 17.1169C20.0008 17.1169 22.3512 19.6777 22.3512 21.2301ZM14.517 11.8659C16.243 11.1328 18.1092 11.6386 18.6856 12.9959C19.2623 14.3531 18.3302 16.0475 16.6044 16.7808C14.8786 17.5138 13.0119 17.0079 12.4355 15.6506C11.8589 14.2936 12.7909 12.599 14.517 11.8659Z" fill="white"/>
</g>
<defs>
<clipPath id="clip0">
<rect width="40" height="40" fill="white"/>
</clipPath>
</defs>
</svg>
