<svg width="40" height="40" viewBox="0 0 40 40" fill="none" xmlns="http://www.w3.org/2000/svg">
<g clip-path="url(#clip0)">
<path d="M38.9145 20.1716C38.7945 20.1481 36.6423 19.7317 33.7541 19.5188C33.7682 19.2534 33.7756 18.9863 33.7756 18.7174C33.7756 10.4095 27.0165 3.65039 18.7085 3.65039C10.4005 3.65039 3.64133 10.4095 3.64133 18.7174C3.64133 20.469 3.94289 22.1512 4.4948 23.7164C2.5684 23.8785 1.16825 24.1494 1.08546 24.1656L0 24.3785L0.472768 25.3785C0.618517 25.6869 4.09289 32.9553 8.4447 35.1541C10.0152 35.9474 11.484 36.3498 12.8105 36.35C12.8108 36.35 12.8109 36.35 12.8111 36.35C14.7868 36.35 16.4046 35.4575 17.4226 33.8229C18.7581 35.4186 20.6377 36.2784 22.8621 36.2784C24.6341 36.2784 26.6041 35.7372 28.7173 34.6696C34.6004 31.6972 39.3288 21.8044 39.5272 21.3846L40 20.3846L38.9145 20.1716ZM31.122 13.8181C30.5541 13.3531 29.9001 12.918 29.1637 12.5192C28.2524 12.0256 27.2442 11.6053 26.1652 11.261C25.8209 10.1817 25.4005 9.17352 24.9067 8.26203C24.508 7.52579 24.0729 6.87175 23.6078 6.30385C27.032 7.66019 29.7659 10.3941 31.122 13.8181ZM31.9427 17.8564H27.2497C27.2002 16.2734 27.0139 14.7361 26.7024 13.2887C29.4989 14.3815 31.4679 16.0176 31.9427 17.8564ZM19.5695 5.48315C21.4085 5.95808 23.0446 7.92711 24.1374 10.7237C22.6899 10.4121 21.1527 10.2259 19.5695 10.1764V5.48315ZM19.5695 11.8989C21.4208 11.9627 23.1831 12.23 24.7693 12.6567C25.196 14.2429 25.4633 16.0051 25.5271 17.8563H19.5695V11.8989ZM19.5695 19.5784H25.5271C25.5245 19.6545 25.5216 19.7305 25.5183 19.8063C24.0824 20.0728 22.8414 20.4677 21.8068 20.9904C20.9806 21.4077 20.2347 21.8531 19.5695 22.3252V19.5784ZM17.8475 5.48315V10.1764C16.2644 10.2259 14.7271 10.4121 13.2796 10.7237C14.3724 7.92711 16.0086 5.95808 17.8475 5.48315ZM17.8475 11.8989V17.8564H11.8899C11.9536 16.0052 12.2209 14.2429 12.6477 12.6567C14.2339 12.23 15.9963 11.9628 17.8475 11.8989ZM13.8091 6.30405C13.344 6.87195 12.9089 7.52599 12.5102 8.26223C12.0165 9.17362 11.5961 10.1819 11.2518 11.2611C10.1726 11.6055 9.16446 12.0257 8.25297 12.5194C7.51673 12.9182 6.86269 13.3532 6.2948 13.8182C7.65113 10.394 10.3849 7.66019 13.8091 6.30405ZM10.7146 13.2886C10.4031 14.7361 10.2168 16.2733 10.1673 17.8564H5.47419C5.94903 16.0176 7.91806 14.3815 10.7146 13.2886ZM10.1673 19.5784C10.2135 21.055 10.3783 22.4919 10.653 23.8532C10.3581 23.804 10.0528 23.7616 9.737 23.7265C7.46345 22.6547 5.8915 21.1948 5.47419 19.5784H10.1673ZM15.5337 33.4782C14.9626 34.1084 14.101 34.6278 12.8111 34.6278H12.8107C11.7564 34.6277 10.5486 34.2877 9.2212 33.6171C6.29115 32.1366 3.64785 27.696 2.55775 25.6699C3.6435 25.5146 5.38143 25.3182 7.22612 25.3182C9.68184 25.3182 11.5934 25.6549 12.9079 26.319C14.0924 26.9173 14.9987 27.587 15.6205 28.3087C15.4969 29.5639 15.7363 30.849 16.3358 32.1089L7.6309 28.033L15.5337 33.4782ZM14.4029 25.1712C14.1728 25.0381 13.9339 24.9081 13.6843 24.782C13.3307 24.6033 12.9436 24.4457 12.5271 24.3071C12.1707 22.8458 11.9475 21.2484 11.8899 19.5783H17.8475V23.7902C17.3358 24.3205 16.9089 24.8771 16.5674 25.4588C15.8255 25.3946 15.1019 25.2978 14.4029 25.1712ZM27.9408 33.1325C26.0706 34.0773 24.3618 34.5563 22.8621 34.5563C20.8612 34.5563 19.5656 33.7017 18.7353 32.7062L30.6906 25.0482L17.9691 31.5337C17.9666 31.5285 17.9637 31.5233 17.9612 31.5182C16.2589 28.1482 17.9436 24.8712 22.5833 22.5274C24.4353 21.5917 27.1116 21.1173 30.5377 21.1173C33.3597 21.1173 36.0089 21.4507 37.4522 21.6711C36.0981 24.2474 32.2591 30.9508 27.9408 33.1325Z" fill="white"/>
</g>
<defs>
<clipPath id="clip0">
<rect width="40" height="40" fill="white"/>
</clipPath>
</defs>
</svg>
