<svg width="40" height="40" viewBox="0 0 40 40" fill="none" xmlns="http://www.w3.org/2000/svg">
<path d="M35.9286 24.1422L31.0919 15.7646L30.7541 18.1825L28.34 17.3535L33.1882 25.7511L33.2137 25.7936C33.5418 26.3231 33.7151 26.9346 33.7151 27.5625C33.7151 29.4029 32.2305 30.9032 30.3959 30.9284L30.375 30.9269L30.3218 30.9289H23.7756V28.8104L19.082 32.5177L23.7756 36.2251V34.1066H30.349C30.3511 34.1066 30.3535 34.1066 30.3557 34.1066L30.374 34.1064C33.9708 34.0929 36.8928 31.1624 36.8928 27.5625C36.8928 26.3517 36.5596 25.1695 35.9286 24.1422Z" fill="white"/>
<path d="M16.3436 32.456L17.9325 30.9292H9.54108C8.34223 30.9292 7.22526 30.2842 6.62583 29.246C6.02652 28.2078 6.02652 26.9178 6.62562 25.8796L9.58472 20.7545L11.3986 21.8257L10.5931 15.8989L5.01409 18.055L6.84838 19.1384L3.87371 24.291C2.70876 26.3091 2.70876 28.8166 3.87371 30.8349C5.03909 32.853 7.21075 34.107 9.54108 34.107H17.9325L16.3436 32.456Z" fill="white"/>
<path d="M12.5284 15.6562L17.0289 7.86064C17.6284 6.82259 18.7454 6.17772 19.9442 6.17772C21.1429 6.17772 22.26 6.82259 22.8594 7.86075L25.3703 12.2101L23.4672 13.2741L28.9936 15.5616L29.9391 9.65573L28.1443 10.6593L25.6114 6.27199C24.446 4.25372 22.2746 3 19.9442 3C17.6137 3 15.4422 4.25372 14.2769 6.27189L9.77637 14.0675L12.141 13.2627L12.5284 15.6562Z" fill="white"/>
<path d="M21.4114 26.2327V14.5811H19.6374L17.0381 16.3659V18.8953L19.026 17.5331V26.2327H21.4114Z" fill="white"/>
</svg>
