<svg width="40" height="40" viewBox="0 0 40 40" fill="none" xmlns="http://www.w3.org/2000/svg">
<g clip-path="url(#clip0)">
<path d="M19.2633 14.1333L29.8017 15.8123L33.5463 6.21989L33.0325 5.20291L30.7668 6.26522C30.3262 5.28901 29.6513 3.97874 28.6401 2.85644C26.7632 0.773202 24.5427 0.598778 22.6086 0.598778C22.5811 0.598778 14.2732 0.596191 14.2728 0.596191C13.0067 0.5973 12.0403 1.13794 11.4014 2.20099L6.55859 10.105L15.1545 14.5932L15.3027 14.3402C16.2718 12.6872 17.2663 11.0121 18.228 9.39204C18.5206 8.89907 18.8134 8.4061 19.1057 7.91301L21.221 11.7237L18.6228 12.9765L19.2633 14.1333ZM20.1787 6.12504L22.2574 2.46829C24.1903 2.47039 26.0298 2.60022 27.3269 4.03946C28.2862 5.10448 28.8937 6.36733 29.3612 7.46241L29.917 8.616L30.8913 8.15924L28.6731 13.8424L22.8299 12.9114L23.596 12.5399L20.1787 6.12504Z" fill="white"/>
<path d="M39.4995 21.6832L34.7757 13.708L26.7902 19.2096L26.9445 19.4589C27.918 21.0316 28.8992 22.6361 29.848 24.188C30.1817 24.7335 30.5152 25.279 30.8491 25.8243L26.4889 25.9132C26.507 25.3531 26.5412 24.4729 26.5592 24.0319L26.5991 23.0309L25.2759 23.0566L18.8662 31.5883L25.5959 39.3821L26.7355 39.4034L26.8555 36.9037C27.2644 36.9291 27.6415 36.9415 28.0007 36.9415C29.0605 36.9415 29.9971 36.8352 30.8634 36.6168C33.582 35.9312 34.7744 34.0495 35.679 32.3386C35.7118 32.2763 39.5372 25.0453 39.576 24.9721C40.1671 23.8531 40.1409 22.7457 39.4995 21.6832ZM30.431 34.9029C29.7043 35.0861 28.9152 35.1753 28.0189 35.1753C27.4121 35.1753 26.8353 35.1332 26.4541 35.1015L25.1742 35.0541L25.1227 36.1285L21.1354 31.5112L24.6895 26.7813L24.6596 27.6311L31.9285 27.6086L34.1893 31.1551C33.284 32.8631 32.3095 34.4287 30.431 34.9029Z" fill="white"/>
<path d="M9.55218 27.2331L11.7261 23.4491C12.2567 23.7922 13.1088 24.3523 13.3019 24.4796L14.1386 25.0303L14.7994 23.8835L10.7959 13.9917L0.647438 15.7378L0.0413886 16.7034L2.1213 18.0953C1.51217 18.9781 0.737976 20.2335 0.300068 21.6763C-0.515019 24.3598 0.482376 26.3515 1.47965 28.0047C1.49357 28.0284 5.06679 33.9582 5.78309 35.147C6.43706 36.229 7.39701 36.7776 8.64236 36.7776L17.5209 36.7794L17.5178 27.2108L9.55218 27.2331ZM7.46907 27.235L3.26404 27.343C2.26751 25.686 1.42877 24.0434 1.99159 22.1904C2.40806 20.819 3.17597 19.6466 3.87256 18.6803L4.57296 17.6088L3.67916 17.0104L9.69162 15.9754L11.911 21.4598L11.1979 20.9955L7.46907 27.235Z" fill="white"/>
</g>
<defs>
<clipPath id="clip0">
<rect width="40" height="40" fill="white"/>
</clipPath>
</defs>
</svg>
