<svg width="40" height="40" viewBox="0 0 40 40" fill="none" xmlns="http://www.w3.org/2000/svg">
<g clip-path="url(#clip0)">
<path d="M25.856 20.9838V5.85616C25.856 2.62707 23.2289 0 19.9998 0C16.7707 0 14.1437 2.62707 14.1437 5.85616V20.9838C11.3162 22.9127 9.58887 26.1432 9.58887 29.5892C9.58887 35.3298 14.2592 40.0002 19.9998 40.0002C25.7404 40.0002 30.4108 35.3298 30.4108 29.5892C30.4108 26.1435 28.6835 22.9127 25.856 20.9838ZM19.9998 37.3973C15.6944 37.3973 12.1916 33.8945 12.1916 29.5891C12.1916 26.8126 13.6879 24.2217 16.0969 22.8277L16.7464 22.4517V5.85616C16.7464 4.06222 18.2059 2.60274 19.9998 2.60274C21.7938 2.60274 23.2532 4.06222 23.2532 5.85616V22.4517L23.9028 22.8276C26.3116 24.2217 27.808 26.8126 27.808 29.5891C27.808 33.8945 24.3053 37.3973 19.9998 37.3973Z" fill="white"/>
<path d="M22.9248 24.5173L21.3011 23.5774V13.0187C21.3011 12.3009 20.7173 11.7173 19.9997 11.7173C19.2821 11.7173 18.6983 12.3009 18.6983 13.0187V23.5774L17.0746 24.5173C15.2665 25.5634 14.1436 27.5069 14.1436 29.5891C14.1436 32.8182 16.7705 35.4452 19.9997 35.4452C23.2288 35.4452 25.8559 32.8182 25.8559 29.5891C25.856 27.5069 24.7328 25.5636 22.9248 24.5173Z" fill="white"/>
</g>
<defs>
<clipPath id="clip0">
<rect width="40" height="40" fill="white"/>
</clipPath>
</defs>
</svg>
