<svg width="20" height="20" viewBox="0 0 20 20" fill="none" xmlns="http://www.w3.org/2000/svg">
<path d="M18.8907 17.2414H1.10931C0.496552 17.2414 0 16.7448 0 16.1321V3.86793C0 3.25517 0.496552 2.75862 1.10931 2.75862H18.8907C19.5034 2.75862 20 3.25517 20 3.86793V16.1321C20 16.7448 19.5034 17.2414 18.8907 17.2414Z" fill="#F0C41B"/>
<path d="M20 4.48276H0V7.24138H20V4.48276Z" fill="#806F5E"/>
<path d="M5.17093 9.65519H2.06748C1.87714 9.65519 1.72266 9.5007 1.72266 9.31036C1.72266 9.12001 1.87714 8.96553 2.06748 8.96553H5.17093C5.36128 8.96553 5.51576 9.12001 5.51576 9.31036C5.51576 9.5007 5.36128 9.65519 5.17093 9.65519Z" fill="#F9EAB0"/>
<path d="M9.65506 9.65517H6.55161C6.36127 9.65517 6.20679 9.50069 6.20679 9.31034C6.20679 9.12 6.36127 8.96552 6.55161 8.96552H9.65506C9.84541 8.96552 9.99989 9.12 9.99989 9.31034C9.99989 9.50069 9.84541 9.65517 9.65506 9.65517Z" fill="#F9EAB0"/>
<path d="M2.41231 11.3793H2.06748C1.87714 11.3793 1.72266 11.2248 1.72266 11.0345C1.72266 10.8441 1.87714 10.6897 2.06748 10.6897H2.41231C2.60266 10.6897 2.75714 10.8441 2.75714 11.0345C2.75714 11.2248 2.60266 11.3793 2.41231 11.3793Z" fill="#F9EAB0"/>
<path d="M4.48272 11.3793H3.79307C3.60272 11.3793 3.44824 11.2248 3.44824 11.0345C3.44824 10.8441 3.60272 10.6897 3.79307 10.6897H4.48272C4.67307 10.6897 4.82755 10.8441 4.82755 11.0345C4.82755 11.2248 4.67307 11.3793 4.48272 11.3793Z" fill="#F9EAB0"/>
<path d="M6.20528 11.3793H5.86045C5.67011 11.3793 5.51562 11.2248 5.51562 11.0345C5.51562 10.8441 5.67011 10.6897 5.86045 10.6897H6.20528C6.39562 10.6897 6.55011 10.8441 6.55011 11.0345C6.55011 11.2248 6.39562 11.3793 6.20528 11.3793Z" fill="#F9EAB0"/>
<path d="M8.27594 11.3793H7.58628C7.39594 11.3793 7.24146 11.2248 7.24146 11.0345C7.24146 10.8441 7.39594 10.6897 7.58628 10.6897H8.27594C8.46628 10.6897 8.62077 10.8441 8.62077 11.0345C8.62077 11.2248 8.46628 11.3793 8.27594 11.3793Z" fill="#F9EAB0"/>
<path d="M9.65342 11.3793C9.56377 11.3793 9.47411 11.3414 9.40859 11.2793C9.34653 11.2138 9.30859 11.1276 9.30859 11.0345C9.30859 10.9448 9.34653 10.8552 9.40859 10.7897C9.53618 10.6621 9.76721 10.6621 9.89825 10.7897C9.96032 10.8552 9.99825 10.9448 9.99825 11.0345C9.99825 11.1242 9.96032 11.2138 9.89825 11.2793C9.83273 11.3414 9.74308 11.3793 9.65342 11.3793Z" fill="#F9EAB0"/>
<path d="M15.8606 13.4483C15.8606 14.591 14.9344 15.5172 13.7916 15.5172C12.6489 15.5172 11.7227 14.591 11.7227 13.4483C11.7227 12.3055 12.6489 11.3793 13.7916 11.3793C14.9344 11.3793 15.8606 12.3055 15.8606 13.4483Z" fill="#DB2215"/>
<path d="M18.2746 13.4483C18.2746 14.591 17.3484 15.5172 16.2057 15.5172C15.0629 15.5172 14.1367 14.591 14.1367 13.4483C14.1367 12.3055 15.0629 11.3793 16.2057 11.3793C17.3484 11.3793 18.2746 12.3055 18.2746 13.4483Z" fill="#245EA9"/>
</svg>
