<svg width="24" height="24" viewBox="0 0 24 24" fill="none" xmlns="http://www.w3.org/2000/svg">
<g opacity="0.5">
<path d="M11.9976 14.0504V7.94876C11.8191 7.96476 11.6427 7.99176 11.4632 7.99976H6.32335C6.0386 7.99976 5.80751 8.22374 5.80751 8.49973V8.9997H4.25998C3.97524 8.9997 3.74414 9.22368 3.74414 9.49966V12.4995C3.74414 12.7755 3.97524 12.9994 4.25998 12.9994H5.80751V13.4994C5.80751 13.7754 6.0386 13.9994 6.32335 13.9994H6.63595L8.70963 19.3571C8.83652 19.678 9.12024 19.911 9.46895 19.979C9.53807 19.993 9.60719 20 9.67528 20C9.95074 20 10.2128 19.894 10.4006 19.704L11.6396 18.5131C11.9563 18.2061 12.0316 17.7272 11.8294 17.3562L10.0983 13.9994H11.4683C11.6458 14.0074 11.8212 14.0344 11.9976 14.0504Z" fill="white"/>
<path d="M20.1684 4.24198C20.1581 4.22499 20.1488 4.21099 20.1354 4.19499C20.0787 4.12499 20.0075 4.068 19.9198 4.035C19.9167 4.034 19.9146 4.03 19.9115 4.029C19.9012 4.026 19.8919 4.031 19.8816 4.028C19.8352 4.015 19.7888 4 19.7372 4C19.7021 4 19.6712 4.013 19.6371 4.02C19.6175 4.024 19.5989 4.025 19.5793 4.031C19.4906 4.059 19.4143 4.10699 19.3534 4.17299C19.3493 4.17699 19.3431 4.17799 19.339 4.18199C17.7306 6.07487 15.4877 7.34079 13.0312 7.80476V14.1954C15.4877 14.6593 17.7306 15.9243 19.339 17.8171C19.3431 17.8221 19.3503 17.8241 19.3555 17.8301C19.3916 17.8691 19.4359 17.9001 19.4834 17.9261C19.4989 17.9351 19.5112 17.9481 19.5267 17.9551C19.5917 17.9821 19.6619 17.9991 19.7372 17.9991C19.796 17.9991 19.8538 17.9891 19.9115 17.9701C19.9146 17.9691 19.9167 17.9651 19.9198 17.9641C20.0075 17.9311 20.0787 17.8751 20.1354 17.8041C20.1478 17.7881 20.1571 17.7741 20.1684 17.7571C20.2179 17.6802 20.253 17.5952 20.253 17.4992V4.49997C20.253 4.40397 20.2179 4.31898 20.1684 4.24198Z" fill="white"/>
</g>
</svg>
