<svg width="14" height="14" viewBox="0 0 14 14" fill="none" xmlns="http://www.w3.org/2000/svg">
<path d="M10.4269 0H10.3394C9.97692 0 9.68319 0.293691 9.68319 0.656118V3.73332H6.6169C6.51288 3.33146 6.15093 3.03332 5.71651 3.03332H5.24984C4.81542 3.03332 4.45347 3.33146 4.34945 3.73332H4.08317C3.43889 3.73332 2.9165 4.25583 2.9165 4.89998V12.8333C2.9165 13.4775 3.43889 14 4.08317 14H9.9165C10.561 14 11.0832 13.4775 11.0832 12.8333V6.34384V4.89998V0.656118C11.0832 0.293691 10.7894 0 10.4269 0ZM4.5498 12.8916C4.34051 12.8916 4.17065 12.7216 4.17065 12.5125C4.17065 12.3033 4.34051 12.1333 4.5498 12.1333C4.75909 12.1333 4.929 12.3033 4.929 12.5125C4.929 12.7216 4.75909 12.8916 4.5498 12.8916ZM4.5498 11.4917C4.34051 11.4917 4.17065 11.3217 4.17065 11.1125C4.17065 10.9033 4.34051 10.7334 4.5498 10.7334C4.75909 10.7334 4.929 10.9033 4.929 11.1125C4.929 11.3217 4.75909 11.4917 4.5498 11.4917ZM4.5498 10.0916C4.34051 10.0916 4.17065 9.92168 4.17065 9.71248C4.17065 9.50328 4.34051 9.33333 4.5498 9.33333C4.75909 9.33333 4.929 9.50328 4.929 9.71248C4.929 9.92168 4.75909 10.0916 4.5498 10.0916ZM6.18314 12.8916C5.97386 12.8916 5.80395 12.7216 5.80395 12.5125C5.80395 12.3033 5.97381 12.1333 6.18314 12.1333C6.39243 12.1333 6.56229 12.3033 6.56229 12.5125C6.56229 12.7216 6.39243 12.8916 6.18314 12.8916ZM6.18314 11.4917C5.97386 11.4917 5.80395 11.3217 5.80395 11.1125C5.80395 10.9033 5.97381 10.7334 6.18314 10.7334C6.39243 10.7334 6.56229 10.9033 6.56229 11.1125C6.56229 11.3217 6.39243 11.4917 6.18314 11.4917ZM6.18314 10.0916C5.97386 10.0916 5.80395 9.92168 5.80395 9.71248C5.80395 9.50328 5.97381 9.33333 6.18314 9.33333C6.39243 9.33333 6.56229 9.50328 6.56229 9.71248C6.56229 9.92168 6.39243 10.0916 6.18314 10.0916ZM7.81644 12.8916C7.60729 12.8916 7.43729 12.7216 7.43729 12.5125C7.43729 12.3033 7.60729 12.1333 7.81644 12.1333C8.02564 12.1333 8.19564 12.3033 8.19564 12.5125C8.19568 12.7216 8.02564 12.8916 7.81644 12.8916ZM7.81644 11.4917C7.60729 11.4917 7.43729 11.3217 7.43729 11.1125C7.43729 10.9033 7.60729 10.7334 7.81644 10.7334C8.02564 10.7334 8.19564 10.9033 8.19564 11.1125C8.19564 11.3217 8.02564 11.4917 7.81644 11.4917ZM7.81644 10.0916C7.60729 10.0916 7.43729 9.92168 7.43729 9.71248C7.43729 9.50328 7.60729 9.33333 7.81644 9.33333C8.02564 9.33333 8.19564 9.50328 8.19564 9.71248C8.19564 9.92168 8.02564 10.0916 7.81644 10.0916ZM9.44983 12.8916C9.24063 12.8916 9.07068 12.7216 9.07068 12.5125C9.07068 12.3033 9.24063 12.1333 9.44983 12.1333C9.65903 12.1333 9.82898 12.3033 9.82898 12.5125C9.82898 12.7216 9.65899 12.8916 9.44983 12.8916ZM9.44983 11.4917C9.24063 11.4917 9.07068 11.3217 9.07068 11.1125C9.07068 10.9033 9.24063 10.7334 9.44983 10.7334C9.65903 10.7334 9.82898 10.9033 9.82898 11.1125C9.82898 11.3217 9.65899 11.4917 9.44983 11.4917ZM9.44983 10.0916C9.24063 10.0916 9.07068 9.92168 9.07068 9.71248C9.07068 9.50328 9.24063 9.33333 9.44983 9.33333C9.65903 9.33333 9.82898 9.50328 9.82898 9.71248C9.82898 9.92168 9.65899 10.0916 9.44983 10.0916Z" fill="white"/>
</svg>
