<svg width="7" height="17" viewBox="0 0 7 17" fill="none" xmlns="http://www.w3.org/2000/svg">
<path d="M4.22222 0H2.8V1.18408C0.933333 1.45896 0.0666666 2.79104 0.0666666 4.8209C0.0666666 8.98632 5.26667 9.02861 5.26667 12.3271C5.26667 13.6592 4.71111 14.4204 3.44444 14.4204C2.2 14.4204 1.62222 13.6592 1.62222 12.3271V11.3122H0V12.2214C0 14.2301 0.866667 15.6256 2.8 15.8794V17H4.22222V15.8794C6.11111 15.6256 7 14.209 7 12.2214C7 8.05597 1.77778 8.03483 1.77778 4.71517C1.77778 3.40423 2.33333 2.60075 3.55556 2.60075C4.8 2.60075 5.35556 3.40423 5.35556 4.71517V5.22264H6.97778V4.8209C6.97778 2.83333 6.11111 1.43781 4.22222 1.18408V0Z" fill="#C1E704" fill-opacity="0.65"/>
</svg>
