<svg width="46" height="46" viewBox="0 0 46 46" fill="none" xmlns="http://www.w3.org/2000/svg">
<path fill-rule="evenodd" clip-rule="evenodd" d="M38.7533 6.01814C38.7377 6.02819 38.6967 6.03654 38.6623 6.03671C38.6279 6.03686 38.5811 6.04666 38.5584 6.0585C38.4653 6.10704 38.2596 6.28355 38.0361 6.50686C37.9056 6.63722 37.7524 6.78205 37.6956 6.82871C37.6389 6.87536 37.3328 7.17225 37.0155 7.48847C36.6982 7.80468 36.3922 8.10157 36.3355 8.14823C36.2789 8.19488 35.7518 8.71232 35.1643 9.2981C34.5769 9.88387 34.0499 10.4013 33.9933 10.448C33.9367 10.4946 32.8687 11.5507 31.6199 12.7948C30.3712 14.0389 29.2544 15.1459 29.1383 15.2548C28.8132 15.5594 16.0898 28.2569 15.9826 28.3838C15.9306 28.4452 14.8384 29.5437 13.5554 30.8248C12.2723 32.106 11.1843 33.2004 11.1376 33.2569C11.0908 33.3134 10.5298 33.8817 9.89089 34.5198C9.25197 35.158 8.69097 35.7263 8.64422 35.7828C8.59747 35.8393 8.23196 36.2126 7.83199 36.6122C7.43202 37.0118 7.06651 37.3851 7.01976 37.4417C6.97301 37.4983 6.80301 37.6764 6.64198 37.8375C6.48096 37.9985 6.31096 38.1768 6.26422 38.2336C6.21747 38.2905 6.15947 38.3582 6.13531 38.3841C6.11115 38.41 6.07076 38.4731 6.04557 38.5243C6.00579 38.6051 5.9998 38.6436 6.00001 38.8165C6.00023 38.9853 6.00828 39.0386 6.05289 39.1664C6.10542 39.3169 6.24862 39.5511 6.35151 39.6547C6.44667 39.7506 6.66592 39.8813 6.80254 39.9238C7.05169 40.0012 7.14094 40.0137 7.2606 39.9878C7.32033 39.9748 7.38734 39.9608 7.4095 39.9567C7.45576 39.948 7.69622 39.767 7.79421 39.6672C7.83057 39.6302 7.90687 39.5617 7.96376 39.5151C8.02065 39.4685 8.18684 39.3116 8.33308 39.1664C8.4793 39.0213 8.65334 38.8559 8.71983 38.7988C8.78632 38.7418 9.13886 38.3983 9.50325 38.0354C9.86764 37.6725 10.212 37.3375 10.2684 37.2908C10.3249 37.2442 11.1837 36.3959 12.1767 35.4058C13.1698 34.4157 14.0284 33.5674 14.0847 33.5207C14.141 33.4741 19.9865 27.6486 27.0746 20.5753C34.1628 13.502 39.9707 7.71467 39.9811 7.71467C40.0073 7.71467 40.0058 7.01103 39.9795 6.9243C39.905 6.67968 39.8596 6.57747 39.777 6.46844C39.6641 6.31948 39.4726 6.18738 39.2505 6.10533C39.2108 6.09066 39.1316 6.06078 39.0746 6.03897C38.9663 5.9975 38.8018 5.98683 38.7533 6.01814ZM27.9582 8.69464C27.927 8.70358 27.8505 8.72148 27.7882 8.73443C27.563 8.78115 27.1038 9.03504 26.5982 9.39227C26.5151 9.45099 26.3578 9.56153 26.2487 9.63789C26.1397 9.71427 25.9697 9.83818 25.871 9.91324C25.7723 9.98832 25.6193 10.1036 25.531 10.1695C25.2662 10.3671 24.8611 10.6787 24.851 10.6925C24.8458 10.6996 24.7608 10.7679 24.6621 10.8443C24.4331 11.0215 23.3524 11.8835 23.3398 11.899C23.3347 11.9054 23.2411 11.9819 23.1321 12.0691C23.023 12.1562 22.9295 12.2326 22.9243 12.2387C22.9191 12.2449 22.8256 12.3213 22.7165 12.4084C22.6074 12.4955 22.5139 12.5716 22.5087 12.5774C22.5035 12.5832 22.4525 12.6259 22.3954 12.6723C22.3383 12.7187 22.2873 12.7611 22.2821 12.7666C22.2769 12.772 22.2259 12.8144 22.1687 12.8608C22.1116 12.9072 22.0606 12.9496 22.0554 12.9551C22.0502 12.9605 21.9992 13.0029 21.9421 13.0493C21.8849 13.0957 21.8339 13.1381 21.8287 13.1436C21.8235 13.149 21.7725 13.1914 21.7154 13.2378C21.6583 13.2842 21.6073 13.3266 21.6021 13.3321C21.5969 13.3375 21.5459 13.3799 21.4887 13.4263C21.4316 13.4727 21.3806 13.5151 21.3754 13.5206C21.3702 13.526 21.3192 13.5684 21.2621 13.6147C21.2049 13.6611 21.1454 13.712 21.1298 13.7279C21.1143 13.7438 21.0547 13.7948 20.9976 13.8411C20.9405 13.8874 20.8895 13.9298 20.8843 13.9353C20.8791 13.9407 20.8281 13.9832 20.7709 14.0295C20.7138 14.0759 20.6628 14.1183 20.6576 14.1238C20.6524 14.1292 20.6014 14.1716 20.5443 14.218C20.4871 14.2643 20.4276 14.3152 20.4121 14.3311C20.3965 14.3471 20.337 14.398 20.2798 14.4442C20.2227 14.4905 20.1632 14.5414 20.1476 14.5573C20.132 14.5733 20.0725 14.6242 20.0154 14.6704C19.9582 14.7167 19.8987 14.7676 19.8832 14.7835C19.8676 14.7995 19.8081 14.8504 19.7509 14.8967C19.6938 14.943 19.6428 14.9854 19.6376 14.9909C19.6324 14.9964 19.5814 15.0388 19.5243 15.0852C19.4671 15.1316 19.3991 15.191 19.3732 15.2171C19.3472 15.2432 19.2792 15.3026 19.222 15.349C19.1649 15.3954 19.1139 15.4378 19.1087 15.4433C19.1035 15.4488 19.0525 15.4911 18.9954 15.5375C18.9382 15.5838 18.8787 15.6347 18.8632 15.6507C18.8476 15.6666 18.7881 15.7175 18.7309 15.7638C18.6738 15.81 18.6143 15.8609 18.5987 15.8769C18.5831 15.8928 18.5236 15.9437 18.4665 15.99C18.4093 16.0362 18.3498 16.0871 18.3343 16.1031C18.3187 16.119 18.2592 16.1699 18.202 16.2162C18.1449 16.2624 18.0854 16.3133 18.0698 16.3293C18.0542 16.3452 17.9948 16.3962 17.9378 16.4427C17.8808 16.4892 17.8063 16.5545 17.7724 16.5879C17.7385 16.6213 17.6626 16.6849 17.6037 16.7293L17.4967 16.8099L13.8779 16.823C9.61326 16.8385 9.28336 16.8481 8.88564 16.9691C8.68719 17.0295 8.51538 17.2739 8.48748 17.5357C8.41683 18.1987 8.39675 19.4975 8.39679 23.3981C8.39685 28.1027 8.42714 29.3726 8.54452 29.5905C8.58755 29.6703 8.68851 29.784 8.79119 29.8681C8.86941 29.9322 9.02789 29.9832 9.25811 30.0183C9.39674 30.0394 11.4347 30.0618 11.5111 30.0431C11.5673 30.0292 29.5501 12.0833 29.564 12.0271C29.582 11.9542 29.5607 10.0677 29.5406 9.95786C29.4936 9.7007 29.3585 9.41099 29.1658 9.15382C28.9934 8.92369 28.7518 8.7534 28.5343 8.70863C28.4164 8.68435 28.0269 8.67489 27.9582 8.69464ZM33.2282 18.9109C33.2074 18.9203 33.1544 18.9286 33.1104 18.9293C33.0337 18.9305 32.9373 18.9487 32.7749 18.9925C32.5978 19.0402 32.3173 19.2109 32.2203 19.3299C32.1408 19.4275 32.0988 19.5776 32.1115 19.7194C32.1402 20.0397 32.1623 20.1509 32.3188 20.7591C32.3682 20.9511 32.4267 21.2075 32.4629 21.3906C32.4753 21.4528 32.4894 21.5206 32.4944 21.5414C32.5107 21.6089 32.5625 22.0102 32.5965 22.3331C32.6455 22.7987 32.6462 23.9379 32.5977 24.3595C32.5432 24.8331 32.5187 24.9975 32.4738 25.1889C32.4339 25.3591 32.295 25.9073 32.2159 26.2068C32.1408 26.4911 32.1222 26.6067 32.1107 26.8606C32.1014 27.0665 32.1025 27.0741 32.1596 27.1936C32.2244 27.3291 32.3422 27.4478 32.4931 27.5296C32.6198 27.5984 32.9577 27.7077 33.096 27.7248C33.4234 27.7651 33.8729 27.7216 34.0442 27.633C34.0775 27.6158 34.1165 27.6017 34.131 27.6017C34.1753 27.6017 34.3758 27.4628 34.4676 27.3686C34.5152 27.3197 34.5734 27.2355 34.5969 27.1815C34.6859 26.9771 34.6976 26.9471 34.7524 26.7818C34.8409 26.5146 35.0118 25.8783 35.0535 25.6602C35.0645 25.6031 35.0813 25.5183 35.0909 25.4717C35.1005 25.425 35.1168 25.3275 35.127 25.2549C35.1373 25.1823 35.1541 25.072 35.1643 25.0098C35.3448 23.9162 35.3453 22.6476 35.1657 21.5696C35.1302 21.3565 35.1042 21.1993 35.0893 21.1078C35.0622 20.9413 35.0344 20.8096 34.9957 20.6648C34.8712 20.1981 34.8391 20.0865 34.77 19.8787C34.5841 19.3195 34.3677 19.0767 33.9555 18.9646C33.793 18.9204 33.2894 18.8832 33.2282 18.9109ZM25.0174 25.3825C22.5728 27.823 20.5131 29.8864 20.4404 29.9678C20.3677 30.0493 20.068 30.3564 19.7745 30.6503C19.481 30.9442 19.2272 31.2056 19.2104 31.2311C19.1826 31.2735 19.1825 31.2816 19.2096 31.3228C19.2515 31.3865 19.4389 31.5729 19.562 31.6732C19.6192 31.7198 19.6872 31.7792 19.7132 31.8054C19.7391 31.8315 19.8071 31.8908 19.8643 31.9372C19.9214 31.9835 19.9809 32.0345 19.9965 32.0504C20.0121 32.0664 20.0716 32.1172 20.1287 32.1635C20.1859 32.2098 20.2454 32.2607 20.2609 32.2766C20.2765 32.2926 20.336 32.3435 20.3932 32.3898C20.4503 32.4361 20.5013 32.4785 20.5065 32.484C20.5117 32.4894 20.5627 32.5319 20.6198 32.5782C20.677 32.6246 20.728 32.667 20.7332 32.6725C20.7384 32.6779 20.7894 32.7203 20.8465 32.7667C20.9036 32.813 20.9631 32.8642 20.9787 32.8804C20.9943 32.8966 21.0963 32.9812 21.2054 33.0683C21.3145 33.1555 21.408 33.2315 21.4132 33.2373C21.4184 33.2432 21.4694 33.2859 21.5265 33.3322C21.5836 33.3786 21.6346 33.421 21.6398 33.4265C21.645 33.432 21.696 33.4744 21.7532 33.5207C21.8103 33.5671 21.8613 33.6095 21.8665 33.615C21.8717 33.6205 21.9227 33.6629 21.9798 33.7092C22.037 33.7556 22.088 33.7983 22.0932 33.8041C22.0984 33.8099 22.1919 33.886 22.301 33.9732C22.41 34.0603 22.5035 34.1366 22.5087 34.1428C22.5139 34.149 22.6074 34.2253 22.7165 34.3125C22.8256 34.3996 22.9191 34.476 22.9243 34.4823C22.9295 34.4886 23.0655 34.5988 23.2265 34.7272C23.3875 34.8555 23.5235 34.9659 23.5287 34.9724C23.54 34.9867 24.5808 35.8174 24.8887 36.058C25.0082 36.1513 25.225 36.3209 25.3704 36.4349C26.3047 37.1669 26.8049 37.5104 27.2593 37.7315C27.7704 37.9803 27.9785 38.0448 28.2699 38.0448C28.5483 38.0448 28.7068 37.9949 28.9045 37.8447C29.0991 37.697 29.2584 37.4709 29.4772 37.0318L29.5734 36.8387L29.564 31.2164C29.5588 28.1242 29.5481 24.5509 29.5402 23.2759C29.527 21.122 29.5237 20.9571 29.4941 20.9514C29.4728 20.9473 27.9917 22.4133 25.0174 25.3825Z" fill="white" fill-opacity="0.45"/>
</svg>
