<svg width="20" height="20" viewBox="0 0 20 20" fill="none" xmlns="http://www.w3.org/2000/svg">
<g clip-path="url(#clip0)">
<path d="M17.9791 4.52807L18.7417 5.29069L19.0699 4.96243C19.6376 4.3947 19.6376 3.47092 19.0699 2.90315L17.0965 0.929673C16.8214 0.654672 16.4558 0.503204 16.0669 0.503204C15.6779 0.503204 15.3123 0.65465 15.0373 0.929673L14.709 1.25795L15.4716 2.02057L15.7999 1.69229C15.8712 1.62098 15.966 1.5817 16.0669 1.5817C16.1678 1.5817 16.2626 1.62098 16.3339 1.69229L18.3073 3.66575C18.4546 3.81296 18.4546 4.05255 18.3073 4.19977L17.9791 4.52807Z" fill="#1BBD1B"/>
<path d="M1.21553 15.9244C0.425751 16.7142 -0.486353 18.9068 0.303447 19.6966C0.909294 20.3024 2.34051 19.9068 3.33085 19.3331C3.40253 19.2916 3.4651 19.1908 3.46944 19.1081C3.5032 18.4634 3.58724 17.4941 3.58724 17.4941C3.58752 17.4618 3.60656 17.4427 3.63892 17.4425L5.37754 17.4043C5.42206 17.4034 5.45793 17.3675 5.45886 17.3229L5.49524 15.5861C5.49553 15.5537 5.51457 15.5347 5.54695 15.5344C5.54695 15.5344 6.683 15.5244 7.14723 15.5202C7.25444 15.5192 7.40284 15.4569 7.47864 15.3812C7.8426 15.0173 8.87 13.99 9.8293 13.0307L6.96924 10.1706L1.21553 15.9244Z" fill="#1BBD1B"/>
<path d="M18.3608 5.67206L17.5982 4.90944L15.0908 2.40197L14.3281 1.63935L12.9744 0.285678C12.784 0.0952333 12.5344 0 12.2848 0C12.0351 0 11.7855 0.0952333 11.595 0.285678L6.56759 5.31313C5.54778 6.33294 5.54778 7.98639 6.56759 9.00618L7.35074 9.78936L10.2108 12.6494L10.994 13.4326C11.5039 13.9425 12.1722 14.1975 12.8405 14.1975C13.5088 14.1975 14.1771 13.9425 14.687 13.4326L19.7145 8.40516C20.0954 8.02425 20.0954 7.40667 19.7145 7.02578L18.3608 5.67206ZM12.405 10.6609C12.2684 10.7976 12.0992 10.8898 11.9151 10.9311C11.8431 10.9472 11.7689 10.9558 11.6933 10.9558C11.4244 10.9558 11.1716 10.851 10.9815 10.6609L9.33921 9.01862C9.14911 8.82854 9.04439 8.57574 9.04439 8.30684C9.04439 8.23005 9.05321 8.15466 9.06986 8.08163C9.11145 7.8988 9.20338 7.73094 9.33921 7.59511C9.52931 7.40499 9.78209 7.30028 10.051 7.30028C10.3199 7.30028 10.5727 7.40499 10.7627 7.59511L10.8294 7.6618L12.3312 9.16358L12.405 9.23741C12.5952 9.42749 12.6999 9.68027 12.6999 9.94919C12.6999 10.218 12.5952 10.4708 12.405 10.6609ZM17.3547 7.67656L16.3772 8.65411C15.7452 9.28601 14.7207 9.28601 14.0888 8.65411L11.3461 5.91137C10.7142 5.27946 10.7142 4.25493 11.3461 3.62303L12.3236 2.64548C12.5596 2.40946 12.9423 2.40946 13.1784 2.64548L13.4057 2.87283L17.1274 6.5945L17.3547 6.82185C17.5907 7.05785 17.5907 7.44053 17.3547 7.67656Z" fill="#1BBD1B"/>
<path d="M10.3051 8.05271C10.2372 7.98483 10.1469 7.9474 10.0509 7.9474C9.95489 7.9474 9.86458 7.98479 9.79671 8.05271C9.72883 8.12059 9.69141 8.21089 9.69141 8.30688C9.69141 8.40291 9.72879 8.49323 9.79671 8.56109L11.439 10.2034C11.5069 10.2713 11.5972 10.3087 11.6932 10.3087C11.7892 10.3087 11.8795 10.2713 11.9474 10.2034C12.0153 10.1355 12.0527 10.0452 12.0527 9.94923C12.0527 9.85319 12.0153 9.76288 11.9474 9.69501L10.3051 8.05271Z" fill="#1BBD1B"/>
</g>
<defs>
<clipPath id="clip0">
<rect width="20" height="20" fill="white"/>
</clipPath>
</defs>
</svg>
