<svg width="20" height="20" viewBox="0 0 20 20" fill="none" xmlns="http://www.w3.org/2000/svg">
<path d="M15.1809 0L14.2946 1.02273L17.7264 4.02273V13.5227C17.7037 14 17.2946 14.3864 16.7946 14.3636C16.34 14.3409 15.9764 13.9773 15.9537 13.5227V7.13636C15.9537 6 15.0446 5.09091 13.9082 5.09091H13.4082V2.20455C13.4082 1.06818 12.4991 0.159091 11.3627 0.159091H2.95366C1.81729 0.159091 0.908203 1.06818 0.908203 2.20455V19.0909C0.908203 19.5909 1.31729 20 1.81729 20H12.4991C12.9991 20 13.4082 19.5909 13.4082 19.0909V6.45455H13.9082C14.2946 6.45455 14.59 6.75 14.59 7.13636V13.5227C14.6355 14.7727 15.6582 15.7273 16.9082 15.7045C18.09 15.6591 19.0446 14.7045 19.09 13.5227V3.40909L15.1809 0ZM11.1127 8.86364H3.20366V2.65909H11.1127V8.86364Z" fill="#1BBD1B"/>
</svg>
