<svg width="20" height="20" viewBox="0 0 20 20" fill="none" xmlns="http://www.w3.org/2000/svg">
<g clip-path="url(#clip0)">
<path d="M0.229701 17.3542L2.05716 19.5174C2.05716 19.5174 2.70214 20.43 3.16587 19.7458C3.6296 19.0631 6.40962 13.4278 6.40962 13.4278C6.40962 13.4278 6.68817 12.9679 6.88355 13.7895C7.07893 14.611 8.68354 18.5861 8.68354 18.5861C8.68354 18.5861 8.926 18.9211 9.21711 18.6739C9.509 18.4291 10.6766 17.4444 10.6766 17.4444C10.6766 17.4444 11.0705 17.3196 10.6624 16.5413C10.2536 15.7605 8.75573 12.2092 8.75573 12.2092C8.75573 12.2092 8.53681 11.7541 8.85381 11.4873C9.17003 11.2213 9.57883 10.9161 9.57883 10.9161C9.57883 10.9161 9.76087 10.5402 10.2623 10.9365C10.7629 11.3319 12.1988 12.7859 14.4107 13.3328C16.6219 13.8813 18.5576 13.955 18.5576 13.955C18.5576 13.955 19.0315 13.9723 19.0982 13.1633C19.1673 12.3583 19.1273 11.2252 19.1273 11.2252C19.1273 11.2252 19.1728 10.6854 18.6981 10.6697C18.2249 10.6532 17.4214 10.8337 16.4084 10.5214C15.3955 10.2107 13.1066 8.53623 13.1066 8.53623C13.1066 8.53623 12.7394 8.24826 13.0799 7.95951C13.4205 7.67233 15.8035 5.66205 15.8035 5.66205C15.8035 5.66205 16.2123 5.35682 15.9659 5.06493C15.7203 4.77382 15.5971 4.62788 15.5971 4.62788L19.9253 0.972969L19.1029 0L14.7748 3.65334L14.4194 3.33242C14.4194 3.33242 14.1031 3.05701 13.8356 3.28298C13.5688 3.50583 10.7754 5.82212 10.7754 5.82212C10.7754 5.82212 9.98842 4.9896 9.40542 5.48158C8.82243 5.97356 5.27345 8.9725 5.27345 8.9725C5.27345 8.9725 5.11887 9.18514 5.24049 9.62376C5.36133 10.0639 5.58338 10.3747 5.36446 10.5598C5.14633 10.7435 4.00309 11.7094 4.00309 11.7094C4.00309 11.7094 3.68374 12.0209 3.72376 12.6125C3.76456 13.2026 3.43814 13.8507 2.8065 14.3858C2.17564 14.9194 0.35446 16.4149 0.35446 16.4149C0.35446 16.4149 -0.179888 16.8677 0.229701 17.3542Z" fill="#1BBD1B"/>
<path d="M16.6136 2.47715C16.6136 2.47715 15.1643 0.759546 14.9101 0.459809C14.6559 0.158503 13.9167 -0.10671 13.8265 0.950217C13.7253 2.16721 13.6123 3.80478 13.6123 3.80478L14.8764 3.84637C14.8764 3.84637 14.8144 3.17549 14.7234 2.83887C14.6088 2.41987 14.8073 2.21429 15.0341 2.48421C15.2609 2.75021 15.6869 3.25239 15.6869 3.25239L16.6136 2.47715Z" fill="#1BBD1B"/>
<path d="M8.79102 12.7781C8.79102 12.7781 9.19276 12.4391 9.51368 12.1684C9.8346 11.8977 10.1453 11.2896 9.87776 10.4845C9.61098 9.68025 10.6624 10.5999 10.6624 10.5999C10.6624 10.5999 11.214 11.8647 10.2732 12.658C9.3285 13.4576 8.91107 13.7746 8.91107 13.7746L8.79102 12.7781Z" fill="#1BBD1B"/>
</g>
<defs>
<clipPath id="clip0">
<rect width="20" height="20" fill="white"/>
</clipPath>
</defs>
</svg>
