<svg width="20" height="20" viewBox="0 0 20 20" fill="none" xmlns="http://www.w3.org/2000/svg">
<path d="M2.63327 19.7848C2.92019 20.0717 3.38541 20.0717 3.6723 19.7848L11.9642 11.4928C11.9636 11.4926 11.9629 11.4923 11.9623 11.4921C11.1883 11.1782 10.494 10.7172 9.89872 10.122C9.36055 9.58384 8.93283 8.96289 8.62424 8.27405L0.392929 16.5054C0.106003 16.7923 0.106003 17.2575 0.392929 17.5444L2.63327 19.7848Z" fill="#1BBD1B"/>
<path d="M10.2707 9.74985C10.8852 10.3643 11.605 10.8091 12.3719 11.085C12.9967 11.3098 13.6528 11.4225 14.309 11.4225C15.1153 11.4225 15.9215 11.2528 16.6697 10.9135C17.0168 10.7561 17.0998 10.3004 16.8303 10.0309L13.2896 6.49021C12.8594 6.06002 12.8594 5.36253 13.2896 4.93234L16.8266 1.39526C17.0979 1.12402 17.0145 0.665011 16.665 0.506884C15.9182 0.168968 15.1135 0 14.309 0C12.8473 0 11.3858 0.557537 10.2707 1.67269C8.60051 3.34282 8.18529 5.80785 9.02474 7.87337C9.30259 8.55707 9.71782 9.19703 10.2707 9.74985ZM10.7029 7.7868C10.6221 7.7868 10.5412 7.75598 10.4796 7.69429C10.3563 7.57097 10.3563 7.37103 10.4796 7.24771L11.1207 6.60659C11.244 6.48326 11.444 6.48326 11.5673 6.60659C11.6906 6.72992 11.6906 6.92985 11.5673 7.05318L10.9262 7.69427C10.8645 7.75596 10.7837 7.7868 10.7029 7.7868ZM11.5679 8.65181C11.4871 8.65181 11.4062 8.62099 11.3446 8.55933C11.2213 8.436 11.2213 8.23606 11.3446 8.11274L11.9857 7.4716C12.109 7.34827 12.309 7.34827 12.4323 7.4716C12.5556 7.59493 12.5556 7.79486 12.4323 7.91819L11.7912 8.55931C11.7295 8.62099 11.6487 8.65181 11.5679 8.65181ZM12.2096 9.42434C12.0863 9.30101 12.0863 9.10107 12.2096 8.97775L12.8507 8.33665C12.9741 8.21333 13.174 8.21335 13.2973 8.33665C13.4207 8.45996 13.4207 8.65989 13.2973 8.78324L12.6562 9.42436C12.5945 9.48602 12.5137 9.51686 12.4329 9.51686C12.3521 9.51682 12.2713 9.486 12.2096 9.42434Z" fill="#1BBD1B"/>
<path d="M15.4359 7.03281L17.7 9.29685C17.9527 9.54963 18.3714 9.52946 18.5933 9.24923C19.9221 7.57155 20.1737 5.32012 19.348 3.42513C19.1796 3.03847 18.6717 2.94654 18.3735 3.24475L15.4359 6.18233C15.201 6.41719 15.201 6.79795 15.4359 7.03281Z" fill="#1BBD1B"/>
</svg>
