<svg width="20" height="20" viewBox="0 0 20 20" fill="none" xmlns="http://www.w3.org/2000/svg">
<path d="M6.89453 11.4206C6.83114 11.4206 6.76709 11.426 6.70284 11.4372L6.03976 11.5521C5.28791 11.6825 4.74219 12.331 4.74219 13.0941C4.74219 13.957 5.44425 14.659 6.30713 14.659H6.30717C7.07024 14.659 7.71875 14.1133 7.84908 13.3615L7.96406 12.6984C8.02549 12.344 7.91489 11.9949 7.66056 11.7406C7.45243 11.5325 7.18069 11.4206 6.89453 11.4206Z" fill="#1BBD1B"/>
<path d="M18.6112 8.58565C18.6112 4.05305 15.109 0.338379 10.6631 3.8147e-06L8.939 2.97258L11.9312 4.97468L10.5232 7.75905L9.47762 7.23032L10.4175 5.37163L7.3741 3.33529L9.30702 0.00273769C4.87569 0.355876 1.38965 4.06351 1.38965 8.58565C1.38965 9.6719 1.59156 10.7107 1.95868 11.6677C1.76841 12.1639 1.66382 12.7022 1.66382 13.2645C1.66382 15.731 3.67044 17.7376 6.1369 17.7376V19.1691C6.1369 19.1691 7.50763 20 10.0004 20C12.4931 20 13.8638 19.1691 13.8638 19.1691V17.7376C16.3303 17.7376 18.3369 15.731 18.3369 13.2645C18.3369 12.7022 18.2323 12.1639 18.0421 11.6677C18.4093 10.7107 18.6112 9.6719 18.6112 8.58565ZM9.11874 12.8987L9.00376 13.5617C8.77579 14.8765 7.64182 15.8308 6.30742 15.8308C4.7984 15.8308 3.57077 14.6031 3.57077 13.0942C3.57077 11.7598 4.52505 10.6258 5.83981 10.3978L6.50293 10.2828C7.22686 10.1572 7.96973 10.3925 8.4894 10.9123C9.00903 11.4319 9.2443 12.1745 9.11874 12.8987ZM10.5862 17.715H9.41458V16.0531H10.5862V17.715ZM13.6934 15.8307C12.359 15.8307 11.225 14.8765 10.9971 13.5617L10.8821 12.8986C10.7565 12.1745 10.9918 11.4318 11.5115 10.9122C12.0312 10.3925 12.774 10.1572 13.498 10.2828L14.161 10.3977C15.4758 10.6257 16.4301 11.7598 16.4301 13.0941C16.4301 14.6031 15.2024 15.8307 13.6934 15.8307Z" fill="#1BBD1B"/>
<path d="M13.9605 11.5522L13.2975 11.4372C13.2332 11.4261 13.1691 11.4206 13.1058 11.4206C12.8196 11.4206 12.5479 11.5325 12.3397 11.7407C12.0853 11.995 11.9747 12.3441 12.0362 12.6985L12.1511 13.3615C12.2815 14.1134 12.93 14.6591 13.6931 14.6591C14.556 14.6591 15.258 13.9571 15.258 13.0942C15.2581 12.331 14.7124 11.6825 13.9605 11.5522Z" fill="#1BBD1B"/>
</svg>
