<svg width="40" height="40" viewBox="0 0 40 40" fill="none" xmlns="http://www.w3.org/2000/svg">
<path d="M27.2824 26.2175L24.4999 23.4575C25.58 22.1108 26.1031 20.4015 25.9615 18.681C25.82 16.9605 25.0247 15.3596 23.7391 14.2075C22.4535 13.0554 20.7753 12.4396 19.0496 12.4868C17.324 12.5341 15.682 13.2407 14.4613 14.4613C13.2406 15.682 12.534 17.324 12.4868 19.0497C12.4396 20.7753 13.0553 22.4535 14.2074 23.7391C15.3595 25.0247 16.9604 25.8201 18.6809 25.9616C20.4014 26.1031 22.1107 25.5801 23.4574 24.5L26.2174 27.26C26.2872 27.3303 26.3701 27.3861 26.4615 27.4242C26.5529 27.4622 26.6509 27.4818 26.7499 27.4818C26.8489 27.4818 26.947 27.4622 27.0384 27.4242C27.1298 27.3861 27.2127 27.3303 27.2824 27.26C27.4176 27.1201 27.4932 26.9332 27.4932 26.7387C27.4932 26.5442 27.4176 26.3573 27.2824 26.2175ZM19.2499 24.5C18.2116 24.5 17.1965 24.1921 16.3332 23.6152C15.4698 23.0383 14.7969 22.2184 14.3996 21.2591C14.0022 20.2998 13.8982 19.2442 14.1008 18.2258C14.3034 17.2074 14.8034 16.2719 15.5376 15.5377C16.2718 14.8035 17.2073 14.3034 18.2257 14.1009C19.2441 13.8983 20.2997 14.0023 21.259 14.3996C22.2183 14.797 23.0383 15.4699 23.6151 16.3332C24.192 17.1966 24.4999 18.2116 24.4999 19.25C24.4999 20.6424 23.9468 21.9777 22.9622 22.9623C21.9777 23.9469 20.6423 24.5 19.2499 24.5Z" fill="white"/>
</svg>
