<svg width="6" height="35" viewBox="0 0 6 35" fill="none" xmlns="http://www.w3.org/2000/svg">
<path d="M5.87422 18.4268C5.81072 19.0648 4.94811 19.5966 4.52474 19.7827C5.47732 18.9851 5.31855 17.8685 5.08041 17.8685C4.84226 17.8685 4.6835 18.8256 4.52474 18.666C4.36598 18.5065 4.6835 17.8685 4.84226 17.3899C4.96927 17.007 4.94811 16.3796 4.92165 16.1137C3.96907 13.8007 3.96907 11.9662 3.96907 11.4877C3.96907 11.1048 3.38694 9.41395 3.09587 8.61635C3.09587 8.9088 3.03237 9.92441 2.77835 11.6472C2.46082 13.8007 3.01649 14.1995 3.25464 17.3899C3.49278 20.5803 2.61959 22.335 2.46082 23.2921C2.30206 24.2492 2.77835 26.4027 2.77835 27.5193C2.77835 28.636 1.66701 30.63 1.42886 32.3049C1.19072 33.9799 1.66701 33.6608 2.46082 34.4584C3.25464 35.256 1.34948 34.937 0.952576 34.937C0.555669 34.937 0.476288 34.4584 0.238143 34.2989C-4.76837e-07 34.1394 0.238143 33.4215 0.476288 32.7835C0.714432 32.1454 0.476288 31.5073 0.476288 30.8692C0.476288 30.2312 0.396906 26.0837 0.476288 25.6849C0.555669 25.2861 0.476288 23.9302 0.238143 23.2921C0.0476284 22.7816 -4.76837e-07 19.3573 -4.76837e-07 17.7089V0.00232754C1.66701 -0.0774319 1.66701 1.91656 1.58763 2.31535C1.50825 2.71415 0.873195 3.67126 0.873195 4.07006C0.873195 4.46886 2.69897 5.02717 3.81031 5.42597C4.92165 5.82477 4.84226 8.37707 4.84226 8.61635C4.84226 8.85563 5.31855 9.73298 5.31855 10.2115C5.31855 10.6901 5.63608 11.8067 5.87422 12.365C6.11237 12.9234 5.9536 17.6292 5.87422 18.4268Z" fill="#AECF09"/>
</svg>
