<svg width="39" height="39" viewBox="0 0 39 39" fill="none" xmlns="http://www.w3.org/2000/svg">
<path d="M1.71387 39H18.9287C19.8752 39 20.6426 38.2326 20.6426 37.2861C20.6426 36.3396 19.8752 35.5723 18.9287 35.5723H1.71387C0.767372 35.5723 0 36.3396 0 37.2861C0 38.2326 0.767372 39 1.71387 39Z" fill="white"/>
<path d="M1.71387 33.2871H18.9287C19.8752 33.2871 20.6426 32.5197 20.6426 31.5732C20.6426 30.6267 19.8752 29.8594 18.9287 29.8594H1.71387C0.767372 29.8594 0 30.6267 0 31.5732C0 32.5197 0.767372 33.2871 1.71387 33.2871Z" fill="white"/>
<path d="M4.64648 25.2129H10.3594V20.6426H5.20171L4.64648 25.2129Z" fill="white"/>
<path d="M33.2109 20.6426V25.2129H39L38.4448 20.6426H33.2109Z" fill="white"/>
<path d="M20.6425 3.42773C20.6425 2.79723 21.1546 2.28516 21.7851 2.28516C22.4156 2.28516 22.9277 2.79723 22.9277 3.42773C22.9277 4.05824 22.4156 4.57031 21.7851 4.57031H20.6425V7.29167L16.9446 9.14062H13.882C9.95526 9.14062 6.63821 12.0274 5.99194 15.9003L5.58252 18.3574H10.3593V16.0723H12.6445V27.5742H18.9287C21.1335 27.5742 22.9277 29.3684 22.9277 31.5732C22.9277 32.6926 22.4623 33.7031 21.7185 34.4297C22.4623 35.1563 22.9277 36.1668 22.9277 37.2861C22.9277 37.9018 22.7762 38.4784 22.5266 39H30.9257V16.0723H33.2109V18.3574H38.0639L37.6544 15.9003C37.0082 12.0274 33.615 9.14062 29.6882 9.14062H26.6256L22.9277 7.29167V6.66028C24.2577 6.18807 25.2128 4.91725 25.2128 3.42773C25.2128 1.53772 23.6751 0 21.7851 0C19.8951 0 18.3574 1.53772 18.3574 3.42773H20.6425ZM25.145 10.9554C24.8314 12.5246 23.4448 13.7109 21.7851 13.7109C20.1254 13.7109 18.7388 12.5246 18.4252 10.9554L21.7851 9.27571L25.145 10.9554Z" fill="white"/>
</svg>
