<svg width="30" height="30" viewBox="0 0 30 30" fill="none" xmlns="http://www.w3.org/2000/svg">
<g clip-path="url(#clip0)">
<path d="M29.8554 19.9757C29.841 19.9612 29.8258 19.9478 29.81 19.9355C27.357 17.7097 24.5117 17.7589 22.0216 18.1431C22.4236 15.536 22.4515 12.5629 19.9444 10.0556C17.437 7.54818 14.4633 7.57633 11.8556 7.97854C12.2415 5.47822 12.2897 2.61975 10.0372 0.159975C9.94637 0.0609363 9.81904 0.0030757 9.68459 0.000119321C9.55022 -0.00283706 9.42042 0.0492515 9.32532 0.144348L7.82953 1.64014C7.64596 1.82371 7.63638 2.11837 7.80764 2.31356C7.9411 2.46553 8.06393 2.62475 8.1736 2.78784L2.78785 8.17373C2.62462 8.06371 2.46539 7.94088 2.31349 7.80764C2.1183 7.63631 1.82365 7.64595 1.64007 7.8296L0.144284 9.32531C0.0491867 9.42055 -0.00290185 9.55014 0.000124918 9.68459C0.00301091 9.81896 0.0607307 9.94629 0.159981 10.0371C2.61969 12.2897 5.47787 12.2416 7.97813 11.8558C7.57592 14.4632 7.54783 17.4365 10.055 19.9437C12.5623 22.4511 15.5363 22.4227 18.1441 22.0204C17.7583 24.5212 17.7099 27.3799 19.9627 29.8399C20.0535 29.9391 20.1809 29.9968 20.3153 29.9998C20.4496 30.0027 20.5795 29.9507 20.6746 29.8555L22.1704 28.3597C22.3539 28.1762 22.3635 27.8815 22.1923 27.6865C22.0589 27.5345 21.936 27.3752 21.8262 27.212L27.2123 21.8259C27.3754 21.9358 27.5339 22.0582 27.6851 22.191C27.8803 22.3625 28.1751 22.3529 28.3586 22.1692L29.8544 20.6733C29.8548 20.673 29.8552 20.6725 29.8554 20.6722C30.0478 20.4801 30.0478 20.1681 29.8554 19.9757ZM8.60178 8.6022C7.17835 8.87834 5.99109 9.03643 4.92623 8.9224L8.92227 4.92629C9.03616 5.99143 8.87806 7.17863 8.60178 8.6022ZM11.232 11.2325C12.5566 10.9754 13.6677 10.8204 14.6785 10.8917L10.8915 14.6789C10.8201 13.6678 10.9748 12.5569 11.232 11.2325ZM12.2451 17.7538C11.978 17.4867 11.7485 17.1982 11.562 16.8953L16.8951 11.5621C17.1985 11.7488 17.487 11.9784 17.7544 12.2457C18.0219 12.5131 18.2515 12.8016 18.4381 13.105L13.1053 18.4379C12.8017 18.2513 12.5127 18.0214 12.2451 17.7538ZM18.768 18.7666C17.4437 19.0236 16.3328 19.1786 15.3223 19.1077L19.1083 15.3216C19.1796 16.3321 19.0249 17.4427 18.768 18.7666ZM21.0776 25.0739C20.9637 24.0087 21.1218 22.8208 21.3983 21.3968C22.8221 21.1205 24.0096 20.9625 25.0747 21.0769L21.0776 25.0739Z" fill="white"/>
</g>
<defs>
<clipPath id="clip0">
<rect width="30" height="30" fill="white"/>
</clipPath>
</defs>
</svg>
