<svg width="30" height="30" viewBox="0 0 30 30" fill="none" xmlns="http://www.w3.org/2000/svg">
<path d="M15.0006 0C7.76394 0 1.89832 5.86562 1.89832 13.1023C1.89832 18.0528 4.64245 22.3556 8.69053 24.5851L8.53645 30L14.7186 26.1899C14.8119 26.192 14.9052 26.2045 15.0006 26.2045C22.2372 26.2045 28.1028 20.3389 28.1028 13.1023C28.1028 5.86562 22.2372 0 15.0006 0ZM16.6693 20.7372H13.312V9.93047H16.6693V20.7372ZM14.9681 8.60662C13.9063 8.60662 13.1998 7.85402 13.2229 6.92533C13.2009 5.95367 13.9063 5.22309 14.9901 5.22309C16.0729 5.22309 16.7605 5.95367 16.7825 6.92533C16.7814 7.85402 16.0708 8.60662 14.9681 8.60662Z" fill="white"/>
</svg>
