<svg width="30" height="30" viewBox="0 0 30 30" fill="none" xmlns="http://www.w3.org/2000/svg">
<g clip-path="url(#clip0)">
<path d="M28.9395 4.78752C28.1125 3.35854 26.924 2.16006 25.5027 1.3217C24.0368 0.457031 22.358 0 20.6475 0C18.9371 0 17.2581 0.457031 15.7923 1.3217C14.3709 2.16012 13.1825 3.35859 12.3555 4.78752C12.1867 5.07926 12.1995 5.44172 12.3886 5.72074L16.1685 11.3002C16.1904 11.2986 16.2123 11.2969 16.2347 11.2969H18.9573L18.4016 9.62947C18.2481 9.16898 18.497 8.67123 18.9575 8.51772C19.418 8.36432 19.9157 8.61316 20.0692 9.07359L20.6475 10.8086L21.2259 9.07359C21.3793 8.61311 21.877 8.3642 22.3376 8.51772C22.7981 8.67123 23.0469 9.16893 22.8935 9.62947L22.3377 11.2969H25.0605C25.0828 11.2969 25.1046 11.2986 25.1266 11.3002L28.9065 5.72074C29.0955 5.44172 29.1083 5.07926 28.9395 4.78752Z" fill="white"/>
<path d="M16.9448 28.1797C16.9448 29.1834 17.7614 30 18.7651 30H22.5308C23.5345 30 24.3511 29.1834 24.3511 28.1797V13.0547H16.9448V28.1797Z" fill="white"/>
<path d="M1.88184 11.1719H10.2295V19.7695H1.88184V11.1719Z" fill="white"/>
<path d="M0.940918 28.1797C0.940918 29.1835 1.75748 30 2.76119 30H9.35111C10.3548 30 11.1714 29.1835 11.1714 28.1797V21.5273H0.940918V28.1797Z" fill="white"/>
<path d="M9.28861 1.82033C9.28861 0.94623 8.66488 0.287109 7.83783 0.287109C7.62871 0.287109 7.41719 0.329297 7.20924 0.412559L4.25031 1.59609C3.43703 1.92141 2.82373 2.82727 2.82373 3.70318V9.41414H9.28861V1.82033Z" fill="white"/>
</g>
<defs>
<clipPath id="clip0">
<rect width="30" height="30" fill="white"/>
</clipPath>
</defs>
</svg>
