<svg width="30" height="30" viewBox="0 0 30 30" fill="none" xmlns="http://www.w3.org/2000/svg">
<path d="M3.58909 15.3095C4.18817 15.4931 4.82243 15.1566 5.00661 14.5578C5.00715 14.5578 6.70315 9.02849 6.70315 9.02849C6.71315 9.00512 6.76376 8.90803 6.88244 8.90803C6.89324 8.90803 7.12138 8.90803 7.12138 8.90803H7.12191C7.18945 8.90701 7.22878 8.96428 7.21105 9.02903L3.81572 20.1395C3.79745 20.2042 3.81572 20.3175 3.93387 20.3175H6.3155C6.38309 20.3175 6.43241 20.3722 6.43241 20.4398C6.43241 20.4398 6.43188 28.5338 6.43188 28.5367C6.43188 29.3449 7.0872 30.0001 7.89539 30.0001C8.70385 30.0001 9.35891 29.3449 9.35891 28.5367L9.35944 20.4395C9.35944 20.3719 9.41392 20.3175 9.48146 20.3175H9.4835H9.71755H9.71959C9.78712 20.3175 9.84161 20.372 9.84161 20.4395L9.84214 28.5367C9.84214 29.3449 10.4975 30.0001 11.3057 30.0001C12.1141 30.0001 12.7692 29.3449 12.7692 28.5367C12.7692 28.5338 12.7686 20.4398 12.7686 20.4398C12.7686 20.3722 12.818 20.3175 12.8855 20.3175H15.2672C15.3853 20.3175 15.4038 20.2042 15.3853 20.1395L11.9903 9.02924C11.9723 8.9645 12.0119 8.90722 12.0795 8.90824H12.0799C12.0799 8.90824 12.3081 8.90824 12.3189 8.90824C12.4373 8.90824 12.4882 9.00538 12.4982 9.02876C12.4982 9.02876 14.7439 16.3586 14.7447 16.3586C14.9286 16.9574 15.5631 17.2939 16.1621 17.1102C16.3725 17.0458 16.5496 16.9248 16.6842 16.7704C16.6934 16.7599 16.7032 16.7498 16.7122 16.739C16.7122 16.739 16.7124 16.7388 16.7124 16.7385C16.8722 16.543 16.9686 16.2933 16.9688 16.0213C16.9693 16.021 17.6572 9.09114 17.6572 9.09114C17.6572 9.02591 17.7101 8.97326 17.7751 8.97326H18.0156C18.0808 8.97326 18.1334 9.02618 18.1334 9.09114C18.1334 9.09114 18.1334 28.5326 18.1334 28.535C18.1334 29.3434 18.7888 29.9984 19.597 29.9984C20.4051 29.9984 21.0604 29.3431 21.0604 28.535C21.0604 28.5329 21.0604 17.0946 21.0604 17.0946C21.0604 17.0111 21.099 16.9764 21.1814 16.9764H21.4176C21.4997 16.9764 21.5386 17.0113 21.5386 17.0946C21.5386 17.0946 21.5386 28.5329 21.5386 28.535C21.5386 29.3431 22.1938 29.9984 23.002 29.9984C23.8102 29.9984 24.4655 29.3431 24.4655 28.535C24.4655 28.5326 24.4655 9.09114 24.4655 9.09114C24.4655 9.02591 24.5184 8.97326 24.5834 8.97326H24.8239C24.8891 8.97326 24.9418 9.02618 24.9418 9.09114C24.9418 9.09114 24.9428 16.021 24.9433 16.0213C24.9438 16.6475 25.4517 17.1554 26.0783 17.1554C26.705 17.1554 27.2132 16.6473 27.2132 16.0205C27.2132 16.0169 27.2132 8.2282 27.2132 8.13546C27.2132 6.58233 26.0184 5.38751 24.5251 5.38751C24.4871 5.38751 22.4798 5.38751 21.5382 5.38751C21.5382 5.38751 21.3496 5.38751 21.0604 5.38751C20.1189 5.38751 18.1115 5.38751 18.0735 5.38751C16.5802 5.38751 15.5249 6.52704 15.3854 8.1352C15.3829 8.16528 15.3094 9.0063 15.2118 10.1287C14.8963 9.09807 14.6639 8.33845 14.6639 8.33845C14.4047 7.43731 13.9094 5.38525 11.9955 5.38525H7.21121C5.4279 5.38525 4.79643 7.43731 4.53697 8.33845C4.5316 8.35747 2.83743 13.8893 2.83662 13.8916C2.65298 14.4907 2.98975 15.1255 3.58909 15.3095Z" fill="white"/>
<path d="M21.299 4.732C22.5018 4.732 23.4769 3.75693 23.4769 2.55411C23.4769 1.3513 22.5018 0.376221 21.299 0.376221C20.0962 0.376221 19.1211 1.3513 19.1211 2.55411C19.1211 3.75693 20.0962 4.732 21.299 4.732Z" fill="white"/>
<path d="M9.50043 4.72987C10.7031 4.72987 11.6781 3.75489 11.6781 2.55219C11.6781 1.34949 10.7031 0.374512 9.50043 0.374512C8.29773 0.374512 7.32275 1.34949 7.32275 2.55219C7.32275 3.75489 8.29773 4.72987 9.50043 4.72987Z" fill="white"/>
</svg>
