<svg width="30" height="30" viewBox="0 0 30 30" fill="none" xmlns="http://www.w3.org/2000/svg">
<g clip-path="url(#clip0)">
<path d="M24.9998 19.992C22.4998 19.992 22.4998 18.3737 19.9996 18.3737C17.4996 18.3737 17.4996 19.992 14.9996 19.992C12.4997 19.992 12.4997 18.3737 9.99979 18.3737C7.49982 18.3737 7.49982 19.992 4.99986 19.992C2.49996 19.992 2.49996 18.3737 0 18.3737V26.0242H30V18.3737C27.5 18.3737 27.5 19.992 24.9998 19.992V19.992ZM5.72525 23.8164C5.64375 24.2223 5.27771 24.5236 4.86334 24.5236C4.49502 24.5236 4.16139 24.2862 4.03629 23.9408C3.91148 23.5962 4.02252 23.1974 4.30611 22.9656C4.59152 22.7322 4.99822 22.704 5.31486 22.8912C5.63004 23.0774 5.79715 23.4582 5.72525 23.8164V23.8164ZM11.3503 22.0586C11.2688 22.4645 10.9027 22.7658 10.4883 22.7658C10.1199 22.7658 9.78645 22.5285 9.66129 22.183C9.53631 21.8381 9.64787 21.4401 9.93111 21.2078C10.2161 20.974 10.6236 20.9465 10.9399 21.1334C11.255 21.3196 11.4221 21.7005 11.3503 22.0586V22.0586ZM15.8617 23.8164C15.7802 24.2223 15.414 24.5236 14.9998 24.5236C14.6313 24.5236 14.2979 24.2863 14.1727 23.9408C14.0477 23.5958 14.1592 23.198 14.4425 22.9656C14.7276 22.7318 15.1349 22.7044 15.4513 22.8912C15.7664 23.0773 15.9336 23.4585 15.8617 23.8164V23.8164ZM20.7253 22.0586C20.6441 22.4644 20.2773 22.7658 19.8633 22.7658C19.495 22.7658 19.1614 22.5284 19.0363 22.183C18.9115 21.8387 19.0225 21.4389 19.3061 21.2072C19.5915 20.9741 19.9986 20.9466 20.3149 21.1334C20.6301 21.3195 20.7969 21.7005 20.7253 22.0586V22.0586ZM25.9987 23.8164C25.9172 24.2223 25.551 24.5236 25.1368 24.5236C24.7684 24.5236 24.4348 24.2862 24.3097 23.9408C24.1849 23.5962 24.296 23.1974 24.5796 22.9656C24.8651 22.7322 25.2713 22.7042 25.5881 22.8912C25.9034 23.0772 26.0706 23.4583 25.9987 23.8164Z" fill="white"/>
<path d="M17.9115 14.3087C17.945 14.1813 17.9638 14.0538 17.9638 13.9257C17.9638 12.2888 16.6369 10.9619 15 10.9619C13.3631 10.9619 12.0362 12.2888 12.0362 13.9257C12.0362 14.0539 12.0551 14.1813 12.0885 14.3087H0V16.6159C1.76924 16.6159 2.74365 17.2467 3.45516 17.7072C3.99715 18.0581 4.2692 18.2342 4.99986 18.2342C5.73059 18.2342 6.00264 18.0581 6.54463 17.7072C7.25613 17.2467 8.23055 16.6159 9.99978 16.6159C11.769 16.6159 12.7434 17.2467 13.4549 17.7072C13.9969 18.0581 14.2689 18.2342 14.9996 18.2342C15.7303 18.2342 16.0024 18.0581 16.5444 17.7072C17.2559 17.2467 18.2303 16.6159 19.9996 16.6159C21.7689 16.6159 22.7433 17.2467 23.4548 17.7072C23.9969 18.0581 24.269 18.2342 24.9998 18.2342C25.7306 18.2342 26.0027 18.0581 26.5447 17.7072C27.2562 17.2467 28.2306 16.6159 30 16.6159V14.3087H17.9115Z" fill="white"/>
<path d="M11.2283 8.52182C11.0034 8.52182 10.7785 8.43604 10.6069 8.26436L9.84483 7.50229C9.50159 7.15905 9.50159 6.60258 9.84483 6.25934C10.1881 5.91616 10.7446 5.91616 11.0878 6.25934L11.8499 7.02141C12.1931 7.36465 12.1931 7.92118 11.8499 8.26436C11.6782 8.43598 11.4532 8.52182 11.2283 8.52182Z" fill="white"/>
<path d="M18.7717 8.52191C18.5468 8.52191 18.3218 8.43613 18.1503 8.2645C17.807 7.92126 17.807 7.3648 18.1503 7.02156L18.9123 6.25948C19.2556 5.9163 19.812 5.91624 20.1553 6.25948C20.4985 6.60273 20.4985 7.15919 20.1553 7.50243L19.3932 8.2645C19.2216 8.43607 18.9966 8.52191 18.7717 8.52191Z" fill="white"/>
<path d="M15 6.81154C14.5146 6.81154 14.1211 6.41802 14.1211 5.93263V4.85486C14.1211 4.36947 14.5146 3.97595 15 3.97595C15.4854 3.97595 15.8789 4.36947 15.8789 4.85486V5.93263C15.8789 6.41802 15.4854 6.81154 15 6.81154Z" fill="white"/>
</g>
<defs>
<clipPath id="clip0">
<rect width="30" height="30" fill="white"/>
</clipPath>
</defs>
</svg>
