<svg width="40" height="40" viewBox="0 0 40 40" fill="none" xmlns="http://www.w3.org/2000/svg">
<path d="M29.9501 23.0036C30.4262 22.3866 30.8958 21.7467 31.3558 21.0878C35.6734 14.9033 36.2621 7.80701 36.2851 7.50796L36.4376 5.51968L34.6634 6.29128C34.4143 6.39957 28.8892 8.84574 24.6432 14.2039C24.2339 7.28238 21.1414 1.9426 21.0008 1.70333L19.9999 0L18.999 1.70333C18.8584 1.9426 15.766 7.2823 15.3566 14.2038C11.1107 8.84566 5.58553 6.39957 5.33645 6.2912L3.56227 5.51968L3.71478 7.50796C3.73775 7.80701 4.32646 14.9033 8.64401 21.0878C9.10412 21.7468 9.5736 22.3866 10.0497 23.0036C4.77274 23.2502 1.06679 26.8088 0.90631 26.9656L0 27.8501L0.906388 28.7347C1.07273 28.8971 5.04354 32.7101 10.6244 32.7101C13.2675 32.7101 15.7683 32.304 17.666 31.5666C18.1039 31.3964 18.4889 31.2173 18.828 31.0322V40H21.172V31.0322C21.5111 31.2173 21.8961 31.3964 22.334 31.5666C24.2317 32.304 26.7325 32.7101 29.3756 32.7101C34.9565 32.7101 38.9273 28.8971 39.0936 28.7347L40 27.8501L39.0936 26.9656C38.9331 26.8088 35.2271 23.2502 29.9501 23.0036ZM29.3755 30.2801C27.0064 30.2801 24.7977 29.9289 23.1565 29.2912C21.7107 28.7294 21.1719 28.1092 21.1719 27.8501H18.828C18.828 28.1092 18.2892 28.7294 16.8434 29.2912C15.2022 29.9289 12.9935 30.2801 10.6243 30.2801C7.55011 30.2801 4.99611 28.8322 3.61766 27.8502C4.99674 26.8677 7.55034 25.4202 10.6243 25.4202C10.9903 25.4202 11.3504 25.4408 11.7317 25.4628C12.7633 25.5221 12.5147 25.4966 15.3705 25.5977L13.5125 23.4747C12.5002 22.3182 11.5011 21.0357 10.5428 19.6631C8.03217 16.0668 6.89733 12.0394 6.40433 9.59069C8.49431 10.8415 11.8298 13.2177 14.3402 16.8135C14.8126 17.4903 15.2395 18.1582 15.5587 18.6644L17.914 22.4004L17.7104 17.9422C17.6738 17.1421 17.6561 16.4087 17.6561 15.7002C17.6561 11.2587 19.0159 7.30425 20.0016 5.02162C20.9869 7.29931 22.3439 11.245 22.3439 15.7002C22.3439 16.4087 22.3261 17.1421 22.2896 17.9422L22.086 22.4004L24.4413 18.6644C24.7605 18.1581 25.1874 17.4903 25.6598 16.8135C28.1704 13.2173 31.506 10.8412 33.5956 9.59061C33.1026 12.0396 31.9676 16.0671 29.4572 19.663C28.4989 21.0356 27.4998 22.318 26.4875 23.4747L24.6295 25.5976C27.6104 25.4921 27.2533 25.5211 28.2683 25.4627C28.6496 25.4407 29.0097 25.4201 29.3757 25.4201C32.4499 25.4201 35.0039 26.868 36.3823 27.85C35.0031 28.8326 32.4495 30.2801 29.3755 30.2801Z" fill="#595959"/>
</svg>
