<svg width="40" height="40" viewBox="0 0 40 40" fill="none" xmlns="http://www.w3.org/2000/svg">
<path d="M34.1763 5.82369C32.3679 4.01569 29.9155 3 27.3583 3C24.8011 3 22.3486 4.01569 20.5402 5.82369L5.92481 20.4391C5.00786 21.3297 4.2771 22.3936 3.77503 23.5691C3.27296 24.7446 3.0096 26.0082 3.00026 27.2863C2.99092 28.5645 3.23578 29.8318 3.72062 31.0145C4.20545 32.1972 4.92058 33.2717 5.82442 34.1756C6.72826 35.0794 7.80277 35.7945 8.98547 36.2794C10.1682 36.7642 11.4355 37.0091 12.7137 36.9997C13.9918 36.9904 15.2554 36.727 16.4309 36.225C17.6064 35.7229 18.6703 34.9921 19.5609 34.0752L34.1763 19.4597C35.9843 17.6514 37 15.1989 37 12.6417C37 10.0845 35.9843 7.63208 34.1763 5.82369ZM16.8864 31.4195C15.7639 32.4805 14.278 33.0716 12.7334 33.0716C11.1889 33.0716 9.70292 32.4805 8.58045 31.4195C7.48437 30.3153 6.86927 28.8225 6.86927 27.2666C6.86927 25.7107 7.48437 24.2179 8.58045 23.1136L14.5698 17.1243L22.8757 25.4302L16.8864 31.4195ZM31.5207 16.7853L25.5313 22.7746L17.2254 14.4687L23.2147 8.47933C24.3279 7.43651 25.8029 6.86739 27.328 6.89226C28.8531 6.91713 30.3088 7.53405 31.3874 8.61261C32.4659 9.69117 33.0829 11.1469 33.1077 12.672C33.1326 14.1971 32.5635 15.6721 31.5207 16.7853Z" fill="#595959"/>
</svg>
