<svg width="40" height="40" viewBox="0 0 40 40" fill="none" xmlns="http://www.w3.org/2000/svg">
<path d="M35.4582 21.5308C35.1358 21.0203 34.7817 20.5092 34.3993 19.9999C34.7816 19.4905 35.1358 18.9796 35.458 18.4691C37.8156 14.7344 38.2657 11.3836 36.7255 9.03436C35.5187 7.19346 33.2623 6.22039 30.2005 6.22039C29.2885 6.22039 28.3167 6.31026 27.3028 6.48115C27.2666 6.39885 27.232 6.31397 27.1951 6.23282C25.3643 2.21359 22.8091 0 19.9998 0C17.1906 0 14.6352 2.21359 12.8044 6.23295C12.7675 6.3141 12.7329 6.39897 12.6966 6.48128C11.6828 6.31039 10.7109 6.22051 9.79893 6.22051C6.73701 6.22051 4.48072 7.19359 3.2738 9.03449C1.73354 11.3838 2.1838 14.7345 4.54136 18.4692C4.86367 18.9797 5.21777 19.4908 5.60021 20C5.21777 20.5094 4.86367 21.0203 4.54136 21.5308C2.18367 25.2655 1.73354 28.6163 3.2738 30.9655C4.48072 32.8064 6.73701 33.7795 9.79893 33.7795C10.7109 33.7795 11.6828 33.6896 12.6967 33.5186C12.733 33.6009 12.7676 33.6858 12.8046 33.7669C14.6352 37.7864 17.1906 40 19.9998 40C22.8091 40 25.3643 37.7864 27.1951 33.7671C27.2321 33.6859 27.2666 33.601 27.3029 33.5186C28.3166 33.6896 29.2885 33.7795 30.2005 33.7796C30.201 33.7796 30.2012 33.7796 30.2017 33.7796C33.2626 33.7796 35.5189 32.8065 36.7257 30.9656C38.266 28.6162 37.8157 25.2656 35.4582 21.5308ZM9.79893 31.2154C8.29559 31.2154 6.31534 30.9281 5.41816 29.5596C4.47508 28.1212 4.94585 25.6936 6.7097 22.8994C6.89162 22.6113 7.08483 22.3228 7.2888 22.0344C8.25226 23.0928 9.33213 24.1314 10.5078 25.1306C10.7723 27.2478 11.2001 29.2518 11.7782 31.0713C11.0891 31.1663 10.4267 31.2154 9.79893 31.2154ZM10.2173 21.3891C9.75572 20.9304 9.31777 20.4668 8.90585 20C9.31777 19.5332 9.75572 19.0697 10.2173 18.6109C10.2024 19.0714 10.1923 19.534 10.1923 20C10.1923 20.466 10.2023 20.9285 10.2173 21.3891ZM10.5079 14.8692C9.33213 15.8683 8.25239 16.9071 7.28893 17.9655C7.08495 17.6771 6.89162 17.3886 6.70983 17.1005C4.94598 14.3064 4.47521 11.8787 5.41829 10.4403C6.31534 9.0718 8.29572 8.78462 9.79906 8.78462C10.4269 8.78462 11.0891 8.83385 11.7783 8.92872C11.2002 10.7481 10.7723 12.7522 10.5079 14.8692ZM26.5223 12.5755C26.1469 12.3117 25.7652 12.0522 25.3773 11.7979C24.5873 11.28 23.7861 10.7938 22.9803 10.34C23.9051 9.98487 24.8146 9.68641 25.6971 9.4491C26.0216 10.4308 26.2971 11.4778 26.5223 12.5755ZM19.9998 2.5641C21.6741 2.5641 23.3974 4.19859 24.7511 7.05872C23.2112 7.49167 21.6112 8.08564 19.9998 8.82141C18.3884 8.08564 16.7883 7.49154 15.2484 7.05872C16.6021 4.19859 18.3255 2.5641 19.9998 2.5641ZM14.3024 9.4491C15.185 9.68641 16.0946 9.98487 17.0193 10.34C16.2137 10.7938 15.4125 11.28 14.6225 11.7979C14.2346 12.0523 13.8529 12.3118 13.4775 12.5755C13.7026 11.4778 13.978 10.4308 14.3024 9.4491ZM13.4774 27.4245C13.8528 27.6883 14.2344 27.9478 14.6224 28.2021C15.4124 28.72 16.2134 29.2062 17.0192 29.66C16.0944 30.0151 15.185 30.3136 14.3024 30.5509C13.978 29.5692 13.7026 28.5222 13.4774 27.4245ZM19.9998 37.4359C18.3255 37.4359 16.602 35.8014 15.2483 32.9413C16.7882 32.5085 18.3883 31.9144 19.9997 31.1786C21.6111 31.9144 23.2112 32.5083 24.7511 32.9412C23.3975 35.8014 21.6741 37.4359 19.9998 37.4359ZM25.6973 30.5508C24.8147 30.3135 23.9052 30.015 22.9805 29.66C23.7861 29.2062 24.5871 28.72 25.377 28.2022C25.765 27.9478 26.1467 27.6882 26.5223 27.4245C26.2971 28.5221 26.0216 29.5691 25.6973 30.5508ZM27.0598 23.8156C26.0903 24.5944 25.0573 25.3458 23.9711 26.0578C22.6628 26.9155 21.3283 27.6804 19.9997 28.3428C18.6711 27.6804 17.3365 26.9155 16.0282 26.0578C14.9421 25.3458 13.9091 24.5945 12.9397 23.8158C12.8198 22.5768 12.7562 21.3003 12.7562 20C12.7562 18.6997 12.8198 17.4232 12.9398 16.1842C13.9092 15.4055 14.9423 14.6542 16.0283 13.9422C17.3366 13.0844 18.6712 12.3195 19.9998 11.6571C21.3284 12.3195 22.663 13.0844 23.9714 13.9422C25.0574 14.6542 26.0905 15.4056 27.0598 16.1842C27.18 17.4233 27.2434 18.6997 27.2434 20C27.2434 21.3003 27.18 22.5767 27.0598 23.8156ZM30.2005 8.78462C31.7038 8.78462 33.6841 9.07192 34.5812 10.4404C35.5243 11.8788 35.0537 14.3064 33.2898 17.1006C33.108 17.3887 32.9147 17.6772 32.7107 17.9656C31.7473 16.9072 30.6674 15.8687 29.4919 14.8695C29.2274 12.7523 28.7996 10.7482 28.2215 8.92885C28.9106 8.83372 29.5728 8.78462 30.2005 8.78462ZM29.7825 18.611C30.2439 19.0697 30.682 19.5332 31.0938 19.9999C30.682 20.4665 30.2439 20.9301 29.7825 21.3887C29.7974 20.9282 29.8075 20.4658 29.8075 19.9999C29.8075 19.5341 29.7974 19.0715 29.7825 18.611ZM34.5815 29.5597C33.6843 30.9282 31.7048 31.2155 30.2017 31.2155C30.2015 31.2155 30.201 31.2155 30.2007 31.2155C29.5728 31.2154 28.9106 31.1663 28.2214 31.0712C28.7994 29.2518 29.2274 27.2477 29.4917 25.1305C30.6674 24.1314 31.7473 23.0928 32.7106 22.0345C32.9146 22.323 33.1079 22.6114 33.2897 22.8995C35.0537 25.6937 35.5244 28.1213 34.5815 29.5597Z" fill="white"/>
<path d="M19.9996 23.4322C21.8951 23.4322 23.4318 21.8956 23.4318 20C23.4318 18.1045 21.8951 16.5679 19.9996 16.5679C18.104 16.5679 16.5674 18.1045 16.5674 20C16.5674 21.8956 18.104 23.4322 19.9996 23.4322Z" fill="white"/>
</svg>
