<svg width="40" height="40" viewBox="0 0 40 40" fill="none" xmlns="http://www.w3.org/2000/svg">
<g clip-path="url(#clip0)">
<path d="M39.9696 22.8735C39.4841 20.983 38.4968 19.2533 37.1119 17.8687C35.2474 16.0043 32.828 14.8962 30.2261 14.698C30.1361 14.5256 30.0416 14.3558 29.9431 14.1887C30.5803 12.8021 30.9363 11.2606 30.9363 9.6374C30.9363 7.66075 30.4019 5.72236 29.3911 4.03203C29.2511 3.79804 28.955 3.71071 28.7105 3.83119C28.4661 3.95178 28.3549 4.23973 28.4553 4.49313C28.8783 5.56199 29.0928 6.68713 29.0928 7.83716C29.0928 9.28456 28.7512 10.653 28.1471 11.869C26.0591 9.7823 23.1773 8.48992 19.9991 8.48992C16.8209 8.48992 13.939 9.78218 11.851 11.869C11.247 10.653 10.9055 9.28456 10.9055 7.83728C10.9055 6.68725 11.12 5.56199 11.5431 4.49278C11.6435 4.23938 11.5324 3.95132 11.2878 3.83084C11.0435 3.71036 10.7473 3.79769 10.6074 4.03156C9.59622 5.72213 9.06185 7.66063 9.06185 9.63751C9.06185 11.2607 9.41782 12.8022 10.055 14.1889C9.9565 14.356 9.86218 14.5258 9.77205 14.6982C7.17009 14.8963 4.75071 16.0043 2.88606 17.8688C1.48937 19.2656 0.496913 21.0132 0.0159212 22.9227C-0.0505989 23.187 0.0968618 23.4582 0.354918 23.5459C0.612742 23.6337 0.89522 23.5087 1.00361 23.2584C1.45994 22.2048 2.10363 21.2583 2.91652 20.4453C4.47614 18.8856 6.50303 17.9649 8.6811 17.8082C8.5412 18.5249 8.46712 19.2648 8.46712 20.0219C8.46712 25.4612 12.2527 30.0323 17.3276 31.2406C16.9166 31.9894 16.3983 32.685 15.7775 33.3058C14.964 34.119 14.0169 34.7628 12.9623 35.2193C12.7122 35.3275 12.5869 35.6098 12.6748 35.868C12.7482 36.0843 12.9507 36.223 13.1699 36.223C13.2123 36.223 13.2552 36.2179 13.298 36.2071C15.2082 35.7262 16.9565 34.7335 18.3537 33.3364C18.9074 32.7827 19.3875 32.1833 19.7974 31.5511C19.8645 31.5523 19.9315 31.5537 19.9988 31.5537C20.0648 31.5537 20.1305 31.5523 20.1962 31.5512C20.6105 32.1881 21.094 32.7865 21.6438 33.3364C23.0414 34.734 24.7898 35.7267 26.6998 36.2073C26.7425 36.218 26.7854 36.2232 26.8277 36.2232C27.0471 36.2232 27.2495 36.0845 27.323 35.8681C27.4107 35.61 27.2856 35.3278 27.0354 35.2195C25.9809 34.7631 25.0338 34.1192 24.2204 33.3059C23.5996 32.6851 23.0812 31.9896 22.6702 31.2407C27.7449 30.0324 31.5305 25.4613 31.5305 20.022C31.5305 19.265 31.4565 18.525 31.3166 17.8083C33.4947 17.965 35.5215 18.8857 37.0811 20.4454C37.8941 21.2583 38.5377 22.2048 38.994 23.2586C39.0821 23.462 39.2861 23.5839 39.4968 23.5735C39.7765 23.5629 40 23.3329 40 23.0505C40.0002 22.9883 39.9894 22.9287 39.9696 22.8735ZM18.0052 29.665C13.5286 28.7405 10.1528 24.7682 10.1528 20.0219C10.1528 19.2733 10.2396 18.545 10.3985 17.8438C12.4296 18.0763 14.3104 18.978 15.7777 20.4453C15.901 20.5686 16.019 20.6954 16.1343 20.8243C16.2592 22.0043 16.9124 23.0267 17.8529 23.6509C18.2379 24.6678 18.4413 25.7557 18.4413 26.8755C18.4414 27.837 18.2908 28.7751 18.0052 29.665ZM19.9993 16.524C19.4803 16.524 18.9854 16.6265 18.5327 16.8111C16.1931 16.43 14.1512 15.1536 12.7702 13.3455C14.5703 11.3979 17.1443 9.82649 19.9993 9.82649C22.8543 9.82649 25.4282 11.3979 27.2284 13.3455C25.8474 15.1536 23.8054 16.43 21.4659 16.811C21.0131 16.6265 20.5182 16.524 19.9993 16.524ZM21.9934 29.665C21.7076 28.7751 21.5572 27.8372 21.5572 26.8755C21.5572 25.7557 21.7606 24.6677 22.1457 23.6508C23.0861 23.0266 23.7392 22.0043 23.8641 20.8244C23.9793 20.6954 24.0975 20.5684 24.2208 20.4452C25.6879 18.9779 27.5687 18.0761 29.5998 17.8437C29.7588 18.5448 29.8455 19.2732 29.8455 20.0217C29.8455 24.7681 26.4699 28.7405 21.9934 29.665Z" fill="white"/>
</g>
<defs>
<clipPath id="clip0">
<rect width="40" height="40" fill="white"/>
</clipPath>
</defs>
</svg>
