<svg width="108" height="108" viewBox="0 0 108 108" fill="none" xmlns="http://www.w3.org/2000/svg">
<path d="M51.75 1.87639C53.1423 1.07254 54.8577 1.07254 56.25 1.87639L98.0154 25.9896C99.4077 26.7935 100.265 28.2791 100.265 29.8868V78.1133C100.265 79.7209 99.4077 81.2065 98.0154 82.0104L56.25 106.124C54.8577 106.927 53.1423 106.927 51.75 106.124L9.98463 82.0104C8.59232 81.2065 7.73463 79.7209 7.73463 78.1133V29.8867C7.73463 28.2791 8.59232 26.7935 9.98463 25.9896L51.75 1.87639Z" stroke="url(#paint0_linear)" stroke-opacity="0.4"/>
<path d="M51.5 10.4434C53.047 9.55021 54.953 9.55021 56.5 10.4434L90.4711 30.0566C92.0182 30.9498 92.9711 32.6004 92.9711 34.3868V73.6133C92.9711 75.3996 92.0182 77.0502 90.4711 77.9434L56.5 97.5566C54.953 98.4498 53.047 98.4498 51.5 97.5566L17.5289 77.9434C15.9819 77.0502 15.0289 75.3996 15.0289 73.6133V34.3867C15.0289 32.6004 15.9819 30.9498 17.5289 30.0566L51.5 10.4434Z" fill="white" fill-opacity="0.1"/>
<path d="M51.5 10.4434C53.047 9.55021 54.953 9.55021 56.5 10.4434L90.4711 30.0566C92.0182 30.9498 92.9711 32.6004 92.9711 34.3868V73.6133C92.9711 75.3996 92.0182 77.0502 90.4711 77.9434L56.5 97.5566C54.953 98.4498 53.047 98.4498 51.5 97.5566L17.5289 77.9434C15.9819 77.0502 15.0289 75.3996 15.0289 73.6133V34.3867C15.0289 32.6004 15.9819 30.9498 17.5289 30.0566L51.5 10.4434Z" fill="url(#paint1_radial)"/>
<path d="M51.75 10.8764C53.1423 10.0725 54.8577 10.0725 56.25 10.8764L90.2211 30.4896C91.6134 31.2935 92.4711 32.7791 92.4711 34.3868V73.6133C92.4711 75.2209 91.6134 76.7065 90.2211 77.5104L56.25 97.1236C54.8577 97.9275 53.1423 97.9275 51.75 97.1236L17.7789 77.5104C16.3866 76.7065 15.5289 75.2209 15.5289 73.6133V34.3867C15.5289 32.7791 16.3866 31.2935 17.7789 30.4896L51.75 10.8764Z" stroke="url(#paint2_linear)" stroke-opacity="0.4"/>
<defs>
<linearGradient id="paint0_linear" x1="54" y1="0" x2="54" y2="96.5" gradientUnits="userSpaceOnUse">
<stop stop-color="white"/>
<stop offset="1" stop-color="white" stop-opacity="0"/>
</linearGradient>
<radialGradient id="paint1_radial" cx="0" cy="0" r="1" gradientUnits="userSpaceOnUse" gradientTransform="translate(54 54) rotate(90) scale(45)">
<stop stop-color="#DBFF4C" stop-opacity="0.01"/>
<stop offset="1"/>
</radialGradient>
<linearGradient id="paint2_linear" x1="54" y1="9" x2="54" y2="89.4167" gradientUnits="userSpaceOnUse">
<stop stop-color="white"/>
<stop offset="1" stop-color="white" stop-opacity="0"/>
</linearGradient>
</defs>
</svg>
