<svg width="40" height="40" viewBox="0 0 40 40" fill="none" xmlns="http://www.w3.org/2000/svg">
<path d="M20 0C8.972 0 0 8.972 0 20C0 31.028 8.972 40 20 40C31.028 40 40 31.028 40 20C40 8.972 31.028 0 20 0ZM27.9159 34.861L22.583 25.0186C21.8083 25.419 20.9305 25.6466 20 25.6466C19.0695 25.6466 18.1917 25.419 17.417 25.0186L12.0841 34.861C6.78555 32.0274 3.16981 26.4432 3.15897 20.0286L14.3575 20.0086C14.356 19.9498 14.3533 19.8912 14.3533 19.8321C14.3533 17.8547 15.376 16.2805 16.9191 15.2715L11.127 5.69213C13.7054 4.08748 16.7459 3.15884 20 3.15884C23.2538 3.15884 26.2941 4.08735 28.8723 5.69187L23.0819 15.2725C24.6245 16.2815 25.6467 17.8492 25.6467 19.8261C25.6467 19.8852 25.644 19.9437 25.6422 20.0026L36.8408 20.0288C36.8299 26.4432 33.2145 32.0274 27.9159 34.861Z" fill="white"/>
<path d="M19.9995 23.6196C21.9986 23.6196 23.6191 21.999 23.6191 20C23.6191 18.0009 21.9986 16.3804 19.9995 16.3804C18.0004 16.3804 16.3799 18.0009 16.3799 20C16.3799 21.999 18.0004 23.6196 19.9995 23.6196Z" fill="white"/>
</svg>
