<svg width="482" height="872" viewBox="0 0 482 872" fill="none" xmlns="http://www.w3.org/2000/svg">
<path d="M859.227 846.453H846.453V505.828H859.227C866.281 505.828 872 500.111 872 493.055C872 485.999 866.281 480.281 859.227 480.281H650.776V442.206L659.472 445.136C665.988 447.339 673.378 443.868 675.655 437.107C677.907 430.422 674.311 423.177 667.627 420.926L614.828 403.142V314.257H627.602C634.656 314.257 640.375 308.54 640.375 301.484C640.375 294.428 634.656 288.71 627.602 288.71H614.355C607.954 201.623 536.668 132.294 448.773 128.978V110.703H551.812C568.246 110.703 581.617 97.3319 581.617 80.8984V29.8047C581.617 13.3712 568.246 0 551.812 0H436C428.946 0 423.227 5.71739 423.227 12.7734V128.981C386.138 130.41 350.171 143.843 321.303 167.196C315.819 171.632 314.969 179.676 319.406 185.16C323.844 190.646 331.888 191.496 337.37 187.058C363.413 165.988 396.244 154.385 429.814 154.385H442.184C518.987 154.385 582.191 213.562 588.69 288.709H283.286C285.486 263.07 294.281 238.642 309.092 217.418C313.128 211.632 311.711 203.67 305.926 199.633C300.14 195.601 292.18 197.012 288.14 202.798C270.322 228.335 259.9 257.809 257.645 288.709H244.398C237.344 288.709 231.625 294.426 231.625 301.482C231.625 308.538 237.344 314.256 244.398 314.256H257.172V403.14L204.373 420.924C197.689 423.175 194.093 430.421 196.345 437.105C198.598 443.792 205.843 447.384 212.528 445.134L221.224 442.204V480.281H12.7734C5.71909 480.281 0 485.999 0 493.055C0 500.111 5.71909 505.828 12.7734 505.828H25.5469V846.453H12.7734C5.71909 846.453 0 852.171 0 859.227C0 866.283 5.71909 872 12.7734 872H859.227C866.281 872 872 866.283 872 859.227C872 852.171 866.281 846.453 859.227 846.453ZM448.773 25.5469H551.812C554.159 25.5469 556.07 27.4561 556.07 29.8047V80.8984C556.07 83.247 554.159 85.1562 551.812 85.1562H448.773V25.5469ZM282.719 314.257H589.281V394.537L461.823 351.607C445.171 345.997 426.832 345.998 410.179 351.607L282.719 394.537V314.257ZM246.771 433.6L418.333 375.817C429.727 371.981 442.278 371.983 453.668 375.817L625.231 433.6V480.281H246.771V433.6ZM166.429 846.453H102.188V795.359H166.429V846.453ZM166.429 769.812H102.188V726.849C102.188 709.139 116.596 694.73 134.308 694.73C152.021 694.73 166.429 709.139 166.429 726.849V769.812ZM217.523 846.453H191.976V726.849C191.976 695.052 166.107 669.183 134.308 669.183C102.509 669.183 76.6406 695.052 76.6406 726.849V846.453H51.0938V645.302H217.523V846.453ZM217.523 619.755H51.0938V505.828H175.757V532.227C175.757 553.356 192.947 570.547 214.078 570.547H217.521V619.755H217.523ZM296.821 846.453H243.07V570.547H296.822V846.453H296.821ZM379.877 846.453H322.367V570.547H379.877V846.453ZM459.174 846.453H405.424V570.547H459.174V846.453ZM549.633 846.453H484.723V570.547H488.131C495.185 570.547 500.904 564.829 500.904 557.773C500.904 550.717 495.185 545 488.131 545H214.078C207.034 545 201.304 539.271 201.304 532.227V505.828H670.694V532.227C670.694 539.271 664.965 545 657.921 545H539.223C532.169 545 526.45 550.717 526.45 557.773C526.45 564.829 532.169 570.547 539.223 570.547H549.631V846.453H549.633ZM628.93 846.453H575.179V570.547H628.932V846.453H628.93ZM769.812 846.453H705.571V795.359H769.812V846.453ZM769.812 769.812H705.571V726.849C705.571 709.139 719.979 694.73 737.692 694.73C755.404 694.73 769.812 709.139 769.812 726.849V769.812ZM820.906 846.453H795.359V726.849C795.359 695.052 769.491 669.183 737.692 669.183C705.893 669.183 680.024 695.052 680.024 726.849V846.453H654.477V645.302H820.906V846.453ZM820.906 619.755H654.477V570.547H657.921C679.051 570.547 696.241 553.356 696.241 532.227V505.828H820.906V619.755Z" fill="#46555F" fill-opacity="0.06"/>
</svg>
