<svg width="26" height="26" viewBox="0 0 26 26" fill="none" xmlns="http://www.w3.org/2000/svg">
<path d="M19.4918 8.72617C19.0916 8.30417 18.4244 8.28559 18.0018 8.68681L11.2727 15.0684L8.06311 11.7731C7.6566 11.356 6.9901 11.3469 6.57268 11.7534C6.15561 12.1596 6.14683 12.8268 6.55297 13.2439L10.4881 17.2841C10.6943 17.4959 10.9684 17.6027 11.2432 17.6027C11.5039 17.6027 11.7646 17.5064 11.9687 17.3136L19.4525 10.2163C19.8748 9.81573 19.8927 9.14851 19.4918 8.72617Z" fill="white"/>
<path d="M13 0C5.83172 0 0 5.83172 0 13C0 20.1683 5.83172 26 13 26C20.1683 26 26 20.1683 26 13C26 5.83172 20.1683 0 13 0ZM13 23.8919C6.99436 23.8919 2.10808 19.0061 2.10808 13C2.10808 6.99436 6.9943 2.10808 13 2.10808C19.006 2.10808 23.8919 6.9943 23.8919 13C23.8919 19.006 19.006 23.8919 13 23.8919Z" fill="white"/>
</svg>
