<svg width="28" height="27" viewBox="0 0 28 27" fill="none" xmlns="http://www.w3.org/2000/svg">
<path d="M13.7129 0C6.25776 0 0.212891 6.04487 0.212891 13.5C0.212891 20.9551 6.25776 27 13.7129 27C21.168 27 27.2129 20.9551 27.2129 13.5C27.2129 6.04487 21.168 0 13.7129 0ZM18.697 18.6288L16.7082 18.6198L13.7129 15.0489L10.7206 18.6167L8.72874 18.6258C8.59615 18.6258 8.48767 18.5203 8.48767 18.3847C8.48767 18.3275 8.50876 18.2732 8.54492 18.228L12.4653 13.5573L8.54492 8.88951C8.50851 8.84534 8.48831 8.79005 8.48767 8.73281C8.48767 8.60022 8.59615 8.49174 8.72874 8.49174L10.7206 8.50078L13.7129 12.0717L16.7052 8.5038L18.694 8.49475C18.8266 8.49475 18.9351 8.60022 18.9351 8.73583C18.9351 8.79308 18.914 8.84732 18.8778 8.89252L14.9634 13.5603L18.8809 18.231C18.917 18.2762 18.9381 18.3305 18.9381 18.3877C18.9381 18.5203 18.8296 18.6288 18.697 18.6288Z" fill="white" fill-opacity="0.2"/>
</svg>
