<svg width="40" height="40" viewBox="0 0 40 40" fill="none" xmlns="http://www.w3.org/2000/svg">
<g clip-path="url(#clip0)">
<path d="M21.1719 25.7004C22.5191 25.3696 23.5156 24.5024 23.5156 23.5057C23.5156 22.5091 22.5191 21.6419 21.1719 21.311V25.7004Z" fill="#DCFF00"/>
<path d="M20.001 7.11035C12.8931 7.11035 7.11035 12.8931 7.11035 20.001C7.11035 27.1089 12.8931 32.8916 20.001 32.8916C27.1089 32.8916 32.8916 27.1089 32.8916 20.001C32.8916 12.8931 27.1089 7.11035 20.001 7.11035ZM25.8604 23.5052C25.8604 25.7693 23.844 27.6624 21.1729 28.0979V29.376C21.1729 30.0237 20.6487 30.5478 20.001 30.5478C19.3532 30.5478 18.8291 30.0237 18.8291 29.376V28.0979C16.1579 27.6624 14.1416 25.7693 14.1416 23.5052C14.1416 22.8575 14.6657 22.3333 15.3135 22.3333C15.9612 22.3333 16.4854 22.8575 16.4854 23.5052C16.4854 24.5018 17.4818 25.369 18.8291 25.6999V21.0666C16.1579 20.6311 14.1416 18.738 14.1416 16.4739C14.1416 14.2099 16.1579 12.3168 18.8291 11.8813V10.6146C18.8291 9.96684 19.3532 9.44269 20.001 9.44269C20.6487 9.44269 21.1729 9.96684 21.1729 10.6146V11.8813C23.844 12.3168 25.8604 14.2099 25.8604 16.4739C25.8604 17.1217 25.3362 17.6458 24.6885 17.6458C24.0407 17.6458 23.5166 17.1217 23.5166 16.4739C23.5166 15.4773 22.5201 14.6101 21.1729 14.2793V18.9125C23.844 19.3479 25.8604 21.2411 25.8604 23.5052Z" fill="#DCFF00"/>
<path d="M18.8281 14.2798C17.4809 14.6106 16.4844 15.4778 16.4844 16.4745C16.4844 17.4711 17.4809 18.3383 18.8281 18.6692V14.2798Z" fill="#DCFF00"/>
<path d="M19.998 0C9.01289 0 -0.00195312 9.01484 -0.00195312 20C-0.00195312 30.9852 9.01289 40 19.998 40C30.9832 40 39.998 30.9852 39.998 20C39.998 9.01484 30.9832 0 19.998 0ZM19.998 35.2344C11.598 35.2344 4.76367 28.4 4.76367 20C4.76367 11.6 11.598 4.76562 19.998 4.76562C28.398 4.76562 35.2324 11.6 35.2324 20C35.2324 28.4 28.398 35.2344 19.998 35.2344Z" fill="#DCFF00"/>
</g>
<defs>
<clipPath id="clip0">
<rect width="40" height="40" fill="white"/>
</clipPath>
</defs>
</svg>
