<svg width="40" height="40" viewBox="0 0 40 40" fill="none" xmlns="http://www.w3.org/2000/svg">
<path fill-rule="evenodd" clip-rule="evenodd" d="M22.85 40H17.15L14.8563 35.1562L12.9211 34.3536L7.87384 36.1575L3.84247 32.1262L5.64636 27.0789L4.84375 25.1437L0 22.85V17.15L4.84375 14.8563L5.64636 12.9211L3.84247 7.87384L7.87384 3.84247L12.9239 5.64758L14.855 4.84741L17.15 0H22.85L25.145 4.84741L27.0761 5.64758L32.1262 3.84247L36.1575 7.87384L34.3536 12.9211L35.1562 14.8563L40 17.15V22.85L35.1562 25.1437L34.3536 27.0789L36.1575 32.1262L32.1262 36.1575L27.0789 34.3536L25.1437 35.1562L22.85 40ZM19.9996 15.0007C22.7611 15.0007 24.9996 17.2392 24.9996 20.0007H27.4996C27.5008 16.0658 24.4609 12.7988 20.5361 12.5175C16.6112 12.2361 13.1362 15.0355 12.5759 18.9304C12.0159 22.8251 14.5607 26.4909 18.4059 27.327L16.6158 29.1169L18.3834 30.8845L22.7709 26.497L19.8745 20.6919L17.6372 21.8095L19.1921 24.9183C16.6246 24.4999 14.8091 22.1796 15.02 19.5869C15.2312 16.9941 17.3983 14.9982 19.9996 15.0007ZM27.4992 22.5H24.9992V25H27.4992V22.5Z" fill="#C1E704"/>
</svg>
