<svg width="45" height="45" viewBox="0 0 45 45" fill="none" xmlns="http://www.w3.org/2000/svg">
<path d="M5.85352 4.43498L4.63166 1.67908L3.40963 4.43498C3.33202 4.60997 1.69488 8.36325 1.34692 13.8583H7.91622C7.56826 8.36325 5.93112 4.60997 5.85352 4.43498Z" fill="white" fill-opacity="0.5"/>
<path d="M0.790771 16.5317V19.205H1.43009H8.30401H8.47136V16.5317H0.790771Z" fill="white" fill-opacity="0.5"/>
<path d="M8.8788 21.8784H0.84208H0V43.321H9.24891V21.8784H8.8788Z" fill="white" fill-opacity="0.5"/>
<path d="M17.7771 4.43498L16.5552 1.67908L15.3333 4.43498C15.2557 4.60997 13.6186 8.36325 13.2706 13.8583H19.8399C19.492 8.36325 17.8547 4.60997 17.7771 4.43498Z" fill="white" fill-opacity="0.5"/>
<path d="M12.7003 16.5317V19.205H13.8923H20.3808V16.5317H12.7003Z" fill="white" fill-opacity="0.5"/>
<path d="M13.3154 21.8784H11.9231V43.321H21.1668V21.8784H13.3154Z" fill="white" fill-opacity="0.5"/>
<path d="M29.6733 4.43498L28.4513 1.67908L27.2295 4.43498C27.1518 4.60997 25.5147 8.36325 25.1667 13.8583H31.736C31.3879 8.36325 29.7509 4.60997 29.6733 4.43498Z" fill="white" fill-opacity="0.5"/>
<path d="M24.6241 16.5317V19.205H26.3688H32.3046V16.5317H24.6241Z" fill="white" fill-opacity="0.5"/>
<path d="M25.7785 21.8784H23.8337V43.321H33.0773V21.8784H25.7785Z" fill="white" fill-opacity="0.5"/>
<path d="M41.597 4.43498L40.3751 1.67908L39.1532 4.43498C39.0756 4.60997 37.4384 8.36325 37.0905 13.8583H43.6598C43.3119 8.36325 41.6747 4.60997 41.597 4.43498Z" fill="white" fill-opacity="0.5"/>
<path d="M36.533 16.5317V19.205H38.8302H44.2134V16.5317H36.533Z" fill="white" fill-opacity="0.5"/>
<path d="M38.2536 21.8784H35.7561V43.321H44.9998V21.8784H38.2536Z" fill="white" fill-opacity="0.5"/>
</svg>
