<svg width="28" height="28" viewBox="0 0 28 28" fill="none" xmlns="http://www.w3.org/2000/svg">
<path d="M14 0C6.26737 0 0 6.26798 0 14C0 21.732 6.26737 28 14 28C21.7326 28 28 21.7314 28 14C28 6.26859 21.732 0 14 0ZM14.8475 20.2363V21.8569C14.8475 22.1098 14.6507 22.2937 14.3972 22.2937H13.317C13.0636 22.2937 12.8595 22.1098 12.8595 21.8569V20.3789C11.8652 20.3338 10.8624 20.1218 10.1032 19.833C9.69198 19.677 9.4629 19.2365 9.57196 18.81L9.74803 18.124C9.80957 17.8834 9.97041 17.6823 10.1903 17.5696C10.4103 17.4551 10.6686 17.4435 10.8995 17.5318C11.6227 17.8115 12.4769 18.015 13.3889 18.015C14.5502 18.015 15.3452 17.5666 15.3452 16.7514C15.3452 15.977 14.6933 15.4878 13.1848 14.9778C11.0043 14.2443 9.51103 13.2256 9.51103 11.2486C9.51103 9.45559 10.7801 8.04944 12.9496 7.62113V6.14309C12.9496 5.89025 13.1659 5.66361 13.4194 5.66361H14.4996C14.753 5.66361 14.9389 5.89025 14.9389 6.14309V7.47796C15.8875 7.51878 16.5723 7.65952 17.145 7.84595C17.5781 7.98729 17.834 8.44119 17.7201 8.8835L17.5653 9.49763C17.505 9.73158 17.3503 9.9302 17.1383 10.0447C16.9262 10.1593 16.6758 10.18 16.4468 10.1014C15.9265 9.92289 15.2477 9.76083 14.3875 9.76083C13.063 9.76083 12.6347 10.3317 12.6347 10.9026C12.6347 11.5752 13.3481 12.0029 15.0802 12.6554C17.505 13.5114 18.4792 14.6324 18.4792 16.4656C18.4786 18.2794 17.1974 19.8293 14.8475 20.2363Z" fill="#B6D300"/>
</svg>
