<?xml version="1.0"?>
<svg xmlns="http://www.w3.org/2000/svg" id="Capa_1" enable-background="new 0 0 512 512" height="512px" viewBox="0 0 512 512" width="512px"><g><g><path d="m30.63 312.688c7.896-2.49 12.29-10.926 9.8-18.821-6.929-21.944-10.43-44.768-10.43-67.867 0-23.101 3.501-45.925 10.43-67.866 2.49-7.896-1.904-16.333-9.8-18.821-7.927-2.419-16.333 1.901-18.823 9.798-7.839 24.856-11.807 50.725-11.807 76.889 0 26.162 3.968 52.031 11.807 76.89 2.488 7.886 10.896 12.27 18.823 9.798z" data-original="#000000" class="active-path" data-old_color="#000000" fill="#FFFFFF"/><path d="m481.37 312.688c7.91 2.472 16.331-1.899 18.821-9.798 7.839-24.859 11.809-50.728 11.809-76.89 0-26.164-3.97-52.033-11.808-76.89-2.476-7.897-10.84-12.217-18.821-9.798-7.897 2.488-12.292 10.926-9.802 18.821 6.93 21.942 10.431 44.766 10.431 67.867 0 23.099-3.501 45.923-10.432 67.866-2.49 7.896 1.905 16.331 9.802 18.822z" data-original="#000000" class="active-path" data-old_color="#000000" fill="#FFFFFF"/><path d="m85.737 162.997c-7.939-2.272-16.245 2.417-18.472 10.415-4.761 17.064-7.18 34.761-7.18 52.588 0 17.825 2.419 35.522 7.18 52.586 2.25 8.095 10.635 12.634 18.472 10.417 7.983-2.227 12.642-10.488 10.415-18.472-4.028-14.445-6.066-29.431-6.066-44.531 0-15.103 2.038-30.088 6.066-44.533 2.227-7.982-2.431-16.245-10.415-18.47z" data-original="#000000" class="active-path" data-old_color="#000000" fill="#FFFFFF"/><path d="m426.263 289.003c7.815 2.208 16.214-2.298 18.47-10.417 4.763-17.064 7.18-34.761 7.18-52.586 0-17.827-2.417-35.524-7.18-52.588-2.21-7.983-10.518-12.642-18.47-10.415-7.983 2.225-12.642 10.488-10.417 18.47 4.03 14.445 6.066 29.431 6.066 44.533 0 15.101-2.036 30.086-6.066 44.531-2.225 7.984 2.433 16.245 10.417 18.472z" data-original="#000000" class="active-path" data-old_color="#000000" fill="#FFFFFF"/><circle cx="256" cy="406" r="15" data-original="#000000" class="active-path" data-old_color="#000000" fill="#FFFFFF"/><path d="m120 136v180c0 8.291 6.707 15 15 15 8.276 0 16 6.722 16 15v151c0 8.291 6.707 15 15 15h180c8.291 0 15-6.709 15-15v-151c0-8.278 7.722-15 16-15 8.291 0 15-6.709 15-15v-180c0-8.293-6.709-15-15-15h-242c-8.293 0-15 6.707-15 15zm136 315c-24.814 0-45-20.187-45-45s20.186-45 45-45c24.813 0 45 20.187 45 45s-20.187 45-45 45zm-60-270h120c8.291 0 15 6.707 15 15 0 8.291-6.709 15-15 15h-120c-8.293 0-15-6.709-15-15 0-8.293 6.707-15 15-15zm0 60h120c8.291 0 15 6.707 15 15 0 8.291-6.709 15-15 15h-120c-8.293 0-15-6.709-15-15 0-8.293 6.707-15 15-15z" data-original="#000000" class="active-path" data-old_color="#000000" fill="#FFFFFF"/><path d="m316 61h-60c-8.293 0-15 6.707-15 15v15h90v-15c0-8.293-6.709-15-15-15z" data-original="#000000" class="active-path" data-old_color="#000000" fill="#FFFFFF"/><path d="m196 0c-8.293 0-15 6.707-15 15v76h30v-76c0-8.293-6.709-15-15-15z" data-original="#000000" class="active-path" data-old_color="#000000" fill="#FFFFFF"/></g></g> </svg>
