<?xml version="1.0"?>
<svg xmlns="http://www.w3.org/2000/svg" id="Capa_1" enable-background="new 0 0 512 512" height="512px" viewBox="0 0 512 512" width="512px" class=""><g><g><path d="m196 0c-8.284 0-15 6.716-15 15v106h-46c-8.284 0-15 6.716-15 15v180c0 8.284 6.716 15 15 15 8.523 0 16 7.009 16 15v151c0 8.284 6.716 15 15 15h180c8.284 0 15-6.716 15-15v-151c0-7.991 7.477-15 16-15 8.284 0 15-6.716 15-15v-180c0-8.284-6.716-15-15-15h-46v-45c0-8.284-6.716-15-15-15h-60c-8.284 0-15 6.716-15 15v45h-30v-106c0-8.284-6.716-15-15-15zm75 91h30v30h-30zm91 60v152.502c-17.43 5.996-31 22.49-31 42.498v136h-150v-136c0-19.916-13.498-36.477-31-42.498v-152.502z" data-original="#000000" class="active-path" data-old_color="#000000" fill="#FFFFFF"/><path d="m196 271h120c8.284 0 15-6.716 15-15s-6.716-15-15-15h-120c-8.284 0-15 6.716-15 15s6.716 15 15 15z" data-original="#000000" class="active-path" data-old_color="#000000" fill="#FFFFFF"/><path d="m196 211h120c8.284 0 15-6.716 15-15s-6.716-15-15-15h-120c-8.284 0-15 6.716-15 15s6.716 15 15 15z" data-original="#000000" class="active-path" data-old_color="#000000" fill="#FFFFFF"/><path d="m30.629 312.684c7.901-2.49 12.288-10.914 9.798-18.815-6.919-21.951-10.427-44.785-10.427-67.869s3.508-45.918 10.427-67.869c2.49-7.901-1.896-16.325-9.798-18.815-7.898-2.491-16.325 1.896-18.815 9.797-7.839 24.872-11.814 50.74-11.814 76.887s3.975 52.015 11.813 76.887c2.495 7.914 10.929 12.284 18.816 9.797z" data-original="#000000" class="active-path" data-old_color="#000000" fill="#FFFFFF"/><path d="m500.185 149.113c-2.49-7.9-10.913-12.287-18.815-9.797-7.9 2.491-12.287 10.915-9.796 18.816 6.918 21.949 10.426 44.783 10.426 67.868s-3.508 45.919-10.427 67.868c-2.491 7.901 1.896 16.325 9.796 18.816 7.901 2.49 16.325-1.895 18.815-9.797 7.84-24.87 11.816-50.739 11.816-76.887s-3.976-52.017-11.815-76.887z" data-original="#000000" class="active-path" data-old_color="#000000" fill="#FFFFFF"/><path d="m67.254 278.579c2.219 7.967 10.478 12.652 18.475 10.426 7.98-2.222 12.648-10.494 10.426-18.474-4.03-14.474-6.074-29.456-6.074-44.531s2.044-30.057 6.074-44.531c2.223-7.98-2.445-16.252-10.426-18.474-7.983-2.223-16.252 2.446-18.475 10.426-4.76 17.094-7.174 34.784-7.174 52.579s2.414 35.485 7.174 52.579z" data-original="#000000" class="active-path" data-old_color="#000000" fill="#FFFFFF"/><path d="m444.745 173.421c-2.223-7.979-10.486-12.65-18.475-10.426-7.98 2.222-12.648 10.494-10.426 18.474 4.03 14.474 6.074 29.456 6.074 44.531s-2.044 30.057-6.074 44.531c-2.223 7.98 2.445 16.252 10.426 18.474s16.252-2.447 18.475-10.426c4.76-17.094 7.174-34.784 7.174-52.579s-2.414-35.485-7.174-52.579z" data-original="#000000" class="active-path" data-old_color="#000000" fill="#FFFFFF"/><path d="m256 361c-24.813 0-45 20.187-45 45s20.187 45 45 45 45-20.187 45-45-20.187-45-45-45zm0 60c-8.271 0-15-6.729-15-15s6.729-15 15-15 15 6.729 15 15-6.729 15-15 15z" data-original="#000000" class="active-path" data-old_color="#000000" fill="#FFFFFF"/></g></g> </svg>
