<svg width="32" height="30" viewBox="0 0 32 30" fill="none" xmlns="http://www.w3.org/2000/svg">
<path d="M14.1109 1.43478C14.7335 -0.356341 17.2665 -0.356346 17.8891 1.43477L20.2453 8.21329C20.52 9.00343 21.2574 9.53918 22.0937 9.55622L29.2686 9.70243C31.1644 9.74107 31.9472 12.1502 30.4361 13.2958L24.7175 17.6313C24.0509 18.1367 23.7692 19.0036 24.0115 19.8042L26.0896 26.6731C26.6387 28.4881 24.5894 29.977 23.0329 28.8939L17.1424 24.7949C16.4557 24.3171 15.5443 24.3171 14.8576 24.7949L8.96711 28.8939C7.41063 29.977 5.36133 28.4881 5.91044 26.6731L7.98854 19.8042C8.23077 19.0036 7.94912 18.1367 7.28252 17.6313L1.56388 13.2958C0.052815 12.1502 0.835572 9.74107 2.73142 9.70243L9.90628 9.55622C10.7426 9.53918 11.48 9.00344 11.7547 8.21329L14.1109 1.43478Z" fill="white" fill-opacity="0.3"/>
</svg>
