<svg width="235" height="205" viewBox="0 0 235 205" fill="none" xmlns="http://www.w3.org/2000/svg">
<g clip-path="url(#clip0)">
<path d="M200.584 34.4165C154.695 -11.4723 80.2952 -11.4723 34.416 34.4174C-11.4723 80.3057 -11.4723 154.705 34.4179 200.584C80.2952 246.472 154.695 246.472 200.584 200.583C246.472 154.705 246.472 80.3057 200.584 34.4165ZM186.737 186.735C148.495 224.977 86.4965 224.977 48.2654 186.737C10.0238 148.504 10.0238 86.5052 48.2645 48.2645C86.4965 10.0233 148.495 10.0233 186.736 48.2645C224.977 86.5057 224.977 148.504 186.737 186.735Z" fill="white" fill-opacity="0.1"/>
<path d="M117.499 39.1688C112.091 39.1688 107.707 43.5526 107.707 48.9603V146.877C107.707 152.285 112.091 156.668 117.499 156.668C122.906 156.668 127.29 152.285 127.29 146.877V48.9603C127.29 43.5526 122.906 39.1688 117.499 39.1688Z" fill="white" fill-opacity="0.1"/>
<path d="M117.499 176.252C112.094 176.252 107.707 180.638 107.707 186.043C107.707 191.448 112.094 195.835 117.499 195.835C122.904 195.835 127.29 191.448 127.29 186.043C127.29 180.638 122.904 176.252 117.499 176.252Z" fill="white" fill-opacity="0.1"/>
</g>
<defs>
<clipPath id="clip0">
<rect width="235" height="205" fill="white"/>
</clipPath>
</defs>
</svg>
