<svg width="8" height="14" viewBox="0 0 8 14" fill="none" xmlns="http://www.w3.org/2000/svg">
<path d="M1.58121 0.268321C1.409 0.0947014 1.18982 5.95365e-07 0.931505 6.17947e-07C0.414871 6.63113e-07 -1.18804e-06 0.410372 -1.14251e-06 0.931229C-1.11974e-06 1.19166 0.109588 1.42841 0.289627 1.60992L5.76908 7.00789L0.289628 12.3901C0.109589 12.5716 -1.03488e-07 12.8162 -8.14106e-08 13.0688C-3.58759e-08 13.5896 0.414873 14 0.931507 14C1.18982 14 1.409 13.9053 1.58121 13.7317L7.67123 7.73393C7.89041 7.52875 7.99217 7.27621 8 7C8 6.72379 7.89041 6.48703 7.67123 6.27396L1.58121 0.268321Z" fill="#C4C4C4"/>
</svg>
