<svg width="20" height="20" viewBox="0 0 20 20" fill="none" xmlns="http://www.w3.org/2000/svg">
<path d="M10 0C4.48583 0 0 4.48583 0 10C0 15.5142 4.48583 20 10 20C15.5142 20 20 15.5142 20 10C20 4.48583 15.5142 0 10 0ZM15.0683 7.88083L9.65167 13.2975C9.48917 13.46 9.27583 13.5417 9.0625 13.5417C8.84917 13.5417 8.63583 13.46 8.47333 13.2975L5.765 10.5892C5.43917 10.2633 5.43917 9.73667 5.765 9.41083C6.09083 9.085 6.6175 9.085 6.94333 9.41083L9.0625 11.53L13.89 6.7025C14.2158 6.37667 14.7425 6.37667 15.0683 6.7025C15.3942 7.02833 15.3942 7.555 15.0683 7.88083Z" fill="#4E6ED9"/>
</svg>
