<svg width="20" height="20" viewBox="0 0 20 20" fill="none" xmlns="http://www.w3.org/2000/svg">
<path d="M19.3947 8.01453L17.9903 7.7724C17.8208 7.11864 17.5545 6.4891 17.2155 5.90799L18.0387 4.74576C18.2567 4.45521 18.2324 4.04358 17.9661 3.80145L16.1743 2.00969C15.9322 1.74334 15.5206 1.71913 15.23 1.93705L14.0678 2.76029C13.4867 2.44552 12.8571 2.17918 12.2276 2.00969L11.9855 0.605327C11.937 0.242131 11.6223 0 11.2591 0H8.74092C8.37772 0 8.06295 0.242131 8.01453 0.605327L7.7724 2.00969C7.11864 2.17918 6.4891 2.44552 5.90799 2.7845L4.74576 1.96126C4.45521 1.74334 4.04358 1.76755 3.80145 2.0339L2.00969 3.82567C1.74334 4.0678 1.71913 4.47942 1.93705 4.76998L2.76029 5.9322C2.44552 6.51332 2.17918 7.14286 2.00969 7.7724L0.605327 8.01453C0.242131 8.06295 0 8.37772 0 8.74092V11.2591C0 11.6223 0.242131 11.937 0.605327 11.9855L2.00969 12.2276C2.17918 12.8814 2.44552 13.5109 2.7845 14.092L1.96126 15.2542C1.74334 15.5448 1.76755 15.9564 2.0339 16.1985L3.82567 17.9903C4.0678 18.2567 4.47942 18.2809 4.76998 18.063L5.9322 17.2397C6.51332 17.5545 7.14286 17.8208 7.7724 17.9903L8.01453 19.3947C8.06295 19.7579 8.37772 20 8.74092 20H11.2591C11.6223 20 11.937 19.7579 11.9855 19.3947L12.2276 17.9903C12.8814 17.8208 13.5109 17.5545 14.092 17.2155L15.2542 18.0387C15.5448 18.2567 15.9564 18.2324 16.1985 17.9661L17.9903 16.1743C18.2567 15.9322 18.2809 15.5206 18.063 15.23L17.2397 14.0678C17.5545 13.4867 17.8208 12.8571 17.9903 12.2276L19.3947 11.9855C19.7579 11.937 20 11.6223 20 11.2591V8.74092C20 8.37772 19.7579 8.06295 19.3947 8.01453ZM10 13.9952C7.79661 13.9952 6.00484 12.2034 6.00484 10C6.00484 7.79661 7.79661 6.00484 10 6.00484C12.2034 6.00484 13.9952 7.79661 13.9952 10C13.9952 12.2034 12.2034 13.9952 10 13.9952Z" fill="#4E6ED9"/>
</svg>
