<svg width="18" height="18" viewBox="0 0 18 18" fill="none" xmlns="http://www.w3.org/2000/svg">
<g clip-path="url(#clip0)">
<path d="M9 7.26416C10.6892 7.26416 12.0586 5.89478 12.0586 4.20557C12.0586 2.51635 10.6892 1.14697 9 1.14697C7.31079 1.14697 5.94141 2.51635 5.94141 4.20557C5.94141 5.89478 7.31079 7.26416 9 7.26416Z" fill="white"/>
<path d="M15.1875 7.26417C16.2554 7.26417 17.1211 6.39847 17.1211 5.33057C17.1211 4.26267 16.2554 3.39697 15.1875 3.39697C14.1196 3.39697 13.2539 4.26267 13.2539 5.33057C13.2539 6.39847 14.1196 7.26417 15.1875 7.26417Z" fill="white"/>
<path d="M2.8125 7.26417C3.88039 7.26417 4.74609 6.39847 4.74609 5.33057C4.74609 4.26267 3.88039 3.39697 2.8125 3.39697C1.74461 3.39697 0.878906 4.26267 0.878906 5.33057C0.878906 6.39847 1.74461 7.26417 2.8125 7.26417Z" fill="white"/>
<path d="M4.71762 9.00073C3.95648 8.37712 3.26718 8.45967 2.38711 8.45967C1.07086 8.45967 0 9.5242 0 10.8324V14.6718C0 15.2399 0.463711 15.7018 1.03395 15.7018C3.4958 15.7018 3.19922 15.7464 3.19922 15.5957C3.19922 12.8751 2.87698 10.8799 4.71762 9.00073Z" fill="white"/>
<path d="M9.8379 8.47361C8.30073 8.3454 6.96462 8.47509 5.81216 9.42635C3.8836 10.9711 4.25474 13.0511 4.25474 15.5956C4.25474 16.2688 4.80248 16.8267 5.48591 16.8267C12.9068 16.8267 13.2021 17.0661 13.6422 16.0916C13.7865 15.7621 13.7469 15.8668 13.7469 12.7142C13.7469 10.2101 11.5787 8.47361 9.8379 8.47361Z" fill="white"/>
<path d="M15.6138 8.45958C14.729 8.45958 14.0434 8.37788 13.2833 9.00064C15.1102 10.8659 14.8017 12.7249 14.8017 15.5956C14.8017 15.7473 14.5555 15.7018 16.9301 15.7018C17.5207 15.7018 18.0009 15.2233 18.0009 14.6351V10.8323C18.0009 9.52411 16.9301 8.45958 15.6138 8.45958Z" fill="white"/>
</g>
<defs>
<clipPath id="clip0">
<rect width="18" height="18" fill="white"/>
</clipPath>
</defs>
</svg>
