<svg width="16" height="16" viewBox="0 0 16 16" fill="none" xmlns="http://www.w3.org/2000/svg">
<g clip-path="url(#clip0)">
<path d="M14.1912 -0.499268H1.80963C0.811596 -0.499268 0 0.31206 0 1.31128V12.6907C0 13.6887 0.811596 14.4992 1.80963 14.4992H14.1912C15.1892 14.4992 15.9999 13.6887 15.9999 12.6907V1.31128C16 0.31206 15.1893 -0.499268 14.1912 -0.499268ZM10.3464 2.19336C11.3116 2.19336 12.0943 2.97614 12.0943 3.94124C12.0943 4.90634 11.3115 5.68912 10.3464 5.68912C9.38099 5.68912 8.59853 4.90634 8.59853 3.94124C8.59853 2.97614 9.38099 2.19336 10.3464 2.19336ZM13.6237 12.8264H7.99984H2.62653C2.1438 12.8264 1.92881 12.4772 2.14642 12.0463L5.1461 6.10485C5.36345 5.67401 5.77769 5.63556 6.07103 6.01889L9.08732 9.96069C9.38067 10.3441 9.8934 10.3767 10.2328 10.0332L10.9707 9.286C11.3097 8.94251 11.8094 8.98504 12.0861 9.38037L13.9969 12.1097C14.2731 12.5057 14.1064 12.8264 13.6237 12.8264Z" fill="white"/>
</g>
<defs>
<clipPath id="clip0">
<rect width="16" height="16" fill="white"/>
</clipPath>
</defs>
</svg>
