<svg width="16" height="16" viewBox="0 0 16 16" fill="none" xmlns="http://www.w3.org/2000/svg">
<g clip-path="url(#clip0)">
<path d="M15.5942 4.42139C15.1246 3.45825 14.318 2.91899 13.5377 2.39687C12.9561 2.00727 12.4077 1.63938 12.0193 1.11269L11.9473 1.01558C11.7188 0.708243 11.4583 0.359779 11.4183 0.0672976C11.3783 -0.228611 11.1453 -0.434262 10.8139 -0.425122C10.5146 -0.404557 10.2827 -0.155491 10.2827 0.144988V10.3247C9.80396 10.0345 9.21442 9.85628 8.56891 9.85628C6.99454 9.85628 5.71265 10.8811 5.71265 12.1413C5.71265 13.4015 6.99454 14.4263 8.56891 14.4263C10.1444 14.4263 11.4252 13.4015 11.4252 12.1413V5.48277C12.2832 5.81067 13.6873 6.64584 14.0735 8.5961C14.0015 8.70235 13.933 8.81774 13.853 8.908C13.6439 9.1445 13.6679 9.50553 13.9044 9.71347C14.1398 9.92369 14.5008 9.89855 14.7099 9.66206C15.4251 8.84973 15.9175 7.56327 15.9941 6.30538C16.0318 5.685 15.8935 5.03377 15.5942 4.42139Z" fill="white"/>
<path d="M0.571253 0.716236H7.42628C7.74162 0.716236 7.99754 0.460314 7.99754 0.144983C7.99754 -0.170348 7.74162 -0.42627 7.42628 -0.42627H0.571253C0.255921 -0.42627 0 -0.170348 0 0.144983C0 0.460314 0.255921 0.716236 0.571253 0.716236Z" fill="white"/>
<path d="M0.571253 4.14373H7.42628C7.74162 4.14373 7.99754 3.8878 7.99754 3.57247C7.99754 3.25714 7.74162 3.00122 7.42628 3.00122H0.571253C0.255921 3.00122 0 3.25714 0 3.57247C0 3.8878 0.255921 4.14373 0.571253 4.14373Z" fill="white"/>
<path d="M3.99877 7.42871H0.571254C0.255922 7.42871 0 7.68463 0 7.99996C0 8.3153 0.255922 8.57122 0.571254 8.57122H3.99877C4.31411 8.57122 4.57003 8.3153 4.57003 7.99996C4.57003 7.68463 4.31411 7.42871 3.99877 7.42871Z" fill="white"/>
<path d="M3.99877 10.8563H0.571254C0.255922 10.8563 0 11.1122 0 11.4276C0 11.7429 0.255922 11.9988 0.571254 11.9988H3.99877C4.31411 11.9988 4.57003 11.7429 4.57003 11.4276C4.57003 11.1122 4.31411 10.8563 3.99877 10.8563Z" fill="white"/>
</g>
<defs>
<clipPath id="clip0">
<rect width="16" height="16" fill="white"/>
</clipPath>
</defs>
</svg>
