<svg width="20" height="20" viewBox="0 0 20 20" fill="none" xmlns="http://www.w3.org/2000/svg">
<path fill-rule="evenodd" clip-rule="evenodd" d="M10 0C15.5228 0 20 4.47715 20 10C20 15.5228 15.5228 20 10 20C4.47715 20 0 15.5228 0 10C0 4.47715 4.47715 0 10 0ZM13.9206 13.1C12.9258 14.3741 11.6407 14.9954 9.99412 14.9954C8.34754 14.9954 7.06247 14.3741 6.06762 13.1C5.78439 12.7372 5.2607 12.6727 4.89794 12.956C4.53518 13.2392 4.47071 13.7629 4.75395 14.1256C6.06601 15.8061 7.8365 16.6621 9.99412 16.6621C12.1517 16.6621 13.9222 15.8061 15.2343 14.1256C15.5175 13.7629 15.4531 13.2392 15.0903 12.956C14.7275 12.6727 14.2039 12.7372 13.9206 13.1ZM6.67259 6.66676C5.98223 6.66676 5.42259 7.41295 5.42259 8.33343C5.42259 9.2539 5.98223 10.0001 6.67259 10.0001C7.36294 10.0001 7.92259 9.2539 7.92259 8.33343C7.92259 7.41295 7.36294 6.66676 6.67259 6.66676ZM13.3274 6.66676C12.6371 6.66676 12.0774 7.41295 12.0774 8.33343C12.0774 9.2539 12.6371 10.0001 13.3274 10.0001C14.0178 10.0001 14.5774 9.2539 14.5774 8.33343C14.5774 7.41295 14.0178 6.66676 13.3274 6.66676Z" fill="#4E6ED9"/>
</svg>
