<svg width="16" height="16" viewBox="0 0 16 16" fill="none" xmlns="http://www.w3.org/2000/svg">
<path d="M12.5706 0.573995C12.5706 0.356889 12.4449 0.151209 12.2506 0.0597957C12.045 -0.0430442 11.8164 -0.00876425 11.645 0.128356L6.58301 4.16197L12.5706 10.1495V0.573995Z" fill="white"/>
<path d="M15.8306 15.0232L0.975956 0.168579C0.753136 -0.0542399 0.390911 -0.0542399 0.168091 0.168579C-0.0547284 0.391398 -0.0547284 0.753622 0.168091 0.976442L3.76292 4.5724H3.42812C3.07389 4.5724 2.76537 4.73237 2.55969 4.98376C2.38829 5.17801 2.28545 5.44082 2.28545 5.71506V10.2857C2.28545 10.9142 2.79965 11.4284 3.42812 11.4284H6.0791L11.6439 15.8733C11.7467 15.9533 11.8724 15.999 11.9981 15.999C12.0781 15.999 12.1695 15.9762 12.2495 15.9419C12.4438 15.8505 12.5694 15.6448 12.5694 15.4277V13.3789L15.0216 15.8311C15.1336 15.943 15.2798 15.999 15.4261 15.999C15.5724 15.999 15.7186 15.943 15.8306 15.8322C16.0534 15.6082 16.0534 15.2472 15.8306 15.0232Z" fill="white"/>
</svg>
