<svg width="16" height="16" viewBox="0 0 16 16" fill="none" xmlns="http://www.w3.org/2000/svg">
<g clip-path="url(#clip0)">
<path d="M10.5336 0.056665C10.3348 -0.0381881 10.1005 -0.0130463 9.92909 0.125234L4.37047 4.5719H1.71459C1.0849 4.5719 0.571777 5.08502 0.571777 5.71471V10.2859C0.571777 10.9168 1.0849 11.4288 1.71459 11.4288H4.37047L9.92795 15.8754C10.0319 15.9577 10.1588 16 10.2857 16C10.3702 16 10.4548 15.9806 10.5336 15.9428C10.7313 15.848 10.8571 15.648 10.8571 15.4286V0.572072C10.8571 0.352652 10.7313 0.152661 10.5336 0.056665Z" fill="white"/>
<path d="M13.7497 3.95936C13.5245 3.73765 13.1634 3.74108 12.9417 3.96393C12.72 4.18906 12.7223 4.55019 12.9463 4.77304C13.8102 5.62558 14.2856 6.77181 14.2856 8.00034C14.2856 9.22886 13.8102 10.3751 12.9463 11.2276C12.7223 11.4482 12.72 11.8105 12.9417 12.0356C13.0537 12.1487 13.2011 12.2047 13.3474 12.2047C13.4925 12.2047 13.6377 12.1499 13.7497 12.039C14.833 10.9728 15.4284 9.53742 15.4284 8.00034C15.4284 6.46326 14.833 5.02789 13.7497 3.95936Z" fill="white"/>
</g>
<defs>
<clipPath id="clip0">
<rect width="16" height="16" fill="white"/>
</clipPath>
</defs>
</svg>
