<svg width="1477" height="80" viewBox="0 0 1477 80" fill="none" xmlns="http://www.w3.org/2000/svg">
<mask id="mask0" mask-type="alpha" maskUnits="userSpaceOnUse" x="0" y="0" width="1477" height="80">
<rect width="1477" height="80" fill="#191919"/>
</mask>
<g mask="url(#mask0)">
<path fill-rule="evenodd" clip-rule="evenodd" d="M349.027 -324L164 133.959L165.659 134.629L350.686 -323.33L349.027 -324ZM216 133.959L401.027 -324L402.686 -323.33L217.659 134.629L216 133.959ZM382 159.959L567.027 -298L638.432 -269.151L644.027 -283L645.686 -282.33L460.659 175.629L460.554 175.587L454.959 189.436L382 159.959ZM332.119 159.12L487.581 -225.661L510.668 -216.334L355.206 168.448L332.119 159.12ZM844.027 -298L659 159.959L784.633 210.718L803.311 164.488L803.659 164.628L988.686 -293.33L979.93 -296.868L961.252 -250.638L844.027 -298Z" fill="url(#paint0_linear)" fill-opacity="0.2"/>
</g>
<defs>
<linearGradient id="paint0_linear" x1="164.804" y1="131.607" x2="298.419" y2="-180.503" gradientUnits="userSpaceOnUse">
<stop stop-color="white"/>
<stop offset="1" stop-color="white" stop-opacity="0"/>
</linearGradient>
</defs>
</svg>
