<svg width="44" height="43" viewBox="0 0 44 43" fill="none" xmlns="http://www.w3.org/2000/svg">
<path d="M0.137578 26.5C-0.262422 28.5 0.304244 29.6667 0.637578 30V41.5C0.637578 42.7 2.63757 42.3333 3.63757 42C19.1376 31.5 34.6376 39.5 37.1376 41.5C39.6376 43.5 40.6376 42.5 41.1376 41.5C41.5376 40.7 41.9709 33.5 42.1376 30C43.3376 29.2 43.3042 27.3333 43.1376 26.5C43.1376 23.3 41.4709 13.8333 40.6376 9.5C39.6376 4.5 29.6376 1 26.6376 0.5C23.6376 0 18.1376 0 17.6376 0C5.13757 0.5 1.13757 9.5 0.637578 10.5C0.137582 11.5 0.637578 24 0.137578 26.5Z" fill="white"/>
<path d="M39.6376 16.5C37.1377 10.5 32.3043 7.83333 29.6376 7.5C19.6376 6 28.1376 12.5 29.6376 15C31.1376 17.5 28.4337 17.4791 19.1377 19.5C7.63771 22 -0.36238 29.5 4.13762 27.5C8.63762 25.5 20.6376 24.5 28.1376 25C35.6376 25.5 38.6377 27.5 40.1377 27.5C41.6377 27.5 42.0162 22.2089 39.6376 16.5Z" fill="#D6D6D6"/>
<path d="M22 27.2536C24.6667 26.7536 32.2 26.6536 41 30.2536C40.8333 33.2536 40.2979 40.2575 40 41C39.5214 42.193 34.0041 37.2119 31.3399 36.3445C30.584 36.2102 30.2951 36.1126 31 36.2536C31.1071 36.2751 31.2207 36.3056 31.3399 36.3445C33.2648 36.6864 38.218 37.2667 37.5 34.7536C36.7 31.9536 26.8333 28.587 22 27.2536Z" fill="#D6D6D6"/>
</svg>
