<svg width="42" height="42" viewBox="0 0 42 42" fill="none" xmlns="http://www.w3.org/2000/svg">
<path d="M24.5351 18.1716V17.8181C24.5351 16.0607 23.1105 14.6361 21.3531 14.6361H21.1769C19.5169 14.6361 18.1711 15.9818 18.1711 17.6419V17.7985C18.1711 19.5064 19.6557 20.8351 21.3531 20.6465V20.6465C23.0506 20.4579 24.5351 21.7866 24.5351 23.4945V24.1548C24.5351 25.9272 23.0983 27.364 21.3259 27.364V27.364C19.5836 27.364 18.1711 25.9516 18.1711 24.2092V23.1214" stroke="white" stroke-linecap="round" stroke-linejoin="round"/>
<path d="M39.3855 21C39.3855 25.4973 37.7371 29.8386 34.7521 33.2024C31.7672 36.5663 27.6528 38.7194 23.1874 39.2543C18.7221 39.7892 14.2156 38.6688 10.5206 36.1052C6.82554 33.5415 4.19837 29.7124 3.13614 25.3424C2.07392 20.9723 2.65032 16.3645 4.75629 12.3908C6.86226 8.41713 10.3517 5.35317 14.5644 3.77871C18.777 2.20425 23.4207 2.22851 27.6167 3.84689C31.8127 5.46528 35.2699 8.56552 37.3342 12.561" stroke="white" stroke-linecap="round" stroke-linejoin="round"/>
<path d="M11 11C13.4462 8.55381 16.7042 7.08909 20.1575 6.88299C23.6108 6.67689 27.0198 7.7437 29.7396 9.88158C32.4594 12.0195 34.3012 15.0801 34.9166 18.4844C35.532 21.8886 34.8782 25.4004 33.079 28.3551C31.2798 31.3099 28.4599 33.5027 25.153 34.5186C21.8461 35.5345 18.2815 35.3031 15.1338 33.8681C11.986 32.4331 9.47337 29.8941 8.07134 26.7315C6.66931 23.5689 6.47513 20.0021 7.52554 16.706" stroke="white" stroke-linecap="round" stroke-linejoin="round"/>
<path d="M21 14.6363V12.515" stroke="white" stroke-linecap="round" stroke-linejoin="round"/>
<path d="M21 29.4851V28.0709" stroke="white" stroke-linecap="round" stroke-linejoin="round"/>
</svg>
