<svg width="58" height="78" viewBox="0 0 58 78" fill="none" xmlns="http://www.w3.org/2000/svg">
<path d="M30.3809 32.88V30.381H14.8559C9.82074 30.381 6.88357 34.5459 6.04438 36.6284C3.69464 44.9583 9.82056 48.7068 14.0166 49.5398C19.4713 50.6227 25.0033 46.4717 27.0242 42.4594C28.7024 39.1274 28.0032 34.8236 27.0242 32.88H30.3809Z" fill="white"/>
<path d="M30.3809 32.88V30.381H45.9059C50.9411 30.381 53.8783 34.5459 54.7175 36.6284C57.0672 44.9583 50.9413 48.7068 46.7453 49.5398C41.2906 50.6227 35.7585 46.4717 33.7377 42.4594C32.0595 39.1274 32.7586 34.8236 33.7377 32.88H30.3809Z" fill="white"/>
<rect x="2.76196" y="35.9048" width="5.52381" height="2.7619" rx="1.38095" fill="white"/>
<rect x="52.4762" y="35.9048" width="5.52381" height="2.7619" rx="1.38095" fill="white"/>
</svg>
