<svg width="142" height="159" viewBox="0 0 142 159" fill="none" xmlns="http://www.w3.org/2000/svg">
<path d="M119.812 66.6875H79.875L88.75 13.4375L22.1875 93.3125H62.125L53.25 146.562L119.812 66.6875Z" fill="url(#paint0_linear)"/>
<path d="M33.5 35.5H29L30 29.5L22.5 38.5H27L26 44.5L33.5 35.5Z" fill="url(#paint1_linear)"/>
<path d="M87.5 63.5H83L84 57.5L76.5 66.5H81L80 72.5L87.5 63.5Z" fill="url(#paint2_linear)"/>
<path d="M119.5 35.5H115L116 29.5L108.5 38.5H113L112 44.5L119.5 35.5Z" fill="url(#paint3_linear)"/>
<path d="M119.5 105.5H115L116 99.5L108.5 108.5H113L112 114.5L119.5 105.5Z" fill="url(#paint4_linear)"/>
<defs>
<linearGradient id="paint0_linear" x1="71" y1="13.4375" x2="71" y2="146.562" gradientUnits="userSpaceOnUse">
<stop stop-color="#0157FF"/>
<stop offset="0.890625" stop-color="#021F56"/>
</linearGradient>
<linearGradient id="paint1_linear" x1="28" y1="29.5" x2="28" y2="44.5" gradientUnits="userSpaceOnUse">
<stop stop-color="#0157FF"/>
<stop offset="0.890625" stop-color="#021F56"/>
</linearGradient>
<linearGradient id="paint2_linear" x1="82" y1="57.5" x2="82" y2="72.5" gradientUnits="userSpaceOnUse">
<stop stop-color="#0157FF"/>
<stop offset="0.890625" stop-color="#021F56"/>
</linearGradient>
<linearGradient id="paint3_linear" x1="114" y1="29.5" x2="114" y2="44.5" gradientUnits="userSpaceOnUse">
<stop stop-color="#0157FF"/>
<stop offset="0.890625" stop-color="#021F56"/>
</linearGradient>
<linearGradient id="paint4_linear" x1="114" y1="99.5" x2="114" y2="114.5" gradientUnits="userSpaceOnUse">
<stop stop-color="#0157FF"/>
<stop offset="0.890625" stop-color="#021F56"/>
</linearGradient>
</defs>
</svg>
