<svg width="20" height="28" viewBox="0 0 20 28" fill="none" xmlns="http://www.w3.org/2000/svg">
<g clip-path="url(#clip0_1004:41)">
<path d="M17.4867 1.38548C16.4833 0.532115 15.1568 0.0627441 13.7518 0.0627441C13.7458 0.0627441 13.7397 0.0627441 13.7338 0.0627441H5.73116C2.64076 0.0716191 0.226031 2.2416 0.233906 5.0002V19.0028C0.240906 21.4554 1.16552 23.729 2.83744 25.4047C4.50799 27.0791 6.76959 28.0001 9.20613 28.0001C9.21525 28.0001 9.22469 28.0001 9.23376 28H10.2337H10.2364C12.687 27.993 14.9508 27.0671 16.6107 25.3928C18.2688 23.7203 19.1782 21.4491 19.1712 19.0001V4.99758C19.1672 3.58878 18.5689 2.30597 17.4867 1.38548ZM13.7365 1.93779H13.7493C14.712 1.93779 15.6074 2.24866 16.2719 2.81378C16.7374 3.20978 17.2931 3.91102 17.2962 5.00033V13.0628H10.6713V10.7572C11.8325 10.2982 12.6713 9.01217 12.6713 7.5003C12.6713 5.98844 11.8325 4.70239 10.6713 4.2434V1.93779H13.7365ZM9.73381 5.93776C10.3097 5.93776 10.7963 6.65325 10.7963 7.50024C10.7963 8.34723 10.3097 9.06273 9.73381 9.06273C9.15788 9.06273 8.67132 8.34723 8.67132 7.50024C8.67132 6.65325 9.15788 5.93776 9.73381 5.93776ZM5.73385 1.93779H8.79632V4.24333C7.63508 4.70233 6.79634 5.98838 6.79634 7.50024C6.79634 9.0121 7.63508 10.2982 8.79632 10.7571V13.0627H2.10889V4.99758C2.10345 3.08884 3.94912 1.94291 5.73385 1.93779ZM10.2311 26.1251H9.23113C9.22363 26.1251 9.21644 26.1251 9.20894 26.1251C7.27159 26.1251 5.48085 25.3994 4.16481 24.0804C2.84463 22.7572 2.11445 20.9521 2.10889 19.0001V14.9376H17.2962V19.0028C17.3079 23.0516 14.2705 26.1135 10.2311 26.1251Z" fill="white"/>
<path d="M7.5 7L9.5 4.5H10L11.5 6V8.5L10 10L8.5 9.5L7.5 7Z" fill="white"/>
</g>
<defs>
<clipPath id="clip0_1004:41">
<rect width="20" height="28.0001" fill="white"/>
</clipPath>
</defs>
</svg>
