<svg width="42" height="42" viewBox="0 0 42 42" fill="none" xmlns="http://www.w3.org/2000/svg">
<g clip-path="url(#clip0)">
<g filter="url(#filter0_d)">
<path fill-rule="evenodd" clip-rule="evenodd" d="M24.84 9.10344C24.3754 9.27168 23.137 9.94323 19.7478 11.8648C19.304 12.1165 18.3523 12.6559 17.633 13.0635C16.1108 13.926 16.0246 13.9859 15.8015 14.3335C15.0629 15.4846 15.7153 16.9625 17.0587 17.1812C17.6763 17.2818 17.7246 17.2613 21.3743 15.3595C22.6905 14.6735 22.9826 14.5425 23.362 14.4678C23.7711 14.3872 23.8373 14.3875 24.1843 14.4724C24.3919 14.5232 24.6551 14.6334 24.7693 14.7174C24.8834 14.8013 26.5494 16.4244 28.4715 18.3241C32.2727 22.0813 32.193 22.0134 32.9471 22.1311C33.3955 22.2011 33.7329 22.1585 35.8313 21.7672C36.732 21.5992 36.9241 21.5421 36.9673 21.4297C36.9853 21.3828 37 19.2458 37 16.681C37 12.6604 36.9888 12.0083 36.9187 11.9501C36.8546 11.897 36.7518 11.9024 36.4318 11.9758C33.1725 12.7236 32.0682 12.95 31.6812 12.95C31.0291 12.95 30.9165 12.8782 28.9304 11.1925C27.9357 10.3482 26.9464 9.54894 26.7322 9.41632C26.0631 9.00232 25.4153 8.89519 24.84 9.10344ZM16.52 9.16188C15.4553 9.35894 13.7288 10.1406 11.9009 11.2531C10.8205 11.9107 10.6584 11.9903 10.2035 12.0865C9.48267 12.2391 9.07407 12.1848 7.92174 11.7836C5.70706 11.0125 5.03334 10.7796 5.01747 10.7796C5.00785 10.7796 5 13.2682 5 16.3098V21.8402L5.79048 22.1173C6.22524 22.2698 6.62009 22.3843 6.6679 22.3718C6.7157 22.3593 6.85288 22.1564 6.97276 21.9209C7.53618 20.8141 8.78836 20.0717 10.0872 20.0744C11.4398 20.0774 12.4793 20.7085 13.0351 21.8645L13.2845 22.3831L13.6788 22.5658C14.2534 22.8321 14.7855 23.3523 15.0751 23.931C15.1989 24.1782 15.3272 24.4131 15.3602 24.4529C15.3932 24.4927 15.5863 24.6064 15.7892 24.7056C16.3168 24.9636 16.8884 25.546 17.1444 26.0865C17.2524 26.3147 17.3662 26.5652 17.3972 26.6433C17.438 26.7459 17.5898 26.8513 17.9439 27.0228C19.0586 27.5627 19.689 28.6053 19.6913 29.9128C19.6918 30.1993 19.7218 30.4317 19.7703 30.525C19.9124 30.7983 20.6481 31.4571 20.9309 31.5643C21.56 31.8026 22.315 31.4871 22.6589 30.8422C22.7468 30.6773 22.778 30.5186 22.7792 30.23C22.7814 29.716 22.682 29.5547 21.7509 28.5604C20.9383 27.6929 20.6686 27.343 20.7165 27.2183C20.7765 27.062 21.0737 27.3026 22.2783 28.4829C22.922 29.1136 23.5329 29.6729 23.6359 29.7258C23.8826 29.8526 24.3389 29.8957 24.6227 29.8189C25.1547 29.6751 25.5727 29.1801 25.6299 28.6263C25.6777 28.163 25.5374 27.8171 25.1213 27.3721C24.473 26.679 23.4715 25.5122 23.3907 25.3558C23.274 25.1303 23.3846 25.0973 23.632 25.2839C23.7454 25.3696 24.3767 25.9686 25.0348 26.615C26.3853 27.9418 26.485 28.0066 27.1134 27.9666C27.8217 27.9214 28.3193 27.4239 28.3644 26.7156C28.4039 26.0959 28.3494 26.004 27.1447 24.6562C26.4824 23.9152 26.0928 23.4187 26.0924 23.3152C26.0917 23.1113 26.4053 23.3493 27.475 24.3646C28.7142 25.5408 28.8209 25.6109 29.3715 25.6109C29.7336 25.6109 29.8307 25.5888 30.0597 25.4541C30.7171 25.0677 30.9548 24.1938 30.5758 23.5563C30.5016 23.4313 28.9929 21.8844 27.223 20.1186C24.3209 17.223 23.9707 16.8919 23.6531 16.7424C23.2216 16.5394 22.8684 16.4855 22.5025 16.5671C22.191 16.6365 21.3919 16.9864 19.8435 17.7314C18.3849 18.4333 17.9087 18.5918 17.2713 18.588C16.8546 18.5856 16.6933 18.5565 16.3116 18.415C15.7753 18.2163 15.6049 18.1077 15.1671 17.6859C14.5146 17.0573 14.2262 16.3789 14.2183 15.4544C14.2107 14.556 14.4579 13.8933 15.0438 13.2416C15.4407 12.8002 16.6625 12.0324 18.9476 10.7884C19.7655 10.3432 19.8391 10.2823 19.7532 10.1217C19.6227 9.8779 18.768 9.40964 18.1617 9.24986C17.7635 9.1449 16.8704 9.09699 16.52 9.16188ZM9.62047 21.6064C9.18799 21.7272 8.90311 21.9105 8.54343 22.2989C7.97823 22.9094 7.66463 23.7923 7.78589 24.4317C7.88417 24.9498 8.24697 25.3472 8.74294 25.4799C8.97201 25.5411 9.06962 25.5357 9.50588 25.4373C9.78102 25.3752 10.0367 25.3434 10.0741 25.3665C10.1255 25.3982 10.1037 25.5242 9.98504 25.8814C9.79794 26.4445 9.81553 26.7122 10.0655 27.1064C10.2439 27.3876 10.4746 27.5555 10.8083 27.6467C11.0137 27.703 11.2111 27.6772 11.9976 27.4919C12.1881 27.447 12.2113 27.6056 12.0752 28.0237C11.9244 28.4872 11.9237 28.8192 12.0728 29.1273C12.3704 29.7419 12.9818 29.9378 13.8758 29.7049C14.4633 29.5519 14.4913 29.5846 14.2579 30.1509C14.0427 30.6728 14.0458 31.0985 14.2674 31.457C14.487 31.8123 14.796 32.0235 15.2057 32.0985C16.2657 32.2925 17.5575 31.6309 18.0116 30.6615C18.1357 30.3967 18.1615 30.2643 18.1608 29.8961C18.1597 29.2156 17.8767 28.7133 17.3054 28.3775C17.0895 28.2505 16.9646 28.2221 16.52 28.1987L15.9913 28.1709L15.9845 27.6296C15.9787 27.1641 15.957 27.0456 15.8292 26.7846C15.5566 26.2274 15.0715 25.9261 14.3523 25.8677L13.9322 25.8335L13.8959 25.3578C13.8523 24.7866 13.7639 24.5567 13.4621 24.2293C13.1706 23.913 12.7928 23.7495 12.3006 23.7265C12.0908 23.7167 11.89 23.6907 11.8543 23.6687C11.8138 23.6436 11.7891 23.4582 11.7883 23.1728C11.7869 22.6618 11.6948 22.3935 11.4088 22.0677C11.0415 21.6494 10.2225 21.4381 9.62047 21.6064Z" fill="#C0E604"/>
</g>
</g>
<defs>
<filter id="filter0_d" x="-7" y="1" width="56" height="47.1323" filterUnits="userSpaceOnUse" color-interpolation-filters="sRGB">
<feFlood flood-opacity="0" result="BackgroundImageFix"/>
<feColorMatrix in="SourceAlpha" type="matrix" values="0 0 0 0 0 0 0 0 0 0 0 0 0 0 0 0 0 0 127 0"/>
<feOffset dy="4"/>
<feGaussianBlur stdDeviation="6"/>
<feColorMatrix type="matrix" values="0 0 0 0 0.752941 0 0 0 0 0.901961 0 0 0 0 0.0156863 0 0 0 0.65 0"/>
<feBlend mode="normal" in2="BackgroundImageFix" result="effect1_dropShadow"/>
<feBlend mode="normal" in="SourceGraphic" in2="effect1_dropShadow" result="shape"/>
</filter>
<clipPath id="clip0">
<rect width="42" height="42" fill="white"/>
</clipPath>
</defs>
</svg>
