<svg id="_x33_0" enable-background="new 0 0 64 64" height="512" viewBox="0 0 64 64" width="512" xmlns="http://www.w3.org/2000/svg"><g><g><g><path d="m33 62h-25v-6h14 7 1v3c0 1.66 1.34 3 3 3z" fill="#4fc1e9"/></g><g><path d="m14 50h8v6h-14-1c-2.76 0-5-2.24-5-5v-10.76c0-2.38.83-4.67 2.33-6.5.18.16.41.26.67.26h11v1.59c0 .9.36 1.77 1 2.41z" fill="#4fc1e9"/></g><g><path d="m31 34 1.11 1.43c-1.3 1.11-2.11 2.76-2.11 4.57v4 4 2.17.01c-.31-.12-.65-.18-1-.18h-1l-1.15-1.15c-.54-.54-1.28-.85-2.05-.85-1.1 0-2.11.62-2.6 1.61l-.2.39-3-12c.64-.64 1-1.51 1-2.41v-1.59z" fill="#4fc1e9"/></g><g><path d="m19 38 3 12h-8l3-12z" fill="#e6e9ed"/></g><g><path d="m20 34v1.59c0 .9-.36 1.77-1 2.41h-2c-.64-.64-1-1.51-1-2.41v-1.59z" fill="#ccd1d9"/></g><g><path d="m14 30 2 4h-11c-.26 0-.49-.1-.67-.26-.2-.18-.33-.45-.33-.74v-2c0-.55.45-1 1-1z" fill="#fcd770"/></g><g><path d="m32 31v2c0 .55-.45 1-1 1h-11l2-4h9c.55 0 1 .45 1 1z" fill="#fcd770"/></g><g><path d="m26 12c.55 0 1 .45 1 1 0 1.13-.37 2.17-1 3-.14.19-.29.37-.46.54s-.35.32-.54.46c-.83.63-1.87 1-3 1h-8c-1.13 0-2.17-.37-3-1-.38-.29-.71-.62-1-1-.63-.83-1-1.87-1-3 0-.55.45-1 1-1h8z" fill="#aab2bd"/></g><g><path d="m27.51 7.11-7.65-4.6c-.56-.33-1.21-.51-1.86-.51s-1.3.18-1.86.51l-7.65 4.6c-.93.55-1.49 1.55-1.49 2.62 0 .81.32 1.59.9 2.17l1.1 1.1c0-.55.45-1 1-1h16c.55 0 1 .45 1 1l1.1-1.1c.58-.58.9-1.36.9-2.17 0-1.07-.56-2.07-1.49-2.62z" fill="#3bafda"/></g><g><circle cx="18" cy="10" fill="#fcd770" r="2"/></g><g><path d="m53.49 10h-16.98c.22-.27.46-.53.71-.78 1.99-1.99 4.74-3.22 7.78-3.22s5.79 1.23 7.78 3.22c.25.25.49.51.71.78z" fill="#aab2bd"/></g><g><path d="m55.58 14c.28.95.42 1.96.42 3 0 .55-.45 1-1 1h-2-1-14-1-2c-.55 0-1-.45-1-1 0-1.04.14-2.05.42-3z" fill="#aab2bd"/></g><g><path d="m55.58 14h-21.16c.41-1.49 1.14-2.84 2.09-4h16.98c.95 1.16 1.68 2.51 2.09 4z" fill="#ccd1d9"/></g><g><path d="m31.83 52h4.17 1c.55 0 1 .45 1 1v1 1c0 .55-.45 1-1 1h-1-6-1c1.66 0 3-1.34 3-3l-.18-1z" fill="#aab2bd"/></g><g><path d="m62 53v2c0 .55-.45 1-1 1h-1-6-1c-.55 0-1-.45-1-1v-1-1c0-.55.45-1 1-1h1 6 1c.55 0 1 .45 1 1z" fill="#aab2bd"/></g><g><path d="m57 62h-24c.83 0 1.58-.34 2.12-.88s.88-1.29.88-2.12v-1h18v1c0 .83.34 1.58.88 2.12s1.29.88 2.12.88z" fill="#969faa"/></g><g><path d="m30 48h6v4h-4.17-.01c-.14-.43-.39-.81-.7-1.12s-.69-.56-1.12-.7v-.01z" fill="#969faa"/></g><g><path d="m54 48h6v4h-6z" fill="#969faa"/></g><g><path d="m54 48v4h-1c-.55 0-1 .45-1 1v1h-14v-1c0-.55-.45-1-1-1h-1v-4z" fill="#969faa"/></g><g><path d="m30 40h30v4h-30z" fill="#969faa"/></g><g><path d="m53 56h1v2h-18v-2h1c.55 0 1-.45 1-1v-1h14v1c0 .55.45 1 1 1z" fill="#e6e9ed"/></g><g><path d="m30 44h30v4h-30z" fill="#e6e9ed"/></g><g><path d="m60 40h-6-18-6c0-1.81.81-3.46 2.11-4.57.78-.66 1.74-1.13 2.81-1.33l4.01-.74c.63-.12 1.2-.43 1.61-.88l.01.01c1.2.97 2.71 1.51 4.28 1.51h.34c1.57 0 3.08-.54 4.28-1.51l.01-.01c.42.45.98.76 1.61.88l4.01.74c2.85.52 4.92 3 4.92 5.9z" fill="#e6e9ed"/></g><g><path d="m26 16c1.66 0 3 1.34 3 3 0 .83-.34 1.58-.88 2.12s-1.29.88-2.12.88h-1.08c.06-.32.08-.66.08-1v-4c.19-.14.37-.29.54-.46s.32-.35.46-.54z" fill="#f0d0b4"/></g><g><path d="m11 21c0 .34.02.67.08 1h-.01-1.07c-.83 0-1.58-.34-2.12-.88s-.88-1.29-.88-2.12c0-1.66 1.34-3 3-3 .29.38.62.71 1 1z" fill="#f0d0b4"/></g><g><path d="m25 17v4c0 .34-.02.68-.08 1-.32 2.33-1.8 4.28-3.83 5.28-.93.46-1.98.72-3.09.72s-2.16-.26-3.09-.72c-.69-.34-1.32-.79-1.86-1.33-1.05-1.05-1.76-2.41-1.97-3.95-.06-.33-.08-.66-.08-1v-4c.83.63 1.87 1 3 1h8c1.13 0 2.17-.37 3-1z" fill="#f0d0b4"/></g><g><path d="m21.09 27.28.91 2.72-2 4h-4l-2-4 .91-2.72c.93.46 1.98.72 3.09.72s2.16-.26 3.09-.72z" fill="#f0d0b4"/></g><g><path d="m31.82 52 .18 1c0 1.66-1.34 3-3 3h-7v-6l.2-.39c.49-.99 1.5-1.61 2.6-1.61.77 0 1.51.31 2.05.85l1.15 1.15h1c.35 0 .69.06 1 .18.43.14.81.39 1.12.7s.56.69.7 1.12z" fill="#f0d0b4"/></g><g><path d="m36 58v1c0 .83-.34 1.58-.88 2.12s-1.29.88-2.12.88c-1.66 0-3-1.34-3-3v-3h6z" fill="#f0d0b4"/></g><g><path d="m60 56v3c0 1.66-1.34 3-3 3-.83 0-1.58-.34-2.12-.88s-.88-1.29-.88-2.12v-1-2z" fill="#f0d0b4"/></g><g><path d="m52 18h1c1.66 0 3 1.34 3 3 0 .83-.34 1.58-.88 2.12s-1.29.88-2.12.88h-1.08c.06-.32.08-.66.08-1z" fill="#f0d0b4"/></g><g><path d="m48.69 31.06c.12.55.39 1.04.77 1.42l-.01.01c-1.2.97-2.71 1.51-4.28 1.51h-.34c-1.57 0-3.08-.54-4.28-1.51l-.01-.01c.38-.39.65-.87.77-1.41l.42-1.88c.98.52 2.09.81 3.27.81s2.29-.29 3.27-.81z" fill="#f0d0b4"/></g><g><path d="m51.92 24c-.31 2.26-1.71 4.17-3.65 5.19-.98.52-2.09.81-3.27.81s-2.29-.29-3.27-.81c-.62-.33-1.19-.75-1.68-1.24-1.04-1.04-1.76-2.41-1.97-3.95-.06-.33-.08-.66-.08-1v-5h14v5c0 .34-.02.68-.08 1z" fill="#f0d0b4"/></g><g><path d="m38 23c0 .34.02.67.08 1h-.01-1.07c-.83 0-1.58-.34-2.12-.88s-.88-1.29-.88-2.12c0-1.66 1.34-3 3-3h1z" fill="#f0d0b4"/></g></g><g><path d="m43 26.236c.381-.762 1.147-1.236 2-1.236s1.619.474 2 1.236l.105.211 1.789-.895-.105-.211c-.722-1.444-2.174-2.341-3.789-2.341s-3.067.897-3.789 2.342l-.105.211 1.789.895z"/><path d="m18 25c1.615 0 3.067-.897 3.789-2.342l.105-.211-1.789-.895-.105.212c-.381.762-1.147 1.236-2 1.236s-1.619-.474-2-1.236l-.105-.211-1.789.895.105.211c.722 1.444 2.174 2.341 3.789 2.341z"/><path d="m61 51v-11.002c0-3.378-2.412-6.273-5.734-6.885l-4.013-.738c-.79-.145-1.414-.746-1.59-1.529l-.263-1.172c1.628-1.077 2.834-2.734 3.336-4.674h.264c2.206 0 4-1.794 4-4 0-.902-.311-1.726-.817-2.396.493-.364.817-.945.817-1.604 0-6.617-5.383-12-12-12s-12 5.383-12 12c0 .659.324 1.24.817 1.604-.506.67-.817 1.494-.817 2.396 0 2.206 1.794 4 4 4h.263c.502 1.94 1.708 3.597 3.336 4.674l-.263 1.174c-.176.784-.8 1.384-1.59 1.529l-4.012.738c-.677.125-1.304.365-1.893.664.102-.239.159-.502.159-.779v-2c0-1.103-.897-2-2-2h-8.279l-.421-1.265c1.678-1.075 2.925-2.757 3.437-4.735h.263c2.206 0 4-1.794 4-4 0-1.661-1.019-3.087-2.463-3.691.244-.583.393-1.214.441-1.873l.833-.833c.767-.767 1.189-1.786 1.189-2.871 0-1.418-.755-2.752-1.971-3.481l-7.657-4.594c-1.432-.859-3.313-.859-4.744 0l-7.657 4.594c-1.216.729-1.971 2.063-1.971 3.481 0 1.084.422 2.104 1.189 2.871l.833.833c.048.659.197 1.29.441 1.873-1.444.604-2.463 2.03-2.463 3.691 0 2.206 1.794 4 4 4h.263c.512 1.979 1.759 3.66 3.437 4.735l-.421 1.265h-8.279c-1.103 0-2 .897-2 2v2c0 .239.049.465.126.677-1.371 1.906-2.126 4.208-2.126 6.566v10.757c0 3.309 2.691 6 6 6v6h50c2.206 0 4-1.794 4-4v-2c1.103 0 2-.897 2-2v-2c0-1.103-.897-2-2-2zm-6 0v-2h4v2zm-24 8v-2h4v2c0 1.103-.897 2-2 2s-2-.897-2-2zm-12-23.414c0 .507-.164 1.005-.458 1.414h-1.083c-.295-.409-.459-.907-.459-1.414v-.586h2zm-1.219 3.414h.438l2.5 10h-5.438zm5.219 11.236.091-.183c.325-.649.978-1.053 1.705-1.053.501 0 .993.204 1.348.558l1.442 1.442h1.414c1.103 0 2 .897 2 2s-.897 2-2 2h-6zm8-9.236h4v2h-4zm28 6h-4v-2h4zm-6 0h-16v-2h16zm6-4h-4v-2h4zm-6 0h-16v-2h16zm-22 2h4v2h-4zm0 4h4v2h-2.556c-.349-.599-.845-1.094-1.444-1.444zm8 6h12c0 1.103.897 2 2 2h-16c1.103 0 2-.897 2-2zm-6-2h4v2h-4.556c.344-.591.556-1.268.556-2zm4 6h16c0 .732.212 1.409.556 2h-17.112c.344-.591.556-1.268.556-2zm14-6h-12c0-1.103-.897-2-2-2v-2h16v2c-1.103 0-2 .897-2 2zm-16-36c0-.685.07-1.354.202-2h19.598c.132.646.202 1.315.202 2zm17.981-6c.465.617.865 1.284 1.179 2h-18.319c.314-.716.713-1.383 1.178-2zm.019 12v-4c1.103 0 2 .897 2 2s-.897 2-2 2zm-2.025-14h-11.95c1.67-1.25 3.734-2 5.975-2s4.305.75 5.975 2zm-15.975 12c0-1.103.897-2 2-2v4c-1.103 0-2-.897-2-2zm4 2v-4h12v4c0 3.309-2.691 6-6 6s-6-2.691-6-6zm6 8c.893 0 1.75-.154 2.553-.425l.159.709c.075.334.198.647.349.942-.876.5-1.874.774-2.89.774h-.343c-1.016 0-2.013-.273-2.889-.773.151-.295.274-.607.348-.941l.159-.711c.804.271 1.661.425 2.554.425zm-9.904 4.083 4.013-.738c.54-.099 1.036-.311 1.476-.602 1.259.812 2.737 1.257 4.244 1.257h.343c1.507 0 2.986-.445 4.247-1.258.439.289.935.501 1.474.6l4.012.738c2.037.375 3.587 1.955 3.987 3.92h-27.782c.401-1.964 1.95-3.543 3.986-3.917zm-3.946-.098c-1.325 1.282-2.15 3.059-2.15 5.015v9h-.586l-.856-.856c-.738-.738-1.718-1.144-2.762-1.144-.868 0-1.683.284-2.345.783l-2.361-9.541c.581-.763.91-1.68.91-2.655v-.587h10c.051 0 .1-.011.15-.015zm-.15-1.985h-9.382l1-2h8.382zm-21-20h16c0 2.206-1.794 4-4 4h-8c-2.206 0-4-1.794-4-4zm7-3c0-.551.449-1 1-1s1 .449 1 1-.449 1-1 1-1-.449-1-1zm11 9c0 1.103-.897 2-2 2v-3.54c.146-.131.285-.269.418-.414.903.192 1.582.995 1.582 1.954zm-19-11.034 7.657-4.594c.811-.487 1.875-.487 2.686 0l7.657 4.594c.617.37 1 1.047 1 1.767 0 .55-.214 1.068-.604 1.457l-.21.21c-.332-.248-.74-.4-1.186-.4h-5.184c.112-.314.184-.648.184-1 0-1.654-1.346-3-3-3s-3 1.346-3 3c0 .352.072.686.184 1h-5.184c-.446 0-.854.152-1.187.399l-.21-.21c-.389-.389-.603-.906-.603-1.457 0-.719.383-1.396 1-1.766zm-1 11.034c0-.959.679-1.762 1.582-1.954.133.144.272.282.418.414v3.54c-1.103 0-2-.897-2-2zm4 2v-2.35c.627.223 1.298.35 2 .35h8c.702 0 1.373-.128 2-.35v2.35c0 3.309-2.691 6-6 6s-6-2.691-6-6zm6 8c.866 0 1.698-.143 2.48-.398l.44 1.321-1.538 3.077h-2.764l-1.538-3.077.44-1.321c.782.255 1.614.398 2.48.398zm-13 2h8.382l1 2h-9.382zm-2 20v-10.757c0-1.888.586-3.735 1.658-5.277.112.019.225.034.342.034h10v.586c0 .975.329 1.892.909 2.654l-2.69 10.76h-2.219v-8.236l-1.105-2.211-1.789.895.894 1.788v8.35l-1.707 1.707 1.414 1.414 1.707-1.707h10.586v4h-14c-2.206 0-4-1.794-4-4zm6 6h20v2c0 .732.212 1.409.556 2h-20.556zm50 2c0 1.103-.897 2-2 2s-2-.897-2-2v-2h4zm-6-4v-2h8l.001 2z"/></g></g></svg>