<svg id="Solid" height="512" viewBox="0 0 512 512" width="512" xmlns="http://www.w3.org/2000/svg"><path d="m296 448h16v32h-16z"/><path d="m328 448h16v32h-16z"/><path d="m264 448h16v32h-16z"/><path d="m136 448h16v32h-16z"/><path d="m232 448h16v32h-16z"/><path d="m360 448h16v32h-16z"/><path d="m200 448h16v32h-16z"/><path d="m168 448h16v32h-16z"/><path d="m256 296a28.465 28.465 0 0 0 -21.45 9.738c-17.121 19.615-26.55 36.284-26.55 46.939 0 13.737 4.976 32 48 32s48-18.263 48-32c0-10.655-9.429-27.324-26.55-46.939a28.465 28.465 0 0 0 -21.45-9.738z"/><path d="m436.934 225.535c-7-61.164-25.219-108.788-54.166-141.548-30.481-34.496-73.132-51.987-126.768-51.987s-96.287 17.491-126.768 51.987c-28.947 32.76-47.17 80.384-54.166 141.548-6.246 54.615-1.229 103.21.457 116.8 6.172 49.745 45.882 82.642 55.1 89.663h250.744c9.219-7.054 48.96-40.1 55.11-89.663 1.686-13.59 6.703-62.185.457-116.8zm-282.834 43.123a72.413 72.413 0 0 1 -44.133-92.279 8 8 0 0 1 10.206-4.882l121.327 42.821a8 8 0 0 1 4.881 10.207 72.313 72.313 0 0 1 -92.281 44.133zm101.9 132.019c-52.9 0-64-26.1-64-48 0-14.946 10.26-34.278 30.5-57.46a44.492 44.492 0 0 1 67.008 0c20.232 23.183 30.492 42.514 30.492 57.46 0 21.897-11.1 48-64 48zm101.9-132.019a72.313 72.313 0 0 1 -92.279-44.133 8 8 0 0 1 4.881-10.207l121.321-42.818a8 8 0 0 1 10.206 4.882 72.413 72.413 0 0 1 -44.129 92.276z"/><path d="m283.9 226.555a56.335 56.335 0 0 0 105.17-37.118z"/><path d="m159.43 253.57a56.416 56.416 0 0 0 68.67-27.015l-105.17-37.118a56.416 56.416 0 0 0 36.5 64.133z"/></svg>