<svg xmlns="http://www.w3.org/2000/svg" height="512pt" version="1.1" viewBox="-53 0 512 512" width="512pt">
<g id="surface1">
<path d="M 384.597656 399.527344 L 369.242188 319.089844 C 368.136719 313.3125 365.730469 308.054688 362.371094 303.589844 C 377.488281 303.5 389.761719 291.175781 389.761719 276.039062 C 389.761719 260.84375 377.402344 248.484375 362.207031 248.484375 L 331.296875 248.484375 L 319.273438 188.367188 L 86.519531 188.367188 L 74.496094 248.484375 L 43.585938 248.484375 C 28.390625 248.484375 16.03125 260.84375 16.03125 276.039062 C 16.03125 291.175781 28.304688 303.5 43.421875 303.589844 C 40.0625 308.054688 37.65625 313.3125 36.550781 319.089844 L 21.195312 399.527344 C 9.058594 402.40625 0 413.328125 0 426.332031 C 0 441.527344 12.359375 453.886719 27.554688 453.886719 L 30.058594 453.886719 L 30.058594 489.457031 C 30.058594 501.886719 40.171875 512 52.601562 512 L 82.660156 512 C 95.09375 512 105.207031 501.886719 105.207031 489.457031 L 105.207031 453.886719 L 300.585938 453.886719 L 300.585938 489.457031 C 300.585938 501.886719 310.699219 512 323.132812 512 L 353.191406 512 C 365.621094 512 375.734375 501.886719 375.734375 489.457031 L 375.734375 453.886719 L 378.238281 453.886719 C 393.433594 453.886719 405.792969 441.527344 405.792969 426.332031 C 405.792969 413.328125 396.734375 402.40625 384.597656 399.527344 Z M 362.207031 263.515625 C 369.113281 263.515625 374.730469 269.132812 374.730469 276.039062 C 374.730469 282.945312 369.113281 288.5625 362.207031 288.5625 L 339.3125 288.5625 L 334.300781 263.515625 Z M 98.839844 203.398438 L 306.949219 203.398438 L 323.984375 288.5625 L 81.808594 288.5625 Z M 31.0625 276.039062 C 31.0625 269.132812 36.679688 263.515625 43.585938 263.515625 L 71.492188 263.515625 L 66.480469 288.5625 L 43.585938 288.5625 C 36.679688 288.5625 31.0625 282.945312 31.0625 276.039062 Z M 51.3125 321.910156 C 53.339844 311.296875 62.652344 303.59375 73.457031 303.59375 L 332.335938 303.59375 C 343.140625 303.59375 352.453125 311.296875 354.476562 321.910156 L 369.152344 398.777344 L 36.636719 398.777344 Z M 90.175781 489.457031 C 90.175781 493.601562 86.804688 496.96875 82.660156 496.96875 L 52.601562 496.96875 C 48.457031 496.96875 45.089844 493.601562 45.089844 489.457031 L 45.089844 453.886719 L 90.175781 453.886719 Z M 360.703125 489.457031 C 360.703125 493.601562 357.332031 496.96875 353.191406 496.96875 L 323.132812 496.96875 C 318.988281 496.96875 315.617188 493.601562 315.617188 489.457031 L 315.617188 453.886719 L 360.703125 453.886719 Z M 378.238281 438.855469 L 27.554688 438.855469 C 20.648438 438.855469 15.03125 433.238281 15.03125 426.332031 C 15.03125 419.425781 20.648438 413.808594 27.554688 413.808594 L 378.238281 413.808594 C 385.144531 413.808594 390.761719 419.425781 390.761719 426.332031 C 390.761719 433.238281 385.144531 438.855469 378.238281 438.855469 Z M 378.238281 438.855469 " style=" stroke:none;fill-rule:nonzero;fill:rgb(0%,0%,0%);fill-opacity:1;" />
<path d="M 201.394531 95.1875 L 204.398438 95.1875 C 209.09375 95.1875 212.914062 99.007812 212.914062 103.703125 C 212.914062 108.398438 209.09375 112.21875 204.398438 112.21875 L 178.347656 112.21875 L 178.347656 127.25 L 194.878906 127.25 L 194.878906 144.78125 L 209.910156 144.78125 L 209.910156 126.589844 C 220.242188 124.101562 227.945312 114.789062 227.945312 103.703125 C 227.945312 90.71875 217.382812 80.15625 204.398438 80.15625 L 201.394531 80.15625 C 196.695312 80.15625 192.875 76.335938 192.875 71.640625 C 192.875 66.945312 196.695312 63.125 201.394531 63.125 L 227.445312 63.125 L 227.445312 48.09375 L 209.910156 48.09375 L 209.910156 30.558594 L 194.878906 30.558594 L 194.878906 49.019531 C 185.054688 51.851562 177.847656 60.914062 177.847656 71.640625 C 177.847656 84.625 188.410156 95.1875 201.394531 95.1875 Z M 201.394531 95.1875 " style=" stroke:none;fill-rule:nonzero;fill:rgb(0%,0%,0%);fill-opacity:1;" />
<path d="M 202.894531 175.34375 C 251.238281 175.34375 290.566406 136.011719 290.566406 87.671875 C 290.566406 39.328125 251.238281 0 202.894531 0 C 154.554688 0 115.226562 39.328125 115.226562 87.671875 C 115.226562 136.011719 154.554688 175.34375 202.894531 175.34375 Z M 202.894531 15.03125 C 242.953125 15.03125 275.539062 47.617188 275.539062 87.671875 C 275.539062 127.726562 242.953125 160.3125 202.894531 160.3125 C 162.839844 160.3125 130.253906 127.726562 130.253906 87.671875 C 130.253906 47.617188 162.839844 15.03125 202.894531 15.03125 Z M 202.894531 15.03125 " style=" stroke:none;fill-rule:nonzero;fill:rgb(0%,0%,0%);fill-opacity:1;" />
<path d="M 108.710938 323.632812 L 94.683594 323.632812 C 79.492188 323.632812 67.132812 335.992188 67.132812 351.1875 C 67.132812 366.378906 79.492188 378.738281 94.683594 378.738281 L 108.710938 378.738281 C 123.90625 378.738281 136.265625 366.378906 136.265625 351.1875 C 136.265625 335.992188 123.90625 323.632812 108.710938 323.632812 Z M 108.710938 363.710938 L 94.683594 363.710938 C 87.777344 363.710938 82.160156 358.09375 82.160156 351.1875 C 82.160156 344.28125 87.777344 338.660156 94.683594 338.660156 L 108.710938 338.660156 C 115.617188 338.660156 121.238281 344.28125 121.238281 351.1875 C 121.238281 358.09375 115.617188 363.710938 108.710938 363.710938 Z M 108.710938 363.710938 " style=" stroke:none;fill-rule:nonzero;fill:rgb(0%,0%,0%);fill-opacity:1;" />
<path d="M 311.109375 323.632812 L 297.082031 323.632812 C 281.886719 323.632812 269.527344 335.992188 269.527344 351.1875 C 269.527344 366.378906 281.886719 378.738281 297.082031 378.738281 L 311.109375 378.738281 C 326.300781 378.738281 338.660156 366.378906 338.660156 351.1875 C 338.660156 335.992188 326.300781 323.632812 311.109375 323.632812 Z M 311.109375 363.710938 L 297.082031 363.710938 C 290.171875 363.710938 284.554688 358.09375 284.554688 351.1875 C 284.554688 344.28125 290.171875 338.660156 297.082031 338.660156 L 311.109375 338.660156 C 318.015625 338.660156 323.632812 344.28125 323.632812 351.1875 C 323.632812 358.09375 318.015625 363.710938 311.109375 363.710938 Z M 311.109375 363.710938 " style=" stroke:none;fill-rule:nonzero;fill:rgb(0%,0%,0%);fill-opacity:1;" />
<path d="M 77.652344 80.15625 L 92.679688 80.15625 L 92.679688 95.1875 L 77.652344 95.1875 Z M 77.652344 80.15625 " style=" stroke:none;fill-rule:nonzero;fill:rgb(0%,0%,0%);fill-opacity:1;" />
<path d="M 47.59375 80.15625 L 62.621094 80.15625 L 62.621094 95.1875 L 47.59375 95.1875 Z M 47.59375 80.15625 " style=" stroke:none;fill-rule:nonzero;fill:rgb(0%,0%,0%);fill-opacity:1;" />
<path d="M 313.113281 80.15625 L 328.140625 80.15625 L 328.140625 95.1875 L 313.113281 95.1875 Z M 313.113281 80.15625 " style=" stroke:none;fill-rule:nonzero;fill:rgb(0%,0%,0%);fill-opacity:1;" />
<path d="M 343.171875 80.15625 L 358.199219 80.15625 L 358.199219 95.1875 L 343.171875 95.1875 Z M 343.171875 80.15625 " style=" stroke:none;fill-rule:nonzero;fill:rgb(0%,0%,0%);fill-opacity:1;" />
<path d="M 157.808594 318.621094 L 172.835938 318.621094 L 172.835938 333.652344 L 157.808594 333.652344 Z M 157.808594 318.621094 " style=" stroke:none;fill-rule:nonzero;fill:rgb(0%,0%,0%);fill-opacity:1;" />
<path d="M 187.867188 318.621094 L 247.984375 318.621094 L 247.984375 333.652344 L 187.867188 333.652344 Z M 187.867188 318.621094 " style=" stroke:none;fill-rule:nonzero;fill:rgb(0%,0%,0%);fill-opacity:1;" />
<path d="M 241.972656 219.429688 L 292.070312 219.429688 L 292.070312 234.457031 L 241.972656 234.457031 Z M 241.972656 219.429688 " style=" stroke:none;fill-rule:nonzero;fill:rgb(0%,0%,0%);fill-opacity:1;" />
<path d="M 211.914062 219.429688 L 226.941406 219.429688 L 226.941406 234.457031 L 211.914062 234.457031 Z M 211.914062 219.429688 " style=" stroke:none;fill-rule:nonzero;fill:rgb(0%,0%,0%);fill-opacity:1;" />
</g>
</svg>