<?xml version="1.0" encoding="utf-8"?>
<!-- Svg Vector Icons : http://www.onlinewebfonts.com/icon -->
<!DOCTYPE svg PUBLIC "-//W3C//DTD SVG 1.1//EN" "http://www.w3.org/Graphics/SVG/1.1/DTD/svg11.dtd">
<svg version="1.1" xmlns="http://www.w3.org/2000/svg" xmlns:xlink="http://www.w3.org/1999/xlink" x="0px" y="0px" viewBox="0 0 1000 1000" enable-background="new 0 0 1000 1000" xml:space="preserve">
<metadata> Svg Vector Icons : http://www.onlinewebfonts.com/icon </metadata>
<g><path d="M645.3,908.8c-78.2,0-144.8,0-211.4,0c-123.3,0-246.6,0.1-370,0c-45,0-47.4-7.1-52.7-50.1C0.6,773.9,65.8,751.3,119.4,719c48.6-29.3,101.8-52.1,147.2-85.6c53.5-39.4,67.1-68.6,8.1-147.5c-39.5-52.8-64.8-112-57.4-179.3c10.3-94.3,51.4-178.1,158.3-209c83.3-24.1,174,17.1,220.8,116.1c46.4,98.3,30.4,188.7-33.2,273.6c-11.1,14.9-24.7,29.4-30.5,46.4c-8.7,25.7-11.6,55.2,12.3,74.6c23.2,18.9,30.1,36.5,25.3,68.1C557.4,760.5,570.6,839.9,645.3,908.8z"/><path d="M802.2,908.7c-87.5,7.1-186.9-93.1-179.5-186.9c8.2-104.9,80.1-182.6,190.5-179.2c102.1,3.1,178,76.6,176.8,188.5C988.9,827.7,906.2,911.2,802.2,908.7z M705,726.5c1.8,32.9,28.1,18.8,42.7,18.1c29.6-1.3,45.1,5.8,39,38.4c-0.8,4.4-0.2,9.1-0.1,13.5c0.4,15-5.3,32,21.7,31.2c25.6-0.8,18.5-17.5,18.8-30.6c1.1-50.9,0.8-50.9,52-51.6c1.1,0,2.3,0,3.4,0c13.5,0.1,26.5,3,27-19.1c0.5-23.4-12.7-21.5-28.1-21.7c-53.3-0.7-53.3-1-54.1-52.5c0-1.1-0.1-2.3,0-3.4c0.7-14.3,1.2-26.1-20-26.1c-20.5,0-20.5,10.5-20.9,25.5c-1.3,54.7-1.6,54.7-56.7,56.7c-2.3,0.1-4.6,0.2-6.8,0C706.8,703.3,703.7,712.5,705,726.5z"/></g>
</svg>