<?xml version="1.0" encoding="iso-8859-1"?>
<!-- Generator: Adobe Illustrator 19.0.0, SVG Export Plug-In . SVG Version: 6.00 Build 0)  -->
<svg version="1.1" id="Capa_1" xmlns="http://www.w3.org/2000/svg" xmlns:xlink="http://www.w3.org/1999/xlink" x="0px" y="0px"
	 viewBox="0 0 512.001 512.001" style="enable-background:new 0 0 512.001 512.001;" xml:space="preserve">
<path style="fill:#E8E8E8;" d="M396.725,156.066h-15.252c-6.828,0-12.363,5.535-12.363,12.363c0,7.697,0,6.749,0,18.262
	c15.073,0,24.941,0,39.979,0c0-11.503,0-10.577,0-18.262C409.089,161.602,403.553,156.066,396.725,156.066z"/>
<path style="fill:#C1C4C6;" d="M390.13,168.429c0-5.833,4.045-10.71,9.479-12.011c-1.934-0.464-1.475-0.352-18.136-0.352
	c-6.828,0-12.363,5.535-12.363,12.363c0,7.697,0,6.749,0,18.262c16.16,0,13.82,0,21.02,0
	C390.13,175.188,390.13,176.114,390.13,168.429z"/>
<path style="fill:#585A60;" d="M262.492,306.998H205.2c-4.267,0-7.727-3.459-7.727-7.727c0-4.267,3.46-7.727,7.727-7.727
	c61.727,0,59.425,0.804,62.19-2.129c2.93-3.104,7.819-3.247,10.924-0.32c3.105,2.928,3.248,7.818,0.32,10.923
	C274.45,304.454,268.566,306.998,262.492,306.998z"/>
<path style="fill:#C16B3D;" d="M151.024,237.676v9.796L112.89,345.23l-0.001,0.003c-7.285,18.677-1.697,33.367,21.325,33.367h26.38
	c4.944-0.346,14.659-2.56,19.197-14.194c0.001-0.002,0.001-0.002,0.002-0.003l45.612-116.931v-9.796L151.024,237.676
	L151.024,237.676z"/>
<path style="fill:#AF542C;" d="M133.509,345.233l0.001-0.003l38.134-97.758v-9.796h-20.62v9.796L112.89,345.23l-0.001,0.003
	c-7.285,18.677-1.697,33.367,21.325,33.367h20.62C131.864,378.6,126.227,363.903,133.509,345.233z"/>
<path style="fill:#989DA0;" d="M161.468,182.57l-0.147,0.408c-5.327,1.375-10.297,6.198-10.297,11.954c0,11.183,0,42.678,0,52.539
	c25.286,0,219.959,0,245.701,0c6.828,0,12.363-5.535,12.363-12.363c0-11.001,0-40.953,0-52.539
	C398.7,182.57,171.629,182.57,161.468,182.57z"/>
<path style="fill:#7F8487;" d="M396.725,227.021c-10.379,0-235.623,0-245.701,0c0,7.647,0,12.801,0,20.451
	c25.286,0,219.959,0,245.701,0c6.828,0,12.363-5.535,12.363-12.363c0-9.233,0-5.626,0-20.452
	C409.089,221.486,403.553,227.021,396.725,227.021z"/>
<path style="fill:#C1C4C6;" d="M161.087,182.792c-5.728,1.079-10.063,6.1-10.063,12.141v20.088c23.222,0,90.958,0,113.578,0
	c6.827,0,12.363-5.535,12.363-12.363V182.57C208.199,182.57,232.95,182.526,161.087,182.792z"/>
<path style="fill:#93603E;" d="M159.828,273h-18.763l-28.175,72.23l-0.001,0.003c-0.083,0.212-0.381,0.972-0.454,1.172h18.458
	c1.03-0.004,12.097-0.267,15.719-9.564c0.074-0.19,19.04-48.889,19.04-48.889C170.35,275.891,163.952,273.418,159.828,273z"/>
<path style="fill:#7F4C2F;" d="M133.117,346.236l0.392-1.003l0.001-0.003l28.061-71.934c-1.611-0.396-0.484-0.297-20.504-0.297
	L112.89,345.23l-0.001,0.003c-0.083,0.212-0.381,0.972-0.454,1.172C132.475,346.405,131.338,346.468,133.117,346.236z"/>
<path style="fill:#EA473B;" d="M0,256.001c0,141.385,114.615,256,256,256c141.384,0,256.001-114.615,256.001-255.999
	C511.999,114.617,397.384,0,256,0C114.615,0,0,114.617,0,256.001z M469.326,256.001c0,49.119-16.61,94.353-44.51,130.412
	l-299.23-299.23c36.061-27.898,81.297-44.51,130.414-44.51C373.814,42.674,469.324,138.185,469.326,256.001z M42.673,256.001
	c0-53.386,19.611-102.189,52.02-139.605l300.911,300.911c-37.415,32.41-86.22,52.02-139.603,52.02
	C138.184,469.328,42.673,373.817,42.673,256.001z"/>
<path style="fill:#E03B36;" d="M20.702,256.001C20.704,118.087,129.77,5.661,266.351,0.225C120.071-5.558,0.002,111.348,0,256.001
	c0,144.674,120.094,261.556,266.351,255.774C129.769,506.341,20.702,393.917,20.702,256.001z"/>
<g>
</g>
<g>
</g>
<g>
</g>
<g>
</g>
<g>
</g>
<g>
</g>
<g>
</g>
<g>
</g>
<g>
</g>
<g>
</g>
<g>
</g>
<g>
</g>
<g>
</g>
<g>
</g>
<g>
</g>
</svg>
