<svg height="464pt" viewBox="0 -16 464 464" width="464pt" xmlns="http://www.w3.org/2000/svg"><path d="m156.6875 104h-24.6875c-6.617188 0-12 5.382812-12 12s5.382812 12 12 12h52.078125l-13.734375-10.34375zm0 0"/><path d="m461.566406 264.054688c0-4.214844-2.847656-7.542969-6.789062-8.152344l-94.777344-17.230469v-46.671875h79.007812c-8.359374-12.878906-21.945312-22.128906-38.167968-24.71875l-145.464844-23.28125h-39.566406c-.847656 23.585938-5.464844 46.640625-13.761719 68.734375 41.226563 11.410156 74.128906 42.875 87.464844 83.265625h173.03125zm0 0"/><path d="m103.03125 27.710938 78.226562 78.226562 29.40625 22.0625h25.265626l-118.914063-112.65625c-10.457031-9.894531-24.128906-15.34375-38.519531-15.34375h-78.496094v16h74.742188c10.691406 0 20.738281 4.160156 28.289062 11.710938zm0 0"/><path d="m376 225.328125 72 13.085937v-15.839843c0-5.03125-.65625-9.917969-1.886719-14.574219h-70.113281zm0 0"/><path d="m104 116c0-15.441406 12.558594-28 28-28h8.6875l-48.96875-48.976562c-4.535156-4.527344-10.558594-7.023438-16.976562-7.023438h-74.742188v88h104.40625c-.191406-1.320312-.40625-2.632812-.40625-4zm0 0"/><path d="m464 344-.976562-32h-169.359376c1.488282 7.785156 2.335938 15.792969 2.335938 24v8zm0 0"/><path d="m168 208c6.183594 0 12.222656.59375 18.175781 1.441406 8.167969-21.007812 12.753907-42.960937 13.632813-65.441406h-67.808594c-7.601562 0-14.480469-3.0625-19.535156-8h-112.464844v160h46.488281c16.847657-51.03125 64.910157-88 121.511719-88zm0 0"/><path d="m0 344h40v-8c0-8.207031.847656-16.214844 2.335938-24h-42.335938zm0 0"/><path d="m260.441406 129.175781.679688-.464843 30.414062-20.816407 9.039063 27.128907 17.808593 2.847656-13.117187-39.367188 53.03125-36.289062c28.902344-19.757813 62.6875-30.214844 97.703125-30.214844v-16c-38.246094 0-75.160156 11.414062-106.734375 33.015625l-100.707031 68.914063 11.152344 10.566406zm0 0"/><path d="m168 312c-13.230469 0-24 10.769531-24 24s10.769531 24 24 24 24-10.769531 24-24-10.769531-24-24-24zm8 32h-16v-16h16zm0 0"/><path d="m168 240c-52.9375 0-96 43.0625-96 96s43.0625 96 96 96 96-43.0625 96-96-43.0625-96-96-96zm0 136c-22.054688 0-40-17.945312-40-40s17.945312-40 40-40 40 17.945312 40 40-17.945312 40-40 40zm0 0"/></svg>