<svg id="Layer_3" enable-background="new 0 0 64 64" height="512" viewBox="0 0 64 64" width="512" xmlns="http://www.w3.org/2000/svg"><g><path d="m62 43h-15v-33h-.009c0-.26-.092-.516-.284-.707l-8-8c-.191-.192-.447-.284-.707-.284v-.009h-36c-.552 0-1 .448-1 1v60c0 .552.448 1 1 1h22 38c.552 0 1-.448 1-1v-18c0-.552-.448-1-1-1zm-23-38.586 4.586 4.586h-4.586zm-16 39.586v17h-20v-58h34v7c0 .552.448 1 1 1h7v32h-21c-.552 0-1 .448-1 1zm38 17h-36v-16h36z"/><path d="m43 60c3.86 0 7-3.14 7-7s-3.14-7-7-7-7 3.14-7 7 3.14 7 7 7zm0-12c2.757 0 5 2.243 5 5s-2.243 5-5 5-5-2.243-5-5 2.243-5 5-5z"/><path d="m57 52h2v-4c0-.552-.448-1-1-1h-4v2h3z"/><path d="m28 59h4v-2h-3v-3h-2v4c0 .552.448 1 1 1z"/><path d="m10 15c2.757 0 5-2.243 5-5s-2.243-5-5-5-5 2.243-5 5 2.243 5 5 5zm0-8c1.654 0 3 1.346 3 3s-1.346 3-3 3-3-1.346-3-3 1.346-3 3-3z"/><path d="m5 17h10v2h-10z"/><path d="m11 23h30v2h-30z"/><path d="m7 27h34v2h-34z"/><path d="m7 31h34v2h-34z"/><path d="m7 35h34v2h-34z"/><path d="m7 44h12v2h-12z"/><path d="m7 48h12v2h-12z"/><path d="m7 52h12v2h-12z"/></g></svg>