<svg width="31" height="31" viewBox="0 0 31 31" fill="none" xmlns="http://www.w3.org/2000/svg">
<path d="M15.5 0.1875C7.04395 0.1875 0.1875 7.04395 0.1875 15.5C0.1875 23.9561 7.04395 30.8125 15.5 30.8125C23.9561 30.8125 30.8125 23.9561 30.8125 15.5C30.8125 7.04395 23.9561 0.1875 15.5 0.1875ZM21.1533 21.3174L18.8975 21.3071L15.5 17.2568L12.106 21.3037L9.84668 21.314C9.69629 21.314 9.57324 21.1943 9.57324 21.0405C9.57324 20.9756 9.59717 20.9141 9.63818 20.8628L14.085 15.5649L9.63818 10.2705C9.59688 10.2204 9.57397 10.1577 9.57324 10.0928C9.57324 9.94238 9.69629 9.81934 9.84668 9.81934L12.106 9.82959L15.5 13.8799L18.894 9.83301L21.1499 9.82275C21.3003 9.82275 21.4233 9.94238 21.4233 10.0962C21.4233 10.1611 21.3994 10.2227 21.3584 10.2739L16.9185 15.5684L21.3618 20.8662C21.4028 20.9175 21.4268 20.979 21.4268 21.0439C21.4268 21.1943 21.3037 21.3174 21.1533 21.3174Z" fill="white" fill-opacity="0.2"/>
</svg>
