<svg width="197" height="120" viewBox="0 0 197 120" fill="none" xmlns="http://www.w3.org/2000/svg">
<circle cx="98" cy="60" r="60" fill="white" fill-opacity="0.1"/>
<path d="M60 95.981L62.6799 82.7382H66.1204L63.4405 95.981H60Z" fill="white" fill-opacity="0.6"/>
<path d="M69.0125 82.7382H73.6293C75.2862 82.7382 76.663 83.3077 77.7597 84.4467C78.8564 85.5795 79.4048 86.9216 79.4048 88.4731C79.4048 90.6032 78.6471 92.3886 77.1317 93.8293C75.6164 95.2638 73.7738 95.981 71.604 95.981H66.3326L69.0125 82.7382ZM73.1783 85.9612H71.7985L70.4276 92.7673H71.8339C72.8481 92.7673 73.7767 92.3733 74.6199 91.5852C75.469 90.7972 75.8935 89.8275 75.8935 88.6762C75.8935 87.8944 75.6429 87.2479 75.1417 86.7369C74.6406 86.2198 73.9861 85.9612 73.1783 85.9612Z" fill="white" fill-opacity="0.6"/>
<path d="M92.2293 85.5826C91.0441 85.5826 90.0181 86.0228 89.1514 86.9032C88.2905 87.7835 87.8601 88.8548 87.8601 90.1169C87.8601 90.9849 88.1372 91.7083 88.6915 92.2871C89.2516 92.8596 89.971 93.1459 90.8495 93.1459C91.2623 93.1459 91.6662 93.0843 92.0612 92.9612C92.4622 92.8319 92.8042 92.678 93.0872 92.4995C93.3702 92.3209 93.6237 92.1424 93.8478 91.9638C94.0719 91.7791 94.237 91.6252 94.3431 91.5021L94.5288 91.3082L96.1208 93.7092C96.0619 93.7831 95.9793 93.8816 95.8732 94.0047C95.773 94.1217 95.5371 94.3341 95.1656 94.6419C94.8001 94.9436 94.4109 95.2114 93.9982 95.4454C93.5913 95.6793 93.0577 95.8886 92.3973 96.0733C91.7428 96.2642 91.0706 96.3596 90.3808 96.3596C88.6649 96.3596 87.2321 95.7563 86.0824 94.5496C84.9385 93.3368 84.3665 91.9238 84.3665 90.3108C84.3665 88.1437 85.1655 86.2783 86.7634 84.7145C88.3672 83.1446 90.2864 82.3596 92.5211 82.3596C93.1992 82.3596 93.8419 82.452 94.4492 82.6367C95.0565 82.8214 95.5548 83.043 95.9439 83.3016C96.339 83.5601 96.6839 83.8187 96.9788 84.0773C97.2795 84.3359 97.4888 84.5575 97.6067 84.7422L97.8101 85.01L95.3602 87.171C95.3366 87.134 95.2983 87.0786 95.2452 87.0047C95.1922 86.9247 95.0713 86.7954 94.8826 86.6169C94.6939 86.4322 94.4876 86.269 94.2635 86.1274C94.0394 85.9858 93.7446 85.8596 93.379 85.7488C93.0135 85.638 92.6302 85.5826 92.2293 85.5826Z" fill="white" fill-opacity="0.6"/>
<path d="M105.195 90.3108L104.797 86.4322L102.843 90.3108H105.195ZM105.523 93.1459H101.357L99.8886 95.981H96.0324L103.515 82.7382H107.318L109.432 95.981H105.867L105.523 93.1459Z" fill="white" fill-opacity="0.6"/>
<path d="M110.891 95.981L113.571 82.7382H119.258C120.42 82.7382 121.392 83.1292 122.177 83.9111C122.961 84.693 123.353 85.6134 123.353 86.6723C123.353 87.3433 123.247 87.9559 123.035 88.51C122.822 89.0641 122.566 89.4981 122.265 89.8121C121.964 90.12 121.664 90.3847 121.363 90.6063C121.068 90.8218 120.818 90.9665 120.611 91.0404L120.293 91.1604L121.938 95.981H118.391L117.065 91.8161H115.163L114.332 95.981H110.891ZM118.188 88.6024C118.624 88.6024 119.007 88.4638 119.338 88.1868C119.668 87.9098 119.833 87.5434 119.833 87.0879C119.833 86.7739 119.724 86.5091 119.506 86.2937C119.293 86.072 119.01 85.9612 118.657 85.9612H116.357L115.817 88.6024H118.188Z" fill="white" fill-opacity="0.6"/>
<path d="M126.608 82.7382H131.225C132.881 82.7382 134.258 83.3077 135.355 84.4467C136.452 85.5795 137 86.9216 137 88.4731C137 90.6032 136.242 92.3886 134.727 93.8293C133.212 95.2638 131.369 95.981 129.199 95.981H123.928L126.608 82.7382ZM130.773 85.9612H129.394L128.023 92.7673H129.429C130.443 92.7673 131.372 92.3733 132.215 91.5852C133.064 90.7972 133.489 89.8275 133.489 88.6762C133.489 87.8944 133.238 87.2479 132.737 86.7369C132.236 86.2198 131.581 85.9612 130.773 85.9612Z" fill="white" fill-opacity="0.6"/>
<path d="M32.144 43.568L31.352 47H20.024L23.84 30.056H28.04L24.992 43.568H32.144ZM50.456 36.848C50.456 37.696 50.344 38.576 50.12 39.488C49.912 40.4 49.56 41.336 49.064 42.296C48.568 43.256 47.952 44.112 47.216 44.864C46.496 45.6 45.568 46.208 44.432 46.688C43.296 47.168 42.048 47.408 40.688 47.408C38.144 47.408 36.248 46.744 35 45.416C33.768 44.088 33.152 42.296 33.152 40.04C33.152 39.128 33.264 38.208 33.488 37.28C33.728 36.336 34.104 35.408 34.616 34.496C35.144 33.568 35.776 32.744 36.512 32.024C37.248 31.304 38.168 30.72 39.272 30.272C40.392 29.824 41.608 29.6 42.92 29.6C45.32 29.6 47.176 30.288 48.488 31.664C49.8 33.024 50.456 34.752 50.456 36.848ZM46.232 36.824C46.232 35.688 45.904 34.776 45.248 34.088C44.608 33.4 43.728 33.056 42.608 33.056C41.632 33.056 40.784 33.328 40.064 33.872C39.344 34.416 38.8 35.096 38.432 35.912C38.08 36.728 37.824 37.504 37.664 38.24C37.504 38.96 37.424 39.624 37.424 40.232C37.424 41.4 37.752 42.328 38.408 43.016C39.064 43.704 39.896 44.048 40.904 44.048C42.024 44.048 43 43.648 43.832 42.848C44.68 42.048 45.288 41.112 45.656 40.04C46.04 38.968 46.232 37.896 46.232 36.824ZM67.5794 33.176L64.0754 35.216C63.9634 34.768 63.7554 34.376 63.4514 34.04C63.1634 33.704 62.8194 33.456 62.4194 33.296C62.0354 33.136 61.6594 33.024 61.2914 32.96C60.9234 32.88 60.5554 32.84 60.1874 32.84C59.3874 32.84 58.7874 33.016 58.3874 33.368C57.9874 33.704 57.7874 34.056 57.7874 34.424C57.7874 34.84 57.9554 35.16 58.2914 35.384C58.6274 35.608 59.1874 35.856 59.9714 36.128L61.7714 36.752C63.3074 37.28 64.4594 37.936 65.2274 38.72C65.9954 39.488 66.3794 40.488 66.3794 41.72C66.3794 43.224 65.7314 44.552 64.4354 45.704C63.1554 46.856 61.3554 47.432 59.0354 47.432C57.0034 47.432 55.3234 47.064 53.9954 46.328C52.6834 45.592 51.7314 44.656 51.1394 43.52L54.8594 41.192C54.9074 41.336 54.9554 41.472 55.0034 41.6C55.0514 41.712 55.1874 41.936 55.4114 42.272C55.6354 42.608 55.8834 42.888 56.1554 43.112C56.4434 43.336 56.8434 43.552 57.3554 43.76C57.8834 43.952 58.4674 44.048 59.1074 44.048C60.1474 44.048 60.8834 43.824 61.3154 43.376C61.7634 42.928 61.9874 42.496 61.9874 42.08C61.9874 41.744 61.8274 41.432 61.5074 41.144C61.1874 40.84 60.5634 40.528 59.6354 40.208L57.2114 39.368C56.8594 39.256 56.5074 39.112 56.1554 38.936C55.8194 38.744 55.4354 38.48 55.0034 38.144C54.5714 37.792 54.2194 37.344 53.9474 36.8C53.6754 36.256 53.5394 35.656 53.5394 35C53.5394 34.344 53.6754 33.712 53.9474 33.104C54.2354 32.48 54.6434 31.904 55.1714 31.376C55.7154 30.848 56.4514 30.424 57.3794 30.104C58.3074 29.784 59.3634 29.624 60.5474 29.624C62.3874 29.624 63.8434 29.936 64.9154 30.56C65.9874 31.168 66.8754 32.04 67.5794 33.176ZM90.5951 33.176L87.0911 35.216C86.9791 34.768 86.7711 34.376 86.4671 34.04C86.1791 33.704 85.8351 33.456 85.4351 33.296C85.0511 33.136 84.6751 33.024 84.3071 32.96C83.9391 32.88 83.5711 32.84 83.2031 32.84C82.4031 32.84 81.8031 33.016 81.4031 33.368C81.0031 33.704 80.8031 34.056 80.8031 34.424C80.8031 34.84 80.9711 35.16 81.3071 35.384C81.6431 35.608 82.2031 35.856 82.9871 36.128L84.7871 36.752C86.3231 37.28 87.4751 37.936 88.2431 38.72C89.0111 39.488 89.3951 40.488 89.3951 41.72C89.3951 43.224 88.7471 44.552 87.4511 45.704C86.1711 46.856 84.3711 47.432 82.0511 47.432C80.0191 47.432 78.3391 47.064 77.0111 46.328C75.6991 45.592 74.7471 44.656 74.1551 43.52L77.8751 41.192C77.9231 41.336 77.9711 41.472 78.0191 41.6C78.0671 41.712 78.2031 41.936 78.4271 42.272C78.6511 42.608 78.8991 42.888 79.1711 43.112C79.4591 43.336 79.8591 43.552 80.3711 43.76C80.8991 43.952 81.4831 44.048 82.1231 44.048C83.1631 44.048 83.8991 43.824 84.3311 43.376C84.7791 42.928 85.0031 42.496 85.0031 42.08C85.0031 41.744 84.8431 41.432 84.5231 41.144C84.2031 40.84 83.5791 40.528 82.6511 40.208L80.2271 39.368C79.8751 39.256 79.5231 39.112 79.1711 38.936C78.8351 38.744 78.4511 38.48 78.0191 38.144C77.5871 37.792 77.2351 37.344 76.9631 36.8C76.6911 36.256 76.5551 35.656 76.5551 35C76.5551 34.344 76.6911 33.712 76.9631 33.104C77.2511 32.48 77.6591 31.904 78.1871 31.376C78.7311 30.848 79.4671 30.424 80.3951 30.104C81.3231 29.784 82.3791 29.624 83.5631 29.624C85.4031 29.624 86.8591 29.936 87.9311 30.56C89.0031 31.168 89.8911 32.04 90.5951 33.176ZM106.021 47H101.893L101.677 43.64H95.4373L93.5653 47H89.1252L99.4693 30.056H104.221L106.021 47ZM101.485 40.568L101.029 33.608L97.1653 40.568H101.485ZM125.365 30.056L121.501 47H117.373L114.037 36.128L111.637 47H107.749L111.637 30.056H115.813L119.197 40.976L121.501 30.056H125.365ZM141.158 30.056L140.318 33.344H135.926L132.854 47H128.606L131.678 33.344H127.022L127.862 30.056H141.158ZM157.753 36.848C157.753 37.696 157.641 38.576 157.417 39.488C157.209 40.4 156.857 41.336 156.361 42.296C155.865 43.256 155.249 44.112 154.513 44.864C153.793 45.6 152.865 46.208 151.729 46.688C150.593 47.168 149.345 47.408 147.985 47.408C145.441 47.408 143.545 46.744 142.297 45.416C141.065 44.088 140.449 42.296 140.449 40.04C140.449 39.128 140.561 38.208 140.785 37.28C141.025 36.336 141.401 35.408 141.913 34.496C142.441 33.568 143.073 32.744 143.809 32.024C144.545 31.304 145.465 30.72 146.569 30.272C147.689 29.824 148.905 29.6 150.217 29.6C152.617 29.6 154.473 30.288 155.785 31.664C157.097 33.024 157.753 34.752 157.753 36.848ZM153.529 36.824C153.529 35.688 153.201 34.776 152.545 34.088C151.905 33.4 151.025 33.056 149.905 33.056C148.929 33.056 148.081 33.328 147.361 33.872C146.641 34.416 146.097 35.096 145.729 35.912C145.377 36.728 145.121 37.504 144.961 38.24C144.801 38.96 144.721 39.624 144.721 40.232C144.721 41.4 145.049 42.328 145.705 43.016C146.361 43.704 147.193 44.048 148.201 44.048C149.321 44.048 150.297 43.648 151.129 42.848C151.977 42.048 152.585 41.112 152.953 40.04C153.337 38.968 153.529 37.896 153.529 36.824ZM174.876 33.176L171.372 35.216C171.26 34.768 171.052 34.376 170.748 34.04C170.46 33.704 170.116 33.456 169.716 33.296C169.332 33.136 168.956 33.024 168.588 32.96C168.22 32.88 167.852 32.84 167.484 32.84C166.684 32.84 166.084 33.016 165.684 33.368C165.284 33.704 165.084 34.056 165.084 34.424C165.084 34.84 165.252 35.16 165.588 35.384C165.924 35.608 166.484 35.856 167.268 36.128L169.068 36.752C170.604 37.28 171.756 37.936 172.524 38.72C173.292 39.488 173.676 40.488 173.676 41.72C173.676 43.224 173.028 44.552 171.732 45.704C170.452 46.856 168.652 47.432 166.332 47.432C164.3 47.432 162.62 47.064 161.292 46.328C159.98 45.592 159.028 44.656 158.436 43.52L162.156 41.192C162.204 41.336 162.252 41.472 162.3 41.6C162.348 41.712 162.484 41.936 162.708 42.272C162.932 42.608 163.18 42.888 163.452 43.112C163.74 43.336 164.14 43.552 164.652 43.76C165.18 43.952 165.764 44.048 166.404 44.048C167.444 44.048 168.18 43.824 168.612 43.376C169.06 42.928 169.284 42.496 169.284 42.08C169.284 41.744 169.124 41.432 168.804 41.144C168.484 40.84 167.86 40.528 166.932 40.208L164.508 39.368C164.156 39.256 163.804 39.112 163.452 38.936C163.116 38.744 162.732 38.48 162.3 38.144C161.868 37.792 161.516 37.344 161.244 36.8C160.972 36.256 160.836 35.656 160.836 35C160.836 34.344 160.972 33.712 161.244 33.104C161.532 32.48 161.94 31.904 162.468 31.376C163.012 30.848 163.748 30.424 164.676 30.104C165.604 29.784 166.66 29.624 167.844 29.624C169.684 29.624 171.14 29.936 172.212 30.56C173.284 31.168 174.172 32.04 174.876 33.176Z" fill="white"/>
<path d="M73.1532 58.1694C73.2752 57.7983 73.8002 57.7983 73.9223 58.1694L74.8094 60.8675C74.8641 61.0336 75.0191 61.1458 75.194 61.1458H78.0546C78.4479 61.1458 78.6101 61.6501 78.2906 61.8795L75.9847 63.535C75.8411 63.638 75.781 63.8223 75.8362 63.9902L76.719 66.6748C76.8413 67.0469 76.4166 67.3585 76.0984 67.1301L73.7738 65.4612C73.6327 65.3599 73.4427 65.3599 73.3017 65.4612L70.9771 67.1301C70.6589 67.3585 70.2341 67.0469 70.3565 66.6748L71.2392 63.9902C71.2944 63.8223 71.2343 63.638 71.0908 63.535L68.7848 61.8795C68.4654 61.6501 68.6276 61.1458 69.0209 61.1458H71.8815C72.0563 61.1458 72.2114 61.0336 72.266 60.8675L73.1532 58.1694Z" fill="#A88863"/>
<path d="M98.1156 58.1694C98.2376 57.7983 98.7626 57.7983 98.8847 58.1694L99.7718 60.8675C99.8265 61.0336 99.9815 61.1458 100.156 61.1458H103.017C103.41 61.1458 103.573 61.6501 103.253 61.8795L100.947 63.535C100.804 63.638 100.743 63.8223 100.799 63.9902L101.681 66.6748C101.804 67.0469 101.379 67.3585 101.061 67.1301L98.7362 65.4612C98.5951 65.3599 98.4052 65.3599 98.2641 65.4612L95.9395 67.1301C95.6213 67.3585 95.1965 67.0469 95.3189 66.6748L96.2016 63.9902C96.2568 63.8223 96.1967 63.638 96.0532 63.535L93.7472 61.8795C93.4278 61.6501 93.59 61.1458 93.9833 61.1458H96.8439C97.0187 61.1458 97.1738 61.0336 97.2284 60.8675L98.1156 58.1694Z" fill="#A88863"/>
<path d="M123.078 58.1694C123.2 57.7983 123.725 57.7983 123.847 58.1694L124.734 60.8675C124.789 61.0336 124.944 61.1458 125.119 61.1458H127.979C128.373 61.1458 128.535 61.6501 128.215 61.8795L125.91 63.535C125.766 63.638 125.706 63.8223 125.761 63.9902L126.644 66.6748C126.766 67.0469 126.341 67.3585 126.023 67.1301L123.699 65.4612C123.558 65.3599 123.368 65.3599 123.226 65.4612L120.902 67.1301C120.584 67.3585 120.159 67.0469 120.281 66.6748L121.164 63.9902C121.219 63.8223 121.159 63.638 121.016 63.535L118.71 61.8795C118.39 61.6501 118.552 61.1458 118.946 61.1458H121.806C121.981 61.1458 122.136 61.0336 122.191 60.8675L123.078 58.1694Z" fill="#A88863"/>
<rect x="133.582" y="62.3333" width="63.4178" height="0.4" fill="#758795"/>
<rect y="62.3333" width="63.4178" height="0.4" fill="#758795"/>
<rect x="133.582" y="64.9999" width="35.0822" height="0.4" fill="#758795"/>
<rect x="28.3354" y="64.9999" width="35.0822" height="0.4" fill="#758795"/>
</svg>
