<svg width="84" height="84" viewBox="0 0 84 84" fill="none" xmlns="http://www.w3.org/2000/svg">
<path d="M41.9486 83.9876C70.8855 84.7185 92.28 52.9741 80.8797 26.3663C74.4648 10.3533 59.1839 0.00670026 41.9486 0.00670026C19.3976 -0.417529 -0.44824 19.3643 0.00770491 41.9971C0.00825095 65.1504 18.8227 83.9876 41.9486 83.9876ZM8.9322 34.9454C10.4251 27.838 14.2807 21.2509 19.7957 16.5243L26.725 21.8293C27.7373 22.6045 28.119 23.9756 27.6521 25.1636C27.6516 25.1647 27.6511 25.1658 27.6505 25.1674L23.9598 34.5906C23.5323 35.6829 22.4593 36.4166 21.2897 36.4166H8.66519C8.74655 35.924 8.83009 35.432 8.9322 34.9454ZM75.6705 43.3644C75.2877 56.018 67.1828 67.9511 55.5543 72.9325L55.9382 65.3806C56.1348 61.4707 54.175 57.7855 50.8119 55.7567L48.8309 54.5709C47.7159 53.9007 47.3375 52.4886 47.9682 51.3542L58.0563 33.2228C58.4773 32.464 59.2772 31.9928 60.1432 31.9928H74.1847C75.3358 35.6572 75.8201 39.5278 75.6705 43.3644ZM70.3963 23.7919H60.1438C56.3057 23.7919 52.7624 25.8786 50.8993 29.2353L40.8134 47.3629C38.0182 52.3853 39.6874 58.6394 44.622 61.6046C45.814 62.353 47.9829 63.2075 47.7585 64.9656L47.2294 75.3718C45.4886 75.6463 43.7221 75.7868 41.9486 75.7868C24.2203 75.7868 9.65134 62.0278 8.30972 44.6169H21.2902C25.871 44.6169 29.9117 41.8566 31.5853 37.5843L35.2743 28.1649C37.0724 23.588 35.6031 18.3048 31.7005 15.3167L26.9843 11.7063C31.6028 9.40862 36.6864 8.20755 41.9481 8.20755C53.6765 8.20646 64.2784 14.1604 70.3963 23.7919Z" fill="#293340"/>
</svg>
