<svg width="34" height="34" viewBox="0 0 34 34" fill="none" xmlns="http://www.w3.org/2000/svg">
<path d="M17 0C7.6263 0 0 7.6263 0 17C0 26.3737 7.6263 34 17 34C26.3737 34 34 26.3737 34 17C34 7.6263 26.3737 0 17 0ZM26.8077 15.5918H19.5337L22.5479 12.5775L22.0902 12.0455C21.2715 11.1956 20.255 10.5618 19.1315 10.2008C18.008 9.83975 16.8125 9.76277 15.652 9.9767C14.4915 10.1906 13.4021 10.6888 12.4811 11.4267C11.5602 12.1646 10.8365 13.1192 10.3747 14.2051C9.91283 15.2911 9.72731 16.4745 9.83466 17.6497C9.94202 18.8249 10.3389 19.9552 10.9899 20.9395C11.6408 21.9238 12.5255 22.7314 13.5649 23.2902C14.6043 23.849 15.766 24.1415 16.9461 24.1416C18.4229 24.1403 19.8632 23.6819 21.0692 22.8296C22.2753 21.9772 23.1881 20.7725 23.6823 19.3808L24.1212 18.1442L26.587 19.0163L26.1538 20.2529C25.5578 21.9397 24.5096 23.4302 23.1237 24.5615C21.7378 25.6927 20.0675 26.4213 18.2955 26.6675C16.5236 26.9136 14.718 26.668 13.0762 25.9573C11.4344 25.2466 10.0196 24.0983 8.98629 22.6379C7.95303 21.1774 7.34111 19.4611 7.21742 17.6763C7.09373 15.8916 7.46302 14.1072 8.28495 12.5182C9.10687 10.9292 10.3498 9.5967 11.8778 8.66635C13.4059 7.736 15.1603 7.2436 16.9493 7.24298C18.2697 7.23794 19.577 7.50328 20.7909 8.02265C22.0048 8.54203 23.0995 9.30445 24.0076 10.2629L24.0534 10.3136L24.4056 10.7223L26.8077 8.32101V15.5918Z" fill="#E00B29"/>
</svg>
