<svg width="18" height="18" viewBox="0 0 18 18" fill="none" xmlns="http://www.w3.org/2000/svg">
<path d="M9.00032 8.80318C11.0016 8.80318 12.6241 6.83254 12.6241 4.40162C12.6241 1.97064 12.0914 0 9.00032 0C5.9092 0 5.3764 1.97064 5.3764 4.40162C5.3764 6.83254 6.99892 8.80318 9.00032 8.80318Z" fill="white"/>
<path d="M2.15544 15.5239C2.15482 15.3757 2.1542 15.4822 2.15544 15.5239V15.5239Z" fill="white"/>
<path d="M15.8444 15.6395C15.8464 15.5989 15.8451 15.358 15.8444 15.6395V15.6395Z" fill="white"/>
<path d="M15.8369 15.3461C15.7698 11.1114 15.2167 9.90469 10.9845 9.14087C10.9845 9.14087 10.3888 9.90001 9.0002 9.90001C7.61163 9.90001 7.01577 9.14087 7.01577 9.14087C2.82975 9.89636 2.24305 11.0851 2.16591 15.2085C2.15958 15.5452 2.15665 15.5629 2.15552 15.5238C2.15577 15.5971 2.15608 15.7325 2.15608 15.9687C2.15608 15.9687 3.16367 18 9.0002 18C14.8366 18 15.8443 15.9687 15.8443 15.9687C15.8443 15.817 15.8444 15.7114 15.8446 15.6397C15.8434 15.6638 15.8412 15.617 15.8369 15.3461Z" fill="white"/>
</svg>
