<svg width="14" height="14" viewBox="0 0 14 14" fill="none" xmlns="http://www.w3.org/2000/svg">
<g clip-path="url(#clip0)">
<path d="M13.0945 7.76098C13.049 7.65194 12.9428 7.58079 12.825 7.58079H9.63004V0.291578C9.63004 0.130632 9.4994 0 9.33846 0H4.67334C4.5124 0 4.38176 0.130632 4.38176 0.291578V7.58082H1.17451C1.05673 7.58082 0.950585 7.65197 0.9051 7.76044C0.86019 7.86947 0.884681 7.99486 0.968079 8.07825L6.78489 13.9143C6.83969 13.9691 6.91377 14 6.99132 14C7.06887 14 7.14294 13.9691 7.19775 13.9149L13.0315 8.07883C13.1149 7.9954 13.1399 7.87005 13.0945 7.76098Z" fill="white"/>
</g>
<defs>
<clipPath id="clip0">
<rect width="14" height="14" fill="white"/>
</clipPath>
</defs>
</svg>
