<svg width="20" height="20" viewBox="0 0 20 20" fill="none" xmlns="http://www.w3.org/2000/svg">
<path d="M10.0048 20C10.5083 20 10.9359 19.6006 10.9359 19.1175V10.915H19.0784C19.5724 10.915 20 10.497 20 10.0046C20 9.50302 19.5724 9.09429 19.0784 9.09429H10.9359V0.88249C10.9359 0.399443 10.5083 0 10.0048 0C9.49169 0 9.07363 0.399443 9.07363 0.88249V9.09429H0.931116C0.437055 9.09429 0 9.50302 0 10.0046C0 10.497 0.437055 10.915 0.931116 10.915H9.07363V19.1175C9.07363 19.6006 9.49169 20 10.0048 20Z" fill="#007AFF"/>
</svg>
