<svg width="40" height="40" viewBox="0 0 40 40" fill="none" xmlns="http://www.w3.org/2000/svg">
<path d="M35.8847 12.5691C36.2319 12.5691 36.5693 12.5176 36.8968 12.441C36.3984 9.76393 36.0052 8.21511 36.0052 8.21511C35.0467 7.24791 33.6381 6.46036 32.1988 5.83929C31.7651 6.51951 31.5022 7.3224 31.5022 8.18882C31.5033 10.6041 33.4673 12.5691 35.8847 12.5691Z" fill="white" fill-opacity="0.25"/>
<path d="M3.1073 12.4399C3.43262 12.5165 3.76889 12.568 4.11831 12.568C6.53465 12.568 8.49971 10.603 8.49971 8.18662C8.49971 7.3202 8.23902 6.5195 7.80416 5.8371C6.36597 6.45926 4.95625 7.24572 3.99782 8.21291C3.99782 8.21401 3.60349 9.76283 3.1073 12.4399Z" fill="white" fill-opacity="0.25"/>
<path d="M35.8846 13.6645C32.8637 13.6645 30.4079 11.2087 30.4079 8.18772C30.4079 7.17561 30.7025 6.24018 31.1823 5.42634C28.7736 4.51172 26.5577 4.0703 26.5577 4.0703L26.5161 1.47322C24.5467 0.342818 22.4283 0.0832202 21.0054 0.0185945C20.5037 -0.00440781 19.4993 -0.00440781 18.9976 0.0185945C17.5748 0.0854109 15.4553 0.342818 13.4869 1.47322L13.4431 4.0703C13.4431 4.0703 11.2294 4.51282 8.81854 5.42743C9.2983 6.24128 9.59405 7.1778 9.59405 8.18881C9.59405 11.2098 7.13718 13.6656 4.1173 13.6656C3.70216 13.6656 3.30017 13.6097 2.91132 13.5221C1.9496 19.0098 0.76224 28.2085 1.19709 38.5158H1.69657V38.7896C1.69657 39.3953 2.22344 39.885 2.87408 39.885H5.63326C6.2839 39.885 6.81076 39.3953 6.81076 38.7896V38.5158H7.3201C7.3201 38.5158 6.79543 22.3309 9.59405 18.1839V33.3479V34.7105V38.3657C9.59405 38.3657 14.8419 39.8116 19.2145 40V2.562C19.2145 2.562 16.7653 2.70439 15.3227 2.1381C15.3227 2.1381 15.6294 1.11175 18.9965 1.149C19.4982 1.15447 20.5015 1.14133 21.0043 1.149C24.3397 1.20157 24.6781 2.1381 24.6781 2.1381C23.2366 2.70439 20.7863 2.562 20.7863 2.562V40C25.1601 39.8116 30.4079 38.3657 30.4079 38.3657V34.7105V33.349V18.1828C33.2065 22.3287 32.6818 38.5158 32.6818 38.5158H33.189V38.7896C33.189 39.3942 33.7148 39.885 34.3654 39.885H37.1257C37.7774 39.885 38.3043 39.3942 38.3043 38.7896V38.5158H38.8027C39.2364 28.2063 38.0491 19.0054 37.0906 13.521C36.7018 13.6086 36.2998 13.6645 35.8846 13.6645Z" fill="white" fill-opacity="0.25"/>
</svg>
