<svg width="40" height="40" viewBox="0 0 40 40" fill="none" xmlns="http://www.w3.org/2000/svg">
<g clip-path="url(#clip0)">
<path d="M7.13446 28.5721C7.13571 27.1889 6.14586 26.0036 4.78464 25.758C4.77034 25.758 4.76323 25.7509 4.74894 25.7509C4.00431 25.6229 3.23952 25.8005 2.62769 26.2438H2.62058C1.60722 26.9643 1.17624 28.2575 1.55473 29.4418C1.93321 30.6262 3.03422 31.4298 4.27765 31.4291C4.36123 31.4317 4.4449 31.4269 4.52763 31.4148H4.53474C4.96556 30.209 5.91447 29.2601 7.12024 28.8293C7.13212 28.7441 7.13688 28.658 7.13446 28.5721Z" fill="white" fill-opacity="0.25"/>
<path d="M8.56235 30.0006C8.37025 29.9966 8.17839 30.0158 7.99098 30.0577C7.97669 30.0648 7.95528 30.0648 7.94099 30.072H7.92669C7.9124 30.0791 7.89099 30.0791 7.8767 30.0863C6.8506 30.3446 6.04941 31.1458 5.79115 32.1719C5.78326 32.1849 5.77834 32.1995 5.77685 32.2148C5.76803 32.2376 5.76326 32.2617 5.76256 32.2862C5.72131 32.4737 5.70209 32.6655 5.70545 32.8575C5.70545 34.4354 6.98458 35.7144 8.56235 35.7144C8.83319 35.7161 9.10278 35.6775 9.36229 35.6001C9.5936 34.3879 10.3421 33.3368 11.4121 32.7218C11.3448 31.1977 10.0879 29.9976 8.56235 30.0006Z" fill="white" fill-opacity="0.25"/>
<path d="M4.70631 24.3082C5.36626 23.7445 5.73358 22.911 5.70444 22.0437C5.6753 21.1763 5.25268 20.3694 4.55632 19.8514C4.52023 19.8317 4.48664 19.8077 4.45633 19.78C3.84005 19.3473 3.073 19.1872 2.33509 19.3371C1.0312 19.5803 0.0661172 20.6887 0.00479377 22.0137C-0.0565297 23.3386 0.802077 24.5314 2.07792 24.8939C2.86465 24.4121 3.78943 24.206 4.70631 24.3082Z" fill="white" fill-opacity="0.25"/>
<path d="M7.43398 12.8233C7.57046 12.8497 7.70927 12.8617 7.84825 12.859C9.4261 12.859 10.7051 11.5799 10.7051 10.0022C10.7051 8.42431 9.42602 7.14526 7.84825 7.14526C6.2704 7.14526 4.99135 8.42438 4.99135 10.0022C4.98909 10.5742 5.16369 11.133 5.49132 11.602C6.23767 11.8254 6.90926 12.2475 7.43398 12.8233Z" fill="white" fill-opacity="0.25"/>
<path d="M2.42142 17.8801H2.43572C3.35033 17.7771 4.27315 17.9833 5.05692 18.4658C5.96427 18.2085 6.68617 17.52 6.98615 16.6258C7.28613 15.7317 7.12544 14.747 6.55681 13.9947C6.5497 13.9947 6.5497 13.9876 6.54251 13.9804C6.51486 13.9527 6.4908 13.9214 6.47111 13.8875C6.07106 13.4029 5.52048 13.0661 4.90693 12.9305C4.70101 12.8816 4.49001 12.8577 4.27839 12.8591C3.08285 12.8568 2.01286 13.6004 1.59812 14.7217C1.18339 15.843 1.51211 17.1039 2.42142 17.8801Z" fill="white" fill-opacity="0.25"/>
<path d="M37.4103 26.2794C37.3926 26.2634 37.3735 26.2491 37.3532 26.2365C37.3389 26.2294 37.3246 26.2151 37.3103 26.2079C36.6941 25.7752 35.927 25.6151 35.1891 25.7651C33.8306 26.0084 32.8428 27.1919 32.8464 28.572C32.8438 28.6555 32.8486 28.7392 32.8607 28.8219C34.0657 29.2578 35.0136 30.2084 35.4462 31.4146C35.5313 31.4265 35.6173 31.4313 35.7033 31.4289C36.9356 31.4299 38.0297 30.6407 38.4175 29.471C38.8053 28.3012 38.3993 27.0147 37.4103 26.2794Z" fill="white" fill-opacity="0.25"/>
<path d="M39.9938 22.0038C39.9288 20.6726 38.952 19.5631 37.6397 19.3301C37.6274 19.3312 37.615 19.3287 37.604 19.323C37.5961 19.3239 37.5883 19.3213 37.5826 19.3159C36.8439 19.1935 36.0871 19.3737 35.4828 19.8158C35.4632 19.8268 35.444 19.8386 35.4257 19.8515C34.7051 20.3941 34.2797 21.2423 34.2758 22.1442C34.277 22.977 34.6423 23.7676 35.2757 24.3084C36.1948 24.2054 37.1221 24.4115 37.9112 24.894C39.1945 24.5342 40.0587 23.335 39.9938 22.0038Z" fill="white" fill-opacity="0.25"/>
<path d="M33.4749 13.9304C33.4535 13.9518 33.4392 13.9732 33.4178 13.9947C33.0489 14.493 32.8487 15.096 32.8464 15.7159C32.8437 16.9974 33.6973 18.1228 34.932 18.4657C35.7187 17.984 36.6435 17.7779 37.5604 17.8801C38.4697 17.1039 38.7983 15.8429 38.3837 14.7216C37.969 13.6003 36.899 12.8567 35.7034 12.859C35.4946 12.8584 35.2863 12.88 35.0821 12.9232C35.0678 12.9304 35.0535 12.9304 35.0392 12.9375C34.4209 13.0834 33.87 13.4331 33.4749 13.9304Z" fill="white" fill-opacity="0.25"/>
<path d="M32.1329 12.859C32.2715 12.8604 32.4101 12.8509 32.5472 12.8304C33.0698 12.247 33.7452 11.8215 34.4971 11.6019C34.8204 11.1313 34.9922 10.5731 34.9899 10.0021C34.9899 8.42422 33.7108 7.14517 32.133 7.14517C30.5552 7.14517 29.2761 8.42429 29.2761 10.0021C29.276 11.5799 30.5552 12.859 32.1329 12.859Z" fill="white" fill-opacity="0.25"/>
<path d="M34.1907 32.1719C33.9324 31.1458 33.1312 30.3446 32.1051 30.0864C32.0623 30.0793 32.0265 30.065 31.9908 30.0578C31.8033 30.0165 31.6115 29.9973 31.4195 30.0007C29.8939 29.9976 28.637 31.1978 28.5697 32.7219C29.638 33.3388 30.3858 34.389 30.6195 35.6003C30.8791 35.6777 31.1486 35.7162 31.4195 35.7146C32.9973 35.7146 34.2764 34.4354 34.2764 32.8577C34.2804 32.6656 34.2612 32.4737 34.2193 32.2863C34.2121 32.2433 34.1978 32.2076 34.1907 32.1719Z" fill="white" fill-opacity="0.25"/>
<path d="M29.2553 36.1644V36.1287C29.241 36.043 29.2267 35.9573 29.2053 35.8716C29.2058 35.8325 29.1985 35.7936 29.1839 35.7573C29.1606 35.6505 29.1296 35.5455 29.091 35.443C29.0827 35.4245 29.0756 35.4054 29.0696 35.3859C29.0399 35.3048 29.0041 35.226 28.9625 35.1503C28.9011 35.0172 28.827 34.8904 28.7411 34.7717C28.6733 34.6723 28.5968 34.5791 28.5126 34.4931C28.4755 34.4428 28.4323 34.3972 28.384 34.3574C28.3411 34.3145 28.2911 34.2717 28.2483 34.236C28.1554 34.1646 28.0626 34.086 27.9626 34.0217C27.8626 33.9575 27.7412 33.8932 27.6269 33.8361H27.6198L27.5769 33.8147C27.5483 33.8004 27.5269 33.7933 27.4984 33.779C27.1566 33.6378 26.7897 33.5673 26.4198 33.5719C25.3059 33.5694 24.2928 34.2169 23.8271 35.2288C24.1242 35.8231 24.2783 36.4786 24.2771 37.143C24.2763 37.4846 24.2356 37.8251 24.1557 38.1572C24.6901 38.8697 25.5293 39.288 26.4198 39.2857C27.9977 39.2857 29.2767 38.0066 29.2767 36.4288C29.2756 36.3596 29.2708 36.2905 29.2624 36.2217C29.2636 36.2022 29.2612 36.1828 29.2553 36.1644Z" fill="white" fill-opacity="0.25"/>
<path d="M22.4555 35.7003L22.3912 35.5932C22.2814 35.4235 22.1546 35.2655 22.0126 35.1218C20.8953 34.0077 19.0873 34.0077 17.97 35.1218C17.8281 35.2656 17.7012 35.4236 17.5915 35.5932L17.5272 35.7003C17.268 36.1368 17.1323 36.6354 17.1343 37.143C17.1351 37.4259 17.1759 37.7073 17.2557 37.9787C17.5504 38.9377 18.3258 39.6724 19.2992 39.915C20.2727 40.1577 21.3022 39.8728 22.0125 39.1643C22.931 38.2477 23.1132 36.8259 22.4553 35.7075V35.7003H22.4555Z" fill="white" fill-opacity="0.25"/>
<path d="M13.5618 33.5718C13.192 33.5673 12.8251 33.6377 12.4833 33.7789C12.4547 33.7932 12.4333 33.8003 12.4047 33.8146L12.3618 33.836C11.4316 34.2618 10.8055 35.1586 10.7262 36.1787C10.7262 36.193 10.7191 36.2073 10.7191 36.2216C10.712 36.3073 10.7048 36.3645 10.7048 36.4287C10.7048 38.0065 11.984 39.2856 13.5617 39.2856C14.4522 39.2879 15.2915 38.8695 15.8259 38.1571C15.7459 37.8249 15.7052 37.4845 15.7045 37.1429C15.7033 36.4785 15.8574 35.823 16.1544 35.2287C15.6889 34.2168 14.6758 33.5693 13.5618 33.5718Z" fill="white" fill-opacity="0.25"/>
<path d="M14.2765 0.002905C13.2311 0.000795787 12.2683 0.570987 11.7677 1.48881C11.2672 2.40663 11.309 3.52475 11.8767 4.40257L10.0983 6.35953C10.5085 6.6106 10.8731 6.92933 11.1768 7.30235L12.9338 5.36671C13.981 5.92831 15.2667 5.78161 16.1605 4.99838C17.0541 4.21516 17.3684 2.95987 16.9492 1.84792C16.5298 0.73613 15.4649 0.000873906 14.2765 0.002905ZM14.2765 4.28828C13.9139 4.28906 13.5653 4.14814 13.3052 3.89542H13.2981L13.291 3.88831C13.008 3.62115 12.8477 3.24906 12.8481 2.8598C12.8481 2.07087 13.4877 1.43131 14.2766 1.43131C15.0655 1.43131 15.7051 2.07087 15.7051 2.8598C15.705 3.64872 15.0655 4.28828 14.2765 4.28828Z" fill="white" fill-opacity="0.25"/>
<path d="M24.2764 2.85982C24.2759 2.2826 24.6228 1.76185 25.1557 1.54C25.6885 1.31814 26.3026 1.43868 26.7119 1.8456V1.85271H26.719C26.9891 2.12433 27.1384 2.49344 27.133 2.87653C27.1276 3.25963 26.9681 3.62437 26.6904 3.88833L26.6833 3.89544H26.6762C26.4161 4.14808 26.0675 4.28908 25.7049 4.2883C25.3104 4.2883 24.9906 4.60804 24.9906 5.00254C24.9906 5.39705 25.3104 5.71679 25.7049 5.71679C26.1744 5.71273 26.6358 5.5925 27.0477 5.36681L28.8046 7.30237C29.1083 6.92943 29.4729 6.61063 29.8831 6.35955L28.1047 4.40259C28.6956 3.50032 28.715 2.33869 28.1547 1.41711L28.3547 1.22424C28.5358 1.04308 28.6066 0.779038 28.5403 0.531557C28.4739 0.284076 28.2807 0.090731 28.0332 0.024486C27.7857 -0.0418371 27.5217 0.0289388 27.3405 0.210097L27.1476 0.410082C26.2686 -0.120034 25.1716 -0.133627 24.2797 0.374616C23.3877 0.88278 22.8402 1.83341 22.848 2.8599C22.848 3.25432 23.1677 3.57414 23.5622 3.57414C23.9567 3.57414 24.2764 3.25432 24.2764 2.85982Z" fill="white" fill-opacity="0.25"/>
</g>
<defs>
<clipPath id="clip0">
<rect width="40" height="40" fill="white"/>
</clipPath>
</defs>
</svg>
