<svg width="40" height="40" viewBox="0 0 40 40" fill="none" xmlns="http://www.w3.org/2000/svg">
<path d="M5.95715 7.56958C6.60443 7.56958 7.12903 7.04468 7.12903 6.3974C7.12903 4.16534 8.95947 2.34924 11.2092 2.34924C13.459 2.34924 15.2894 4.16534 15.2894 6.3974C15.2894 8.62946 13.459 10.4453 11.2092 10.4453C11.204 10.4453 11.1992 10.4453 11.194 10.4453C9.16699 10.4535 7.52026 12.0984 7.52026 14.1193C7.52026 15.0848 7.89624 15.9647 8.50995 16.6211C7.89624 17.2775 7.52026 18.1573 7.52026 19.1229C7.52026 21.149 9.17493 22.7969 11.2092 22.7969C13.2432 22.7969 14.8982 21.149 14.8982 19.1229C14.8982 18.1573 14.5222 17.2775 13.9085 16.6211C14.5222 15.9647 14.8982 15.0848 14.8982 14.1193C14.8982 13.3441 14.6559 12.6242 14.2427 12.0309C16.2593 10.9515 17.6332 8.83087 17.6332 6.3974C17.6332 2.87262 14.7514 0.00518799 11.2092 0.00518799C7.66705 0.00518799 4.78528 2.87262 4.78528 6.3974C4.78528 7.04468 5.30988 7.56958 5.95715 7.56958Z" fill="white" fill-opacity="0.25"/>
<path d="M14.2412 23.9514C13.446 24.6893 12.3797 25.1412 11.2096 25.1412C10.0396 25.1412 8.9733 24.6893 8.17801 23.9514L3.85519 31.4224C3.41391 32.1856 3.54269 33.1527 4.16861 33.774L9.89157 39.4586C10.255 39.8196 10.7323 40.0002 11.2096 39.9999C11.6869 39.9999 12.1642 39.8196 12.5274 39.4586L18.2503 33.774C18.8766 33.1524 19.0053 32.1853 18.5637 31.4224L14.2412 23.9514Z" fill="white" fill-opacity="0.25"/>
<path d="M23.5393 7.56439C24.1863 7.56439 24.7112 7.03949 24.7112 6.39221C24.7112 4.16016 26.5413 2.34436 28.7911 2.34436C31.0411 2.34436 32.8713 4.16016 32.8713 6.39221C32.8713 8.62427 31.0411 10.4404 28.7911 10.4404C28.7862 10.4404 28.781 10.4404 28.7761 10.4404C26.7488 10.4486 25.1021 12.0935 25.1021 14.1141C25.1021 15.08 25.4781 15.9598 26.0921 16.6162C25.4781 17.2726 25.1021 18.1525 25.1021 19.118C25.1021 21.1438 26.7571 22.7921 28.7911 22.7921C30.8254 22.7921 32.4803 21.1438 32.4803 19.118C32.4803 18.1525 32.1044 17.2726 31.4904 16.6162C32.1044 15.9598 32.4803 15.08 32.4803 14.1141C32.4803 13.3389 32.238 12.619 31.8248 12.0258C33.8414 10.9464 35.2153 8.82599 35.2153 6.39221C35.2153 2.86743 32.3336 0 28.7914 0C25.2492 0 22.3674 2.86743 22.3674 6.39221C22.3674 7.03949 22.892 7.56439 23.5393 7.56439Z" fill="white" fill-opacity="0.25"/>
<path d="M36.1463 31.4172L31.8238 23.9462C31.0285 24.6841 29.9622 25.136 28.7921 25.136C27.6218 25.136 26.5558 24.6841 25.7605 23.9462L21.4377 31.4172C20.9961 32.1804 21.1252 33.1475 21.7511 33.7689L27.4741 39.4534C27.8376 39.8144 28.3149 39.9951 28.7921 39.9948C29.2694 39.9948 29.7467 39.8144 30.1099 39.4534L35.8329 33.7689C36.4591 33.1472 36.5879 32.1801 36.1463 31.4172Z" fill="white" fill-opacity="0.25"/>
</svg>
