<svg width="40" height="40" viewBox="0 0 40 40" fill="none" xmlns="http://www.w3.org/2000/svg">
<g clip-path="url(#clip0)">
<path d="M28.8467 7.30768V10.1518L33.4621 13.2287V7.30768H28.8467Z" fill="white" fill-opacity="0.25"/>
<path d="M32.3074 0H7.69204C7.05477 0 6.53821 0.516641 6.53821 1.15383V5H33.4613V1.15383C33.4613 0.516641 32.9446 0 32.3074 0Z" fill="white" fill-opacity="0.25"/>
<path d="M6.53894 7.30768V13.2287L11.1543 10.1518V7.30768H6.53894Z" fill="white" fill-opacity="0.25"/>
<path d="M27.052 11.7292C26.731 11.5153 26.5382 11.155 26.5382 10.7692V7.30768H13.4613V10.7692C13.4613 11.1551 13.2685 11.5153 12.9474 11.7292L6.53821 16.002V38.8461C6.53821 39.4834 7.05485 39.9999 7.69204 39.9999H15.3844C15.9358 39.9999 16.4101 39.6098 16.5166 39.0688L19.9997 21.3624L23.4829 39.069C23.5894 39.61 24.0637 40.0001 24.6151 40.0001H32.3074C32.9447 40.0001 33.4613 39.4834 33.4613 38.8462V16.0022L27.052 11.7292Z" fill="white" fill-opacity="0.25"/>
</g>
<defs>
<clipPath id="clip0">
<rect width="40" height="40" fill="white"/>
</clipPath>
</defs>
</svg>
