<svg width="40" height="40" viewBox="0 0 40 40" fill="none" xmlns="http://www.w3.org/2000/svg">
<g clip-path="url(#clip0)">
<path d="M33.6533 12.5902C32.9307 12.2637 32.192 11.9738 31.44 11.7219C31.3525 10.8012 31.204 9.88721 30.9956 8.98608C29.875 4.31421 27.1162 3.33337 25 3.33337C22.7265 3.33337 21.0704 4.46712 20 5.56483C18.9296 4.46712 17.2735 3.33337 15 3.33337C12.8837 3.33337 10.125 4.31421 9.00437 8.98608C8.79599 9.88721 8.64754 10.8012 8.56 11.7219C7.80805 11.9738 7.06932 12.2637 6.34667 12.5902C2.25396 14.4505 0 17.0821 0 20C0 22.918 2.25396 25.5496 6.34667 27.4098C10.0208 29.08 14.8702 30 20 30C25.1298 30 29.9792 29.08 33.6533 27.4098C37.746 25.5496 40 22.918 40 20C40 17.0821 37.746 14.4505 33.6533 12.5902ZM31.1785 19.9286C28.8715 22.2357 23.9185 23.2021 19.5448 23.2021C19.0308 23.2021 18.524 23.1888 18.0321 23.1625C15.4533 23.0261 10.8125 22.4075 8.70375 19.7975C8.4641 19.501 8.33336 19.1313 8.33333 18.75C8.33333 17.7213 8.33333 16.6821 8.35188 15.6557C8.39433 15.9519 8.51589 16.2312 8.70375 16.4642C10.8125 19.0742 15.4537 19.6934 18.0321 19.8292C18.5248 19.8555 19.0308 19.8688 19.5448 19.8688C23.9185 19.8688 28.8715 18.9023 31.1785 16.5952C31.4332 16.3398 31.598 16.0085 31.6481 15.6513C31.6667 16.6792 31.6667 17.7198 31.6667 18.75C31.6667 18.9689 31.6236 19.1856 31.5398 19.3879C31.4561 19.5901 31.3333 19.7738 31.1785 19.9286Z" fill="white" fill-opacity="0.25"/>
</g>
<defs>
<clipPath id="clip0">
<rect width="40" height="40" fill="white"/>
</clipPath>
</defs>
</svg>
