<svg width="40" height="40" viewBox="0 0 40 40" fill="none" xmlns="http://www.w3.org/2000/svg">
<path d="M20 3.67188C8.97186 3.67188 0 10.2512 0 18.3386V21.6718C0 27.0718 4.01398 32.0132 10.4745 34.5718C10.6393 34.6374 10.8231 34.6347 10.9857 34.5645C11.1484 34.494 11.2762 34.3619 11.3412 34.1971C11.358 34.1553 11.3812 34.0832 11.4081 33.9886C11.7026 35.3409 12.8818 36.3181 14.2651 36.3562C15.6488 36.3943 16.8802 35.484 17.2488 34.1498C17.6178 32.8159 17.0291 31.4023 15.8224 30.7242C14.6158 30.0464 13.1021 30.2789 12.1545 31.2878C12.1707 31.2344 12.1848 31.1877 12.1945 31.1591C12.3163 30.8121 12.1338 30.4318 11.7868 30.3098C6.10474 28.3151 2.26654 24.4717 1.48682 20.0012C2.65198 13.3453 10.5814 8.33862 20 8.33862C29.4186 8.33862 37.3459 13.3432 38.5141 20.0052C37.7359 24.4717 33.8968 28.3166 28.2126 30.3119C27.8656 30.434 27.6831 30.8139 27.8046 31.1612C27.8128 31.1859 27.8265 31.2326 27.8433 31.2885C26.8985 30.2887 25.3937 30.0613 24.1956 30.7373C22.9974 31.4133 22.4136 32.8186 22.7808 34.1446C23.1479 35.4703 24.371 36.3757 25.7462 36.3391C27.1216 36.3028 28.295 35.3339 28.5913 33.9905C28.62 34.0851 28.6441 34.158 28.6581 34.1992C28.7585 34.4534 29.0045 34.6207 29.278 34.6207C29.3619 34.6204 29.4452 34.6045 29.5233 34.574C35.986 32.0132 40 27.0718 40 21.6718V18.3386C40 10.2512 31.0281 3.67188 20 3.67188ZM13.3334 32.6718C13.7015 32.6718 13.9999 32.9703 13.9999 33.3386C13.9999 33.5226 14.1492 33.6719 14.3332 33.6719C14.7015 33.6719 15 33.9703 15 34.3387C15 34.7067 14.7015 35.0052 14.3332 35.0052C13.4128 35.0052 12.6666 34.259 12.6666 33.3386C12.6666 32.9703 12.9651 32.6718 13.3334 32.6718ZM25.6668 35.0052C24.7461 35.0052 23.9999 34.259 23.9999 33.3386C23.9999 32.9703 24.2984 32.6718 24.6667 32.6718C25.0348 32.6718 25.3333 32.9703 25.3333 33.3386C25.3333 33.5226 25.4825 33.6719 25.6668 33.6719C26.0349 33.6719 26.3333 33.9703 26.3333 34.3387C26.3333 34.7067 26.0349 35.0052 25.6668 35.0052Z" fill="white" fill-opacity="0.25"/>
</svg>
