<svg width="81" height="81" viewBox="0 0 81 81" fill="none" xmlns="http://www.w3.org/2000/svg">
<path d="M49.1133 6.01971C48.7568 5.86355 48.3923 5.72499 48.0212 5.60454C47.978 5.1643 47.9048 4.72732 47.802 4.29647C47.249 2.06273 45.8878 1.59377 44.8436 1.59377C43.7217 1.59377 42.9046 2.13584 42.3764 2.66068C41.8483 2.13584 41.0311 1.59377 39.9093 1.59377C38.8651 1.59377 37.5039 2.06273 36.9509 4.29647C36.8481 4.72732 36.7748 5.1643 36.7317 5.60454C36.3606 5.72499 35.9961 5.86355 35.6395 6.01971C33.6201 6.90912 32.5079 8.16739 32.5079 9.56251C32.5079 10.9576 33.6201 12.2159 35.6395 13.1053C37.4525 13.9039 39.8453 14.3438 42.3764 14.3438C44.9076 14.3438 47.3004 13.9039 49.1133 13.1053C51.1328 12.2159 52.2449 10.9576 52.2449 9.56251C52.2449 8.16739 51.1328 6.90912 49.1133 6.01971ZM47.8922 9.52835C46.7538 10.6314 44.3099 11.0935 42.1518 11.0935C41.8982 11.0935 41.6481 11.0871 41.4054 11.0746C40.133 11.0093 37.8431 10.7136 36.8026 9.46569C36.6843 9.32392 36.6198 9.14715 36.6198 8.96486C36.6198 8.47299 36.6198 7.97614 36.629 7.48536C36.6499 7.62701 36.7099 7.76056 36.8026 7.87194C37.8431 9.11985 40.1332 9.41589 41.4054 9.48084C41.6485 9.49339 41.8982 9.49976 42.1518 9.49976C44.3099 9.49976 46.7538 9.03767 47.8922 7.9346C48.0179 7.81244 48.0992 7.65406 48.1239 7.48327C48.1331 7.97474 48.1331 8.47229 48.1331 8.96486C48.1331 9.06951 48.1118 9.17313 48.0705 9.26982C48.0291 9.3665 47.9686 9.45435 47.8922 9.52835Z" fill="white" fill-opacity="0.25"/>
<g clip-path="url(#clip0)">
<path d="M56.7887 25.6482C57.091 25.6482 57.3848 25.6077 57.67 25.5473C57.236 23.4391 56.8936 22.2194 56.8936 22.2194C56.0591 21.4577 54.8325 20.8375 53.5793 20.3484C53.2016 20.8841 52.9727 21.5164 52.9727 22.1987C52.9736 24.1007 54.6837 25.6482 56.7887 25.6482Z" fill="white" fill-opacity="0.25"/>
<path d="M28.2479 25.5464C28.5312 25.6068 28.824 25.6473 29.1283 25.6473C31.2323 25.6473 32.9434 24.0998 32.9434 22.197C32.9434 21.5147 32.7164 20.8841 32.3377 20.3467C31.0854 20.8367 29.8579 21.456 29.0233 22.2177C29.0233 22.2185 28.68 23.4382 28.2479 25.5464Z" fill="white" fill-opacity="0.25"/>
<path d="M56.7887 26.5108C54.1582 26.5108 52.0199 24.5769 52.0199 22.1978C52.0199 21.4008 52.2764 20.6642 52.6942 20.0233C50.5968 19.303 48.6673 18.9554 48.6673 18.9554L48.6311 16.9102C46.9162 16.02 45.0716 15.8155 43.8326 15.7647C43.3958 15.7465 42.5212 15.7465 42.0844 15.7647C40.8454 15.8173 38.9999 16.02 37.2859 16.9102L37.2478 18.9554C37.2478 18.9554 35.3202 19.3039 33.2209 20.0241C33.6387 20.665 33.8962 21.4025 33.8962 22.1987C33.8962 24.5777 31.7569 26.5116 29.1273 26.5116C28.7658 26.5116 28.4158 26.4676 28.0772 26.3986C27.2398 30.7202 26.2059 37.9642 26.5846 46.0812H27.0195V46.2968C27.0195 46.7738 27.4782 47.1594 28.0448 47.1594H30.4473C31.0139 47.1594 31.4727 46.7738 31.4727 46.2968V46.0812H31.9162C31.9162 46.0812 31.4593 33.3356 33.8962 30.0698V42.0115V43.0845V45.963C33.8962 45.963 38.4657 47.1016 42.2732 47.25V17.7676C42.2732 17.7676 40.1406 17.8797 38.8845 17.4338C38.8845 17.4338 39.1515 16.6255 42.0834 16.6548C42.5202 16.6592 43.3939 16.6488 43.8317 16.6548C46.7359 16.6962 47.0307 17.4338 47.0307 17.4338C45.7755 17.8797 43.6419 17.7676 43.6419 17.7676V47.25C47.4503 47.1016 52.0199 45.963 52.0199 45.963V43.0845V42.0124V30.069C54.4568 33.3339 53.9999 46.0812 53.9999 46.0812H54.4415V46.2968C54.4415 46.773 54.8993 47.1594 55.4659 47.1594H57.8694C58.4369 47.1594 58.8956 46.773 58.8956 46.2968V46.0812H59.3296C59.7073 37.9625 58.6734 30.7168 57.8388 26.3978C57.5003 26.4668 57.1502 26.5108 56.7887 26.5108Z" fill="white" fill-opacity="0.25"/>
</g>
<path d="M49.3092 50.0408V52.4406L52.9262 55.0367V50.0408H49.3092Z" fill="white" fill-opacity="0.25"/>
<path d="M31.8273 50.0408V55.0367L35.4442 52.4406V50.0408H31.8273Z" fill="white" fill-opacity="0.25"/>
<path d="M48.0035 52.6057C47.752 52.4251 47.6009 52.1212 47.6009 51.7957V48.875H37.3528V51.7957C37.3528 52.1213 37.2017 52.4252 36.9501 52.6057L31.9274 56.2109V75.4855C31.9274 76.0232 32.3322 76.4591 32.8316 76.4591H38.8599C39.292 76.4591 39.6637 76.1299 39.7472 75.6735L42.4768 60.7337L45.2065 75.6736C45.2899 76.1301 45.6616 76.4592 46.0938 76.4592H52.1221C52.6215 76.4592 53.0263 76.0233 53.0263 75.4857V56.211L48.0035 52.6057Z" fill="white" fill-opacity="0.25"/>
<defs>
<clipPath id="clip0">
<rect width="81" height="32.8696" fill="white" transform="translate(0 16.4348)"/>
</clipPath>
</defs>
</svg>
