<svg width="40" height="40" viewBox="0 0 40 40" fill="none" xmlns="http://www.w3.org/2000/svg">
<g clip-path="url(#clip0)">
<path d="M20.0009 5.96551C21.7336 5.96551 23.2302 4.86077 23.7678 3.2356C22.7421 3.51794 21.4347 3.68835 20.0009 3.68835C18.5673 3.68835 17.2599 3.51794 16.2344 3.2356C16.7717 4.86063 18.2682 5.96551 20.0009 5.96551Z" fill="white" fill-opacity="0.25"/>
<path d="M39.9503 7.96396C39.868 7.73305 39.6967 7.54315 39.4737 7.43974L31.8475 3.91924C30.2254 3.36971 28.5727 2.93564 26.904 2.61837C26.8452 2.60687 26.7867 2.60132 26.7291 2.60132C26.316 2.60132 25.9461 2.8865 25.854 3.30474C25.2447 5.98742 22.8699 7.9959 19.9999 7.9959C17.1301 7.9959 14.7552 5.98755 14.146 3.30474C14.0528 2.8865 13.6836 2.60132 13.2708 2.60132C13.2131 2.60132 13.1546 2.60687 13.0959 2.61837C11.4273 2.93564 9.77463 3.36971 8.14987 3.91924L0.526444 7.43961C0.302031 7.54302 0.129592 7.73291 0.0512235 7.96382C-0.0298523 8.19744 -0.0152343 8.4496 0.0990027 8.66996L3.40971 15.2037C3.56469 15.5138 3.87992 15.6999 4.21343 15.6999C4.29951 15.6999 4.38682 15.6874 4.4729 15.6616L8.15 14.5717V36.4946C8.15 36.9925 8.55619 37.3985 9.05537 37.3985H30.9449C31.4427 37.3985 31.8477 36.9923 31.8477 36.4946V14.572L35.5274 15.6618C35.6134 15.6877 35.7006 15.7001 35.7866 15.7001C36.1194 15.7001 36.4334 15.514 36.5905 15.2039L39.9025 8.67023C40.014 8.44974 40.03 8.19758 39.9503 7.96396Z" fill="white" fill-opacity="0.25"/>
</g>
<defs>
<clipPath id="clip0">
<rect width="40" height="40" fill="white"/>
</clipPath>
</defs>
</svg>
