<svg width="24" height="24" viewBox="0 0 24 24" fill="none" xmlns="http://www.w3.org/2000/svg">
<path d="M20.387 8.97354L20.3509 8.92456L20.3437 8.91021L17.0573 4.03156L13.7708 8.91026L13.764 8.92395L13.7275 8.97359C13.2001 9.68778 12.9214 10.5363 12.9214 11.4274C12.9214 13.708 14.7767 15.5632 17.0572 15.5632C19.3377 15.5632 21.1931 13.7079 21.1931 11.4274C21.1932 10.5362 20.9144 9.68764 20.387 8.97354Z" fill="white"/>
<path d="M17.0575 16.9724C13.9999 16.9724 11.5125 14.4849 11.5125 11.4274C11.5125 10.2388 11.8828 9.10628 12.5834 8.15106L14.7438 4.94392L11.4133 0L4.47417 10.3009C3.38316 11.7857 2.80664 13.546 2.80664 15.3933C2.80664 20.139 6.6676 24 11.4134 24C15.9101 24 19.6118 20.5335 19.988 16.1326C19.1372 16.6645 18.1327 16.9724 17.0575 16.9724Z" fill="white"/>
</svg>
