<svg width="40" height="40" viewBox="0 0 40 40" fill="none" xmlns="http://www.w3.org/2000/svg">
<g clip-path="url(#clip0)">
<path fill-rule="evenodd" clip-rule="evenodd" d="M0.459646 34.7083L4.11456 39.0349C4.11456 39.0349 5.40452 40.86 6.33198 39.4915C7.25944 38.1263 12.8195 26.8555 12.8195 26.8555C12.8195 26.8555 13.3766 25.9359 13.7673 27.579C14.1581 29.222 17.3673 37.1721 17.3673 37.1721C17.3673 37.1721 17.8522 37.8422 18.4345 37.3479C19.0182 36.8583 21.3534 34.8888 21.3534 34.8888C21.3534 34.8888 22.1412 34.6393 21.3251 33.0825C20.8289 32.1349 19.5305 29.1464 18.5863 26.9432C19.0306 26.5838 19.6769 26.0522 20.5467 25.316C21.4281 24.5728 21.6546 23.6225 21.6462 22.8224C23.0869 24.0255 25.5228 25.85 28.8217 26.6656C33.244 27.7626 37.1155 27.9101 37.1155 27.9101C37.1155 27.9101 38.0633 27.9446 38.1967 26.3267C38.3348 24.7165 38.2548 22.4505 38.2548 22.4505C38.2548 22.4505 38.3458 21.3708 37.3964 21.3394C37.1515 21.3309 36.8624 21.3487 36.5332 21.369H36.5332C35.5903 21.4273 34.3188 21.5058 32.8171 21.0428C30.7912 20.4214 26.2135 17.0725 26.2135 17.0725C26.2135 17.0725 25.4791 16.4965 26.1601 15.919C26.8412 15.3447 31.6072 11.3241 31.6072 11.3241C31.6072 11.3241 32.4248 10.7136 31.932 10.1299L31.1945 9.25576L39.8508 1.94594L38.2061 0L32.8569 4.51521C32.0586 3.56914 30.2161 1.38604 29.8205 0.919618C29.312 0.317005 27.8337 -0.21342 27.6533 1.90043C27.509 3.63492 27.3528 5.79656 27.2749 6.89576C25.8683 8.06437 21.5511 11.6442 21.5511 11.6442C21.5511 11.6442 19.9771 9.97921 18.8111 10.9632C17.6451 11.9471 10.5471 17.945 10.5471 17.945C10.5471 17.945 10.238 18.3703 10.4812 19.2475C10.5473 19.4884 10.6286 19.7098 10.7028 19.9121C10.8999 20.4491 11.0472 20.8507 10.7292 21.1197C10.2929 21.4869 8.00643 23.4187 8.00643 23.4187C8.00643 23.4187 7.36772 24.0417 7.44776 25.225C7.52936 26.4051 6.87653 27.7014 5.61324 28.7716C4.35152 29.8388 0.709165 32.8298 0.709165 32.8298C0.709165 32.8298 -0.359531 33.7353 0.459646 34.7083ZM19.9012 21.5354C19.3661 21.4024 19.1579 21.8322 19.1579 21.8322C19.1579 21.8322 18.3403 22.4426 17.7079 22.9746C17.0739 23.5082 17.5117 24.4184 17.5117 24.4184C17.5117 24.4184 17.6541 24.7561 17.8854 25.3004L19.0276 24.3368C19.5918 23.8608 20.1403 22.8634 19.9012 21.5354ZM30.0684 4.96842C30.3295 5.27461 30.7225 5.73728 31.0092 6.07487L29.6982 7.18146C29.6451 6.73022 29.5565 6.08292 29.447 5.67775C29.2179 4.83974 29.6149 4.42858 30.0684 4.96842Z" fill="white" fill-opacity="0.25"/>
</g>
<defs>
<clipPath id="clip0">
<rect width="40" height="40" fill="white"/>
</clipPath>
</defs>
</svg>
