<svg width="50" height="50" viewBox="0 0 50 50" fill="none" xmlns="http://www.w3.org/2000/svg">
<g clip-path="url(#clip0)">
<path d="M26.8323 25.0164L34.6199 17.2285C35.1267 16.722 35.1267 15.9029 34.6199 15.3963C34.1134 14.8898 33.2943 14.8898 32.7878 15.3963L24.9999 23.1842L17.2123 15.3963C16.7055 14.8898 15.8867 14.8898 15.3801 15.3963C14.8733 15.9029 14.8733 16.722 15.3801 17.2285L23.1677 25.0164L15.3801 32.8042C14.8733 33.3108 14.8733 34.1298 15.3801 34.6364C15.6326 34.8891 15.9645 35.016 16.2962 35.016C16.6279 35.016 16.9596 34.8891 17.2123 34.6364L24.9999 26.8486L32.7878 34.6364C33.0404 34.8891 33.3721 35.016 33.7038 35.016C34.0355 35.016 34.3672 34.8891 34.6199 34.6364C35.1267 34.1298 35.1267 33.3108 34.6199 32.8042L26.8323 25.0164Z" fill="white"/>
</g>
<defs>
<clipPath id="clip0">
<rect width="20" height="20" fill="white" transform="translate(15 15)"/>
</clipPath>
</defs>
</svg>
