<svg width="22" height="24" viewBox="0 0 22 24" fill="none" xmlns="http://www.w3.org/2000/svg">
<path d="M20.1579 11.3718V9.15763C20.1579 4.10124 16.0565 0 11.0001 0C5.94299 0 1.84253 4.10124 1.84253 9.15768V11.3726C0.871665 12.1371 0.240234 13.2928 0.240234 14.6046C0.240234 16.9093 2.15861 18.7786 4.52458 18.7786V23.3917C4.52458 23.7275 4.79704 24 5.13408 24H5.83082C6.16762 24 6.44003 23.7276 6.44003 23.3917V21.2206C6.44003 20.8837 6.71244 20.6112 7.04825 20.6112H7.3446C7.68164 20.6112 7.95415 20.8837 7.95415 21.2206V23.3917C7.95415 23.7275 8.22626 24 8.56232 24H9.63459C9.97172 24 10.2441 23.7276 10.2441 23.3917V21.2206C10.2441 20.8837 10.5163 20.6112 10.8524 20.6112H11.1488C11.4855 20.6112 11.758 20.8837 11.758 21.2206V23.3917C11.758 23.7275 12.0304 24 12.3665 24H13.4387C13.7755 24 14.0479 23.7276 14.0479 23.3917V21.2206C14.0479 20.8837 14.3204 20.6112 14.6565 20.6112H14.9529C15.2897 20.6112 15.562 20.8837 15.562 21.2206V23.3917C15.562 23.7275 15.8345 24 16.1706 24H16.8663C17.2032 24 17.4755 23.7276 17.4755 23.3917V18.7786C19.8416 18.7786 21.7603 16.9093 21.7603 14.6046C21.7603 13.2928 21.1278 12.1371 20.1579 11.3718ZM6.74059 14.7714C5.2792 14.7714 4.09702 13.5875 4.09702 12.1282C4.09702 11.1349 4.65016 10.2805 5.45917 9.82901L9.34509 12.5036C9.1609 13.784 8.07106 14.7714 6.74059 14.7714ZM11.0001 18.1397C10.2125 18.1397 9.5752 17.4998 9.5752 16.7155C9.5752 15.9289 10.2126 14.2299 11.0001 14.2299C11.7877 14.2299 12.4243 15.9289 12.4243 16.7155C12.4243 17.4998 11.7877 18.1397 11.0001 18.1397ZM15.2599 14.7714C13.9293 14.7714 12.8396 13.7833 12.6564 12.5028L16.5413 9.8297C17.3502 10.2813 17.9035 11.1349 17.9035 12.1281C17.9035 13.5875 16.7213 14.7714 15.2599 14.7714Z" fill="white"/>
</svg>
