<svg width="24" height="24" viewBox="0 0 24 24" fill="none" xmlns="http://www.w3.org/2000/svg">
<g clip-path="url(#clip0)">
<path d="M12.0007 3.05957C11.7655 3.23836 8.54037 5.63785 4.40416 6.46605C3.85889 16.0108 11.9956 20.9524 12.0007 20.9495C12.0059 20.9524 20.1426 16.0109 19.5973 6.4658C15.4609 5.63785 12.0007 3.05957 12.0007 3.05957Z" fill="#DCFF00"/>
<path d="M22.2865 4.92819C22.27 4.63833 22.0596 4.39627 21.7748 4.33902C16.7308 3.32939 12.4243 0.157993 12.3818 0.126331C12.154 -0.0434569 11.8412 -0.0420913 11.6147 0.130377C11.4449 0.259552 7.39734 3.30436 2.22652 4.33932C1.94161 4.39632 1.73131 4.63864 1.71462 4.92855C1.30029 12.1815 4.70329 17.399 7.63116 20.4985C8.7299 21.6621 9.76092 22.5221 10.4324 23.0386C10.8177 23.3347 11.1288 23.5522 11.3218 23.6826C11.6823 23.9263 11.786 23.9961 11.9849 23.9997C11.9932 24 12.0013 24 12.0092 24C12.2055 24 12.3239 23.9209 12.6361 23.7116C12.8052 23.5982 13.079 23.4092 13.4202 23.151C14.0147 22.7023 14.9338 21.9554 15.9379 20.9444C17.8245 19.0452 19.3265 16.9305 20.4014 14.6594C21.8468 11.6065 22.4811 8.3325 22.2865 4.92819ZM16.6991 18.1764C14.7623 20.6052 12.7606 22.0847 12.0006 22.6015C11.2409 22.0847 9.23916 20.6055 7.30155 18.1753C4.27065 14.3737 2.81337 10.1068 2.96641 5.48576C7.33214 4.4998 10.8636 2.21917 12.004 1.42192C13.1597 2.21801 16.752 4.51361 21.0348 5.4854C21.1879 10.1071 19.7307 14.3746 16.6991 18.1764Z" fill="#DCFF00"/>
</g>
<defs>
<clipPath id="clip0">
<rect width="24" height="24" fill="white"/>
</clipPath>
</defs>
</svg>
