<svg width="24" height="24" viewBox="0 0 24 24" fill="none" xmlns="http://www.w3.org/2000/svg">
<g clip-path="url(#clip0)">
<path d="M12.0003 8.72754C10.1948 8.72754 8.72754 10.1948 8.72754 12.0003C8.72754 13.8057 10.1948 15.273 12.0003 15.273C13.8057 15.273 15.273 13.8057 15.273 12.0003C15.273 10.1948 13.8057 8.72754 12.0003 8.72754Z" fill="#DCFF00"/>
<path d="M12 3.81836C6.54546 3.81836 1.88729 7.21105 0 12.0002C1.88729 16.7893 6.54546 20.182 12 20.182C17.46 20.182 22.1128 16.7893 24.0001 12.0002C22.1128 7.21105 17.46 3.81836 12 3.81836ZM12 17.4547C8.98911 17.4547 6.54546 15.011 6.54546 12.0001C6.54546 8.98922 8.98911 6.54562 12 6.54562C15.0109 6.54562 17.4546 8.98927 17.4546 12.0002C17.4546 15.0111 15.0109 17.4547 12 17.4547Z" fill="#DCFF00"/>
</g>
<defs>
<clipPath id="clip0">
<rect width="24" height="24" fill="white"/>
</clipPath>
</defs>
</svg>
