<svg width="54" height="54" viewBox="0 0 54 54" fill="none" xmlns="http://www.w3.org/2000/svg">
<path d="M29.625 18.25H19.125C18.642 18.25 18.25 18.642 18.25 19.125C18.25 19.608 18.642 20 19.125 20H29.625C30.108 20 30.5 19.608 30.5 19.125C30.5 18.642 30.108 18.25 29.625 18.25Z" fill="#DCFF00"/>
<path d="M26.125 21.75H19.125C18.642 21.75 18.25 22.142 18.25 22.625C18.25 23.108 18.642 23.5 19.125 23.5H26.125C26.608 23.5 27 23.108 27 22.625C27 22.142 26.608 21.75 26.125 21.75Z" fill="#DCFF00"/>
<path d="M32.25 13H16.5C14.5697 13 13 14.5697 13 16.5V34C13 34.3395 13.196 34.6493 13.504 34.7927C13.6212 34.847 13.749 34.875 13.875 34.875C14.0762 34.875 14.2758 34.805 14.435 34.672L19.4418 30.5H32.25C34.1803 30.5 35.75 28.9303 35.75 27V16.5C35.75 14.5697 34.1803 13 32.25 13ZM34 27C34 27.9642 33.216 28.75 32.25 28.75H19.125C18.9202 28.75 18.7225 28.8218 18.565 28.953L14.75 32.1327V16.5C14.75 15.5357 15.534 14.75 16.5 14.75H32.25C33.216 14.75 34 15.5357 34 16.5V27Z" fill="#DCFF00"/>
<path d="M37.5 20C37.017 20 36.625 20.392 36.625 20.875C36.625 21.358 37.017 21.75 37.5 21.75C38.466 21.75 39.25 22.5357 39.25 23.5V38.3032L36.296 35.9408C36.142 35.8183 35.9478 35.75 35.75 35.75H23.5C22.534 35.75 21.75 34.9642 21.75 34V33.125C21.75 32.642 21.358 32.25 20.875 32.25C20.392 32.25 20 32.642 20 33.125V34C20 35.9303 21.5697 37.5 23.5 37.5H35.442L39.5773 40.8092C39.7365 40.9352 39.9307 41 40.125 41C40.2528 41 40.3822 40.972 40.5047 40.9142C40.8075 40.7673 41 40.461 41 40.125V23.5C41 21.5697 39.4303 20 37.5 20Z" fill="#DCFF00"/>
</svg>
