<svg width="54" height="54" viewBox="0 0 54 54" fill="none" xmlns="http://www.w3.org/2000/svg">
<path d="M34.1435 29.0559L37.3343 27.2237L35.8299 23.8659L37.3343 20.5082L34.1435 18.676L33.387 15.0753L29.7287 15.4685L27.0001 13L24.2716 15.4684L20.6133 15.0752L19.8568 18.6759L16.666 20.5081L18.1704 23.8658L16.666 27.2236L19.8568 29.0558L20.6133 32.6566L20.724 32.6447L18.0889 38.2441L21.6435 38.2906L23.9449 41L26.9262 34.665L27.0001 34.7319L27.0739 34.665L30.0552 41L32.3567 38.2906L35.9112 38.2441L33.2762 32.6448L33.3869 32.6567L34.1435 29.0559ZM23.5457 37.9958L22.4109 36.6599L20.6584 36.637L22.6337 32.4395L24.2716 32.2634L25.6546 33.5146L23.5457 37.9958ZM33.3419 36.637L31.5893 36.6599L30.4546 37.9958L28.3456 33.5146L29.7286 32.2635L31.3665 32.4395L33.3419 36.637ZM32.6892 27.9993L32.0867 30.867L29.1732 30.5538L27.0002 32.5196L24.8271 30.5538L21.9366 30.8645L21.9105 30.8522L21.3111 27.9993L18.77 26.5401L19.9682 23.866L18.77 21.1919L21.3111 19.7327L21.9136 16.865L24.8271 17.1782L27.0002 15.2123L29.1732 17.1781L32.0867 16.865L32.6892 19.7326L35.2303 21.1918L34.0322 23.8659L35.2303 26.5401L32.6892 27.9993Z" fill="#DCFF00"/>
<path d="M27 17.7407C23.6227 17.7407 20.875 20.4884 20.875 23.8657C20.875 27.243 23.6227 29.9907 27 29.9907C30.3773 29.9907 33.1249 27.243 33.1249 23.8657C33.1249 20.4884 30.3772 17.7407 27 17.7407ZM27 28.3501C24.5273 28.3501 22.5156 26.3383 22.5156 23.8657C22.5156 21.393 24.5273 19.3813 27 19.3813C29.4727 19.3813 31.4843 21.393 31.4843 23.8657C31.4843 26.3383 29.4727 28.3501 27 28.3501Z" fill="#DCFF00"/>
</svg>
