<svg width="54" height="54" viewBox="0 0 54 54" fill="none" xmlns="http://www.w3.org/2000/svg">
<g clip-path="url(#clip0)">
<path d="M37.7916 38.6851H16.2084C14.4385 38.6851 13 37.2465 13 35.4767V20.8932C13 19.1234 14.4385 17.6851 16.2084 17.6851H23.2084C23.6914 17.6851 24.0834 18.0771 24.0834 18.5601C24.0834 19.0431 23.6914 19.4351 23.2084 19.4351H16.2084C15.4045 19.4351 14.75 20.0894 14.75 20.8932V35.4767C14.75 36.2805 15.4045 36.9351 16.2084 36.9351H37.7916C38.5955 36.9351 39.25 36.2805 39.25 35.4767V20.8932C39.25 20.0894 38.5955 19.4351 37.7916 19.4351H30.7916C30.3086 19.4351 29.9166 19.0431 29.9166 18.5601C29.9166 18.0771 30.3086 17.6851 30.7916 17.6851H37.7916C39.5615 17.6851 41 19.1234 41 20.8932V35.4767C41 37.2465 39.5615 38.6851 37.7916 38.6851Z" fill="#DCFF00"/>
<path d="M29.6246 21.7682H24.3746C23.2488 21.7682 22.333 20.8524 22.333 19.7266V17.3932C22.333 16.2674 23.2488 15.3516 24.3746 15.3516H29.6246C30.7504 15.3516 31.6662 16.2674 31.6662 17.3932V19.7266C31.6662 20.8524 30.7504 21.7682 29.6246 21.7682ZM24.3746 17.1016C24.2135 17.1016 24.083 17.2323 24.083 17.3932V19.7266C24.083 19.8876 24.2135 20.0182 24.3746 20.0182H29.6246C29.7857 20.0182 29.9162 19.8876 29.9162 19.7266V17.3932C29.9162 17.2323 29.7857 17.1016 29.6246 17.1016H24.3746Z" fill="#DCFF00"/>
<path d="M21.7496 29.3515C20.1419 29.3515 18.833 28.0424 18.833 26.4349C18.833 24.8271 20.1419 23.5181 21.7496 23.5181C23.3573 23.5181 24.6662 24.8271 24.6662 26.4349C24.6662 28.0424 23.3573 29.3515 21.7496 29.3515ZM21.7496 25.2681C21.1068 25.2681 20.583 25.7919 20.583 26.4349C20.583 27.0777 21.1068 27.6015 21.7496 27.6015C22.3924 27.6015 22.9162 27.0777 22.9162 26.4349C22.9162 25.7919 22.3924 25.2681 21.7496 25.2681Z" fill="#DCFF00"/>
<path d="M26.125 35.1849C25.642 35.1849 25.25 34.7929 25.25 34.3099V33.7265C25.25 32.9226 24.5955 32.2681 23.7916 32.2681H19.7084C18.9045 32.2681 18.25 32.9226 18.25 33.7265V34.3099C18.25 34.7929 17.858 35.1849 17.375 35.1849C16.892 35.1849 16.5 34.7929 16.5 34.3099V33.7265C16.5 31.9566 17.9385 30.5181 19.7084 30.5181H23.7916C25.5615 30.5181 27 31.9566 27 33.7265V34.3099C27 34.7929 26.608 35.1849 26.125 35.1849Z" fill="#DCFF00"/>
<path d="M36.6246 25.8516H30.208C29.725 25.8516 29.333 25.4596 29.333 24.9766C29.333 24.4936 29.725 24.1016 30.208 24.1016H36.6246C37.1076 24.1016 37.4996 24.4936 37.4996 24.9766C37.4996 25.4596 37.1076 25.8516 36.6246 25.8516Z" fill="#DCFF00"/>
<path d="M36.6246 30.5181H30.208C29.725 30.5181 29.333 30.1261 29.333 29.6431C29.333 29.1601 29.725 28.7681 30.208 28.7681H36.6246C37.1076 28.7681 37.4996 29.1601 37.4996 29.6431C37.4996 30.1261 37.1076 30.5181 36.6246 30.5181Z" fill="#DCFF00"/>
<path d="M36.6246 35.1851H30.208C29.725 35.1851 29.333 34.7931 29.333 34.3101C29.333 33.8271 29.725 33.4351 30.208 33.4351H36.6246C37.1076 33.4351 37.4996 33.8271 37.4996 34.3101C37.4996 34.7931 37.1076 35.1851 36.6246 35.1851Z" fill="#DCFF00"/>
</g>
<defs>
<clipPath id="clip0">
<rect width="28" height="28" fill="white" transform="translate(13 13)"/>
</clipPath>
</defs>
</svg>
