<svg width="54" height="54" viewBox="0 0 54 54" fill="none" xmlns="http://www.w3.org/2000/svg">
<path d="M41.7349 26.5724C41.746 26.5589 41.7556 26.5447 41.766 26.5309C41.7784 26.5142 41.7913 26.498 41.8028 26.4807C41.8139 26.4641 41.8235 26.4469 41.8337 26.4299C41.8431 26.4142 41.8528 26.399 41.8615 26.3828C41.8708 26.3654 41.8787 26.3476 41.887 26.3298C41.895 26.313 41.9033 26.2965 41.9104 26.2794C41.9175 26.2621 41.9233 26.2446 41.9296 26.2271C41.9362 26.2087 41.9432 26.1904 41.949 26.1716C41.9543 26.1541 41.9582 26.1363 41.9626 26.1186C41.9675 26.0994 41.9728 26.0805 41.9767 26.0609C41.9808 26.0404 41.9832 26.0197 41.9861 25.9991C41.9885 25.9821 41.9918 25.9653 41.9935 25.9481C42.001 25.8715 42.001 25.7944 41.9935 25.7178C41.9918 25.7006 41.9886 25.6838 41.9861 25.6668C41.9832 25.6462 41.9808 25.6255 41.9767 25.605C41.9728 25.5855 41.9674 25.5665 41.9625 25.5473C41.9581 25.5296 41.9542 25.5119 41.9489 25.4944C41.9432 25.4755 41.9362 25.4573 41.9296 25.439C41.9233 25.4215 41.9175 25.4038 41.9104 25.3866C41.9033 25.3695 41.895 25.3529 41.887 25.3362C41.8787 25.3184 41.8708 25.3005 41.8615 25.2832C41.8529 25.2671 41.8431 25.2518 41.8338 25.2362C41.8236 25.2191 41.814 25.2019 41.8029 25.1853C41.7913 25.168 41.7785 25.1518 41.7661 25.1352C41.7557 25.1213 41.746 25.1071 41.7349 25.0936C41.7107 25.0641 41.6852 25.0357 41.6582 25.0087C41.658 25.0085 41.6578 25.0083 41.6576 25.0081L38.1578 21.5082C37.7022 21.0527 36.9635 21.0527 36.5079 21.5082C36.0523 21.9638 36.0523 22.7025 36.5079 23.1581L38.0162 24.6664H34.9996V14.1668C34.9996 13.5225 34.4773 13.0002 33.833 13.0002H15.1889C15.144 12.9993 15.0995 13.001 15.0555 13.0052C15.0463 13.006 15.0372 13.007 15.028 13.008C15.0191 13.0091 15.0101 13.0104 15.0012 13.0116C14.5027 13.0737 14.1762 13.4126 14.054 13.8152C14.0453 13.8426 14.038 13.8706 14.0313 13.899C14.0311 13.9001 14.0309 13.9012 14.0306 13.9023C14.0238 13.9319 14.0183 13.9621 14.0137 13.9926C14.0133 13.9955 14.0129 13.9983 14.0124 14.0012C14.0085 14.0287 14.0054 14.0564 14.0035 14.0845C14.0003 14.1268 13.9993 14.1691 14.0004 14.2114V37.4992C14.0004 38.0553 14.393 38.5341 14.9383 38.6432L26.6045 40.9764C27.3264 41.1208 27.9999 40.5686 27.9999 39.8324V38.6658H33.833C34.4773 38.6658 34.9996 38.1435 34.9996 37.4992V26.9997H38.0162L36.5079 28.508C36.0523 28.9636 36.0523 29.7023 36.5079 30.1579C36.9634 30.6134 37.7021 30.6134 38.1577 30.1579L41.6576 26.658C41.6578 26.6578 41.6579 26.6576 41.6582 26.6573C41.6852 26.6303 41.7107 26.6019 41.7349 26.5724ZM25.6667 38.4094L16.3337 36.5428V15.7348L25.6667 18.5347V37.4992V38.4094ZM32.6664 36.3326H27.9999V17.6666C27.9999 17.1515 27.662 16.6972 27.1685 16.5492L23.1158 15.3334H32.6664V36.3326H32.6664Z" fill="#DCFF00"/>
<path d="M23.6171 29.3684L21.2838 28.7851C20.6588 28.6288 20.0253 29.0089 19.8691 29.6339C19.7128 30.259 20.0929 30.8924 20.7179 31.0486L23.0512 31.632C23.6762 31.7883 24.3097 31.4082 24.4659 30.7831C24.6222 30.1581 24.2421 29.5247 23.6171 29.3684Z" fill="#DCFF00"/>
</svg>
