<svg width="30" height="40" viewBox="0 0 30 40" fill="none" xmlns="http://www.w3.org/2000/svg">
<path d="M14.6236 0C6.56009 0 0 6.67798 0 14.8864C0 19.4778 2.32219 25.0507 6.90228 31.4502C10.254 36.1337 13.5568 39.4738 13.6958 39.6138C13.9513 39.871 14.2874 40 14.6239 40C14.9506 40 15.2775 39.8783 15.531 39.6341C15.6703 39.5 18.9814 36.2951 22.3395 31.6763C26.9233 25.3715 29.2474 19.7226 29.2474 14.8863C29.2472 6.67798 22.687 0 14.6236 0ZM14.6236 21.313C10.6814 21.313 7.47431 18.1058 7.47431 14.1637C7.47431 10.2216 10.6815 7.01439 14.6236 7.01439C18.5657 7.01439 21.7729 10.2216 21.7729 14.1637C21.7729 18.1058 18.5657 21.313 14.6236 21.313Z" fill="#2D3236"/>
</svg>
