<svg width="30" height="22" viewBox="0 0 30 22" fill="none" xmlns="http://www.w3.org/2000/svg">
<path d="M0.256482 11.6674L9.256 21.6668C9.44799 21.8788 9.71597 21.9988 9.99996 21.9988H15.9996C16.3936 21.9988 16.7516 21.7668 16.9136 21.4068C17.0736 21.0449 17.0076 20.6229 16.7436 20.3309L8.34605 10.9994L16.7436 1.66991C17.0076 1.37593 17.0756 0.95395 16.9136 0.593969C16.7516 0.231989 16.3936 1.78814e-06 15.9996 1.78814e-06H9.99996C9.71597 1.78814e-06 9.44799 0.121995 9.256 0.329984L0.256482 10.3294C-0.0854992 10.7094 -0.0854992 11.2894 0.256482 11.6674Z" fill="#F02D2D"/>
<path d="M13.2565 11.6674L22.256 21.6668C22.448 21.8788 22.716 21.9988 23 21.9988H28.9996C29.3936 21.9988 29.7516 21.7668 29.9136 21.4068C30.0736 21.0449 30.0076 20.6229 29.7436 20.3309L21.346 10.9994L29.7436 1.66991C30.0076 1.37593 30.0756 0.95395 29.9136 0.593969C29.7516 0.231989 29.3936 1.78814e-06 28.9996 1.78814e-06H23C22.716 1.78814e-06 22.448 0.121995 22.256 0.329984L13.2565 10.3294C12.9145 10.7094 12.9145 11.2894 13.2565 11.6674Z" fill="#F02D2D"/>
</svg>
