<svg width="26" height="26" viewBox="0 0 26 26" fill="none" xmlns="http://www.w3.org/2000/svg">
<path d="M13 0.500488C6.1 0.500488 0.5 6.10049 0.5 13.0005C0.5 19.9005 6.1 25.5005 13 25.5005C19.9 25.5005 25.5 19.9005 25.5 13.0005C25.5 6.10049 19.9 0.500488 13 0.500488ZM9.6125 18.363L5.125 13.8755C4.6375 13.388 4.6375 12.6005 5.125 12.113C5.6125 11.6255 6.4 11.6255 6.8875 12.113L10.5 15.713L19.1 7.11299C19.5875 6.62549 20.375 6.62549 20.8625 7.11299C21.35 7.60049 21.35 8.38799 20.8625 8.87549L11.375 18.363C10.9 18.8505 10.1 18.8505 9.6125 18.363Z" fill="#DCFF00"/>
</svg>
