<svg width="44" height="44" viewBox="0 0 44 44" fill="none" xmlns="http://www.w3.org/2000/svg">
<g clip-path="url(#clip0)">
<path d="M10.1348 36.6886L10.1348 36.6886C10.2036 36.8151 10.2598 36.8536 10.2789 36.8643C10.2967 36.8742 10.3127 36.8775 10.336 36.8757C10.3644 36.8735 10.3973 36.8636 10.4277 36.8497C10.4417 36.8433 10.4519 36.8375 10.4571 36.8345C10.4582 36.8338 10.459 36.8333 10.4596 36.833C11.5673 36.0677 12.6834 35.3731 13.6421 34.8073L13.9756 34.6105L14.2496 34.8841L17.7774 38.4074L17.9241 38.5539V38.7612V42.2175C17.9241 42.6027 18.2359 42.9147 18.6224 42.9147C19.008 42.9147 19.3201 42.6028 19.3201 42.2175V38.2647C19.3201 38.0798 19.2466 37.902 19.1157 37.7711C19.1157 37.771 19.1156 37.771 19.1156 37.7709L6.17178 24.8405L6.17172 24.8404C6.04098 24.7098 5.86384 24.6362 5.67798 24.6362H1.74426C1.3593 24.6362 1.04688 24.9487 1.04688 25.3339C1.04688 25.7195 1.35938 26.0319 1.74426 26.0319H5.18284H5.38982L5.53624 26.1782L9.07822 29.7173L9.34736 29.9862L9.15992 30.3173C8.62827 31.2564 7.98438 32.3359 7.27712 33.412L7.26959 33.4235L7.26955 33.4234L7.26354 33.4329C7.25583 33.4455 7.24401 33.4657 7.23085 33.4915C7.20305 33.5459 7.17681 33.6106 7.16407 33.6719C7.15114 33.7341 7.15804 33.7635 7.16094 33.7714C7.16193 33.774 7.16371 33.7783 7.17038 33.7857L10.1348 36.6886ZM10.1348 36.6886C9.81769 36.1052 9.41677 35.5616 8.93282 35.0776L8.93259 35.0774C8.42407 34.5695 7.84945 34.1569 7.23646 33.8325L10.1348 36.6886Z" fill="url(#paint0_linear)" stroke="#292F33"/>
<path d="M6.53129 37.4802L6.53108 37.48C5.86356 36.8128 4.97801 36.4463 4.03376 36.4463C3.08903 36.4463 2.2037 36.8127 1.53516 37.4801L6.53129 37.4802ZM6.53129 37.4802C7.1988 38.1467 7.56557 39.0308 7.56557 39.9733C7.56557 40.9159 7.19897 41.7994 6.53129 42.466C5.86335 43.1329 4.97781 43.5 4.0339 43.5001L6.53129 37.4802ZM0.501953 39.9733C0.501953 39.0308 0.868095 38.1467 1.53502 37.4802L4.03376 43.5001C3.08906 43.4998 2.2035 43.1329 1.53503 42.466C0.868177 41.7996 0.501953 40.9164 0.501953 39.9733Z" fill="url(#paint1_linear)" stroke="#292F33"/>
<path d="M12.3961 25.9526L12.3961 25.9526L13.7317 27.2869C14.0674 27.6222 14.6198 27.6222 14.9555 27.2868L34.0453 8.21341L34.0456 8.21308C34.5216 7.73842 35.2933 7.73713 35.7693 8.21375M12.3961 25.9526L35.4158 8.56742M12.3961 25.9526C12.0607 25.6176 12.0607 25.0666 12.3961 24.7316L12.3961 24.7315L35.1962 1.95533C35.4081 1.7437 35.7481 1.51858 36.1358 1.33714C36.5234 1.1557 36.9141 1.03885 37.2123 1.01175L37.2123 1.01175L42.8008 0.503567C42.8008 0.503566 42.8008 0.503565 42.8008 0.503564C43.0365 0.482157 43.2131 0.558837 43.3254 0.671064C43.4376 0.783296 43.5143 0.959974 43.4929 1.19565L42.9856 6.77335C42.9585 7.07155 42.8416 7.462 42.66 7.8494C42.4784 8.23679 42.2531 8.57647 42.0413 8.78812C42.0413 8.78813 42.0413 8.78814 42.0413 8.78815L19.2398 31.567L12.3961 25.9526ZM35.7693 8.21375C35.7695 8.21394 35.7696 8.21414 35.7698 8.21434L35.4158 8.56742M35.7693 8.21375C35.7692 8.21369 35.7691 8.21363 35.7691 8.21358L35.4158 8.56742M35.7693 8.21375C36.2457 8.68965 36.2452 9.46197 35.7686 9.93732L35.7688 9.9372L35.4154 9.58348C35.6964 9.30331 35.6967 8.84789 35.4158 8.56742M16.6785 29.0097L35.7683 9.9376L19.2398 31.5671C18.9041 31.9024 18.3517 31.9024 18.016 31.567L16.6785 30.231L16.6785 30.2309C16.3431 29.896 16.3431 29.3449 16.6785 29.0097L16.3251 28.656L16.6785 29.0097Z" fill="url(#paint2_linear)" stroke="#292F33"/>
<g clip-path="url(#clip1)">
<path d="M33.8652 36.6886L33.8652 36.6886C33.7964 36.8151 33.7402 36.8536 33.7211 36.8643C33.7033 36.8742 33.6873 36.8775 33.664 36.8757C33.6356 36.8735 33.6027 36.8636 33.5723 36.8497C33.5583 36.8433 33.5481 36.8375 33.5429 36.8345C33.5418 36.8338 33.541 36.8333 33.5404 36.833C32.4327 36.0677 31.3166 35.3731 30.3579 34.8073L30.0244 34.6105L29.7504 34.8841L26.2226 38.4074L26.0759 38.5539V38.7612V42.2175C26.0759 42.6027 25.7641 42.9147 25.3776 42.9147C24.992 42.9147 24.6799 42.6028 24.6799 42.2175V38.2647C24.6799 38.0798 24.7534 37.902 24.8843 37.7711C24.8843 37.771 24.8844 37.771 24.8844 37.7709L37.8282 24.8405L37.8283 24.8404C37.959 24.7098 38.1362 24.6362 38.322 24.6362H42.2557C42.6407 24.6362 42.9531 24.9487 42.9531 25.3339C42.9531 25.7195 42.6406 26.0319 42.2557 26.0319H38.8172H38.6102L38.4638 26.1782L34.9218 29.7173L34.6526 29.9862L34.8401 30.3173C35.3717 31.2564 36.0156 32.3359 36.7229 33.412L36.7304 33.4235L36.7304 33.4234L36.7365 33.4329C36.7442 33.4455 36.756 33.4657 36.7691 33.4915C36.7969 33.5459 36.8232 33.6106 36.8359 33.6719C36.8489 33.7341 36.842 33.7635 36.8391 33.7714C36.8381 33.774 36.8363 33.7783 36.8296 33.7857L33.8652 36.6886ZM33.8652 36.6886C34.1823 36.1052 34.5832 35.5616 35.0672 35.0776L35.0674 35.0774C35.5759 34.5695 36.1505 34.1569 36.7635 33.8325L33.8652 36.6886Z" fill="url(#paint3_linear)" stroke="#292F33"/>
<path d="M37.4687 37.4802L37.4689 37.48C38.1364 36.8128 39.022 36.4463 39.9662 36.4463C40.911 36.4463 41.7963 36.8127 42.4648 37.4801L37.4687 37.4802ZM37.4687 37.4802C36.8012 38.1467 36.4344 39.0308 36.4344 39.9733C36.4344 40.9159 36.801 41.7994 37.4687 42.466C38.1366 43.1329 39.0222 43.5 39.9661 43.5001L37.4687 37.4802ZM43.498 39.9733C43.498 39.0308 43.1319 38.1467 42.465 37.4802L39.9662 43.5001C40.9109 43.4998 41.7965 43.1329 42.465 42.466C43.1318 41.7996 43.498 40.9164 43.498 39.9733Z" fill="url(#paint4_linear)" stroke="#292F33"/>
<path d="M31.6039 25.9526L31.6039 25.9526L30.2683 27.2869C29.9326 27.6222 29.3802 27.6222 29.0445 27.2868L9.95471 8.21341L9.95439 8.21308C9.47844 7.73842 8.70672 7.73713 8.23075 8.21375M31.6039 25.9526L8.58418 8.56742M31.6039 25.9526C31.9393 25.6176 31.9393 25.0666 31.6039 24.7316L31.6039 24.7315L8.80375 1.95533C8.59188 1.7437 8.25188 1.51858 7.86422 1.33714C7.47656 1.1557 7.08592 1.03885 6.78772 1.01175L6.7877 1.01175L1.19924 0.503567C1.19923 0.503566 1.19921 0.503565 1.19921 0.503564C0.963541 0.482157 0.786871 0.558837 0.674644 0.671064C0.562412 0.783296 0.485733 0.959974 0.507149 1.19565L1.01442 6.77335C1.04152 7.07155 1.15843 7.462 1.34 7.8494C1.52157 8.23679 1.74686 8.57647 1.95868 8.78812C1.95869 8.78813 1.9587 8.78814 1.95871 8.78815L24.7602 31.567L31.6039 25.9526ZM8.23075 8.21375C8.23055 8.21394 8.23035 8.21414 8.23015 8.21434L8.58418 8.56742M8.23075 8.21375C8.2308 8.21369 8.23086 8.21363 8.23092 8.21358L8.58418 8.56742M8.23075 8.21375C7.75426 8.68965 7.75479 9.46197 8.23137 9.93732L8.23125 9.9372L8.58464 9.58348C8.30356 9.30331 8.30326 8.84789 8.58418 8.56742M27.3215 29.0097L8.23166 9.9376L24.7602 31.5671C25.0959 31.9024 25.6483 31.9024 25.984 31.567L27.3215 30.231L27.3215 30.2309C27.6569 29.896 27.6569 29.3449 27.3215 29.0097L27.6749 28.656L27.3215 29.0097Z" fill="url(#paint5_linear)" stroke="#292F33"/>
</g>
</g>
<defs>
<linearGradient id="paint0_linear" x1="10.1835" y1="24.1362" x2="10.1835" y2="43.4147" gradientUnits="userSpaceOnUse">
<stop stop-color="#292F33"/>
<stop offset="1" stop-color="#141517"/>
</linearGradient>
<linearGradient id="paint1_linear" x1="4.03376" y1="35.9463" x2="4.03376" y2="44.0001" gradientUnits="userSpaceOnUse">
<stop stop-color="#292F33"/>
<stop offset="1" stop-color="#141517"/>
</linearGradient>
<linearGradient id="paint2_linear" x1="27.8205" y1="0" x2="27.8205" y2="32.3185" gradientUnits="userSpaceOnUse">
<stop stop-color="#292F33"/>
<stop offset="1" stop-color="#141517"/>
</linearGradient>
<linearGradient id="paint3_linear" x1="33.8165" y1="24.1362" x2="33.8165" y2="43.4147" gradientUnits="userSpaceOnUse">
<stop stop-color="#292F33"/>
<stop offset="1" stop-color="#141517"/>
</linearGradient>
<linearGradient id="paint4_linear" x1="39.9662" y1="35.9463" x2="39.9662" y2="44.0001" gradientUnits="userSpaceOnUse">
<stop stop-color="#292F33"/>
<stop offset="1" stop-color="#141517"/>
</linearGradient>
<linearGradient id="paint5_linear" x1="16.1795" y1="0" x2="16.1795" y2="32.3185" gradientUnits="userSpaceOnUse">
<stop stop-color="#292F33"/>
<stop offset="1" stop-color="#141517"/>
</linearGradient>
<clipPath id="clip0">
<rect width="44" height="44" fill="white"/>
</clipPath>
<clipPath id="clip1">
<rect width="44" height="44" fill="white" transform="matrix(-1 0 0 1 44 0)"/>
</clipPath>
</defs>
</svg>
