<svg width="44" height="44" viewBox="0 0 44 44" fill="none" xmlns="http://www.w3.org/2000/svg">
<g clip-path="url(#clip0)">
<path d="M9.69603 36.9274C9.40115 36.3849 9.02881 35.8802 8.57975 35.4312C8.10886 34.9609 7.57521 34.5772 7.00305 34.2744C6.31931 33.9125 6.85978 33.1374 6.85978 33.1374C7.5596 32.0726 8.19771 31.0029 8.72529 30.071L5.18332 26.5319H1.74475C1.08344 26.5319 0.547363 25.9954 0.547363 25.3339C0.547363 24.6728 1.08344 24.1362 1.74475 24.1362H5.67847C5.99684 24.1362 6.30111 24.2624 6.52564 24.4867L19.4696 37.4174C19.6944 37.6422 19.8206 37.9472 19.8206 38.2647V42.2175C19.8206 42.8793 19.2843 43.4147 18.6229 43.4147C17.9608 43.4147 17.4246 42.8794 17.4246 42.2175V38.7612L13.8967 35.2379C12.9445 35.7999 11.8376 36.4889 10.7409 37.2466C10.7407 37.2463 10.1125 37.6936 9.69603 36.9274Z" fill="#D4FF00"/>
<path d="M4.03474 35.9463C2.95743 35.9463 1.945 36.3653 1.18273 37.1264C0.421817 37.8867 0.00292969 38.8981 0.00292969 39.9733C0.00292969 41.0492 0.421969 42.0597 1.18273 42.8198C1.94485 43.5803 2.95743 43.9998 4.03474 44.0001C5.11144 44.0001 6.12402 43.5801 6.88554 42.8198C7.64706 42.0595 8.06655 41.0488 8.06655 39.9733C8.06655 38.8979 7.6469 37.8865 6.88554 37.1264C6.12417 36.3653 5.11144 35.9463 4.03474 35.9463Z" fill="#D4FF00"/>
<path d="M15.3104 27.6405C14.7795 28.171 13.9108 28.171 13.3798 27.6407L12.0442 26.3064C11.5133 25.7761 11.5133 24.9081 12.0442 24.3778L34.8444 1.60158C35.3753 1.07126 36.4212 0.581722 37.1685 0.513802L42.757 0.00561894C43.5044 -0.0623005 44.0602 0.493487 43.9923 1.2409L43.485 6.81864C43.4171 7.56606 42.9271 8.61138 42.3962 9.14185L19.5946 31.9208C19.0637 32.4511 18.195 32.4511 17.6641 31.9208L16.3266 30.5847C15.7957 30.0544 15.7957 29.1864 16.3266 28.656L35.4168 9.58348C35.6979 9.30331 35.6982 8.84789 35.4173 8.56742C35.1371 8.28649 34.6815 8.28649 34.4002 8.56711L15.3104 27.6405Z" fill="#D4FF00"/>
</g>
<defs>
<clipPath id="clip0">
<rect width="44" height="44" fill="white"/>
</clipPath>
</defs>
</svg>
