<svg width="215" height="70" viewBox="0 0 215 70" fill="none" xmlns="http://www.w3.org/2000/svg">
<path d="M5.71423 9.18869C6.13545 4.27449 10.2473 0.5 15.1795 0.5H205C210.247 0.5 214.5 4.7533 214.5 10V60C214.5 65.2467 210.247 69.5 205 69.5H10.8938C5.327 69.5 0.953105 64.7352 1.42852 59.1887L5.71423 9.18869Z" fill="white" fill-opacity="0.2"/>
<path d="M5.71423 9.18869C6.13545 4.27449 10.2473 0.5 15.1795 0.5H205C210.247 0.5 214.5 4.7533 214.5 10V60C214.5 65.2467 210.247 69.5 205 69.5H10.8938C5.327 69.5 0.953105 64.7352 1.42852 59.1887L5.71423 9.18869Z" fill="url(#paint0_linear)"/>
<path d="M5.71423 9.18869C6.13545 4.27449 10.2473 0.5 15.1795 0.5H205C210.247 0.5 214.5 4.7533 214.5 10V60C214.5 65.2467 210.247 69.5 205 69.5H10.8938C5.327 69.5 0.953105 64.7352 1.42852 59.1887L5.71423 9.18869Z" stroke="url(#paint1_linear)"/>
<defs>
<linearGradient id="paint0_linear" x1="20.5" y1="10.5" x2="200" y2="70" gradientUnits="userSpaceOnUse">
<stop stop-color="white" stop-opacity="0.6"/>
<stop offset="1" stop-color="white" stop-opacity="0"/>
</linearGradient>
<linearGradient id="paint1_linear" x1="7.00001" y1="-1.28394e-05" x2="191" y2="70" gradientUnits="userSpaceOnUse">
<stop stop-color="white"/>
<stop offset="1" stop-color="white" stop-opacity="0"/>
</linearGradient>
</defs>
</svg>
