<svg width="140" height="140" viewBox="0 0 140 140" fill="none" xmlns="http://www.w3.org/2000/svg">
<path d="M70.3545 0.00109375C70.3496 0.00109375 70.3449 0.00109375 70.34 0.000820311C70.3176 0.000820311 70.2954 0 70.2733 0C70.27 0 70.2667 0 70.2635 0C70.2547 0 70.2457 0.000273437 70.2369 0.000273437C31.6602 0.0199609 0 31.2407 0 69.7264C0 79.137 1.87441 88.3016 5.57155 96.9657C12.7293 113.74 26.2234 127.255 43.0338 134.428C51.6968 138.125 60.8602 139.999 70.2695 139.999C70.2719 139.999 70.2744 140 70.2769 140C70.2831 140 70.2897 139.999 70.296 139.999C109.001 139.987 140 108.097 140 69.7264C140 31.2467 108.894 0.0445702 70.3545 0.00109375ZM56.6881 9.69143C49.6933 16.3228 43.9782 24.0895 39.6746 32.8124H20.6486C29.3742 21.3171 42.0647 12.9404 56.6881 9.69143ZM15.3907 40.9609H36.1694C33.3002 48.8214 31.6038 57.1995 31.1661 65.6249H8.34448C8.93428 56.7852 11.4157 48.3964 15.3907 40.9609ZM15.5452 98.9842C11.4737 91.399 8.93537 82.8752 8.34229 73.828H31.1382C31.5297 82.4402 33.2387 90.9536 36.17 98.9842H15.5452ZM20.8165 107.187H39.6746C43.97 115.894 49.6772 123.658 56.6698 130.291C42.1468 127.031 29.5331 118.667 20.8165 107.187ZM39.3533 73.828H66.1715V98.9842H45.0148C41.7396 91.0933 39.7933 82.6001 39.3533 73.828ZM66.172 127.727C59.1983 121.92 53.4162 114.947 49.019 107.187H66.1717V127.727H66.172ZM66.172 65.6249H39.3809C39.8729 57.0463 41.808 48.7423 45.0154 41.0155H66.172V65.6249ZM66.172 32.8124H49.0196C53.4165 25.0523 59.1986 18.0797 66.172 12.2729V32.8124ZM124.672 41.0155C128.612 48.4511 131.072 56.7852 131.657 65.6249H109.38C108.942 57.1995 107.246 48.876 104.377 41.0155H124.672ZM119.461 32.8124H100.872C96.5801 24.1125 90.8792 16.3545 83.8951 9.72533C98.3238 12.9995 110.843 21.3582 119.461 32.8124ZM74.3751 12.2746C81.3486 18.0813 87.1329 25.0523 91.5297 32.8124H74.3751V12.2746ZM74.3749 41.0155H95.5367C98.7436 48.7418 100.674 57.0469 101.166 65.6249H74.3749V41.0155ZM101.196 73.7733C100.756 82.5449 98.8116 91.0939 95.5367 98.9842H74.3749V73.7733H101.196ZM74.3751 127.725V107.133H91.5297C87.1329 114.893 81.3486 121.918 74.3751 127.725ZM83.9137 130.257C90.8839 123.637 96.5809 115.831 100.872 107.133H119.294C110.686 118.57 98.2432 126.971 83.9137 130.257ZM104.377 98.9842C107.308 90.9536 109.017 82.3855 109.409 73.7733H131.659C131.071 82.8205 128.555 91.399 124.52 98.9842H104.377Z" fill="white" fill-opacity="0.2"/>
</svg>
