<svg width="31" height="31" viewBox="0 0 31 31" fill="none" xmlns="http://www.w3.org/2000/svg">
<g clip-path="url(#clip0)">
<path d="M7.35531 16.1984C5.66665 16.1984 4.2995 17.5665 4.2995 19.2552C4.2995 20.9438 5.6676 22.3119 7.35531 22.3119C9.04207 22.3119 10.4111 20.9438 10.4111 19.2552C10.4111 17.5665 9.04207 16.1984 7.35531 16.1984ZM7.35531 20.1787C6.84776 20.1787 6.43179 19.7646 6.43179 19.2561C6.43179 18.7476 6.84776 18.3336 7.35531 18.3336C7.86191 18.3336 8.27692 18.7476 8.27692 19.2561C8.27692 19.7646 7.86286 20.1787 7.35531 20.1787Z" fill="white"/>
<path d="M29.6067 16.7509L29.1067 12.6848C29.0085 11.9044 28.3263 11.3319 27.5392 11.3749L26.444 11.4359L23.0438 8.37249C22.7156 8.07769 22.2929 7.91551 21.8522 7.91551L14.9439 7.91455C13.3936 7.91455 11.89 8.44405 10.6812 9.41527L6.82689 12.5121L1.64355 13.8077C0.977625 13.9737 0.510142 14.5728 0.510142 15.2588V16.7528C0.290711 16.7519 0.112305 16.9293 0.112305 17.1488V19.1246C0.112305 19.406 0.340322 19.6341 0.621766 19.6341H3.54783C3.53542 19.5072 3.50967 19.386 3.50967 19.2563C3.50967 17.1316 5.23077 15.4124 7.35447 15.4124C9.47818 15.4124 11.1983 17.1316 11.1983 19.2563C11.1983 19.387 11.1716 19.5081 11.1592 19.6341H19.2619C19.2505 19.5072 19.2247 19.386 19.2247 19.2563C19.2247 17.1316 20.9458 15.4124 23.0686 15.4124C25.1932 15.4124 26.9115 17.1316 26.9115 19.2563C26.9115 19.387 26.8867 19.5081 26.8733 19.6341H29.6028C29.8843 19.6341 30.1114 19.406 30.1114 19.1246V17.2613C30.1161 16.9809 29.8881 16.7509 29.6067 16.7509ZM19.3535 11.7546L9.71574 12.2421L11.5609 10.7586C12.5636 9.95239 13.8096 9.51353 15.0966 9.51353H19.3535V11.7546ZM20.9544 11.6735V9.51449H21.5812C21.7987 9.51449 22.0077 9.59463 22.1689 9.7406L24.1362 11.5113L20.9544 11.6735Z" fill="white"/>
<path d="M23.0707 16.1984C21.382 16.1984 20.0149 17.5665 20.0149 19.2552C20.0149 20.9438 21.383 22.3119 23.0707 22.3119C24.7584 22.3119 26.1265 20.9438 26.1265 19.2552C26.1265 17.5665 24.7584 16.1984 23.0707 16.1984ZM23.0707 20.1787C22.5622 20.1787 22.1481 19.7646 22.1481 19.2561C22.1481 18.7476 22.5622 18.3336 23.0707 18.3336C23.5773 18.3336 23.9933 18.7476 23.9933 19.2561C23.9933 19.7646 23.5783 20.1787 23.0707 20.1787Z" fill="white"/>
</g>
<defs>
<clipPath id="clip0">
<rect width="30" height="30" fill="white" transform="translate(0.112305 0.112701)"/>
</clipPath>
</defs>
</svg>
