<svg width="24" height="24" viewBox="0 0 24 24" fill="none" xmlns="http://www.w3.org/2000/svg">
<path d="M20.5365 12.4364C19.3577 12.4364 18.3151 13.0289 17.6892 13.9312L16.7877 13.5451V12.98L19.6117 11.8083L20.3367 10.1368H20.6699L22.3404 12.1208C22.4048 12.1973 22.4971 12.2368 22.5899 12.2368C22.664 12.2368 22.7385 12.2117 22.7997 12.1602C22.9374 12.0443 22.9551 11.8386 22.8391 11.7009L21.5222 10.1367H21.7317C21.9118 10.1367 22.0576 9.9908 22.0576 9.81075C22.0576 9.6307 21.9118 9.48478 21.7317 9.48478H21.242L21.6685 9.28258C21.8706 9.18675 21.9578 8.94592 21.8636 8.74296L21.6179 8.21327C21.5517 8.07055 21.4093 7.97871 21.252 7.97725L16.7301 7.9363C16.7289 7.9363 16.7277 7.9363 16.7265 7.9363C16.6133 7.9363 16.5053 7.9833 16.4282 8.06612C16.4197 8.07509 15.4961 9.03154 13.7918 9.25357C13.6804 9.04661 13.4974 8.75522 13.2274 8.46572C12.5719 7.76273 11.7106 7.39117 10.7365 7.39117C10.5394 7.39117 10.3346 7.40635 10.128 7.43633C10.1269 7.4365 10.1258 7.43666 10.1247 7.43687C10.0767 7.44422 8.93924 7.6212 7.36461 8.06288C7.34744 8.0638 7.32264 8.06466 7.29223 8.06466C7.11158 8.06466 6.67303 8.03246 6.50216 7.7341C6.48984 7.71255 6.4779 7.6877 6.46688 7.6595L7.22005 7.52272C7.43036 7.48447 7.56995 7.28297 7.53176 7.07266C7.49357 6.8623 7.29196 6.72287 7.0817 6.76096L6.47482 6.87116C6.56769 6.48788 6.77859 5.96387 7.1978 5.24948C7.28515 5.10054 7.26921 4.91266 7.15782 4.78057C7.07889 4.6869 6.96399 4.63574 6.84622 4.63574C6.79798 4.63574 6.74936 4.64428 6.70242 4.662C6.65726 4.67901 5.58503 5.09125 4.61226 6.108C3.98956 6.75885 3.32849 7.74977 3.12105 9.13656C3.17626 9.029 3.24481 8.92442 3.33109 8.82696C3.33109 8.82696 4.4435 9.55307 3.81555 10.6043H3.07897C3.09663 10.8178 3.12418 11.038 3.16351 11.2655C3.17885 11.3542 3.2231 11.4353 3.28933 11.4962L4.19927 12.3323C1.20722 11.9309 0.131057 13.8728 0.131057 13.8728C-0.0933495 14.1715 0.0195559 14.4936 0.381663 14.3226C0.138296 14.7961 0 15.332 0 15.9C0 17.8099 1.55372 19.3636 3.46344 19.3636C5.37327 19.3636 6.92699 17.8098 6.92699 15.9C6.92699 15.7583 6.91737 15.6188 6.90084 15.4816H11.1329L9.46228 14.2363C9.46228 14.2363 7.47979 14.4278 6.06539 12.8886C6.21341 12.8811 6.37488 12.8764 6.54651 12.8764C7.69339 12.8764 9.28995 13.0828 10.3827 14.0661C10.3968 14.0787 10.4118 14.0905 10.4275 14.101L14.1762 16.6276C14.2455 16.6744 14.3248 16.6972 14.4037 16.6972C14.5089 16.6972 14.6133 16.6566 14.692 16.5778L16.2024 15.0674L17.1028 15.4531C17.0838 15.5996 17.073 15.7485 17.073 15.9C17.073 17.8099 18.6267 19.3636 20.5365 19.3636C22.4463 19.3636 23.9999 17.8098 23.9999 15.9C23.9999 13.9902 22.4463 12.4364 20.5365 12.4364ZM16.7878 11.5967L19.34 10.3866L18.9951 11.1817L16.7878 12.0976V11.5967ZM3.46344 17.7337C2.45242 17.7337 1.62994 16.9111 1.62994 15.9001C1.62994 14.889 2.45248 14.0664 3.46344 14.0664C3.50612 14.0664 3.54831 14.0684 3.59028 14.0713L2.83176 15.6351L4.29824 16.3465L4.99949 14.9006C5.18743 15.1883 5.29704 15.5315 5.29704 15.9001C5.2971 16.9111 4.47451 17.7337 3.46344 17.7337ZM20.5365 17.7337C19.6088 17.7337 18.8403 17.041 18.7199 16.1457L20.107 16.7398L20.7488 15.2416L19.2467 14.5983C19.5782 14.2697 20.034 14.0664 20.5365 14.0664C21.5475 14.0664 22.3701 14.889 22.3701 15.9C22.3701 16.9111 21.5475 17.7337 20.5365 17.7337Z" fill="#333D47" fill-opacity="0.9"/>
</svg>
