<svg width="24" height="24" viewBox="0 0 24 24" fill="none" xmlns="http://www.w3.org/2000/svg">
<path d="M0.918749 12.3996L2.07744 9.84214C2.49521 8.93379 3.40283 8.35107 4.40259 8.34961H21.0262C22.2539 8.35093 23.2487 9.3457 23.25 10.5735V16.1309C23.25 16.804 22.7043 17.3496 22.0312 17.3496H20.2125C20.035 18.2237 19.2668 18.8515 18.375 18.8515C17.4832 18.8515 16.715 18.2237 16.5375 17.3496H7.4625C7.28496 18.2237 6.5168 18.8515 5.625 18.8515C4.7332 18.8515 3.96504 18.2237 3.7875 17.3496H1.79238C1.32935 17.3495 0.921679 17.044 0.791161 16.5996C0.764061 16.5044 0.750292 16.4061 0.75 16.3072V13.176C0.750145 12.9081 0.807714 12.6434 0.918749 12.3996ZM21.375 12.8496C21.5821 12.8496 21.75 12.6817 21.75 12.4746V9.47461C21.75 9.26763 21.5821 9.09961 21.375 9.09961H18.75C18.5429 9.09961 18.375 9.26763 18.375 9.47461V12.4746C18.375 12.6817 18.5429 12.8496 18.75 12.8496H21.375ZM18.375 18.0996C18.9962 18.0996 19.5 17.596 19.5 16.9746C19.5 16.3534 18.9962 15.8496 18.375 15.8496C17.7538 15.8496 17.25 16.3534 17.25 16.9746C17.2518 17.5953 17.7545 18.0979 18.375 18.0996ZM14.25 12.4746C14.25 12.6817 14.4179 12.8496 14.625 12.8496H17.25C17.4571 12.8496 17.625 12.6817 17.625 12.4746V9.47461C17.625 9.26763 17.4571 9.09961 17.25 9.09961H14.625C14.4179 9.09961 14.25 9.26763 14.25 9.47461V12.4746ZM10.125 12.4746C10.125 12.6817 10.2929 12.8496 10.5 12.8496H13.125C13.3321 12.8496 13.5 12.6817 13.5 12.4746V9.47461C13.5 9.26763 13.3321 9.09961 13.125 9.09961H10.5C10.2929 9.09961 10.125 9.26763 10.125 9.47461V12.4746ZM9 12.8496C9.20713 12.8496 9.375 12.6817 9.375 12.4746V9.47461C9.375 9.26763 9.20713 9.09961 9 9.09961H6.375C6.16787 9.09961 6 9.26763 6 9.47461V12.4746C6 12.6817 6.16787 12.8496 6.375 12.8496H9ZM5.625 18.0996C6.24624 18.0996 6.75 17.596 6.75 16.9746C6.75 16.3534 6.24624 15.8496 5.625 15.8496C5.00376 15.8496 4.5 16.3534 4.5 16.9746C4.50176 17.5953 5.00449 18.0979 5.625 18.0996ZM4.90503 12.8496C5.09941 12.8323 5.24883 12.6699 5.25 12.4746V9.47139C5.25 9.26616 5.08359 9.09961 4.87822 9.09961H4.40259C3.69668 9.10151 3.05581 9.51255 2.75991 10.1534L1.60122 12.7109C1.54072 12.8442 1.50747 12.9883 1.50366 13.1345L4.90503 12.8496Z" fill="#333D47" fill-opacity="0.9"/>
</svg>
