<svg width="24" height="24" viewBox="0 0 24 24" fill="none" xmlns="http://www.w3.org/2000/svg">
<path d="M5.7945 12.8684C4.44357 12.8684 3.34985 13.9629 3.34985 15.3138C3.34985 16.6648 4.44434 17.7592 5.7945 17.7592C7.14391 17.7592 8.23915 16.6648 8.23915 15.3138C8.23915 13.9629 7.14391 12.8684 5.7945 12.8684ZM5.7945 16.0526C5.38846 16.0526 5.05569 15.7214 5.05569 15.3146C5.05569 14.9078 5.38846 14.5765 5.7945 14.5765C6.19978 14.5765 6.53179 14.9078 6.53179 15.3146C6.53179 15.7214 6.20055 16.0526 5.7945 16.0526Z" fill="#333D47" fill-opacity="0.9"/>
<path d="M23.5955 13.3104L23.1955 10.0575C23.1169 9.43319 22.5712 8.97525 21.9415 9.00959L21.0654 9.05844L18.3452 6.60769C18.0826 6.37185 17.7445 6.2421 17.3919 6.2421L11.8653 6.24133C10.625 6.24133 9.42216 6.66493 8.45514 7.44191L5.37166 9.91937L1.225 10.9559C0.692256 11.0887 0.31827 11.568 0.31827 12.1167V13.312C0.142725 13.3112 0 13.4532 0 13.6287V15.2094C0 15.4345 0.182414 15.6169 0.407569 15.6169H2.74842C2.7385 15.5154 2.71789 15.4185 2.71789 15.3147C2.71789 13.615 4.09477 12.2396 5.79374 12.2396C7.4927 12.2396 8.86882 13.615 8.86882 15.3147C8.86882 15.4193 8.84745 15.5162 8.83753 15.6169H15.3197C15.3105 15.5154 15.2899 15.4185 15.2899 15.3147C15.2899 13.615 16.6668 12.2396 18.365 12.2396C20.0647 12.2396 21.4393 13.615 21.4393 15.3147C21.4393 15.4193 21.4195 15.5162 21.4088 15.6169H23.5924C23.8176 15.6169 23.9992 15.4345 23.9992 15.2094V13.7188C24.0031 13.4944 23.8206 13.3104 23.5955 13.3104ZM15.393 9.31336L7.68275 9.70338L9.15885 8.51654C9.96101 7.87161 10.9578 7.52052 11.9874 7.52052H15.393V9.31336ZM16.6737 9.24849V7.52128H17.1751C17.3491 7.52128 17.5163 7.58539 17.6453 7.70217L19.2191 9.11874L16.6737 9.24849Z" fill="#333D47" fill-opacity="0.9"/>
<path d="M18.3668 12.8684C17.0158 12.8684 15.9221 13.9629 15.9221 15.3138C15.9221 16.6648 17.0166 17.7592 18.3668 17.7592C19.7169 17.7592 20.8114 16.6648 20.8114 15.3138C20.8114 13.9629 19.7169 12.8684 18.3668 12.8684ZM18.3668 16.0526C17.96 16.0526 17.6287 15.7214 17.6287 15.3146C17.6287 14.9078 17.96 14.5765 18.3668 14.5765C18.772 14.5765 19.1048 14.9078 19.1048 15.3146C19.1048 15.7214 18.7728 16.0526 18.3668 16.0526Z" fill="#333D47" fill-opacity="0.9"/>
</svg>
