<svg width="24" height="24" viewBox="0 0 24 24" fill="none" xmlns="http://www.w3.org/2000/svg">
<path d="M13 2.05054V0H11V2.05054C6.28296 2.52148 2.52148 6.28296 2.05054 11H0V13H2.05054C2.52148 17.717 6.28296 21.4785 11 21.9495V24H13V21.9495C17.717 21.4785 21.4785 17.717 21.9495 13H24V11H21.9495C21.4785 6.28296 17.717 2.52148 13 2.05054ZM19.9304 11H17.9094C17.4861 8.49292 15.5071 6.51343 13 6.09058V4.06958C16.6116 4.52295 19.4771 7.38843 19.9304 11ZM15.8684 13C15.5056 14.4021 14.4021 15.5056 13 15.8684V14H11V15.8684C9.5979 15.5056 8.49438 14.4021 8.13159 13H10V11H8.13159C8.49438 9.5979 9.5979 8.49438 11 8.13159V10H13V8.13159C14.4021 8.49438 15.5056 9.5979 15.8684 11H14V13H15.8684ZM11 4.06958V6.09058C8.49292 6.51392 6.51343 8.49292 6.09058 11H4.06958C4.52295 7.38843 7.38843 4.52295 11 4.06958ZM4.06958 13H6.09058C6.51392 15.5071 8.49292 17.4866 11 17.9094V19.9304C7.38843 19.4771 4.52295 16.6116 4.06958 13ZM13 19.9304V17.9094C15.5071 17.4861 17.4866 15.5071 17.9094 13H19.9304C19.4771 16.6116 16.6116 19.4771 13 19.9304Z" fill="#333D47" fill-opacity="0.9"/>
</svg>
