<svg width="24" height="24" viewBox="0 0 24 24" fill="none" xmlns="http://www.w3.org/2000/svg">
<path d="M7.48583 9.25H9.56206C9.71125 9.25 9.85432 9.19074 9.95981 9.08525C10.0653 8.97976 10.1246 8.83668 10.1246 8.6875C10.1246 8.53832 10.0653 8.39524 9.95981 8.28975C9.85432 8.18426 9.71125 8.125 9.56206 8.125H8.30403L8.54464 7.79416C8.59682 7.7224 8.66524 7.66401 8.74431 7.62375C8.82337 7.58349 8.91084 7.5625 8.99956 7.5625H11.9996C12.115 7.56251 12.2277 7.59805 12.3223 7.6643C12.4168 7.73055 12.4887 7.8243 12.5282 7.93281L13.1433 9.625H7.21311L7.48583 9.25Z" fill="#333D47" fill-opacity="0.9"/>
<path d="M5.75277 12.7438C5.59651 12.6658 5.42432 12.6252 5.2497 12.625H3.46874L4.76717 10.4606C4.81717 10.3773 4.88789 10.3083 4.97245 10.2605C5.05702 10.2126 5.15254 10.1875 5.2497 10.1875H20.2497C20.3621 10.1875 20.472 10.2212 20.5651 10.2842C20.6582 10.3472 20.7302 10.4367 20.772 10.5411L21.9055 13.375H7.0153L5.75277 12.7438ZM18.3747 12.25H19.031C19.1801 12.25 19.3232 12.1907 19.4287 12.0852C19.5342 11.9798 19.5935 11.8367 19.5935 11.6875C19.5935 11.5383 19.5342 11.3952 19.4287 11.2898C19.3232 11.1843 19.1801 11.125 19.031 11.125H18.3747C18.2255 11.125 18.0824 11.1843 17.977 11.2898C17.8715 11.3952 17.8122 11.5383 17.8122 11.6875C17.8122 11.8367 17.8715 11.9798 17.977 12.0852C18.0824 12.1907 18.2255 12.25 18.3747 12.25ZM15.4216 12.25H16.1716C16.3208 12.25 16.4638 12.1907 16.5693 12.0852C16.6748 11.9798 16.7341 11.8367 16.7341 11.6875C16.7341 11.5383 16.6748 11.3952 16.5693 11.2898C16.4638 11.1843 16.3208 11.125 16.1716 11.125H15.4216C15.2724 11.125 15.1293 11.1843 15.0238 11.2898C14.9183 11.3952 14.8591 11.5383 14.8591 11.6875C14.8591 11.8367 14.9183 11.9798 15.0238 12.0852C15.1293 12.1907 15.2724 12.25 15.4216 12.25ZM12.281 12.25H13.1716C13.3208 12.25 13.4638 12.1907 13.5693 12.0852C13.6748 11.9798 13.7341 11.8367 13.7341 11.6875C13.7341 11.5383 13.6748 11.3952 13.5693 11.2898C13.4638 11.1843 13.3208 11.125 13.1716 11.125H12.281C12.1318 11.125 11.9887 11.1843 11.8832 11.2898C11.7777 11.3952 11.7185 11.5383 11.7185 11.6875C11.7185 11.8367 11.7777 11.9798 11.8832 12.0852C11.9887 12.1907 12.1318 12.25 12.281 12.25ZM9.3747 12.25H10.1247C10.2739 12.25 10.417 12.1907 10.5225 12.0852C10.6279 11.9798 10.6872 11.8367 10.6872 11.6875C10.6872 11.5383 10.6279 11.3952 10.5225 11.2898C10.417 11.1843 10.2739 11.125 10.1247 11.125H9.3747C9.22552 11.125 9.08245 11.1843 8.97696 11.2898C8.87147 11.3952 8.8122 11.5383 8.8122 11.6875C8.8122 11.8367 8.87147 11.9798 8.97696 12.0852C9.08245 12.1907 9.22552 12.25 9.3747 12.25ZM7.6872 11.6875C7.6872 11.5383 7.62794 11.3952 7.52245 11.2898C7.41696 11.1843 7.27389 11.125 7.1247 11.125H6.23408C6.0849 11.125 5.94182 11.1843 5.83633 11.2898C5.73084 11.3952 5.67158 11.5383 5.67158 11.6875C5.67158 11.8367 5.73084 11.9798 5.83633 12.0852C5.94182 12.1907 6.0849 12.25 6.23408 12.25H7.1247C7.27389 12.25 7.41696 12.1907 7.52245 12.0852C7.62794 11.9798 7.6872 11.8367 7.6872 11.6875Z" fill="#333D47" fill-opacity="0.9"/>
<path d="M0.213886 13.5798C0.250025 13.466 0.321459 13.3666 0.417843 13.2961C0.514229 13.2255 0.630562 13.1875 0.749996 13.1875H5.25C5.33731 13.1875 5.42343 13.2078 5.50153 13.2469L6.88279 13.9375H23.25C23.3459 13.9375 23.4402 13.962 23.5239 14.0087C23.6077 14.0554 23.6781 14.1227 23.7285 14.2043C23.7789 14.2858 23.8076 14.3789 23.8119 14.4747C23.8162 14.5705 23.796 14.6658 23.7531 14.7516L22.2531 17.7516C22.2064 17.845 22.1346 17.9236 22.0457 17.9785C21.9569 18.0334 21.8545 18.0625 21.75 18.0625H4.6875C4.58304 18.0625 4.48064 18.0334 4.39178 17.9785C4.30292 17.9236 4.23111 17.845 4.18439 17.7516C3.62189 16.6263 1.28025 14.8132 0.425528 14.2095C0.327965 14.1406 0.254864 14.0425 0.216814 13.9292C0.178764 13.816 0.177738 13.6936 0.213886 13.5798Z" fill="#333D47" fill-opacity="0.9"/>
<path d="M15.9375 8.875H18.5625V9.625H15.9375V8.875Z" fill="#333D47" fill-opacity="0.9"/>
<path d="M15.9375 7.75C15.9375 7.60082 15.9968 7.45774 16.1023 7.35225C16.2077 7.24676 16.3508 7.1875 16.5 7.1875H18C18.1492 7.1875 18.2923 7.24676 18.3977 7.35225C18.5032 7.45774 18.5625 7.60082 18.5625 7.75V8.125H15.9375V7.75Z" fill="#333D47" fill-opacity="0.9"/>
</svg>
