<svg width="24" height="24" viewBox="0 0 24 24" fill="none" xmlns="http://www.w3.org/2000/svg">
<path d="M24 5.67188H7.03125V7.07812H2.12119L0 11.8508V16.9219H2.93344C3.22369 17.7402 4.00523 18.3281 4.92188 18.3281C5.83852 18.3281 6.62006 17.7402 6.91031 16.9219H15.6834C15.9737 17.7402 16.7552 18.3281 17.6719 18.3281C18.2117 18.3281 18.7046 18.124 19.0781 17.7893C19.4516 18.1241 19.9445 18.3281 20.4844 18.3281C21.6475 18.3281 22.5938 17.3819 22.5938 16.2188C22.5938 15.5103 22.2423 14.8827 21.705 14.5H24V5.67188ZM1.78505 11.2969L3.03506 8.48438H4.6875V11.2969H1.78505ZM4.92188 16.9219C4.53417 16.9219 4.21875 16.6065 4.21875 16.2188C4.21875 15.831 4.53417 15.5156 4.92188 15.5156C5.30958 15.5156 5.625 15.831 5.625 16.2188C5.625 16.6065 5.30958 16.9219 4.92188 16.9219ZM15.5625 15.5156H8.4375V14.5H15.5625V15.5156ZM17.6719 16.9219C17.2842 16.9219 16.9688 16.6065 16.9688 16.2188C16.9688 15.831 17.2842 15.5156 17.6719 15.5156C18.0596 15.5156 18.375 15.831 18.375 16.2188C18.375 16.6065 18.0596 16.9219 17.6719 16.9219ZM20.4844 16.9219C20.0967 16.9219 19.7812 16.6065 19.7812 16.2188C19.7812 15.831 20.0967 15.5156 20.4844 15.5156C20.8721 15.5156 21.1875 15.831 21.1875 16.2188C21.1875 16.6065 20.8721 16.9219 20.4844 16.9219Z" fill="#333D47" fill-opacity="0.9"/>
</svg>
