<svg width="101" height="101" viewBox="0 0 101 101" fill="none" xmlns="http://www.w3.org/2000/svg">
<path d="M62.3359 41.623C63.9685 41.623 65.2949 40.2966 65.2949 38.6641V35.7051H59.377V38.6641C59.377 40.2966 60.7034 41.623 62.3359 41.623Z" fill="#475059"/>
<path d="M17.9512 29.7871H35.7051V35.7051H53.459V29.7871H71.2129V33.1351L88.9668 21.2992V11.8359H64.165L58.247 0H30.917L24.9991 11.8359H0V21.2992L17.9512 33.1351V29.7871ZM34.5751 5.91797H54.5887L57.5477 11.8359H31.6162L34.5751 5.91797Z" fill="#475059"/>
<path d="M26.8281 41.623C28.4607 41.623 29.7871 40.2966 29.7871 38.6641V35.7051H23.8691V38.6641C23.8691 40.2966 25.1956 41.623 26.8281 41.623Z" fill="#475059"/>
<path d="M77.1309 47.5407C81.3433 47.5407 85.3355 48.4548 88.9668 50.049V28.4113L71.0413 40.3618C70.2459 44.446 66.6493 47.5407 62.3359 47.5407C58.4833 47.5407 55.2296 45.0595 54.004 41.6228H35.16C33.9344 45.0595 30.6807 47.5407 26.8281 47.5407C22.5147 47.5407 18.9182 44.446 18.1228 40.3618L0 28.4113V71.2126H48.1391C50.889 57.7238 62.8423 47.5407 77.1309 47.5407Z" fill="#475059"/>
<path d="M77.1309 53.459C64.0571 53.459 53.459 64.0571 53.459 77.1309C53.459 90.2042 64.0571 101 77.1309 101C90.2046 101 101 90.2042 101 77.1309C101 64.0571 90.2046 53.459 77.1309 53.459ZM89.6805 85.4963L85.4963 89.6805L77.1309 81.3151L68.7654 89.6805L64.5812 85.4963L72.9467 77.1309L64.5812 68.7654L68.7654 64.5812L77.1309 72.9467L85.4963 64.5812L89.6805 68.7654L81.3151 77.1309L89.6805 85.4963Z" fill="#475059"/>
</svg>
