<svg width="31" height="30" viewBox="0 0 31 30" fill="none" xmlns="http://www.w3.org/2000/svg">
<g clip-path="url(#clip0)">
<path d="M30.2246 9.89586V7.66957H30.1016V5.5474H29.9804V4.79584H29.1134V5.54551C29.1134 5.54551 8.1321 5.69317 4.46895 5.54551C3.90859 5.54551 0.709244 5.86165 3.91805 10.7951C3.91805 10.7951 5.37574 13.0062 3.37852 15.4729C1.4078 17.9037 0.519933 22.8276 0.288975 24.3156H0.224609V25.2016H9.31718V24.3156V23.5016C5.38899 24.2248 12.0319 15.083 11.7366 16.6221C11.9505 16.677 12.172 16.711 12.4029 16.711H14.7693C16.2308 16.711 18.1712 15.1473 18.1712 13.684C18.1712 13.0498 17.9478 12.4686 17.5768 12.0123H29.2856L29.6642 10.619H30.1602V9.94508H30.0788L30.0997 9.89586H30.2246ZM14.7731 15.4161H12.4067C12.2326 15.4161 12.0641 15.3877 11.9051 15.3404C12.0433 14.5283 12.1493 13.8013 12.225 13.2353C12.4238 13.8922 12.8118 14.5794 13.5748 14.8766C13.6278 14.8974 13.6827 14.9069 13.7376 14.9069C13.9155 14.9069 14.0859 14.7971 14.156 14.6229C14.2449 14.3901 14.1294 14.1307 13.8985 14.0399C13.1091 13.7332 12.9519 12.5405 12.9216 12.018H15.2028C15.9468 12.2111 16.5015 12.887 16.5015 13.6896C16.5015 14.64 15.7253 15.4161 14.7731 15.4161ZM26.9136 10.6228H15.2256L17.255 9.94697H26.9136V10.6228Z" fill="#475059"/>
</g>
<defs>
<clipPath id="clip0">
<rect width="30" height="30" fill="white" transform="translate(0.224609 -0.000579834)"/>
</clipPath>
</defs>
</svg>
