<svg width="44" height="44" viewBox="0 0 44 44" fill="none" xmlns="http://www.w3.org/2000/svg">
<path d="M31.2237 3.10448C28.6814 3.10448 26.3206 3.86209 24.331 5.15042C24.6101 3.44547 24.5482 1.8574 23.8415 0.87293C21.456 -2.42697 17.4631 4.74481 15.6289 4.01196C13.7906 3.2791 9.88432 -0.550151 7.2939 1.0118C5.05134 2.36201 8.70048 11.4285 10.4632 12.7388C10.4632 12.7388 13.3066 13.4153 16.0977 13.4153C17.14 13.4153 18.0447 13.3589 18.7748 13.2888C18.6373 13.9598 18.5685 14.6555 18.5438 15.3622C17.6954 15.4379 16.8334 15.4915 15.952 15.4915C13.7548 15.4915 11.6415 15.2522 9.6602 14.815C6.17743 17.6268 0.078125 27.6213 0.078125 31.9772C0.078125 39.8337 6.99966 43.9998 15.5409 43.9998C24.078 43.9998 30.9995 39.8337 30.9995 31.9786C30.9995 31.034 30.7259 29.8199 30.2694 28.4559C30.5843 28.4821 30.9005 28.5041 31.2223 28.5041C38.2263 28.5041 43.9228 22.8062 43.9228 15.8036C43.9241 8.80368 38.2249 3.10448 31.2237 3.10448ZM20.367 34.426C20.1896 34.8069 19.9449 35.1424 19.6369 35.4297C19.3248 35.7171 18.9577 35.9508 18.53 36.1282C18.1024 36.3056 17.6418 36.4128 17.1413 36.4431V37.4935H14.8135V36.1296C14.6898 36.0732 14.5715 36.0223 14.4561 35.9715C14.3378 35.9233 14.2251 35.8697 14.1151 35.8161V36.3289H11.7873V32.8366H14.1151C14.3144 33.0593 14.5097 33.2532 14.7063 33.4113C14.9002 33.5722 15.0982 33.7097 15.3058 33.8087C15.5093 33.9159 15.7375 33.997 15.985 34.0424C16.2352 34.0933 16.5226 34.1208 16.8416 34.1208C17.2637 34.1208 17.613 34.0341 17.8893 33.8623C18.1684 33.6904 18.3059 33.4649 18.3059 33.1885C18.3059 32.9576 18.2358 32.7568 18.0914 32.5849C17.9471 32.4131 17.7614 32.2659 17.5332 32.145C17.3077 32.024 17.0575 31.9277 16.7866 31.8548C16.5157 31.782 16.2462 31.7228 15.9781 31.6802C15.0349 31.5372 14.2814 31.3145 13.7163 31.0147C13.1498 30.7164 12.7167 30.3905 12.4115 30.0344C12.1076 29.6797 11.9069 29.318 11.812 28.9441C11.7185 28.5728 11.6718 28.2456 11.6718 27.9555C11.6718 27.5333 11.7501 27.136 11.9028 26.7579C12.0581 26.3839 12.2781 26.0456 12.5614 25.7555C12.8432 25.4599 13.176 25.2165 13.5582 25.0227C13.9418 24.8274 14.3612 24.6996 14.8149 24.6349V23.535H17.1427V24.8013C17.4865 24.8989 17.7958 25.0323 18.0749 25.1973V24.6941H20.4V28.1878H18.0557C17.8673 27.9802 17.6845 27.7905 17.5085 27.6296C17.3325 27.4715 17.1427 27.3367 16.942 27.2336C16.7426 27.1305 16.5254 27.0466 16.2861 26.9902C16.0469 26.9339 15.7678 26.905 15.446 26.905C14.9813 26.905 14.6238 27.015 14.3749 27.2377C14.1261 27.4605 14.0023 27.697 14.0023 27.9541C14.0023 28.6718 14.7764 29.1517 16.3301 29.3854C17.2912 29.5284 18.0626 29.7622 18.6318 30.0921C19.201 30.4166 19.6383 30.7714 19.9366 31.155C20.235 31.5345 20.4275 31.9126 20.5114 32.2811C20.5925 32.6537 20.6351 32.9562 20.6351 33.1885C20.6337 33.6299 20.5444 34.041 20.367 34.426ZM32.2824 25.5479L31.2223 24.2857L30.1608 25.5479C25.6166 25.0584 21.9963 21.4478 21.4862 16.9063L22.8859 15.7321L21.5082 14.5716C22.0747 10.0865 25.6757 6.53638 30.1869 6.06202L31.2209 7.2926L32.2549 6.06202C36.7606 6.53775 40.3616 10.0824 40.9336 14.562L39.4486 15.805L40.9336 17.0534C40.363 21.522 36.7799 25.0639 32.2824 25.5479Z" fill="#DCFF00"/>
<path d="M32.6343 15.3157C32.5835 15.2112 32.5188 15.1149 32.4432 15.0256L31.2223 7.9624L29.9284 15.1081H29.9326C29.7428 15.3679 29.6328 15.6855 29.6328 16.0293C29.6328 16.9079 30.3464 17.6215 31.2223 17.6215C31.4051 17.6215 31.5798 17.5844 31.7434 17.5252L31.7406 17.5335L36.5502 18.0945L32.6357 15.3074L32.6343 15.3157Z" fill="#DCFF00"/>
</svg>
