<svg width="24" height="24" viewBox="0 0 24 24" fill="none" xmlns="http://www.w3.org/2000/svg">
<path d="M20.3874 8.97354L20.3512 8.92456L20.344 8.91021L17.0576 4.03156L13.7712 8.91026L13.7643 8.92395L13.7278 8.97359C13.2005 9.68778 12.9218 10.5363 12.9218 11.4274C12.9218 13.708 14.7771 15.5632 17.0576 15.5632C19.3381 15.5632 21.1934 13.7079 21.1934 11.4274C21.1935 10.5362 20.9148 9.68763 20.3874 8.97354Z" fill="#DCFF00"/>
<path d="M17.0574 16.9724C13.9999 16.9724 11.5125 14.4849 11.5125 11.4274C11.5125 10.2388 11.8827 9.10628 12.5834 8.15106L14.7438 4.94392L11.4133 0L4.47411 10.3009C3.3831 11.7857 2.80658 13.546 2.80658 15.3933C2.80658 20.139 6.66754 24 11.4133 24C15.91 24 19.6117 20.5335 19.9879 16.1326C19.1371 16.6645 18.1327 16.9724 17.0574 16.9724Z" fill="#DCFF00"/>
</svg>
