<svg width="58" height="24" viewBox="0 0 58 24" fill="none" xmlns="http://www.w3.org/2000/svg">
<path d="M18 13H13V18C13 18.55 12.55 19 12 19C11.45 19 11 18.55 11 18V13H6C5.45 13 5 12.55 5 12C5 11.45 5.45 11 6 11H11V6C11 5.45 11.45 5 12 5C12.55 5 13 5.45 13 6V11H18C18.55 11 19 11.45 19 12C19 12.55 18.55 13 18 13Z" fill="white"/>
<path d="M52 13H47V18C47 18.55 46.55 19 46 19C45.45 19 45 18.55 45 18V13H40C39.45 13 39 12.55 39 12C39 11.45 39.45 11 40 11H45V6C45 5.45 45.45 5 46 5C46.55 5 47 5.45 47 6V11H52C52.55 11 53 11.45 53 12C53 12.55 52.55 13 52 13Z" fill="white"/>
</svg>
