<svg width="885" height="127" viewBox="0 0 885 127" fill="none" xmlns="http://www.w3.org/2000/svg">
<path d="M20.9609 5.74999H53.5109L35.8109 88.4H66.2609L63.7109 101H0.710938L20.9609 5.74999ZM83.8742 42.05C88.9742 39.55 94.1742 37.75 99.4742 36.65C104.874 35.45 110.874 34.85 117.474 34.85C123.874 34.85 129.174 35.35 133.374 36.35C137.574 37.35 140.924 38.8 143.424 40.7C145.924 42.6 147.674 44.85 148.674 47.45C149.674 50.05 150.174 53 150.174 56.3C150.174 58.2 150.024 60.25 149.724 62.45C149.524 64.65 149.274 66.5 148.974 68L141.924 101H117.774L115.074 91.4H114.174C110.974 94.9 107.224 97.6 102.924 99.5C98.7242 101.3 94.5242 102.2 90.3242 102.2C87.9242 102.2 85.5742 101.85 83.2742 101.15C80.9742 100.45 78.9242 99.4 77.1242 98C75.3242 96.5 73.8742 94.65 72.7742 92.45C71.6742 90.15 71.1242 87.4 71.1242 84.2C71.1242 79 72.5242 74.9 75.3242 71.9C78.2242 68.8 81.9742 66.5 86.5742 65C91.2742 63.4 96.5242 62.4 102.324 62C108.224 61.6 114.124 61.4 120.024 61.4C120.224 60.4 120.474 59 120.774 57.2C121.074 55.3 121.224 53.65 121.224 52.25C121.224 50.45 120.724 48.8 119.724 47.3C118.824 45.7 116.874 44.9 113.874 44.9C110.374 44.9 107.774 45.95 106.074 48.05C104.474 50.05 103.424 52.5 102.924 55.4H81.0242L83.8742 42.05ZM118.374 68.45H115.674C112.774 68.45 110.274 68.85 108.174 69.65C106.174 70.35 104.524 71.3 103.224 72.5C102.024 73.7 101.124 75.05 100.524 76.55C99.9242 78.05 99.6242 79.55 99.6242 81.05C99.6242 83.45 100.224 85.25 101.424 86.45C102.724 87.65 104.224 88.25 105.924 88.25C108.024 88.25 110.074 87.5 112.074 86C114.174 84.5 115.474 82.5 115.974 80L118.374 68.45ZM196.038 46.1C198.138 44.1 200.488 42.25 203.088 40.55C205.388 39.15 208.138 37.85 211.338 36.65C214.538 35.45 218.138 34.85 222.138 34.85C226.938 34.85 230.488 35.95 232.788 38.15C235.188 40.35 236.538 43.05 236.838 46.25H237.738C240.038 44.15 242.538 42.25 245.238 40.55C247.538 39.15 250.238 37.85 253.338 36.65C256.438 35.45 259.738 34.85 263.238 34.85C268.438 34.85 272.638 36.3 275.838 39.2C279.138 42 280.788 45.65 280.788 50.15C280.788 52.45 280.388 55.5 279.588 59.3C278.788 63.1 277.888 67.25 276.888 71.75L270.588 101H241.038L249.138 61.85C249.438 60.35 249.738 58.9 250.038 57.5C250.338 56.1 250.488 54.95 250.488 54.05C250.488 52.65 250.088 51.5 249.288 50.6C248.488 49.6 247.338 49.1 245.838 49.1C243.938 49.1 242.138 49.8 240.438 51.2C238.838 52.5 237.588 53.6 236.688 54.5L226.938 101H198.888L207.138 61.85C207.338 60.55 207.588 59.25 207.888 57.95C208.188 56.55 208.338 55.3 208.338 54.2C208.338 52.7 207.938 51.5 207.138 50.6C206.438 49.6 205.338 49.1 203.838 49.1C202.038 49.1 200.288 49.75 198.588 51.05C196.988 52.35 195.738 53.45 194.838 54.35L184.938 101H154.338L167.988 36.5H192.438L195.138 46.1H196.038ZM307.837 101H283.537L304.837 0.199992H335.587L325.837 46.1H326.887C330.187 42.3 333.887 39.6 337.987 38C342.187 36.3 346.337 35.45 350.437 35.45C353.937 35.45 356.837 36 359.137 37.1C361.537 38.1 363.437 39.5 364.837 41.3C366.237 43.1 367.237 45.25 367.837 47.75C368.437 50.25 368.737 52.9 368.737 55.7C368.737 57.1 368.637 59.2 368.437 62C368.237 64.8 367.787 67.95 367.087 71.45C366.387 74.85 365.387 78.4 364.087 82.1C362.787 85.7 361.037 89 358.837 92C356.737 95 354.037 97.45 350.737 99.35C347.537 101.25 343.687 102.2 339.187 102.2C336.487 102.2 333.837 101.9 331.237 101.3C328.737 100.7 326.437 99.9 324.337 98.9C322.337 97.9 320.537 96.75 318.937 95.45C317.437 94.05 316.337 92.65 315.637 91.25H314.587L307.837 101ZM324.787 87.65C327.187 87.65 329.187 86.4 330.787 83.9C332.387 81.3 333.687 78.3 334.687 74.9C335.687 71.4 336.387 67.95 336.787 64.55C337.287 61.05 337.537 58.45 337.537 56.75C337.537 54.75 337.187 53.1 336.487 51.8C335.887 50.5 334.737 49.85 333.037 49.85C331.037 49.85 329.187 50.6 327.487 52.1C325.787 53.5 324.537 54.7 323.737 55.7L317.887 82.55C318.587 83.75 319.487 84.9 320.587 86C321.787 87.1 323.187 87.65 324.787 87.65ZM420.031 34.85C431.931 34.85 440.581 36.95 445.981 41.15C451.681 45.55 454.531 52.85 454.531 63.05C454.531 69.35 453.481 75.05 451.381 80.15C449.281 85.15 446.331 89.3 442.531 92.6C434.931 99 423.931 102.2 409.531 102.2C397.231 102.2 388.431 99.85 383.131 95.15C377.431 90.25 374.581 82.9 374.581 73.1C374.581 66.6 375.881 60.7 378.481 55.4C381.181 50.1 385.031 45.7 390.031 42.2C397.331 37.3 407.331 34.85 420.031 34.85ZM409.831 92C412.331 92 414.481 90.6 416.281 87.8C418.181 85 419.681 81.6 420.781 77.6C421.881 73.5 422.681 69.3 423.181 65C423.781 60.6 424.081 56.8 424.081 53.6C424.081 50.8 423.781 48.7 423.181 47.3C422.681 45.8 421.531 45.05 419.731 45.05C417.031 45.05 414.681 46.5 412.681 49.4C410.781 52.3 409.231 55.75 408.031 59.75C406.831 63.75 405.931 67.85 405.331 72.05C404.831 76.25 404.581 79.65 404.581 82.25C404.581 88.75 406.331 92 409.831 92ZM471.211 36.5H495.661L497.911 47.75H498.961C501.261 44.15 504.211 41.1 507.811 38.6C511.411 36.1 516.161 34.85 522.061 34.85C522.461 34.85 523.061 34.9 523.861 35C524.761 35 525.711 35.15 526.711 35.45C527.811 35.65 528.911 36 530.011 36.5C531.211 36.9 532.361 37.5 533.461 38.3L526.861 69.2H510.511C510.311 63 509.761 58.7 508.861 56.3C507.961 53.8 506.511 52.55 504.511 52.55C503.511 52.55 502.411 52.8 501.211 53.3C500.111 53.7 498.961 54.65 497.761 56.15L488.161 101H457.561L471.211 36.5ZM592.77 36.5H617.07L604.77 94.85C603.87 99.35 602.37 103.5 600.27 107.3C598.17 111.1 595.22 114.4 591.42 117.2C587.72 120 583.02 122.2 577.32 123.8C571.72 125.4 564.87 126.2 556.77 126.2C555.27 126.2 553.47 126.15 551.37 126.05C549.27 126.05 547.12 126 544.92 125.9C542.72 125.9 540.62 125.85 538.62 125.75C536.62 125.65 535.02 125.55 533.82 125.45L536.67 114.65C539.87 115.15 543.12 115.4 546.42 115.4C549.82 115.5 552.72 115.55 555.12 115.55C558.12 115.55 560.62 115.25 562.62 114.65C564.72 114.15 566.42 113.3 567.72 112.1C569.12 110.9 570.22 109.3 571.02 107.3C571.92 105.3 572.62 102.85 573.12 99.95L574.92 90.2H573.87C573.27 91.1 572.37 92.2 571.17 93.5C570.07 94.7 568.62 95.9 566.82 97.1C565.02 98.2 562.87 99.15 560.37 99.95C557.97 100.65 555.22 101 552.12 101C548.62 101 545.62 100.5 543.12 99.5C540.72 98.4 538.77 96.95 537.27 95.15C535.77 93.25 534.67 91.05 533.97 88.55C533.27 85.95 532.92 83.15 532.92 80.15C532.92 78.85 533.02 76.85 533.22 74.15C533.42 71.45 533.87 68.4 534.57 65C535.37 61.6 536.47 58.15 537.87 54.65C539.37 51.05 541.32 47.8 543.72 44.9C546.22 42 549.27 39.6 552.87 37.7C556.57 35.8 561.02 34.85 566.22 34.85C567.82 34.85 569.57 35 571.47 35.3C573.37 35.6 575.22 36.15 577.02 36.95C578.82 37.75 580.42 38.9 581.82 40.4C583.22 41.9 584.32 43.85 585.12 46.25H586.02L592.77 36.5ZM575.97 49.55C573.57 49.55 571.57 50.85 569.97 53.45C568.37 55.95 567.07 58.9 566.07 62.3C565.07 65.7 564.32 69.1 563.82 72.5C563.42 75.8 563.22 78.25 563.22 79.85C563.22 81.85 563.52 83.55 564.12 84.95C564.82 86.25 566.02 86.9 567.72 86.9C568.72 86.9 569.67 86.65 570.57 86.15C571.57 85.65 572.47 85.1 573.27 84.5C574.17 83.8 574.92 83.1 575.52 82.4C576.22 81.7 576.72 81.15 577.02 80.75L582.57 54.5C581.77 53.4 580.82 52.3 579.72 51.2C578.72 50.1 577.47 49.55 575.97 49.55ZM659.089 46.1H660.139C662.039 44.2 664.239 42.45 666.739 40.85C668.839 39.45 671.339 38.2 674.239 37.1C677.139 36 680.389 35.45 683.989 35.45C689.189 35.45 693.489 36.8 696.889 39.5C700.289 42.1 701.989 45.7 701.989 50.3C701.989 51.7 701.839 53.3 701.539 55.1C701.239 56.8 700.889 58.65 700.489 60.65C700.089 62.55 699.639 64.5 699.139 66.5C698.739 68.4 698.389 70.15 698.089 71.75L691.789 101H661.339L669.589 61.85C669.789 60.55 670.039 59.25 670.339 57.95C670.639 56.55 670.789 55.3 670.789 54.2C670.789 52.7 670.389 51.5 669.589 50.6C668.889 49.6 667.789 49.1 666.289 49.1C664.489 49.1 662.739 49.75 661.039 51.05C659.439 52.35 658.189 53.5 657.289 54.5L647.389 101H616.789L638.089 0.199992H668.839L659.089 46.1ZM735.13 101H704.68L718.33 36.5H749.08L735.13 101ZM752.98 16.85C752.98 19.15 752.48 21.15 751.48 22.85C750.58 24.55 749.33 26 747.73 27.2C746.23 28.4 744.48 29.3 742.48 29.9C740.48 30.5 738.43 30.8 736.33 30.8C732.33 30.8 728.98 29.85 726.28 27.95C723.58 26.05 722.23 23.05 722.23 18.95C722.23 16.75 722.68 14.8 723.58 13.1C724.48 11.3 725.68 9.85 727.18 8.75C728.78 7.55 730.58 6.65 732.58 6.05C734.68 5.44999 736.83 5.14999 739.03 5.14999C742.93 5.14999 746.23 6.09999 748.93 8C751.63 9.9 752.98 12.85 752.98 16.85ZM790.325 46.1C792.425 44.1 794.775 42.25 797.375 40.55C799.675 39.15 802.375 37.85 805.475 36.65C808.575 35.45 812.025 34.85 815.825 34.85C821.025 34.85 825.325 36.2 828.725 38.9C832.125 41.5 833.825 45.1 833.825 49.7C833.825 51 833.675 52.6 833.375 54.5C833.075 56.3 832.725 58.2 832.325 60.2C831.925 62.2 831.475 64.25 830.975 66.35C830.575 68.35 830.225 70.15 829.925 71.75L823.625 101H793.175L801.425 61.85C801.625 60.55 801.875 59.25 802.175 57.95C802.475 56.55 802.625 55.3 802.625 54.2C802.625 52.7 802.225 51.5 801.425 50.6C800.725 49.6 799.625 49.1 798.125 49.1C796.325 49.1 794.575 49.75 792.875 51.05C791.275 52.35 790.025 53.45 789.125 54.35L779.225 101H748.625L762.275 36.5H786.725L789.425 46.1H790.325ZM866.966 101H836.516L850.166 36.5H880.916L866.966 101ZM884.816 16.85C884.816 19.15 884.316 21.15 883.316 22.85C882.416 24.55 881.166 26 879.566 27.2C878.066 28.4 876.316 29.3 874.316 29.9C872.316 30.5 870.266 30.8 868.166 30.8C864.166 30.8 860.816 29.85 858.116 27.95C855.416 26.05 854.066 23.05 854.066 18.95C854.066 16.75 854.516 14.8 855.416 13.1C856.316 11.3 857.516 9.85 859.016 8.75C860.616 7.55 862.416 6.65 864.416 6.05C866.516 5.44999 868.666 5.14999 870.866 5.14999C874.766 5.14999 878.066 6.09999 880.766 8C883.466 9.9 884.816 12.85 884.816 16.85Z" fill="white"/>
</svg>
