<svg width="64" height="64" viewBox="0 0 64 64" fill="none" xmlns="http://www.w3.org/2000/svg">
<g clip-path="url(#clip0)">
<path d="M43.4958 21.6709L41.1624 19.3375C40.9345 19.1097 40.5654 19.1097 40.3376 19.3375C40.1097 19.5654 40.1097 19.9346 40.3376 20.1624L42.2585 22.0833L40.3376 24.0042C40.2282 24.1136 40.1667 24.2617 40.1667 24.4166V26.1666C40.1667 27.4536 41.2132 28.5 42.5 28.5V38.4166C42.5 38.7385 42.2386 39 41.9167 39C41.5948 39 41.3333 38.7385 41.3333 38.4166V37.25C41.3333 36.285 40.5483 35.5 39.5833 35.5H39V20.3334C39 19.0464 37.9536 18 36.6667 18H25C23.7132 18 22.6667 19.0464 22.6667 20.3334V41.3334C21.3798 41.3334 20.3333 42.3798 20.3333 43.6667V45.4167C20.3333 45.7391 20.5942 46.0001 20.9167 46.0001H40.75C41.0725 46.0001 41.3334 45.7391 41.3334 45.4167V43.6667C41.3334 42.3799 40.2869 41.3334 39 41.3334V36.6667H39.5834C39.9052 36.6667 40.1667 36.9282 40.1667 37.2501V38.4167C40.1667 39.3817 40.9517 40.1667 41.9167 40.1667C42.8817 40.1667 43.6667 39.3817 43.6667 38.4167V22.0834C43.6667 21.9284 43.6051 21.7803 43.4958 21.6709ZM36.6667 27.9275C36.6667 28.2499 36.4058 28.5108 36.0833 28.5108H25.5833C25.2609 28.5108 25 28.2499 25 27.9275V20.9166C25 20.5942 25.2609 20.3333 25.5833 20.3333H36.0833C36.4058 20.3333 36.6667 20.5942 36.6667 20.9166V27.9275Z" fill="url(#paint0_linear)"/>
</g>
<path d="M5.28719 16.5774L32 1.1547L58.7128 16.5774V47.4226L32 62.8453L5.28719 47.4226V16.5774Z" stroke="url(#paint1_linear)" stroke-width="2"/>
<defs>
<linearGradient id="paint0_linear" x1="32" y1="18" x2="32" y2="46.0001" gradientUnits="userSpaceOnUse">
<stop stop-color="white"/>
<stop offset="1" stop-color="#898989"/>
</linearGradient>
<linearGradient id="paint1_linear" x1="32" y1="7.45058e-08" x2="32" y2="64" gradientUnits="userSpaceOnUse">
<stop stop-color="white"/>
<stop offset="1" stop-color="#A0A0A0"/>
</linearGradient>
<clipPath id="clip0">
<rect width="28" height="28" fill="white" transform="translate(18 18)"/>
</clipPath>
</defs>
</svg>
