<svg width="64" height="64" viewBox="0 0 64 64" fill="none" xmlns="http://www.w3.org/2000/svg">
<path d="M42.5359 28.3584L43.2777 27.6166C43.4501 27.4441 43.6794 27.3491 43.9234 27.3491C44.1673 27.3491 44.3966 27.4441 44.5691 27.6166L45.7292 26.4565C45.2468 25.9741 44.6055 25.7085 43.9234 25.7085C43.2412 25.7085 42.5999 25.9741 42.1176 26.4565L40.8885 27.6855L38.6732 25.0273H29.1215L24.7465 28.8555H21.8281C19.7173 28.8555 18 30.5728 18 32.6836C18 34.7925 19.7143 36.5085 21.8225 36.5116C22.1877 37.9253 23.4738 38.9727 25 38.9727C26.5261 38.9727 27.8123 37.9253 28.1774 36.5117H36.2054C36.5706 37.9253 37.8566 38.9727 39.3828 38.9727C40.929 38.9727 42.2281 37.8972 42.5733 36.4552C44.5149 36.1323 46 34.4419 46 32.4102C46 30.3653 44.4958 28.6655 42.5359 28.3584ZM25 37.332C24.0954 37.332 23.3594 36.596 23.3594 35.6914C23.3594 34.7868 24.0954 34.0508 25 34.0508C25.9046 34.0508 26.6406 34.7868 26.6406 35.6914C26.6406 36.596 25.9046 37.332 25 37.332ZM39.3828 37.332C38.4782 37.332 37.7422 36.596 37.7422 35.6914C37.7422 34.7868 38.4782 34.0508 39.3828 34.0508C40.2875 34.0508 41.0234 34.7868 41.0234 35.6914C41.0234 36.596 40.2875 37.332 39.3828 37.332ZM42.5363 34.7868C42.1424 33.4162 40.8783 32.4102 39.3828 32.4102C37.8567 32.4102 36.5706 33.4575 36.2054 34.8711H28.1774C27.8122 33.4575 26.5261 32.4102 25 32.4102C23.4739 32.4102 22.1879 33.4574 21.8226 34.8709C20.619 34.868 19.6406 33.8879 19.6406 32.6836C19.6406 31.4774 20.6219 30.4961 21.8281 30.4961H25.3629L29.7379 26.668H37.9048L40.6392 29.9492H41.8984C43.2554 29.9492 44.3594 31.0532 44.3594 32.4102C44.3594 33.5466 43.5849 34.5051 42.5363 34.7868Z" fill="url(#paint0_linear)"/>
<path d="M5.28719 16.5774L32 1.1547L58.7128 16.5774V47.4226L32 62.8453L5.28719 47.4226V16.5774Z" stroke="url(#paint1_linear)" stroke-width="2"/>
<defs>
<linearGradient id="paint0_linear" x1="32" y1="25.0273" x2="32" y2="38.9727" gradientUnits="userSpaceOnUse">
<stop stop-color="white"/>
<stop offset="1" stop-color="#898989"/>
</linearGradient>
<linearGradient id="paint1_linear" x1="32" y1="1.66893e-06" x2="32" y2="64" gradientUnits="userSpaceOnUse">
<stop stop-color="white"/>
<stop offset="1" stop-color="#A0A0A0"/>
</linearGradient>
</defs>
</svg>
