<svg width="30" height="30" viewBox="0 0 30 30" fill="none" xmlns="http://www.w3.org/2000/svg">
<g clip-path="url(#clip0)">
<path d="M21.3119 8.28625C19.6013 8.64342 17.7686 8.85486 15.8801 8.90513V14.121H22.062C22.0051 12.0666 21.7488 10.0914 21.3119 8.28625Z" fill="white" fill-opacity="0.2"/>
<path d="M6.1803 14.1209C6.23826 11.9282 6.51263 9.81208 6.98284 7.86976C5.44299 7.43753 4.03412 6.87871 2.8123 6.20709C1.13884 8.5163 0.16496 11.242 0 14.1209H6.1803Z" fill="white" fill-opacity="0.2"/>
<path d="M6.1803 15.879H0C0.16496 18.7578 1.13884 21.4836 2.81224 23.7928C4.03406 23.1212 5.44299 22.5624 6.98284 22.1301C6.51263 20.1878 6.2382 18.0717 6.1803 15.879Z" fill="white" fill-opacity="0.2"/>
<path d="M17.5262 1.01581C16.9887 0.56113 16.4368 0.254825 15.8774 0.0977173V7.14689C17.6035 7.09884 19.2733 6.90956 20.83 6.59311C20.5443 5.71997 20.2123 4.89985 19.8356 4.14643C19.1587 2.79287 18.3817 1.73953 17.5262 1.01581Z" fill="white" fill-opacity="0.2"/>
<path d="M7.45642 23.8199C6.16961 24.1813 4.98705 24.637 3.94824 25.1782C4.08771 25.3294 4.22976 25.4787 4.37603 25.6251C6.06589 27.3149 8.08737 28.5525 10.2937 29.2775C9.67568 28.5469 9.10409 27.6647 8.59157 26.6397C8.15787 25.7723 7.77855 24.8268 7.45642 23.8199Z" fill="white" fill-opacity="0.2"/>
<path d="M10.1646 4.14643C9.78793 4.89985 9.45584 5.71997 9.17017 6.59311C10.7268 6.90956 12.3967 7.09884 14.1227 7.14689V0.0977173C13.5633 0.254884 13.0114 0.56113 12.474 1.01581C11.6184 1.73953 10.8415 2.79287 10.1646 4.14643Z" fill="white" fill-opacity="0.2"/>
<path d="M23.8174 15.879C23.7595 18.0717 23.4851 20.1878 23.0149 22.1301C24.5547 22.5624 25.9637 23.1212 27.1855 23.7928C28.8589 21.4836 29.8328 18.7579 29.9978 15.879H23.8174Z" fill="white" fill-opacity="0.2"/>
<path d="M22.5429 6.18C23.8298 5.81861 25.0123 5.36293 26.0511 4.82164C25.9116 4.67051 25.7696 4.52113 25.6233 4.37487C23.9335 2.68506 21.9119 1.44748 19.7056 0.722473C20.3236 1.45299 20.8952 2.33522 21.4077 3.3602C21.8414 4.2276 22.2208 5.17318 22.5429 6.18Z" fill="white" fill-opacity="0.2"/>
<path d="M19.8382 25.8536C20.215 25.1001 20.547 24.28 20.8327 23.4068C19.276 23.0904 17.6062 22.9011 15.8801 22.853V29.9022C16.4396 29.7451 16.9914 29.4389 17.5289 28.9841C18.3845 28.2604 19.1615 27.2072 19.8382 25.8536Z" fill="white" fill-opacity="0.2"/>
<path d="M23.0149 7.86989C23.4851 9.8122 23.7595 11.9283 23.8174 14.121H29.9978C29.8328 11.2422 28.8589 8.51643 27.1855 6.20728C25.9637 6.87884 24.5547 7.43765 23.0149 7.86989Z" fill="white" fill-opacity="0.2"/>
<path d="M15.8801 15.879V21.0948C17.7686 21.1451 19.6012 21.3565 21.3119 21.7137C21.7488 19.9085 22.0051 17.9334 22.062 15.879H15.8801Z" fill="white" fill-opacity="0.2"/>
<path d="M14.1214 14.121V8.90513C12.2329 8.85486 10.4003 8.64342 8.6896 8.28625C8.25273 10.0915 7.99641 12.0666 7.93945 14.121H14.1214Z" fill="white" fill-opacity="0.2"/>
<path d="M7.45642 6.18C7.77849 5.17312 8.15787 4.2276 8.59157 3.3602C9.10409 2.33522 9.67568 1.45293 10.2937 0.722473C8.08743 1.44748 6.06589 2.68506 4.37603 4.37493C4.22976 4.52119 4.08771 4.67056 3.94824 4.8217C4.98705 5.36293 6.16961 5.81861 7.45642 6.18Z" fill="white" fill-opacity="0.2"/>
<path d="M22.5439 23.8199C22.2218 24.8268 21.8424 25.7723 21.4087 26.6397C20.8962 27.6647 20.3246 28.5469 19.7065 29.2775C21.9129 28.5525 23.9344 27.3149 25.6243 25.6251C25.7705 25.4788 25.9126 25.3294 26.052 25.1782C25.0132 24.637 23.8307 24.1813 22.5439 23.8199Z" fill="white" fill-opacity="0.2"/>
<path d="M14.1214 15.879H7.93945C7.99641 17.9334 8.25273 19.9085 8.6896 21.7137C10.4002 21.3565 12.2329 21.1451 14.1214 21.0948V15.879Z" fill="white" fill-opacity="0.2"/>
<path d="M12.474 28.9841C13.0114 29.4388 13.5633 29.745 14.1227 29.9022V22.853C12.3967 22.9011 10.7268 23.0904 9.17017 23.4068C9.45584 24.2799 9.78788 25.1001 10.1646 25.8535C10.8415 27.2071 11.6184 28.2603 12.474 28.9841Z" fill="white" fill-opacity="0.2"/>
</g>
<defs>
<clipPath id="clip0">
<rect width="30" height="30" fill="white"/>
</clipPath>
</defs>
</svg>
