<svg width="22" height="22" viewBox="0 0 22 22" fill="none" xmlns="http://www.w3.org/2000/svg">
<g clip-path="url(#clip0)">
<path d="M21.984 4.73937C21.984 4.71424 22.0013 4.68977 22.0002 4.66492L15.2865 11.1339L21.9921 17.3962C21.996 17.3515 21.984 17.3063 21.984 17.2606V4.73937Z" fill="white"/>
<path d="M14.2617 12.1293L11.521 14.7662C11.3823 14.8997 11.2032 14.9666 11.024 14.9666C10.8485 14.9666 10.673 14.9025 10.5353 14.7742L7.80201 12.2272L1.05261 18.7329C1.21673 18.7918 1.39288 18.8376 1.57735 18.8376H20.4707C20.7446 18.8376 21.0015 18.7542 21.2249 18.6297L14.2617 12.1293Z" fill="white"/>
<path d="M11.016 13.2626L21.262 3.39274C21.03 3.25482 20.76 3.16229 20.4706 3.16229H1.57724C1.20036 3.16229 0.855026 3.30863 0.58606 3.53181L11.016 13.2626Z" fill="white"/>
<path d="M0 4.9798V17.2605C0 17.4015 0.0324021 17.5374 0.0675761 17.6673L6.73324 11.2484L0 4.9798Z" fill="white"/>
</g>
<defs>
<clipPath id="clip0">
<rect width="22" height="22" fill="white"/>
</clipPath>
</defs>
</svg>
