<svg width="30" height="30" viewBox="0 0 30 30" fill="none" xmlns="http://www.w3.org/2000/svg">
<rect width="30" height="30" rx="6" fill="#FE9304"/>
<g clip-path="url(#clip0)">
<path d="M10.2603 24.5384C10.2221 24.644 10.238 24.7617 10.3025 24.8535C10.3671 24.9454 10.4724 25 10.5847 25L12.3191 25C12.4368 25 12.5462 24.94 12.6095 24.841L18.025 16.3792L23.5423 16.3792C23.9317 16.3794 24.3029 16.2149 24.5643 15.9265C24.8259 15.638 24.9533 15.2525 24.9153 14.865C24.826 14.1454 24.2086 13.6087 23.4837 13.6208L18.025 13.6208L12.6095 5.159C12.5462 5.05997 12.4366 5 12.3191 5L10.5847 5C10.4724 5 10.3671 5.05463 10.3025 5.14648C10.238 5.23834 10.2221 5.35599 10.2601 5.46158L13.1974 13.6208L8.53146 13.6208C8.42907 13.6206 8.33203 13.5751 8.26657 13.4966L6.74923 11.6759C6.68377 11.5973 6.58673 11.5517 6.48434 11.5517L5.3851 11.5517C5.276 11.5517 5.17346 11.6032 5.10846 11.6907C5.0433 11.7781 5.02346 11.8912 5.05474 11.9957L5.92633 14.901C5.9457 14.9655 5.9457 15.0345 5.92633 15.099L5.05474 18.0043C5.02346 18.1088 5.0433 18.2219 5.10846 18.3093C5.17346 18.3968 5.276 18.4483 5.3851 18.4483L6.48419 18.4483C6.58657 18.4483 6.68362 18.4027 6.74908 18.3241L8.26641 16.5034C8.33187 16.4249 8.42892 16.3794 8.53131 16.3792L13.1974 16.3792L10.2603 24.5384Z" fill="white"/>
</g>
<defs>
<clipPath id="clip0">
<rect width="20" height="20" fill="white" transform="translate(25 5) rotate(90)"/>
</clipPath>
</defs>
</svg>
