<svg width="30" height="30" viewBox="0 0 30 30" fill="none" xmlns="http://www.w3.org/2000/svg">
<rect width="30" height="30" rx="6" fill="#FD3B31"/>
<path fill-rule="evenodd" clip-rule="evenodd" d="M20.149 6C21.7743 6.00524 23.2219 7.02862 23.7689 8.55908C24.4858 10.5651 23.4408 12.7724 21.4347 13.4893V20.7857C21.4326 22.56 19.9948 23.9979 18.2205 24H9.2205C7.44617 23.9979 6.00833 22.56 6.00623 20.7857V11.7857C6.00833 10.0114 7.44617 8.57355 9.2205 8.57144H16.5169C17.0612 7.03186 18.5161 6.00188 20.149 6ZM18.2205 22.7143C19.2856 22.7143 20.1491 21.8508 20.1491 20.7857H20.149V13.7143C18.0197 13.7122 16.294 11.9865 16.2919 9.85714H9.2205C8.15538 9.85714 7.29193 10.7206 7.29193 11.7857V20.7857C7.29193 21.8508 8.15538 22.7143 9.2205 22.7143H18.2205Z" fill="white"/>
</svg>
