<svg width="30" height="30" viewBox="0 0 30 30" fill="none" xmlns="http://www.w3.org/2000/svg">
<rect width="30" height="30" rx="6" fill="#FD2D55"/>
<g clip-path="url(#clip0)">
<path d="M16.2981 7.58589C16.1125 7.49736 15.8939 7.52083 15.7339 7.64989L10.5456 11.8003H8.06667C7.47893 11.8003 7 12.2792 7 12.867V17.1336C7 17.7224 7.47893 18.2003 8.06667 18.2003H10.5456L15.7328 22.3507C15.8299 22.4275 15.9483 22.467 16.0667 22.467C16.1456 22.467 16.2245 22.4488 16.2981 22.4136C16.4827 22.3251 16.6 22.1384 16.6 21.9336V8.06696C16.6 7.86216 16.4827 7.67549 16.2981 7.58589Z" fill="white"/>
<path d="M19.2997 11.2286C19.0896 11.0216 18.7525 11.0248 18.5456 11.2328C18.3387 11.443 18.3408 11.78 18.5499 11.988C19.3563 12.7838 19.8 13.8536 19.8 15.0003C19.8 16.147 19.3563 17.2169 18.5499 18.0126C18.3408 18.2185 18.3387 18.5566 18.5456 18.7667C18.6501 18.8723 18.7877 18.9246 18.9243 18.9246C19.0597 18.9246 19.1952 18.8734 19.2997 18.7699C20.3109 17.7747 20.8667 16.435 20.8667 15.0003C20.8667 13.5656 20.3109 12.2259 19.2997 11.2286Z" fill="white"/>
<path d="M20.8048 9.72564C20.5947 9.51764 20.2576 9.51977 20.0496 9.72884C19.8427 9.9379 19.8448 10.276 20.0528 10.483C21.2656 11.6851 21.9334 13.2894 21.9334 15.0003C21.9334 16.7112 21.2656 18.3144 20.0528 19.5166C19.8448 19.7246 19.8427 20.0627 20.0496 20.2718C20.1552 20.3763 20.2918 20.4286 20.4283 20.4286C20.5638 20.4286 20.7003 20.3774 20.8048 20.2739C22.2214 18.8712 23 16.9982 23 15.0003C23 13.0024 22.2214 11.1294 20.8048 9.72564Z" fill="white"/>
</g>
<defs>
<clipPath id="clip0">
<rect width="16" height="16" fill="white" transform="translate(7 7)"/>
</clipPath>
</defs>
</svg>
