<svg width="26" height="26" viewBox="0 0 26 26" fill="none" xmlns="http://www.w3.org/2000/svg">
<path d="M22.198 3.80609C17.1287 -1.26325 8.87761 -1.26325 3.80828 3.80609C1.35267 6.26266 0 9.52808 0 13.0009C0 16.4738 1.35267 19.7392 3.80828 22.1948C6.34345 24.73 9.67331 25.9971 13.0031 25.9971C16.3329 25.9971 19.6628 24.73 22.198 22.1948C27.2673 17.1255 27.2673 8.8764 22.198 3.80609ZM20.7738 20.7706C16.4891 25.0553 9.51716 25.0553 5.23245 20.7706C3.15761 18.6958 2.01441 15.936 2.01441 13.0009C2.01441 10.0659 3.15761 7.30613 5.23245 5.23027C9.51716 0.945558 16.4891 0.946573 20.7738 5.23027C25.0575 9.51498 25.0575 16.4869 20.7738 20.7706Z" fill="white" fill-opacity="0.3"/>
<path d="M17.3432 15.7843L14.4918 12.9369L17.3432 10.0895C17.736 9.69674 17.736 9.05918 17.3443 8.66531C16.9504 8.27049 16.3129 8.2715 15.9191 8.6643L13.0656 11.5137L10.2122 8.6643C9.8184 8.2715 9.18084 8.27049 8.78702 8.66531C8.39423 9.05913 8.39423 9.69669 8.78804 10.0895L11.6395 12.9369L8.78804 15.7843C8.39423 16.1771 8.39423 16.8147 8.78702 17.2085C8.98345 17.4059 9.24228 17.5036 9.50015 17.5036C9.75802 17.5036 10.0158 17.4049 10.2123 17.2095L13.0657 14.3601L15.9191 17.2095C16.1155 17.4059 16.3734 17.5036 16.6312 17.5036C16.8891 17.5036 17.1479 17.4049 17.3444 17.2085C17.7371 16.8147 17.7371 16.1771 17.3432 15.7843Z" fill="white" fill-opacity="0.3"/>
</svg>
