<svg width="34" height="34" viewBox="0 0 34 34" fill="none" xmlns="http://www.w3.org/2000/svg">
<path d="M17 2.83325C9.16584 2.83325 2.83334 9.16575 2.83334 16.9999C2.83334 24.8341 9.16584 31.1666 17 31.1666C24.8342 31.1666 31.1667 24.8341 31.1667 16.9999C31.1667 9.16575 24.8342 2.83325 17 2.83325ZM23.0917 23.0916C22.5392 23.6441 21.6467 23.6441 21.0942 23.0916L17 18.9974L12.9058 23.0916C12.3533 23.6441 11.4608 23.6441 10.9083 23.0916C10.3558 22.5391 10.3558 21.6466 10.9083 21.0941L15.0025 16.9999L10.9083 12.9058C10.3558 12.3533 10.3558 11.4608 10.9083 10.9083C11.4608 10.3558 12.3533 10.3558 12.9058 10.9083L17 15.0024L21.0942 10.9083C21.6467 10.3558 22.5392 10.3558 23.0917 10.9083C23.6442 11.4608 23.6442 12.3533 23.0917 12.9058L18.9975 16.9999L23.0917 21.0941C23.63 21.6324 23.63 22.5391 23.0917 23.0916Z" fill="white" fill-opacity="0.8"/>
</svg>
