<svg width="34" height="34" viewBox="0 0 34 34" fill="none" xmlns="http://www.w3.org/2000/svg">
<path d="M25.925 8.08919C25.3725 7.53669 24.48 7.53669 23.9275 8.08919L17 15.0025L10.0725 8.07502C9.52002 7.52252 8.62752 7.52252 8.07502 8.07502C7.52252 8.62752 7.52252 9.52002 8.07502 10.0725L15.0025 17L8.07502 23.9275C7.52252 24.48 7.52252 25.3725 8.07502 25.925C8.62752 26.4775 9.52002 26.4775 10.0725 25.925L17 18.9975L23.9275 25.925C24.48 26.4775 25.3725 26.4775 25.925 25.925C26.4775 25.3725 26.4775 24.48 25.925 23.9275L18.9975 17L25.925 10.0725C26.4633 9.53419 26.4633 8.62752 25.925 8.08919Z" fill="white" fill-opacity="0.7"/>
</svg>
