<svg width="50" height="50" viewBox="0 0 50 50" fill="none" xmlns="http://www.w3.org/2000/svg">
<path d="M32.7785 20.3137L27.6196 20.2671L24.9999 15.8228L22.3803 20.2671L17.2214 20.3137L19.7606 24.8046L17.2214 29.2955L22.3803 29.3421L24.9999 33.7864L27.6196 29.3421L32.7785 29.2955L30.2393 24.8046L32.7785 20.3137Z" fill="white"/>
<path d="M45.148 20.9963C43.6574 16.5304 43.5961 11.7108 44.9727 7.2085L45.9255 4.09199L41.8334 0C36.2224 3.23965 30.6112 3.23965 25.0002 0C19.3892 3.23965 13.778 3.23965 8.167 0L4.07491 4.09209L5.02774 7.20859C6.40431 11.7109 6.34298 16.5305 4.85245 20.9964C1.60255 30.7334 6.20421 41.3557 15.5303 45.6448L25.0002 50L34.4702 45.6447C43.7962 41.3557 48.3979 30.7333 45.148 20.9963ZM37.7752 32.1802L29.3026 32.2566L25.0002 39.556L20.6977 32.2567L12.2251 32.1803L16.3952 24.8047L12.2251 17.4291L20.6977 17.3526L25.0002 10.0532L29.3027 17.3524L37.7753 17.4289L33.6052 24.8045L37.7752 32.1802Z" fill="white"/>
</svg>
