<svg width="34" height="34" viewBox="0 0 34 34" fill="none" xmlns="http://www.w3.org/2000/svg">
<path d="M17 4.66993C18.1003 4.66993 18.9922 3.77799 18.9922 2.67774C18.9922 1.57748 18.1003 0.685547 17 0.685547C15.8997 0.685547 15.0078 1.57748 15.0078 2.67774C15.0078 3.77799 15.8997 4.66993 17 4.66993Z" fill="#8DA997"/>
<path d="M1.99219 15.3477C3.09244 15.3477 3.98438 14.4557 3.98438 13.3555C3.98438 12.2552 3.09244 11.3633 1.99219 11.3633C0.891933 11.3633 0 12.2552 0 13.3555C0 14.4557 0.891933 15.3477 1.99219 15.3477Z" fill="#8DA997"/>
<path d="M26.6558 33.3135C27.756 33.3135 28.648 32.4215 28.648 31.3213C28.648 30.221 27.756 29.3291 26.6558 29.3291C25.5555 29.3291 24.6636 30.221 24.6636 31.3213C24.6636 32.4215 25.5555 33.3135 26.6558 33.3135Z" fill="#8DA997"/>
<path d="M32.0078 15.3477C33.1081 15.3477 34 14.4557 34 13.3555C34 12.2552 33.1081 11.3633 32.0078 11.3633C30.9076 11.3633 30.0156 12.2552 30.0156 13.3555C30.0156 14.4557 30.9076 15.3477 32.0078 15.3477Z" fill="#8DA997"/>
<path d="M7.34421 33.3135C8.44446 33.3135 9.3364 32.4215 9.3364 31.3213C9.3364 30.221 8.44446 29.3291 7.34421 29.3291C6.24395 29.3291 5.35202 30.221 5.35202 31.3213C5.35202 32.4215 6.24395 33.3135 7.34421 33.3135Z" fill="#8DA997"/>
<path d="M17 12.0381C13.5031 12.0381 10.6582 14.883 10.6582 18.3799C10.6582 21.8768 13.5031 24.7217 17 24.7217C20.4969 24.7217 23.3418 21.8768 23.3418 18.3799C23.3418 14.883 20.4969 12.0381 17 12.0381ZM17 22.0322C14.9861 22.0322 13.3477 20.3938 13.3477 18.3799C13.3477 16.366 14.9861 14.7275 17 14.7275C19.0139 14.7275 20.6523 16.366 20.6523 18.3799C20.6523 20.3938 19.0139 22.0322 17 22.0322Z" fill="#8DA997"/>
<path d="M17 20.0401C17.9169 20.0401 18.6602 19.2968 18.6602 18.3799C18.6602 17.463 17.9169 16.7197 17 16.7197C16.0831 16.7197 15.3398 17.463 15.3398 18.3799C15.3398 19.2968 16.0831 20.0401 17 20.0401Z" fill="#8DA997"/>
<path d="M28.0234 13.3562C28.0234 13.0371 28.0622 12.727 28.1334 12.4294L21.9913 11.5369L19.2432 5.96875C18.6038 6.40604 17.8314 6.66236 16.9999 6.66236C16.1685 6.66236 15.396 6.40604 14.7567 5.96875L12.0086 11.5369L5.86654 12.4294C5.93773 12.727 5.97651 13.0371 5.97651 13.3562C5.97651 14.6741 5.33284 15.8442 4.34378 16.5698L8.91286 21.031L7.83343 27.3688C9.35141 27.5557 10.6075 28.5989 11.1019 29.9994L16.9999 26.8987L22.898 29.9994C23.3924 28.5989 24.6485 27.5557 26.1665 27.3688L25.087 21.031L29.6561 16.5698C28.6671 15.8442 28.0234 14.6741 28.0234 13.3562ZM16.9999 26.7138C12.4046 26.7138 8.66596 22.9752 8.66596 18.3798C8.66596 13.7844 12.4046 10.0458 16.9999 10.0458C21.5953 10.0458 25.3339 13.7844 25.3339 18.3798C25.3339 22.9752 21.5953 26.7138 16.9999 26.7138Z" fill="#8DA997"/>
</svg>
