<svg width="34" height="34" viewBox="0 0 34 34" fill="none" xmlns="http://www.w3.org/2000/svg">
<path d="M17 4.66993C18.1003 4.66993 18.9922 3.77799 18.9922 2.67774C18.9922 1.57748 18.1003 0.685547 17 0.685547C15.8997 0.685547 15.0078 1.57748 15.0078 2.67774C15.0078 3.77799 15.8997 4.66993 17 4.66993Z" fill="#FB7712"/>
<path d="M1.99219 15.3481C3.09244 15.3481 3.98438 14.4562 3.98438 13.356C3.98438 12.2557 3.09244 11.3638 1.99219 11.3638C0.891933 11.3638 0 12.2557 0 13.356C0 14.4562 0.891933 15.3481 1.99219 15.3481Z" fill="#FB7712"/>
<path d="M26.6558 33.314C27.756 33.314 28.648 32.422 28.648 31.3218C28.648 30.2215 27.756 29.3296 26.6558 29.3296C25.5555 29.3296 24.6636 30.2215 24.6636 31.3218C24.6636 32.422 25.5555 33.314 26.6558 33.314Z" fill="#FB7712"/>
<path d="M32.0078 15.3481C33.1081 15.3481 34 14.4562 34 13.356C34 12.2557 33.1081 11.3638 32.0078 11.3638C30.9076 11.3638 30.0156 12.2557 30.0156 13.356C30.0156 14.4562 30.9076 15.3481 32.0078 15.3481Z" fill="#FB7712"/>
<path d="M7.34421 33.314C8.44446 33.314 9.3364 32.422 9.3364 31.3218C9.3364 30.2215 8.44446 29.3296 7.34421 29.3296C6.24395 29.3296 5.35202 30.2215 5.35202 31.3218C5.35202 32.422 6.24395 33.314 7.34421 33.314Z" fill="#FB7712"/>
<path d="M17 12.0376C13.5031 12.0376 10.6582 14.8825 10.6582 18.3794C10.6582 21.8763 13.5031 24.7212 17 24.7212C20.4969 24.7212 23.3418 21.8763 23.3418 18.3794C23.3418 14.8825 20.4969 12.0376 17 12.0376ZM17 22.0317C14.9861 22.0317 13.3477 20.3933 13.3477 18.3794C13.3477 16.3655 14.9861 14.7271 17 14.7271C19.0139 14.7271 20.6523 16.3655 20.6523 18.3794C20.6523 20.3933 19.0139 22.0317 17 22.0317Z" fill="#FB7712"/>
<path d="M17 20.0396C17.9169 20.0396 18.6602 19.2963 18.6602 18.3794C18.6602 17.4625 17.9169 16.7192 17 16.7192C16.0831 16.7192 15.3398 17.4625 15.3398 18.3794C15.3398 19.2963 16.0831 20.0396 17 20.0396Z" fill="#FB7712"/>
<path d="M28.0234 13.3557C28.0234 13.0366 28.0622 12.7265 28.1334 12.4289L21.9913 11.5364L19.2432 5.96826C18.6038 6.40555 17.8314 6.66188 16.9999 6.66188C16.1685 6.66188 15.396 6.40555 14.7567 5.96826L12.0086 11.5364L5.86654 12.4289C5.93773 12.7266 5.97651 13.0366 5.97651 13.3557C5.97651 14.6737 5.33284 15.8437 4.34378 16.5694L8.91286 21.0305L7.83343 27.3683C9.35141 27.5552 10.6075 28.5984 11.1019 29.999L16.9999 26.8982L22.898 29.999C23.3924 28.5984 24.6485 27.5552 26.1665 27.3683L25.087 21.0305L29.6561 16.5694C28.6671 15.8437 28.0234 14.6737 28.0234 13.3557ZM16.9999 26.7133C12.4046 26.7133 8.66596 22.9747 8.66596 18.3793C8.66596 13.7839 12.4046 10.0453 16.9999 10.0453C21.5953 10.0453 25.3339 13.7839 25.3339 18.3793C25.3339 22.9747 21.5953 26.7133 16.9999 26.7133Z" fill="#FB7712"/>
</svg>
