<svg width="34" height="34" viewBox="0 0 34 34" fill="none" xmlns="http://www.w3.org/2000/svg">
<path d="M17 4.67017C18.1003 4.67017 18.9922 3.77824 18.9922 2.67798C18.9922 1.57772 18.1003 0.685791 17 0.685791C15.8997 0.685791 15.0078 1.57772 15.0078 2.67798C15.0078 3.77824 15.8997 4.67017 17 4.67017Z" fill="#FFD130"/>
<path d="M1.99219 15.3484C3.09244 15.3484 3.98438 14.4565 3.98438 13.3562C3.98438 12.2559 3.09244 11.364 1.99219 11.364C0.891933 11.364 0 12.2559 0 13.3562C0 14.4565 0.891933 15.3484 1.99219 15.3484Z" fill="#FFD130"/>
<path d="M26.6558 33.3142C27.756 33.3142 28.6479 32.4223 28.6479 31.322C28.6479 30.2218 27.756 29.3298 26.6558 29.3298C25.5555 29.3298 24.6636 30.2218 24.6636 31.322C24.6636 32.4223 25.5555 33.3142 26.6558 33.3142Z" fill="#FFD130"/>
<path d="M32.0078 15.3484C33.1081 15.3484 34 14.4565 34 13.3562C34 12.2559 33.1081 11.364 32.0078 11.364C30.9076 11.364 30.0156 12.2559 30.0156 13.3562C30.0156 14.4565 30.9076 15.3484 32.0078 15.3484Z" fill="#FFD130"/>
<path d="M7.34424 33.3142C8.44449 33.3142 9.33643 32.4223 9.33643 31.322C9.33643 30.2218 8.44449 29.3298 7.34424 29.3298C6.24398 29.3298 5.35205 30.2218 5.35205 31.322C5.35205 32.4223 6.24398 33.3142 7.34424 33.3142Z" fill="#FFD130"/>
<path d="M17 12.0381C13.5031 12.0381 10.6582 14.883 10.6582 18.3799C10.6582 21.8768 13.5031 24.7217 17 24.7217C20.4969 24.7217 23.3418 21.8768 23.3418 18.3799C23.3418 14.883 20.4969 12.0381 17 12.0381ZM17 22.0322C14.9861 22.0322 13.3477 20.3938 13.3477 18.3799C13.3477 16.366 14.9861 14.7275 17 14.7275C19.0139 14.7275 20.6523 16.366 20.6523 18.3799C20.6523 20.3938 19.0139 22.0322 17 22.0322Z" fill="#FFD130"/>
<path d="M17 20.0401C17.9169 20.0401 18.6602 19.2968 18.6602 18.3799C18.6602 17.463 17.9169 16.7197 17 16.7197C16.0831 16.7197 15.3398 17.463 15.3398 18.3799C15.3398 19.2968 16.0831 20.0401 17 20.0401Z" fill="#FFD130"/>
<path d="M28.0234 13.3562C28.0234 13.0371 28.0621 12.727 28.1333 12.4294L21.9913 11.5369L19.2432 5.96875C18.6038 6.40604 17.8313 6.66236 16.9999 6.66236C16.1685 6.66236 15.396 6.40604 14.7566 5.96875L12.0086 11.5369L5.86651 12.4294C5.9377 12.727 5.97648 13.0371 5.97648 13.3562C5.97648 14.6741 5.3328 15.8442 4.34375 16.5698L8.91283 21.031L7.8334 27.3688C9.35138 27.5557 10.6075 28.5989 11.1019 29.9994L16.9999 26.8987L22.8979 29.9994C23.3924 28.5989 24.6485 27.5557 26.1664 27.3688L25.087 21.031L29.6561 16.5698C28.667 15.8442 28.0234 14.6741 28.0234 13.3562ZM16.9999 26.7138C12.4045 26.7138 8.66593 22.9752 8.66593 18.3798C8.66593 13.7844 12.4045 10.0458 16.9999 10.0458C21.5953 10.0458 25.3339 13.7844 25.3339 18.3798C25.3339 22.9752 21.5953 26.7138 16.9999 26.7138Z" fill="#FFD130"/>
</svg>
