<svg width="40" height="40" viewBox="0 0 40 40" fill="none" xmlns="http://www.w3.org/2000/svg">
<g clip-path="url(#clip0)">
<path d="M39.9986 27.3658C39.8498 24.5406 36.9919 23.1472 34.7759 24.1698C33.9735 24.5406 33.8937 24.736 30.3791 28.2503C30.3791 28.2503 30.3682 28.644 30.3682 28.8335C30.3682 31.5082 28.1921 33.6843 25.5174 33.6843C20.3128 33.6843 20.6908 33.6796 20.6666 33.6937V31.3454H25.5197C27.5972 31.3454 28.7423 28.9827 27.5228 27.336C27.1041 26.7635 26.4014 26.3581 25.6137 26.3357C25.2951 26.3247 24.6665 26.3216 23.9761 26.3224L22.0623 28.2214C20.9478 29.3261 19.1423 29.3314 18.0232 28.2253L13.9348 24.187C11.9708 24.1604 10.0022 24.6269 8.21199 25.5858C7.79979 25.8095 7.32199 26.0016 6.81084 26.1329C5.76272 26.4032 5.56428 26.3357 0.079834 26.3357V37.4509C1.27974 37.4509 5.74197 37.4651 5.95919 37.4736C7.38617 37.5715 8.77558 37.9911 10.0225 38.7034C11.4566 39.5221 13.0808 39.9558 14.7387 39.9558C29.1463 39.9558 28.3768 39.9832 28.5709 39.8971C28.9381 39.7405 29.3232 39.4736 38.714 30.3121C39.5632 29.5011 40.03 28.6233 39.9986 27.3658Z" fill="white"/>
<path d="M22.9318 14.3594C21.5651 14.3594 20.833 14.9427 20.0285 15.4858L19.3718 15.0419C17.8412 14.0064 15.6877 14.1298 14.2815 15.5374C12.712 17.1061 12.7144 19.661 14.2861 21.2328C20.2096 27.0848 19.7402 26.7036 20.0403 26.7036C20.3293 26.7036 19.8828 27.0754 25.7764 21.2274C28.2884 18.7178 26.5278 14.3594 22.9318 14.3594Z" fill="white"/>
<path d="M0.12282 13.4318C0.61612 15.5299 3.09232 16.8149 5.22646 15.8302C6.03451 15.4567 6.14574 15.2268 9.62326 11.7496C9.62326 11.7496 9.63422 11.3559 9.63422 11.1665C9.63422 8.49174 11.8103 6.31565 14.485 6.31565C19.6896 6.31565 19.3116 6.32034 19.3358 6.30625V8.65455H14.4827C11.9153 8.65455 11.0311 12.077 13.2349 13.3355C15.2501 11.774 17.929 11.6304 20.0286 12.7069C23.105 11.1308 27.0336 12.2948 28.6484 15.5617C31.7385 14.9111 32.1647 13.6643 34.79 13.6643H39.9226V2.54897C38.3823 2.54897 39.5916 2.55234 34.2835 2.53097C33.0994 2.53097 31.4322 2.12612 29.9799 1.29655C28.5459 0.477774 26.9216 0.0441214 25.2637 0.0441214C10.8561 0.0441214 11.6256 0.0167245 11.4314 0.102829C10.6774 0.424389 0.970713 10.0009 0.963512 10.0087C0.0971455 10.9544 -0.190286 12.2486 0.12282 13.4318Z" fill="white"/>
</g>
<defs>
<clipPath id="clip0">
<rect width="40" height="40" fill="white"/>
</clipPath>
</defs>
</svg>
