<svg width="40" height="40" viewBox="0 0 40 40" fill="none" xmlns="http://www.w3.org/2000/svg">
<path d="M20.0013 23.3334C20.9389 23.3334 22.3124 20.3632 22.4704 15.8334H17.5322C17.6902 20.3631 19.0637 23.3334 20.0013 23.3334Z" fill="white"/>
<path d="M22.6676 7.14468C23.562 8.89109 24.0645 11.4922 24.1506 14.1666H28.2481C27.9155 10.882 25.6935 8.17695 22.6676 7.14468Z" fill="white"/>
<path d="M11.7516 14.1666H15.8491C15.9352 11.4922 16.4377 8.89109 17.3321 7.14468C14.3061 8.17695 12.0842 10.882 11.7516 14.1666Z" fill="white"/>
<path d="M20.0013 6.66663C19.0637 6.66663 17.6902 9.63678 17.5322 14.1666H22.4704C22.3124 9.63686 20.9389 6.66663 20.0013 6.66663Z" fill="white"/>
<path d="M31.6666 0H8.33336C6.49492 0 5 1.49492 5 3.33336V36.6667C5 38.5051 6.49492 40 8.33336 40H31.6667C33.5051 40 35 38.5051 35 36.6666V3.33336C35 1.49492 33.5051 0 31.6666 0ZM25.8334 35H14.1666C13.706 35 13.3333 34.6273 13.3333 34.1666C13.3333 33.706 13.706 33.3333 14.1666 33.3333H25.8333C26.2939 33.3333 26.6666 33.706 26.6666 34.1666C26.6666 34.6273 26.294 35 25.8334 35ZM29.1666 30H10.8334C10.3727 30 10 29.6273 10 29.1666C10 28.706 10.3727 28.3333 10.8334 28.3333H29.1667C29.6273 28.3333 30.0001 28.706 30.0001 29.1666C30 29.6273 29.6273 30 29.1666 30ZM20 25C14.4857 25 10 20.5143 10 15C10 9.4857 14.4857 5 20 5C25.5143 5 30 9.4857 30 15C30 20.5143 25.5143 25 20 25Z" fill="white"/>
<path d="M22.6676 22.8553C25.6935 21.823 27.9155 19.1179 28.2481 15.8334H24.1506C24.0645 18.5078 23.562 21.1089 22.6676 22.8553Z" fill="white"/>
<path d="M11.7516 15.8334C12.0842 19.118 14.3061 21.8231 17.3321 22.8553C16.4377 21.1089 15.9352 18.5078 15.8491 15.8334H11.7516Z" fill="white"/>
</svg>
