<svg width="30" height="30" viewBox="0 0 30 30" fill="none" xmlns="http://www.w3.org/2000/svg">
<path d="M14.718 0C8.67031 0 3.75024 5.00849 3.75024 11.1648C3.75024 14.6083 5.49189 18.788 8.92695 23.5877C11.4407 27.1002 13.9179 29.6054 14.0221 29.7104C14.2137 29.9033 14.4658 30 14.7181 30C14.9632 30 15.2084 29.9087 15.3985 29.7256C15.5029 29.625 17.9863 27.2213 20.5049 23.7572C23.9427 19.0287 25.6858 14.792 25.6858 11.1647C25.6857 5.00849 20.7655 0 14.718 0ZM14.718 15.9848C11.7613 15.9848 9.35598 13.5794 9.35598 10.6228C9.35598 7.66619 11.7614 5.26079 14.718 5.26079C17.6745 5.26079 20.0799 7.66619 20.0799 10.6228C20.0799 13.5794 17.6745 15.9848 14.718 15.9848Z" fill="white" fill-opacity="0.2"/>
</svg>
