<?xml version='1.0' encoding='iso-8859-1'?>
<svg version="1.1" xmlns="http://www.w3.org/2000/svg" viewBox="0 0 264 264" xmlns:xlink="http://www.w3.org/1999/xlink" enable-background="new 0 0 264 264">
  <g>
    <path d="m214.5,148.5v-66c0-45.563-36.937-82.5-82.5-82.5s-82.5,36.937-82.5,82.5v66c0,18.865 7,36.24 17,50.138v32.362h-6.667c-5.522,0-10.333,4.477-10.333,10v13c0,5.523 4.811,10 10.333,10h145c5.523,0 9.667-4.477 9.667-10v-13c0-5.523-4.145-10-9.667-10h-6.333v-33.688c10-13.669 16-30.543 16-48.812zm-66-49.5h50v33h-50v-33zm-82,0h50v33h-50v-33z"/>
  </g>
</svg>
