<?xml version="1.0" encoding="iso-8859-1"?>
<!-- Generator: Adobe Illustrator 19.0.0, SVG Export Plug-In . SVG Version: 6.00 Build 0)  -->
<svg version="1.1" id="Capa_1" xmlns="http://www.w3.org/2000/svg" xmlns:xlink="http://www.w3.org/1999/xlink" x="0px" y="0px"
	 viewBox="0 0 400.002 400.002" style="enable-background:new 0 0 400.002 400.002;" xml:space="preserve">
<g>
	<g>
		<g>
			<path d="M131.352,215.293h139.3c7.03,0,11.352-7.155,11.352-14.186V77.293h-52.55c-10.132,0-19.454-9.354-19.454-19.486V8.293
				h-78.648c-7.03,0-13.352,4.3-13.352,11.333v181.481C118,208.138,124.322,215.293,131.352,215.293z M151.11,103.293h41.19
				c4.418,0,8,3.582,8,8s-3.582,8-8,8h-41.19c-4.418,0-8-3.582-8-8S146.692,103.293,151.11,103.293z M151.11,139.293h96.767
				c4.418,0,8,3.582,8,8s-3.582,8-8,8H151.11c-4.418,0-8-3.582-8-8S146.692,139.293,151.11,139.293z M151.11,175.293h96.767
				c4.418,0,8,3.582,8,8s-3.582,8-8,8H151.11c-4.418,0-8-3.582-8-8S146.692,175.293,151.11,175.293z"/>
			<path d="M76.49,327.026c-17.862-0.001-32.342,14.479-32.343,32.341s14.479,32.342,32.341,32.343s32.342-14.479,32.343-32.341
				c0,0,0-0.001,0-0.001C108.811,341.514,94.343,327.046,76.49,327.026z"/>
			<path d="M229.454,61.293h44.377L226,16.017v41.79C226,59.116,228.145,61.293,229.454,61.293z"/>
			<path d="M387.489,284.231l-37.2-16.938c-1.408-0.652-2.59-1.71-3.394-3.037l-32.656-51.281
				c-3.765-6.028-9.504-10.565-16.239-12.836v0.968c0,15.853-11.5,30.186-27.352,30.186h-139.3c-4.245,0-8.293-1.65-11.923-3.308
				l-28.645,37.12c-1.09,1.366-2.602,2.332-4.3,2.746l-69.707,18.826C7.285,289.27,0,297.893,0,307.724v25.248
				c0,12.066,11.133,23.321,23.2,23.321h5.167c2.489-26.578,26.052-46.106,52.63-43.617c23.133,2.166,41.451,20.485,43.617,43.617
				h147.792c2.489-26.578,26.052-46.106,52.63-43.618c23.133,2.166,41.451,20.485,43.617,43.618H378.8
				c12.066,0,21.2-11.255,21.2-23.321v-28.82C400.118,295.627,395.219,287.827,387.489,284.231z"/>
			<path d="M320.53,327.026c-17.862-0.001-32.342,14.479-32.343,32.341s14.479,32.342,32.341,32.343s32.342-14.479,32.343-32.341
				c0,0,0-0.001,0-0.001C352.851,341.514,338.383,327.046,320.53,327.026z"/>
		</g>
	</g>
</g>
<g>
</g>
<g>
</g>
<g>
</g>
<g>
</g>
<g>
</g>
<g>
</g>
<g>
</g>
<g>
</g>
<g>
</g>
<g>
</g>
<g>
</g>
<g>
</g>
<g>
</g>
<g>
</g>
<g>
</g>
</svg>
