<svg id="Capa_1" enable-background="new 0 0 510 510" height="512" viewBox="0 0 510 510" width="512" xmlns="http://www.w3.org/2000/svg"><g><path d="m465 60.5h-420c-24.813 0-45 20.187-45 45v299c0 24.813 20.187 45 45 45h420c24.813 0 45-20.187 45-45v-299c0-24.813-20.187-45-45-45zm-420 30h420c8.271 0 15 6.729 15 15v75c-18.883 0-438.129 0-450 0v-75c0-8.271 6.729-15 15-15zm45 120h120v120.052c-6.091-8.11-13.795-14.934-22.618-20.03 19.861-29.575-1.287-70.022-37.382-70.022-24.813 0-45 20.187-45 45 0 9.254 2.81 17.862 7.618 25.022-8.823 5.096-16.527 11.92-22.618 20.03zm45 75c0-8.271 6.729-15 15-15s15 6.729 15 15-6.729 15-15 15-15-6.729-15-15zm57.43 75h-84.86c14.141-39.885 70.707-39.92 84.86 0zm272.57 59h-420c-8.271 0-15-6.729-15-15v-194h30v165c0 8.284 6.716 15 15 15h150c8.284 0 15-6.716 15-15v-165h240v194c0 8.271-6.729 15-15 15z"/><path d="m285 270.5h150c8.284 0 15-6.716 15-15s-6.716-15-15-15h-150c-8.284 0-15 6.716-15 15s6.716 15 15 15z"/><path d="m435 360h-150c-8.284 0-15 6.716-15 15s6.716 15 15 15h150c8.284 0 15-6.716 15-15s-6.716-15-15-15z"/><path d="m435.05 300.5h-150.05c-8.284 0-15 6.716-15 15s6.716 15 15 15h150.05c8.284 0 15-6.716 15-15s-6.716-15-15-15z"/><path d="m135 150.5h240c8.284 0 15-6.716 15-15s-6.716-15-15-15h-240c-8.284 0-15 6.716-15 15s6.716 15 15 15z"/></g></svg>