<svg id="Layer_2" enable-background="new 0 0 512 512" height="512" viewBox="0 0 512 512" width="512" xmlns="http://www.w3.org/2000/svg"><g><g><g><path d="m23.276 241.13h57.724v27.707h-57.724z" fill="#6e83b7"/></g><g><path d="m23.276 241.13h57.724v5.772h-57.724z" fill="#466089"/></g><g><path d="m211.697 138.382h28.621v23.667h-28.621z" fill="#edeff1"/></g><g><path d="m217.18 138.382h-5.483v23.667h10.496z" fill="#d3d3d3"/></g><g><path d="m10.577 138.382h28.526v23.667h-28.526z" fill="#edeff1"/></g><g><path d="m33.619 138.382h5.484v23.667h-10.496z" fill="#d3d3d3"/></g><g><path d="m217.564 162.049h-184.233l17.317-72.732h149.599z" fill="#edeff1"/></g><g><path d="m40.639 156.276 14.568-61.187h140.48l14.568 61.187z" fill="#80d6fb"/></g><g><path d="m17.745 162.049h215.404v54.837h-215.404z" fill="#6e83b7"/></g><g><path d="m53.534 184.561h143.826v32.325h-143.826z" fill="#466089"/></g><g><path d="m169.894 241.13h57.724v27.707h-57.724z" fill="#6e83b7" transform="matrix(-1 0 0 -1 397.512 509.968)"/></g><g><path d="m169.894 241.13h57.724v5.772h-57.724z" fill="#466089"/></g><g><path d="m10 216.886h230.894v24.244h-230.894z" fill="#edeff1"/></g><g><path d="m27.762 207.65h-10.017v-23.089h30.016v3.089c.001 11.046-8.954 20-19.999 20z" fill="#ffe352"/></g><g><path d="m223.133 207.65h10.016v-23.089h-30.016v3.089c0 11.046 8.954 20 20 20z" fill="#ffe352"/></g><g><path d="m84.993 83.545h80.813v5.772h-80.813z" fill="#d3d3d3"/></g><g><path d="m122.514 72h5.772v11.545h-5.772z" fill="#edeff1"/></g><g><path d="m157.148 83.545h-28.862v-11.545h23.089z" fill="#80d6fb"/></g><g><path d="m93.652 83.545h28.862v-11.545h-23.09z" fill="#ffb0aa"/></g></g><g><g><path d="m284.382 241.13h57.724v27.707h-57.724z" fill="#6e83b7"/></g><g><path d="m284.382 241.13h57.724v5.772h-57.724z" fill="#466089"/></g><g><path d="m472.802 138.382h28.621v23.667h-28.621z" fill="#edeff1"/></g><g><path d="m478.286 138.382h-5.484v23.667h10.496z" fill="#d3d3d3"/></g><g><path d="m271.683 138.382h28.526v23.667h-28.526z" fill="#edeff1"/></g><g><path d="m294.725 138.382h5.484v23.667h-10.496z" fill="#d3d3d3"/></g><g><path d="m478.669 162.049h-184.233l17.317-72.732h149.599z" fill="#edeff1"/></g><g><path d="m301.745 156.276 14.568-61.187h140.48l14.568 61.187z" fill="#80d6fb"/></g><g><path d="m278.851 162.049h215.404v54.837h-215.404z" fill="#6e83b7"/></g><g><path d="m314.64 184.561h143.826v32.325h-143.826z" fill="#466089"/></g><g><path d="m431 241.13h57.724v27.707h-57.724z" fill="#6e83b7" transform="matrix(-1 0 0 -1 919.724 509.968)"/></g><g><path d="m431 241.13h57.724v5.772h-57.724z" fill="#466089"/></g><g><path d="m271.106 216.886h230.894v24.244h-230.894z" fill="#edeff1"/></g><g><path d="m288.867 207.65h-10.016v-23.089h30.016v3.089c0 11.046-8.954 20-20 20z" fill="#ffe352"/></g><g><path d="m484.238 207.65h10.016v-23.089h-30.016v3.089c0 11.046 8.955 20 20 20z" fill="#ffe352"/></g><g><path d="m346.099 83.545h80.813v5.772h-80.813z" fill="#d3d3d3"/></g><g><path d="m383.619 72h5.772v11.545h-5.772z" fill="#edeff1"/></g><g><path d="m418.253 83.545h-28.861v-11.545h23.089z" fill="#80d6fb"/></g><g><path d="m354.758 83.545h28.861v-11.545h-23.089z" fill="#ffb0aa"/></g></g><g><g><path d="m300.447 412.293h57.724v27.707h-57.724z" fill="#6e83b7"/></g><g><path d="m153.829 412.293h57.724v27.707h-57.724z" fill="#6e83b7"/></g><g><path d="m153.829 412.293h57.724v5.772h-57.724z" fill="#466089"/></g><g><path d="m300.447 412.293h57.724v5.772h-57.724z" fill="#466089"/></g><g><path d="m342.249 309.545h28.621v23.667h-28.621z" fill="#ffb0aa"/></g><g><path d="m347.733 309.545h-5.484v23.666h10.496z" fill="#ff7b7b"/></g><g><path d="m141.13 309.545h28.526v23.667h-28.526z" fill="#ffb0aa"/></g><g><path d="m164.172 309.545h5.484v23.666h-10.496z" fill="#ff7b7b"/></g><g><path d="m348.116 333.211h-184.232l17.317-72.731h149.598z" fill="#ffb0aa"/></g><g><path d="m171.192 327.439 14.568-61.187h140.48l14.568 61.187z" fill="#80d6fb"/></g><g><path d="m148.298 333.211h215.404v54.837h-215.404z" fill="#ffb0aa"/></g><g><path d="m184.087 355.724h143.826v32.325h-143.826z" fill="#ff7b7b"/></g><g><path d="m140.553 388.049h230.894v24.244h-230.894z" fill="#edeff1"/></g><g><circle cx="163.306" cy="367.268" fill="#ffe352" r="11.545"/></g><g><circle cx="348.694" cy="367.268" fill="#ffe352" r="11.545"/></g></g></g></svg>