<svg id="Capa_1" enable-background="new 0 0 512 512" height="512" viewBox="0 0 512 512" width="512" xmlns="http://www.w3.org/2000/svg"><g><path d="m403.974 419.79c4.142 0 7.5-3.358 7.5-7.5v-399.79c0-6.893-5.607-12.5-12.5-12.5h-285.948c-6.893 0-12.5 5.607-12.5 12.5v487.931c0 6.379 5.188 11.569 11.563 11.569h26.625c5.464 0 10.228-3.902 11.327-9.279 1.785-8.746 9.574-15.093 18.52-15.093s16.734 6.348 18.52 15.095c1.098 5.376 5.864 9.278 11.333 9.278h27.735c5.47 0 10.236-3.903 11.333-9.279 1.786-8.746 9.575-15.094 18.52-15.094s16.734 6.348 18.52 15.093c1.097 5.377 5.863 9.28 11.333 9.28h27.735c5.469 0 10.235-3.903 11.332-9.279 1.786-8.746 9.575-15.094 18.52-15.094s16.734 6.348 18.52 15.095c1.098 5.376 5.864 9.278 11.333 9.278h26.613c6.379 0 11.569-5.19 11.569-11.569v-53.142c0-4.142-3.358-7.5-7.5-7.5s-7.5 3.358-7.5 7.5v49.71h-20.493c-4.178-14.278-17.442-24.373-32.542-24.373-15.099 0-28.362 10.095-32.542 24.373h-22.355c-4.179-14.278-17.442-24.373-32.542-24.373-15.099 0-28.362 10.095-32.542 24.373h-22.356c-4.178-14.278-17.442-24.373-32.542-24.373s-28.364 10.095-32.542 24.373h-20.493v-482h280.948v397.29c-.002 4.142 3.356 7.5 7.498 7.5z"/><path d="m196.453 429.967c4.142 0 7.5-3.358 7.5-7.5v-4.798c11.958-.558 21.516-10.46 21.516-22.555 0-12.451-10.13-22.581-22.581-22.581h-12.87c-4.181 0-7.582-3.401-7.582-7.582 0-4.18 3.401-7.581 7.582-7.581h24.059c4.142 0 7.5-3.358 7.5-7.5s-3.358-7.5-7.5-7.5h-10.125v-4.774c0-4.142-3.358-7.5-7.5-7.5s-7.5 3.358-7.5 7.5v4.801c-11.959.558-21.516 10.46-21.516 22.554 0 12.452 10.13 22.582 22.582 22.582h12.87c4.18 0 7.581 3.401 7.581 7.581 0 4.181-3.401 7.582-7.581 7.582h-6.377c-.02 0-.038-.003-.058-.003s-.038.003-.058.003h-17.566c-4.142 0-7.5 3.358-7.5 7.5s3.358 7.5 7.5 7.5h10.125v4.771c-.001 4.142 3.357 7.5 7.499 7.5z"/><path d="m286.655 417.696h50.408c4.142 0 7.5-3.358 7.5-7.5s-3.358-7.5-7.5-7.5h-50.408c-4.142 0-7.5 3.358-7.5 7.5s3.358 7.5 7.5 7.5z"/><path d="m142.452 284.25c-4.142 0-7.5 3.358-7.5 7.5s3.358 7.5 7.5 7.5h8.333c4.142 0 7.5-3.358 7.5-7.5s-3.358-7.5-7.5-7.5z"/><path d="m194.537 299.25c4.142 0 7.5-3.358 7.5-7.5s-3.358-7.5-7.5-7.5h-8.333c-4.142 0-7.5 3.358-7.5 7.5s3.358 7.5 7.5 7.5z"/><path d="m238.29 299.25c4.142 0 7.5-3.358 7.5-7.5s-3.358-7.5-7.5-7.5h-8.333c-4.142 0-7.5 3.358-7.5 7.5s3.358 7.5 7.5 7.5z"/><path d="m289.543 291.75c0-4.142-3.358-7.5-7.5-7.5h-8.333c-4.142 0-7.5 3.358-7.5 7.5s3.358 7.5 7.5 7.5h8.333c4.142 0 7.5-3.358 7.5-7.5z"/><path d="m325.795 299.25c4.142 0 7.5-3.358 7.5-7.5s-3.358-7.5-7.5-7.5h-8.333c-4.142 0-7.5 3.358-7.5 7.5s3.358 7.5 7.5 7.5z"/><path d="m361.216 299.25h8.333c4.142 0 7.5-3.358 7.5-7.5s-3.358-7.5-7.5-7.5h-8.333c-4.142 0-7.5 3.358-7.5 7.5s3.358 7.5 7.5 7.5z"/><path d="m256 30.035c-13.001 0-25.754 2.182-37.903 6.485-3.905 1.383-5.949 5.669-4.566 9.574s5.672 5.948 9.574 4.566c10.537-3.732 21.604-5.625 32.895-5.625 54.313 0 98.5 44.187 98.5 98.5s-44.187 98.5-98.5 98.5-98.5-44.187-98.5-98.5c0-30.194 13.569-58.306 37.228-77.128 3.241-2.579 3.778-7.297 1.2-10.539-2.579-3.241-7.297-3.778-10.539-1.2-27.256 21.684-42.889 54.075-42.889 88.866 0 62.584 50.916 113.5 113.5 113.5s113.5-50.916 113.5-113.5-50.916-113.499-113.5-113.499z"/><path d="m171.233 125.895-.004.018c-1.182 5.692-1.805 11.585-1.805 17.622 0 47.44 39.886 86.575 86.576 86.575 47.052 0 86.576-39.519 86.576-86.575 0-6.037-.623-11.93-1.805-17.622l-.004-.018c-8.169-39.307-43.072-68.936-84.767-68.936s-76.598 29.629-84.767 68.936zm19.473 46.905c16.204 1.153 30.1 15.705 35.079 35.599-15.533-7.266-28.035-19.945-35.079-35.599zm51.33 40.933c-1.877-14.283-7.445-27.442-15.969-37.517-10.092-11.927-23.387-18.496-37.436-18.496-.921 0-1.846.036-2.773.096-.939-4.617-1.434-9.392-1.434-14.281 0-3.76.295-7.452.857-11.057 21.031-8.808 45.384-13.456 70.719-13.456s49.688 4.648 70.719 13.456c.562 3.605.857 7.297.857 11.057 0 4.889-.496 9.665-1.434 14.281-.926-.06-1.851-.096-2.773-.096-14.048 0-27.343 6.568-37.436 18.496-8.524 10.074-14.092 23.233-15.969 37.517-4.519.897-9.186 1.378-13.964 1.378s-9.446-.481-13.964-1.378zm44.179-5.335c4.979-19.894 18.875-34.446 35.079-35.599-7.044 15.655-19.546 28.334-35.079 35.599zm-30.215-136.439c29.107 0 54.194 17.474 65.368 42.474-20.107-6.831-42.395-10.412-65.368-10.412s-45.261 3.581-65.368 10.412c11.174-24.999 36.261-42.474 65.368-42.474z"/><path d="m279.079 154.265c0-12.726-10.353-23.079-23.079-23.079s-23.079 10.353-23.079 23.079 10.353 23.079 23.079 23.079 23.079-10.354 23.079-23.079zm-31.158 0c0-4.455 3.624-8.079 8.079-8.079s8.079 3.624 8.079 8.079-3.624 8.079-8.079 8.079-8.079-3.625-8.079-8.079z"/></g></svg>