<?xml version="1.0" encoding="iso-8859-1"?>
<!-- Generator: Adobe Illustrator 19.0.0, SVG Export Plug-In . SVG Version: 6.00 Build 0)  -->
<svg version="1.1" id="Capa_1" xmlns="http://www.w3.org/2000/svg" xmlns:xlink="http://www.w3.org/1999/xlink" x="0px" y="0px"
	 viewBox="0 0 503.986 503.986" style="enable-background:new 0 0 503.986 503.986;" xml:space="preserve">
<path style="fill:#F5DDCF;" d="M39.228,408.018l80.416-79.168c15.456-15.84,37.552-24.864,60.704-24.864
	c13.936,0,27.664,3.232,39.664,9.36c16,8.552,35.096,6.624,74.624,6.624c10.192,0,29.472,5.008,29.472,24.016
	c0,16.544-17.232,24-29.472,24h-50.768c-8.832,0-16,7.16-16,16s7.168,16,16,16l85.664-0.016c0,0,96.544-79.52,100.688-81.792
	s12.08-5.84,20.496-5.84c6.04,0,17.104,2.928,17.376,8.864c0.28,4.232-109.248,125.304-112.064,128.464
	c-10.336,9.152-23.968,14.336-38.16,14.336H151.58l-28.96,27.408L39.228,408.018z"/>
<path style="fill:#010101;" d="M180.348,311.986c12.672,0,25.136,2.928,35.744,8.336c17.832,9.544,36.456,7.648,78.544,7.648
	c0.208,0,21.472,0.176,21.472,16c0,10.912-12.816,16-21.472,16h-51.84c-11.152,0-22.928,8.08-22.928,25.072
	c0,12.64,10.224,22.928,22.928,22.928l89.568-0.016c0,0,94.24-78.56,101.84-82.72s16.864-6.912,24.704-3.056l-108.544,121.76
	c-9.04,7.76-22.32,12.064-34.24,12.064h-168l-24.256,25.344l-73.28-73.28l74.896-73.744
	C139.324,320.13,159.324,311.986,180.348,311.986 M180.348,295.986c-26.432,0-50.096,10.544-66.32,27.168l-86.16,84.832l96,96l32-32
	H317.9c16.128,0,31.696-5.92,43.744-16.624L471.356,332.29c6.704-5.952,6.32-16.896-1.088-21.936c-14-9.488-30.496-6.8-45.104,1.632
	c-14.608,8.432-98.48,80.144-98.48,80.144l-82.56,0.016c-3.84,0-8-4.32-8-8.144c0-4.496,3.92-8,8-8h50.512
	c17.68,0,37.472-11.52,37.472-32c0-21.76-19.792-32-37.472-32c-33.632,0-56.024,2.264-70.992-5.744
	C210.844,299.698,196.092,295.986,180.348,295.986z"/>
<path style="fill:#0B9156;" d="M436.924,215.706c0,0-32.312-18.464-64.616-18.464c-1.608,0-2.984,0.208-4.52,0.272
	c7.424-4.856,15.176-10.928,22.984-18.736c32.312-32.304,46.152-83.072,46.152-83.072s-50.768,13.848-83.08,46.152
	c-2.704,2.704-5.152,5.4-7.472,8.08c1.56-9.136,2.552-19.16,2.552-30.232c0-56-32-112-32-112s-32,56-32,112
	c0,11.072,0.992,21.104,2.552,30.232c-2.32-2.68-4.768-5.376-7.472-8.08c-32.304-32.304-83.08-46.152-83.08-46.152
	s13.848,50.768,46.152,83.08c7.808,7.808,15.56,13.88,22.984,18.736c-1.536-0.064-2.912-0.272-4.52-0.272
	c-32.304,0-64.616,18.464-64.616,18.464s32.312,18.464,64.616,18.464c7.936,0,14.816-0.944,21.024-2.272
	c-0.856,0.784-1.704,1.408-2.56,2.272c-16.16,16.152-23.08,41.536-23.08,41.536s25.384-6.92,41.536-23.08
	c18.608-18.608,18.464-36.92,18.464-36.92s-0.144,18.32,18.464,36.92c16.152,16.152,41.536,23.08,41.536,23.08
	s-6.92-25.384-23.08-41.536c-0.856-0.864-1.704-1.488-2.56-2.272c6.208,1.32,13.096,2.272,21.024,2.272
	C404.62,234.17,436.924,215.706,436.924,215.706z"/>
<path style="fill:#010101;" d="M440.9,208.762c-1.16-0.656-24.016-13.568-51.144-18.024c2.28-2.024,4.496-4.128,6.672-6.296
	c33.44-33.432,47.624-84.48,48.216-86.632c0.752-2.768-0.032-5.728-2.064-7.76c-2.032-2.04-4.968-2.8-7.768-2.064
	c-1.968,0.536-45.16,12.552-78.08,40.376c0.128-2.856,0.184-5.744,0.184-8.656c0-57.464-31.704-113.608-33.048-115.968
	c-2.872-4.984-11.032-4.984-13.904,0c-1.336,2.36-33.04,58.512-33.04,115.968c0,2.912,0.064,5.8,0.184,8.656
	c-32.92-27.824-76.112-39.84-78.08-40.376c-2.8-0.736-5.736,0.024-7.768,2.064c-2.032,2.032-2.816,4.992-2.064,7.76
	c0.592,2.152,14.784,53.2,48.216,86.632c2.168,2.168,4.392,4.272,6.672,6.296c-27.128,4.456-49.984,17.368-51.144,18.024
	c-2.496,1.424-4.032,4.08-4.032,6.944s1.528,5.52,4.032,6.944c1.424,0.816,35.968,19.896,70.528,19.504
	c-9.736,15.072-14.048,30.6-14.28,31.456c-0.752,2.768,0.032,5.728,2.064,7.76c2.016,2.04,4.984,2.824,7.768,2.064
	c1.112-0.304,27.64-7.68,45.08-25.144c1.84-1.84,3.28-3.672,4.816-5.504v30.928c0,4.424,3.576,8,8,8s8-3.576,8-8v-30.928
	c1.528,1.832,2.968,3.656,4.816,5.504c17.44,17.464,43.968,24.832,45.08,25.144c0.704,0.184,1.408,0.28,2.112,0.28
	c2.096,0,4.144-0.824,5.656-2.344c2.032-2.032,2.816-4.992,2.064-7.76c-0.232-0.848-4.544-16.384-14.28-31.456
	c34.376,0.312,69.112-18.688,70.528-19.504c2.496-1.424,4.032-4.08,4.032-6.944S443.396,210.186,440.9,208.762z M372.316,226.17
	c-6.424,0-12.752-0.688-19.36-2.096c-3.624-0.768-7.144,0.968-8.8,4.176c-1.64,3.208-0.936,7.144,1.752,9.568
	c0.064,0.064,2.2,1.936,2.28,2c6.488,6.48,11.376,14.776,14.8,21.96c-7.168-3.424-15.44-8.312-21.936-14.816
	c-15.752-15.744-16.112-30.656-16.128-31.2v-36.064c0-4.424-3.576-8-8-8s-8,3.576-8,8v35.936v0.056
	c-0.016,0.784-0.472,15.624-16.128,31.272c-6.44,6.44-14.64,11.304-21.8,14.728c3.576-7.328,8.736-15.888,15.72-22.816
	c0.08-0.064,1.16-1,1.216-1.064c2.688-2.432,3.392-6.36,1.752-9.568c-1.656-3.208-5.168-4.944-8.8-4.176
	c-6.608,1.408-12.936,2.096-19.36,2.096c-16.952,0-34.2-5.608-45.936-10.464c11.736-4.848,28.984-10.464,45.936-10.464
	c0.704,0,1.36,0.064,2,0.12l2.2,0.152c3.456,0.216,6.856-2.128,7.952-5.552s-0.232-7.168-3.248-9.136
	c-7.816-5.112-14.904-10.888-21.704-17.696c-19.936-19.944-32.64-47.768-39.064-64.672c16.904,6.416,44.736,19.128,64.672,39.064
	c2.56,2.56,4.872,5.112,7.064,7.648c2.36,2.736,6.248,3.552,9.472,2.008c3.248-1.528,5.08-5.04,4.488-8.584
	c-1.64-9.56-2.44-19.016-2.44-28.88c0-37.032,14.872-74.656,24-94.24c9.128,19.56,24,57.144,24,94.24c0,9.864-0.8,19.32-2.44,28.88
	c-0.592,3.544,1.232,7.056,4.488,8.584c3.264,1.544,7.112,0.728,9.472-2.008c2.184-2.536,4.496-5.088,7.064-7.648
	c19.936-19.936,47.768-32.648,64.672-39.064c-6.424,16.904-19.128,44.736-39.064,64.672c-6.8,6.808-13.888,12.584-21.704,17.696
	c-3.016,1.968-4.344,5.704-3.248,9.136s4.64,5.784,7.952,5.552l2.2-0.152c0.64-0.056,1.296-0.12,2-0.12
	c16.952,0,34.2,5.608,45.936,10.464C406.524,220.562,389.268,226.17,372.316,226.17z"/>
<g>
</g>
<g>
</g>
<g>
</g>
<g>
</g>
<g>
</g>
<g>
</g>
<g>
</g>
<g>
</g>
<g>
</g>
<g>
</g>
<g>
</g>
<g>
</g>
<g>
</g>
<g>
</g>
<g>
</g>
</svg>
