<svg id="Icons" height="512" viewBox="0 0 74 74" width="512" xmlns="http://www.w3.org/2000/svg"><path d="m13.069 69.78h-9.115a1.955 1.955 0 0 1 -1.954-1.953v-22.383a1.955 1.955 0 0 1 1.954-1.953h9.115a1.956 1.956 0 0 1 1.954 1.953v22.383a1.956 1.956 0 0 1 -1.954 1.953zm-9.069-24.289v22.336l9.069-.047-.046-22.336z"/><path d="m52.052 59.489h-16.635a1 1 0 0 1 0-2h15.575a6.687 6.687 0 0 0 -6.617-5.781h-5.505c-6.723-.053-9.08-1.536-9.327-1.7a15.227 15.227 0 0 0 -15.059-.408 1 1 0 0 1 -.92-1.776 17.21 17.21 0 0 1 17.047.494c.07.044 2.176 1.347 8.267 1.395h5.5a8.686 8.686 0 0 1 8.677 8.676v.1a1 1 0 0 1 -1.003 1z"/><path d="m55.611 63.4a1 1 0 0 1 -.547-1.838l2.52-1.64a1 1 0 1 1 1.091 1.678l-2.52 1.64a.989.989 0 0 1 -.544.16z"/><path d="m39.577 71.364a13.139 13.139 0 0 1 -4.11-.664l-14.067-4.661a10.249 10.249 0 0 0 -5.13-.439 7.771 7.771 0 0 0 -1.825.583 1 1 0 0 1 -.85-1.81 9.759 9.759 0 0 1 2.3-.737 12.27 12.27 0 0 1 6.134.5l14.07 4.66a11.124 11.124 0 0 0 4.008.55 1.013 1.013 0 0 1 1.047.951 1 1 0 0 1 -.951 1.047c-.212.015-.42.02-.626.02z"/><path d="m47.241 68.85a1 1 0 0 1 -.548-1.837l2.45-1.6a1 1 0 1 1 1.094 1.674l-2.45 1.6a1 1 0 0 1 -.546.163z"/><path d="m64.051 57.91a1 1 0 0 1 -.547-1.838l5.84-3.806a6.338 6.338 0 0 0 -6.669-.7l-10.65 5.1a1.03 1.03 0 0 1 -1.44-.9 1 1 0 0 1 .644-.937l10.58-5.065a8.332 8.332 0 0 1 9.33 1.4l.526.466a1 1 0 0 1 -.119 1.586l-6.95 4.53a1 1 0 0 1 -.545.164z"/><path d="m45.714 46.334c-8.08 0-16.714-2.3-19.073-7.1-4.631-9.402 11.09-27.572 11.759-28.341a1 1 0 0 1 .753-.342h11.747a1 1 0 0 1 .746.333c.64.716 15.625 17.651 11.814 28.251-1.44 4.006-7.2 6.673-15.417 7.134-.768.043-1.543.065-2.329.065zm-6.1-33.783c-2.114 2.516-14.914 18.219-11.179 25.803 1.915 3.891 10.295 6.434 19.5 5.918 7.276-.408 12.505-2.636 13.647-5.814 3.143-8.743-9.072-23.5-11.133-25.907z"/><path d="m50.9 12.551h-11.744a1 1 0 0 1 -.939-.658l-2.424-6.651a1 1 0 0 1 .664-1.3 28.8 28.8 0 0 1 17.17.009 1 1 0 0 1 .636 1.3l-2.424 6.651a1 1 0 0 1 -.939.649zm-11.043-2h10.343l1.821-5a26.253 26.253 0 0 0 -13.976.025z"/><path d="m44.929 30.044a4.215 4.215 0 0 1 -4.337-4.07 4.346 4.346 0 0 1 8.674 0 1 1 0 0 1 -2 0 2.354 2.354 0 0 0 -4.674 0 2.219 2.219 0 0 0 2.337 2.07 1 1 0 0 1 0 2z"/><path d="m44.929 36.186a4.215 4.215 0 0 1 -4.337-4.071 1 1 0 1 1 2 0 2.354 2.354 0 1 0 2.337-2.071 1 1 0 0 1 0-2 4.079 4.079 0 1 1 0 8.142z"/><path d="m44.929 37.47a1 1 0 0 1 -1-1v-1.284a1 1 0 0 1 2 0v1.284a1 1 0 0 1 -1 1z"/><path d="m44.929 23.9a1 1 0 0 1 -1-1v-1.282a1 1 0 1 1 2 0v1.282a1 1 0 0 1 -1 1z"/></svg>