<?xml version="1.0" encoding="UTF-8"?>
<svg xmlns="http://www.w3.org/2000/svg" viewBox="0 0 64 64" width="512" height="512"><g id="car_store" data-name="car store"><path d="M54.55,46.82a1.29,1.29,0,0,0-.4.06l-3.54,1.04L37.22,50.98v-.02A1.435,1.435,0,0,1,37,51H28.01l-.7.25L32.26,54h7.6l13.72-4.04a3.341,3.341,0,0,1,.83-.13l.67-.21A1.421,1.421,0,0,0,56,48.27,1.451,1.451,0,0,0,54.55,46.82Z"/><path d="M62,31a5,5,0,0,1-5,5H7a5,5,0,0,1-5-5,1,1,0,0,1,1-1H61A1,1,0,0,1,62,31Z"/><path d="M56.53,14A10.982,10.982,0,0,0,49,11h-.59l3,3Z"/><path d="M39.55,41.82a1.29,1.29,0,0,0-.4.06l-5.93,1.74,1.98.4a1.014,1.014,0,0,1,.51.27l.9.9,4.19-1.23a1.415,1.415,0,0,0,.2-.69A1.451,1.451,0,0,0,39.55,41.82Z"/><path d="M49.73,46.07a1.418,1.418,0,0,0-1.18-2.25,1.29,1.29,0,0,0-.4.06L37.98,46.87c0,.05.02.09.02.13v1.75Z"/><path d="M56,53.27a1.447,1.447,0,0,1-.96,1.36L39.83,60H25.16L13.32,56.05A1.185,1.185,0,0,0,13,56H10v3a1.014,1.014,0,0,1-.68.95l-6,2A1.185,1.185,0,0,1,3,62a.939.939,0,0,1-.58-.19A.983.983,0,0,1,2,61V39a.983.983,0,0,1,.42-.81,1,1,0,0,1,.9-.14l6,2A1.014,1.014,0,0,1,10,41v3.68L14.19,43H19.9l14.61,2.92L36,47.41V49H23a1,1,0,0,0-.49,1.87l9,5A.947.947,0,0,0,32,56h8a.863.863,0,0,0,.28-.04l13.87-4.08A1.445,1.445,0,0,1,56,53.27Z"/><path d="M33,12V11H29v2h3A1,1,0,0,0,33,12Z"/><path d="M11.09,23a5.993,5.993,0,0,1,11.82,0H27V11H9.68L7.93,15.37A1,1,0,0,1,7,16H4v1.7L7.54,23Z"/><path d="M50.29,15.71,45.59,11H35v1a3.009,3.009,0,0,1-3,3H29v8H42.09a5.993,5.993,0,0,1,11.82,0H60V22a10.937,10.937,0,0,0-1.79-6H51A1.033,1.033,0,0,1,50.29,15.71Z"/><circle cx="48" cy="24" r="4"/><path d="M46.57,9H9.43l2.53-1.67c.57-.38,1.26-.81,2.04-1.25A29.159,29.159,0,0,1,28,2,29.159,29.159,0,0,1,42,6.08c.78.44,1.47.87,2.04,1.25Z"/><path d="M7.52,11H5a1,1,0,0,0-1,1v2H6.32Z"/><circle cx="17" cy="24" r="4"/></g></svg>
