<svg id="Capa_1" enable-background="new 0 0 512 512" height="512" viewBox="0 0 512 512" width="512" xmlns="http://www.w3.org/2000/svg"><g><path d="m437.02 74.98c-48.353-48.351-112.64-74.98-181.02-74.98s-132.667 26.629-181.02 74.98c-48.351 48.353-74.98 112.64-74.98 181.02s26.629 132.667 74.98 181.02c48.353 48.351 112.64 74.98 181.02 74.98s132.667-26.629 181.02-74.98c48.351-48.353 74.98-112.64 74.98-181.02s-26.629-132.667-74.98-181.02zm-10.607 351.433c-45.519 45.519-106.039 70.587-170.413 70.587s-124.894-25.068-170.413-70.587-70.587-106.039-70.587-170.413 25.068-124.894 70.587-170.413 106.039-70.587 170.413-70.587 124.894 25.068 170.413 70.587 70.587 106.039 70.587 170.413-25.068 124.894-70.587 170.413z"/><path d="m144.161 71.23c-1.009-1.827-2.734-3.15-4.759-3.652-2.024-.503-4.169-.139-5.915 1.005-63.508 41.597-101.423 111.659-101.423 187.417 0 59.815 23.293 116.051 65.589 158.346 42.295 42.296 98.531 65.589 158.346 65.589 32.54 0 63.993-6.882 93.486-20.455 1.894-.872 3.34-2.492 3.99-4.473.65-1.98.447-4.143-.561-5.967zm3.733 153.222 14.19-28.381c1.454-2.909 4.378-4.716 7.631-4.716h23.682l18.287 33.097zm84.357 37.223 10.437 18.89h-15.16zm23.749 203.261c-115.208 0-208.936-93.728-208.936-208.936 0-67.981 32.727-131.049 87.952-170.304l50.092 90.659h-15.394c-8.972 0-17.037 4.985-21.047 13.008l-19.617 39.234c-1.163 2.325-1.039 5.086.328 7.297s3.781 3.557 6.38 3.557h22.459l-24.755 99.018c-1.77 7.079-.209 14.438 4.281 20.189 4.491 5.751 11.251 9.05 18.549 9.05h43.595c3.441 0 6.441-2.342 7.276-5.681l6.011-24.045c1.005-4.019-1.438-8.09-5.457-9.095-4.012-1.002-8.09 1.439-9.095 5.457l-4.591 18.364h-37.739c-2.646 0-5.097-1.196-6.726-3.282-1.628-2.085-2.194-4.753-1.552-7.32l25.664-102.656h46.294l1.634 2.958-14.967 59.87c-1.005 4.019 1.438 8.09 5.457 9.095.61.153 1.222.226 1.825.226 3.36 0 6.418-2.275 7.27-5.683l2.59-10.361c.052.001.102.008.154.008h27.041l84.831 153.53c-25.349 10.517-52.157 15.843-79.807 15.843z"/><path d="m414.346 97.654c-42.295-42.296-98.531-65.59-158.346-65.59-32.539 0-63.991 6.882-93.484 20.455-1.894.872-3.34 2.492-3.99 4.473-.65 1.98-.447 4.143.561 5.967l24.458 44.265c2.004 3.626 6.567 4.942 10.191 2.938 3.625-2.003 4.941-6.566 2.938-10.191l-20.479-37.064c25.348-10.517 52.156-15.843 79.805-15.843 115.208 0 208.936 93.728 208.936 208.936 0 67.98-32.726 131.048-87.951 170.303l-78.067-141.287c8.097-7.471 12.678-17.837 12.678-29.015v-16.548h56.629c8.556 0 15.516-6.96 15.516-15.516v-.516h16.549c8.556 0 15.516-6.96 15.516-15.516v-16.032c0-8.556-6.96-15.516-15.516-15.516h-161.411l-27.28-49.373c-2.002-3.625-6.565-4.94-10.191-2.938-3.625 2.003-4.941 6.566-2.938 10.191l169.371 306.533c1.009 1.827 2.734 3.15 4.759 3.653.596.147 1.202.22 1.805.22 1.447 0 2.877-.419 4.109-1.226 63.507-41.598 101.422-111.66 101.422-187.417 0-59.815-23.294-116.051-65.59-158.346zm-117.749 158.346c0 5.643-1.886 10.952-5.292 15.236l-17.562-31.785h22.854zm104.21-64.129v16.032c0 .285-.231.516-.516.516h-16.549v-17.064h16.549c.284 0 .516.231.516.516zm-32.065-.516v32.581c0 .285-.231.516-.516.516h-102.771l-18.287-33.097z"/></g></svg>