<?xml version="1.0" encoding="iso-8859-1"?>
<!-- Generator: Adobe Illustrator 21.0.0, SVG Export Plug-In . SVG Version: 6.00 Build 0)  -->
<svg xmlns="http://www.w3.org/2000/svg" xmlns:xlink="http://www.w3.org/1999/xlink" version="1.1" id="Capa_1" x="0px" y="0px" viewBox="0 0 512 512" style="enable-background:new 0 0 512 512;" xml:space="preserve" width="512" height="512">
<g>
	<path d="M504.5,54.006c4.142,0,7.5-3.358,7.5-7.5V7.5c0-4.142-3.358-7.5-7.5-7.5H7.5C3.358,0,0,3.358,0,7.5v39.006   c0,4.142,3.358,7.5,7.5,7.5h17.106v403.988H7.5c-4.142,0-7.5,3.358-7.5,7.5V504.5c0,4.142,3.358,7.5,7.5,7.5h497   c4.142,0,7.5-3.358,7.5-7.5v-39.006c0-4.142-3.358-7.5-7.5-7.5h-17.106V54.006H504.5z M15,15h482v24.006h-69   c-4.142,0-7.5,3.358-7.5,7.5s3.358,7.5,7.5,7.5h7.902v403.988h-9.706V351.66c0-27.716-20.68-50.649-47.381-54.277V54.006H393   c4.142,0,7.5-3.358,7.5-7.5s-3.358-7.5-7.5-7.5H15V15z M184.683,457.994v-38.708h80.174c4.142,0,7.5-3.358,7.5-7.5   s-3.358-7.5-7.5-7.5h-80.174v-38.708c174.784,0.011,32.847,0.005,142.641,0v38.708h-27.467c-4.142,0-7.5,3.358-7.5,7.5   s3.358,7.5,7.5,7.5h27.467v38.708H184.683z M100.804,457.994v-38.708h32.388v38.708H100.804z M100.804,365.577h32.388v38.708   h-32.388V365.577z M133.192,350.577h-32.364c0.509-18.928,14.293-34.603,32.364-38.018V350.577z M148.192,238.714   c0-4.142-3.358-7.5-7.5-7.5s-7.5,3.358-7.5,7.5v58.668c-26.721,3.627-47.388,26.578-47.388,54.278v106.334h-9.706V54.006h57.094   v148.708c0,4.142,3.358,7.5,7.5,7.5s7.5-3.358,7.5-7.5V54.006h21.491v403.988h-21.491V238.714z M327.324,54.006v39.385   C310.822,69.113,283.59,55.665,256,55.665c-27.679,0-54.866,13.52-71.317,37.716V54.006H327.324z M223.352,337.056   c-6.943-6.955-11.384-15.735-12.897-25.256c7.232-0.687,12.909-6.79,12.909-14.199v-14.069c11.477,5.934,23.241,9.446,32.637,9.446   s21.159-3.512,32.637-9.446v14.069c0,7.409,5.677,13.512,12.909,14.199c-1.513,9.52-5.953,18.301-12.897,25.256   C270.89,354.845,241.605,355.341,223.352,337.056z M327.324,296.869h-23.687v-22.678c9.39-6.939,17.652-15.292,23.687-25.116   V296.869z M327.12,147.215l-5.358,72.765c-2.425,32.924-45.253,57.999-65.761,57.999s-63.336-25.074-65.761-57.999l-5.358-72.765   c-3.031-41.147,29.402-76.55,71.12-76.55C297.259,70.665,330.184,105.61,327.12,147.215z M208.363,274.191v22.678h-23.68v-47.783   C190.716,258.903,198.974,267.253,208.363,274.191z M184.683,311.869h10.644c1.744,14.527,8.639,28.308,20.562,38.708h-31.206   V311.869z M316.673,311.869h10.651v38.708h-31.212C308.028,340.181,314.928,326.403,316.673,311.869z M342.324,54.006h21.491   v403.988h-21.491V54.006z M411.169,350.577h-32.354v-38.006C396.6,315.929,410.648,331.34,411.169,350.577z M378.815,365.577   h32.381v38.708h-32.381V365.577z M378.815,419.286h32.381v38.708h-32.381V419.286z M39.606,54.006h21.492v403.988H39.606V54.006z    M497,497H15v-24.006h482V497z M472.394,457.994h-21.492V54.006h21.492V457.994z"/>
</g>















</svg>
