<svg height="496pt" viewBox="0 0 496 496" width="496pt" xmlns="http://www.w3.org/2000/svg"><path d="m472 240h-48.6875l-15.144531-68.152344c-5.742188-25.816406-28.230469-43.847656-54.671875-43.847656h-26.710938l-4.65625-27.945312c-1.945312-11.613282-11.898437-20.054688-23.679687-20.054688h-100.898438c-11.789062 0-21.742187 8.441406-23.671875 20.054688l-4.65625 27.945312h-26.710937c-26.449219 0-48.925781 18.03125-54.671875 43.847656l-15.152344 68.152344h-48.6875c-13.230469 0-24 10.769531-24 24v16c0 13.230469 10.769531 24 24 24h13.496094c-3.535156 7.433594-5.496094 15.617188-5.496094 24v56c-8.824219 0-16 7.175781-16 16v16c0 8.824219 7.175781 16 16 16h32v40c0 13.230469 10.769531 24 24 24h48c13.230469 0 24-10.769531 24-24v-40h176v40c0 13.230469 10.769531 24 24 24h48c13.230469 0 24-10.769531 24-24v-40h32c8.824219 0 16-7.175781 16-16v-16c0-8.824219-7.175781-16-16-16v-56c0-8.382812-1.960938-16.566406-5.496094-24h13.496094c13.230469 0 24-10.769531 24-24v-16c0-13.230469-10.769531-24-24-24zm-165.664062-137.3125 4.222656 25.3125h-30.558594v-32h18.449219c3.925781 0 7.246093 2.808594 7.886719 6.6875zm-74.335938 25.3125v-32h32v32zm-42.335938-25.320312c.640626-3.871094 3.960938-6.679688 7.886719-6.679688h18.449219v32h-30.558594zm-86.199218 72.640624c4.085937-18.441406 20.152344-31.320312 39.039062-31.320312h210.984375c18.886719 0 34.953125 12.878906 39.046875 31.320312l21.601563 97.183594c-2.039063-.230468-4.082031-.503906-6.136719-.503906h-26.753906l-21.34375-96h-223.804688l-21.34375 96h-26.753906c-2.054688 0-4.097656.273438-6.136719.503906zm261.390625 96.679688h-233.710938l17.777344-80h198.15625zm-340.855469 16c-4.414062 0-8-3.59375-8-8v-16c0-4.40625 3.585938-8 8-8h45.136719l-4.761719 21.398438c-3.496094 1.625-6.878906 3.480468-9.976562 5.800781-1.957032 1.472656-3.78125 3.097656-5.519532 4.800781zm120 160h-16v16h16v8c0 4.40625-3.585938 8-8 8h-48c-4.414062 0-8-3.59375-8-8v-8h16v-16h-16v-16h64zm272 0h-16v16h16v8c0 4.40625-3.585938 8-8 8h-48c-4.414062 0-8-3.59375-8-8v-8h16v-16h-16v-16h64zm48.007812-32h-432.007812v-16h432zm-416.007812-32v-56c0-12.519531 5.984375-24.488281 16.007812-32 6.863282-5.160156 15.390626-8 23.992188-8h320c8.601562 0 17.128906 2.839844 24 8 10.015625 7.511719 16 19.472656 16 32v56zm432-104c0 4.40625-3.585938 8-8 8h-24.871094c-1.738281-1.703125-3.5625-3.328125-5.519531-4.800781-3.097656-2.320313-6.480469-4.175781-9.984375-5.800781l-4.761719-21.398438h45.136719c4.414062 0 8 3.59375 8 8zm0 0"/><path d="m136 304h-48c-13.230469 0-24 10.769531-24 24v16c0 13.230469 10.769531 24 24 24h48c13.230469 0 24-10.769531 24-24v-16c0-13.230469-10.769531-24-24-24zm8 40c0 4.40625-3.585938 8-8 8h-48c-4.414062 0-8-3.59375-8-8v-16c0-4.40625 3.585938-8 8-8h48c4.414062 0 8 3.59375 8 8zm0 0"/><path d="m408 304h-48c-13.230469 0-24 10.769531-24 24v16c0 13.230469 10.769531 24 24 24h48c13.230469 0 24-10.769531 24-24v-16c0-13.230469-10.769531-24-24-24zm8 40c0 4.40625-3.585938 8-8 8h-48c-4.414062 0-8-3.59375-8-8v-16c0-4.40625 3.585938-8 8-8h48c4.414062 0 8 3.59375 8 8zm0 0"/><path d="m281.753906 304h-67.507812c-12.261719 0-22.246094 9.984375-22.246094 22.246094 0 1.816406.214844 3.632812.664062 5.402344l4.878907 19.503906c2.480469 9.917968 11.351562 16.847656 21.578125 16.847656h57.75c10.226562 0 19.105468-6.929688 21.578125-16.847656l4.886719-19.519532c.449218-1.761718.664062-3.570312.664062-5.386718 0-12.261719-9.984375-22.246094-22.246094-22.246094zm6.070313 23.761719-4.878907 19.503906c-.714843 2.789063-3.203124 4.734375-6.074218 4.734375h-57.75c-2.863282 0-5.359375-1.945312-6.066406-4.726562l-4.871094-19.496094c-.121094-.496094-.183594-1.015625-.183594-1.53125 0-3.445313 2.808594-6.246094 6.246094-6.246094h67.507812c3.4375 0 6.246094 2.800781 6.246094 6.246094 0 .515625-.0625 1.035156-.175781 1.515625zm0 0"/><path d="m296 0h16v32h-16zm0 0"/><path d="m376 80h32v16h-32zm0 0"/><path d="m338.34375 50.34375 24-24 11.3125 11.3125-24 24zm0 0"/><path d="m184 0h16v32h-16zm0 0"/><path d="m88 80h32v16h-32zm0 0"/><path d="m122.34375 37.660156 11.3125-11.3125 24.003906 24-11.316406 11.3125zm0 0"/></svg>