<svg width="23" height="23" viewBox="0 0 23 23" fill="none" xmlns="http://www.w3.org/2000/svg">
<g clip-path="url(#clip0)">
<path d="M0.324191 1.90899C-0.104809 1.47999 -0.104809 0.765994 0.324191 0.321994C0.768191 -0.107006 1.46719 -0.107006 1.91119 0.321994L11.4342 9.86099L20.9732 0.321994C21.4022 -0.107006 22.1162 -0.107006 22.5442 0.321994C22.9882 0.765994 22.9882 1.48099 22.5442 1.90899L13.0212 11.433L22.5442 20.972C22.9882 21.401 22.9882 22.115 22.5442 22.559C22.1152 22.988 21.4012 22.988 20.9732 22.559L11.4342 13.02L1.91119 22.559C1.46719 22.988 0.768191 22.988 0.324191 22.559C-0.104809 22.115 -0.104809 21.4 0.324191 20.972L9.84719 11.433L0.324191 1.90899Z" fill="#C1E704"/>
</g>
<defs>
<clipPath id="clip0">
<rect width="22.88" height="22.88" fill="white"/>
</clipPath>
</defs>
</svg>
