<svg width="49" height="49" viewBox="0 0 49 49" fill="none" xmlns="http://www.w3.org/2000/svg">
<path d="M2.0415 40.8333V44.9167C2.0415 47.1727 3.8688 49 6.12484 49H42.8748C45.1309 49 46.9582 47.1727 46.9582 44.9167V40.8333H2.0415ZM44.9165 44.9167C44.9165 46.0416 43.9998 46.9583 42.8748 46.9583H6.12484C4.99988 46.9583 4.08317 46.0416 4.08317 44.9167V42.875H44.9165V44.9167Z" fill="#C9EA27"/>
<path d="M24.4998 0C6.18813 0 2.0415 9.07317 2.0415 18.375H46.9582C46.9582 9.07317 42.8748 0 24.4998 0ZM24.4998 2.04167C41.068 2.04167 44.3714 9.68363 44.8471 16.3333H4.15259C4.6283 9.68363 7.93171 2.04167 24.4998 2.04167Z" fill="#C9EA27"/>
<path d="M46.9583 30.625H42.875L36.75 34.7083L30.625 30.625H2.04167C0.914667 30.625 0 31.5397 0 32.6667V36.75C0 37.877 0.914667 38.7917 2.04167 38.7917H46.9583C48.0853 38.7917 49 37.877 49 36.75V32.6667C49 31.5397 48.0853 30.625 46.9583 30.625ZM2.04167 36.75V32.6667H30.0064L36.1314 36.75H2.04167ZM46.9583 36.75H37.3686L43.4936 32.6667H46.9583V36.75Z" fill="#C9EA27"/>
<path d="M44.1919 22.7564C43.216 23.7303 42.4463 24.5 40.8231 24.5C39.202 24.5 38.4323 23.7323 37.4585 22.7564C36.4131 21.7152 35.1146 20.4167 32.6463 20.4167C30.182 20.4167 28.8855 21.7152 27.8422 22.7564C26.8704 23.7323 26.1007 24.5 24.4837 24.5C22.8667 24.5 22.097 23.7323 21.1231 22.7564C20.0818 21.7152 18.7854 20.4167 16.3231 20.4167C13.8588 20.4167 12.5624 21.7152 11.5191 22.7585C10.5473 23.7323 9.77958 24.5 8.16258 24.5C6.54558 24.5 5.77588 23.7323 4.802 22.7564C3.76075 21.7152 2.46429 20.4167 0 20.4167V22.4583C1.617 22.4583 2.38671 23.226 3.36058 24.2019C4.40183 25.2432 5.69829 26.5417 8.16258 26.5417C10.6248 26.5417 11.9213 25.2432 12.9646 24.2019C13.9364 23.226 14.7061 22.4583 16.3231 22.4583C17.9401 22.4583 18.7078 23.226 19.6817 24.1999C20.7229 25.2432 22.0194 26.5417 24.4837 26.5417C26.948 26.5417 28.2444 25.2432 29.2877 24.2019C30.2595 23.226 31.0293 22.4583 32.6463 22.4583C34.2694 22.4583 35.0391 23.228 36.013 24.2019C37.0583 25.2452 38.3568 26.5417 40.8231 26.5417C43.2915 26.5417 44.59 25.2432 45.6333 24.2019C46.6092 23.226 47.3789 22.4583 49 22.4583V20.4167C46.5337 20.4167 45.2352 21.7131 44.1919 22.7564Z" fill="#C9EA27"/>
<path d="M10.2085 13.7812C11.0542 13.7812 11.7397 13.0957 11.7397 12.25C11.7397 11.4043 11.0542 10.7188 10.2085 10.7188C9.36281 10.7188 8.67725 11.4043 8.67725 12.25C8.67725 13.0957 9.36281 13.7812 10.2085 13.7812Z" fill="#C9EA27"/>
<path d="M16.3335 8.67708C17.1792 8.67708 17.8647 7.99152 17.8647 7.14584C17.8647 6.30015 17.1792 5.61459 16.3335 5.61459C15.4878 5.61459 14.8022 6.30015 14.8022 7.14584C14.8022 7.99152 15.4878 8.67708 16.3335 8.67708Z" fill="#C9EA27"/>
<path d="M24.5 13.7812C25.3457 13.7812 26.0312 13.0957 26.0312 12.25C26.0312 11.4043 25.3457 10.7188 24.5 10.7188C23.6543 10.7188 22.9688 11.4043 22.9688 12.25C22.9688 13.0957 23.6543 13.7812 24.5 13.7812Z" fill="#C9EA27"/>
<path d="M32.6665 8.67708C33.5122 8.67708 34.1978 7.99152 34.1978 7.14584C34.1978 6.30015 33.5122 5.61459 32.6665 5.61459C31.8208 5.61459 31.1353 6.30015 31.1353 7.14584C31.1353 7.99152 31.8208 8.67708 32.6665 8.67708Z" fill="#C9EA27"/>
<path d="M38.7915 13.7812C39.6372 13.7812 40.3228 13.0957 40.3228 12.25C40.3228 11.4043 39.6372 10.7188 38.7915 10.7188C37.9458 10.7188 37.2603 11.4043 37.2603 12.25C37.2603 13.0957 37.9458 13.7812 38.7915 13.7812Z" fill="#C9EA27"/>
</svg>
