<svg width="22" height="22" viewBox="0 0 22 22" fill="none" xmlns="http://www.w3.org/2000/svg">
<path d="M16.7749 5.23417C16.4174 4.87667 15.8399 4.87667 15.4824 5.23417L10.9999 9.7075L6.51741 5.225C6.15991 4.8675 5.58241 4.8675 5.22491 5.225C4.86741 5.5825 4.86741 6.16 5.22491 6.5175L9.70741 11L5.22491 15.4825C4.86741 15.84 4.86741 16.4175 5.22491 16.775C5.58241 17.1325 6.15991 17.1325 6.51741 16.775L10.9999 12.2925L15.4824 16.775C15.8399 17.1325 16.4174 17.1325 16.7749 16.775C17.1324 16.4175 17.1324 15.84 16.7749 15.4825L12.2924 11L16.7749 6.5175C17.1232 6.16917 17.1232 5.5825 16.7749 5.23417Z" fill="#7B8288"/>
</svg>
