<svg width="26" height="26" viewBox="0 0 26 26" fill="none" xmlns="http://www.w3.org/2000/svg">
<g clip-path="url(#clip0)">
<path d="M6.38938 3.85938L4.86523 8.42969H6.30681L7.82989 3.85938H6.38938Z" fill="#DCFF00"/>
<path d="M25.2397 3.85938H24.4779V3.09766C24.4779 2.67663 24.1373 2.33594 23.7162 2.33594C23.2952 2.33594 22.9545 2.67663 22.9545 3.09766V3.85938H9.4373L7.91406 8.42969H26.0014V4.62109C26.0014 4.20007 25.6607 3.85938 25.2397 3.85938Z" fill="#DCFF00"/>
<path d="M2.28516 3.85938C1.86413 3.85938 1.52344 4.20007 1.52344 4.62109C1.52344 5.04136 1.18127 5.38281 0.761719 5.38281C0.340691 5.38281 0 5.7235 0 6.14453V8.42969H3.25924L4.78268 3.85938H2.28516Z" fill="#DCFF00"/>
<path d="M0 9.95312V10.7148C0 11.1359 0.340691 11.4766 0.761719 11.4766C1.18127 11.4766 1.52344 11.818 1.53085 12.1304L0.266043 21.0553C0.0700273 22.4291 1.131 23.6641 2.51875 23.6641H5.51505C6.66062 23.6641 7.63506 22.8064 7.78233 21.669L8.30751 17.5703H11.4258C12.6859 17.5703 13.7109 16.5452 13.7109 15.2852V13H22.1914C22.48 13 22.7433 12.8371 22.8728 12.579L24.1857 9.95312C5.75494 9.95312 9.86527 9.95312 0 9.95312ZM9.14063 16.0469C8.30004 16.0469 7.61719 15.3633 7.61719 14.5234C7.61719 13.6836 8.30004 13 9.14063 13H9.1912C8.98143 13.6723 8.94385 14.3924 9.12874 15.0858C9.22005 15.4306 9.37422 15.7468 9.55424 16.0469H9.14063ZM12.1875 15.2852C12.1875 15.6473 11.9283 15.9367 11.5896 16.0138C11.1081 15.7131 10.7485 15.2487 10.6001 14.6953C10.4472 14.1194 10.5398 13.5122 10.8355 13H12.1875V15.2852Z" fill="#DCFF00"/>
</g>
<defs>
<clipPath id="clip0">
<rect width="26" height="26" fill="white"/>
</clipPath>
</defs>
</svg>
