<svg width="26" height="26" viewBox="0 0 26 26" fill="none" xmlns="http://www.w3.org/2000/svg">
<g clip-path="url(#clip0)">
<path d="M5.73025 21.8206C5.556 21.5001 5.33598 21.2018 5.07063 20.9365C4.79238 20.6586 4.47704 20.4319 4.13894 20.253C3.73491 20.0391 4.05428 19.5811 4.05428 19.5811C4.46781 18.9519 4.84488 18.3198 5.15663 17.7691L3.06365 15.6778H1.03176C0.640993 15.6778 0.324219 15.3608 0.324219 14.9699C0.324219 14.5793 0.640993 14.2622 1.03176 14.2622H3.35624C3.54436 14.2622 3.72416 14.3367 3.85684 14.4693L11.5055 22.1101C11.6384 22.243 11.7129 22.4232 11.7129 22.6108V24.9466C11.7129 25.3376 11.3961 25.654 11.0052 25.654C10.614 25.654 10.2971 25.3377 10.2971 24.9466V22.9042L8.21248 20.8223C7.64979 21.1544 6.99573 21.5615 6.34767 22.0093C6.34758 22.0091 5.97634 22.2734 5.73025 21.8206Z" fill="#DCFF00"/>
<path d="M2.38439 21.2407C1.74779 21.2407 1.14954 21.4883 0.699106 21.9381C0.249477 22.3873 0.00195312 22.985 0.00195312 23.6203C0.00195312 24.2561 0.249567 24.8532 0.699106 25.3024C1.14945 25.7517 1.74779 25.9996 2.38439 25.9998C3.02062 25.9998 3.61896 25.7516 4.06895 25.3024C4.51894 24.8531 4.76682 24.2558 4.76682 23.6203C4.76682 22.9849 4.51885 22.3872 4.06895 21.9381C3.61905 21.4883 3.02062 21.2407 2.38439 21.2407Z" fill="#DCFF00"/>
<path d="M9.04813 16.333C8.73441 16.6465 8.22108 16.6465 7.90736 16.3331L7.11811 15.5447C6.80438 15.2313 6.80438 14.7184 7.11811 14.4051L20.5909 0.946385C20.9047 0.633016 21.5227 0.343745 21.9643 0.30361L25.2666 0.00332028C25.7082 -0.036814 26.0367 0.291606 25.9965 0.733262L25.6968 4.0292C25.6566 4.47085 25.3671 5.08854 25.0534 5.402L11.5797 18.8623C11.266 19.1757 10.7527 19.1757 10.4389 18.8623L9.64863 18.0728C9.3349 17.7594 9.3349 17.2465 9.64863 16.9331L20.9292 5.66297C21.0953 5.49741 21.0955 5.2283 20.9295 5.06256C20.7639 4.89656 20.4947 4.89656 20.3285 5.06238L9.04813 16.333Z" fill="#DCFF00"/>
<g clip-path="url(#clip1)">
<path d="M20.2698 21.8206C20.444 21.5001 20.664 21.2018 20.9294 20.9365C21.2076 20.6586 21.523 20.4319 21.8611 20.253C22.2651 20.0391 21.9457 19.5811 21.9457 19.5811C21.5322 18.9519 21.1551 18.3198 20.8434 17.7691L22.9364 15.6778H24.9682C25.359 15.6778 25.6758 15.3608 25.6758 14.9699C25.6758 14.5793 25.359 14.2622 24.9682 14.2622H22.6438C22.4556 14.2622 22.2758 14.3367 22.1432 14.4693L14.4945 22.1101C14.3616 22.243 14.2871 22.4232 14.2871 22.6108V24.9466C14.2871 25.3376 14.6039 25.654 14.9948 25.654C15.386 25.654 15.7029 25.3377 15.7029 24.9466V22.9042L17.7875 20.8223C18.3502 21.1544 19.0043 21.5615 19.6523 22.0093C19.6524 22.0091 20.0237 22.2734 20.2698 21.8206Z" fill="#DCFF00"/>
<path d="M23.6156 21.2407C24.2522 21.2407 24.8505 21.4883 25.3009 21.9381C25.7505 22.3873 25.998 22.985 25.998 23.6203C25.998 24.2561 25.7504 24.8532 25.3009 25.3024C24.8505 25.7517 24.2522 25.9996 23.6156 25.9998C22.9794 25.9998 22.381 25.7516 21.9311 25.3024C21.4811 24.8531 21.2332 24.2558 21.2332 23.6203C21.2332 22.9849 21.4812 22.3872 21.9311 21.9381C22.3809 21.4883 22.9794 21.2407 23.6156 21.2407Z" fill="#DCFF00"/>
<path d="M16.9519 16.333C17.2656 16.6465 17.7789 16.6465 18.0926 16.3331L18.8819 15.5447C19.1956 15.2313 19.1956 14.7184 18.8819 14.4051L5.40906 0.946385C5.09533 0.633016 4.47729 0.343745 4.03572 0.30361L0.733425 0.00332028C0.291769 -0.036814 -0.0366516 0.291606 0.00348282 0.733262L0.303236 4.0292C0.34337 4.47085 0.632908 5.08854 0.946636 5.402L14.4203 18.8623C14.734 19.1757 15.2473 19.1757 15.5611 18.8623L16.3514 18.0728C16.6651 17.7594 16.6651 17.2465 16.3514 16.9331L5.07079 5.66297C4.9047 5.49741 4.90452 5.2283 5.07052 5.06256C5.23607 4.89656 5.50528 4.89656 5.67155 5.06238L16.9519 16.333Z" fill="#DCFF00"/>
</g>
</g>
<defs>
<clipPath id="clip0">
<rect width="26" height="26" fill="white"/>
</clipPath>
<clipPath id="clip1">
<rect width="26" height="26" fill="white" transform="matrix(-1 0 0 1 26 0)"/>
</clipPath>
</defs>
</svg>
