<svg width="861" height="883" viewBox="0 0 861 883" fill="none" xmlns="http://www.w3.org/2000/svg">
<path fill-rule="evenodd" clip-rule="evenodd" d="M381.28 0.424373C380.796 0.908197 372.451 1.73624 362.735 2.26339C322.142 4.46587 288.576 10.5426 253.184 22.0954C235.851 27.7532 202.745 43.6039 189.153 52.7533C166.508 67.9973 142.672 90.9044 127.957 111.563C116.256 127.99 98.4928 163.544 91.7426 184.049C88.8744 192.76 80.1435 227.974 78.9124 235.794C78.313 239.6 77.2477 246.1 76.5438 250.237C72.4648 274.205 70.5755 299.056 69.6122 341.405C69.1678 360.933 68.3643 377.802 67.8274 378.892C67.2905 379.981 63.6139 382.602 59.6563 384.716C44.8743 392.611 30.5763 404.639 21.4383 416.867C7.10069 436.054 3.15025 446.487 0.184725 472.985C-1.46559 487.747 8.21292 527.264 18.3947 547.332C27.7981 565.865 41.4727 583.472 54.1372 593.355C72.2282 607.471 81.7302 610.967 102.058 610.986C115.552 610.999 116.173 611.112 118.428 613.984C119.716 615.627 121.686 619.823 122.804 623.311C129.446 644.033 150.085 688.568 162.832 709.69C200.062 771.375 243.884 818.04 292.821 848.113C313.124 860.59 336.062 871.128 352.876 875.705C375.995 882 383.575 883 408.127 883C432.913 883 443.797 881.529 462.177 875.697C494.429 865.462 534.729 842.527 557.965 821.187C565.774 814.014 565.025 812.86 553.16 813.779C547.71 814.201 509.846 814.8 469.018 815.109C405.456 815.591 393.504 815.407 385.87 813.828C349.354 806.269 312.627 783.698 275.823 746.196C258.994 729.047 249.322 717.262 236.479 698.256C221.756 676.467 216.027 666.724 207.301 648.63C191.504 615.873 188.369 607.31 174.215 558.239C169.151 540.68 166.889 534.563 164.999 533.322C162.817 531.89 160.638 532.149 148.084 535.335C125.477 541.072 112.714 543.601 106.362 543.601C100.938 543.601 100.001 543.128 93.8289 537.282C88.9428 532.654 85.6278 527.903 81.4443 519.53C72.6979 502.023 69.4104 491.025 69.4417 479.375C69.4849 463.487 75.1265 454.258 89.2335 447.004C96.505 443.264 96.6047 443.247 125.503 440.524C130.215 440.08 133.616 439.085 134.766 437.809C136.317 436.093 136.671 427.56 137.168 379.875C137.847 314.888 139.509 284.756 143.791 259.865C144.502 255.729 145.568 249.229 146.159 245.423C149.363 224.763 160.56 189.688 169.686 171.719C180.33 150.763 202.884 124.681 221.956 111.274C242.169 97.0665 284.046 80.4925 309.789 76.5124C313.668 75.913 320.222 74.8347 324.35 74.1162C328.479 73.3988 336.451 72.2531 342.066 71.5707C352.764 70.2708 561.532 68.7989 566.373 69.9892C569.783 70.8281 569.858 73.9561 566.67 82.3604C562.865 92.3908 545.232 127.036 539.885 134.988C520.412 163.943 488.164 192.861 448.965 216.518C424.778 231.115 387.106 246.091 352.644 254.809C311.116 265.315 277.454 269.852 231.564 271.131C212.57 271.661 207.745 272.144 206.041 273.684C204.147 275.396 203.939 278.525 203.939 305.299C203.939 332.982 204.095 335.156 206.225 337.087C208.294 338.964 211.165 339.1 236.553 338.532C264.721 337.903 282.359 336.692 298.526 334.28C303.316 333.565 310.883 332.487 315.342 331.885C344.979 327.88 401.472 312.686 429.146 301.277C462.601 287.484 481.476 277.415 509.02 258.668C525.131 247.701 528.151 245.362 547.955 228.504C558.798 219.273 575.661 199.832 590.747 179.169C597.999 169.235 600.28 166.9 602.734 166.896C611.97 166.882 638.405 190.617 649.53 208.912C666.246 236.401 674.332 272.816 677.346 334.184C677.979 347.092 678.753 406.312 679.063 465.785C679.662 580.589 679.661 580.604 674.048 597.43C662.839 631.032 626.422 657.833 573.781 671.222C548.742 677.59 534.151 679.44 501.735 680.356C482.973 680.886 479.202 680.704 477.962 679.205C477.15 678.225 474.94 671.648 473.049 664.588C469.104 649.849 464.462 641.896 453.544 631.162C440.649 618.485 427.358 613.439 406.812 613.419C386.273 613.4 373.249 618.592 359.646 632.225C346.041 645.856 340.859 658.906 340.878 679.487C340.897 700.075 345.934 713.393 358.585 726.314C368.63 736.573 377.278 741.852 389.665 745.288L400.32 748.244L468.182 747.747C539.905 747.222 549.192 746.657 577.099 741.109C625.939 731.4 669.229 709.48 699.512 679.122C713.974 664.623 721.821 653.836 730.494 636.532C739.023 619.514 736.598 620.627 765.156 620.626C781.843 620.626 792.117 620.074 797.886 618.868C832.345 611.662 855.139 595.02 870.017 566.201C881.401 544.147 882.962 533.756 883 479.813C883.033 429.459 880.91 414.297 871.256 395.946C858.214 371.154 834.107 351.386 808.212 344.247C798.998 341.707 795.396 341.405 774.306 341.405C743.327 341.405 745.313 342.888 744.224 318.948C742.648 284.292 738.11 253.849 730.62 227.67C727.142 215.513 726.707 214.216 722.16 202.396C708.528 166.97 682.959 135.47 650.45 114.057C638.152 105.957 635.136 103.422 635.136 101.187C635.136 99.6578 640.596 87.1421 647.271 73.3736C653.945 59.6062 663.674 39.5371 668.891 28.775C676.859 12.3382 679.695 4.36237 678.075 2.947C676.416 1.49673 382.701 -0.99942 381.28 0.424373ZM292.22 411.666C285.876 414.664 277.986 421.822 275.477 426.857C271.483 434.869 270.829 440.837 272.98 449.633C276.085 462.328 283.07 470.076 294.949 474.003C303.496 476.828 309.204 476.781 317.098 473.819C331.433 468.442 338.439 458.16 338.439 442.503C338.439 427.822 331.768 416.979 319.245 411.306C311.511 407.801 300.074 407.954 292.22 411.666ZM497.301 410.806C486.803 414.53 475.426 430.117 475.401 440.812C475.385 447.251 479.026 458.161 482.657 462.554C489.621 470.98 500.39 476.215 510.707 476.19C521.713 476.164 536.988 464.746 540.727 453.75C544.792 441.793 541.569 426.976 533.042 418.432C524.529 409.901 509.122 406.614 497.301 410.806ZM794.883 411.306C802.139 414.593 807.792 420.178 811.234 427.459C814.071 433.463 814.077 433.574 814.077 479.813C814.077 526.083 814.073 526.158 811.228 532.167C807.181 540.708 799.365 547.827 790.782 550.787C785.001 552.779 780.649 553.229 767.137 553.229C751.387 553.229 750.487 553.098 748.709 550.553C747.071 548.211 746.839 539.584 746.839 481.016C746.839 422.448 747.071 413.821 748.709 411.479C750.512 408.9 751.276 408.805 770.028 408.83C786.981 408.853 790.172 409.171 794.883 411.306Z" fill="url(#paint0_linear)" fill-opacity="0.02"/>
<defs>
<linearGradient id="paint0_linear" x1="1.99797e-05" y1="461.639" x2="883" y2="461.639" gradientUnits="userSpaceOnUse">
<stop stop-color="white"/>
<stop offset="1" stop-color="white" stop-opacity="0"/>
</linearGradient>
</defs>
</svg>
