<svg width="23" height="23" viewBox="0 0 23 23" fill="none" xmlns="http://www.w3.org/2000/svg">
<path fill-rule="evenodd" clip-rule="evenodd" d="M0.890087 0.0252108C0.751194 0.0679892 0.480629 0.221326 0.375193 0.317002C0.132265 0.537442 0.00113081 0.82677 0.00113081 1.14224C0.00113081 1.35461 -0.0765855 1.13087 1.05654 4.18026C2.62878 8.41129 2.92054 9.18898 2.95624 9.2441C2.99853 9.30941 3.07722 9.34459 3.27411 9.3862C3.34819 9.40184 6.11203 9.86602 9.41599 10.4177C12.7199 10.9694 15.4626 11.4333 15.5107 11.4487C15.5678 11.4668 15.5983 11.4939 15.5983 11.5264C15.5983 11.559 15.5678 11.5861 15.5107 11.6043C15.4626 11.6196 12.6472 12.096 9.25436 12.6629C4.59367 13.4417 3.06908 13.7055 3.01819 13.7419C2.94786 13.7923 2.80037 14.1781 1.05177 18.8862C0.678704 19.8907 0.304992 20.8952 0.221323 21.1184C0.0789011 21.4984 0.0685837 21.5419 0.0596671 21.8009C0.051882 22.0274 0.0603677 22.1083 0.106566 22.2474C0.21176 22.564 0.482864 22.8388 0.794295 22.9446C1.00719 23.0169 1.36339 23.0187 1.56604 22.9485C1.64616 22.9208 2.63298 22.4322 3.75899 21.8628C7.04611 20.2004 15.1254 16.121 18.9848 14.1748C22.2043 12.5513 22.5596 12.3658 22.6833 12.2435C22.9291 12.0003 23.046 11.6447 22.9833 11.3303C22.9329 11.0773 22.8367 10.9032 22.6361 10.7017C22.4305 10.4952 23.3626 10.9753 13.4163 5.95238C3.97628 1.18515 1.81748 0.10008 1.6738 0.0502932C1.52103 -0.0026318 1.0314 -0.0182981 0.890087 0.0252108Z" fill="#C1E704"/>
</svg>
