<svg width="46" height="46" viewBox="0 0 46 46" fill="none" xmlns="http://www.w3.org/2000/svg">
<path fill-rule="evenodd" clip-rule="evenodd" d="M27.9625 8.76115C27.9314 8.77008 27.8549 8.78799 27.7925 8.80094C27.5674 8.84765 27.1081 9.10155 26.6025 9.45878C26.5194 9.5175 26.3622 9.62803 26.2531 9.7044C26.144 9.78078 25.974 9.90468 25.8753 9.97974C25.7766 10.0548 25.6236 10.1702 25.5353 10.2361C25.2706 10.4336 24.8654 10.7452 24.8553 10.759C24.8501 10.7661 24.7651 10.8344 24.6664 10.9108C24.4374 11.088 23.3567 11.9501 23.3442 11.9655C23.339 11.9719 23.2455 12.0485 23.1364 12.1356C23.0273 12.2227 22.9338 12.2991 22.9286 12.3053C22.9234 12.3114 22.8299 12.3878 22.7208 12.4749C22.6118 12.562 22.5183 12.6381 22.5131 12.6439C22.5079 12.6497 22.4569 12.6924 22.3997 12.7388C22.3426 12.7852 22.2916 12.8276 22.2864 12.8331C22.2812 12.8385 22.2302 12.8809 22.1731 12.9273C22.1159 12.9737 22.0649 13.0161 22.0597 13.0216C22.0545 13.027 22.0035 13.0694 21.9464 13.1158C21.8893 13.1622 21.8383 13.2046 21.8331 13.2101C21.8279 13.2155 21.7769 13.2579 21.7197 13.3043C21.6626 13.3507 21.6116 13.3931 21.6064 13.3986C21.6012 13.404 21.5502 13.4464 21.4931 13.4928C21.4359 13.5392 21.3849 13.5816 21.3797 13.5871C21.3745 13.5925 21.3235 13.6349 21.2664 13.6812C21.2092 13.7276 21.1497 13.7785 21.1342 13.7944C21.1186 13.8104 21.0591 13.8613 21.0019 13.9076C20.9448 13.9539 20.8938 13.9963 20.8886 14.0018C20.8834 14.0072 20.8324 14.0497 20.7753 14.096C20.7181 14.1424 20.6671 14.1848 20.6619 14.1903C20.6567 14.1957 20.6057 14.2381 20.5486 14.2845C20.4915 14.3308 20.432 14.3817 20.4164 14.3976C20.4008 14.4136 20.3413 14.4645 20.2842 14.5107C20.227 14.557 20.1675 14.6079 20.1519 14.6238C20.1364 14.6398 20.0769 14.6907 20.0197 14.7369C19.9626 14.7832 19.9031 14.8341 19.8875 14.85C19.8719 14.866 19.8124 14.9169 19.7553 14.9632C19.6981 15.0096 19.6471 15.0519 19.6419 15.0574C19.6367 15.0629 19.5857 15.1053 19.5286 15.1517C19.4715 15.1981 19.4035 15.2575 19.3775 15.2836C19.3515 15.3097 19.2835 15.3691 19.2264 15.4155C19.1692 15.4619 19.1182 15.5043 19.113 15.5098C19.1079 15.5153 19.0569 15.5576 18.9997 15.604C18.9426 15.6503 18.8831 15.7012 18.8675 15.7172C18.8519 15.7331 18.7924 15.784 18.7353 15.8303C18.6781 15.8765 18.6186 15.9274 18.603 15.9434C18.5875 15.9593 18.528 16.0102 18.4708 16.0565C18.4137 16.1027 18.3542 16.1536 18.3386 16.1696C18.323 16.1855 18.2635 16.2364 18.2064 16.2827C18.1492 16.3289 18.0897 16.3798 18.0742 16.3958C18.0586 16.4117 17.9992 16.4627 17.9421 16.5092C17.8851 16.5557 17.8107 16.621 17.7768 16.6544C17.7429 16.6878 17.6669 16.7514 17.608 16.7958L17.501 16.8765L13.8823 16.8896C9.61759 16.905 9.2877 16.9146 8.88997 17.0356C8.69152 17.096 8.51971 17.3405 8.49181 17.6022C8.42116 18.2652 8.40109 19.564 8.40112 23.4646C8.40118 28.1692 8.43148 29.4391 8.54885 29.657C8.59188 29.7368 8.69284 29.8505 8.79553 29.9346C8.87374 29.9987 9.03222 30.0497 9.26244 30.0848C9.40107 30.1059 11.4391 30.1283 11.5154 30.1096C11.5716 30.0957 29.5544 12.1498 29.5683 12.0936C29.5863 12.0207 29.5651 10.1342 29.545 10.0244C29.4979 9.76721 29.3629 9.4775 29.1701 9.22032C28.9977 8.9902 28.7561 8.8199 28.5386 8.77513C28.4207 8.75085 28.0313 8.74139 27.9625 8.76115ZM33.2326 18.9774C33.2118 18.9868 33.1588 18.9951 33.1148 18.9958C33.038 18.9971 32.9417 19.0152 32.7792 19.059C32.6021 19.1067 32.3217 19.2774 32.2246 19.3964C32.1451 19.494 32.1032 19.6441 32.1158 19.7859C32.1445 20.1062 32.1667 20.2174 32.3231 20.8256C32.3725 21.0176 32.431 21.274 32.4673 21.4571C32.4796 21.5193 32.4938 21.5871 32.4988 21.6079C32.5151 21.6754 32.5668 22.0767 32.6008 22.3996C32.6498 22.8652 32.6505 24.0044 32.602 24.426C32.5476 24.8996 32.523 25.064 32.4781 25.2554C32.4382 25.4257 32.2994 25.9738 32.2202 26.2733C32.1451 26.5576 32.1265 26.6732 32.115 26.9271C32.1057 27.133 32.1068 27.1406 32.164 27.2601C32.2288 27.3956 32.3465 27.5143 32.4974 27.5961C32.6241 27.6649 32.9621 27.7743 33.1003 27.7913C33.4278 27.8316 33.8772 27.7881 34.0486 27.6995C34.0818 27.6823 34.1209 27.6683 34.1354 27.6683C34.1796 27.6683 34.3802 27.5293 34.4719 27.4351C34.5196 27.3862 34.5778 27.302 34.6013 27.248C34.6903 27.0436 34.702 27.0136 34.7567 26.8483C34.8452 26.5811 35.0161 25.9448 35.0579 25.7267C35.0688 25.6696 35.0856 25.5848 35.0952 25.5382C35.1049 25.4915 35.1211 25.394 35.1314 25.3214C35.1416 25.2488 35.1584 25.1385 35.1687 25.0763C35.3491 23.9827 35.3496 22.7141 35.1701 21.6362C35.1346 21.423 35.1085 21.2658 35.0937 21.1743C35.0665 21.0078 35.0387 20.8761 35.0001 20.7313C34.8755 20.2646 34.8435 20.153 34.7744 19.9452C34.5885 19.386 34.3721 19.1432 33.9598 19.0311C33.7973 18.9869 33.2937 18.9497 33.2326 18.9774ZM25.0217 25.449C22.5771 27.8895 20.5174 29.9529 20.4447 30.0343C20.372 30.1158 20.0724 30.4229 19.7789 30.7168C19.4854 31.0107 19.2315 31.2721 19.2147 31.2976C19.187 31.34 19.1869 31.3481 19.214 31.3893C19.2558 31.453 19.4432 31.6394 19.5664 31.7397C19.6235 31.7863 19.6915 31.8457 19.7175 31.8719C19.7435 31.898 19.8115 31.9573 19.8686 32.0037C19.9257 32.05 19.9852 32.101 20.0008 32.1169C20.0164 32.1329 20.0759 32.1838 20.133 32.23C20.1902 32.2763 20.2497 32.3272 20.2653 32.3431C20.2809 32.3591 20.3404 32.41 20.3975 32.4563C20.4546 32.5026 20.5056 32.545 20.5108 32.5505C20.516 32.556 20.567 32.5984 20.6242 32.6447C20.6813 32.6911 20.7323 32.7335 20.7375 32.739C20.7427 32.7445 20.7937 32.7868 20.8508 32.8332C20.908 32.8795 20.9675 32.9307 20.9831 32.9469C20.9986 32.9631 21.1006 33.0477 21.2097 33.1348C21.3188 33.222 21.4123 33.298 21.4175 33.3039C21.4227 33.3097 21.4737 33.3524 21.5308 33.3987C21.588 33.4451 21.639 33.4875 21.6442 33.493C21.6494 33.4985 21.7004 33.5409 21.7575 33.5873C21.8146 33.6336 21.8656 33.676 21.8708 33.6815C21.876 33.687 21.927 33.7294 21.9842 33.7758C22.0413 33.8221 22.0923 33.8648 22.0975 33.8706C22.1027 33.8765 22.1962 33.9525 22.3053 34.0397C22.4144 34.1268 22.5079 34.2031 22.5131 34.2093C22.5183 34.2155 22.6118 34.2918 22.7208 34.379C22.8299 34.4661 22.9234 34.5425 22.9286 34.5488C22.9338 34.5551 23.0698 34.6653 23.2308 34.7937C23.3919 34.922 23.5279 35.0324 23.5331 35.039C23.5444 35.0532 24.5851 35.8839 24.8931 36.1245C25.0125 36.2178 25.2293 36.3874 25.3747 36.5014C26.309 37.2334 26.8092 37.5769 27.2636 37.798C27.7748 38.0468 27.9828 38.1113 28.2742 38.1113C28.5526 38.1113 28.7111 38.0614 28.9089 37.9112C29.1034 37.7635 29.2627 37.5374 29.4815 37.0983L29.5777 36.9052L29.5683 31.283C29.5631 28.1907 29.5524 24.6174 29.5446 23.3424C29.5313 21.1885 29.5281 21.0236 29.4984 21.0179C29.4771 21.0138 27.996 22.4798 25.0217 25.449Z" fill="white" fill-opacity="0.45"/>
<path d="M29.5683 12.0936C29.5544 12.1498 11.5716 30.0957 11.5154 30.1096L17.5043 30.0664L19.214 31.3893C19.1869 31.3481 19.187 31.34 19.2147 31.2976C19.2315 31.2721 19.4854 31.0107 19.7789 30.7168C20.0724 30.4229 20.372 30.1158 20.4447 30.0343C20.5174 29.9529 22.5771 27.8895 25.0217 25.449C27.996 22.4798 29.4771 21.0138 29.4984 21.0179L29.5683 12.0936Z" fill="white" fill-opacity="0.45"/>
</svg>
