<svg width="18" height="18" viewBox="0 0 18 18" fill="none" xmlns="http://www.w3.org/2000/svg">
<g clip-path="url(#clip0)">
<path d="M11.8507 0.0637787C11.6269 -0.0429311 11.3634 -0.0146466 11.1705 0.140918L4.91709 5.14342H1.92921C1.22082 5.14342 0.643555 5.72068 0.643555 6.42908V11.5717C0.643555 12.2814 1.22082 12.8574 1.92921 12.8574H4.91709L11.1693 17.8599C11.2862 17.9524 11.429 18 11.5717 18C11.6668 18 11.7619 17.9782 11.8507 17.9357C12.0731 17.829 12.2145 17.604 12.2145 17.3572V0.643611C12.2145 0.396765 12.0731 0.171774 11.8507 0.0637787Z" fill="white"/>
<path d="M15.4684 4.45428C15.2152 4.20486 14.8089 4.20872 14.5595 4.45942C14.3101 4.71269 14.3126 5.11896 14.5646 5.36967C15.5366 6.32877 16.0714 7.61829 16.0714 9.00037C16.0714 10.3825 15.5366 11.672 14.5646 12.6311C14.3126 12.8792 14.3101 13.2868 14.5595 13.54C14.6855 13.6673 14.8513 13.7303 15.0159 13.7303C15.1792 13.7303 15.3425 13.6686 15.4684 13.5439C16.6872 12.3444 17.3571 10.7296 17.3571 9.00037C17.3571 7.27116 16.6872 5.65637 15.4684 4.45428Z" fill="white"/>
</g>
<defs>
<clipPath id="clip0">
<rect width="18" height="18" fill="white"/>
</clipPath>
</defs>
</svg>
