<svg width="18" height="18" viewBox="0 0 18 18" fill="none" xmlns="http://www.w3.org/2000/svg">
<path d="M14.1413 0.645775C14.1413 0.40153 13.9999 0.170141 13.7813 0.0673007C13.55 -0.0483942 13.2929 -0.00982926 13.1 0.144431L7.40527 4.68224L14.1413 11.4183V0.645775Z" fill="white"/>
<path d="M17.8103 16.9021L1.09881 0.190689C0.848133 -0.0599824 0.44063 -0.0599824 0.189957 0.190689C-0.060715 0.441361 -0.060715 0.848864 0.189957 1.09954L4.23414 5.14499H3.85749C3.45898 5.14499 3.1119 5.32496 2.88051 5.60777C2.68768 5.82631 2.57199 6.12197 2.57199 6.43049V11.5725C2.57199 12.2795 3.15046 12.858 3.85749 12.858H6.83984L13.1002 17.8586C13.2159 17.9485 13.3573 18 13.4987 18C13.5887 18 13.6916 17.9743 13.7815 17.9357C14.0001 17.8328 14.1415 17.6015 14.1415 17.3572V15.0523L16.9002 17.811C17.0261 17.937 17.1907 18 17.3552 18C17.5198 18 17.6843 17.937 17.8103 17.8123C18.061 17.5603 18.061 17.1541 17.8103 16.9021Z" fill="white"/>
</svg>
