<svg width="53" height="63" viewBox="0 0 53 63" fill="none" xmlns="http://www.w3.org/2000/svg">
<mask id="path-1-inside-1" fill="white">
<path fill-rule="evenodd" clip-rule="evenodd" d="M38.171 13.6677C33.6711 13.5591 26.366 17.5829 19.7244 24.2245C13.0829 30.866 9.05914 38.1711 9.16765 42.6709C7.87655 42.6398 6.81638 42.2685 6.06908 41.5212C2.71724 38.1693 6.9289 28.5232 15.4761 19.9761C24.0233 11.4289 33.6694 7.2172 37.0212 10.569C37.7685 11.3164 38.1398 12.3765 38.171 13.6677Z"/>
</mask>
<path d="M38.171 13.6677L38.1469 14.6674L39.196 14.6927L39.1707 13.6436L38.171 13.6677ZM9.16765 42.6709L9.14354 43.6706L10.1927 43.696L10.1674 42.6468L9.16765 42.6709ZM20.4316 24.9316C23.6976 21.6656 27.1135 19.0572 30.2436 17.285C33.4016 15.4969 36.1633 14.6195 38.1469 14.6674L38.1951 12.668C35.6787 12.6073 32.538 13.6875 29.2581 15.5446C25.9503 17.4175 22.3929 20.1418 19.0173 23.5174L20.4316 24.9316ZM10.1674 42.6468C10.1195 40.6633 10.9969 37.9016 12.785 34.7435C14.5572 31.6135 17.1655 28.1976 20.4316 24.9316L19.0173 23.5174C15.6418 26.8929 12.9175 30.4503 11.0446 33.7581C9.18754 37.0379 8.10726 40.1787 8.16794 42.695L10.1674 42.6468ZM9.19177 41.6712C8.07456 41.6443 7.29064 41.3285 6.77619 40.814L5.36197 42.2283C6.34211 43.2084 7.67854 43.6353 9.14354 43.6706L9.19177 41.6712ZM6.77619 40.814C6.20066 40.2385 5.87157 39.3202 5.92221 37.9804C5.97291 36.6388 6.40516 34.9791 7.2269 33.097C8.86776 29.3389 11.9751 24.8913 16.1832 20.6832L14.769 19.2689C10.4299 23.608 7.15781 28.257 5.394 32.2967C4.5134 34.3136 3.98701 36.228 3.92363 37.9049C3.86019 39.5835 4.26158 41.1279 5.36197 42.2283L6.77619 40.814ZM16.1832 20.6832C20.3913 16.4751 24.8389 13.3677 28.597 11.7269C30.4791 10.9051 32.1389 10.4729 33.4804 10.4222C34.8203 10.3715 35.7386 10.7006 36.3141 11.2761L37.7283 9.86193C36.6279 8.76154 35.0835 8.36015 33.4049 8.42359C31.728 8.48697 29.8136 9.01337 27.7968 9.89396C23.7571 11.6578 19.1081 14.9299 14.769 19.2689L16.1832 20.6832ZM36.3141 11.2761C36.8285 11.7906 37.1443 12.5745 37.1713 13.6918L39.1707 13.6436C39.1354 12.1785 38.7085 10.8421 37.7283 9.86193L36.3141 11.2761Z" fill="white" mask="url(#path-1-inside-1)"/>
<mask id="path-3-inside-2" fill="white">
<path fill-rule="evenodd" clip-rule="evenodd" d="M16.8923 50.396C16.7832 45.8962 20.8071 38.5907 27.4491 31.9487C34.0906 25.3072 41.3956 21.2834 45.8954 21.3919C45.8641 20.1011 45.4928 19.0413 44.7457 18.2941C41.3938 14.9423 31.7478 19.154 23.2006 27.7012C14.6534 36.2483 10.4417 45.8944 13.7936 49.2462C14.5409 49.9936 15.6011 50.3649 16.8923 50.396Z"/>
</mask>
<path d="M16.8923 50.396L16.8682 51.3957L17.9174 51.421L17.892 50.3718L16.8923 50.396ZM45.8954 21.3919L45.8713 22.3916L46.9206 22.4169L46.8951 21.3677L45.8954 21.3919ZM17.892 50.3718C17.8439 48.3884 18.7211 45.6266 20.5092 42.4684C22.2815 39.3381 24.8899 35.922 28.1562 32.6558L26.7419 31.2416C23.3662 34.6173 20.6417 38.175 18.7688 41.483C16.9118 44.763 15.8316 47.9039 15.8926 50.4203L17.892 50.3718ZM28.1562 32.6558C31.4222 29.3898 34.838 26.7815 37.9681 25.0092C41.1261 23.2211 43.8878 22.3438 45.8713 22.3916L45.9195 20.3922C43.4032 20.3315 40.2625 21.4118 36.9826 23.2688C33.6749 25.1417 30.1175 27.8661 26.7419 31.2416L28.1562 32.6558ZM44.0386 19.0012C44.5529 19.5156 44.8687 20.2993 44.8957 21.4161L46.8951 21.3677C46.8596 19.903 46.4327 18.567 45.4528 17.587L44.0386 19.0012ZM23.9077 28.4083C28.1158 24.2001 32.5634 21.0928 36.3215 19.452C38.2036 18.6302 39.8634 18.198 41.2049 18.1473C42.5448 18.0966 43.463 18.4257 44.0386 19.0012L45.4528 17.587C44.3524 16.4866 42.808 16.0852 41.1294 16.1487C39.4525 16.2121 37.5381 16.7385 35.5212 17.6191C31.4815 19.3829 26.8326 22.655 22.4935 26.994L23.9077 28.4083ZM14.5007 48.5391C13.9251 47.9636 13.5961 47.0453 13.6467 45.7055C13.6974 44.3639 14.1296 42.7042 14.9514 40.8221C16.5922 37.064 19.6996 32.6164 23.9077 28.4083L22.4935 26.994C18.1544 31.3331 14.8823 35.9821 13.1185 40.0218C12.2379 42.0387 11.7115 43.9531 11.6481 45.63C11.5847 47.3086 11.9861 48.853 13.0865 49.9534L14.5007 48.5391ZM16.9164 49.3963C15.7991 49.3694 15.0151 49.0536 14.5007 48.5391L13.0865 49.9534C14.0666 50.9335 15.4031 51.3604 16.8682 51.3957L16.9164 49.3963Z" fill="white" mask="url(#path-3-inside-2)"/>
<path fill-rule="evenodd" clip-rule="evenodd" d="M5.21915 38.508C10.2518 39.1494 17.9363 35.505 24.578 28.8634C31.2195 22.2219 34.8639 14.5375 34.2226 9.50487C35.6665 9.6889 36.8922 10.2257 37.8122 11.1458C41.9391 15.2727 38.3558 25.5471 29.8086 34.0943C21.2614 42.6414 10.987 46.2248 6.86013 42.0979C5.93999 41.1778 5.40314 39.952 5.21915 38.508Z" fill="white"/>
<path fill-rule="evenodd" clip-rule="evenodd" d="M41.7072 17.7766C41.4903 22.3069 37.5282 29.2879 31.1577 35.6584C24.7872 42.0289 17.8064 45.9909 13.2761 46.208C13.3141 47.868 13.8008 49.2534 14.7842 50.2369C18.6462 54.0988 28.7057 50.3006 37.2529 41.7534C45.8001 33.2062 49.5983 23.1467 45.7364 19.2848C44.7528 18.3012 43.3673 17.8145 41.7072 17.7766Z" fill="white"/>
</svg>
