<svg width="43" height="57" viewBox="0 0 43 57" fill="none" xmlns="http://www.w3.org/2000/svg">
<path d="M9.27062 11.6069C8.23764 14.6667 6.76195 19.4093 6.31924 20.9392C5.72896 23.081 6.4668 33.6372 7.35221 37.0029V37.1559C7.35221 40.0627 13.6799 47.0792 13.6799 47.0792C14.9006 49.0405 15.6715 50.1697 17.0536 52.0802C17.4963 52.6922 17.8953 53.3367 18.715 54.1376C19.6381 55.0395 20.2515 55.1532 21.1716 54.7211C22.0917 54.2891 22.2219 53.2613 21.785 52.1738C21.3481 51.0863 21.0009 50.3914 20.5582 49.6265C20.1155 48.7086 19.6758 48.0135 19.3314 47.0792C25.2255 46.7737 24.031 42.0654 21.9706 42.2039C24.1794 42.0445 25.7904 39.4495 20.0431 38.5328C20.5582 35.932 21.9615 33.6372 24.3226 31.4954C25.208 30.2715 26.8313 30.4244 27.8642 31.4954C29.1924 32.8723 30.3729 34.4021 31.5535 35.932C32.4389 37.1559 33.0291 39.1448 35.2427 38.3798C36.7184 37.7679 36.8659 36.238 36.4232 33.6372C35.5378 29.6595 34.2097 26.1408 31.701 22.928C30.5205 21.2451 29.4875 19.4093 28.3069 17.7264C26.5361 14.8197 24.9129 11.9129 25.6507 8.08816C25.7983 6.86425 25.3556 5.33436 24.6177 4.41643C19.7975 1.47904 14.3455 1.86663 12.222 2.4276L10.156 3.19254V9.31207C10.156 9.31207 9.86087 10.077 9.41816 11.3009L9.27062 11.6069Z" fill="white"/>
</svg>
