<svg width="46" height="61" viewBox="0 0 46 61" fill="none" xmlns="http://www.w3.org/2000/svg">
<path d="M7.36279 27.0058C7.36279 22.2136 8.67266 9.76768 8.39689 4.35717C19.2898 5.01955 24.0054 3.93059 34.8569 3.26805C35.8431 3.20784 37.3526 19.4697 37.3526 20.0494C37.3526 20.6291 38.5936 32.0298 38.5936 32.4163V37.4403C38.5936 38.2133 39.2141 40.3388 39.2141 41.1118C39.2141 41.8847 38.5936 43.817 38.5936 44.9764C38.5936 46.1358 38.1799 50.9666 37.9731 51.9328C37.8076 52.7057 37.0769 56.5059 36.7321 58.3094C35.0775 59.237 32.4577 58.6959 31.3547 58.3094C31.0789 57.0856 30.486 54.5221 30.3205 54.0583C30.1137 53.4786 29.7 50.0005 29.4932 49.2275C29.2864 48.4546 28.4591 46.1358 27.8386 44.5899C27.2181 43.0441 25.9772 37.2471 25.5635 35.7012C25.1499 34.1554 23.9089 27.972 22.8748 24.3005C22.0475 21.3634 21.0133 18.3103 20.5997 17.1509V21.2088V27.972C20.5997 28.9381 19.7724 33.5757 19.7724 34.7351C19.7724 35.8945 20.3929 39.1794 19.7724 40.3388C19.1519 41.4982 19.7724 43.0441 19.7724 43.817V50.9666C19.7724 52.9762 18.9451 56.6992 18.5314 58.3094C17.0836 58.5027 14.0226 58.7732 13.3608 58.3094C12.5335 57.7298 10.4652 50.1937 10.2584 49.2275C10.0515 48.2614 9.43106 44.5899 9.43106 43.817C9.43106 43.0441 9.0174 39.9524 8.39692 38.2133C7.77645 36.4742 7.36279 32.996 7.36279 27.0058Z" fill="white"/>
</svg>
