<svg width="54" height="72" viewBox="0 0 54 72" fill="none" xmlns="http://www.w3.org/2000/svg">
<path d="M11.4468 20.7882C12.4706 41.1015 11.3059 56.5485 10.3557 63.6524C10.191 64.8842 11.1384 66 12.3811 66H41.4585C42.7533 66 43.7082 64.7903 43.4537 63.5207C40.593 49.2471 41.1469 29.369 41.8298 20.7882C37.2 16.7694 37.9716 8.58824 38.9362 5H36.0426C35.3191 8.34902 32.2808 19.3529 25.9149 19.3529C19.5489 19.3529 16.5106 8.34902 15.7872 5H12.8936C15.2085 11.8894 12.8936 18.3961 11.4468 20.7882Z" fill="white"/>
<path d="M38.4999 25C37.6666 29 33.7999 38.9 24.9999 46.5C13.9999 56 36.9999 45.5 38.4999 25Z" fill="#DCDCDC"/>
<path d="M38.795 31.3315C34.6406 45.7625 27.95 46.0106 29.6362 47.8187C30.9499 49.2272 39.2316 42.0747 38.795 31.3315Z" fill="#DCDCDC"/>
<path d="M15.5 5C18.3571 6.72594 27.9286 9.14226 36.5 5C33.4048 15.6022 25.5 46.4226 15.5 5Z" fill="#C4C4C4"/>
</svg>
