<svg width="61" height="46" viewBox="0 0 61 46" fill="none" xmlns="http://www.w3.org/2000/svg">
<path d="M4.76286 3.978C7.04904 3.21594 13.336 6.83572 16.1937 8.74086C14.6696 0.35821 21.2741 -0.467335 24.7669 0.167724C26.9896 5.24811 34.8642 17.1235 48.5812 23.982C62.2983 30.8406 60.9647 37.3181 60.9647 40.1758C60.9647 45.3276 38.1029 47.2672 30.4823 43.0335C27.0531 41.1284 23.8143 39.2232 17.1463 36.3655C8.76367 36.3655 0 34.4604 0 31.6026V6.83573C0.635049 6.20068 2.47669 4.74006 4.76286 3.978Z" fill="white"/>
<path d="M18.0989 30.65C11.2404 26.8397 4.44535 25.2521 1.90515 24.9346V8.74084C2.85772 11.4308 5.1439 14.8373 6.66802 16.3614C8.57316 18.2666 12.3835 14.4563 21.9092 19.2191C29.5298 23.0294 30.7999 31.7524 30.4823 36.1977C29.8939 35.9035 28.6647 36.3887 26.8326 35.4129C24.7106 34.2825 21.7797 32.6949 18.0989 30.65Z" fill="#D6D6D6"/>
<path d="M60.9647 37.1503C59.0595 37.1503 50.4864 40.9378 42.8658 40.1757C35.2452 39.4137 29.0018 36.683 26.8326 35.4129M26.8326 35.4129C24.7106 34.2825 21.7797 32.6949 18.0989 30.65C11.2404 26.8397 4.44535 25.2521 1.90515 24.9346V8.74084C2.85772 11.4308 5.1439 14.8373 6.66802 16.3614C8.57316 18.2666 12.3835 14.4563 21.9092 19.2191C29.5298 23.0294 30.7999 31.7524 30.4823 36.1977C29.8939 35.9035 28.6647 36.3887 26.8326 35.4129Z" stroke="#D6D6D6"/>
<path d="M16.1936 12.5512C13.0183 13.1862 6.2868 13.3132 4.76268 8.74087C2.85754 3.02543 12.3833 10.646 16.1936 12.5512Z" fill="#D6D6D6"/>
</svg>
