<svg width="48" height="64" viewBox="0 0 48 64" fill="none" xmlns="http://www.w3.org/2000/svg">
<path d="M0.478093 51.5546C0.0191288 52.0824 0.669328 53.0939 1.0518 53.5337C1.0518 54.2123 0.350599 56.2039 0 57.1149C0.191235 58.2458 4.11155 58.717 4.11155 58.4343C4.11155 58.1516 4.97211 55.7955 5.25896 55.3243C5.54582 54.8531 6.21514 54.5704 6.21514 53.4395C6.21514 52.9682 7.17132 52.4028 8.31873 50.6122C9.23665 49.1797 10.5498 44.5492 11.0916 42.4131L11.6653 57.1149C12.1243 61.1108 14.8526 62.6752 16.1594 62.9579C17.0518 63.3349 20.2709 64.07 26.008 63.9946C33.1793 63.9004 35.2829 60.4134 35.8566 58.717C36.3155 57.3599 36.6215 47.2823 36.7171 42.4131C37.6733 44.1094 39.643 47.5587 39.8725 47.7849C40.1594 48.0676 40.255 49.4813 40.255 50.0467C40.255 50.6122 41.4024 50.8007 41.3068 51.6488C41.2112 52.497 40.9243 52.497 41.1155 53.4395C41.3068 54.3819 42.4542 54.7589 42.741 55.0416C42.9705 55.2678 43.8566 57.3976 44.2709 58.4343C45.8773 58.6605 47.4263 57.649 48 57.1149C47.6494 55.8269 46.9482 53.1379 46.9482 52.6855C46.9482 52.1201 47.0438 50.9891 46.6614 50.6122C46.2789 50.2352 46.5657 49.6698 46.4701 49.2928C46.3745 48.9158 45.992 48.2561 45.7052 48.0676C45.4183 47.8791 46.2789 46.1828 45.992 45.5231C45.7626 44.9953 45.5777 44.2351 45.5139 43.921C45.2271 41.6591 42.8367 31.104 42.4542 29.4076C42.0717 27.7113 39.8725 21.3028 39.012 20.5488C38.1514 19.7949 32.6056 17.7216 31.8406 17.7216C31.0757 17.7216 31.0757 13.8576 31.1713 10.4649C31.2669 7.07214 30.7888 6.3182 30.1195 4.05639C29.4502 1.79456 25.4343 0.0982191 23.7131 0.00397665C21.992 -0.0902658 20.1753 1.51186 18.741 2.54852C17.3068 3.58519 16.7331 6.78944 16.5418 9.23974C16.3888 11.2 15.9681 15.7111 15.7769 17.7216C14.9163 17.9101 11.761 19.041 10.7092 19.5122C9.65737 19.9834 8.60558 21.774 7.74502 22.5279C6.88446 23.2819 6.40637 27.1458 5.73705 29.7846C5.06773 32.4234 3.15538 42.7901 3.15538 43.544C3.15538 44.298 2.1992 45.0519 1.91235 45.5231C1.6255 45.9943 1.91235 46.654 1.91235 47.2195C1.91235 47.7849 1.52988 48.3504 1.0518 48.9158C0.573716 49.4813 1.0518 50.8949 0.478093 51.5546Z" fill="white"/>
</svg>
