<svg width="54" height="72" viewBox="0 0 54 72" fill="none" xmlns="http://www.w3.org/2000/svg">
<path d="M25.6616 55.1004C26.2804 54.7432 27.0428 54.7432 27.6616 55.1004L29.7652 56.315C30.384 56.6722 30.7652 57.3325 30.7652 58.047V60.4761C30.7652 61.1906 30.384 61.8508 29.7652 62.2081L27.6616 63.4226C27.0428 63.7799 26.2804 63.7799 25.6616 63.4226L23.5579 62.2081C22.9391 61.8508 22.5579 61.1906 22.5579 60.4761V58.047C22.5579 57.3325 22.9391 56.6722 23.5579 56.315L25.6616 55.1004Z" fill="white"/>
<path d="M43.5731 36C43.5731 42.4147 41.8694 47.0504 38.9655 50.0802C36.0654 53.106 31.8679 54.6346 26.6615 54.6346C21.4552 54.6346 17.2577 53.106 14.3575 50.0802C11.4537 47.0504 9.75 42.4147 9.75 36C9.75 29.5752 11.461 22.7061 14.4666 17.4663C17.4819 12.2099 21.6957 8.75 26.6615 8.75C31.6273 8.75 35.8412 12.2099 38.8564 17.4663C41.8621 22.7061 43.5731 29.5752 43.5731 36Z" stroke="white" stroke-width="1.5"/>
</svg>
