<svg width="30" height="30" viewBox="0 0 30 30" fill="none" xmlns="http://www.w3.org/2000/svg">
<rect width="30" height="30" rx="6" fill="#5856D5"/>
<g clip-path="url(#clip0)">
<path d="M22.5269 15.7702C22.0256 15.4808 21.3177 15.2182 20.5463 15C21.3177 14.7818 22.0256 14.5191 22.5269 14.2297C24.0055 13.376 24.5139 11.4786 23.6602 10C22.8066 8.52141 20.9092 8.01301 19.4306 8.86668C18.9292 9.15613 18.3478 9.63785 17.7731 10.1968C17.9699 9.41961 18.0964 8.67531 18.0964 8.09637C18.0964 6.38902 16.7074 5 15 5C13.2927 5 11.9036 6.38902 11.9036 8.09637C11.9036 8.67535 12.0302 9.41973 12.2269 10.197C11.6522 9.63793 11.0708 9.15617 10.5694 8.86672C9.09079 8.01305 7.19337 8.52148 6.3397 10.0001C5.48603 11.4788 5.99446 13.3761 7.4731 14.2298C7.97446 14.5193 8.68228 14.7818 9.45372 15.0001C8.68228 15.2183 7.97446 15.4809 7.4731 15.7704C5.9945 16.624 5.4861 18.5214 6.33978 20C7.19345 21.4786 9.09087 21.987 10.5695 21.1333C11.0708 20.8439 11.6522 20.3621 12.2269 19.8031C12.0302 20.5804 11.9037 21.3247 11.9037 21.9036C11.9036 23.611 13.2927 25 15 25C16.7074 25 18.0964 23.611 18.0964 21.9036C18.0964 21.3246 17.9699 20.5803 17.7731 19.803C18.3479 20.3621 18.9292 20.8438 19.4306 21.1333C20.9092 21.987 22.8067 21.4785 23.6603 19.9999C24.514 18.5213 24.0056 16.6239 22.5269 15.7702ZM8.05903 13.2149C7.14001 12.6843 6.82403 11.505 7.35458 10.5861C7.88513 9.66707 9.06446 9.35105 9.98345 9.88164C10.7417 10.3194 11.9622 11.504 12.9179 12.7081C12.682 12.9225 12.4792 13.1734 12.3184 13.4519C12.1577 13.7304 12.0418 14.0314 11.9741 14.343C10.4534 14.1173 8.81732 13.6527 8.05903 13.2149ZM9.98353 20.1185C9.06454 20.6491 7.88521 20.333 7.35466 19.4141C6.82407 18.4951 7.14005 17.3157 8.05907 16.7852C8.81735 16.3473 10.4534 15.8827 11.9742 15.6571C12.0419 15.9686 12.1577 16.2696 12.3185 16.5482C12.4793 16.8267 12.6821 17.0775 12.918 17.292C11.9622 18.4961 10.7418 19.6807 9.98353 20.1185ZM15 23.8281C13.9388 23.8281 13.0755 22.9648 13.0755 21.9036C13.0755 21.028 13.4912 19.3788 14.0561 17.9491C14.3598 18.0462 14.6784 18.0964 15 18.0964C15.3216 18.0964 15.6402 18.0462 15.9439 17.9491C16.5088 19.3789 16.9245 21.028 16.9245 21.9036C16.9245 22.9648 16.0612 23.8281 15 23.8281ZM15 16.9245C13.9388 16.9245 13.0755 16.0612 13.0755 15C13.0755 13.9388 13.9388 13.0755 15 13.0755C16.0612 13.0755 16.9245 13.9388 16.9245 15C16.9245 16.0612 16.0612 16.9245 15 16.9245ZM15.9439 12.0509C15.6402 11.9538 15.3216 11.9036 15 11.9036C14.6784 11.9036 14.3598 11.9538 14.0561 12.0509C13.4912 10.6212 13.0755 8.97199 13.0755 8.09637C13.0755 7.0352 13.9388 6.17188 15 6.17188C16.0612 6.17188 16.9245 7.0352 16.9245 8.09637C16.9245 8.97199 16.5088 10.6212 15.9439 12.0509ZM20.0165 9.88152C20.9355 9.35094 22.1148 9.66695 22.6454 10.5859C23.1759 11.5049 22.86 12.6843 21.9409 13.2148C21.1826 13.6527 19.5466 14.1173 18.0259 14.3429C17.9581 14.0314 17.8423 13.7304 17.6815 13.4518C17.5207 13.1733 17.3179 12.9225 17.082 12.708C18.0377 11.5039 19.2582 10.3193 20.0165 9.88152ZM22.6454 19.414C22.1149 20.333 20.9356 20.649 20.0166 20.1184C19.2583 19.6806 18.0378 18.4961 17.0821 17.292C17.318 17.0775 17.5208 16.8267 17.6816 16.5482C17.8424 16.2697 17.9583 15.9687 18.0259 15.6571C19.5466 15.8827 21.1827 16.3473 21.941 16.7852C22.86 17.3157 23.176 18.495 22.6454 19.414Z" fill="white"/>
</g>
<defs>
<clipPath id="clip0">
<rect width="20" height="20" fill="white" transform="translate(5 5)"/>
</clipPath>
</defs>
</svg>
