<svg width="26" height="26" viewBox="0 0 26 26" fill="none" xmlns="http://www.w3.org/2000/svg">
<circle cx="13" cy="13" r="12.5" fill="black" fill-opacity="0.2" stroke="#D4FF00"/>
<g filter="url(#filter0_d)">
<path d="M17 15.765C17 16.5817 16.744 17.2642 16.2321 17.8125C15.7202 18.3608 15.0179 18.6933 14.125 18.81V20H12.9286V18.81C12.0119 18.7167 11.2917 18.4017 10.7679 17.865C10.256 17.3167 10 16.6225 10 15.7825V15.2575H11.3571V15.87C11.3571 16.395 11.5476 16.815 11.9286 17.13C12.3095 17.445 12.8214 17.6025 13.4643 17.6025C14.131 17.6025 14.6488 17.4508 15.0179 17.1475C15.3988 16.8442 15.5893 16.4125 15.5893 15.8525C15.5893 15.2225 15.4107 14.7442 15.0536 14.4175C14.7083 14.0675 14.0238 13.7117 13 13.35C11.8929 12.9533 11.119 12.4925 10.6786 11.9675C10.25 11.4542 10.0357 10.795 10.0357 9.99C10.0357 9.17333 10.2917 8.5025 10.8036 7.9775C11.3155 7.44083 12.0238 7.12 12.9286 7.015V6H14.125V7.015C15.0179 7.12 15.7083 7.44083 16.1964 7.9775C16.6964 8.5025 16.9464 9.185 16.9464 10.025V10.2H15.5893V9.955C15.5893 9.43 15.3988 9.01 15.0179 8.695C14.6488 8.38 14.1488 8.2225 13.5179 8.2225C12.875 8.2225 12.369 8.37417 12 8.6775C11.6429 8.96917 11.4643 9.3775 11.4643 9.9025C11.4643 10.4742 11.6369 10.9292 11.9821 11.2675C12.3155 11.5942 13.0119 11.95 14.0714 12.335C15.1905 12.755 15.9583 13.2217 16.375 13.735C16.7917 14.2483 17 14.925 17 15.765Z" fill="#D4FF00"/>
</g>
<defs>
<filter id="filter0_d" x="4" y="0" width="19" height="26" filterUnits="userSpaceOnUse" color-interpolation-filters="sRGB">
<feFlood flood-opacity="0" result="BackgroundImageFix"/>
<feColorMatrix in="SourceAlpha" type="matrix" values="0 0 0 0 0 0 0 0 0 0 0 0 0 0 0 0 0 0 127 0"/>
<feOffset/>
<feGaussianBlur stdDeviation="3"/>
<feColorMatrix type="matrix" values="0 0 0 0 0.832599 0 0 0 0 1 0 0 0 0 0 0 0 0 1 0"/>
<feBlend mode="normal" in2="BackgroundImageFix" result="effect1_dropShadow"/>
<feBlend mode="normal" in="SourceGraphic" in2="effect1_dropShadow" result="shape"/>
</filter>
</defs>
</svg>
