<svg width="38" height="33" viewBox="0 0 38 33" fill="none" xmlns="http://www.w3.org/2000/svg">
<path fill-rule="evenodd" clip-rule="evenodd" d="M27.7326 2.08411C27.0656 2.32211 26.5343 2.88358 26.6515 3.22674C26.8151 3.70583 27.142 3.82237 28.3224 3.82237C29.4189 3.82237 29.5029 3.84444 29.8851 4.23328C30.2809 4.63604 30.289 4.67414 30.289 6.14038C30.289 7.00467 30.2215 7.76492 30.129 7.94051C29.9802 8.22363 29.9397 8.18188 29.5417 7.33545C28.9752 6.13026 28.4828 5.79048 27.3025 5.79048C26.5203 5.79048 26.3779 5.83659 25.934 6.23303C25.2953 6.8035 25.038 7.32238 25.038 8.03976C25.038 9.01636 25.6977 9.9148 26.7403 10.3578C27.0306 10.4812 27.2434 10.6585 27.2132 10.7518C27.1831 10.8453 24.7766 12.1272 21.8656 13.6007C17.7742 15.6717 16.4673 16.3972 16.1072 16.7969C15.5647 17.3991 15.5466 17.5026 15.9179 17.8803C16.3059 18.2751 16.8691 18.2314 17.9535 17.7223C20.9299 16.325 22.9874 15.4009 24.4853 14.7888C24.9033 14.618 25.6351 14.2948 26.1116 14.0706C27.703 13.3216 27.8307 13.4637 28.0283 16.2021L28.105 17.2652L27.2382 18.3811C26.7616 18.9948 26.3349 19.5286 26.2901 19.5673C26.2453 19.6059 25.9305 19.9855 25.5905 20.4108C25.2504 20.836 24.7849 21.3563 24.556 21.5669C24.164 21.9275 24.0837 21.9452 23.1725 21.8714C22.6405 21.8284 22.112 21.7595 21.998 21.7186C21.6569 21.5958 18.6727 21.2258 16.5397 21.0417C15.7175 20.9707 15.5055 21.0008 15.127 21.2424C14.6267 21.5617 14.4341 22.0976 14.623 22.6446C14.7868 23.1193 15.4703 23.3628 17.0924 23.5244C17.7764 23.5926 18.8336 23.7101 19.4416 23.7856C21.0521 23.9857 22.9025 24.193 23.9511 24.2912C25.3087 24.4181 25.9704 24.1523 29.8054 21.9391C30.7794 21.3771 31.0558 21.4172 31.9472 22.2493C32.3652 22.6394 32.9699 23.1603 33.2911 23.4068C34.4048 24.2615 34.2867 24.6038 32.5134 25.6605C30.3646 26.9411 29.7019 27.8068 30.458 28.3455C31.0452 28.7638 31.5779 28.6123 34.2592 27.264C37.8647 25.4509 38.4493 24.8421 37.7326 23.6459C37.4849 23.2327 35.921 21.1948 35.6812 20.9731C35.6395 20.9344 35.3264 20.5572 34.9853 20.1351C34.6444 19.7128 33.9755 18.9594 33.4989 18.4609C32.5324 17.45 32.3926 17.1125 32.62 16.34C32.7077 16.0422 32.7748 14.86 32.7729 13.6466C32.7701 11.8732 32.7204 11.3345 32.4965 10.6538C32.2573 9.92619 32.2236 9.43683 32.2236 6.69314V3.56272L31.8675 3.13227C31.6717 2.89553 31.1187 2.51105 30.6386 2.27797C29.659 1.80239 28.7017 1.73857 27.7326 2.08411ZM7.32897 0.0641451C6.62934 0.221454 6.21576 0.571637 5.84114 1.32388C5.40462 2.20011 5.40987 2.49293 5.87776 3.35806C6.34925 4.22965 6.89148 4.56128 7.88862 4.58799C9.23066 4.62398 10.1928 3.67268 10.1928 2.31004C10.1928 0.780114 8.84512 -0.27676 7.32897 0.0641451ZM30.003 9.46987C30.0313 10.1555 28.6131 10.9929 27.8889 10.7182C27.6264 10.6187 27.6663 10.572 28.2565 10.289C28.6978 10.0773 29.0628 9.75819 29.3513 9.33154C29.7306 8.77076 29.7971 8.72508 29.8887 8.96308C29.9462 9.11252 29.9976 9.34053 30.003 9.46987ZM3.28364 3.99699C3.03933 4.24554 3.00727 4.46554 3.00727 5.89284C3.00727 7.45862 3.08631 8.0274 3.52103 9.59177C3.74296 10.3903 4.18722 10.8289 4.62941 10.6862C4.76911 10.641 5.21724 10.2852 5.62544 9.89528C6.03363 9.50545 6.46214 9.20489 6.57753 9.22753C6.88512 9.28784 6.9824 9.84706 6.87186 10.9191C6.78715 11.7405 6.59867 12.2175 5.45437 14.5039C4.72849 15.9544 3.92757 17.494 3.67456 17.9252C3.42154 18.3565 2.97396 19.2421 2.68005 19.8933C2.38599 20.5446 1.98872 21.4253 1.79719 21.8506C1.40157 22.7288 1.25565 23.2489 1.06758 24.4513C0.995035 24.9152 0.878957 25.5794 0.809727 25.9274C0.740358 26.2753 0.610053 26.9395 0.519957 27.4035C0.429861 27.8674 0.294443 28.5316 0.218856 28.8795C-0.000165013 29.8881 -0.0786569 32.1847 0.0944876 32.5139C0.300382 32.9053 1.07863 33.1114 1.69576 32.9381C2.44113 32.7287 2.70437 32.1841 3.01238 30.215C3.08492 29.7511 3.20128 29.0869 3.27106 28.739C3.3407 28.391 3.4366 27.8533 3.48414 27.544C3.61445 26.6956 3.84093 25.5108 4.00827 24.8027C4.15378 24.1871 6.50664 19.2498 6.92243 18.6878C7.03671 18.5332 7.18194 18.4592 7.24509 18.5232C7.30838 18.5872 7.40234 19.5993 7.45402 20.7722C7.55739 23.1217 7.70386 24.2948 7.95052 24.7514C8.03979 24.9165 8.43969 25.3277 8.83946 25.6652C9.23908 26.0027 9.74042 26.4461 9.95364 26.6505C10.6761 27.3431 15.2336 30.9118 15.7148 31.1617C16.4191 31.5272 16.9174 31.4789 17.389 30.9991C18.1072 30.2685 17.8086 29.3934 16.4837 28.3455C16.1777 28.1035 15.7098 27.7109 15.4438 27.473C15.1778 27.2352 14.1844 26.4263 13.2363 25.6756C11.3413 24.1752 10.6349 23.4849 10.5203 23.0217C10.4217 22.6232 10.5568 19.8377 10.7442 18.4064C10.8252 17.7878 10.9267 16.6491 10.9698 15.8759C11.0129 15.1028 11.1122 14.3911 11.1902 14.2944C11.2683 14.1978 11.4973 14.1187 11.699 14.1187C12.4047 14.1187 12.5458 13.9284 13.4706 11.7289C13.769 11.0191 14.2202 9.36276 14.2966 8.69698C14.4063 7.74006 13.5211 5.3481 12.7519 4.5229C11.885 3.59297 11.514 3.5768 10.4634 4.42337C9.68224 5.05274 8.82868 5.39618 8.03689 5.39969C7.14712 5.40363 6.58554 5.7697 5.86933 6.81252C5.5019 7.34756 5.24875 7.58176 5.03788 7.58176C4.75875 7.58176 4.7271 7.49236 4.64088 6.45713C4.51195 4.90907 4.32305 4.11719 4.03093 3.89985C3.70081 3.65426 3.60878 3.66621 3.28364 3.99699ZM11.889 7.89835C12.4148 8.48934 12.4165 8.8183 11.9019 10.4445C11.3468 12.1984 11.1116 12.6239 10.8813 12.2912C10.607 11.8947 10.9129 8.66577 11.2933 7.94263C11.48 7.58781 11.6045 7.57853 11.889 7.89835Z" fill="#C1E704"/>
</svg>
