<svg width="40" height="40" viewBox="0 0 40 40" fill="none" xmlns="http://www.w3.org/2000/svg">
<path fill-rule="evenodd" clip-rule="evenodd" d="M13.1217 7.01795C13.01 7.04979 12.9242 7.11668 12.8156 7.2565C12.7605 7.32742 12.7415 7.39609 12.7415 7.52438C12.7415 7.78743 12.8272 7.8882 13.2222 8.08919C14.1116 8.54186 14.4795 8.80587 14.8719 9.27311C15.0784 9.51897 15.1957 9.59095 15.3899 9.59111C15.5677 9.59128 15.7257 9.49946 15.8403 9.32932C15.9372 9.18556 15.9356 9.0335 15.835 8.83506C15.5484 8.26939 14.8795 7.71803 13.8656 7.21173C13.4735 7.01593 13.2933 6.96898 13.1217 7.01795ZM25.9005 7.27796C25.3006 7.58571 24.8689 7.88552 24.503 8.24849C24.1542 8.59449 23.9829 8.85926 23.9829 9.05248C23.9829 9.23069 24.0422 9.35104 24.1973 9.48716C24.2965 9.57432 24.3428 9.59124 24.4816 9.59124C24.6967 9.59124 24.8019 9.53378 24.9786 9.3198C25.3726 8.84283 25.8491 8.49154 26.6279 8.10397C26.7825 8.02707 26.9438 7.93224 26.9865 7.89326C27.2438 7.65802 27.2088 7.28857 26.9099 7.08375C26.8311 7.02972 26.7579 7.01266 26.6094 7.01368C26.4303 7.01494 26.368 7.03815 25.9005 7.27796ZM19.321 8.63027C19.2755 8.64521 19.1714 8.67685 19.0896 8.70056C18.8752 8.76272 18.4004 9.00385 18.2174 9.14354C17.6966 9.54109 17.3393 10.0493 17.1188 10.7061C17.0406 10.9391 17.0326 11.0106 17.0327 11.4756C17.0328 11.9698 17.0451 12.0598 17.1653 12.4512C17.2258 12.6484 17.4482 13.0509 17.6125 13.2607C17.8232 13.5299 17.9284 13.6351 18.1974 13.8455C18.4664 14.0561 18.6627 14.1551 19.102 14.3021C19.4385 14.4147 19.4658 14.4184 19.9492 14.4184C20.4328 14.4184 20.4598 14.4147 20.797 14.3019C21.2311 14.1567 21.3263 14.1081 21.6558 13.8637C21.969 13.6316 22.0444 13.5589 22.2364 13.3044C22.5493 12.8897 22.6702 12.6389 22.8118 12.1107C22.8409 12.0022 22.8587 11.7732 22.8587 11.5089C22.8587 11.082 22.8384 10.9574 22.6983 10.528C22.4266 9.69493 21.6417 8.94943 20.7627 8.68952C20.5718 8.63308 20.4225 8.6185 19.9657 8.61159C19.6566 8.60693 19.3665 8.61532 19.321 8.63027ZM13.9483 13.2346C13.8573 13.271 13.7241 13.3226 13.6521 13.3493C13.3763 13.4517 12.8419 13.8203 12.5588 14.1035C12.2171 14.4451 11.8955 14.9606 11.7848 15.3442C11.7612 15.426 11.7287 15.5361 11.7126 15.5888C11.6966 15.6416 11.6834 15.7958 11.6834 15.9316C11.6834 16.1732 11.6862 16.1813 11.8082 16.3033C11.8768 16.3719 11.9866 16.4429 12.0523 16.461C12.2118 16.505 12.4275 16.4619 12.5323 16.365C12.6281 16.2765 12.7415 16.038 12.7415 15.9252C12.7415 15.8017 12.8566 15.4915 12.9762 15.2925C13.038 15.1897 13.2056 14.9875 13.3485 14.8431C13.5664 14.6231 13.6653 14.5523 13.9602 14.4052C14.1537 14.3087 14.3533 14.2197 14.4037 14.2075C14.514 14.1808 14.7442 13.9796 14.8101 13.8522C14.9109 13.6572 14.8517 13.4493 14.6431 13.2661C14.5361 13.1722 14.5046 13.1623 14.3191 13.1652C14.1975 13.1671 14.0461 13.1954 13.9483 13.2346ZM25.7843 13.2661C25.6356 13.3967 25.5699 13.5218 25.5699 13.6745C25.5699 13.8901 25.731 14.0948 25.9705 14.1838C26.9084 14.5322 27.4533 15.069 27.6356 15.8243C27.6662 15.9512 27.699 16.0827 27.7085 16.1166C27.7386 16.2235 27.9503 16.4301 28.0705 16.4698C28.2296 16.5223 28.3929 16.4843 28.5314 16.3626C28.6848 16.228 28.744 16.1072 28.744 15.9287C28.744 15.7055 28.5999 15.1863 28.4618 14.9122C28.3423 14.6748 28.0415 14.2723 27.8357 14.0741C27.6296 13.8757 27.1973 13.5796 26.8857 13.4232C26.4605 13.2098 26.3183 13.1631 26.0918 13.1625C25.9267 13.1621 25.8879 13.1752 25.7843 13.2661ZM17.6183 14.9141C17.5819 14.9299 17.5107 14.9439 17.4601 14.9451C17.3251 14.9485 17.0768 15.0858 16.9115 15.2483C16.7655 15.3918 12.3764 21.9318 12.2727 22.1604C12.2422 22.2276 12.1874 22.2985 12.1509 22.3181C12.1059 22.3422 11.4844 22.3536 10.2167 22.3536C8.5627 22.3536 8.34286 22.3476 8.29683 22.3016C8.25425 22.259 8.24489 22.1607 8.24489 21.7566C8.24489 21.2806 8.22863 21.1504 8.1219 20.773C8.05273 20.5285 7.77421 20.2077 7.51232 20.071C7.24424 19.931 7.11807 19.9079 6.62481 19.9079C5.99558 19.9079 5.76262 19.9843 5.45543 20.2915C5.29012 20.4568 5.20729 20.5925 5.12183 20.8379C5.04704 21.0526 5.04704 24.911 5.12183 25.1257C5.26965 25.5502 5.55565 25.8414 5.97525 25.9948C6.19813 26.0762 7.02483 26.0833 7.24781 26.0056C7.67508 25.8569 8.02602 25.5296 8.1219 25.1905C8.22863 24.8131 8.24489 24.683 8.24489 24.207C8.24489 23.8028 8.25425 23.7045 8.29683 23.6619C8.34302 23.6158 8.58759 23.61 10.4904 23.61C12.5352 23.61 12.6409 23.6129 12.8273 23.6753C12.9347 23.7112 13.0895 23.7406 13.1713 23.7406C13.2531 23.7406 13.4079 23.7112 13.5153 23.6753C13.697 23.6145 13.8041 23.61 15.0587 23.61C16.2401 23.61 16.4131 23.6164 16.4587 23.6619C16.5016 23.7048 16.5105 23.8046 16.5102 24.2322C16.5099 24.5174 16.4974 24.7699 16.4824 24.7935C16.4552 24.8365 16.2529 24.8223 15.6345 24.734C15.5254 24.7184 15.3171 24.6887 15.1716 24.668C15.0261 24.6473 14.8178 24.6175 14.7087 24.6019C14.5996 24.5862 14.3913 24.5565 14.2458 24.5357C14.1004 24.515 13.8846 24.4837 13.7664 24.4662C13.32 24.4 12.992 24.3944 12.8277 24.4501C12.4366 24.5829 12.1765 24.8085 11.9919 25.1752L11.8776 25.402L11.8948 25.969C11.9107 26.4928 11.9266 26.7095 12.0131 27.5775C12.0432 27.8806 12.0839 28.3208 12.146 29.0158C12.1622 29.1976 12.1921 29.5101 12.2125 29.7101C12.2328 29.9101 12.2627 30.2226 12.2789 30.4044C12.2951 30.5863 12.3238 30.9061 12.3426 31.1153C12.4121 31.89 12.4588 32.0992 12.6281 32.393C12.8098 32.7082 13.3408 32.9999 13.733 32.9999C13.9252 32.9999 14.2829 32.8885 14.4777 32.7681C14.6933 32.6349 14.9104 32.345 15.0064 32.0622C15.0652 31.8892 15.0598 31.4078 14.992 30.7516C14.9741 30.5788 14.9434 30.2589 14.9237 30.0407C14.866 29.4009 14.8258 28.971 14.7924 28.6355C14.7752 28.4628 14.7472 28.1503 14.7303 27.9412C14.7133 27.7321 14.6892 27.5298 14.6767 27.4915C14.6413 27.3832 14.7422 27.3032 14.8876 27.3243C15.0366 27.3459 15.468 27.4074 15.7502 27.4472C15.8684 27.4639 16.0841 27.4928 16.2296 27.5114C16.5198 27.5485 16.7545 27.5813 17.6513 27.7098C17.7604 27.7254 17.9687 27.7552 18.1142 27.7759C18.6824 27.8569 18.7843 27.8718 19.04 27.9115C19.381 27.9644 20.3852 27.9644 20.7262 27.9115C20.9819 27.8718 21.0838 27.8569 21.6519 27.7759C21.7974 27.7552 22.0057 27.7254 22.1148 27.7098C22.2239 27.6941 22.4322 27.6644 22.5777 27.6437C22.7232 27.6229 22.9315 27.5932 23.0406 27.5775C23.1497 27.5619 23.358 27.5321 23.5035 27.5114C23.649 27.4907 23.8573 27.4609 23.9664 27.4453C24.0755 27.4296 24.2838 27.3999 24.4292 27.3792C24.5747 27.3585 24.7471 27.3338 24.8124 27.3243C24.9816 27.2998 25.0535 27.3782 25.0267 27.5581C25.0013 27.7286 24.9516 28.2378 24.8425 29.4456C24.7624 30.3324 24.7381 30.5939 24.7087 30.8838C24.6293 31.6657 24.6313 31.8205 24.7235 32.0774C24.8777 32.5069 25.1446 32.7662 25.6059 32.9348C26.1277 33.1255 26.7608 32.8859 27.0899 32.3731C27.2541 32.1172 27.2868 31.9713 27.3573 31.1814C27.3895 30.8195 27.402 30.6917 27.4878 29.8423C27.508 29.6423 27.5378 29.3299 27.554 29.148C27.6189 28.4212 27.6571 28.0101 27.6859 27.7263C27.7163 27.4278 27.7615 26.9358 27.8181 26.2881C27.8348 26.0971 27.8584 25.883 27.8705 25.8123C27.897 25.6585 27.8361 25.3717 27.7325 25.1618C27.6431 24.9807 27.3257 24.6549 27.1526 24.5666C26.8112 24.3924 26.5667 24.3723 25.9336 24.4662C25.8154 24.4837 25.5997 24.515 25.4542 24.5357C25.3087 24.5565 25.1004 24.5862 24.9913 24.6019C24.7179 24.641 24.3059 24.6997 24.049 24.7361C23.5626 24.8051 23.4876 24.8089 23.4374 24.7672C23.3629 24.7053 23.3647 23.737 23.4395 23.6621C23.4859 23.6158 23.9149 23.6104 27.5867 23.6104C31.2598 23.6103 31.6875 23.6157 31.734 23.6621C31.7763 23.7045 31.7858 23.8035 31.7858 24.207C31.7858 24.683 31.802 24.8131 31.9088 25.1905C32.0046 25.5296 32.3556 25.8569 32.7828 26.0056C33.0058 26.0833 33.8325 26.0762 34.0554 25.9948C34.475 25.8414 34.761 25.5502 34.9088 25.1257C34.9836 24.911 34.9836 21.0526 34.9088 20.8379C34.761 20.4134 34.475 20.1221 34.0554 19.9688C33.8325 19.8873 33.0058 19.8802 32.7828 19.9579C32.2985 20.1265 31.938 20.5235 31.842 20.9938C31.8248 21.0779 31.8041 21.3994 31.796 21.7082C31.7875 22.0301 31.7664 22.2875 31.7464 22.3116C31.7014 22.3659 28.6443 22.3733 28.5435 22.3194C28.5084 22.3006 28.448 22.2225 28.4093 22.1458C28.3343 21.9972 28.1364 21.7373 27.151 20.4938C26.5501 19.7355 25.9797 19.0151 24.6377 17.3197C23.3479 15.6903 22.9756 15.2271 22.9097 15.1699C22.7995 15.0742 22.5879 14.9712 22.4289 14.9359C22.242 14.8945 17.7107 14.8739 17.6183 14.9141ZM24.0255 19.9813C24.5441 20.6328 25.4135 21.7325 25.6639 22.0537C25.8957 22.3509 25.9488 22.3358 24.6382 22.3457C23.6292 22.3534 23.4863 22.3482 23.4401 22.302C23.3939 22.2559 23.3878 22.0805 23.3878 20.8193C23.3878 20.0326 23.3977 19.379 23.4098 19.3669C23.4703 19.3063 23.5576 19.3934 24.0255 19.9813ZM16.5028 21.037C16.5105 22.1116 16.5055 22.2548 16.4585 22.3018C16.4124 22.3479 16.3029 22.3536 15.6067 22.3459C14.8152 22.3371 14.8078 22.3364 14.7977 22.2653C14.7825 22.159 16.3615 19.7996 16.4379 19.8143C16.4894 19.8242 16.4948 19.9266 16.5028 21.037Z" fill="#C1E704"/>
</svg>
