<svg width="40" height="40" viewBox="0 0 40 40" fill="none" xmlns="http://www.w3.org/2000/svg">
<path d="M18.9016 7.76378C19.3106 6.74541 20.6894 6.74541 21.0984 7.76378L23.8447 14.6018C24.0166 15.0297 24.4015 15.3224 24.8435 15.3612L31.9065 15.9815C32.9583 16.0739 33.3844 17.4462 32.5853 18.168L27.2197 23.0144C26.8838 23.3177 26.7369 23.7912 26.8382 24.2431L28.457 31.4645C28.6981 32.5399 27.5826 33.3881 26.6797 32.8158L20.6173 28.9731C20.2378 28.7326 19.7622 28.7326 19.3827 28.9731L13.3203 32.8158C12.4174 33.3881 11.3019 32.5399 11.543 31.4645L13.1618 24.2431C13.2631 23.7912 13.1162 23.3177 12.7803 23.0144L7.41466 18.168C6.61556 17.4462 7.04165 16.0739 8.09353 15.9815L15.1565 15.3612C15.5985 15.3224 15.9834 15.0297 16.1553 14.6018L18.9016 7.76378Z" fill="#FFD233"/>
</svg>
