<svg width="40" height="40" viewBox="0 0 40 40" fill="none" xmlns="http://www.w3.org/2000/svg">
<path fill-rule="evenodd" clip-rule="evenodd" d="M33.0657 20C33.0657 27.1797 27.2454 33 20.0657 33C12.886 33 7.06573 27.1797 7.06573 20C7.06573 12.8203 12.886 7 20.0657 7C27.2454 7 33.0657 12.8203 33.0657 20ZM12.2972 19.9907C12.2479 20.05 12.2981 21.6067 12.3609 21.9668C12.3732 22.0377 12.3924 22.1633 12.4034 22.246C12.4291 22.4381 12.5966 23.0826 12.6742 23.288C12.6943 23.3411 12.7437 23.4791 12.784 23.5945C12.8243 23.71 12.9202 23.9298 12.9971 24.083C13.074 24.2362 13.1369 24.3729 13.1369 24.3868C13.1369 24.421 13.468 24.9701 13.6361 25.2148C14.1743 25.9979 14.8987 26.7209 15.6833 27.2581C15.9284 27.426 16.4785 27.7564 16.5128 27.7564C16.5268 27.7564 16.6637 27.8192 16.8172 27.896C16.9707 27.9727 17.1909 28.0684 17.3066 28.1087C17.4222 28.1488 17.5604 28.1982 17.6137 28.2182C17.8195 28.2957 18.4651 28.4629 18.6576 28.4885C18.7404 28.4995 18.8664 28.5186 18.9374 28.5308C19.1849 28.5735 19.6078 28.5991 20.0673 28.5991C20.5269 28.5991 20.9498 28.5735 21.1973 28.5308C21.2683 28.5186 21.3942 28.4995 21.4771 28.4885C21.6695 28.4629 22.3152 28.2957 22.521 28.2182C22.5742 28.1982 22.7125 28.1488 22.8281 28.1087C22.9438 28.0684 23.164 27.9727 23.3175 27.896C23.4709 27.8192 23.6079 27.7564 23.6219 27.7564C23.6562 27.7564 24.2063 27.426 24.4514 27.2581C25.2359 26.7209 25.9604 25.9979 26.4986 25.2148C26.6667 24.9701 26.9978 24.421 26.9978 24.3868C26.9978 24.3729 27.0607 24.2362 27.1376 24.083C27.2145 23.9298 27.3104 23.71 27.3507 23.5945C27.391 23.4791 27.4404 23.3411 27.4605 23.288C27.5381 23.0826 27.7056 22.4381 27.7313 22.246C27.7423 22.1633 27.7615 22.0377 27.7738 21.9668C27.8163 21.7229 27.8399 21.3209 27.8502 20.665C27.8583 20.1444 27.8546 20.0032 27.8327 19.9855C27.8053 19.9636 27.6146 19.9736 27.1054 20.0238C26.7635 20.0574 26.4024 20.0861 26.0292 20.1093C25.8339 20.1214 25.5337 20.1408 25.362 20.1523C25.1904 20.1638 24.8126 20.183 24.5226 20.195C24.2326 20.2069 23.7629 20.2269 23.4787 20.2393C23.1798 20.2523 21.7427 20.2618 20.0673 20.2618C18.392 20.2618 16.9549 20.2523 16.6559 20.2393C16.3718 20.2269 15.9021 20.2069 15.6121 20.195C15.322 20.183 14.9443 20.1638 14.7727 20.1523C14.601 20.1408 14.3008 20.1214 14.1054 20.1091C13.5341 20.0733 12.8568 20.0152 12.7495 19.9928C12.6154 19.9648 12.3199 19.9634 12.2972 19.9907ZM14.9392 14.3798C15.0268 14.3608 15.1376 14.3347 15.1853 14.3219C15.3069 14.2892 16.0542 14.2871 16.1809 14.3191C16.2385 14.3336 16.3572 14.361 16.4448 14.3799C16.6683 14.4283 16.801 14.4749 17.0673 14.5987C17.8896 14.9809 18.5102 15.6749 18.7693 16.502C18.9064 16.9397 18.9348 17.072 18.9348 17.2732C18.9348 17.3576 18.9402 17.415 18.916 17.4538C18.8609 17.5423 18.6525 17.5354 17.8783 17.5354C17.3473 17.5354 16.8917 17.5273 16.8659 17.5174C16.8174 17.4988 16.7343 17.3309 16.7343 17.2515C16.7343 17.1718 16.6194 16.9655 16.4985 16.8281C16.3473 16.6564 16.1948 16.569 15.9164 16.4948L15.692 16.4349L15.4676 16.4948C15.1891 16.5691 15.0367 16.6564 14.8851 16.8286C14.7703 16.959 14.6497 17.2185 14.6497 17.3351C14.6497 17.3671 14.6177 17.4252 14.5786 17.4643L14.5076 17.5354H13.5239C12.6683 17.5354 12.5343 17.5295 12.4947 17.4899C12.4431 17.4383 12.4334 17.2138 12.4757 17.0466C12.4903 16.989 12.5176 16.8702 12.5365 16.7826C12.618 16.4057 12.8377 15.9432 13.1089 15.5774C13.3267 15.2836 13.4402 15.1701 13.7341 14.9522C14.0996 14.6812 14.5617 14.4618 14.9392 14.3798ZM23.6252 14.3798C23.7128 14.3608 23.8235 14.3347 23.8713 14.3219C23.9929 14.2892 24.7402 14.2871 24.8668 14.3191C24.9244 14.3336 25.0432 14.361 25.1308 14.3799C25.5077 14.4614 25.9702 14.681 26.3359 14.9522C26.6298 15.1701 26.7433 15.2836 26.9611 15.5774C27.2323 15.9432 27.452 16.4057 27.5335 16.7826C27.5524 16.8702 27.5798 16.989 27.5943 17.0466C27.6366 17.2138 27.6269 17.4383 27.5753 17.4899C27.5357 17.5295 27.4017 17.5354 26.5461 17.5354H25.5624L25.4914 17.4643C25.4523 17.4252 25.4203 17.3671 25.4203 17.3351C25.4203 17.2185 25.2997 16.959 25.1849 16.8286C25.0333 16.6564 24.8809 16.5691 24.6024 16.4948L24.378 16.4349L24.1536 16.4948C23.8752 16.569 23.7227 16.6564 23.5715 16.8281C23.4506 16.9655 23.3357 17.1718 23.3357 17.2515C23.3357 17.3309 23.2526 17.4988 23.2041 17.5174C23.1783 17.5273 22.7227 17.5354 22.1917 17.5354C21.4175 17.5354 21.2091 17.5423 21.154 17.4538C21.1298 17.415 21.1352 17.3576 21.1352 17.2732C21.1352 17.072 21.1636 16.9397 21.3007 16.502C21.5599 15.6749 22.1804 14.9809 23.0027 14.5987C23.2687 14.475 23.4013 14.4284 23.6252 14.3798Z" fill="#C1E704"/>
</svg>
