<svg width="40" height="40" viewBox="0 0 40 40" fill="none" xmlns="http://www.w3.org/2000/svg">
<path fill-rule="evenodd" clip-rule="evenodd" d="M11.0167 7.04491C10.9874 7.07078 10.9095 7.15978 10.8436 7.24264C10.7778 7.32553 10.6937 7.42417 10.6567 7.46185C10.6197 7.49953 10.5357 7.59817 10.47 7.68106C10.4043 7.76395 10.3203 7.8626 10.2834 7.90028C10.2464 7.93795 10.1625 8.0366 10.0969 8.11949C10.0313 8.20238 9.95886 8.28869 9.93587 8.3113C9.83161 8.41386 9.6167 8.71245 9.6167 8.75476C9.6167 8.78057 9.74571 8.93528 9.90337 9.09854C10.061 9.2618 10.244 9.46254 10.31 9.54464C10.376 9.6267 10.784 10.0582 11.2167 10.5034C11.6494 10.9487 12.0572 11.3805 12.123 11.4631C12.285 11.6665 12.4472 11.8187 12.5018 11.8187C12.5266 11.8187 12.6046 11.7491 12.6752 11.6641C12.7457 11.5791 12.8274 11.4835 12.8567 11.4516C12.886 11.4198 12.964 11.326 13.03 11.2433C13.096 11.1605 13.2126 11.0273 13.2891 10.9473C13.4075 10.8236 13.436 10.8062 13.4802 10.8305C13.5088 10.8462 13.628 10.9856 13.7449 11.1402C13.8619 11.2948 14.1042 11.6125 14.2833 11.8461C14.4625 12.0797 14.7844 12.5025 14.9987 12.7856C15.2346 13.0972 15.4113 13.3063 15.4467 13.3154C15.525 13.3356 15.6167 13.2816 15.6167 13.2154C15.6167 13.1337 13.805 7.56307 13.7646 7.52068C13.7123 7.46577 13.6408 7.50328 13.543 7.637C13.4951 7.70244 13.4231 7.79177 13.383 7.83547C13.3429 7.8792 13.2562 7.98256 13.1905 8.06518C13.1248 8.14779 13.0526 8.23389 13.03 8.25649C13.0075 8.2791 12.9353 8.36541 12.8697 8.4483C12.7138 8.64505 12.7061 8.6531 12.6359 8.69168C12.5832 8.7207 12.5661 8.71404 12.4888 8.63436C12.4407 8.58476 12.348 8.47639 12.2827 8.3935C12.2175 8.31061 12.1578 8.23663 12.15 8.22909C12.1423 8.22156 12.0823 8.14757 12.0167 8.06468C11.9511 7.98179 11.8911 7.90781 11.8834 7.90028C11.8756 7.89274 11.8156 7.81876 11.75 7.73587C11.6844 7.65298 11.6244 7.57899 11.6167 7.57146C11.609 7.56392 11.5489 7.48994 11.4831 7.40705C11.4174 7.32416 11.3484 7.23987 11.3297 7.21971C11.3111 7.19957 11.2646 7.14101 11.2265 7.08955C11.1495 6.98583 11.0964 6.97454 11.0167 7.04491ZM28.8069 7.08955C28.7688 7.14101 28.7223 7.19957 28.7037 7.21971C28.685 7.23987 28.616 7.32416 28.5503 7.40705C28.4845 7.48994 28.4244 7.56392 28.4167 7.57146C28.409 7.57899 28.349 7.65298 28.2834 7.73587C28.2178 7.81876 28.1578 7.89274 28.15 7.90028C28.1423 7.90781 28.0823 7.98179 28.0167 8.06468C27.9511 8.14757 27.8911 8.22156 27.8834 8.22909C27.8756 8.23663 27.8159 8.31061 27.7507 8.3935C27.6854 8.47639 27.5927 8.58476 27.5446 8.63436C27.4261 8.75657 27.3969 8.74235 27.1635 8.4483C27.0977 8.36541 27.0137 8.26677 26.9767 8.22909C26.9397 8.19142 26.8556 8.09291 26.7898 8.01015C26.7239 7.92743 26.6323 7.82043 26.5862 7.77242C26.5401 7.72441 26.4697 7.64106 26.4297 7.58719C26.3553 7.48687 26.2826 7.4627 26.2382 7.52351C26.2245 7.54236 25.9118 8.49489 25.5433 9.64027C24.6258 12.4926 24.4167 13.1565 24.4167 13.2171C24.4167 13.2819 24.5092 13.3354 24.5867 13.3154C24.6221 13.3063 24.7988 13.0972 25.0347 12.7856C25.249 12.5025 25.5709 12.0797 25.7501 11.8461C25.9292 11.6125 26.1715 11.2948 26.2885 11.1402C26.4054 10.9856 26.5246 10.8462 26.5532 10.8305C26.5974 10.8062 26.6259 10.8236 26.7443 10.9473C26.8208 11.0273 26.9374 11.1605 27.0034 11.2433C27.0694 11.326 27.1474 11.4198 27.1767 11.4516C27.206 11.4835 27.2877 11.5791 27.3582 11.6641C27.4288 11.7491 27.5068 11.8187 27.5316 11.8187C27.5862 11.8187 27.7484 11.6665 27.9104 11.4631C27.9762 11.3805 28.384 10.9487 28.8167 10.5034C29.2494 10.0582 29.6574 9.6267 29.7234 9.54464C29.7894 9.46254 29.9724 9.2618 30.13 9.09854C30.2877 8.93528 30.4167 8.78057 30.4167 8.75476C30.4167 8.71245 30.2018 8.41386 30.0975 8.3113C30.0745 8.28869 30.0021 8.20238 29.9365 8.11949C29.8709 8.0366 29.787 7.93795 29.75 7.90028C29.7131 7.8626 29.6291 7.76395 29.5634 7.68106C29.4977 7.59817 29.4137 7.49953 29.3767 7.46185C29.3397 7.42417 29.2556 7.32553 29.1898 7.24264C28.9686 6.9643 28.9156 6.94312 28.8069 7.08955ZM20.0034 13.0229C19.974 13.0366 19.8854 13.0488 19.8065 13.0498C19.7275 13.0509 19.6195 13.063 19.5665 13.0768C19.5134 13.0905 19.404 13.1166 19.3234 13.1346C18.8468 13.2414 18.3264 13.477 17.8657 13.7946C17.5398 14.0193 17.041 14.5181 16.8472 14.8133C16.6877 15.0562 16.3773 15.6864 16.3053 15.9136C16.1754 16.3233 16.1178 16.5629 16.0647 16.9154C16.0241 17.1848 16.0226 18.6813 16.0628 18.902C16.0793 18.9924 16.1049 19.1465 16.1198 19.2445C16.1509 19.4497 16.3852 20.407 16.468 20.6668C16.4987 20.7634 16.5383 20.8604 16.5561 20.8823C16.5959 20.9316 16.7599 20.9156 17.0056 20.8385C17.0997 20.809 17.2667 20.7586 17.3767 20.7265C17.4867 20.6945 17.6607 20.6401 17.7634 20.6056C18 20.5261 18.0088 20.4869 17.8585 20.1797C17.7991 20.0584 17.7311 19.9062 17.7074 19.8415C17.5994 19.5469 17.4567 19.0969 17.4567 19.0511C17.4567 19.0233 17.4378 18.929 17.4147 18.8416C17.3531 18.6088 17.3235 18.3989 17.2938 17.984C17.2621 17.5401 17.2618 17.4818 17.2889 16.9609C17.3087 16.5797 17.314 16.551 17.373 16.5019C17.4076 16.4731 17.4593 16.4495 17.4878 16.4495C17.5686 16.4495 18.0816 16.2663 18.2648 16.1719C18.3557 16.1251 18.4969 16.0447 18.5788 15.9932C18.6679 15.9371 18.7449 15.9065 18.7711 15.9168C18.795 15.9262 18.8838 16.0222 18.9684 16.1301C19.1578 16.3718 19.1806 16.3951 19.4342 16.607C19.7982 16.9113 20.1956 17.1424 20.5852 17.2765C21.2655 17.5106 22.0058 17.5385 22.6967 17.356C22.9806 17.281 23.025 17.2825 23.0458 17.3679C23.0842 17.525 22.9888 18.2337 22.8706 18.669C22.8399 18.7821 22.7972 18.9424 22.7757 19.0253C22.7542 19.1082 22.7115 19.2376 22.6808 19.313C22.6016 19.5079 22.3003 20.1307 22.1861 20.3359C22.0643 20.5548 22.0712 20.5633 22.4593 20.6721C22.6192 20.717 22.834 20.7783 22.9367 20.8084C23.3843 20.9396 23.416 20.9462 23.4712 20.9204C23.5556 20.8809 23.853 19.9261 23.9676 19.3267C24.1201 18.5288 24.1452 17.2898 24.0208 16.6961C24.0066 16.6283 23.9821 16.505 23.9664 16.4221C23.9162 16.1564 23.8862 16.0572 23.7107 15.5736C23.6252 15.338 23.3749 14.8717 23.1966 14.6158C22.8088 14.0593 22.1524 13.5162 21.6234 13.3142C21.561 13.2904 21.459 13.251 21.3967 13.2267C21.1878 13.1452 20.8854 13.0739 20.6434 13.0491C20.199 13.0036 20.057 12.9978 20.0034 13.0229ZM11.35 15.0225C11.0608 15.137 10.8637 15.3158 10.7289 15.586C10.6283 15.7878 10.6067 15.9192 10.574 16.5317C10.5599 16.7955 10.5371 17.1962 10.5234 17.4223C10.5096 17.6483 10.4856 18.0553 10.47 18.3265C10.4545 18.5978 10.4305 19.0047 10.4167 19.2308C10.297 21.1963 10.2954 21.2665 10.3647 21.4714C10.4785 21.808 10.5656 21.9201 10.9767 22.2584C11.1307 22.3852 11.2627 22.4963 11.27 22.5052C11.2774 22.5142 11.4094 22.6252 11.5634 22.7519C11.7174 22.8785 11.8494 22.9891 11.8567 22.9975C11.864 23.006 11.936 23.0681 12.0167 23.1355C12.0974 23.2029 12.1694 23.265 12.1767 23.2734C12.184 23.2819 12.316 23.3924 12.47 23.5191C12.624 23.6458 12.756 23.7568 12.7634 23.7657C12.7707 23.7747 12.9027 23.8856 13.0567 24.0123C13.2107 24.139 13.3427 24.2501 13.35 24.2593C13.3574 24.2684 13.5494 24.4286 13.7767 24.6152C14.004 24.8018 14.196 24.9615 14.2034 24.9701C14.2107 24.9788 14.2827 25.0409 14.3634 25.1083C14.444 25.1756 14.528 25.2496 14.55 25.2728C14.572 25.2959 14.656 25.3699 14.7367 25.4372C14.8174 25.5045 14.9014 25.5788 14.9234 25.6024C14.9454 25.626 15.0834 25.7445 15.2301 25.8659C15.3767 25.9872 15.5142 26.1081 15.5356 26.1346C15.5847 26.1954 15.6127 26.3872 15.6459 26.8895C15.6604 27.108 15.6833 27.4471 15.6969 27.643C15.7211 27.992 15.7541 28.4935 15.8034 29.2597C15.8169 29.4707 15.841 29.8406 15.8568 30.0817C15.8726 30.3229 15.8966 30.7051 15.91 30.9312C15.9995 32.4342 15.9827 32.3132 16.1334 32.5428C16.2573 32.7315 16.4287 32.8696 16.6358 32.9474C16.7712 32.9982 16.8867 33 20.0258 33H23.2757L23.4396 32.9182C23.6845 32.7958 23.9076 32.566 23.9659 32.3758C24.02 32.1992 24.0452 31.9162 24.1234 30.6024C24.1368 30.3763 24.1608 29.9941 24.1766 29.7529C24.1924 29.5118 24.2165 29.1419 24.23 28.9309C24.2752 28.2283 24.3116 27.6741 24.3361 27.3142C24.3495 27.1183 24.3701 26.8033 24.3819 26.6143C24.4075 26.2046 24.424 26.1702 24.71 25.9307C24.7907 25.8632 24.8627 25.8014 24.87 25.7934C24.8774 25.7855 24.9494 25.7238 25.03 25.6563C25.1107 25.5888 25.2067 25.5026 25.2434 25.4646C25.28 25.4266 25.376 25.3404 25.4567 25.2729C25.5374 25.2054 25.6094 25.1433 25.6167 25.1349C25.624 25.1264 25.756 25.0159 25.91 24.8892C26.064 24.7625 26.196 24.6515 26.2034 24.6426C26.2107 24.6336 26.3427 24.5226 26.4967 24.3959C26.6507 24.2693 26.7827 24.1583 26.79 24.1493C26.7974 24.1404 26.9294 24.0294 27.0834 23.9027C27.2374 23.776 27.3694 23.6651 27.3767 23.6561C27.384 23.6471 27.516 23.5362 27.67 23.4095C27.824 23.2828 27.956 23.1718 27.9634 23.1629C27.9707 23.1539 28.1027 23.0429 28.2567 22.9163C28.4107 22.7896 28.5427 22.6786 28.55 22.6697C28.5574 22.6607 28.6894 22.5493 28.8434 22.4222C29.2234 22.1084 29.267 22.0701 29.39 21.9431C29.5944 21.7321 29.7508 21.3176 29.7117 21.0911C29.7015 21.0324 29.6816 20.781 29.6674 20.5323C29.6533 20.2837 29.6304 19.9076 29.6167 19.6966C29.603 19.4856 29.5791 19.1034 29.5636 18.8472C29.5481 18.5909 29.5233 18.1964 29.5086 17.9703C29.4438 16.9774 29.4307 16.7681 29.4077 16.3673C29.3943 16.1337 29.3708 15.8994 29.3554 15.8467C29.34 15.7939 29.3141 15.7049 29.2977 15.6489C29.2653 15.5377 29.183 15.4244 29.0172 15.2627C28.6842 14.9379 28.19 14.8762 27.7536 15.105C27.5071 15.2342 27.2545 15.6055 27.2115 15.9015C27.1827 16.1 27.1384 16.4648 27.11 16.7372C27.0975 16.8578 27.0736 17.0674 27.0569 17.2031C27.0081 17.601 26.9793 17.8446 26.95 18.1073C26.9219 18.3598 26.8962 18.5775 26.8434 19.0116C26.785 19.4909 26.7639 19.6719 26.7379 19.9158C26.7029 20.2439 26.6726 20.429 26.6467 20.472C26.6257 20.5069 25.9079 21.0681 25.4434 21.4128C25.3114 21.5107 25.0684 21.6918 24.9034 21.8151C24.7384 21.9385 24.4684 22.1403 24.3034 22.2635C23.8858 22.5755 23.8445 22.5856 22.987 22.5867C22.2629 22.5875 22.2925 22.5821 22.1293 22.7432C22.0833 22.7887 21.2359 23.9364 20.6037 24.8096C20.2254 25.3321 20.1541 25.3962 19.9736 25.3753C19.906 25.3674 19.819 25.3368 19.7803 25.3072C19.7007 25.2462 19.4736 24.9454 18.7197 23.9027C18.0354 22.9564 17.885 22.7638 17.7398 22.6485C17.6649 22.5891 17.6447 22.5875 17.0011 22.5875C16.499 22.5875 16.302 22.5775 16.1847 22.5463C16.0222 22.5031 15.9038 22.426 15.23 21.9249C14.1904 21.1518 13.5963 20.6952 13.4369 20.5469C13.3178 20.4362 13.3109 20.4216 13.2913 20.2417C13.28 20.1378 13.2578 19.948 13.242 19.8199C13.1962 19.4478 13.1662 19.1937 13.1367 18.9294C13.1074 18.6667 13.0786 18.4231 13.0298 18.0251C13.0132 17.8895 12.9893 17.6799 12.9767 17.5593C12.9641 17.4387 12.9402 17.2291 12.9236 17.0935C12.8738 16.6875 12.8482 16.4757 12.8192 16.2303C12.7581 15.7119 12.691 15.536 12.4654 15.3017C12.239 15.0666 12.008 14.9695 11.6834 14.9729C11.5497 14.9742 11.4252 14.9928 11.35 15.0225Z" fill="#C1E704"/>
</svg>
