<svg width="40" height="40" viewBox="0 0 40 40" fill="none" xmlns="http://www.w3.org/2000/svg">
<path fill-rule="evenodd" clip-rule="evenodd" d="M19.6385 7.02864C19.4929 7.11351 19.3857 7.23948 19.3305 7.3904C19.2874 7.50842 19.2854 7.57836 19.2854 8.9877C19.2854 10.6181 19.2851 10.6148 19.4312 10.807C19.595 11.0224 19.8936 11.0936 20.1305 10.9736C20.2631 10.9063 20.3502 10.8085 20.4226 10.6454L20.4762 10.5246V9.01919C20.4762 7.57852 20.4743 7.50852 20.4311 7.3904C20.3349 7.12709 20.1436 6.99857 19.8503 7.00001C19.76 7.00047 19.6647 7.01334 19.6385 7.02864ZM24.1574 8.89003C23.9917 8.97628 21.863 11.1106 21.803 11.2507C21.6097 11.7016 22.0942 12.1863 22.5451 11.9931C22.6954 11.9286 24.8561 9.76797 24.9205 9.61767C24.9769 9.48615 24.9764 9.3779 24.9189 9.22058C24.8602 9.05984 24.7361 8.93579 24.5754 8.87705C24.4106 8.81682 24.2909 8.82055 24.1574 8.89003ZM15.2383 8.87503C15.0642 8.91957 14.8947 9.09598 14.8307 9.29919C14.7962 9.40891 14.7947 9.44093 14.8198 9.53516C14.8358 9.59514 14.874 9.68857 14.9047 9.7428C14.985 9.88448 16.9396 11.8339 17.115 11.9473C17.2451 12.0313 17.2656 12.0373 17.4233 12.0373C17.5564 12.0373 17.6152 12.0257 17.7003 11.9823C17.8983 11.8815 18.003 11.7115 18.003 11.4905C18.003 11.2337 18.0135 11.2464 16.814 10.0473C16.2088 9.4423 15.6829 8.93137 15.6452 8.91188C15.5625 8.86912 15.3402 8.84899 15.2383 8.87503ZM19.5823 12.8043C19.3927 12.8564 19.1467 13.0103 19.0209 13.1557C18.9375 13.252 18.83 13.4392 18.7809 13.5736C18.7366 13.6946 18.7358 13.7769 18.7358 17.951C18.7358 22.1746 18.7355 22.2054 18.69 22.2509C18.6323 22.3086 18.5505 22.3094 18.4807 22.253L18.4266 22.2092L18.4146 20.8388C18.4018 19.3718 18.4014 19.3667 18.2826 19.2231C18.135 19.0445 18.0266 18.9579 17.8866 18.9068C17.7779 18.867 17.7036 18.8616 17.2642 18.8616H16.7652L16.6112 18.9395C16.3726 19.0601 16.251 19.2006 16.1605 19.4607C16.1302 19.5476 16.1258 19.9646 16.1255 22.7703C16.1251 26.2959 16.135 26.0528 15.9918 26.052C15.8561 26.0513 15.8631 26.108 15.8474 24.8796C15.8293 23.4614 15.816 23.3603 15.5897 22.923C15.3278 22.4169 14.877 22.0213 14.3756 21.8578C14.1001 21.7679 13.9902 21.7471 13.7898 21.7471C13.6348 21.7471 13.5778 21.7557 13.5502 21.7834C13.5174 21.8162 13.5148 22.0659 13.5234 24.3769C13.5288 25.8522 13.5426 27.0261 13.5558 27.1516C13.5824 27.4037 13.621 27.6924 13.637 27.7585C13.643 27.7837 13.6601 27.8661 13.6749 27.9417C13.7549 28.3496 13.9672 29.0485 14.1003 29.3423C14.4168 30.0407 14.7222 30.5564 15.0813 30.9988C15.2608 31.2199 15.7672 31.7263 15.9878 31.9052C16.2736 32.137 16.8704 32.5181 16.9954 32.5487C17.0268 32.5564 17.1008 32.5868 17.1597 32.6162C17.2186 32.6456 17.3088 32.6853 17.3601 32.7045C17.4114 32.7237 17.4972 32.756 17.5507 32.7763C17.658 32.8171 17.9281 32.8889 18.106 32.924C18.4733 32.9964 18.5909 33 20.5907 33C22.9066 33 22.8805 33.0017 23.4455 32.8122C24.9438 32.3097 25.9818 31.0553 26.2157 29.4646C26.224 29.4079 26.2346 27.2918 26.2392 24.7621C26.2465 20.7027 26.2434 20.1506 26.2128 20.0606C26.1549 19.8898 26.0963 19.7931 25.9808 19.6776C25.7659 19.4628 25.5915 19.4113 25.0792 19.4113C24.8333 19.4113 24.6732 19.4222 24.5863 19.4448C24.3501 19.5063 24.1521 19.6644 24.0446 19.8774C23.915 20.1342 23.9113 20.1719 23.9113 21.2428C23.9113 22.1049 23.9069 22.2291 23.8753 22.2607C23.8257 22.3103 23.7372 22.3058 23.6823 22.2509C23.6376 22.2062 23.6365 22.1744 23.6361 20.8826C23.6358 19.4746 23.6376 19.4997 23.5236 19.2774C23.4583 19.15 23.321 19.0257 23.1504 18.9395L22.9964 18.8616H22.4974C22.058 18.8616 21.9837 18.867 21.875 18.9068C21.7351 18.9579 21.6267 19.0445 21.479 19.2231C21.3603 19.3667 21.3598 19.3718 21.347 20.8388L21.335 22.2092L21.2809 22.253C21.2111 22.3094 21.1294 22.3086 21.0716 22.2509C21.0262 22.2054 21.0258 22.1746 21.0258 17.951C21.0258 13.7769 21.025 13.6946 20.9808 13.5736C20.9316 13.4392 20.8241 13.252 20.7408 13.1557C20.6706 13.0747 20.4914 12.9391 20.378 12.8813C20.1671 12.7737 19.8171 12.7398 19.5823 12.8043ZM23.1899 13.3675C22.9765 13.4485 22.8409 13.5966 22.7914 13.803C22.765 13.9128 22.766 13.9428 22.7995 14.0421C22.8442 14.1745 22.8736 14.2231 22.9637 14.3131C23.1623 14.5118 23.1511 14.5106 24.8044 14.5106C26.4159 14.5106 26.4203 14.5101 26.6137 14.3453C26.6993 14.2723 26.772 14.1595 26.8088 14.0423C26.8467 13.922 26.8467 13.9084 26.8097 13.7908C26.7444 13.583 26.606 13.4381 26.4015 13.3634C26.2884 13.322 26.2036 13.3199 24.7933 13.3219C23.3901 13.324 23.2978 13.3266 23.1899 13.3675ZM13.2213 13.456C13.0326 13.578 12.9648 13.7068 12.965 13.943C12.9651 14.1302 12.9912 14.1894 13.1384 14.3362C13.3216 14.519 13.2326 14.5106 14.9801 14.5106C16.7277 14.5106 16.6386 14.519 16.8218 14.3362C16.9703 14.1882 16.9952 14.1308 16.9953 13.9368C16.9954 13.7854 16.9872 13.7511 16.9299 13.662C16.8558 13.5467 16.7907 13.4834 16.6747 13.4138C16.5953 13.3662 16.5798 13.3657 14.9779 13.3656L13.3613 13.3655L13.2213 13.456Z" fill="#C1E704"/>
</svg>
