<svg width="24" height="24" viewBox="0 0 24 24" fill="none" xmlns="http://www.w3.org/2000/svg">
<path fill-rule="evenodd" clip-rule="evenodd" d="M0.928787 0.0263069C0.783855 0.0709452 0.501525 0.230948 0.391506 0.330785C0.138016 0.560809 0.00117998 0.862717 0.00117998 1.1919C0.00117998 1.41351 -0.0799153 1.18004 1.10247 4.36201C2.74307 8.77699 3.04752 9.5885 3.08477 9.64601C3.1289 9.71417 3.21101 9.75088 3.41646 9.7943C3.49376 9.81062 6.37777 10.295 9.82538 10.8706C13.273 11.4463 16.1348 11.9304 16.1851 11.9464C16.2447 11.9654 16.2765 11.9936 16.2765 12.0276C16.2765 12.0616 16.2447 12.0898 16.1851 12.1088C16.1348 12.1248 13.1971 12.6219 9.65672 13.2135C4.79339 14.0261 3.20252 14.3014 3.14942 14.3394C3.07603 14.392 2.92213 14.7945 1.0975 19.7073C0.708213 20.7555 0.318253 21.8037 0.230945 22.0366C0.0823316 22.4331 0.0715656 22.4785 0.0622614 22.7488C0.0541378 22.9852 0.0629924 23.0696 0.1112 23.2147C0.220967 23.545 0.503859 23.8318 0.82883 23.9422C1.05098 24.0176 1.42267 24.0195 1.63413 23.9463C1.71773 23.9174 2.74746 23.4075 3.92243 22.8133C7.35246 21.0787 15.783 16.8219 19.8103 14.7911C23.1697 13.097 23.5405 12.9034 23.6695 12.7758C23.9261 12.5221 24.048 12.151 23.9826 11.8229C23.9299 11.5589 23.8296 11.3773 23.6203 11.167C23.4057 10.9515 24.3784 11.4525 13.9996 6.21118C4.14916 1.23668 1.89651 0.104431 1.74657 0.0524799C1.58716 -0.00274622 1.07625 -0.0190937 0.928787 0.0263069Z" fill="white"/>
</svg>
