<svg width="39" height="39" viewBox="0 0 39 39" fill="none" xmlns="http://www.w3.org/2000/svg">
<path fill-rule="evenodd" clip-rule="evenodd" d="M18.3542 0.0279054C18.3366 0.0454574 18.0723 0.0762934 17.7668 0.0965022C16.7846 0.161397 16.3145 0.232911 15.206 0.486261C13.8036 0.80677 13.0885 1.04187 11.5441 1.69008C10.6862 2.05018 9.13971 2.93039 8.25274 3.56348C6.65306 4.70523 5.53038 5.7675 4.16955 7.42688C3.94203 7.70427 3.13441 8.84511 2.93427 9.17176C2.43882 9.98037 1.90506 10.9831 1.66054 11.5645C1.3141 12.3881 1.1259 12.8725 0.968005 13.3468C0.778546 13.916 0.378265 15.4619 0.313092 15.8762C0.290467 16.02 0.251887 16.2551 0.227387 16.3989C0.0556703 17.4057 0.000262144 18.1648 5.79692e-07 19.5129C-0.000130202 20.1477 0.0218849 20.8925 0.0488696 21.168C0.187935 22.5875 0.193209 22.6212 0.496536 24.0207C0.638696 24.6767 1.05053 25.9797 1.33616 26.6775C1.94918 28.1748 2.15302 28.567 3.17007 30.2053C3.72746 31.1032 4.62044 32.206 5.6153 33.2251C6.58924 34.2227 7.67625 35.0994 9.03743 35.985C9.67321 36.3987 10.8919 37.0575 11.5005 37.3165C12.1493 37.5926 12.8069 37.8538 13.1135 37.9572C13.8557 38.2076 15.4206 38.6161 15.9471 38.6971C16.043 38.7118 16.2392 38.7439 16.383 38.7683C18.2047 39.0779 20.8032 39.0772 22.6279 38.7664C22.7777 38.7408 23.0131 38.7022 23.151 38.6805C23.62 38.6067 25.1881 38.1919 25.8865 37.957C26.172 37.8609 26.7444 37.6344 27.4559 37.3358C27.8307 37.1786 28.507 36.842 28.8291 36.6525C29.8728 36.0384 30.357 35.738 30.7255 35.4756C32.6295 34.12 34.1411 32.6087 35.4739 30.7279C35.8291 30.2269 36.021 29.9183 36.6801 28.7898C36.771 28.6341 36.9365 28.3107 37.0478 28.0712C37.1592 27.8316 37.3004 27.5278 37.3616 27.3961C37.5171 27.0616 37.8385 26.2573 37.962 25.8935C38.2043 25.1801 38.5876 23.6928 38.7478 22.8448C38.819 22.4675 38.8439 22.2623 38.9511 21.168C38.9781 20.8925 39.0001 20.1477 39 19.5129C38.9997 18.166 38.9453 17.4181 38.773 16.3989C38.7487 16.2551 38.7168 16.0592 38.702 15.9633C38.5579 15.0271 38.0841 13.3783 37.6634 12.3484C37.2947 11.4459 37.2108 11.2587 36.9213 10.6934C36.1888 9.26266 35.301 7.94482 34.2376 6.70956C32.8807 5.13341 30.8727 3.49758 29.0925 2.51824C28.1074 1.97627 27.7511 1.8068 26.6712 1.36647C25.3743 0.83765 23.424 0.326812 22.0938 0.167538C21.1065 0.0492902 18.4327 -0.0505342 18.3542 0.0279054ZM12.5968 9.89009C12.7488 9.94784 13.6636 10.8277 16.8119 13.944C18.1825 15.3007 19.348 16.4332 19.4019 16.4608C19.4758 16.4985 19.5242 16.4984 19.5981 16.4606C19.652 16.433 20.5437 15.5748 21.5795 14.5536C25.992 10.2034 26.2662 9.94144 26.4423 9.90851C26.8269 9.8366 26.8451 9.84954 28.0306 11.0339C29.5501 12.552 29.5427 12.3809 28.1479 13.7421C27.608 14.2691 26.1082 15.7498 24.8153 17.0324C23.0945 18.7394 22.4644 19.3908 22.4644 19.4627C22.4644 19.5305 22.6839 19.7885 23.1728 20.2952C23.5624 20.6991 24.0479 21.2028 24.2517 21.4145C24.4556 21.6262 24.726 21.8975 24.8528 22.0173C24.9796 22.137 25.9828 23.1464 27.0822 24.2603C28.6816 25.8808 29.0873 26.3147 29.1121 26.4314C29.1646 26.6782 29.0574 26.9555 28.8325 27.1551C28.7236 27.2517 28.5262 27.447 28.394 27.589C27.1207 28.9557 26.7875 29.2263 26.4607 29.1585C26.3517 29.136 25.6208 28.4308 23.0093 25.8289C21.1871 24.0133 19.6504 22.5045 19.5945 22.476C19.5078 22.4318 19.4694 22.4398 19.3329 22.531C19.245 22.5897 18.4276 23.3966 17.5165 24.324C13.5217 28.3901 12.8656 29.0357 12.6448 29.1172C12.4475 29.19 12.428 29.19 12.2307 29.1174C12.0592 29.0542 11.847 28.8644 10.9949 28.0117C10.0782 27.0945 9.96014 26.9603 9.91149 26.7799C9.80233 26.3753 9.62961 26.5741 13.2 22.9972C15.0052 21.1887 16.5052 19.664 16.5332 19.6092C16.5753 19.5267 16.569 19.4853 16.4965 19.3696C16.4083 19.2288 10.9156 13.7416 10.2959 13.1752C10.0473 12.948 9.9438 12.8187 9.88669 12.6642C9.74858 12.2902 9.80909 12.1996 10.9921 11.0098C11.7801 10.2173 12.0612 9.96138 12.1962 9.91347C12.4167 9.83525 12.4476 9.83342 12.5968 9.89009Z" fill="white"/>
</svg>
