<svg width="20" height="20" viewBox="0 0 20 20" fill="none" xmlns="http://www.w3.org/2000/svg">
<path d="M9.19429 1.53944C9.51142 0.820184 10.4886 0.820186 10.8057 1.53945L12.796 6.05353C12.9253 6.34668 13.1908 6.54851 13.4973 6.58652L18.2161 7.17183C18.968 7.26509 19.2699 8.23731 18.7141 8.7751L15.2253 12.1503C14.9987 12.3694 14.8973 12.696 14.9574 13.0127L15.8835 17.8885C16.0311 18.6654 15.2406 19.2663 14.5799 18.8794L10.4334 16.4512C10.1641 16.2936 9.83588 16.2936 9.56661 16.4512L5.42013 18.8794C4.75944 19.2663 3.9689 18.6654 4.11646 17.8885L5.04255 13.0127C5.10269 12.696 5.00126 12.3694 4.7747 12.1503L1.28594 8.7751C0.730055 8.23731 1.03202 7.26509 1.7839 7.17183L6.50274 6.58652C6.80918 6.54851 7.07473 6.34667 7.20398 6.05353L9.19429 1.53944Z" fill="#C1E704"/>
</svg>
