<svg width="28" height="23" viewBox="0 0 28 23" fill="none" xmlns="http://www.w3.org/2000/svg">
<path fill-rule="evenodd" clip-rule="evenodd" d="M19.1043 0.00961417C19.08 0.0176 19.0087 0.0248994 18.9459 0.0258669C18.8832 0.0268343 18.7875 0.0352952 18.7333 0.0446882C18.6791 0.0540636 18.575 0.0707738 18.5019 0.0818202C17.9471 0.165654 17.1907 0.369978 16.7477 0.555657C16.6746 0.586298 16.5768 0.626456 16.5304 0.64489C16.3656 0.71043 15.7963 1.00158 15.5782 1.13185C14.5261 1.76018 13.6699 2.5656 13.0028 3.5544C12.7814 3.88255 12.7208 3.98744 12.4798 4.46027C12.2164 4.97692 12.0778 5.33241 11.9118 5.91643C11.8045 6.29405 11.7021 6.83292 11.6502 7.29224C11.63 7.47094 11.636 8.70478 11.6581 8.91051C11.7188 9.47729 11.8439 10.0486 12.0275 10.5973C12.169 11.0198 12.2644 11.2491 12.4641 11.6457C12.905 12.5213 13.3614 13.1475 14.0484 13.8194C14.6936 14.4505 15.3102 14.8895 16.1098 15.287C16.5161 15.4891 16.7004 15.5659 17.1463 15.719C17.4242 15.8145 18.0071 15.9671 18.2228 16.0009C18.2788 16.0096 18.3745 16.0251 18.4354 16.0353C18.6166 16.0656 18.783 16.088 18.9803 16.1088C19.2226 16.1344 20.3002 16.1342 20.5396 16.1085C20.6419 16.0976 20.7695 16.0839 20.8231 16.0783C21.1403 16.0446 22.0346 15.8415 22.3293 15.7362C22.8818 15.5388 23.3748 15.323 23.6759 15.1466C23.7295 15.1152 23.8332 15.0551 23.9063 15.013C24.2476 14.8165 24.8242 14.4025 25.1643 14.1094C25.3375 13.9603 25.7578 13.5366 25.9247 13.343C26.1508 13.0807 26.5373 12.5502 26.7101 12.265C26.7724 12.1622 26.9015 11.9313 27.022 11.7073C27.2562 11.272 27.5658 10.42 27.6827 9.88911C27.7021 9.80073 27.7297 9.67699 27.7439 9.61411C27.7581 9.55122 27.7785 9.43645 27.7891 9.35905C27.7998 9.28166 27.8155 9.17084 27.824 9.11279C27.8829 8.71407 27.9038 7.71702 27.8614 7.32742C27.7795 6.57363 27.6916 6.16556 27.4686 5.50221C27.3429 5.12835 27.2941 4.99881 27.2151 4.82966C27.0551 4.48671 26.9611 4.29641 26.9024 4.19643C26.8655 4.13354 26.8006 4.02273 26.7581 3.95017C26.571 3.63065 26.1781 3.08332 25.9247 2.78932C25.4881 2.28263 24.9064 1.7696 24.3493 1.39972C23.691 0.962757 23.263 0.744308 22.5242 0.468252C22.3108 0.388535 22.3052 0.386688 22.0989 0.328536C21.542 0.171529 21.0735 0.0792874 20.5573 0.0250402C20.3448 0.00270106 19.1637 -0.00982264 19.1043 0.00961417ZM0.791381 0.105215C0.620779 0.153288 0.540829 0.192531 0.401095 0.296804C0.223972 0.428992 0.102772 0.609886 0.0395667 0.836408C-0.0156822 1.03447 -0.01267 1.3878 0.0460874 1.59977C0.120438 1.86807 0.311771 2.09753 0.567603 2.22522C0.839525 2.36094 0.341239 2.34949 5.97525 2.34949H11.03L11.0894 2.28353C11.1221 2.24726 11.2324 2.10483 11.3345 1.96707C11.4365 1.82929 11.5726 1.65515 11.6368 1.58009C11.701 1.50502 11.8079 1.38029 11.8744 1.30289C12.0265 1.12583 12.7183 0.448727 12.9254 0.274165C13.0396 0.177949 13.0798 0.133359 13.076 0.107238L13.0709 0.0716006L7.00201 0.0684523L0.933136 0.0652857L0.791381 0.105215ZM20.2561 2.27734C20.4324 2.29304 20.5531 2.30856 20.7965 2.34676C20.9665 2.37346 21.5397 2.52333 21.679 2.57749C21.7492 2.60477 21.8584 2.64706 21.9217 2.67144C22.2789 2.80895 22.398 2.86714 22.7504 3.07616C23.2076 3.34731 23.5502 3.61645 23.9337 4.00572C24.2146 4.29085 24.2973 4.38745 24.5045 4.67232C24.6994 4.94044 24.7402 5.00667 24.9744 5.43651C25.115 5.69438 25.3385 6.28494 25.4297 6.63971C25.5415 7.07448 25.6108 7.62036 25.6108 8.0662C25.6108 8.2101 25.5794 8.68863 25.5634 8.78738C25.558 8.82124 25.5448 8.90436 25.5342 8.97208C25.4529 9.48969 25.314 9.94932 25.082 10.4672C25.0387 10.564 24.9903 10.6669 24.9744 10.6959C24.7402 11.1257 24.6994 11.192 24.5045 11.4601C24.2973 11.7449 24.2146 11.8415 23.9337 12.1267C23.6763 12.388 23.496 12.5449 23.2125 12.7543C23.0413 12.8808 22.9386 12.9453 22.5202 13.1892C22.4547 13.2274 22.3468 13.2806 22.2803 13.3074C22.2139 13.3343 22.1249 13.3738 22.0825 13.3952C22.0117 13.4311 21.9171 13.4676 21.6016 13.5808C21.464 13.6302 20.9483 13.7613 20.7965 13.7856C20.138 13.8906 19.5114 13.905 18.998 13.8268C18.9639 13.8217 18.8802 13.809 18.812 13.7987C18.4236 13.7403 18.004 13.6241 17.5802 13.4574C17.1446 13.2862 16.872 13.141 16.4376 12.849C16.1398 12.6489 15.9829 12.5183 15.6607 12.2025C15.2526 11.8025 14.9933 11.477 14.7058 11.0037C14.5264 10.7084 14.3092 10.2227 14.1772 9.82167C13.8158 8.72387 13.8158 7.40853 14.1772 6.31073C14.3092 5.90966 14.5264 5.42399 14.7058 5.12869C14.8423 4.90401 15.0923 4.54611 15.2157 4.39871C15.382 4.20014 15.8203 3.76322 16.03 3.58697C16.4616 3.22436 17.0222 2.89434 17.5776 2.67599C18.0899 2.47457 18.3152 2.41506 19.0168 2.29588C19.071 2.28666 19.1826 2.27834 19.2649 2.27737C19.3471 2.2764 19.4344 2.26895 19.4587 2.2608C19.5104 2.24349 19.9873 2.25338 20.2561 2.27734ZM0.755552 7.01905C0.555466 7.08187 0.358923 7.21144 0.241373 7.35803C0.0559396 7.5893 0.00286998 7.7586 0.00286998 8.11897C0.00286998 8.46834 0.0531042 8.63732 0.225531 8.86798C0.331404 9.00959 0.558354 9.15811 0.763278 9.21985C0.877763 9.25434 9.2296 9.25717 9.27383 9.22273C9.29903 9.20312 9.30009 9.16759 9.28372 8.89292C9.25097 8.34392 9.26803 7.40825 9.31588 7.12875C9.32456 7.0781 9.31974 7.05371 9.29596 7.0276C9.26499 6.99366 9.21115 6.99323 5.04571 6.99496C1.68541 6.99635 0.812307 7.00125 0.755552 7.01905ZM0.822514 13.8465C0.656537 13.8823 0.44619 13.9949 0.325256 14.1127C0.0851409 14.3465 0.00286998 14.5625 0.00286998 14.9588C0.00286998 15.2338 0.0264013 15.3434 0.128855 15.5457C0.262618 15.8098 0.487211 15.9816 0.810412 16.067L0.95346 16.1048L6.90587 16.1004L12.8583 16.096L12.864 16.056C12.8681 16.0274 12.8505 16 12.8019 15.9594C12.6661 15.8458 12.0273 15.2125 11.9041 15.0692C11.4696 14.564 11.2914 14.3382 11.0817 14.0271C11.0125 13.9244 10.9426 13.8353 10.9266 13.8292C10.9105 13.8231 8.65542 13.8191 5.91525 13.8204C1.79424 13.8222 0.914016 13.8268 0.822514 13.8465ZM24.4958 16.4497C24.4335 16.4632 24.2764 16.5278 24.135 16.5981C23.9172 16.7064 23.8678 16.7393 23.7551 16.8512C23.5525 17.0523 23.4633 17.2651 23.4633 17.5471C23.4633 17.8155 23.4252 17.7323 24.5242 19.8646C24.7398 20.283 25.0905 20.9637 25.3035 21.3773C25.9553 22.6433 25.969 22.6667 26.1297 22.7872C26.3395 22.9444 26.5029 22.9995 26.7593 22.9998C27.0204 23.0001 27.1631 22.955 27.4756 22.7738C27.7242 22.6296 27.8752 22.4486 27.9546 22.1999C28.0396 21.9335 28.0031 21.6022 27.8627 21.3655C27.8364 21.3212 27.6411 20.9466 27.4287 20.533C27.2164 20.1194 26.8682 19.4427 26.655 19.0291C26.4419 18.6155 26.109 17.9676 25.9152 17.5893C25.7215 17.211 25.5317 16.8611 25.4934 16.8116C25.4207 16.7177 25.2764 16.6017 25.1555 16.54C25.0478 16.4851 24.7946 16.4211 24.6949 16.4237C24.6461 16.4249 24.5565 16.4366 24.4958 16.4497ZM1.03059 20.7309C1.00623 20.7386 0.953176 20.7458 0.912688 20.7467C0.684622 20.7522 0.34457 20.9495 0.19835 21.1613C0.0453255 21.3829 0.00286998 21.5384 0.00286998 21.877C0.00286998 22.0959 0.00862881 22.1478 0.0458749 22.2642C0.0991747 22.431 0.129492 22.49 0.225496 22.6142C0.354298 22.7808 0.565335 22.9177 0.777489 22.9723C0.874804 22.9973 1.90935 23 11.5913 23C21.2669 23 22.3079 22.9973 22.405 22.9724C22.7342 22.8877 23.0292 22.6041 23.1352 22.2702C23.1742 22.1473 23.1798 22.0981 23.1798 21.877C23.1798 21.5384 23.1373 21.3829 22.9843 21.1613C22.8375 20.9487 22.5677 20.7895 22.2761 20.7434C22.137 20.7214 1.09924 20.709 1.03059 20.7309Z" fill="white" fill-opacity="0.35"/>
</svg>
