<svg width="36" height="40" viewBox="0 0 36 40" fill="none" xmlns="http://www.w3.org/2000/svg">
<path d="M32.6049 22.3028C31.0036 19.9769 30.1866 18.2317 29.9689 15.3279C29.8058 13.1577 30.7181 10.6517 30.7181 10.6517C29.5875 11.4048 29.5749 11.3241 28.8285 11.9409C24.9436 15.1519 23.9285 18.3653 23.8097 18.7808C23.8016 18.8103 23.7969 18.8272 23.7969 18.8272L23.8097 18.7808C23.8097 18.7808 26.8461 6.90187 18.3936 1.37027C17.6921 0.911333 16.0741 0 16.0741 0C16.0741 0 20.2708 10.2885 12.7569 16.3921C11.278 10.356 3.47025 10.2817 3.47025 10.2817C3.47025 10.2817 4.07025 12.3848 4.16665 12.8823C5.43199 19.4421 1.55372 21.518 0.765987 27.7192C0.855854 27.0075 0.82012 27.2908 0.765454 27.7231C0.765187 27.7245 0.764921 27.7261 0.764921 27.7277C0.765054 27.7269 0.765054 27.7264 0.765187 27.7256C0.764921 27.7275 0.764787 27.7292 0.764654 27.7308C0.149854 32.5989 2.46959 36.3693 6.03439 38.9133C6.20079 37.1951 6.90519 35.4905 7.88412 34.0683C8.99199 32.4593 9.55732 31.252 9.70732 29.2433C9.81932 27.742 9.18905 26.0081 9.18905 26.0081C9.97012 26.5296 9.97999 26.4739 10.4961 26.9004C12.6795 28.7049 13.5524 30.5108 13.8472 31.2788C13.8571 31.2728 13.8672 31.2669 13.8779 31.2611C13.5055 29.5801 12.4557 23.0297 17.7148 19.588C18.1997 19.2711 19.3192 18.6405 19.3192 18.6405C19.3192 18.6405 16.3411 25.1525 22.8976 30.442C22.7512 28.2772 23.5771 26.2784 25.1225 24.7383C25.9621 23.9023 27.4752 23.5005 27.4752 23.5005C27.4752 23.5005 27.0596 24.9563 26.9932 25.3C26.1177 29.8391 29.9284 33.3685 29.1142 37.668C28.9616 38.4739 28.7429 39.256 28.438 39.9999H28.802C30.7348 38.9677 32.5285 37.6255 33.7569 35.7837C36.552 31.5933 35.2958 26.2111 32.6049 22.3028Z" fill="#FF0012"/>
</svg>
