<svg width="22" height="22" viewBox="0 0 22 22" fill="none" xmlns="http://www.w3.org/2000/svg">
<path d="M14.4808 11C14.4808 11.9631 14.1466 12.769 13.458 13.4575L13.4579 13.4576C12.7689 14.1463 11.9634 14.4804 11.0003 14.4804C10.0373 14.4804 9.23145 14.1462 8.54259 13.4576C7.85382 12.769 7.51953 11.963 7.51953 11V4.23089C7.51953 3.26782 7.85364 2.46214 8.54262 1.77327C9.23172 1.08428 10.0374 0.75 11.0003 0.75C11.9633 0.75 12.7688 1.08427 13.4579 1.77325C14.1469 2.46219 14.4808 3.26772 14.4808 4.23089V11Z" stroke="white" stroke-width="1.5"/>
<path d="M18.3639 8.71276C18.1969 8.54526 17.9981 8.46149 17.769 8.46149C17.54 8.46149 17.3417 8.54526 17.1741 8.71276C17.0068 8.88021 16.923 9.0785 16.923 9.30758V11C16.923 12.6307 16.3434 14.0254 15.1843 15.1844C14.0256 16.3435 12.6306 16.923 10.9999 16.923C9.36926 16.923 7.97447 16.3435 6.81535 15.1844C5.65637 14.0257 5.07692 12.6307 5.07692 11V9.30758C5.07692 9.0785 4.99315 8.88021 4.82575 8.71276C4.65826 8.54526 4.46015 8.46149 4.23084 8.46149C4.00152 8.46149 3.80319 8.54526 3.63579 8.71276C3.46825 8.88021 3.38452 9.0785 3.38452 9.30758V11C3.38452 12.9479 4.03468 14.6425 5.33462 16.0834C6.63461 17.5244 8.24097 18.3507 10.1538 18.5621V20.3075H6.76918C6.54001 20.3075 6.34172 20.3913 6.17427 20.5588C6.00678 20.7262 5.92301 20.9246 5.92301 21.1537C5.92301 21.3825 6.00678 21.5813 6.17427 21.7486C6.34172 21.916 6.54001 22 6.76918 22H15.2304C15.4596 22 15.6581 21.916 15.8254 21.7486C15.993 21.5813 16.0769 21.3826 16.0769 21.1537C16.0769 20.9246 15.993 20.7262 15.8254 20.5588C15.6582 20.3913 15.4596 20.3075 15.2304 20.3075H11.8463V18.5621C13.7587 18.3507 15.365 17.5244 16.6651 16.0834C17.9652 14.6425 18.6156 12.9479 18.6156 11V9.30758C18.6156 9.07854 18.5316 8.88039 18.3639 8.71276Z" fill="white"/>
</svg>
