<svg width="15" height="21" viewBox="0 0 15 21" fill="none" xmlns="http://www.w3.org/2000/svg">
<path d="M4.48582 6.9503C5.31847 7.74524 6.32308 8.14289 7.50006 8.14289C8.67708 8.14289 9.68165 7.74524 10.5143 6.9503C11.3468 6.15484 11.7632 5.1953 11.7632 4.07148C11.7632 2.94759 11.3468 1.9881 10.5143 1.19286C9.68165 0.397619 8.67708 0 7.50006 0C6.32308 0 5.31839 0.397694 4.48582 1.19286C3.65324 1.98798 3.23682 2.94748 3.23682 4.07148C3.23682 5.19549 3.65324 6.15495 4.48582 6.9503Z" fill="white"/>
<path d="M14.8138 14.5394C14.7392 14.005 14.645 13.5093 14.5313 13.0527C14.4177 12.5958 14.265 12.1508 14.0735 11.7168C13.8816 11.2833 13.6614 10.9131 13.4128 10.6069C13.164 10.3008 12.8604 10.0568 12.5018 9.87381C12.1433 9.69115 11.7471 9.59987 11.314 9.59987C11.2429 9.59987 11.0903 9.69811 10.8559 9.89454C10.6214 10.0908 10.3624 10.3104 10.0782 10.5521C9.79405 10.7939 9.41442 11.0133 8.93826 11.2097C8.46206 11.4061 7.98273 11.5044 7.50004 11.5044C7.01716 11.5044 6.53768 11.4061 6.06181 11.2097C5.58584 11.0133 5.20598 10.7939 4.92188 10.5521C4.6377 10.3104 4.37855 10.0908 4.14422 9.89454C3.90978 9.69811 3.75716 9.59987 3.68604 9.59987C3.25287 9.59987 2.85693 9.69115 2.49823 9.87381C2.13954 10.0568 1.83595 10.3008 1.5874 10.6069C1.33863 10.9127 1.11867 11.2833 0.926763 11.7168C0.735082 12.1508 0.582394 12.5958 0.468736 13.0527C0.355116 13.5093 0.261122 14.005 0.18642 14.5394C0.111792 15.0739 0.0621275 15.5715 0.0372765 16.033C0.0123882 16.4943 0 16.9672 0 17.4514C0 18.5473 0.259145 19.413 0.777583 20.0476C1.29621 20.6822 1.98517 20.9999 2.84436 20.9999H12.1555C13.0147 20.9999 13.7036 20.6822 14.2223 20.0476C14.7408 19.413 15 18.5473 15 17.4514C15 16.9672 14.9875 16.4945 14.963 16.033C14.9378 15.5715 14.8881 15.0738 14.8138 14.5394Z" fill="white"/>
</svg>
