<svg width="22" height="22" viewBox="0 0 22 22" fill="none" xmlns="http://www.w3.org/2000/svg">
<path d="M19.3049 3.10827C17.1128 0.963501 13.6086 0.963967 11.4171 3.10933L2.22597 12.3005C0.56403 14.0016 0.595791 16.7279 2.29692 18.3898C3.97005 20.0245 6.64217 20.0245 8.31531 18.3898L16.638 10.0671C17.72 8.98515 17.72 7.2309 16.638 6.14893C15.5561 5.06696 13.8018 5.06696 12.7198 6.14893L4.75896 14.1098C4.48129 14.3973 4.48926 14.8554 4.77677 15.1331C5.05724 15.404 5.50185 15.404 5.78232 15.1331L13.7432 7.17225C14.2711 6.66652 15.109 6.68455 15.6147 7.21245C16.1051 7.72441 16.1051 8.53184 15.6147 9.0438L7.29199 17.3665C6.16766 18.4748 4.35768 18.4619 3.24934 17.3375C2.15219 16.2246 2.15219 14.4368 3.24934 13.3238L12.4405 4.13265C14.0777 2.49488 16.7325 2.49441 18.3702 4.13155C20.008 5.76868 20.0085 8.42354 18.3713 10.0613L9.18016 19.2525C8.87658 19.5125 8.84122 19.9694 9.1012 20.2729C9.36119 20.5765 9.81806 20.6119 10.1216 20.3519C10.15 20.3276 10.1763 20.3013 10.2006 20.2729L19.3918 11.0817C21.5696 8.85594 21.5307 5.28607 19.3049 3.10827Z" fill="black"/>
</svg>
