<svg width="20" height="20" viewBox="0 0 20 20" fill="none" xmlns="http://www.w3.org/2000/svg">
<path d="M11.2826 10.0001L16.7339 4.54851C17.0887 4.1939 17.0887 3.62056 16.7339 3.26595C16.3793 2.91135 15.806 2.91135 15.4514 3.26595L9.99992 8.71755L4.5486 3.26595C4.19384 2.91135 3.62067 2.91135 3.26607 3.26595C2.91131 3.62056 2.91131 4.1939 3.26607 4.54851L8.71739 10.0001L3.26607 15.4517C2.91131 15.8063 2.91131 16.3797 3.26607 16.7343C3.44279 16.9111 3.67515 17 3.90734 17C4.13953 17 4.37172 16.9111 4.5486 16.7343L9.99992 11.2827L15.4514 16.7343C15.6283 16.9111 15.8605 17 16.0927 17C16.3249 17 16.557 16.9111 16.7339 16.7343C17.0887 16.3797 17.0887 15.8063 16.7339 15.4517L11.2826 10.0001Z" fill="#C4C4C4"/>
</svg>
