<svg width="18" height="18" viewBox="0 0 18 18" fill="none" xmlns="http://www.w3.org/2000/svg">
<g clip-path="url(#clip0)">
<path d="M9 3.63507C5.56091 3.63507 2.44216 5.51663 0.140841 8.57278C-0.0469469 8.82317 -0.0469469 9.17297 0.140841 9.42335C2.44216 12.4832 5.56091 14.3647 9 14.3647C12.4391 14.3647 15.5578 12.4832 17.8592 9.42703C18.0469 9.17665 18.0469 8.82685 17.8592 8.57646C15.5578 5.51663 12.4391 3.63507 9 3.63507ZM9.2467 12.7778C6.96379 12.9214 5.07855 11.0398 5.22215 8.75321C5.33998 6.86796 6.86806 5.33989 8.7533 5.22206C11.0362 5.07846 12.9214 6.96002 12.7778 9.24661C12.6563 11.1282 11.1283 12.6562 9.2467 12.7778ZM9.13256 11.0324C7.90273 11.1098 6.88647 10.0972 6.96747 8.86735C7.03007 7.85109 7.85486 7.02998 8.87113 6.9637C10.101 6.88637 11.1172 7.89896 11.0362 9.12878C10.9699 10.1487 10.1451 10.9698 9.13256 11.0324Z" fill="#272727"/>
</g>
<defs>
<clipPath id="clip0">
<rect width="18" height="18" fill="white"/>
</clipPath>
</defs>
</svg>
