<svg width="18" height="18" viewBox="0 0 18 18" fill="none" xmlns="http://www.w3.org/2000/svg">
<path d="M15.8661 3.13013C15.1101 2.37652 14.0655 1.99988 12.7321 1.99988C12.363 1.99988 11.9864 2.0652 11.6026 2.19577C11.2186 2.32643 10.8613 2.50272 10.5313 2.7245C10.2008 2.94621 9.91678 3.15442 9.67851 3.34881C9.44053 3.54326 9.21427 3.74991 9.00002 3.96859C8.78567 3.74991 8.55947 3.54326 8.32146 3.34881C8.08328 3.15442 7.79914 2.94634 7.46871 2.7245C7.13834 2.50262 6.78117 2.32646 6.39727 2.19577C6.01339 2.06523 5.63683 1.99988 5.26781 1.99988C3.93443 1.99988 2.88985 2.37662 2.13392 3.13013C1.378 3.88357 1 4.92865 1 6.26545C1 6.67258 1.07005 7.092 1.20987 7.5232C1.34969 7.95463 1.50903 8.3223 1.68757 8.62606C1.86607 8.92979 2.0685 9.22598 2.2947 9.51464C2.5209 9.80327 2.6862 10.0022 2.79025 10.1116C2.89439 10.2209 2.97626 10.3 3.03577 10.3487L8.60713 15.8357C8.71431 15.945 8.84525 15.9999 8.99998 15.9999C9.15472 15.9999 9.28576 15.945 9.39287 15.8357L14.9554 10.3667C16.3185 8.97544 17 7.60825 17 6.26532C17 4.92842 16.6221 3.88345 15.8661 3.13013Z" fill="#272727"/>
</svg>
