<svg width="16" height="16" viewBox="0 0 16 16" fill="none" xmlns="http://www.w3.org/2000/svg">
<g clip-path="url(#clip0)">
<path d="M12.7366 2.73989C11.7656 1.06414 10.0409 0.0403601 8.12289 0.00123511C8.04101 -0.000452393 7.95861 -0.000452393 7.8767 0.00123511C5.95876 0.0403601 4.23401 1.06414 3.26295 2.73989C2.27039 4.45277 2.24323 6.51027 3.19029 8.24373L7.15789 15.5058C7.15967 15.509 7.16145 15.5123 7.16329 15.5155C7.33785 15.8189 7.65057 16 7.99986 16C8.34911 16 8.66182 15.8188 8.83636 15.5155C8.8382 15.5123 8.83998 15.509 8.84176 15.5058L12.8094 8.24373C13.7564 6.51027 13.7292 4.45277 12.7366 2.73989ZM7.99979 7.24999C6.75914 7.24999 5.74979 6.24064 5.74979 4.99999C5.74979 3.75933 6.75914 2.74999 7.99979 2.74999C9.24045 2.74999 10.2498 3.75933 10.2498 4.99999C10.2498 6.24064 9.24048 7.24999 7.99979 7.24999Z" fill="white"/>
</g>
<defs>
<clipPath id="clip0">
<rect width="16" height="16" fill="white"/>
</clipPath>
</defs>
</svg>
