<svg width="64" height="64" viewBox="0 0 64 64" fill="none" xmlns="http://www.w3.org/2000/svg">
<path d="M32 21.2812C32.9061 21.2812 33.6406 20.5467 33.6406 19.6406C33.6406 18.7345 32.9061 18 32 18C31.0939 18 30.3594 18.7345 30.3594 19.6406C30.3594 20.5467 31.0939 21.2812 32 21.2812Z" fill="url(#paint0_linear)"/>
<path d="M31.9453 33.039C32.5494 33.039 33.0391 32.5493 33.0391 31.9453C33.0391 31.6432 32.9167 31.3698 32.7188 31.1719L23.0117 21.4648L21.4648 23.0116L31.1719 32.7187C31.3698 32.9166 31.6433 33.039 31.9453 33.039Z" fill="url(#paint1_linear)"/>
<path d="M42.7922 23.0817C40.9409 20.8437 38.4291 19.2333 35.6485 18.4824C35.7649 18.848 35.8281 19.2371 35.8281 19.6407C35.8281 20.032 35.7688 20.4098 35.6592 20.7656C40.4549 22.3267 43.8125 26.8543 43.8125 32.0001C43.8125 38.5135 38.5134 43.8126 32 43.8126C25.4866 43.8126 20.1875 38.5135 20.1875 32.0001C20.1875 29.9708 20.6964 28.0204 21.6524 26.2929L20.0528 24.6933C18.7156 26.8706 18 29.3799 18 32.0001C18 35.7396 19.4563 39.2553 22.1005 41.8996C24.7448 44.5438 28.2605 46.0001 32 46.0001C35.7395 46.0001 39.2552 44.5438 41.8995 41.8996C44.5437 39.2553 46 35.7396 46 32.0001C46 28.7496 44.8608 25.5823 42.7922 23.0817Z" fill="url(#paint2_linear)"/>
<path d="M5.28719 16.5774L32 1.1547L58.7128 16.5774V47.4226L32 62.8453L5.28719 47.4226V16.5774Z" stroke="url(#paint3_linear)" stroke-width="2"/>
<defs>
<linearGradient id="paint0_linear" x1="32" y1="18" x2="32" y2="21.2812" gradientUnits="userSpaceOnUse">
<stop stop-color="white"/>
<stop offset="1" stop-color="#898989"/>
</linearGradient>
<linearGradient id="paint1_linear" x1="27.252" y1="21.4648" x2="27.252" y2="33.039" gradientUnits="userSpaceOnUse">
<stop stop-color="white"/>
<stop offset="1" stop-color="#898989"/>
</linearGradient>
<linearGradient id="paint2_linear" x1="32" y1="18.4824" x2="32" y2="46.0001" gradientUnits="userSpaceOnUse">
<stop stop-color="white"/>
<stop offset="1" stop-color="#898989"/>
</linearGradient>
<linearGradient id="paint3_linear" x1="32" y1="1.63913e-06" x2="32" y2="64" gradientUnits="userSpaceOnUse">
<stop stop-color="white"/>
<stop offset="1" stop-color="#A0A0A0"/>
</linearGradient>
</defs>
</svg>
