<svg width="1178" height="79" viewBox="0 0 1178 79" fill="none" xmlns="http://www.w3.org/2000/svg">
<path d="M4.08 5.6H21.828C27.472 5.6 31.654 7.096 34.374 10.088C37.162 13.08 38.556 17.466 38.556 23.246V59.354C38.556 65.134 37.162 69.52 34.374 72.512C31.654 75.504 27.472 77 21.828 77H4.08V5.6ZM15.3 15.8V66.8H21.624C23.392 66.8 24.786 66.29 25.806 65.27C26.826 64.25 27.336 62.448 27.336 59.864V22.736C27.336 20.152 26.826 18.35 25.806 17.33C24.786 16.31 23.392 15.8 21.624 15.8H15.3ZM45.7167 5.6H56.9367V77H45.7167V5.6ZM101.453 77H90.1305L88.1925 64.046H74.4225L72.4845 77H62.1825L73.6065 5.6H90.0285L101.453 77ZM75.8505 54.356H86.6625L81.2565 18.248L75.8505 54.356ZM130.444 56.294L138.094 5.6H153.7V77H143.092V25.796L135.34 77H124.732L116.368 26.51V77H106.576V5.6H122.182L130.444 56.294ZM172.163 60.578C172.163 63.162 172.673 64.998 173.693 66.086C174.781 67.106 176.209 67.616 177.977 67.616C179.745 67.616 181.139 67.106 182.159 66.086C183.247 64.998 183.791 63.162 183.791 60.578V22.022C183.791 19.438 183.247 17.636 182.159 16.616C181.139 15.528 179.745 14.984 177.977 14.984C176.209 14.984 174.781 15.528 173.693 16.616C172.673 17.636 172.163 19.438 172.163 22.022V60.578ZM160.943 22.736C160.943 16.956 162.405 12.536 165.329 9.47599C168.253 6.348 172.469 4.784 177.977 4.784C183.485 4.784 187.701 6.348 190.625 9.47599C193.549 12.536 195.011 16.956 195.011 22.736V59.864C195.011 65.644 193.549 70.098 190.625 73.226C187.701 76.286 183.485 77.816 177.977 77.816C172.469 77.816 168.253 76.286 165.329 73.226C162.405 70.098 160.943 65.644 160.943 59.864V22.736ZM212.299 25.286V77H202.201V5.6H216.277L227.803 48.338V5.6H237.799V77H226.273L212.299 25.286ZM245.832 5.6H263.58C269.224 5.6 273.406 7.096 276.126 10.088C278.914 13.08 280.308 17.466 280.308 23.246V59.354C280.308 65.134 278.914 69.52 276.126 72.512C273.406 75.504 269.224 77 263.58 77H245.832V5.6ZM257.052 15.8V66.8H263.376C265.144 66.8 266.538 66.29 267.558 65.27C268.578 64.25 269.088 62.448 269.088 59.864V22.736C269.088 20.152 268.578 18.35 267.558 17.33C266.538 16.31 265.144 15.8 263.376 15.8H257.052ZM335.845 50.378V59.864C335.845 65.644 334.417 70.098 331.561 73.226C328.773 76.286 324.625 77.816 319.117 77.816C313.609 77.816 309.427 76.286 306.571 73.226C303.783 70.098 302.389 65.644 302.389 59.864V22.736C302.389 16.956 303.783 12.536 306.571 9.47599C309.427 6.348 313.609 4.784 319.117 4.784C324.625 4.784 328.773 6.348 331.561 9.47599C334.417 12.536 335.845 16.956 335.845 22.736V29.672H325.237V22.022C325.237 19.438 324.693 17.636 323.605 16.616C322.585 15.528 321.191 14.984 319.423 14.984C317.655 14.984 316.227 15.528 315.139 16.616C314.119 17.636 313.609 19.438 313.609 22.022V60.578C313.609 63.162 314.119 64.964 315.139 65.984C316.227 67.004 317.655 67.514 319.423 67.514C321.191 67.514 322.585 67.004 323.605 65.984C324.693 64.964 325.237 63.162 325.237 60.578V50.378H335.845ZM378.964 77H367.642L365.704 64.046H351.934L349.996 77H339.694L351.118 5.6H367.54L378.964 77ZM353.362 54.356H364.174L358.768 18.248L353.362 54.356ZM407.649 77C407.513 76.524 407.377 76.082 407.241 75.674C407.105 75.266 406.969 74.756 406.833 74.144C406.765 73.532 406.697 72.75 406.629 71.798C406.629 70.846 406.629 69.656 406.629 68.228V57.008C406.629 53.676 406.051 51.33 404.895 49.97C403.739 48.61 401.869 47.93 399.285 47.93H395.409V77H384.189V5.6H401.121C406.969 5.6 411.185 6.96 413.769 9.68C416.421 12.4 417.747 16.514 417.747 22.022V27.632C417.747 34.976 415.299 39.804 410.403 42.116C413.259 43.272 415.197 45.176 416.217 47.828C417.305 50.412 417.849 53.574 417.849 57.314V68.33C417.849 70.098 417.917 71.662 418.053 73.022C418.189 74.314 418.529 75.64 419.073 77H407.649ZM395.409 15.8V37.73H399.795C401.903 37.73 403.535 37.186 404.691 36.098C405.915 35.01 406.527 33.038 406.527 30.182V23.144C406.527 20.56 406.051 18.69 405.099 17.534C404.215 16.378 402.787 15.8 400.815 15.8H395.409ZM423.8 22.736C423.8 16.956 425.16 12.536 427.88 9.47599C430.668 6.348 434.816 4.784 440.324 4.784C445.832 4.784 449.946 6.348 452.666 9.47599C455.454 12.536 456.848 16.956 456.848 22.736V24.98H446.24V22.022C446.24 19.438 445.73 17.636 444.71 16.616C443.758 15.528 442.398 14.984 440.63 14.984C438.862 14.984 437.468 15.528 436.448 16.616C435.496 17.636 435.02 19.438 435.02 22.022C435.02 24.47 435.564 26.646 436.652 28.55C437.74 30.386 439.1 32.154 440.732 33.854C442.364 35.486 444.098 37.152 445.934 38.852C447.838 40.484 449.606 42.286 451.238 44.258C452.87 46.23 454.23 48.474 455.318 50.99C456.406 53.506 456.95 56.464 456.95 59.864C456.95 65.644 455.522 70.098 452.666 73.226C449.878 76.286 445.73 77.816 440.222 77.816C434.714 77.816 430.532 76.286 427.676 73.226C424.888 70.098 423.494 65.644 423.494 59.864V55.478H434.102V60.578C434.102 63.162 434.612 64.964 435.632 65.984C436.72 67.004 438.148 67.514 439.916 67.514C441.684 67.514 443.078 67.004 444.098 65.984C445.186 64.964 445.73 63.162 445.73 60.578C445.73 58.13 445.186 55.988 444.098 54.152C443.01 52.248 441.65 50.48 440.018 48.848C438.386 47.148 436.618 45.482 434.714 43.85C432.878 42.15 431.144 40.314 429.512 38.342C427.88 36.37 426.52 34.126 425.432 31.61C424.344 29.094 423.8 26.136 423.8 22.736Z" fill="white"/>
<path d="M990.732 9.47599L989.985 8.81062L989.985 8.81163L990.732 9.47599ZM1015.52 9.47599L1014.76 10.1322L1014.77 10.1409L1014.78 10.1495L1015.52 9.47599ZM1019.7 24.98V25.98H1020.7V24.98H1019.7ZM1009.09 24.98H1008.09V25.98H1009.09V24.98ZM1007.56 16.616L1006.81 17.2745L1006.83 17.2996L1006.85 17.3231L1007.56 16.616ZM999.3 16.616L998.57 15.9321L998.569 15.9337L999.3 16.616ZM999.504 28.55L998.636 29.0461L998.64 29.053L998.644 29.0598L999.504 28.55ZM1003.58 33.854L1002.86 34.5465L1002.87 34.5539L1002.88 34.5611L1003.58 33.854ZM1008.79 38.852L1008.11 39.5858L1008.12 39.5988L1008.14 39.6113L1008.79 38.852ZM1014.09 44.258L1013.32 44.8956L1014.09 44.258ZM1018.17 50.99L1019.09 50.5931L1018.17 50.99ZM1015.52 73.226L1014.78 72.5517L1014.78 72.5525L1015.52 73.226ZM990.528 73.226L989.781 73.8914L989.789 73.8999L989.797 73.9083L990.528 73.226ZM986.346 55.478V54.478H985.346V55.478H986.346ZM996.954 55.478H997.954V54.478H996.954V55.478ZM998.484 65.984L997.777 66.6911L997.788 66.7025L997.8 66.7135L998.484 65.984ZM1006.95 65.984L1006.27 65.2545L1006.25 65.2655L1006.24 65.2769L1006.95 65.984ZM1006.95 54.152L1006.08 54.6481L1006.09 54.655L1006.09 54.6618L1006.95 54.152ZM1002.87 48.848L1002.15 49.5405L1002.16 49.5479L1002.16 49.5551L1002.87 48.848ZM997.566 43.85L996.887 44.5838L996.901 44.5968L996.915 44.6093L997.566 43.85ZM992.364 38.342L991.594 38.9796L992.364 38.342ZM988.284 31.61L989.202 31.2131L988.284 31.61ZM987.652 22.736C987.652 17.1006 988.978 12.9541 991.479 10.1404L989.985 8.81163C987.046 12.1179 985.652 16.8114 985.652 22.736H987.652ZM991.479 10.1414C994.022 7.28807 997.858 5.784 1003.18 5.784V3.784C997.478 3.784 993.018 5.40793 989.985 8.81062L991.479 10.1414ZM1003.18 5.784C1008.5 5.784 1012.29 7.28856 1014.76 10.1322L1016.27 8.81981C1013.31 5.40744 1008.87 3.784 1003.18 3.784V5.784ZM1014.78 10.1495C1017.34 12.9634 1018.7 17.1062 1018.7 22.736H1020.7C1020.7 16.8058 1019.27 12.1086 1016.26 8.8025L1014.78 10.1495ZM1018.7 22.736V24.98H1020.7V22.736H1018.7ZM1019.7 23.98H1009.09V25.98H1019.7V23.98ZM1010.09 24.98V22.022H1008.09V24.98H1010.09ZM1010.09 22.022C1010.09 19.3649 1009.58 17.2186 1008.27 15.9089L1006.85 17.3231C1007.59 18.0534 1008.09 19.5111 1008.09 22.022H1010.09ZM1008.31 15.9575C1007.13 14.6049 1005.47 13.984 1003.48 13.984V15.984C1005.03 15.984 1006.09 16.4511 1006.81 17.2745L1008.31 15.9575ZM1003.48 13.984C1001.49 13.984 999.814 14.6051 998.57 15.9321L1000.03 17.2999C1000.83 16.4509 1001.93 15.984 1003.48 15.984V13.984ZM998.569 15.9337C997.347 17.2431 996.872 19.3773 996.872 22.022H998.872C998.872 19.4987 999.349 18.0289 1000.03 17.2983L998.569 15.9337ZM996.872 22.022C996.872 24.6233 997.452 26.974 998.636 29.0461L1000.37 28.0539C999.38 26.318 998.872 24.3167 998.872 22.022H996.872ZM998.644 29.0598C999.775 30.9683 1001.18 32.7968 1002.86 34.5465L1004.31 33.1615C1002.72 31.5112 1001.41 29.8037 1000.36 28.0402L998.644 29.0598ZM1002.88 34.5611C1004.52 36.2029 1006.26 37.8778 1008.11 39.5858L1009.47 38.1182C1007.64 36.4262 1005.91 34.7691 1004.29 33.1469L1002.88 34.5611ZM1008.14 39.6113C1010 41.2054 1011.72 42.9666 1013.32 44.8956L1014.86 43.6204C1013.19 41.6054 1011.38 39.7626 1009.44 38.0927L1008.14 39.6113ZM1013.32 44.8956C1014.89 46.7897 1016.2 48.9516 1017.25 51.3869L1019.09 50.5931C1017.96 47.9964 1016.56 45.6702 1014.86 43.6204L1013.32 44.8956ZM1017.25 51.3869C1018.27 53.7513 1018.8 56.5687 1018.8 59.864H1020.8C1020.8 56.3593 1020.24 53.2607 1019.09 50.5931L1017.25 51.3869ZM1018.8 59.864C1018.8 65.4864 1017.41 69.6662 1014.78 72.5517L1016.26 73.9003C1019.33 70.5298 1020.8 65.8016 1020.8 59.864H1018.8ZM1014.78 72.5525C1012.24 75.3419 1008.4 76.816 1003.07 76.816V78.816C1008.77 78.816 1013.22 77.2301 1016.26 73.8995L1014.78 72.5525ZM1003.07 76.816C997.751 76.816 993.871 75.3424 991.259 72.5437L989.797 73.9083C992.897 77.2296 997.381 78.816 1003.07 78.816V76.816ZM991.275 72.5606C988.703 69.6752 987.346 65.492 987.346 59.864H985.346C985.346 65.796 986.777 70.5208 989.781 73.8914L991.275 72.5606ZM987.346 59.864V55.478H985.346V59.864H987.346ZM986.346 56.478H996.954V54.478H986.346V56.478ZM995.954 55.478V60.578H997.954V55.478H995.954ZM995.954 60.578C995.954 63.2351 996.467 65.3814 997.777 66.6911L999.191 65.2769C998.461 64.5466 997.954 63.0889 997.954 60.578H995.954ZM997.8 66.7135C999.107 67.9388 1000.8 68.514 1002.77 68.514V66.514C1001.2 66.514 1000.04 66.0692 999.168 65.2545L997.8 66.7135ZM1002.77 68.514C1004.74 68.514 1006.41 67.9393 1007.66 66.6911L1006.24 65.2769C1005.45 66.0687 1004.33 66.514 1002.77 66.514V68.514ZM1007.63 66.7135C1009.03 65.4051 1009.58 63.2484 1009.58 60.578H1007.58C1007.58 63.0756 1007.05 64.5229 1006.27 65.2545L1007.63 66.7135ZM1009.58 60.578C1009.58 57.9774 1009 55.6541 1007.81 53.6422L1006.09 54.6618C1007.07 56.3219 1007.58 58.2826 1007.58 60.578H1009.58ZM1007.82 53.6559C1006.68 51.6707 1005.27 49.8324 1003.58 48.1409L1002.16 49.5551C1003.74 51.1276 1005.04 52.8253 1006.08 54.6481L1007.82 53.6559ZM1003.59 48.1555C1001.94 46.4307 1000.14 44.7425 998.217 43.0907L996.915 44.6093C998.796 46.2215 1000.54 47.8653 1002.15 49.5405L1003.59 48.1555ZM998.245 43.1162C996.443 41.4469 994.739 39.6432 993.134 37.7044L991.594 38.9796C993.253 40.9848 995.017 42.8531 996.887 44.5838L998.245 43.1162ZM993.134 37.7044C991.567 35.8102 990.255 33.6484 989.202 31.2131L987.366 32.0069C988.489 34.6036 989.897 36.9297 991.594 38.9796L993.134 37.7044ZM989.202 31.2131C988.179 28.8486 987.652 26.0313 987.652 22.736H985.652C985.652 26.2407 986.213 29.3393 987.366 32.0069L989.202 31.2131ZM1022.97 5.6V4.6H1021.97V5.6H1022.97ZM1057.65 5.6H1058.65V4.6H1057.65V5.6ZM1057.65 15.8V16.8H1058.65V15.8H1057.65ZM1045.92 15.8V14.8H1044.92V15.8H1045.92ZM1045.92 77V78H1046.92V77H1045.92ZM1034.7 77H1033.7V78H1034.7V77ZM1034.7 15.8H1035.7V14.8H1034.7V15.8ZM1022.97 15.8H1021.97V16.8H1022.97V15.8ZM1022.97 6.6H1057.65V4.6H1022.97V6.6ZM1056.65 5.6V15.8H1058.65V5.6H1056.65ZM1057.65 14.8H1045.92V16.8H1057.65V14.8ZM1044.92 15.8V77H1046.92V15.8H1044.92ZM1045.92 76H1034.7V78H1045.92V76ZM1035.7 77V15.8H1033.7V77H1035.7ZM1034.7 14.8H1022.97V16.8H1034.7V14.8ZM1023.97 15.8V5.6H1021.97V15.8H1023.97ZM1074.42 66.086L1073.69 66.7699L1073.71 66.7935L1073.74 66.8155L1074.42 66.086ZM1082.89 66.086L1082.18 65.3789L1082.89 66.086ZM1082.89 16.616L1082.16 17.2999L1082.18 17.3235L1082.2 17.3455L1082.89 16.616ZM1074.42 16.616L1075.13 17.3231V17.3231L1074.42 16.616ZM1066.06 9.47599L1066.78 10.1669L1066.79 10.1589L1066.06 9.47599ZM1091.35 9.47599L1090.62 10.1589L1090.63 10.1669L1091.35 9.47599ZM1091.35 73.226L1092.07 73.9169L1092.08 73.9089L1091.35 73.226ZM1066.06 73.226L1065.33 73.9089L1065.33 73.9169L1066.06 73.226ZM1071.89 60.578C1071.89 63.2447 1072.41 65.4011 1073.69 66.7699L1075.15 65.4021C1074.39 64.5949 1073.89 63.0793 1073.89 60.578H1071.89ZM1073.74 66.8155C1075.04 68.0408 1076.73 68.616 1078.7 68.616V66.616C1077.14 66.616 1075.97 66.1712 1075.1 65.3565L1073.74 66.8155ZM1078.7 68.616C1080.67 68.616 1082.34 68.0413 1083.59 66.7931L1082.18 65.3789C1081.39 66.1707 1080.27 66.616 1078.7 66.616V68.616ZM1083.59 66.7931C1084.96 65.4245 1085.52 63.2574 1085.52 60.578H1083.52C1083.52 63.0666 1082.99 64.5715 1082.18 65.3789L1083.59 66.7931ZM1085.52 60.578V22.022H1083.52V60.578H1085.52ZM1085.52 22.022C1085.52 19.3516 1084.97 17.1949 1083.57 15.8865L1082.2 17.3455C1082.98 18.0771 1083.52 19.5244 1083.52 22.022H1085.52ZM1083.62 15.9321C1082.37 14.6051 1080.69 13.984 1078.7 13.984V15.984C1080.25 15.984 1081.36 16.4509 1082.16 17.2999L1083.62 15.9321ZM1078.7 13.984C1076.71 13.984 1075.02 14.6051 1073.71 15.9089L1075.13 17.3231C1076 16.4509 1077.16 15.984 1078.7 15.984V13.984ZM1073.71 15.9089C1072.4 17.2186 1071.89 19.3649 1071.89 22.022H1073.89C1073.89 19.5111 1074.4 18.0534 1075.13 17.3231L1073.71 15.9089ZM1071.89 22.022V60.578H1073.89V22.022H1071.89ZM1062.67 22.736C1062.67 17.1176 1064.09 12.9815 1066.78 10.1669L1065.33 8.78514C1062.17 12.0905 1060.67 16.7944 1060.67 22.736H1062.67ZM1066.79 10.1589C1069.47 7.28721 1073.39 5.784 1078.7 5.784V3.784C1073 3.784 1068.49 5.40878 1065.33 8.79311L1066.79 10.1589ZM1078.7 5.784C1084.02 5.784 1087.94 7.28721 1090.62 10.1589L1092.08 8.79311C1088.92 5.40878 1084.4 3.784 1078.7 3.784V5.784ZM1090.63 10.1669C1093.32 12.9815 1094.74 17.1176 1094.74 22.736H1096.74C1096.74 16.7944 1095.23 12.0905 1092.07 8.78514L1090.63 10.1669ZM1094.74 22.736V59.864H1096.74V22.736H1094.74ZM1094.74 59.864C1094.74 65.4808 1093.32 69.6572 1090.62 72.5431L1092.08 73.9089C1095.23 70.5388 1096.74 65.8072 1096.74 59.864H1094.74ZM1090.63 72.5351C1087.95 75.3429 1084.03 76.816 1078.7 76.816V78.816C1084.4 78.816 1088.91 77.2291 1092.07 73.9169L1090.63 72.5351ZM1078.7 76.816C1073.38 76.816 1069.46 75.3429 1066.78 72.5351L1065.33 73.9169C1068.5 77.2291 1073.01 78.816 1078.7 78.816V76.816ZM1066.79 72.5431C1064.09 69.6572 1062.67 65.4808 1062.67 59.864H1060.67C1060.67 65.8072 1062.17 70.5388 1065.33 73.9089L1066.79 72.5431ZM1062.67 59.864V22.736H1060.67V59.864H1062.67ZM1126.49 77L1125.53 77.2747L1125.73 78H1126.49V77ZM1126.08 75.674L1125.13 75.9902L1126.08 75.674ZM1125.67 74.144L1124.68 74.2544L1124.69 74.3082L1124.7 74.3609L1125.67 74.144ZM1125.47 71.798H1124.47V71.8337L1124.47 71.8692L1125.47 71.798ZM1114.25 47.93V46.93H1113.25V47.93H1114.25ZM1114.25 77V78H1115.25V77H1114.25ZM1103.03 77H1102.03V78H1103.03V77ZM1103.03 5.6V4.6H1102.03V5.6H1103.03ZM1132.61 9.68L1131.88 10.3688L1131.89 10.3781L1132.61 9.68ZM1129.24 42.116L1128.82 41.2118L1126.75 42.1865L1128.87 43.0429L1129.24 42.116ZM1135.06 47.828L1134.12 48.187L1134.13 48.2016L1134.14 48.2161L1135.06 47.828ZM1136.89 73.022L1135.9 73.1215L1135.9 73.1267L1136.89 73.022ZM1137.91 77V78H1139.39L1138.84 76.6286L1137.91 77ZM1114.25 15.8V14.8H1113.25V15.8H1114.25ZM1114.25 37.73H1113.25V38.73H1114.25V37.73ZM1123.53 36.098L1122.87 35.3506L1122.86 35.36L1122.85 35.3698L1123.53 36.098ZM1123.94 17.534L1123.14 18.1414L1123.16 18.1558L1123.17 18.1697L1123.94 17.534ZM1127.45 76.7253C1127.31 76.2374 1127.17 75.7814 1127.03 75.3578L1125.13 75.9902C1125.26 76.3826 1125.4 76.8106 1125.53 77.2747L1127.45 76.7253ZM1127.03 75.3578C1126.91 74.9934 1126.78 74.5192 1126.65 73.9271L1124.7 74.3609C1124.84 74.9928 1124.98 75.5386 1125.13 75.9902L1127.03 75.3578ZM1126.67 74.0336C1126.6 73.4396 1126.53 72.6719 1126.47 71.7268L1124.47 71.8692C1124.54 72.8281 1124.61 73.6244 1124.68 74.2544L1126.67 74.0336ZM1126.47 71.798C1126.47 71.7961 1126.47 71.7943 1126.47 71.7924C1126.47 71.7906 1126.47 71.7887 1126.47 71.7868C1126.47 71.785 1126.47 71.7831 1126.47 71.7812C1126.47 71.7794 1126.47 71.7775 1126.47 71.7756C1126.47 71.7738 1126.47 71.7719 1126.47 71.77C1126.47 71.7682 1126.47 71.7663 1126.47 71.7644C1126.47 71.7626 1126.47 71.7607 1126.47 71.7588C1126.47 71.757 1126.47 71.7551 1126.47 71.7532C1126.47 71.7513 1126.47 71.7495 1126.47 71.7476C1126.47 71.7457 1126.47 71.7438 1126.47 71.7419C1126.47 71.7401 1126.47 71.7382 1126.47 71.7363C1126.47 71.7344 1126.47 71.7326 1126.47 71.7307C1126.47 71.7288 1126.47 71.7269 1126.47 71.725C1126.47 71.7231 1126.47 71.7213 1126.47 71.7194C1126.47 71.7175 1126.47 71.7156 1126.47 71.7137C1126.47 71.7118 1126.47 71.7099 1126.47 71.7081C1126.47 71.7062 1126.47 71.7043 1126.47 71.7024C1126.47 71.7005 1126.47 71.6986 1126.47 71.6967C1126.47 71.6948 1126.47 71.6929 1126.47 71.691C1126.47 71.6891 1126.47 71.6872 1126.47 71.6853C1126.47 71.6834 1126.47 71.6816 1126.47 71.6797C1126.47 71.6778 1126.47 71.6759 1126.47 71.674C1126.47 71.6721 1126.47 71.6702 1126.47 71.6683C1126.47 71.6664 1126.47 71.6645 1126.47 71.6626C1126.47 71.6607 1126.47 71.6588 1126.47 71.6568C1126.47 71.6549 1126.47 71.653 1126.47 71.6511C1126.47 71.6492 1126.47 71.6473 1126.47 71.6454C1126.47 71.6435 1126.47 71.6416 1126.47 71.6397C1126.47 71.6378 1126.47 71.6359 1126.47 71.6339C1126.47 71.632 1126.47 71.6301 1126.47 71.6282C1126.47 71.6263 1126.47 71.6244 1126.47 71.6225C1126.47 71.6205 1126.47 71.6186 1126.47 71.6167C1126.47 71.6148 1126.47 71.6129 1126.47 71.611C1126.47 71.609 1126.47 71.6071 1126.47 71.6052C1126.47 71.6033 1126.47 71.6013 1126.47 71.5994C1126.47 71.5975 1126.47 71.5956 1126.47 71.5937C1126.47 71.5917 1126.47 71.5898 1126.47 71.5879C1126.47 71.586 1126.47 71.584 1126.47 71.5821C1126.47 71.5802 1126.47 71.5782 1126.47 71.5763C1126.47 71.5744 1126.47 71.5724 1126.47 71.5705C1126.47 71.5686 1126.47 71.5667 1126.47 71.5647C1126.47 71.5628 1126.47 71.5609 1126.47 71.5589C1126.47 71.557 1126.47 71.555 1126.47 71.5531C1126.47 71.5512 1126.47 71.5492 1126.47 71.5473C1126.47 71.5453 1126.47 71.5434 1126.47 71.5415C1126.47 71.5395 1126.47 71.5376 1126.47 71.5356C1126.47 71.5337 1126.47 71.5318 1126.47 71.5298C1126.47 71.5279 1126.47 71.5259 1126.47 71.524C1126.47 71.522 1126.47 71.5201 1126.47 71.5181C1126.47 71.5162 1126.47 71.5142 1126.47 71.5123C1126.47 71.5103 1126.47 71.5084 1126.47 71.5064C1126.47 71.5045 1126.47 71.5025 1126.47 71.5006C1126.47 71.4986 1126.47 71.4967 1126.47 71.4947C1126.47 71.4928 1126.47 71.4908 1126.47 71.4888C1126.47 71.4869 1126.47 71.4849 1126.47 71.483C1126.47 71.481 1126.47 71.479 1126.47 71.4771C1126.47 71.4751 1126.47 71.4732 1126.47 71.4712C1126.47 71.4692 1126.47 71.4673 1126.47 71.4653C1126.47 71.4633 1126.47 71.4614 1126.47 71.4594C1126.47 71.4574 1126.47 71.4555 1126.47 71.4535C1126.47 71.4515 1126.47 71.4496 1126.47 71.4476C1126.47 71.4456 1126.47 71.4437 1126.47 71.4417C1126.47 71.4397 1126.47 71.4377 1126.47 71.4358C1126.47 71.4338 1126.47 71.4318 1126.47 71.4298C1126.47 71.4279 1126.47 71.4259 1126.47 71.4239C1126.47 71.4219 1126.47 71.42 1126.47 71.418C1126.47 71.416 1126.47 71.414 1126.47 71.412C1126.47 71.4101 1126.47 71.4081 1126.47 71.4061C1126.47 71.4041 1126.47 71.4021 1126.47 71.4001C1126.47 71.3982 1126.47 71.3962 1126.47 71.3942C1126.47 71.3922 1126.47 71.3902 1126.47 71.3882C1126.47 71.3862 1126.47 71.3842 1126.47 71.3823C1126.47 71.3803 1126.47 71.3783 1126.47 71.3763C1126.47 71.3743 1126.47 71.3723 1126.47 71.3703C1126.47 71.3683 1126.47 71.3663 1126.47 71.3643C1126.47 71.3623 1126.47 71.3603 1126.47 71.3583C1126.47 71.3563 1126.47 71.3543 1126.47 71.3523C1126.47 71.3503 1126.47 71.3483 1126.47 71.3463C1126.47 71.3443 1126.47 71.3423 1126.47 71.3403C1126.47 71.3383 1126.47 71.3363 1126.47 71.3343C1126.47 71.3323 1126.47 71.3303 1126.47 71.3283C1126.47 71.3263 1126.47 71.3243 1126.47 71.3223C1126.47 71.3203 1126.47 71.3183 1126.47 71.3163C1126.47 71.3142 1126.47 71.3122 1126.47 71.3102C1126.47 71.3082 1126.47 71.3062 1126.47 71.3042C1126.47 71.3022 1126.47 71.3002 1126.47 71.2981C1126.47 71.2961 1126.47 71.2941 1126.47 71.2921C1126.47 71.2901 1126.47 71.288 1126.47 71.286C1126.47 71.284 1126.47 71.282 1126.47 71.28C1126.47 71.278 1126.47 71.2759 1126.47 71.2739C1126.47 71.2719 1126.47 71.2699 1126.47 71.2678C1126.47 71.2658 1126.47 71.2638 1126.47 71.2618C1126.47 71.2597 1126.47 71.2577 1126.47 71.2557C1126.47 71.2536 1126.47 71.2516 1126.47 71.2496C1126.47 71.2476 1126.47 71.2455 1126.47 71.2435C1126.47 71.2415 1126.47 71.2394 1126.47 71.2374C1126.47 71.2354 1126.47 71.2333 1126.47 71.2313C1126.47 71.2293 1126.47 71.2272 1126.47 71.2252C1126.47 71.2231 1126.47 71.2211 1126.47 71.2191C1126.47 71.217 1126.47 71.215 1126.47 71.213C1126.47 71.2109 1126.47 71.2089 1126.47 71.2068C1126.47 71.2048 1126.47 71.2027 1126.47 71.2007C1126.47 71.1986 1126.47 71.1966 1126.47 71.1946C1126.47 71.1925 1126.47 71.1905 1126.47 71.1884C1126.47 71.1864 1126.47 71.1843 1126.47 71.1823C1126.47 71.1802 1126.47 71.1782 1126.47 71.1761C1126.47 71.1741 1126.47 71.172 1126.47 71.17C1126.47 71.1679 1126.47 71.1658 1126.47 71.1638C1126.47 71.1617 1126.47 71.1597 1126.47 71.1576C1126.47 71.1556 1126.47 71.1535 1126.47 71.1515C1126.47 71.1494 1126.47 71.1473 1126.47 71.1453C1126.47 71.1432 1126.47 71.1411 1126.47 71.1391C1126.47 71.137 1126.47 71.135 1126.47 71.1329C1126.47 71.1308 1126.47 71.1288 1126.47 71.1267C1126.47 71.1246 1126.47 71.1226 1126.47 71.1205C1126.47 71.1184 1126.47 71.1164 1126.47 71.1143C1126.47 71.1122 1126.47 71.1101 1126.47 71.1081C1126.47 71.106 1126.47 71.1039 1126.47 71.1019C1126.47 71.0998 1126.47 71.0977 1126.47 71.0956C1126.47 71.0936 1126.47 71.0915 1126.47 71.0894C1126.47 71.0873 1126.47 71.0853 1126.47 71.0832C1126.47 71.0811 1126.47 71.079 1126.47 71.0769C1126.47 71.0748 1126.47 71.0728 1126.47 71.0707C1126.47 71.0686 1126.47 71.0665 1126.47 71.0644C1126.47 71.0623 1126.47 71.0603 1126.47 71.0582C1126.47 71.0561 1126.47 71.054 1126.47 71.0519C1126.47 71.0498 1126.47 71.0477 1126.47 71.0456C1126.47 71.0436 1126.47 71.0415 1126.47 71.0394C1126.47 71.0373 1126.47 71.0352 1126.47 71.0331C1126.47 71.031 1126.47 71.0289 1126.47 71.0268C1126.47 71.0247 1126.47 71.0226 1126.47 71.0205C1126.47 71.0184 1126.47 71.0163 1126.47 71.0142C1126.47 71.0121 1126.47 71.01 1126.47 71.0079C1126.47 71.0058 1126.47 71.0037 1126.47 71.0016C1126.47 70.9995 1126.47 70.9974 1126.47 70.9953C1126.47 70.9932 1126.47 70.9911 1126.47 70.989C1126.47 70.9869 1126.47 70.9848 1126.47 70.9827C1126.47 70.9806 1126.47 70.9785 1126.47 70.9763C1126.47 70.9742 1126.47 70.9721 1126.47 70.97C1126.47 70.9679 1126.47 70.9658 1126.47 70.9637C1126.47 70.9616 1126.47 70.9594 1126.47 70.9573C1126.47 70.9552 1126.47 70.9531 1126.47 70.951C1126.47 70.9489 1126.47 70.9467 1126.47 70.9446C1126.47 70.9425 1126.47 70.9404 1126.47 70.9383C1126.47 70.9361 1126.47 70.934 1126.47 70.9319C1126.47 70.9298 1126.47 70.9277 1126.47 70.9255C1126.47 70.9234 1126.47 70.9213 1126.47 70.9192C1126.47 70.917 1126.47 70.9149 1126.47 70.9128C1126.47 70.9107 1126.47 70.9085 1126.47 70.9064C1126.47 70.9043 1126.47 70.9021 1126.47 70.9C1126.47 70.8979 1126.47 70.8957 1126.47 70.8936C1126.47 70.8915 1126.47 70.8893 1126.47 70.8872C1126.47 70.8851 1126.47 70.8829 1126.47 70.8808C1126.47 70.8786 1126.47 70.8765 1126.47 70.8744C1126.47 70.8722 1126.47 70.8701 1126.47 70.868C1126.47 70.8658 1126.47 70.8637 1126.47 70.8615C1126.47 70.8594 1126.47 70.8572 1126.47 70.8551C1126.47 70.853 1126.47 70.8508 1126.47 70.8487C1126.47 70.8465 1126.47 70.8444 1126.47 70.8422C1126.47 70.8401 1126.47 70.8379 1126.47 70.8358C1126.47 70.8336 1126.47 70.8315 1126.47 70.8293C1126.47 70.8272 1126.47 70.825 1126.47 70.8229C1126.47 70.8207 1126.47 70.8186 1126.47 70.8164C1126.47 70.8142 1126.47 70.8121 1126.47 70.8099C1126.47 70.8078 1126.47 70.8056 1126.47 70.8035C1126.47 70.8013 1126.47 70.7991 1126.47 70.797C1126.47 70.7948 1126.47 70.7927 1126.47 70.7905C1126.47 70.7883 1126.47 70.7862 1126.47 70.784C1126.47 70.7818 1126.47 70.7797 1126.47 70.7775C1126.47 70.7753 1126.47 70.7732 1126.47 70.771C1126.47 70.7688 1126.47 70.7667 1126.47 70.7645C1126.47 70.7623 1126.47 70.7602 1126.47 70.758C1126.47 70.7558 1126.47 70.7536 1126.47 70.7515C1126.47 70.7493 1126.47 70.7471 1126.47 70.7449C1126.47 70.7428 1126.47 70.7406 1126.47 70.7384C1126.47 70.7362 1126.47 70.7341 1126.47 70.7319C1126.47 70.7297 1126.47 70.7275 1126.47 70.7253C1126.47 70.7232 1126.47 70.721 1126.47 70.7188C1126.47 70.7166 1126.47 70.7144 1126.47 70.7122C1126.47 70.7101 1126.47 70.7079 1126.47 70.7057C1126.47 70.7035 1126.47 70.7013 1126.47 70.6991C1126.47 70.6969 1126.47 70.6947 1126.47 70.6926C1126.47 70.6904 1126.47 70.6882 1126.47 70.686C1126.47 70.6838 1126.47 70.6816 1126.47 70.6794C1126.47 70.6772 1126.47 70.675 1126.47 70.6728C1126.47 70.6706 1126.47 70.6684 1126.47 70.6662C1126.47 70.664 1126.47 70.6618 1126.47 70.6596C1126.47 70.6574 1126.47 70.6552 1126.47 70.653C1126.47 70.6508 1126.47 70.6486 1126.47 70.6464C1126.47 70.6442 1126.47 70.642 1126.47 70.6398C1126.47 70.6376 1126.47 70.6354 1126.47 70.6332C1126.47 70.631 1126.47 70.6288 1126.47 70.6266C1126.47 70.6244 1126.47 70.6222 1126.47 70.62C1126.47 70.6178 1126.47 70.6155 1126.47 70.6133C1126.47 70.6111 1126.47 70.6089 1126.47 70.6067C1126.47 70.6045 1126.47 70.6023 1126.47 70.6001C1126.47 70.5978 1126.47 70.5956 1126.47 70.5934C1126.47 70.5912 1126.47 70.589 1126.47 70.5868C1126.47 70.5845 1126.47 70.5823 1126.47 70.5801C1126.47 70.5779 1126.47 70.5757 1126.47 70.5734C1126.47 70.5712 1126.47 70.569 1126.47 70.5668C1126.47 70.5645 1126.47 70.5623 1126.47 70.5601C1126.47 70.5579 1126.47 70.5556 1126.47 70.5534C1126.47 70.5512 1126.47 70.5489 1126.47 70.5467C1126.47 70.5445 1126.47 70.5423 1126.47 70.54C1126.47 70.5378 1126.47 70.5356 1126.47 70.5333C1126.47 70.5311 1126.47 70.5289 1126.47 70.5266C1126.47 70.5244 1126.47 70.5221 1126.47 70.5199C1126.47 70.5177 1126.47 70.5154 1126.47 70.5132C1126.47 70.511 1126.47 70.5087 1126.47 70.5065C1126.47 70.5042 1126.47 70.502 1126.47 70.4998C1126.47 70.4975 1126.47 70.4953 1126.47 70.493C1126.47 70.4908 1126.47 70.4885 1126.47 70.4863C1126.47 70.484 1126.47 70.4818 1126.47 70.4795C1126.47 70.4773 1126.47 70.4751 1126.47 70.4728C1126.47 70.4706 1126.47 70.4683 1126.47 70.466C1126.47 70.4638 1126.47 70.4615 1126.47 70.4593C1126.47 70.457 1126.47 70.4548 1126.47 70.4525C1126.47 70.4503 1126.47 70.448 1126.47 70.4458C1126.47 70.4435 1126.47 70.4412 1126.47 70.439C1126.47 70.4367 1126.47 70.4345 1126.47 70.4322C1126.47 70.4299 1126.47 70.4277 1126.47 70.4254C1126.47 70.4232 1126.47 70.4209 1126.47 70.4186C1126.47 70.4164 1126.47 70.4141 1126.47 70.4118C1126.47 70.4096 1126.47 70.4073 1126.47 70.405C1126.47 70.4028 1126.47 70.4005 1126.47 70.3982C1126.47 70.396 1126.47 70.3937 1126.47 70.3914C1126.47 70.3891 1126.47 70.3869 1126.47 70.3846C1126.47 70.3823 1126.47 70.3801 1126.47 70.3778C1126.47 70.3755 1126.47 70.3732 1126.47 70.3709C1126.47 70.3687 1126.47 70.3664 1126.47 70.3641C1126.47 70.3618 1126.47 70.3596 1126.47 70.3573C1126.47 70.355 1126.47 70.3527 1126.47 70.3504C1126.47 70.3481 1126.47 70.3459 1126.47 70.3436C1126.47 70.3413 1126.47 70.339 1126.47 70.3367C1126.47 70.3344 1126.47 70.3322 1126.47 70.3299C1126.47 70.3276 1126.47 70.3253 1126.47 70.323C1126.47 70.3207 1126.47 70.3184 1126.47 70.3161C1126.47 70.3138 1126.47 70.3115 1126.47 70.3092C1126.47 70.307 1126.47 70.3047 1126.47 70.3024C1126.47 70.3001 1126.47 70.2978 1126.47 70.2955C1126.47 70.2932 1126.47 70.2909 1126.47 70.2886C1126.47 70.2863 1126.47 70.284 1126.47 70.2817C1126.47 70.2794 1126.47 70.2771 1126.47 70.2748C1126.47 70.2725 1126.47 70.2702 1126.47 70.2679C1126.47 70.2656 1126.47 70.2633 1126.47 70.261C1126.47 70.2586 1126.47 70.2563 1126.47 70.254C1126.47 70.2517 1126.47 70.2494 1126.47 70.2471C1126.47 70.2448 1126.47 70.2425 1126.47 70.2402C1126.47 70.2379 1126.47 70.2355 1126.47 70.2332C1126.47 70.2309 1126.47 70.2286 1126.47 70.2263C1126.47 70.224 1126.47 70.2217 1126.47 70.2193C1126.47 70.217 1126.47 70.2147 1126.47 70.2124C1126.47 70.2101 1126.47 70.2078 1126.47 70.2054C1126.47 70.2031 1126.47 70.2008 1126.47 70.1985C1126.47 70.1961 1126.47 70.1938 1126.47 70.1915C1126.47 70.1892 1126.47 70.1869 1126.47 70.1845C1126.47 70.1822 1126.47 70.1799 1126.47 70.1775C1126.47 70.1752 1126.47 70.1729 1126.47 70.1706C1126.47 70.1682 1126.47 70.1659 1126.47 70.1636C1126.47 70.1612 1126.47 70.1589 1126.47 70.1566C1126.47 70.1542 1126.47 70.1519 1126.47 70.1496C1126.47 70.1472 1126.47 70.1449 1126.47 70.1426C1126.47 70.1402 1126.47 70.1379 1126.47 70.1355C1126.47 70.1332 1126.47 70.1309 1126.47 70.1285C1126.47 70.1262 1126.47 70.1238 1126.47 70.1215C1126.47 70.1192 1126.47 70.1168 1126.47 70.1145C1126.47 70.1121 1126.47 70.1098 1126.47 70.1074C1126.47 70.1051 1126.47 70.1027 1126.47 70.1004C1126.47 70.098 1126.47 70.0957 1126.47 70.0933C1126.47 70.091 1126.47 70.0886 1126.47 70.0863C1126.47 70.0839 1126.47 70.0816 1126.47 70.0792C1126.47 70.0769 1126.47 70.0745 1126.47 70.0722C1126.47 70.0698 1126.47 70.0675 1126.47 70.0651C1126.47 70.0628 1126.47 70.0604 1126.47 70.058C1126.47 70.0557 1126.47 70.0533 1126.47 70.051C1126.47 70.0486 1126.47 70.0462 1126.47 70.0439C1126.47 70.0415 1126.47 70.0391 1126.47 70.0368C1126.47 70.0344 1126.47 70.0321 1126.47 70.0297C1126.47 70.0273 1126.47 70.025 1126.47 70.0226C1126.47 70.0202 1126.47 70.0179 1126.47 70.0155C1126.47 70.0131 1126.47 70.0107 1126.47 70.0084C1126.47 70.006 1126.47 70.0036 1126.47 70.0013C1126.47 69.9989 1126.47 69.9965 1126.47 69.9941C1126.47 69.9918 1126.47 69.9894 1126.47 69.987C1126.47 69.9846 1126.47 69.9822 1126.47 69.9799C1126.47 69.9775 1126.47 69.9751 1126.47 69.9727C1126.47 69.9704 1126.47 69.968 1126.47 69.9656C1126.47 69.9632 1126.47 69.9608 1126.47 69.9584C1126.47 69.9561 1126.47 69.9537 1126.47 69.9513C1126.47 69.9489 1126.47 69.9465 1126.47 69.9441C1126.47 69.9417 1126.47 69.9393 1126.47 69.937C1126.47 69.9346 1126.47 69.9322 1126.47 69.9298C1126.47 69.9274 1126.47 69.925 1126.47 69.9226C1126.47 69.9202 1126.47 69.9178 1126.47 69.9154C1126.47 69.913 1126.47 69.9106 1126.47 69.9082C1126.47 69.9058 1126.47 69.9034 1126.47 69.901C1126.47 69.8986 1126.47 69.8962 1126.47 69.8938C1126.47 69.8914 1126.47 69.889 1126.47 69.8866C1126.47 69.8842 1126.47 69.8818 1126.47 69.8794C1126.47 69.877 1126.47 69.8746 1126.47 69.8722C1126.47 69.8698 1126.47 69.8674 1126.47 69.865C1126.47 69.8626 1126.47 69.8602 1126.47 69.8578C1126.47 69.8554 1126.47 69.853 1126.47 69.8505C1126.47 69.8481 1126.47 69.8457 1126.47 69.8433C1126.47 69.8409 1126.47 69.8385 1126.47 69.8361C1126.47 69.8336 1126.47 69.8312 1126.47 69.8288C1126.47 69.8264 1126.47 69.824 1126.47 69.8216C1126.47 69.8191 1126.47 69.8167 1126.47 69.8143C1126.47 69.8119 1126.47 69.8095 1126.47 69.807C1126.47 69.8046 1126.47 69.8022 1126.47 69.7998C1126.47 69.7973 1126.47 69.7949 1126.47 69.7925C1126.47 69.7901 1126.47 69.7876 1126.47 69.7852C1126.47 69.7828 1126.47 69.7803 1126.47 69.7779C1126.47 69.7755 1126.47 69.7731 1126.47 69.7706C1126.47 69.7682 1126.47 69.7658 1126.47 69.7633C1126.47 69.7609 1126.47 69.7585 1126.47 69.756C1126.47 69.7536 1126.47 69.7512 1126.47 69.7487C1126.47 69.7463 1126.47 69.7439 1126.47 69.7414C1126.47 69.739 1126.47 69.7365 1126.47 69.7341C1126.47 69.7317 1126.47 69.7292 1126.47 69.7268C1126.47 69.7243 1126.47 69.7219 1126.47 69.7194C1126.47 69.717 1126.47 69.7146 1126.47 69.7121C1126.47 69.7097 1126.47 69.7072 1126.47 69.7048C1126.47 69.7023 1126.47 69.6999 1126.47 69.6974C1126.47 69.695 1126.47 69.6925 1126.47 69.6901C1126.47 69.6876 1126.47 69.6852 1126.47 69.6827C1126.47 69.6803 1126.47 69.6778 1126.47 69.6753C1126.47 69.6729 1126.47 69.6704 1126.47 69.668C1126.47 69.6655 1126.47 69.6631 1126.47 69.6606C1126.47 69.6581 1126.47 69.6557 1126.47 69.6532C1126.47 69.6508 1126.47 69.6483 1126.47 69.6458C1126.47 69.6434 1126.47 69.6409 1126.47 69.6385C1126.47 69.636 1126.47 69.6335 1126.47 69.6311C1126.47 69.6286 1126.47 69.6261 1126.47 69.6237C1126.47 69.6212 1126.47 69.6187 1126.47 69.6163C1126.47 69.6138 1126.47 69.6113 1126.47 69.6088C1126.47 69.6064 1126.47 69.6039 1126.47 69.6014C1126.47 69.599 1126.47 69.5965 1126.47 69.594C1126.47 69.5915 1126.47 69.5891 1126.47 69.5866C1126.47 69.5841 1126.47 69.5816 1126.47 69.5791C1126.47 69.5767 1126.47 69.5742 1126.47 69.5717C1126.47 69.5692 1126.47 69.5667 1126.47 69.5643C1126.47 69.5618 1126.47 69.5593 1126.47 69.5568C1126.47 69.5543 1126.47 69.5518 1126.47 69.5494C1126.47 69.5469 1126.47 69.5444 1126.47 69.5419C1126.47 69.5394 1126.47 69.5369 1126.47 69.5344C1126.47 69.5319 1126.47 69.5294 1126.47 69.527C1126.47 69.5245 1126.47 69.522 1126.47 69.5195C1126.47 69.517 1126.47 69.5145 1126.47 69.512C1126.47 69.5095 1126.47 69.507 1126.47 69.5045C1126.47 69.502 1126.47 69.4995 1126.47 69.497C1126.47 69.4945 1126.47 69.492 1126.47 69.4895C1126.47 69.487 1126.47 69.4845 1126.47 69.482C1126.47 69.4795 1126.47 69.477 1126.47 69.4745C1126.47 69.472 1126.47 69.4695 1126.47 69.467C1126.47 69.4645 1126.47 69.462 1126.47 69.4595C1126.47 69.457 1126.47 69.4545 1126.47 69.452C1126.47 69.4494 1126.47 69.4469 1126.47 69.4444C1126.47 69.4419 1126.47 69.4394 1126.47 69.4369C1126.47 69.4344 1126.47 69.4319 1126.47 69.4293C1126.47 69.4268 1126.47 69.4243 1126.47 69.4218C1126.47 69.4193 1126.47 69.4168 1126.47 69.4142C1126.47 69.4117 1126.47 69.4092 1126.47 69.4067C1126.47 69.4042 1126.47 69.4016 1126.47 69.3991C1126.47 69.3966 1126.47 69.3941 1126.47 69.3915C1126.47 69.389 1126.47 69.3865 1126.47 69.384C1126.47 69.3814 1126.47 69.3789 1126.47 69.3764C1126.47 69.3739 1126.47 69.3713 1126.47 69.3688C1126.47 69.3663 1126.47 69.3638 1126.47 69.3612C1126.47 69.3587 1126.47 69.3562 1126.47 69.3536C1126.47 69.3511 1126.47 69.3486 1126.47 69.346C1126.47 69.3435 1126.47 69.341 1126.47 69.3384C1126.47 69.3359 1126.47 69.3333 1126.47 69.3308C1126.47 69.3283 1126.47 69.3257 1126.47 69.3232C1126.47 69.3206 1126.47 69.3181 1126.47 69.3156C1126.47 69.313 1126.47 69.3105 1126.47 69.3079C1126.47 69.3054 1126.47 69.3028 1126.47 69.3003C1126.47 69.2978 1126.47 69.2952 1126.47 69.2927C1126.47 69.2901 1126.47 69.2876 1126.47 69.285C1126.47 69.2825 1126.47 69.2799 1126.47 69.2774C1126.47 69.2748 1126.47 69.2723 1126.47 69.2697C1126.47 69.2672 1126.47 69.2646 1126.47 69.262C1126.47 69.2595 1126.47 69.2569 1126.47 69.2544C1126.47 69.2518 1126.47 69.2493 1126.47 69.2467C1126.47 69.2441 1126.47 69.2416 1126.47 69.239C1126.47 69.2365 1126.47 69.2339 1126.47 69.2313C1126.47 69.2288 1126.47 69.2262 1126.47 69.2236C1126.47 69.2211 1126.47 69.2185 1126.47 69.216C1126.47 69.2134 1126.47 69.2108 1126.47 69.2083C1126.47 69.2057 1126.47 69.2031 1126.47 69.2006C1126.47 69.198 1126.47 69.1954 1126.47 69.1928C1126.47 69.1903 1126.47 69.1877 1126.47 69.1851C1126.47 69.1825 1126.47 69.18 1126.47 69.1774C1126.47 69.1748 1126.47 69.1722 1126.47 69.1697C1126.47 69.1671 1126.47 69.1645 1126.47 69.1619C1126.47 69.1594 1126.47 69.1568 1126.47 69.1542C1126.47 69.1516 1126.47 69.149 1126.47 69.1465C1126.47 69.1439 1126.47 69.1413 1126.47 69.1387C1126.47 69.1361 1126.47 69.1335 1126.47 69.131C1126.47 69.1284 1126.47 69.1258 1126.47 69.1232C1126.47 69.1206 1126.47 69.118 1126.47 69.1154C1126.47 69.1128 1126.47 69.1103 1126.47 69.1077C1126.47 69.1051 1126.47 69.1025 1126.47 69.0999C1126.47 69.0973 1126.47 69.0947 1126.47 69.0921C1126.47 69.0895 1126.47 69.0869 1126.47 69.0843C1126.47 69.0817 1126.47 69.0791 1126.47 69.0765C1126.47 69.0739 1126.47 69.0713 1126.47 69.0687C1126.47 69.0661 1126.47 69.0635 1126.47 69.0609C1126.47 69.0583 1126.47 69.0557 1126.47 69.0531C1126.47 69.0505 1126.47 69.0479 1126.47 69.0453C1126.47 69.0427 1126.47 69.0401 1126.47 69.0375C1126.47 69.0349 1126.47 69.0323 1126.47 69.0297C1126.47 69.027 1126.47 69.0244 1126.47 69.0218C1126.47 69.0192 1126.47 69.0166 1126.47 69.014C1126.47 69.0114 1126.47 69.0088 1126.47 69.0061C1126.47 69.0035 1126.47 69.0009 1126.47 68.9983C1126.47 68.9957 1126.47 68.9931 1126.47 68.9904C1126.47 68.9878 1126.47 68.9852 1126.47 68.9826C1126.47 68.98 1126.47 68.9773 1126.47 68.9747C1126.47 68.9721 1126.47 68.9695 1126.47 68.9669C1126.47 68.9642 1126.47 68.9616 1126.47 68.959C1126.47 68.9564 1126.47 68.9537 1126.47 68.9511C1126.47 68.9485 1126.47 68.9458 1126.47 68.9432C1126.47 68.9406 1126.47 68.938 1126.47 68.9353C1126.47 68.9327 1126.47 68.9301 1126.47 68.9274C1126.47 68.9248 1126.47 68.9222 1126.47 68.9195C1126.47 68.9169 1126.47 68.9143 1126.47 68.9116C1126.47 68.909 1126.47 68.9063 1126.47 68.9037C1126.47 68.9011 1126.47 68.8984 1126.47 68.8958C1126.47 68.8932 1126.47 68.8905 1126.47 68.8879C1126.47 68.8852 1126.47 68.8826 1126.47 68.8799C1126.47 68.8773 1126.47 68.8747 1126.47 68.872C1126.47 68.8694 1126.47 68.8667 1126.47 68.8641C1126.47 68.8614 1126.47 68.8588 1126.47 68.8561C1126.47 68.8535 1126.47 68.8508 1126.47 68.8482C1126.47 68.8455 1126.47 68.8429 1126.47 68.8402C1126.47 68.8376 1126.47 68.8349 1126.47 68.8323C1126.47 68.8296 1126.47 68.827 1126.47 68.8243C1126.47 68.8216 1126.47 68.819 1126.47 68.8163C1126.47 68.8137 1126.47 68.811 1126.47 68.8083C1126.47 68.8057 1126.47 68.803 1126.47 68.8004C1126.47 68.7977 1126.47 68.795 1126.47 68.7924C1126.47 68.7897 1126.47 68.787 1126.47 68.7844C1126.47 68.7817 1126.47 68.779 1126.47 68.7764C1126.47 68.7737 1126.47 68.771 1126.47 68.7684C1126.47 68.7657 1126.47 68.763 1126.47 68.7604C1126.47 68.7577 1126.47 68.755 1126.47 68.7523C1126.47 68.7497 1126.47 68.747 1126.47 68.7443C1126.47 68.7416 1126.47 68.739 1126.47 68.7363C1126.47 68.7336 1126.47 68.7309 1126.47 68.7283C1126.47 68.7256 1126.47 68.7229 1126.47 68.7202C1126.47 68.7175 1126.47 68.7149 1126.47 68.7122C1126.47 68.7095 1126.47 68.7068 1126.47 68.7041C1126.47 68.7014 1126.47 68.6988 1126.47 68.6961C1126.47 68.6934 1126.47 68.6907 1126.47 68.688C1126.47 68.6853 1126.47 68.6826 1126.47 68.68C1126.47 68.6773 1126.47 68.6746 1126.47 68.6719C1126.47 68.6692 1126.47 68.6665 1126.47 68.6638C1126.47 68.6611 1126.47 68.6584 1126.47 68.6557C1126.47 68.653 1126.47 68.6503 1126.47 68.6476C1126.47 68.6449 1126.47 68.6423 1126.47 68.6395C1126.47 68.6368 1126.47 68.6342 1126.47 68.6315C1126.47 68.6288 1126.47 68.6261 1126.47 68.6234C1126.47 68.6206 1126.47 68.6179 1126.47 68.6152C1126.47 68.6125 1126.47 68.6098 1126.47 68.6071C1126.47 68.6044 1126.47 68.6017 1126.47 68.599C1126.47 68.5963 1126.47 68.5936 1126.47 68.5909C1126.47 68.5882 1126.47 68.5855 1126.47 68.5828C1126.47 68.58 1126.47 68.5773 1126.47 68.5746C1126.47 68.5719 1126.47 68.5692 1126.47 68.5665C1126.47 68.5638 1126.47 68.561 1126.47 68.5583C1126.47 68.5556 1126.47 68.5529 1126.47 68.5502C1126.47 68.5475 1126.47 68.5447 1126.47 68.542C1126.47 68.5393 1126.47 68.5366 1126.47 68.5339C1126.47 68.5311 1126.47 68.5284 1126.47 68.5257C1126.47 68.523 1126.47 68.5202 1126.47 68.5175C1126.47 68.5148 1126.47 68.5121 1126.47 68.5093C1126.47 68.5066 1126.47 68.5039 1126.47 68.5012C1126.47 68.4984 1126.47 68.4957 1126.47 68.493C1126.47 68.4902 1126.47 68.4875 1126.47 68.4848C1126.47 68.482 1126.47 68.4793 1126.47 68.4766C1126.47 68.4738 1126.47 68.4711 1126.47 68.4684C1126.47 68.4656 1126.47 68.4629 1126.47 68.4601C1126.47 68.4574 1126.47 68.4547 1126.47 68.4519C1126.47 68.4492 1126.47 68.4464 1126.47 68.4437C1126.47 68.441 1126.47 68.4382 1126.47 68.4355C1126.47 68.4327 1126.47 68.43 1126.47 68.4272C1126.47 68.4245 1126.47 68.4218 1126.47 68.419C1126.47 68.4163 1126.47 68.4135 1126.47 68.4108C1126.47 68.408 1126.47 68.4053 1126.47 68.4025C1126.47 68.3998 1126.47 68.397 1126.47 68.3943C1126.47 68.3915 1126.47 68.3887 1126.47 68.386C1126.47 68.3832 1126.47 68.3805 1126.47 68.3777C1126.47 68.375 1126.47 68.3722 1126.47 68.3695C1126.47 68.3667 1126.47 68.3639 1126.47 68.3612C1126.47 68.3584 1126.47 68.3557 1126.47 68.3529C1126.47 68.3501 1126.47 68.3474 1126.47 68.3446C1126.47 68.3418 1126.47 68.3391 1126.47 68.3363C1126.47 68.3335 1126.47 68.3308 1126.47 68.328C1126.47 68.3252 1126.47 68.3225 1126.47 68.3197C1126.47 68.3169 1126.47 68.3142 1126.47 68.3114C1126.47 68.3086 1126.47 68.3059 1126.47 68.3031C1126.47 68.3003 1126.47 68.2975 1126.47 68.2948C1126.47 68.292 1126.47 68.2892 1126.47 68.2864C1126.47 68.2837 1126.47 68.2809 1126.47 68.2781C1126.47 68.2753 1126.47 68.2725 1126.47 68.2698C1126.47 68.267 1126.47 68.2642 1126.47 68.2614C1126.47 68.2586 1126.47 68.2559 1126.47 68.2531C1126.47 68.2503 1126.47 68.2475 1126.47 68.2447C1126.47 68.2419 1126.47 68.2392 1126.47 68.2364C1126.47 68.2336 1126.47 68.2308 1126.47 68.228H1124.47C1124.47 68.2308 1124.47 68.2336 1124.47 68.2364C1124.47 68.2392 1124.47 68.2419 1124.47 68.2447C1124.47 68.2475 1124.47 68.2503 1124.47 68.2531C1124.47 68.2559 1124.47 68.2586 1124.47 68.2614C1124.47 68.2642 1124.47 68.267 1124.47 68.2698C1124.47 68.2725 1124.47 68.2753 1124.47 68.2781C1124.47 68.2809 1124.47 68.2837 1124.47 68.2864C1124.47 68.2892 1124.47 68.292 1124.47 68.2948C1124.47 68.2975 1124.47 68.3003 1124.47 68.3031C1124.47 68.3059 1124.47 68.3086 1124.47 68.3114C1124.47 68.3142 1124.47 68.3169 1124.47 68.3197C1124.47 68.3225 1124.47 68.3252 1124.47 68.328C1124.47 68.3308 1124.47 68.3335 1124.47 68.3363C1124.47 68.3391 1124.47 68.3418 1124.47 68.3446C1124.47 68.3474 1124.47 68.3501 1124.47 68.3529C1124.47 68.3557 1124.47 68.3584 1124.47 68.3612C1124.47 68.3639 1124.47 68.3667 1124.47 68.3695C1124.47 68.3722 1124.47 68.375 1124.47 68.3777C1124.47 68.3805 1124.47 68.3832 1124.47 68.386C1124.47 68.3887 1124.47 68.3915 1124.47 68.3943C1124.47 68.397 1124.47 68.3998 1124.47 68.4025C1124.47 68.4053 1124.47 68.408 1124.47 68.4108C1124.47 68.4135 1124.47 68.4163 1124.47 68.419C1124.47 68.4218 1124.47 68.4245 1124.47 68.4272C1124.47 68.43 1124.47 68.4327 1124.47 68.4355C1124.47 68.4382 1124.47 68.441 1124.47 68.4437C1124.47 68.4464 1124.47 68.4492 1124.47 68.4519C1124.47 68.4547 1124.47 68.4574 1124.47 68.4601C1124.47 68.4629 1124.47 68.4656 1124.47 68.4684C1124.47 68.4711 1124.47 68.4738 1124.47 68.4766C1124.47 68.4793 1124.47 68.482 1124.47 68.4848C1124.47 68.4875 1124.47 68.4902 1124.47 68.493C1124.47 68.4957 1124.47 68.4984 1124.47 68.5012C1124.47 68.5039 1124.47 68.5066 1124.47 68.5093C1124.47 68.5121 1124.47 68.5148 1124.47 68.5175C1124.47 68.5202 1124.47 68.523 1124.47 68.5257C1124.47 68.5284 1124.47 68.5311 1124.47 68.5339C1124.47 68.5366 1124.47 68.5393 1124.47 68.542C1124.47 68.5447 1124.47 68.5475 1124.47 68.5502C1124.47 68.5529 1124.47 68.5556 1124.47 68.5583C1124.47 68.561 1124.47 68.5638 1124.47 68.5665C1124.47 68.5692 1124.47 68.5719 1124.47 68.5746C1124.47 68.5773 1124.47 68.58 1124.47 68.5828C1124.47 68.5855 1124.47 68.5882 1124.47 68.5909C1124.47 68.5936 1124.47 68.5963 1124.47 68.599C1124.47 68.6017 1124.47 68.6044 1124.47 68.6071C1124.47 68.6098 1124.47 68.6125 1124.47 68.6152C1124.47 68.6179 1124.47 68.6206 1124.47 68.6234C1124.47 68.6261 1124.47 68.6288 1124.47 68.6315C1124.47 68.6342 1124.47 68.6368 1124.47 68.6395C1124.47 68.6423 1124.47 68.6449 1124.47 68.6476C1124.47 68.6503 1124.47 68.653 1124.47 68.6557C1124.47 68.6584 1124.47 68.6611 1124.47 68.6638C1124.47 68.6665 1124.47 68.6692 1124.47 68.6719C1124.47 68.6746 1124.47 68.6773 1124.47 68.68C1124.47 68.6826 1124.47 68.6853 1124.47 68.688C1124.47 68.6907 1124.47 68.6934 1124.47 68.6961C1124.47 68.6988 1124.47 68.7014 1124.47 68.7041C1124.47 68.7068 1124.47 68.7095 1124.47 68.7122C1124.47 68.7149 1124.47 68.7175 1124.47 68.7202C1124.47 68.7229 1124.47 68.7256 1124.47 68.7283C1124.47 68.7309 1124.47 68.7336 1124.47 68.7363C1124.47 68.739 1124.47 68.7416 1124.47 68.7443C1124.47 68.747 1124.47 68.7497 1124.47 68.7523C1124.47 68.755 1124.47 68.7577 1124.47 68.7604C1124.47 68.763 1124.47 68.7657 1124.47 68.7684C1124.47 68.771 1124.47 68.7737 1124.47 68.7764C1124.47 68.779 1124.47 68.7817 1124.47 68.7844C1124.47 68.787 1124.47 68.7897 1124.47 68.7924C1124.47 68.795 1124.47 68.7977 1124.47 68.8004C1124.47 68.803 1124.47 68.8057 1124.47 68.8083C1124.47 68.811 1124.47 68.8137 1124.47 68.8163C1124.47 68.819 1124.47 68.8216 1124.47 68.8243C1124.47 68.827 1124.47 68.8296 1124.47 68.8323C1124.47 68.8349 1124.47 68.8376 1124.47 68.8402C1124.47 68.8429 1124.47 68.8455 1124.47 68.8482C1124.47 68.8508 1124.47 68.8535 1124.47 68.8561C1124.47 68.8588 1124.47 68.8614 1124.47 68.8641C1124.47 68.8667 1124.47 68.8694 1124.47 68.872C1124.47 68.8747 1124.47 68.8773 1124.47 68.8799C1124.47 68.8826 1124.47 68.8852 1124.47 68.8879C1124.47 68.8905 1124.47 68.8932 1124.47 68.8958C1124.47 68.8984 1124.47 68.9011 1124.47 68.9037C1124.47 68.9063 1124.47 68.909 1124.47 68.9116C1124.47 68.9143 1124.47 68.9169 1124.47 68.9195C1124.47 68.9222 1124.47 68.9248 1124.47 68.9274C1124.47 68.9301 1124.47 68.9327 1124.47 68.9353C1124.47 68.938 1124.47 68.9406 1124.47 68.9432C1124.47 68.9458 1124.47 68.9485 1124.47 68.9511C1124.47 68.9537 1124.47 68.9564 1124.47 68.959C1124.47 68.9616 1124.47 68.9642 1124.47 68.9669C1124.47 68.9695 1124.47 68.9721 1124.47 68.9747C1124.47 68.9773 1124.47 68.98 1124.47 68.9826C1124.47 68.9852 1124.47 68.9878 1124.47 68.9904C1124.47 68.9931 1124.47 68.9957 1124.47 68.9983C1124.47 69.0009 1124.47 69.0035 1124.47 69.0061C1124.47 69.0088 1124.47 69.0114 1124.47 69.014C1124.47 69.0166 1124.47 69.0192 1124.47 69.0218C1124.47 69.0244 1124.47 69.027 1124.47 69.0297C1124.47 69.0323 1124.47 69.0349 1124.47 69.0375C1124.47 69.0401 1124.47 69.0427 1124.47 69.0453C1124.47 69.0479 1124.47 69.0505 1124.47 69.0531C1124.47 69.0557 1124.47 69.0583 1124.47 69.0609C1124.47 69.0635 1124.47 69.0661 1124.47 69.0687C1124.47 69.0713 1124.47 69.0739 1124.47 69.0765C1124.47 69.0791 1124.47 69.0817 1124.47 69.0843C1124.47 69.0869 1124.47 69.0895 1124.47 69.0921C1124.47 69.0947 1124.47 69.0973 1124.47 69.0999C1124.47 69.1025 1124.47 69.1051 1124.47 69.1077C1124.47 69.1103 1124.47 69.1128 1124.47 69.1154C1124.47 69.118 1124.47 69.1206 1124.47 69.1232C1124.47 69.1258 1124.47 69.1284 1124.47 69.131C1124.47 69.1335 1124.47 69.1361 1124.47 69.1387C1124.47 69.1413 1124.47 69.1439 1124.47 69.1465C1124.47 69.149 1124.47 69.1516 1124.47 69.1542C1124.47 69.1568 1124.47 69.1594 1124.47 69.1619C1124.47 69.1645 1124.47 69.1671 1124.47 69.1697C1124.47 69.1722 1124.47 69.1748 1124.47 69.1774C1124.47 69.18 1124.47 69.1825 1124.47 69.1851C1124.47 69.1877 1124.47 69.1903 1124.47 69.1928C1124.47 69.1954 1124.47 69.198 1124.47 69.2006C1124.47 69.2031 1124.47 69.2057 1124.47 69.2083C1124.47 69.2108 1124.47 69.2134 1124.47 69.216C1124.47 69.2185 1124.47 69.2211 1124.47 69.2236C1124.47 69.2262 1124.47 69.2288 1124.47 69.2313C1124.47 69.2339 1124.47 69.2365 1124.47 69.239C1124.47 69.2416 1124.47 69.2441 1124.47 69.2467C1124.47 69.2493 1124.47 69.2518 1124.47 69.2544C1124.47 69.2569 1124.47 69.2595 1124.47 69.262C1124.47 69.2646 1124.47 69.2672 1124.47 69.2697C1124.47 69.2723 1124.47 69.2748 1124.47 69.2774C1124.47 69.2799 1124.47 69.2825 1124.47 69.285C1124.47 69.2876 1124.47 69.2901 1124.47 69.2927C1124.47 69.2952 1124.47 69.2978 1124.47 69.3003C1124.47 69.3028 1124.47 69.3054 1124.47 69.3079C1124.47 69.3105 1124.47 69.313 1124.47 69.3156C1124.47 69.3181 1124.47 69.3206 1124.47 69.3232C1124.47 69.3257 1124.47 69.3283 1124.47 69.3308C1124.47 69.3333 1124.47 69.3359 1124.47 69.3384C1124.47 69.341 1124.47 69.3435 1124.47 69.346C1124.47 69.3486 1124.47 69.3511 1124.47 69.3536C1124.47 69.3562 1124.47 69.3587 1124.47 69.3612C1124.47 69.3638 1124.47 69.3663 1124.47 69.3688C1124.47 69.3713 1124.47 69.3739 1124.47 69.3764C1124.47 69.3789 1124.47 69.3814 1124.47 69.384C1124.47 69.3865 1124.47 69.389 1124.47 69.3915C1124.47 69.3941 1124.47 69.3966 1124.47 69.3991C1124.47 69.4016 1124.47 69.4042 1124.47 69.4067C1124.47 69.4092 1124.47 69.4117 1124.47 69.4142C1124.47 69.4168 1124.47 69.4193 1124.47 69.4218C1124.47 69.4243 1124.47 69.4268 1124.47 69.4293C1124.47 69.4319 1124.47 69.4344 1124.47 69.4369C1124.47 69.4394 1124.47 69.4419 1124.47 69.4444C1124.47 69.4469 1124.47 69.4494 1124.47 69.452C1124.47 69.4545 1124.47 69.457 1124.47 69.4595C1124.47 69.462 1124.47 69.4645 1124.47 69.467C1124.47 69.4695 1124.47 69.472 1124.47 69.4745C1124.47 69.477 1124.47 69.4795 1124.47 69.482C1124.47 69.4845 1124.47 69.487 1124.47 69.4895C1124.47 69.492 1124.47 69.4945 1124.47 69.497C1124.47 69.4995 1124.47 69.502 1124.47 69.5045C1124.47 69.507 1124.47 69.5095 1124.47 69.512C1124.47 69.5145 1124.47 69.517 1124.47 69.5195C1124.47 69.522 1124.47 69.5245 1124.47 69.527C1124.47 69.5294 1124.47 69.5319 1124.47 69.5344C1124.47 69.5369 1124.47 69.5394 1124.47 69.5419C1124.47 69.5444 1124.47 69.5469 1124.47 69.5494C1124.47 69.5518 1124.47 69.5543 1124.47 69.5568C1124.47 69.5593 1124.47 69.5618 1124.47 69.5643C1124.47 69.5667 1124.47 69.5692 1124.47 69.5717C1124.47 69.5742 1124.47 69.5767 1124.47 69.5791C1124.47 69.5816 1124.47 69.5841 1124.47 69.5866C1124.47 69.5891 1124.47 69.5915 1124.47 69.594C1124.47 69.5965 1124.47 69.599 1124.47 69.6014C1124.47 69.6039 1124.47 69.6064 1124.47 69.6088C1124.47 69.6113 1124.47 69.6138 1124.47 69.6163C1124.47 69.6187 1124.47 69.6212 1124.47 69.6237C1124.47 69.6261 1124.47 69.6286 1124.47 69.6311C1124.47 69.6335 1124.47 69.636 1124.47 69.6385C1124.47 69.6409 1124.47 69.6434 1124.47 69.6458C1124.47 69.6483 1124.47 69.6508 1124.47 69.6532C1124.47 69.6557 1124.47 69.6581 1124.47 69.6606C1124.47 69.6631 1124.47 69.6655 1124.47 69.668C1124.47 69.6704 1124.47 69.6729 1124.47 69.6753C1124.47 69.6778 1124.47 69.6803 1124.47 69.6827C1124.47 69.6852 1124.47 69.6876 1124.47 69.6901C1124.47 69.6925 1124.47 69.695 1124.47 69.6974C1124.47 69.6999 1124.47 69.7023 1124.47 69.7048C1124.47 69.7072 1124.47 69.7097 1124.47 69.7121C1124.47 69.7146 1124.47 69.717 1124.47 69.7194C1124.47 69.7219 1124.47 69.7243 1124.47 69.7268C1124.47 69.7292 1124.47 69.7317 1124.47 69.7341C1124.47 69.7365 1124.47 69.739 1124.47 69.7414C1124.47 69.7439 1124.47 69.7463 1124.47 69.7487C1124.47 69.7512 1124.47 69.7536 1124.47 69.756C1124.47 69.7585 1124.47 69.7609 1124.47 69.7633C1124.47 69.7658 1124.47 69.7682 1124.47 69.7706C1124.47 69.7731 1124.47 69.7755 1124.47 69.7779C1124.47 69.7803 1124.47 69.7828 1124.47 69.7852C1124.47 69.7876 1124.47 69.7901 1124.47 69.7925C1124.47 69.7949 1124.47 69.7973 1124.47 69.7998C1124.47 69.8022 1124.47 69.8046 1124.47 69.807C1124.47 69.8095 1124.47 69.8119 1124.47 69.8143C1124.47 69.8167 1124.47 69.8191 1124.47 69.8216C1124.47 69.824 1124.47 69.8264 1124.47 69.8288C1124.47 69.8312 1124.47 69.8336 1124.47 69.8361C1124.47 69.8385 1124.47 69.8409 1124.47 69.8433C1124.47 69.8457 1124.47 69.8481 1124.47 69.8505C1124.47 69.853 1124.47 69.8554 1124.47 69.8578C1124.47 69.8602 1124.47 69.8626 1124.47 69.865C1124.47 69.8674 1124.47 69.8698 1124.47 69.8722C1124.47 69.8746 1124.47 69.877 1124.47 69.8794C1124.47 69.8818 1124.47 69.8842 1124.47 69.8866C1124.47 69.889 1124.47 69.8914 1124.47 69.8938C1124.47 69.8962 1124.47 69.8986 1124.47 69.901C1124.47 69.9034 1124.47 69.9058 1124.47 69.9082C1124.47 69.9106 1124.47 69.913 1124.47 69.9154C1124.47 69.9178 1124.47 69.9202 1124.47 69.9226C1124.47 69.925 1124.47 69.9274 1124.47 69.9298C1124.47 69.9322 1124.47 69.9346 1124.47 69.937C1124.47 69.9393 1124.47 69.9417 1124.47 69.9441C1124.47 69.9465 1124.47 69.9489 1124.47 69.9513C1124.47 69.9537 1124.47 69.9561 1124.47 69.9584C1124.47 69.9608 1124.47 69.9632 1124.47 69.9656C1124.47 69.968 1124.47 69.9704 1124.47 69.9727C1124.47 69.9751 1124.47 69.9775 1124.47 69.9799C1124.47 69.9822 1124.47 69.9846 1124.47 69.987C1124.47 69.9894 1124.47 69.9918 1124.47 69.9941C1124.47 69.9965 1124.47 69.9989 1124.47 70.0013C1124.47 70.0036 1124.47 70.006 1124.47 70.0084C1124.47 70.0107 1124.47 70.0131 1124.47 70.0155C1124.47 70.0179 1124.47 70.0202 1124.47 70.0226C1124.47 70.025 1124.47 70.0273 1124.47 70.0297C1124.47 70.0321 1124.47 70.0344 1124.47 70.0368C1124.47 70.0391 1124.47 70.0415 1124.47 70.0439C1124.47 70.0462 1124.47 70.0486 1124.47 70.051C1124.47 70.0533 1124.47 70.0557 1124.47 70.058C1124.47 70.0604 1124.47 70.0628 1124.47 70.0651C1124.47 70.0675 1124.47 70.0698 1124.47 70.0722C1124.47 70.0745 1124.47 70.0769 1124.47 70.0792C1124.47 70.0816 1124.47 70.0839 1124.47 70.0863C1124.47 70.0886 1124.47 70.091 1124.47 70.0933C1124.47 70.0957 1124.47 70.098 1124.47 70.1004C1124.47 70.1027 1124.47 70.1051 1124.47 70.1074C1124.47 70.1098 1124.47 70.1121 1124.47 70.1145C1124.47 70.1168 1124.47 70.1192 1124.47 70.1215C1124.47 70.1238 1124.47 70.1262 1124.47 70.1285C1124.47 70.1309 1124.47 70.1332 1124.47 70.1355C1124.47 70.1379 1124.47 70.1402 1124.47 70.1426C1124.47 70.1449 1124.47 70.1472 1124.47 70.1496C1124.47 70.1519 1124.47 70.1542 1124.47 70.1566C1124.47 70.1589 1124.47 70.1612 1124.47 70.1636C1124.47 70.1659 1124.47 70.1682 1124.47 70.1706C1124.47 70.1729 1124.47 70.1752 1124.47 70.1775C1124.47 70.1799 1124.47 70.1822 1124.47 70.1845C1124.47 70.1869 1124.47 70.1892 1124.47 70.1915C1124.47 70.1938 1124.47 70.1961 1124.47 70.1985C1124.47 70.2008 1124.47 70.2031 1124.47 70.2054C1124.47 70.2078 1124.47 70.2101 1124.47 70.2124C1124.47 70.2147 1124.47 70.217 1124.47 70.2193C1124.47 70.2217 1124.47 70.224 1124.47 70.2263C1124.47 70.2286 1124.47 70.2309 1124.47 70.2332C1124.47 70.2355 1124.47 70.2379 1124.47 70.2402C1124.47 70.2425 1124.47 70.2448 1124.47 70.2471C1124.47 70.2494 1124.47 70.2517 1124.47 70.254C1124.47 70.2563 1124.47 70.2586 1124.47 70.261C1124.47 70.2633 1124.47 70.2656 1124.47 70.2679C1124.47 70.2702 1124.47 70.2725 1124.47 70.2748C1124.47 70.2771 1124.47 70.2794 1124.47 70.2817C1124.47 70.284 1124.47 70.2863 1124.47 70.2886C1124.47 70.2909 1124.47 70.2932 1124.47 70.2955C1124.47 70.2978 1124.47 70.3001 1124.47 70.3024C1124.47 70.3047 1124.47 70.307 1124.47 70.3092C1124.47 70.3115 1124.47 70.3138 1124.47 70.3161C1124.47 70.3184 1124.47 70.3207 1124.47 70.323C1124.47 70.3253 1124.47 70.3276 1124.47 70.3299C1124.47 70.3322 1124.47 70.3344 1124.47 70.3367C1124.47 70.339 1124.47 70.3413 1124.47 70.3436C1124.47 70.3459 1124.47 70.3481 1124.47 70.3504C1124.47 70.3527 1124.47 70.355 1124.47 70.3573C1124.47 70.3596 1124.47 70.3618 1124.47 70.3641C1124.47 70.3664 1124.47 70.3687 1124.47 70.3709C1124.47 70.3732 1124.47 70.3755 1124.47 70.3778C1124.47 70.3801 1124.47 70.3823 1124.47 70.3846C1124.47 70.3869 1124.47 70.3891 1124.47 70.3914C1124.47 70.3937 1124.47 70.396 1124.47 70.3982C1124.47 70.4005 1124.47 70.4028 1124.47 70.405C1124.47 70.4073 1124.47 70.4096 1124.47 70.4118C1124.47 70.4141 1124.47 70.4164 1124.47 70.4186C1124.47 70.4209 1124.47 70.4232 1124.47 70.4254C1124.47 70.4277 1124.47 70.4299 1124.47 70.4322C1124.47 70.4345 1124.47 70.4367 1124.47 70.439C1124.47 70.4412 1124.47 70.4435 1124.47 70.4458C1124.47 70.448 1124.47 70.4503 1124.47 70.4525C1124.47 70.4548 1124.47 70.457 1124.47 70.4593C1124.47 70.4615 1124.47 70.4638 1124.47 70.466C1124.47 70.4683 1124.47 70.4706 1124.47 70.4728C1124.47 70.4751 1124.47 70.4773 1124.47 70.4795C1124.47 70.4818 1124.47 70.484 1124.47 70.4863C1124.47 70.4885 1124.47 70.4908 1124.47 70.493C1124.47 70.4953 1124.47 70.4975 1124.47 70.4998C1124.47 70.502 1124.47 70.5042 1124.47 70.5065C1124.47 70.5087 1124.47 70.511 1124.47 70.5132C1124.47 70.5154 1124.47 70.5177 1124.47 70.5199C1124.47 70.5221 1124.47 70.5244 1124.47 70.5266C1124.47 70.5289 1124.47 70.5311 1124.47 70.5333C1124.47 70.5356 1124.47 70.5378 1124.47 70.54C1124.47 70.5423 1124.47 70.5445 1124.47 70.5467C1124.47 70.5489 1124.47 70.5512 1124.47 70.5534C1124.47 70.5556 1124.47 70.5579 1124.47 70.5601C1124.47 70.5623 1124.47 70.5645 1124.47 70.5668C1124.47 70.569 1124.47 70.5712 1124.47 70.5734C1124.47 70.5757 1124.47 70.5779 1124.47 70.5801C1124.47 70.5823 1124.47 70.5845 1124.47 70.5868C1124.47 70.589 1124.47 70.5912 1124.47 70.5934C1124.47 70.5956 1124.47 70.5978 1124.47 70.6001C1124.47 70.6023 1124.47 70.6045 1124.47 70.6067C1124.47 70.6089 1124.47 70.6111 1124.47 70.6133C1124.47 70.6155 1124.47 70.6178 1124.47 70.62C1124.47 70.6222 1124.47 70.6244 1124.47 70.6266C1124.47 70.6288 1124.47 70.631 1124.47 70.6332C1124.47 70.6354 1124.47 70.6376 1124.47 70.6398C1124.47 70.642 1124.47 70.6442 1124.47 70.6464C1124.47 70.6486 1124.47 70.6508 1124.47 70.653C1124.47 70.6552 1124.47 70.6574 1124.47 70.6596C1124.47 70.6618 1124.47 70.664 1124.47 70.6662C1124.47 70.6684 1124.47 70.6706 1124.47 70.6728C1124.47 70.675 1124.47 70.6772 1124.47 70.6794C1124.47 70.6816 1124.47 70.6838 1124.47 70.686C1124.47 70.6882 1124.47 70.6904 1124.47 70.6926C1124.47 70.6947 1124.47 70.6969 1124.47 70.6991C1124.47 70.7013 1124.47 70.7035 1124.47 70.7057C1124.47 70.7079 1124.47 70.7101 1124.47 70.7122C1124.47 70.7144 1124.47 70.7166 1124.47 70.7188C1124.47 70.721 1124.47 70.7232 1124.47 70.7253C1124.47 70.7275 1124.47 70.7297 1124.47 70.7319C1124.47 70.7341 1124.47 70.7362 1124.47 70.7384C1124.47 70.7406 1124.47 70.7428 1124.47 70.7449C1124.47 70.7471 1124.47 70.7493 1124.47 70.7515C1124.47 70.7536 1124.47 70.7558 1124.47 70.758C1124.47 70.7602 1124.47 70.7623 1124.47 70.7645C1124.47 70.7667 1124.47 70.7688 1124.47 70.771C1124.47 70.7732 1124.47 70.7753 1124.47 70.7775C1124.47 70.7797 1124.47 70.7818 1124.47 70.784C1124.47 70.7862 1124.47 70.7883 1124.47 70.7905C1124.47 70.7927 1124.47 70.7948 1124.47 70.797C1124.47 70.7991 1124.47 70.8013 1124.47 70.8035C1124.47 70.8056 1124.47 70.8078 1124.47 70.8099C1124.47 70.8121 1124.47 70.8142 1124.47 70.8164C1124.47 70.8186 1124.47 70.8207 1124.47 70.8229C1124.47 70.825 1124.47 70.8272 1124.47 70.8293C1124.47 70.8315 1124.47 70.8336 1124.47 70.8358C1124.47 70.8379 1124.47 70.8401 1124.47 70.8422C1124.47 70.8444 1124.47 70.8465 1124.47 70.8487C1124.47 70.8508 1124.47 70.853 1124.47 70.8551C1124.47 70.8572 1124.47 70.8594 1124.47 70.8615C1124.47 70.8637 1124.47 70.8658 1124.47 70.868C1124.47 70.8701 1124.47 70.8722 1124.47 70.8744C1124.47 70.8765 1124.47 70.8786 1124.47 70.8808C1124.47 70.8829 1124.47 70.8851 1124.47 70.8872C1124.47 70.8893 1124.47 70.8915 1124.47 70.8936C1124.47 70.8957 1124.47 70.8979 1124.47 70.9C1124.47 70.9021 1124.47 70.9043 1124.47 70.9064C1124.47 70.9085 1124.47 70.9107 1124.47 70.9128C1124.47 70.9149 1124.47 70.917 1124.47 70.9192C1124.47 70.9213 1124.47 70.9234 1124.47 70.9255C1124.47 70.9277 1124.47 70.9298 1124.47 70.9319C1124.47 70.934 1124.47 70.9361 1124.47 70.9383C1124.47 70.9404 1124.47 70.9425 1124.47 70.9446C1124.47 70.9467 1124.47 70.9489 1124.47 70.951C1124.47 70.9531 1124.47 70.9552 1124.47 70.9573C1124.47 70.9594 1124.47 70.9616 1124.47 70.9637C1124.47 70.9658 1124.47 70.9679 1124.47 70.97C1124.47 70.9721 1124.47 70.9742 1124.47 70.9763C1124.47 70.9785 1124.47 70.9806 1124.47 70.9827C1124.47 70.9848 1124.47 70.9869 1124.47 70.989C1124.47 70.9911 1124.47 70.9932 1124.47 70.9953C1124.47 70.9974 1124.47 70.9995 1124.47 71.0016C1124.47 71.0037 1124.47 71.0058 1124.47 71.0079C1124.47 71.01 1124.47 71.0121 1124.47 71.0142C1124.47 71.0163 1124.47 71.0184 1124.47 71.0205C1124.47 71.0226 1124.47 71.0247 1124.47 71.0268C1124.47 71.0289 1124.47 71.031 1124.47 71.0331C1124.47 71.0352 1124.47 71.0373 1124.47 71.0394C1124.47 71.0415 1124.47 71.0436 1124.47 71.0456C1124.47 71.0477 1124.47 71.0498 1124.47 71.0519C1124.47 71.054 1124.47 71.0561 1124.47 71.0582C1124.47 71.0603 1124.47 71.0623 1124.47 71.0644C1124.47 71.0665 1124.47 71.0686 1124.47 71.0707C1124.47 71.0728 1124.47 71.0748 1124.47 71.0769C1124.47 71.079 1124.47 71.0811 1124.47 71.0832C1124.47 71.0853 1124.47 71.0873 1124.47 71.0894C1124.47 71.0915 1124.47 71.0936 1124.47 71.0956C1124.47 71.0977 1124.47 71.0998 1124.47 71.1019C1124.47 71.1039 1124.47 71.106 1124.47 71.1081C1124.47 71.1101 1124.47 71.1122 1124.47 71.1143C1124.47 71.1164 1124.47 71.1184 1124.47 71.1205C1124.47 71.1226 1124.47 71.1246 1124.47 71.1267C1124.47 71.1288 1124.47 71.1308 1124.47 71.1329C1124.47 71.135 1124.47 71.137 1124.47 71.1391C1124.47 71.1411 1124.47 71.1432 1124.47 71.1453C1124.47 71.1473 1124.47 71.1494 1124.47 71.1515C1124.47 71.1535 1124.47 71.1556 1124.47 71.1576C1124.47 71.1597 1124.47 71.1617 1124.47 71.1638C1124.47 71.1658 1124.47 71.1679 1124.47 71.17C1124.47 71.172 1124.47 71.1741 1124.47 71.1761C1124.47 71.1782 1124.47 71.1802 1124.47 71.1823C1124.47 71.1843 1124.47 71.1864 1124.47 71.1884C1124.47 71.1905 1124.47 71.1925 1124.47 71.1946C1124.47 71.1966 1124.47 71.1986 1124.47 71.2007C1124.47 71.2027 1124.47 71.2048 1124.47 71.2068C1124.47 71.2089 1124.47 71.2109 1124.47 71.213C1124.47 71.215 1124.47 71.217 1124.47 71.2191C1124.47 71.2211 1124.47 71.2231 1124.47 71.2252C1124.47 71.2272 1124.47 71.2293 1124.47 71.2313C1124.47 71.2333 1124.47 71.2354 1124.47 71.2374C1124.47 71.2394 1124.47 71.2415 1124.47 71.2435C1124.47 71.2455 1124.47 71.2476 1124.47 71.2496C1124.47 71.2516 1124.47 71.2536 1124.47 71.2557C1124.47 71.2577 1124.47 71.2597 1124.47 71.2618C1124.47 71.2638 1124.47 71.2658 1124.47 71.2678C1124.47 71.2699 1124.47 71.2719 1124.47 71.2739C1124.47 71.2759 1124.47 71.278 1124.47 71.28C1124.47 71.282 1124.47 71.284 1124.47 71.286C1124.47 71.288 1124.47 71.2901 1124.47 71.2921C1124.47 71.2941 1124.47 71.2961 1124.47 71.2981C1124.47 71.3002 1124.47 71.3022 1124.47 71.3042C1124.47 71.3062 1124.47 71.3082 1124.47 71.3102C1124.47 71.3122 1124.47 71.3142 1124.47 71.3163C1124.47 71.3183 1124.47 71.3203 1124.47 71.3223C1124.47 71.3243 1124.47 71.3263 1124.47 71.3283C1124.47 71.3303 1124.47 71.3323 1124.47 71.3343C1124.47 71.3363 1124.47 71.3383 1124.47 71.3403C1124.47 71.3423 1124.47 71.3443 1124.47 71.3463C1124.47 71.3483 1124.47 71.3503 1124.47 71.3523C1124.47 71.3543 1124.47 71.3563 1124.47 71.3583C1124.47 71.3603 1124.47 71.3623 1124.47 71.3643C1124.47 71.3663 1124.47 71.3683 1124.47 71.3703C1124.47 71.3723 1124.47 71.3743 1124.47 71.3763C1124.47 71.3783 1124.47 71.3803 1124.47 71.3823C1124.47 71.3842 1124.47 71.3862 1124.47 71.3882C1124.47 71.3902 1124.47 71.3922 1124.47 71.3942C1124.47 71.3962 1124.47 71.3982 1124.47 71.4001C1124.47 71.4021 1124.47 71.4041 1124.47 71.4061C1124.47 71.4081 1124.47 71.4101 1124.47 71.412C1124.47 71.414 1124.47 71.416 1124.47 71.418C1124.47 71.42 1124.47 71.4219 1124.47 71.4239C1124.47 71.4259 1124.47 71.4279 1124.47 71.4298C1124.47 71.4318 1124.47 71.4338 1124.47 71.4358C1124.47 71.4377 1124.47 71.4397 1124.47 71.4417C1124.47 71.4437 1124.47 71.4456 1124.47 71.4476C1124.47 71.4496 1124.47 71.4515 1124.47 71.4535C1124.47 71.4555 1124.47 71.4574 1124.47 71.4594C1124.47 71.4614 1124.47 71.4633 1124.47 71.4653C1124.47 71.4673 1124.47 71.4692 1124.47 71.4712C1124.47 71.4732 1124.47 71.4751 1124.47 71.4771C1124.47 71.479 1124.47 71.481 1124.47 71.483C1124.47 71.4849 1124.47 71.4869 1124.47 71.4888C1124.47 71.4908 1124.47 71.4928 1124.47 71.4947C1124.47 71.4967 1124.47 71.4986 1124.47 71.5006C1124.47 71.5025 1124.47 71.5045 1124.47 71.5064C1124.47 71.5084 1124.47 71.5103 1124.47 71.5123C1124.47 71.5142 1124.47 71.5162 1124.47 71.5181C1124.47 71.5201 1124.47 71.522 1124.47 71.524C1124.47 71.5259 1124.47 71.5279 1124.47 71.5298C1124.47 71.5318 1124.47 71.5337 1124.47 71.5356C1124.47 71.5376 1124.47 71.5395 1124.47 71.5415C1124.47 71.5434 1124.47 71.5453 1124.47 71.5473C1124.47 71.5492 1124.47 71.5512 1124.47 71.5531C1124.47 71.555 1124.47 71.557 1124.47 71.5589C1124.47 71.5609 1124.47 71.5628 1124.47 71.5647C1124.47 71.5667 1124.47 71.5686 1124.47 71.5705C1124.47 71.5724 1124.47 71.5744 1124.47 71.5763C1124.47 71.5782 1124.47 71.5802 1124.47 71.5821C1124.47 71.584 1124.47 71.586 1124.47 71.5879C1124.47 71.5898 1124.47 71.5917 1124.47 71.5937C1124.47 71.5956 1124.47 71.5975 1124.47 71.5994C1124.47 71.6013 1124.47 71.6033 1124.47 71.6052C1124.47 71.6071 1124.47 71.609 1124.47 71.611C1124.47 71.6129 1124.47 71.6148 1124.47 71.6167C1124.47 71.6186 1124.47 71.6205 1124.47 71.6225C1124.47 71.6244 1124.47 71.6263 1124.47 71.6282C1124.47 71.6301 1124.47 71.632 1124.47 71.6339C1124.47 71.6359 1124.47 71.6378 1124.47 71.6397C1124.47 71.6416 1124.47 71.6435 1124.47 71.6454C1124.47 71.6473 1124.47 71.6492 1124.47 71.6511C1124.47 71.653 1124.47 71.6549 1124.47 71.6568C1124.47 71.6588 1124.47 71.6607 1124.47 71.6626C1124.47 71.6645 1124.47 71.6664 1124.47 71.6683C1124.47 71.6702 1124.47 71.6721 1124.47 71.674C1124.47 71.6759 1124.47 71.6778 1124.47 71.6797C1124.47 71.6816 1124.47 71.6834 1124.47 71.6853C1124.47 71.6872 1124.47 71.6891 1124.47 71.691C1124.47 71.6929 1124.47 71.6948 1124.47 71.6967C1124.47 71.6986 1124.47 71.7005 1124.47 71.7024C1124.47 71.7043 1124.47 71.7062 1124.47 71.7081C1124.47 71.7099 1124.47 71.7118 1124.47 71.7137C1124.47 71.7156 1124.47 71.7175 1124.47 71.7194C1124.47 71.7213 1124.47 71.7231 1124.47 71.725C1124.47 71.7269 1124.47 71.7288 1124.47 71.7307C1124.47 71.7326 1124.47 71.7344 1124.47 71.7363C1124.47 71.7382 1124.47 71.7401 1124.47 71.7419C1124.47 71.7438 1124.47 71.7457 1124.47 71.7476C1124.47 71.7495 1124.47 71.7513 1124.47 71.7532C1124.47 71.7551 1124.47 71.757 1124.47 71.7588C1124.47 71.7607 1124.47 71.7626 1124.47 71.7644C1124.47 71.7663 1124.47 71.7682 1124.47 71.77C1124.47 71.7719 1124.47 71.7738 1124.47 71.7756C1124.47 71.7775 1124.47 71.7794 1124.47 71.7812C1124.47 71.7831 1124.47 71.785 1124.47 71.7868C1124.47 71.7887 1124.47 71.7906 1124.47 71.7924C1124.47 71.7943 1124.47 71.7961 1124.47 71.798H1126.47ZM1126.47 68.228V57.008H1124.47V68.228H1126.47ZM1126.47 57.008C1126.47 53.6193 1125.89 50.9647 1124.5 49.3223L1122.97 50.6176C1123.89 51.6953 1124.47 53.7327 1124.47 57.008H1126.47ZM1124.5 49.3223C1123.08 47.6531 1120.87 46.93 1118.13 46.93V48.93C1120.55 48.93 1122.08 49.5669 1122.97 50.6176L1124.5 49.3223ZM1118.13 46.93H1114.25V48.93H1118.13V46.93ZM1113.25 47.93V77H1115.25V47.93H1113.25ZM1114.25 76H1103.03V78H1114.25V76ZM1104.03 77V5.6H1102.03V77H1104.03ZM1103.03 6.6H1119.96V4.6H1103.03V6.6ZM1119.96 6.6C1125.69 6.6 1129.57 7.93497 1131.88 10.3687L1133.33 8.99125C1130.48 5.98502 1125.93 4.6 1119.96 4.6V6.6ZM1131.89 10.3781C1134.3 12.8416 1135.59 16.6578 1135.59 22.022H1137.59C1137.59 16.3702 1136.23 11.9584 1133.33 8.9819L1131.89 10.3781ZM1135.59 22.022V27.632H1137.59V22.022H1135.59ZM1135.59 27.632C1135.59 34.7511 1133.24 39.1244 1128.82 41.2118L1129.67 43.0202C1135.04 40.4836 1137.59 35.2009 1137.59 27.632H1135.59ZM1128.87 43.0429C1131.49 44.1048 1133.21 45.8168 1134.12 48.187L1135.99 47.469C1134.86 44.5352 1132.71 42.4392 1129.62 41.1891L1128.87 43.0429ZM1134.14 48.2161C1135.16 50.6436 1135.69 53.6652 1135.69 57.314H1137.69C1137.69 53.4828 1137.13 50.1804 1135.98 47.4399L1134.14 48.2161ZM1135.69 57.314V68.33H1137.69V57.314H1135.69ZM1135.69 68.33C1135.69 70.1222 1135.76 71.7205 1135.9 73.1215L1137.89 72.9225C1137.76 71.6035 1137.69 70.0738 1137.69 68.33H1135.69ZM1135.9 73.1267C1136.05 74.521 1136.41 75.9366 1136.98 77.3714L1138.84 76.6286C1138.33 75.3434 1138.01 74.107 1137.89 72.9173L1135.9 73.1267ZM1137.91 76H1126.49V78H1137.91V76ZM1113.25 15.8V37.73H1115.25V15.8H1113.25ZM1114.25 38.73H1118.64V36.73H1114.25V38.73ZM1118.64 38.73C1120.91 38.73 1122.82 38.1398 1124.22 36.8262L1122.85 35.3698C1121.93 36.2322 1120.57 36.73 1118.64 36.73V38.73ZM1124.2 36.8454C1125.75 35.4661 1126.37 33.1231 1126.37 30.182H1124.37C1124.37 32.9529 1123.76 34.5539 1122.87 35.3506L1124.2 36.8454ZM1126.37 30.182V23.144H1124.37V30.182H1126.37ZM1126.37 23.144C1126.37 20.4806 1125.88 18.3235 1124.71 16.8983L1123.17 18.1697C1123.9 19.0565 1124.37 20.6394 1124.37 23.144H1126.37ZM1124.73 16.9265C1123.6 15.442 1121.82 14.8 1119.66 14.8V16.8C1121.43 16.8 1122.51 17.314 1123.14 18.1414L1124.73 16.9265ZM1119.66 14.8H1114.25V16.8H1119.66V14.8ZM1155.29 35.69H1154.29V36.69H1155.29V35.69ZM1170.69 35.69H1171.69V34.69H1170.69V35.69ZM1170.69 45.89V46.89H1171.69V45.89H1170.69ZM1155.29 45.89V44.89H1154.29V45.89H1155.29ZM1155.29 66.8H1154.29V67.8H1155.29V66.8ZM1174.67 66.8H1175.67V65.8H1174.67V66.8ZM1174.67 77V78H1175.67V77H1174.67ZM1144.07 77H1143.07V78H1144.07V77ZM1144.07 5.6V4.6H1143.07V5.6H1144.07ZM1174.67 5.6H1175.67V4.6H1174.67V5.6ZM1174.67 15.8V16.8H1175.67V15.8H1174.67ZM1155.29 15.8V14.8H1154.29V15.8H1155.29ZM1155.29 36.69H1170.69V34.69H1155.29V36.69ZM1169.69 35.69V45.89H1171.69V35.69H1169.69ZM1170.69 44.89H1155.29V46.89H1170.69V44.89ZM1154.29 45.89V66.8H1156.29V45.89H1154.29ZM1155.29 67.8H1174.67V65.8H1155.29V67.8ZM1173.67 66.8V77H1175.67V66.8H1173.67ZM1174.67 76H1144.07V78H1174.67V76ZM1145.07 77V5.6H1143.07V77H1145.07ZM1144.07 6.6H1174.67V4.6H1144.07V6.6ZM1173.67 5.6V15.8H1175.67V5.6H1173.67ZM1174.67 14.8H1155.29V16.8H1174.67V14.8ZM1154.29 15.8V35.69H1156.29V15.8H1154.29Z" fill="white"/>
<rect x="502" y="37" width="442" height="4" fill="white" fill-opacity="0.3"/>
</svg>
