<svg width="492" height="280" viewBox="0 0 492 280" fill="none" xmlns="http://www.w3.org/2000/svg">
<g filter="url(#filter0_d)">
<path d="M52.5898 218.9H62.9898V228.2C62.9898 233.867 61.5898 238.233 58.7898 241.3C55.9898 244.3 51.9232 245.8 46.5898 245.8C41.2565 245.8 37.1898 244.3 34.3898 241.3C31.5898 238.233 30.1898 233.867 30.1898 228.2L30.1898 191.8C30.1898 186.133 31.5898 181.8 34.3898 178.8C37.1898 175.733 41.2565 174.2 46.5898 174.2C51.9232 174.2 55.9898 175.733 58.7898 178.8C61.5898 181.8 62.9898 186.133 62.9898 191.8V198.6H52.5898V191.1C52.5898 186.5 50.6898 184.2 46.8898 184.2C43.0898 184.2 41.1898 186.5 41.1898 191.1V228.9C41.1898 233.433 43.0898 235.7 46.8898 235.7C50.6898 235.7 52.5898 233.433 52.5898 228.9V218.9ZM82.7641 191.1V228.9C82.7641 233.5 84.6641 235.8 88.4641 235.8C92.2641 235.8 94.1641 233.5 94.1641 228.9V191.1C94.1641 186.5 92.2641 184.2 88.4641 184.2C84.6641 184.2 82.7641 186.5 82.7641 191.1ZM71.7641 228.2V191.8C71.7641 186.2 73.1974 181.867 76.0641 178.8C78.9307 175.733 83.0641 174.2 88.4641 174.2C93.8641 174.2 97.9974 175.733 100.864 178.8C103.731 181.867 105.164 186.2 105.164 191.8V228.2C105.164 233.8 103.731 238.133 100.864 241.2C97.9974 244.267 93.8641 245.8 88.4641 245.8C83.0641 245.8 78.9307 244.267 76.0641 241.2C73.1974 238.133 71.7641 233.8 71.7641 228.2ZM130.513 175L138.613 224.7L146.113 175H161.413V245H151.013V194.8L143.413 245H133.013L124.813 195.5V245H115.213V175H130.513ZM172.414 245V175H183.414V245H172.414ZM217.957 245L204.257 194.3V245H194.357V175H208.157L219.457 216.9V175H229.257V245H217.957ZM256.633 216V206H272.033V228.2C272.033 233.867 270.633 238.233 267.833 241.3C265.033 244.3 260.966 245.8 255.633 245.8C250.299 245.8 246.233 244.3 243.433 241.3C240.633 238.233 239.233 233.867 239.233 228.2V191.8C239.233 186.133 240.633 181.8 243.433 178.8C246.233 175.733 250.299 174.2 255.633 174.2C260.966 174.2 265.033 175.733 267.833 178.8C270.633 181.8 272.033 186.133 272.033 191.8V198.6H261.633V191.1C261.633 186.5 259.733 184.2 255.933 184.2C252.133 184.2 250.233 186.5 250.233 191.1V228.9C250.233 233.433 252.133 235.7 255.933 235.7C259.733 235.7 261.633 233.433 261.633 228.9V216H256.633ZM299.225 191.8C299.225 186.133 300.592 181.8 303.325 178.8C306.058 175.733 310.092 174.2 315.425 174.2C320.758 174.2 324.792 175.733 327.525 178.8C330.258 181.8 331.625 186.133 331.625 191.8V194H321.225V191.1C321.225 186.5 319.392 184.2 315.725 184.2C312.058 184.2 310.225 186.5 310.225 191.1C310.225 193.033 310.625 194.867 311.425 196.6C312.225 198.333 313.258 199.9 314.525 201.3C315.792 202.7 317.192 204.1 318.725 205.5C320.258 206.833 321.758 208.267 323.225 209.8C324.758 211.267 326.158 212.867 327.425 214.6C328.692 216.267 329.725 218.267 330.525 220.6C331.325 222.933 331.725 225.467 331.725 228.2C331.725 233.867 330.325 238.233 327.525 241.3C324.725 244.3 320.658 245.8 315.325 245.8C309.992 245.8 305.925 244.3 303.125 241.3C300.325 238.233 298.925 233.867 298.925 228.2V223.9H309.325V228.9C309.325 233.433 311.225 235.7 315.025 235.7C318.825 235.7 320.725 233.433 320.725 228.9C320.725 226.3 319.992 223.867 318.525 221.6C317.058 219.267 315.258 217.167 313.125 215.3C311.058 213.433 308.958 211.5 306.825 209.5C304.692 207.433 302.892 204.9 301.425 201.9C299.958 198.833 299.225 195.467 299.225 191.8ZM351.127 191.1V228.9C351.127 233.5 353.027 235.8 356.827 235.8C360.627 235.8 362.527 233.5 362.527 228.9V191.1C362.527 186.5 360.627 184.2 356.827 184.2C353.027 184.2 351.127 186.5 351.127 191.1ZM340.127 228.2V191.8C340.127 186.2 341.561 181.867 344.427 178.8C347.294 175.733 351.427 174.2 356.827 174.2C362.227 174.2 366.361 175.733 369.227 178.8C372.094 181.867 373.527 186.2 373.527 191.8V228.2C373.527 233.8 372.094 238.133 369.227 241.2C366.361 244.267 362.227 245.8 356.827 245.8C351.427 245.8 347.294 244.267 344.427 241.2C341.561 238.133 340.127 233.8 340.127 228.2ZM393.776 191.1V228.9C393.776 233.5 395.676 235.8 399.476 235.8C403.276 235.8 405.176 233.5 405.176 228.9V191.1C405.176 186.5 403.276 184.2 399.476 184.2C395.676 184.2 393.776 186.5 393.776 191.1ZM382.776 228.2V191.8C382.776 186.2 384.209 181.867 387.076 178.8C389.942 175.733 394.076 174.2 399.476 174.2C404.876 174.2 409.009 175.733 411.876 178.8C414.742 181.867 416.176 186.2 416.176 191.8V228.2C416.176 233.8 414.742 238.133 411.876 241.2C409.009 244.267 404.876 245.8 399.476 245.8C394.076 245.8 389.942 244.267 387.076 241.2C384.209 238.133 382.776 233.8 382.776 228.2ZM449.824 245L436.124 194.3V245H426.224V175H440.024L451.324 216.9V175H461.124V245H449.824Z" fill="white" fill-opacity="0.2"/>
</g>
<g clip-path="url(#clip0)">
<path d="M285.375 52.5H281V35C281 15.6975 265.303 0 246 0C226.698 0 211 15.6975 211 35V52.5H206.625C199.392 52.5 193.5 58.3858 193.5 65.625V126.875C193.5 134.114 199.392 140 206.625 140H285.375C292.608 140 298.5 134.114 298.5 126.875V65.625C298.5 58.3858 292.608 52.5 285.375 52.5ZM222.667 35C222.667 22.1317 233.132 11.6667 246 11.6667C258.868 11.6667 269.333 22.1317 269.333 35V52.5H222.667V35ZM251.833 97.545V110.833C251.833 114.053 249.226 116.667 246 116.667C242.774 116.667 240.167 114.053 240.167 110.833V97.545C236.696 95.5208 234.333 91.7992 234.333 87.5C234.333 81.0658 239.566 75.8333 246 75.8333C252.434 75.8333 257.667 81.0658 257.667 87.5C257.667 91.7992 255.304 95.5208 251.833 97.545Z" fill="white" fill-opacity="0.2"/>
</g>
<defs>
<filter id="filter0_d" x="0.189941" y="148.2" width="490.934" height="131.6" filterUnits="userSpaceOnUse" color-interpolation-filters="sRGB">
<feFlood flood-opacity="0" result="BackgroundImageFix"/>
<feColorMatrix in="SourceAlpha" type="matrix" values="0 0 0 0 0 0 0 0 0 0 0 0 0 0 0 0 0 0 127 0"/>
<feOffset dy="4"/>
<feGaussianBlur stdDeviation="15"/>
<feColorMatrix type="matrix" values="0 0 0 0 0 0 0 0 0 0 0 0 0 0 0 0 0 0 0.3 0"/>
<feBlend mode="normal" in2="BackgroundImageFix" result="effect1_dropShadow"/>
<feBlend mode="normal" in="SourceGraphic" in2="effect1_dropShadow" result="shape"/>
</filter>
<clipPath id="clip0">
<rect width="140" height="140" fill="white" transform="translate(176)"/>
</clipPath>
</defs>
</svg>
