<svg width="18" height="18" viewBox="0 0 18 18" fill="none" xmlns="http://www.w3.org/2000/svg">
<path d="M16.418 2.14453H1.58207C1.33855 2.14453 1.11056 2.2044 0.904297 2.30309L8.96489 10.3637L10.7715 8.62741C10.7715 8.62741 10.7717 8.62724 10.7717 8.62717C10.7717 8.6271 10.7719 8.62703 10.7719 8.62703L17.096 2.30323C16.8897 2.20447 16.6616 2.14453 16.418 2.14453Z" fill="#424F61"/>
<path d="M17.842 3.04904L11.8906 9.00008L17.8418 14.9512C17.9405 14.745 18.0003 14.517 18.0003 14.2734V3.72657C18.0003 3.48319 17.9406 3.25523 17.842 3.04904Z" fill="#424F61"/>
<path d="M0.158555 3.04878C0.0598711 3.25504 0 3.48303 0 3.72656V14.2734C0 14.5168 0.0598008 14.7448 0.158414 14.951L6.10977 9L0.158555 3.04878Z" fill="#424F61"/>
<path d="M11.1429 9.74577L9.33605 11.4822C9.23304 11.5852 9.09811 11.6368 8.96321 11.6368C8.82832 11.6368 8.69336 11.5852 8.59038 11.4822L6.8538 9.7457L0.902344 15.6968C1.10864 15.7955 1.33677 15.8555 1.58037 15.8555H16.4163C16.6598 15.8555 16.8878 15.7956 17.0941 15.6969L11.1429 9.74577Z" fill="#424F61"/>
</svg>
