<svg width="16" height="16" viewBox="0 0 16 16" fill="none" xmlns="http://www.w3.org/2000/svg">
<g clip-path="url(#clip0)">
<path d="M14.5947 1.90625H1.40716C1.19069 1.90625 0.988031 1.95947 0.804688 2.04719L7.96966 9.21216L9.57556 7.66881C9.57556 7.66881 9.57569 7.66866 9.57572 7.66859C9.57575 7.66853 9.57587 7.66847 9.57587 7.66847L15.1973 2.04731C15.014 1.95953 14.8112 1.90625 14.5947 1.90625Z" fill="white"/>
<path d="M15.8585 2.71024L10.5684 8.00005L15.8583 13.29C15.946 13.1066 15.9992 12.904 15.9992 12.6875V3.31249C15.9992 3.09614 15.9461 2.89352 15.8585 2.71024Z" fill="white"/>
<path d="M0.140938 2.71002C0.0532188 2.89337 0 3.09602 0 3.31249V12.6875C0 12.9038 0.0531562 13.1065 0.140813 13.2898L5.43091 7.99999L0.140938 2.71002Z" fill="white"/>
<path d="M9.90549 8.6629L8.29936 10.2064C8.2078 10.298 8.08786 10.3438 7.96795 10.3438C7.84805 10.3438 7.72808 10.298 7.63655 10.2064L6.09292 8.66284L0.802734 13.9527C0.986109 14.0405 1.18889 14.0937 1.40542 14.0937H14.5929C14.8094 14.0937 15.012 14.0405 15.1954 13.9528L9.90549 8.6629Z" fill="white"/>
</g>
<defs>
<clipPath id="clip0">
<rect width="16" height="16" fill="white"/>
</clipPath>
</defs>
</svg>
