<svg width="47" height="47" viewBox="0 0 47 47" fill="none" xmlns="http://www.w3.org/2000/svg">
<path fill-rule="evenodd" clip-rule="evenodd" d="M29.3007 15.006C29.2931 15.011 29.2721 15.0152 29.2541 15.0152C29.2181 15.0154 29.0868 15.0417 28.9792 15.0704C28.816 15.1138 28.6362 15.1973 28.4833 15.3006C28.3613 15.383 28.1887 15.5474 27.3558 16.3746C26.4965 17.2278 26.4442 17.2816 26.4442 17.3115C26.4442 17.3414 26.5564 17.4545 28.5453 19.4273C30.5354 21.4014 30.648 21.5114 30.6783 21.5114C30.7085 21.5114 30.7595 21.4625 31.583 20.6436C32.4725 19.7591 32.581 19.6468 32.6857 19.5025C32.7465 19.4186 32.8434 19.24 32.8864 19.1326C32.9158 19.0591 32.9717 18.8512 32.9853 18.7645C32.9989 18.6776 33.0054 18.3622 32.9944 18.3226C32.9895 18.3051 32.9769 18.2454 32.9664 18.19C32.9416 18.0589 32.8769 17.864 32.8227 17.7569C32.7797 17.6721 32.7052 17.556 32.6274 17.4525C32.5689 17.3749 30.6643 15.4839 30.559 15.399C30.2871 15.1796 30.0352 15.0706 29.6681 15.0134C29.5835 15.0003 29.3176 14.9949 29.3007 15.006ZM25.0414 18.6713C24.644 19.0655 24.6164 19.095 24.6164 19.1245C24.6164 19.1545 24.7286 19.2675 26.7129 21.2358C28.6971 23.204 28.8111 23.3154 28.8413 23.3154C28.8711 23.3154 28.9008 23.288 29.2982 22.8938C29.6955 22.4996 29.7232 22.4701 29.7232 22.4406C29.7232 22.4106 29.6109 22.2976 27.6267 20.3293C25.6424 18.3611 25.5285 18.2497 25.4983 18.2497C25.4685 18.2497 25.4387 18.2771 25.0414 18.6713ZM20.6931 22.9805C19.0732 24.5853 17.6684 25.9741 17.5713 26.0669C17.3832 26.2466 17.3092 26.3271 17.1768 26.4969C17.0091 26.7118 16.9072 26.9067 16.7562 27.3014C16.7052 27.4344 16.6558 27.5744 16.4324 28.217C16.3828 28.3598 16.3046 28.5843 16.2587 28.7158C16.2128 28.8473 16.1381 29.0615 16.0926 29.1918C16.0471 29.3221 15.9727 29.5353 15.9273 29.6656C15.8818 29.7959 15.8074 30.0091 15.7619 30.1394C15.7165 30.2696 15.6424 30.4818 15.5974 30.6109C15.5524 30.7399 15.4817 30.9418 15.4404 31.0596C15.3992 31.1774 15.3289 31.3783 15.2843 31.506C15.1812 31.8018 15.0985 32.0347 15.0747 32.0964C15.0645 32.123 15.0434 32.1931 15.0279 32.2522C14.9554 32.5287 15.0242 32.7402 15.2326 32.8811C15.2828 32.9151 15.4008 32.9576 15.488 32.9731C15.52 32.9788 15.559 32.9872 15.5745 32.9918C15.6103 33.0025 15.7911 33.0028 15.8191 32.9922C15.8307 32.9878 15.8608 32.9795 15.8861 32.9736C15.9114 32.9677 16.8682 32.615 18.0124 32.1898C19.1566 31.7646 20.1837 31.3832 20.2949 31.3422C20.652 31.2107 20.9995 31.0768 21.0985 31.0326C21.1516 31.0089 21.2032 30.9866 21.2134 30.9831C21.2318 30.9767 21.2679 30.9562 21.4477 30.8508C21.6518 30.7311 21.8241 30.5751 22.2283 30.1439C22.3116 30.055 22.477 29.8826 22.5957 29.7608C22.7144 29.639 22.9211 29.426 23.0549 29.2875C23.1888 29.149 23.3955 28.9359 23.5142 28.8138C23.6329 28.6917 23.8396 28.4785 23.9734 28.34C24.1073 28.2015 24.314 27.9883 24.4327 27.8662C24.5514 27.7442 24.758 27.531 24.8919 27.3925C25.0258 27.254 25.2324 27.0408 25.3512 26.9187C25.4699 26.7966 25.6765 26.5834 25.8104 26.445C25.9443 26.3065 26.1509 26.0933 26.2696 25.9712C26.3884 25.8491 26.595 25.6359 26.7289 25.4974C27.0967 25.1169 27.3815 24.8242 27.6106 24.5912C27.8644 24.3331 27.8953 24.2965 27.8953 24.2538C27.8954 24.2236 27.7893 24.1168 25.7989 22.1424C23.8113 20.1708 23.7007 20.0628 23.6704 20.0628C23.64 20.0628 23.487 20.2127 20.6931 22.9805Z" fill="white"/>
</svg>
