<svg width="47" height="47" viewBox="0 0 47 47" fill="none" xmlns="http://www.w3.org/2000/svg">
<path fill-rule="evenodd" clip-rule="evenodd" d="M25.508 16.0549C25.2821 16.1612 25.0144 16.4883 25.0135 16.6592C25.0134 16.6844 24.9838 16.8203 24.9478 16.9613C24.713 17.8799 24.3249 18.6206 23.7789 19.1923C23.6086 19.3706 23.6335 19.3621 23.1467 19.4073C22.9945 19.4214 22.8149 19.4456 22.4674 19.4986C22.1055 19.5538 21.2624 19.7245 20.9754 19.8006C20.3692 19.9615 19.789 20.1302 19.6366 20.19C19.5497 20.224 19.3783 20.2847 19.2556 20.325C19.0527 20.3915 18.3676 20.6577 18.1184 20.7669C17.5593 21.0117 16.7097 21.4232 16.3788 21.6096C16.2321 21.6922 16.0321 21.8012 15.9343 21.8519C15.8366 21.9026 15.7109 21.9751 15.655 22.013C15.5991 22.0509 15.4362 22.1512 15.2929 22.236C14.5716 22.6626 13.6464 23.311 12.7736 24.0016C12.0304 24.5896 11.8146 24.7757 11.3966 25.1894C11.0772 25.5056 11.0367 25.5763 11.0032 25.8769C10.9776 26.1061 11.1091 26.4068 11.3201 26.6017C11.9247 27.1598 12.8866 27.8707 13.6649 28.3343C14.3994 28.7719 15.1192 29.1498 15.7185 29.4124C15.8512 29.4706 16.0454 29.5561 16.1502 29.6024C16.255 29.6487 16.4321 29.72 16.5438 29.7608C16.6556 29.8016 16.8384 29.8699 16.9502 29.9124C17.3442 30.0624 18.3057 30.3601 18.6644 30.4431C19.373 30.6071 19.5547 30.6478 19.6802 30.6705C19.757 30.6844 19.917 30.7141 20.0357 30.7364C20.441 30.8125 20.62 30.8379 21.1912 30.9003C21.3169 30.914 21.5169 30.9368 21.6357 30.9509C22.1911 31.017 24.434 31.0161 24.9244 30.9497C25.0361 30.9346 25.2361 30.9118 25.3688 30.899C25.846 30.8532 26.1388 30.8126 26.5116 30.7404C26.6164 30.7202 26.7821 30.6897 26.8798 30.6727C27.1596 30.6239 28.2429 30.3536 28.6067 30.2417C29.2734 30.0366 29.4233 29.9882 29.6099 29.9174C29.7146 29.8776 29.8975 29.8092 30.0162 29.7655C30.1349 29.7217 30.3276 29.6444 30.4443 29.5938C30.7387 29.4661 32.1569 28.7719 32.3272 28.6721C33.0681 28.238 33.3619 28.0558 33.6605 27.845C34.308 27.3881 34.7601 27.0363 35.1312 26.7008C35.5201 26.3491 35.6418 26.0626 35.5415 25.7347C35.4579 25.4616 35.3159 25.2856 34.9088 24.9502C34.071 24.2599 33.1044 23.6042 32.124 23.061C31.652 22.7995 30.6506 22.3326 30.1305 22.1315C29.4761 21.8785 29.3703 21.8401 29.0385 21.7354C28.8569 21.6782 28.6055 21.5964 28.4798 21.5537C28.3541 21.511 28.2028 21.4597 28.1436 21.4396C28.0099 21.3942 28.024 21.3556 28.1629 21.3866C28.2193 21.3991 28.2934 21.4024 28.3277 21.3939C28.362 21.3853 28.4445 21.3899 28.5111 21.404C28.5777 21.4181 28.7179 21.4433 28.8226 21.46C29.0503 21.4963 29.8398 21.6489 30.0543 21.6982C30.1381 21.7174 30.3152 21.758 30.4479 21.7884C31.0883 21.935 32.0108 22.217 32.8986 22.5377C33.5106 22.7588 33.5935 22.7907 33.7144 22.8514C33.7834 22.8861 33.9467 22.9558 34.0773 23.0064C34.3269 23.1031 34.9847 23.4213 35.2223 23.5604C35.2991 23.6053 35.4457 23.6908 35.5479 23.7503C35.891 23.9499 36.1271 23.9932 36.3946 23.9058C36.7344 23.7947 37 23.4391 37 23.0953C37 23.0304 36.9794 22.9153 36.9542 22.8396C36.8372 22.4881 36.5055 22.2485 35.362 21.6896C34.3954 21.2171 34.0639 21.0737 33.2414 20.7725C33.1195 20.7279 33.0743 20.6986 33.0686 20.6603C33.0618 20.615 33.0964 20.5971 33.348 20.5164C34.031 20.2971 34.6363 19.999 35.0762 19.665C35.344 19.4617 35.4625 19.3041 35.5415 19.0463C35.6078 18.8295 35.5693 18.6103 35.4259 18.3888C35.3223 18.2287 35.2618 18.1776 35.0699 18.0878C34.9341 18.0242 34.873 18.0105 34.7247 18.0105C34.4614 18.0105 34.3085 18.0706 34.0414 18.2791C33.9157 18.3772 33.7614 18.483 33.6986 18.5142C33.6357 18.5453 33.5537 18.5922 33.5164 18.6183C33.3003 18.7691 32.2728 19.0663 31.6034 19.1714C31.5196 19.1846 31.3825 19.2073 31.2987 19.2218C31.0849 19.2588 30.7615 19.2921 30.4416 19.3098C30.1809 19.3243 30.1686 19.3228 30.1686 19.275C30.1686 19.2475 30.1875 19.2094 30.2106 19.1904C30.3458 19.0792 30.8289 18.4333 31.0392 18.0825C31.2319 17.7612 31.2654 17.6627 31.2634 17.4235C31.2606 17.0752 31.0885 16.8114 30.7654 16.6606C30.5842 16.576 30.2614 16.5761 30.078 16.6607C29.9138 16.7365 29.725 16.9268 29.5965 17.1459C29.2046 17.8143 28.2865 18.7258 27.7177 19.0115C27.6052 19.0679 27.1773 19.2373 27.0576 19.2728C26.835 19.3387 26.5966 19.3698 26.3131 19.3698C25.9839 19.3698 25.9021 19.3495 25.9021 19.2679C25.9021 19.2405 25.9817 19.0605 26.0791 18.868C26.1764 18.6754 26.2921 18.4122 26.3362 18.2831C26.3803 18.1539 26.4307 18.0199 26.4482 17.9853C26.4841 17.9144 26.6404 17.3208 26.7028 17.0187C26.7408 16.8344 26.7407 16.8073 26.7013 16.6481C26.6468 16.4276 26.5159 16.2407 26.3244 16.11C26.1775 16.0097 26.1758 16.0092 25.9062 16.0021C25.6648 15.9957 25.6216 16.0014 25.508 16.0549ZM24.4546 22.6385C25.3122 22.7285 25.9023 22.8822 26.4735 23.1645C26.8142 23.3328 27.0246 23.4771 27.2695 23.7106C27.7225 24.1424 27.95 24.5933 28.0836 25.3246C28.1179 25.5118 28.1205 26.3188 28.0874 26.4854C28.0742 26.5522 28.0499 26.6749 28.0335 26.7579C27.93 27.2815 27.7186 27.6659 27.302 28.088C26.8517 28.5444 26.4192 28.7774 25.5974 29.0065C25.3217 29.0834 25.2583 29.0976 25.0006 29.1403C24.5643 29.2126 23.8204 29.2679 23.2864 29.2676C22.9496 29.2675 22.1149 29.2252 21.9658 29.2007C21.9169 29.1927 21.7969 29.1738 21.6991 29.1588C20.8852 29.0338 20.1899 28.7905 19.6933 28.4568C19.5953 28.391 19.3832 28.2027 19.2219 28.0384C18.8945 27.7049 18.7684 27.4994 18.6138 27.0474C18.4973 26.7068 18.4824 26.5975 18.4693 25.9858C18.4589 25.4986 18.4634 25.4131 18.5116 25.1868C18.6406 24.5793 18.839 24.1891 19.2216 23.7902C19.7236 23.2669 20.5672 22.874 21.5214 22.7193C21.6191 22.7034 21.7627 22.6796 21.8403 22.6663C21.918 22.6531 22.0551 22.6411 22.1451 22.6397C22.235 22.6383 22.3372 22.6279 22.3721 22.6165C22.4572 22.5886 24.15 22.6066 24.4546 22.6385ZM23.0832 23.6728C23.0483 23.6847 22.9739 23.6956 22.9178 23.697C22.781 23.7003 22.4738 23.7993 22.2431 23.9144C21.6715 24.1994 21.2451 24.7304 21.076 25.368C20.9218 25.9492 21.0068 26.5473 21.3177 27.0692C21.5829 27.5142 22.0351 27.8923 22.4797 28.0404C22.8292 28.1569 22.968 28.1802 23.3129 28.1802C23.6379 28.1802 23.6738 28.1751 23.9315 28.0923C24.5536 27.8924 24.9222 27.6007 25.2641 27.0375C25.407 26.8023 25.4433 26.7038 25.5221 26.3382C25.6036 25.9602 25.5822 25.6354 25.4483 25.2201C25.2339 24.5548 24.6668 23.9922 23.9871 23.7702C23.7371 23.6886 23.2052 23.6313 23.0832 23.6728ZM17.1051 23.8103C17.1126 23.8298 17.0902 23.9176 17.0553 24.0054C16.9212 24.3428 16.8698 24.5403 16.7602 25.1392C16.722 25.348 16.7209 26.5431 16.7588 26.6697C16.7732 26.718 16.7851 26.7951 16.7851 26.8409C16.7851 26.9642 16.9485 27.5849 17.0402 27.81C17.1568 28.0963 17.1209 28.1341 16.8453 28.0152C16.0143 27.6565 15.0693 27.173 14.5376 26.8344C14.2014 26.6203 13.6634 26.2637 13.4837 26.1358C13.1998 25.9339 13.2023 25.9227 13.5968 25.6331C13.7725 25.5041 14.0389 25.3219 14.1888 25.2281C14.3387 25.1343 14.5357 25.0103 14.6265 24.9525C14.9285 24.7604 16.2606 24.0685 16.5501 23.9534C16.6165 23.9271 16.7394 23.8764 16.8232 23.8408C16.9948 23.768 17.085 23.7583 17.1051 23.8103ZM29.7886 23.8655C29.9068 23.9153 30.0664 23.9813 30.1432 24.0123C30.3536 24.0972 31.1959 24.5339 31.7558 24.8485C32.0281 25.0015 32.7145 25.4476 33.0764 25.7067C33.3318 25.8897 33.3499 25.949 33.1859 26.0651C33.1256 26.1077 32.9735 26.2161 32.8478 26.3062C32.4363 26.6007 31.851 26.9624 31.3368 27.24C30.9204 27.4647 30.2159 27.8193 30.0736 27.8758C30.0071 27.9022 29.8687 27.9588 29.766 28.0016C29.6633 28.0445 29.5505 28.0795 29.5155 28.0795C29.4597 28.0795 29.4534 28.0709 29.4649 28.0103C29.4722 27.9722 29.4976 27.8901 29.5214 27.8278C29.632 27.5388 29.7338 27.1384 29.8125 26.6824C29.8486 26.4733 29.8335 25.2957 29.7912 25.021C29.7547 24.7839 29.6002 24.2081 29.5194 24.0079C29.4133 23.7449 29.4527 23.7241 29.7886 23.8655ZM23.5395 25.4556C23.8807 25.6267 23.9394 26.0413 23.6605 26.3111C23.6014 26.3684 23.5208 26.4272 23.4815 26.4418C23.3812 26.4792 23.1731 26.475 23.076 26.4336C22.8941 26.3561 22.7273 26.1029 22.7279 25.9052C22.7282 25.8058 22.8286 25.5924 22.91 25.5183C22.9935 25.4422 23.2303 25.3599 23.3245 25.3744C23.3664 25.3808 23.4631 25.4174 23.5395 25.4556Z" fill="white"/>
</svg>
