<svg width="20" height="20" viewBox="0 0 20 20" fill="none" xmlns="http://www.w3.org/2000/svg">
<path d="M20 10C20 15.5228 15.5228 20 10 20C4.47715 20 0 15.5228 0 10C0 4.47715 4.47715 0 10 0C15.5228 0 20 4.47715 20 10ZM1.1115 10C1.1115 14.909 5.09102 18.8885 10 18.8885C14.909 18.8885 18.8885 14.909 18.8885 10C18.8885 5.09102 14.909 1.1115 10 1.1115C5.09102 1.1115 1.1115 5.09102 1.1115 10Z" fill="#C1E704" fill-opacity="0.65"/>
<path d="M10.4127 5H9.6V5.69652C8.53333 5.85821 8.0381 6.64179 8.0381 7.83582C8.0381 10.2861 11.0095 10.3109 11.0095 12.2512C11.0095 13.0348 10.6921 13.4826 9.96825 13.4826C9.25714 13.4826 8.92698 13.0348 8.92698 12.2512V11.6542H8V12.1891C8 13.3706 8.49524 14.1915 9.6 14.3408V15H10.4127V14.3408C11.4921 14.1915 12 13.3582 12 12.1891C12 9.73881 9.01587 9.72637 9.01587 7.77363C9.01587 7.00249 9.33333 6.52985 10.0317 6.52985C10.7429 6.52985 11.0603 7.00249 11.0603 7.77363V8.07214H11.9873V7.83582C11.9873 6.66667 11.4921 5.84577 10.4127 5.69652V5Z" fill="#C1E704" fill-opacity="0.65"/>
</svg>
