<svg width="47" height="47" viewBox="0 0 47 47" fill="none" xmlns="http://www.w3.org/2000/svg">
<path fill-rule="evenodd" clip-rule="evenodd" d="M21.1544 13.5704L20.604 14.1366L18.302 14.1386L16 14.1407V15.3086V16.4765H24H32V15.3086V14.1407H29.7042H27.4085L26.8456 13.5704L26.2828 13L23.9937 13.0021L21.7047 13.0042L21.1544 13.5704ZM17.1275 25.3037C17.1275 30.4099 17.1365 32.9901 17.1544 32.9901C17.1691 32.9901 17.1812 33.0512 17.1812 33.1259C17.1812 33.2006 17.1933 33.2617 17.2081 33.2617C17.2228 33.2617 17.2349 33.2984 17.2349 33.3432C17.2349 33.388 17.247 33.4247 17.2617 33.4247C17.2765 33.4247 17.2886 33.4614 17.2886 33.5062C17.2886 33.551 17.3007 33.5877 17.3154 33.5877C17.3302 33.5877 17.3423 33.6121 17.3423 33.642C17.3423 33.6719 17.3544 33.6963 17.3691 33.6963C17.3839 33.6963 17.396 33.7207 17.396 33.7506C17.396 33.7805 17.4081 33.8049 17.4228 33.8049C17.4376 33.8049 17.4497 33.8294 17.4497 33.8593C17.4497 33.8891 17.4617 33.9136 17.4765 33.9136C17.4913 33.9136 17.5034 33.9329 17.5034 33.9564C17.5034 33.98 17.5517 34.0463 17.6107 34.1037C17.6698 34.1611 17.7181 34.2218 17.7181 34.2386C17.7181 34.2782 17.8409 34.4025 17.8801 34.4025C17.8967 34.4025 17.9567 34.4514 18.0134 34.5111C18.0702 34.5709 18.1357 34.6198 18.159 34.6198C18.1823 34.6198 18.2013 34.632 18.2013 34.6469C18.2013 34.6619 18.2228 34.6741 18.2491 34.6741C18.2754 34.6741 18.3143 34.6985 18.3356 34.7284C18.3569 34.7583 18.3958 34.7827 18.422 34.7827C18.4483 34.7827 18.4698 34.7949 18.4698 34.8099C18.4698 34.8248 18.506 34.837 18.5503 34.837C18.5946 34.837 18.6309 34.8493 18.6309 34.8642C18.6309 34.8791 18.6671 34.8914 18.7114 34.8914C18.7557 34.8914 18.7919 34.9036 18.7919 34.9185C18.7919 34.9335 18.8403 34.9457 18.8993 34.9457C18.9584 34.9457 19.0067 34.9579 19.0067 34.9728C19.0067 34.9908 20.689 35 24 35C27.311 35 28.9933 34.9908 28.9933 34.9728C28.9933 34.9579 29.0416 34.9457 29.1007 34.9457C29.1597 34.9457 29.2081 34.9335 29.2081 34.9185C29.2081 34.9036 29.2443 34.8914 29.2886 34.8914C29.3329 34.8914 29.3691 34.8791 29.3691 34.8642C29.3691 34.8493 29.4054 34.837 29.4497 34.837C29.494 34.837 29.5302 34.8248 29.5302 34.8099C29.5302 34.7949 29.5517 34.7827 29.578 34.7827C29.6042 34.7827 29.6431 34.7583 29.6644 34.7284C29.6857 34.6985 29.7246 34.6741 29.7509 34.6741C29.7772 34.6741 29.7987 34.6619 29.7987 34.6469C29.7987 34.632 29.8177 34.6198 29.841 34.6198C29.8644 34.6198 29.9298 34.5709 29.9866 34.5111C30.0433 34.4514 30.1033 34.4025 30.1199 34.4025C30.1591 34.4025 30.2819 34.2782 30.2819 34.2386C30.2819 34.2218 30.3302 34.1611 30.3893 34.1037C30.4483 34.0463 30.4966 33.98 30.4966 33.9564C30.4966 33.9329 30.5087 33.9136 30.5235 33.9136C30.5383 33.9136 30.5503 33.8891 30.5503 33.8593C30.5503 33.8294 30.5624 33.8049 30.5772 33.8049C30.5919 33.8049 30.604 33.7805 30.604 33.7506C30.604 33.7207 30.6161 33.6963 30.6309 33.6963C30.6456 33.6963 30.6577 33.6719 30.6577 33.642C30.6577 33.6121 30.6698 33.5877 30.6846 33.5877C30.6993 33.5877 30.7114 33.551 30.7114 33.5062C30.7114 33.4614 30.7235 33.4247 30.7383 33.4247C30.753 33.4247 30.7651 33.388 30.7651 33.3432C30.7651 33.2984 30.7772 33.2617 30.7919 33.2617C30.8069 33.2617 30.8188 33.1893 30.8188 33.0988C30.8188 33.0082 30.8307 32.9358 30.8456 32.9358C30.8635 32.9358 30.8725 30.3646 30.8725 25.2765V17.6173H24H17.1275V25.3037ZM22.8725 26.3086V31.5235H21.7181H20.5638V26.3086V21.0938H21.7181H22.8725V26.3086ZM27.4362 26.3086V31.5235H26.2819H25.1275V26.3086V21.0938H26.2819H27.4362V26.3086Z" fill="white"/>
</svg>
