<svg width="32" height="32" viewBox="0 0 32 32" fill="none" xmlns="http://www.w3.org/2000/svg">
<path fill-rule="evenodd" clip-rule="evenodd" d="M13.1544 5.57037L12.604 6.13656L10.302 6.13865L8 6.14074V7.30864V8.47654H16H24V7.30864V6.14074H21.7042H19.4085L18.8456 5.57037L18.2828 5L15.9937 5.00209L13.7047 5.00418L13.1544 5.57037ZM9.12752 17.3037C9.12752 22.4099 9.13654 24.9901 9.15436 24.9901C9.16913 24.9901 9.18121 25.0512 9.18121 25.1259C9.18121 25.2006 9.19329 25.2617 9.20805 25.2617C9.22282 25.2617 9.2349 25.2984 9.2349 25.3432C9.2349 25.388 9.24698 25.4247 9.26175 25.4247C9.27651 25.4247 9.28859 25.4614 9.28859 25.5062C9.28859 25.551 9.30067 25.5877 9.31544 25.5877C9.3302 25.5877 9.34228 25.6121 9.34228 25.642C9.34228 25.6719 9.35436 25.6963 9.36913 25.6963C9.38389 25.6963 9.39597 25.7207 9.39597 25.7506C9.39597 25.7805 9.40805 25.8049 9.42282 25.8049C9.43758 25.8049 9.44966 25.8294 9.44966 25.8593C9.44966 25.8891 9.46175 25.9136 9.47651 25.9136C9.49128 25.9136 9.50336 25.9329 9.50336 25.9564C9.50336 25.98 9.55168 26.0463 9.61074 26.1037C9.6698 26.1611 9.71812 26.2218 9.71812 26.2386C9.71812 26.2782 9.84091 26.4025 9.88008 26.4025C9.89667 26.4025 9.95667 26.4514 10.0134 26.5111C10.0702 26.5709 10.1357 26.6198 10.159 26.6198C10.1823 26.6198 10.2013 26.632 10.2013 26.6469C10.2013 26.6619 10.2228 26.6741 10.2491 26.6741C10.2754 26.6741 10.3143 26.6985 10.3356 26.7284C10.3569 26.7583 10.3958 26.7827 10.422 26.7827C10.4483 26.7827 10.4698 26.7949 10.4698 26.8099C10.4698 26.8248 10.506 26.837 10.5503 26.837C10.5946 26.837 10.6309 26.8493 10.6309 26.8642C10.6309 26.8791 10.6671 26.8914 10.7114 26.8914C10.7557 26.8914 10.7919 26.9036 10.7919 26.9185C10.7919 26.9335 10.8403 26.9457 10.8993 26.9457C10.9584 26.9457 11.0067 26.9579 11.0067 26.9728C11.0067 26.9908 12.689 27 16 27C19.311 27 20.9933 26.9908 20.9933 26.9728C20.9933 26.9579 21.0416 26.9457 21.1007 26.9457C21.1597 26.9457 21.2081 26.9335 21.2081 26.9185C21.2081 26.9036 21.2443 26.8914 21.2886 26.8914C21.3329 26.8914 21.3691 26.8791 21.3691 26.8642C21.3691 26.8493 21.4054 26.837 21.4497 26.837C21.494 26.837 21.5302 26.8248 21.5302 26.8099C21.5302 26.7949 21.5517 26.7827 21.578 26.7827C21.6042 26.7827 21.6431 26.7583 21.6644 26.7284C21.6857 26.6985 21.7246 26.6741 21.7509 26.6741C21.7772 26.6741 21.7987 26.6619 21.7987 26.6469C21.7987 26.632 21.8177 26.6198 21.841 26.6198C21.8644 26.6198 21.9298 26.5709 21.9866 26.5111C22.0433 26.4514 22.1033 26.4025 22.1199 26.4025C22.1591 26.4025 22.2819 26.2782 22.2819 26.2386C22.2819 26.2218 22.3302 26.1611 22.3893 26.1037C22.4483 26.0463 22.4966 25.98 22.4966 25.9564C22.4966 25.9329 22.5087 25.9136 22.5235 25.9136C22.5383 25.9136 22.5503 25.8891 22.5503 25.8593C22.5503 25.8294 22.5624 25.8049 22.5772 25.8049C22.5919 25.8049 22.604 25.7805 22.604 25.7506C22.604 25.7207 22.6161 25.6963 22.6309 25.6963C22.6456 25.6963 22.6577 25.6719 22.6577 25.642C22.6577 25.6121 22.6698 25.5877 22.6846 25.5877C22.6993 25.5877 22.7114 25.551 22.7114 25.5062C22.7114 25.4614 22.7235 25.4247 22.7383 25.4247C22.753 25.4247 22.7651 25.388 22.7651 25.3432C22.7651 25.2984 22.7772 25.2617 22.7919 25.2617C22.8069 25.2617 22.8188 25.1893 22.8188 25.0988C22.8188 25.0082 22.8307 24.9358 22.8456 24.9358C22.8635 24.9358 22.8725 22.3646 22.8725 17.2765V9.61728H16H9.12752V17.3037ZM14.8725 18.3086V23.5235H13.7181H12.5638V18.3086V13.0938H13.7181H14.8725V18.3086ZM19.4362 18.3086V23.5235H18.2819H17.1275V18.3086V13.0938H18.2819H19.4362V18.3086Z" fill="white" fill-opacity="0.65"/>
</svg>
