<svg width="32" height="32" viewBox="0 0 32 32" fill="none" xmlns="http://www.w3.org/2000/svg">
<path fill-rule="evenodd" clip-rule="evenodd" d="M11.5843 4.0046C11.1999 4.05127 10.922 4.2807 10.8179 4.63739C10.7705 4.79974 10.7641 5.23218 10.7641 8.25763V11.6935L10.841 11.7627C10.928 11.8409 11.1943 11.9604 11.8441 12.2125C12.3118 12.3939 12.4848 12.4246 12.5203 12.3324C12.5317 12.3028 12.5411 10.8354 12.5411 9.07168C12.5411 6.22431 12.5471 5.85632 12.5943 5.78915L12.6475 5.71347L17.0794 5.71398C19.5856 5.71429 21.532 5.7276 21.559 5.74459C21.6493 5.80161 21.5658 5.87893 21.2144 6.06335C21.0206 6.16507 20.689 6.34245 20.4776 6.45752C18.9671 7.27953 18.5742 7.48989 17.8549 7.86193C17.5353 8.02718 17.2177 8.20874 17.1491 8.26543C16.8969 8.47365 16.9151 7.91763 16.9151 15.3898V22.0921L16.8312 22.1756L16.7474 22.2592H14.6974H12.6475L12.5943 22.1835C12.5473 22.1167 12.5411 21.8098 12.5411 19.5478C12.5411 18.1399 12.5317 16.9636 12.5203 16.934C12.5089 16.9044 12.4616 16.8801 12.4153 16.8801C12.2875 16.8801 10.929 17.4287 10.841 17.5159L10.7641 17.592V20.3499C10.7641 23.015 10.7664 23.1138 10.8318 23.2878C10.9622 23.6349 11.1614 23.8012 11.5741 23.9077C11.7543 23.9543 12.1177 23.9614 14.2954 23.9614H16.8087L16.8619 24.0371C16.9082 24.1029 16.9151 24.3161 16.9151 25.6745C16.9151 27.4877 16.9183 27.5129 17.1845 27.7794C17.2895 27.8845 17.392 27.9508 17.4905 27.9772C17.6701 28.0254 17.9663 27.9943 18.1203 27.9111C18.2525 27.8397 18.7497 27.5651 19.7941 26.9865C19.968 26.8902 20.2717 26.7242 20.469 26.6176C20.6664 26.5109 20.9432 26.3574 21.0841 26.2765C21.2251 26.1955 21.5019 26.042 21.6992 25.9354C21.8966 25.8288 22.2003 25.6627 22.3741 25.5664C22.548 25.4701 22.8286 25.3147 22.9978 25.2211C23.1669 25.1275 23.4437 24.9743 23.6129 24.8806C23.782 24.787 24.0588 24.6338 24.228 24.5402C25.0177 24.1031 25.1468 24.0319 25.3386 23.9273C25.7138 23.7226 25.8757 23.5147 25.9465 23.1469C26.0006 22.8656 26.0228 5.08337 25.9694 4.82831C25.9203 4.59391 25.8086 4.39822 25.6347 4.24172C25.3629 3.99704 25.8812 4.0141 18.3995 4.00361C14.6981 3.99843 11.6312 3.99888 11.5843 4.0046ZM8.29247 11.6885C8.20171 11.7134 8.10176 11.7556 8.07035 11.7824C8.03895 11.8092 7.87038 11.9522 7.69579 12.1002C7.52117 12.2481 7.25976 12.4727 7.11487 12.5992C6.96994 12.7257 6.72264 12.9402 6.56524 13.0758C6.40788 13.2115 6.18169 13.4067 6.06263 13.5097C5.94354 13.6127 5.67611 13.8409 5.46831 14.0169C5.11658 14.3148 5.08674 14.3498 5.03607 14.5234C4.97708 14.7256 4.99055 14.9141 5.07571 15.0782C5.14074 15.2035 5.3689 15.4172 6.2363 16.1652C6.42086 16.3244 6.66649 16.5388 6.78216 16.6418C6.8978 16.7448 7.12836 16.944 7.29451 17.0844C7.46062 17.2248 7.69801 17.4295 7.82199 17.5391C8.11748 17.8005 8.22187 17.8432 8.52789 17.8278C8.7431 17.817 8.79552 17.8001 8.96761 17.6863C9.11941 17.5859 9.18146 17.5176 9.24564 17.3803C9.32318 17.2144 9.32824 17.1666 9.32854 16.5977C9.32888 16.0046 9.33059 15.9902 9.41049 15.9106C9.45539 15.8658 9.55148 15.82 9.62406 15.8087C9.87984 15.7688 10.1359 15.725 10.5164 15.6561C10.7278 15.6178 11.0738 15.5551 11.2852 15.5168C11.4967 15.4784 11.7543 15.4332 11.8576 15.4162C11.961 15.3992 12.2147 15.3546 12.4215 15.3171C12.7942 15.2495 13.1874 15.1808 14.0105 15.0393C14.2454 14.999 14.583 14.937 14.7607 14.9017C14.9384 14.8664 15.1174 14.8375 15.1585 14.8375C15.1995 14.8375 15.2694 14.8082 15.3137 14.7725L15.3942 14.7075L15.3089 14.6731C15.2269 14.64 15.0924 14.6135 14.5743 14.5284C14.4428 14.5067 14.189 14.4618 14.0105 14.4285C13.8319 14.3952 13.5705 14.3494 13.4296 14.3268C13.2886 14.3042 13.0272 14.2584 12.8486 14.2251C12.6701 14.1918 12.4163 14.1468 12.2848 14.125C12.1532 14.1033 11.8803 14.0556 11.6782 14.0189C11.4762 13.9823 11.1455 13.9223 10.9435 13.8857C10.7415 13.849 10.4685 13.8013 10.337 13.7796C9.69172 13.6734 9.44804 13.6118 9.38869 13.5402C9.33678 13.4777 9.32888 13.3897 9.32888 12.875C9.32888 12.4309 9.31648 12.2544 9.27947 12.1724C9.18061 11.9531 8.95333 11.7641 8.70039 11.6908C8.4878 11.6293 8.50841 11.6294 8.29247 11.6885Z" fill="white" fill-opacity="0.45"/>
</svg>
