<svg width="31" height="44" viewBox="0 0 31 44" fill="none" xmlns="http://www.w3.org/2000/svg">
<g opacity="0.25">
<path d="M29.45 16.2106H1.55001C0.693859 16.2106 0 16.9017 0 17.7544V38.3392C0 39.0226 0.451586 39.6253 1.10981 39.8192L15.0598 43.9361C15.2035 43.9789 15.3517 44 15.5 44C15.6483 44 15.7965 43.9789 15.9407 43.9361L29.8907 39.8192C30.5484 39.6252 31 39.0226 31 38.3392V17.7543C31 16.9017 30.3061 16.2106 29.45 16.2106ZM27.9 37.1864L15.5 40.8459L3.10002 37.1864V19.2982H27.9001L27.9 37.1864Z" fill="white"/>
<path d="M15.5 0C9.51696 0 4.65003 4.89406 4.65003 10.9099H7.75004C7.75004 6.59691 11.2267 3.08773 15.5001 3.08773C19.7735 3.08773 23.2501 6.59691 23.2501 10.9099V17.497H26.3502V10.9099C26.35 4.89406 21.4825 0 15.5 0Z" fill="white"/>
<path fill-rule="evenodd" clip-rule="evenodd" d="M27.9 37.1864L15.5 40.8459L3.10002 37.1864V19.2982H27.9001L27.9 37.1864ZM13.95 28.0468C13.95 27.1941 14.6439 26.503 15.5 26.503C16.3562 26.503 17.05 27.1941 17.05 28.0468V32.1637C17.05 33.0165 16.3562 33.7076 15.5 33.7076C14.6439 33.7076 13.95 33.0165 13.95 32.1637V28.0468Z" fill="white"/>
</g>
</svg>
