<svg width="28" height="28" viewBox="0 0 28 28" fill="none" xmlns="http://www.w3.org/2000/svg">
<path d="M20.9999 15.1667H15.1666V21C15.1666 21.6417 14.6416 22.1667 13.9999 22.1667C13.3583 22.1667 12.8333 21.6417 12.8333 21V15.1667H6.99992C6.35825 15.1667 5.83325 14.6417 5.83325 14C5.83325 13.3583 6.35825 12.8333 6.99992 12.8333H12.8333V7.00001C12.8333 6.35834 13.3583 5.83334 13.9999 5.83334C14.6416 5.83334 15.1666 6.35834 15.1666 7.00001V12.8333H20.9999C21.6416 12.8333 22.1666 13.3583 22.1666 14C22.1666 14.6417 21.6416 15.1667 20.9999 15.1667Z" fill="white"/>
</svg>
