<svg width="34" height="34" viewBox="0 0 34 34" fill="none" xmlns="http://www.w3.org/2000/svg">
<path d="M0.996094 4.05078H7.10547C7.65462 4.05078 8.10156 4.49773 8.10156 5.04688C8.10156 5.13274 7.9755 3.967 9.99985 22.1872C8.88988 22.6238 8.10156 23.7055 8.10156 24.9688C8.10156 26.6165 9.44214 27.9563 11.0898 27.9563H12.2571C12.1466 28.2681 12.0859 28.604 12.0859 28.9531C12.0859 30.6008 13.4265 31.9414 15.0742 31.9414C16.7219 31.9414 18.0625 30.6008 18.0625 28.9531C18.0625 28.604 18.0018 28.2681 17.8913 27.9563H24.2105C24.0998 28.2681 24.0391 28.604 24.0391 28.9531C24.0391 30.6008 25.3796 31.9414 27.0273 31.9414C28.6751 31.9414 30.0156 30.6008 30.0156 28.9531C30.0156 27.3054 28.6751 25.9648 27.0273 25.9648H11.0898C10.5407 25.9648 10.0938 25.5179 10.0938 24.9688C10.0938 24.4196 10.5407 23.9727 11.0898 23.9727H29.3241C30.791 23.9727 32.0306 22.9226 32.2716 21.4757L33.9865 11.1871C34.0345 10.8984 33.9533 10.603 33.764 10.3796C33.5746 10.1563 33.2968 10.0273 33.0039 10.0273H30.0156V5.04688C30.0156 4.49669 29.5697 4.05078 29.0195 4.05078H21.0508C20.5006 4.05078 20.0547 4.49669 20.0547 5.04688V6.04297H15.0742C14.524 6.04297 14.0781 6.48888 14.0781 7.03906V10.0273H10.6533L10.0932 4.98618C10.0605 3.36649 8.73294 2.05859 7.10547 2.05859H0.996094C0.445908 2.05859 0 2.5045 0 3.05469C0 3.60487 0.445908 4.05078 0.996094 4.05078ZM16.0703 28.9531C16.0703 29.5023 15.6234 29.9492 15.0742 29.9492C14.5251 29.9492 14.0781 29.5023 14.0781 28.9531C14.0781 28.404 14.5251 27.9563 15.0742 27.9563C15.6234 27.9563 16.0703 28.404 16.0703 28.9531ZM27.0273 29.9492C26.4782 29.9492 26.0313 29.5023 26.0313 28.9531C26.0313 28.4022 26.4782 27.957 27.0273 27.957C27.5765 27.957 28.0234 28.404 28.0234 28.9531C28.0234 29.5023 27.5765 29.9492 27.0273 29.9492ZM22.0469 6.04297H28.0234V10.0273H22.0469V6.04297ZM16.0703 8.03516H20.0547V10.0273H16.0703V8.03516ZM31.8281 12.0195L30.3067 21.1481C30.2263 21.6305 29.813 21.9805 29.3241 21.9805H11.9814L10.8745 12.0195H31.8281Z" fill="black"/>
<path d="M15.0742 19.9883C15.6244 19.9883 16.0703 19.5424 16.0703 18.9922V15.0078C16.0703 14.4576 15.6244 14.0117 15.0742 14.0117C14.524 14.0117 14.0781 14.4576 14.0781 15.0078V18.9922C14.0781 19.5424 14.524 19.9883 15.0742 19.9883Z" fill="black"/>
<path d="M21.0508 19.9883C21.601 19.9883 22.0469 19.5424 22.0469 18.9922V15.0078C22.0469 14.4576 21.601 14.0117 21.0508 14.0117C20.5006 14.0117 20.0547 14.4576 20.0547 15.0078V18.9922C20.0547 19.5424 20.5006 19.9883 21.0508 19.9883Z" fill="black"/>
<path d="M27.0273 19.9883C27.5775 19.9883 28.0234 19.5424 28.0234 18.9922V15.0078C28.0234 14.4576 27.5775 14.0117 27.0273 14.0117C26.4772 14.0117 26.0312 14.4576 26.0312 15.0078V18.9922C26.0312 19.5424 26.4772 19.9883 27.0273 19.9883Z" fill="black"/>
</svg>
