<svg width="44" height="44" viewBox="0 0 44 44" fill="none" xmlns="http://www.w3.org/2000/svg">
<g clip-path="url(#clip0)">
<path d="M43.864 18.1121C43.4602 16.4623 42.0681 15.1187 40.4002 14.7695C40.0599 14.6983 39.7175 14.6665 39.3788 14.6699C36.1895 9.81624 30.3643 7.33325 22.0014 7.33325C13.6109 7.33325 7.77674 9.82217 4.59817 14.6895C3.51055 14.6903 2.45059 15.0476 1.61502 15.7578C0.589102 16.6307 0 17.9036 0 19.2499C0 20.6831 0.691109 22.0366 1.83348 22.8978V29.3333C1.83348 31.3554 3.47806 32.9999 5.50034 32.9999V33.9166C5.50034 35.4331 6.73398 36.6666 8.25051 36.6666C9.76705 36.6666 11.0007 35.4331 11.0007 33.9166V32.9999H33.0021V33.9166C33.0021 35.4331 34.2357 36.6666 35.7522 36.6666C37.2688 36.6666 38.5024 35.4331 38.5024 33.9166V32.9999C40.5248 32.9999 42.1693 31.3555 42.1693 29.3333V22.8987C43.6348 21.7995 44.3107 19.9411 43.864 18.1121ZM22 9.16664C29.3584 9.16664 34.5269 11.1843 37.4472 15.1182C37.1229 15.2724 36.8131 15.4601 36.5289 15.6907C35.451 16.5662 34.8334 17.8633 34.8334 19.2499V21.9999H23.8334C23.1266 21.9999 22.4877 22.2755 22.0001 22.7152C21.5125 22.2755 20.8736 21.9999 20.1668 21.9999H9.16678V19.446C9.16678 17.563 8.08947 15.8962 6.53314 15.1288C9.44453 11.1882 14.6197 9.16664 22 9.16664ZM36.6667 24.7499C36.6667 25.2557 36.2558 25.6666 35.75 25.6666H23.8333C23.3276 25.6666 22.9166 25.2558 22.9166 24.7499C22.9166 24.2441 23.3275 23.8333 23.8333 23.8333H35.75C36.2557 23.8333 36.6667 24.2442 36.6667 24.7499ZM21.0833 24.7499C21.0833 25.2557 20.6724 25.6666 20.1666 25.6666H8.25C7.74426 25.6666 7.3333 25.2558 7.3333 24.7499C7.3333 24.2441 7.74426 23.8333 8.25 23.8333H20.1667C20.6724 23.8333 21.0833 24.2442 21.0833 24.7499ZM9.1667 33.9166C9.1667 34.4224 8.75583 34.8333 8.25 34.8333C7.74417 34.8333 7.3333 34.4225 7.3333 33.9166V32.9999H9.16661V33.9166H9.1667ZM36.6667 33.9166C36.6667 34.4224 36.2558 34.8333 35.75 34.8333C35.2443 34.8333 34.8333 34.4225 34.8333 33.9166V32.9999H36.6666V33.9166H36.6667ZM40.7889 21.6159C40.507 21.7797 40.3333 22.0814 40.3333 22.4081V29.3333C40.3333 30.3439 39.5106 31.1666 38.5 31.1666H5.5C4.48938 31.1666 3.6667 30.3439 3.6667 29.3333V22.4081C3.6667 22.0823 3.49302 21.7806 3.21105 21.6159C2.34807 21.1138 1.8333 20.2293 1.8333 19.2499C1.8333 18.4425 2.18694 17.678 2.80277 17.1544C3.42848 16.6226 4.23148 16.4042 5.05149 16.5384C6.35216 16.7497 7.3333 18.0002 7.3333 19.446V22.1688C6.26863 22.5485 5.5 23.5564 5.5 24.7499C5.5 26.2664 6.73355 27.4999 8.25 27.4999H20.1667C20.8735 27.4999 21.5124 27.2244 22 26.7847C22.4876 27.2244 23.1265 27.4999 23.8333 27.4999H35.75C37.2665 27.4999 38.5 26.2664 38.5 24.7499C38.5 23.5564 37.7314 22.5485 36.6667 22.1688V19.2499C36.6667 18.4174 37.0373 17.6395 37.6845 17.1141C38.3407 16.5814 39.1732 16.3854 40.0219 16.5635C41.0138 16.7713 41.8409 17.5688 42.0799 18.5472C42.3815 19.7799 41.8749 20.9839 40.7889 21.6159Z" fill="#53D3C3"/>
</g>
<defs>
<clipPath id="clip0">
<rect width="44" height="44" fill="white"/>
</clipPath>
</defs>
</svg>
