<svg width="24" height="24" viewBox="0 0 24 24" fill="none" xmlns="http://www.w3.org/2000/svg">
<circle cx="12" cy="12" r="12" fill="#53D3C3"/>
<g clip-path="url(#clip0)">
<path d="M19.6667 6H4.33334C4.14909 6 4 6.14909 4 6.33334V7.66669C4 7.85091 4.14909 8 4.33334 8H4.66669V9C4.66669 9.18425 4.81578 9.33334 5.00003 9.33334H5.33337V17.6667C5.33337 17.8509 5.48247 18 5.66672 18H6.33337C6.50784 18 6.65237 17.8659 6.66541 17.6924L7.30841 9.33334H16.6917L17.3347 17.6924C17.3477 17.8659 17.4923 18 17.6667 18H18.3334C18.5177 18 18.6667 17.8509 18.6667 17.6667V9.33334H19C19.1842 9.33334 19.3333 9.18425 19.3333 9V8H19.6667C19.8509 8 20 7.85091 20 7.66666V6.33334C20 6.14909 19.8509 6 19.6667 6ZM6.02475 17.3333L6.001 9.33334H6.64037L6.02475 17.3333ZM18 17.3333L17.3607 9.33334H18V17.3333ZM18.6667 8.66666H5.33334V8H18.6667V8.66666H18.6667ZM19.3333 7.33334H4.66666V6.66666H19.3333V7.33334H19.3333Z" fill="black"/>
</g>
<defs>
<clipPath id="clip0">
<rect width="16" height="16" fill="white" transform="translate(4 4)"/>
</clipPath>
</defs>
</svg>
