<svg width="22" height="22" viewBox="0 0 22 22" fill="none" xmlns="http://www.w3.org/2000/svg">
<path d="M5.20845 8.68498H16.7887C17.0548 8.68498 17.2712 8.46891 17.2712 8.20244C17.2712 7.9372 17.0548 7.72031 16.7887 7.72031H16.7639C16.5458 5.07209 14.545 2.93287 11.9637 2.49948V1.80954H11.1192V0.120636C11.1192 0.0549473 11.0651 0 10.9986 0C10.9321 0 10.8779 0.0549473 10.8779 0.120636V1.80913H10.0339V2.49907C7.45261 2.93245 5.4522 5.07168 5.23283 7.71989H5.20845C4.94239 7.71989 4.72632 7.93679 4.72632 8.20202C4.72632 8.46891 4.94239 8.68498 5.20845 8.68498Z" fill="white"/>
<path d="M19.2018 20.7941H18.5986V15.2448H19.2018C19.5356 15.2448 19.805 14.9763 19.805 14.6416C19.805 14.3099 19.5356 14.0384 19.2018 14.0384H2.79654C2.46355 14.0384 2.19336 14.3099 2.19336 14.6416C2.19336 14.9763 2.46355 15.2448 2.79654 15.2448H3.39972V20.7941H2.79654C2.46355 20.7941 2.19336 21.0651 2.19336 21.3968C2.19336 21.7319 2.46355 22 2.79654 22H19.2018C19.5356 22 19.805 21.7319 19.805 21.3968C19.805 21.0659 19.5356 20.7941 19.2018 20.7941ZM16.9097 20.7941H15.8967V15.2448H16.9097V20.7941ZM10.4925 15.2448H11.5055V20.7941H10.4925V15.2448ZM8.80398 20.7941H7.79055V15.2448H8.80398V20.7941ZM13.1948 15.2448H14.2078V20.7941H13.1948V15.2448ZM5.08822 15.2448H6.10123V20.7941H5.08822V15.2448Z" fill="white"/>
<path d="M4.48496 10.7358H5.09269C5.09269 10.7449 5.08773 10.7532 5.08773 10.7598V13.3634H6.29409V10.7598C6.29409 10.7511 6.28955 10.7424 6.28955 10.7358H6.86257C6.86257 10.7449 6.85802 10.7532 6.85802 10.7598V13.3634H8.06397V10.7598C8.06397 10.7511 8.05943 10.7424 8.05943 10.7358H8.63245C8.63245 10.7449 8.62791 10.7532 8.62791 10.7598V13.3634H9.83427V10.7598C9.83427 10.7511 9.82931 10.7424 9.82931 10.7358H10.4023C10.4023 10.7449 10.3974 10.7532 10.3974 10.7598V13.3634H11.6037V10.7598C11.6037 10.7511 11.5988 10.7424 11.5988 10.7358H12.1718C12.1718 10.7449 12.1668 10.7532 12.1668 10.7598V13.3634H13.3732V10.7598C13.3732 10.7511 13.3687 10.7424 13.3687 10.7358H13.9417C13.9417 10.7449 13.9367 10.7532 13.9367 10.7598V13.3634H15.1431V10.7598C15.1431 10.7511 15.1381 10.7424 15.1381 10.7358H15.7112C15.7112 10.7449 15.7066 10.7532 15.7066 10.7598V13.3634H16.913V10.7598C16.913 10.7511 16.908 10.7424 16.908 10.7358H17.5157C17.8496 10.7358 18.1189 10.4669 18.1189 10.1326C18.1189 9.79923 17.8496 9.52945 17.5157 9.52945H4.48868C4.1561 9.52945 3.8855 9.79923 3.8855 10.1326C3.8855 10.4652 4.15156 10.7358 4.48496 10.7358Z" fill="white"/>
</svg>
