<svg width="22" height="22" viewBox="0 0 22 22" fill="none" xmlns="http://www.w3.org/2000/svg">
<path d="M16.1562 1.41797C13.5498 1.41797 11.8768 3.22317 11 4.84898C10.1232 3.22313 8.45019 1.41797 5.84375 1.41797C2.53675 1.41797 0 4.1012 0 7.65995C0 8.58851 0.185926 9.44578 0.528258 10.2695H5.44534L6.55626 8.04766C6.77531 7.61084 7.49031 7.61084 7.70937 8.04766L9.71094 12.0508L10.4234 10.6258C10.6425 10.189 11.3575 10.189 11.5766 10.6258L12.2891 12.0508L14.2906 8.0477C14.5097 7.61088 15.2247 7.61088 15.4437 8.0477L16.5547 10.2695H21.4717C21.8141 9.44578 22 8.58851 22 7.65995C22 4.1012 19.4633 1.41797 16.1562 1.41797Z" fill="white"/>
<path d="M16.1561 11.5586C15.9119 11.5586 15.6891 11.4207 15.5796 11.2023L14.8671 9.77732L12.8655 13.7805C12.756 13.9989 12.5332 14.1367 12.2889 14.1367C12.0447 14.1367 11.8219 13.9989 11.7124 13.7805L10.9999 12.3554L10.2874 13.7805C10.0683 14.2173 9.35331 14.2173 9.13426 13.7805L7.13269 9.77732L6.42018 11.2023C6.31065 11.4207 6.08786 11.5586 5.84363 11.5586H1.20459C2.53116 13.6458 4.92027 15.6283 7.90875 18.1506C8.74775 18.8586 9.6403 19.6121 10.5775 20.4247C10.699 20.5298 10.8494 20.582 10.9998 20.582C11.1503 20.582 11.3007 20.5298 11.4222 20.4247C12.3594 19.6121 13.2519 18.8587 14.0909 18.1506C17.0794 15.6283 19.4685 13.6458 20.7951 11.5586H16.1561Z" fill="white"/>
</svg>
