<svg width="22" height="22" viewBox="0 0 22 22" fill="none" xmlns="http://www.w3.org/2000/svg">
<g clip-path="url(#clip0)">
<path d="M11.0437 4.64879L2.58472 13.0277V21.3554C2.58472 21.7116 2.86444 22 3.22065 22H7.81242V14.8053C7.81242 14.4491 8.10934 14.1693 8.46555 14.1693H13.6218C13.978 14.1693 14.2663 14.4491 14.2663 14.8053V21.9999H18.778C19.1343 21.9999 19.414 21.7116 19.414 21.3554V13.0277L11.0437 4.64879ZM11.0437 12.8717C9.62227 12.8717 8.46555 11.7154 8.46555 10.2936C8.46555 8.87171 9.62227 7.71543 11.0437 7.71543C12.4647 7.71543 13.6218 8.87171 13.6218 10.2936C13.6218 11.7154 12.4647 12.8717 11.0437 12.8717Z" fill="white"/>
<path d="M11.043 9.00455C10.3317 9.00455 9.75391 9.58295 9.75391 10.2936C9.75391 11.0042 10.3317 11.5827 11.043 11.5827C11.7542 11.5827 12.332 11.0042 12.332 10.2936C12.332 9.58299 11.7542 9.00455 11.043 9.00455Z" fill="white"/>
<path d="M13.0195 15.4756H9.15234V22H13.0195V15.4756Z" fill="white"/>
<path d="M21.8592 10.2127C21.8587 10.2117 21.8587 10.2106 21.8583 10.2096C21.6347 9.65804 15.9853 4.12173 15.5557 3.69222L12.4111 0.547594C11.681 -0.182531 10.407 -0.182531 9.67689 0.547594C9.213 1.01148 0.373511 9.63639 0.141136 10.2095C0.140749 10.2105 0.140663 10.2118 0.140663 10.2118C-0.141341 10.9106 -0.000102438 11.7404 0.564808 12.3053C0.726499 12.4673 0.913413 12.5816 1.10926 12.6722L10.5883 3.28182C10.8401 3.03007 11.248 3.03007 11.4998 3.28182L20.896 12.6781C21.0923 12.5845 21.2763 12.4635 21.4346 12.3053C21.9995 11.7404 22.1407 10.9105 21.8592 10.2127Z" fill="white"/>
<path d="M18.7795 1.29597H16.2013C15.8584 1.29597 15.585 1.53943 15.5645 1.87704L19.4154 5.73657V1.91472C19.4154 1.55847 19.1357 1.29597 18.7795 1.29597Z" fill="white"/>
</g>
<defs>
<clipPath id="clip0">
<rect width="22" height="22" fill="white"/>
</clipPath>
</defs>
</svg>
