<svg width="22" height="22" viewBox="0 0 22 22" fill="none" xmlns="http://www.w3.org/2000/svg">
<path d="M11 19.4648C10.5253 19.4648 10.1406 19.0801 10.1406 18.6055C10.1406 18.1308 10.5253 17.7461 11 17.7461C11.4747 17.7461 11.8594 18.1308 11.8594 18.6055C11.8594 19.0801 11.4747 19.4648 11 19.4648ZM17.4023 12.5469C17.877 12.5469 18.2617 12.1622 18.2617 11.6875V3.4375C18.2617 1.54201 16.7197 0 14.8242 0H7.17578C5.28029 0 3.73828 1.54201 3.73828 3.4375V18.5625C3.73828 20.458 5.28029 22 7.17578 22H14.8242C16.7197 22 18.2617 20.458 18.2617 18.5625V15.9844C18.2617 15.5097 17.877 15.125 17.4023 15.125H8.03516C7.56049 15.125 7.17578 15.5097 7.17578 15.9844C7.17578 16.459 7.56049 16.8438 8.03516 16.8438H16.543V18.5625C16.543 19.5102 15.7719 20.2812 14.8242 20.2812H7.17578C6.22812 20.2812 5.45703 19.5102 5.45703 18.5625V3.4375C5.45703 2.48984 6.22812 1.71875 7.17578 1.71875H14.8242C15.7719 1.71875 16.543 2.48984 16.543 3.4375V11.6875C16.543 12.1622 16.9277 12.5469 17.4023 12.5469Z" fill="white"/>
</svg>
