<svg width="22" height="22" viewBox="0 0 22 22" fill="none" xmlns="http://www.w3.org/2000/svg">
<g clip-path="url(#clip0)">
<path d="M8.127 11.3914L6.94175 10.2062C6.49533 9.75974 6.49533 9.03283 6.94175 8.58549L12.7772 2.74999L11.2006 1.17333C11.0044 0.977159 10.9448 0.681076 11.0512 0.424409C11.1575 0.167742 11.4096 -7.62939e-06 11.6873 -7.62939e-06H17.6457C18.0252 -7.62939e-06 18.3332 0.307992 18.3332 0.687492V6.64583C18.3332 6.92358 18.1654 7.17474 17.9087 7.28108C17.6521 7.38741 17.3569 7.32966 17.1598 7.13166L15.5832 5.55591L9.74766 11.3914C9.30216 11.836 8.57616 11.8397 8.127 11.3914Z" fill="#71E5A8"/>
<path d="M10.3128 22H4.35449C3.97499 22 3.66699 21.692 3.66699 21.3125V15.3542C3.66699 15.0764 3.83474 14.8252 4.09141 14.7189C4.34808 14.6126 4.64416 14.6712 4.84033 14.8683L6.41699 16.4441L12.2525 10.6086C12.6989 10.1622 13.4258 10.1622 13.8732 10.6086L15.0584 11.7938C15.5048 12.2402 15.5048 12.9672 15.0584 13.4145L9.22291 19.25L10.7996 20.8267C10.9957 21.0228 11.0553 21.3189 10.949 21.5756C10.8427 21.8323 10.5906 22 10.3128 22Z" fill="#71E5A8"/>
</g>
<defs>
<clipPath id="clip0">
<rect width="22" height="22" fill="white"/>
</clipPath>
</defs>
</svg>
