<svg width="26" height="26" viewBox="0 0 26 26" fill="none" xmlns="http://www.w3.org/2000/svg">
<path d="M4.75 2C3.23385 2 2 3.23385 2 4.75C2 6.26615 3.23385 7.5 4.75 7.5C6.26615 7.5 7.5 6.26615 7.5 4.75C7.5 3.23385 6.26615 2 4.75 2Z" fill="white"/>
<path d="M4.75 10.25C3.23385 10.25 2 11.4838 2 13C2 14.5162 3.23385 15.75 4.75 15.75C6.26615 15.75 7.5 14.5162 7.5 13C7.5 11.4838 6.26615 10.25 4.75 10.25Z" fill="white"/>
<path d="M4.75 18.5C3.23385 18.5 2 19.7338 2 21.25C2 22.7662 3.23385 24 4.75 24C6.26615 24 7.5 22.7662 7.5 21.25C7.5 19.7338 6.26615 18.5 4.75 18.5Z" fill="white"/>
<path d="M13 2C11.4838 2 10.25 3.23385 10.25 4.75C10.25 6.26615 11.4838 7.5 13 7.5C14.5162 7.5 15.75 6.26615 15.75 4.75C15.75 3.23385 14.5162 2 13 2Z" fill="white"/>
<path d="M13 10.25C11.4838 10.25 10.25 11.4838 10.25 13C10.25 14.5162 11.4838 15.75 13 15.75C14.5162 15.75 15.75 14.5162 15.75 13C15.75 11.4838 14.5162 10.25 13 10.25Z" fill="white"/>
<path d="M13 18.5C11.4838 18.5 10.25 19.7338 10.25 21.25C10.25 22.7662 11.4838 24 13 24C14.5162 24 15.75 22.7662 15.75 21.25C15.75 19.7338 14.5162 18.5 13 18.5Z" fill="white"/>
<path d="M21.25 7.5C22.7662 7.5 24 6.26615 24 4.75C24 3.23385 22.7662 2 21.25 2C19.7338 2 18.5 3.23385 18.5 4.75C18.5 6.26615 19.7338 7.5 21.25 7.5Z" fill="white"/>
<path d="M21.25 10.25C19.7338 10.25 18.5 11.4838 18.5 13C18.5 14.5162 19.7338 15.75 21.25 15.75C22.7662 15.75 24 14.5162 24 13C24 11.4838 22.7662 10.25 21.25 10.25Z" fill="white"/>
<path d="M21.25 18.5C19.7338 18.5 18.5 19.7338 18.5 21.25C18.5 22.7662 19.7338 24 21.25 24C22.7662 24 24 22.7662 24 21.25C24 19.7338 22.7662 18.5 21.25 18.5Z" fill="white"/>
</svg>
