<svg width="26" height="26" viewBox="0 0 26 26" fill="none" xmlns="http://www.w3.org/2000/svg">
<path fill-rule="evenodd" clip-rule="evenodd" d="M17.8268 14.3453L8.01909 4.53757C8.11798 3.35925 8.60117 2.33632 9.46876 1.46887C10.4479 0.489862 11.625 0 13 0C14.3751 0 15.552 0.489862 16.5311 1.46887C17.5105 2.44811 17.9996 3.62507 17.9996 5.00014V13C17.9996 13.4717 17.942 13.9201 17.8268 14.3453ZM14.3463 17.8264L8 11.4802V13C8 14.375 8.48975 15.5525 9.46876 16.5312C10.4478 17.51 11.625 17.9996 13 17.9996C13.4721 17.9996 13.9209 17.9419 14.3463 17.8264ZM15.9073 19.3875L17.3909 20.8711C16.3695 21.4447 15.2392 21.8001 14.0003 21.937V23.9997H17.9997C18.2706 23.9997 18.5052 24.0988 18.7028 24.2968C18.901 24.4946 19 24.7291 19 24.9999C19 25.2703 18.901 25.5052 18.7028 25.7029C18.5052 25.9008 18.2705 26 17.9997 26H8.00005C7.72921 26 7.49487 25.9007 7.29698 25.7029C7.09903 25.5052 7.00003 25.2703 7.00003 24.9999C7.00003 24.729 7.09903 24.4946 7.29698 24.2968C7.49487 24.0988 7.72921 23.9997 8.00005 23.9997H12V21.937C9.73944 21.6872 7.84102 20.7107 6.30467 19.0077C4.76837 17.3047 4 15.3021 4 13V10.9999C4 10.7291 4.09895 10.4948 4.29695 10.2969C4.49479 10.0989 4.72918 9.99994 5.00019 9.99994C5.2712 9.99994 5.50532 10.0989 5.70327 10.2969C5.90111 10.4948 6.00011 10.7291 6.00011 10.9999V13C6.00011 14.9272 6.68491 16.5758 8.05462 17.9452C9.42449 19.315 11.0729 19.9999 13 19.9999C14.0522 19.9999 15.0213 19.7958 15.9073 19.3875ZM20.8725 17.391L19.3879 15.9063C19.796 15.0206 20.0001 14.0518 20.0001 13V10.9999C20.0001 10.7291 20.099 10.4948 20.2967 10.2969C20.4949 10.0989 20.7292 9.99994 20.9998 9.99994C21.2707 9.99994 21.5055 10.0989 21.7029 10.2969C21.9011 10.495 22.0003 10.7292 22.0003 10.9999V13C22.0003 14.6102 21.6243 16.0739 20.8725 17.391Z" fill="white"/>
<rect x="3.83008" y="2.37183" width="28.3357" height="2.0624" rx="1.0312" transform="rotate(45 3.83008 2.37183)" fill="white"/>
</svg>
