<svg width="26" height="26" viewBox="0 0 26 26" fill="none" xmlns="http://www.w3.org/2000/svg">
<path d="M13.0062 26C13.6608 26 14.2166 25.4807 14.2166 24.8528V14.1895H24.8019C25.4442 14.1895 26 13.6461 26 13.006C26 12.3539 25.4442 11.8226 24.8019 11.8226H14.2166V1.14724C14.2166 0.519275 13.6608 0 13.0062 0C12.3392 0 11.7957 0.519275 11.7957 1.14724V11.8226H1.21045C0.568171 11.8226 0 12.3539 0 13.006C0 13.6461 0.568171 14.1895 1.21045 14.1895H11.7957V24.8528C11.7957 25.4807 12.3392 26 13.0062 26Z" fill="white"/>
</svg>
