<svg width="26" height="26" viewBox="0 0 26 26" fill="none" xmlns="http://www.w3.org/2000/svg">
<path d="M14.9124 2.07791C14.639 1.94749 14.3169 1.98206 14.0812 2.1722L6.43805 8.28636H2.78621C1.92039 8.28636 1.21484 8.99191 1.21484 9.85773V16.1432C1.21484 17.0106 1.92039 17.7145 2.78621 17.7145H6.43805L14.0796 23.8287C14.2226 23.9418 14.397 24 14.5714 24C14.6877 24 14.804 23.9733 14.9124 23.9214C15.1842 23.791 15.3571 23.516 15.3571 23.2143V2.7866C15.3571 2.4849 15.1842 2.20991 14.9124 2.07791Z" fill="white"/>
<path d="M19.3345 7.44412C19.0249 7.13927 18.5284 7.14399 18.2235 7.4504C17.9187 7.75996 17.9218 8.25651 18.2298 8.56293C19.4177 9.73516 20.0714 11.3112 20.0714 13.0004C20.0714 14.6897 19.4177 16.2657 18.2298 17.438C17.9218 17.7412 17.9187 18.2394 18.2235 18.5489C18.3775 18.7045 18.5802 18.7815 18.7813 18.7815C18.9809 18.7815 19.1805 18.7061 19.3345 18.5536C20.8241 17.0876 21.6428 15.1139 21.6428 13.0004C21.6428 10.887 20.8241 8.91334 19.3345 7.44412Z" fill="white"/>
<path d="M21.5511 5.23013C21.2415 4.92371 20.745 4.92686 20.4385 5.23484C20.1337 5.54283 20.1368 6.04095 20.4433 6.3458C22.2299 8.11672 23.2136 10.48 23.2136 13.0005C23.2136 15.521 22.2299 17.8827 20.4433 19.6537C20.1368 19.9601 20.1337 20.4582 20.4385 20.7662C20.5941 20.9202 20.7952 20.9972 20.9964 20.9972C21.1959 20.9972 21.3971 20.9217 21.5511 20.7693C23.6378 18.703 24.7849 15.9437 24.7849 13.0005C24.7849 10.0574 23.6378 7.29804 21.5511 5.23013Z" fill="white"/>
</svg>
