<svg width="40" height="40" viewBox="0 0 40 40" fill="none" xmlns="http://www.w3.org/2000/svg">
<g clip-path="url(#clip0)">
<path d="M21.608 8.36156C21.608 7.47484 20.8866 6.75351 20 6.75351C19.1133 6.75351 18.3919 7.47492 18.3919 8.36156V15.2134H16.0482V5.58156C16.0482 4.69484 15.3268 3.97351 14.4401 3.97351C13.5534 3.97351 12.832 4.69492 12.832 5.58156V15.2134H10.4883V5.58156C10.4883 4.69484 9.76685 3.97351 8.88021 3.97351C7.99357 3.97351 7.27216 4.69492 7.27216 5.58156V15.2134V21.9105H4.92841V15.2134C4.92841 14.3267 4.207 13.6054 3.32036 13.6054H1.71216L1.71325 21.7002C1.71372 24.9461 2.34396 28.1124 3.58646 31.1112C4.61435 33.5918 4.71279 36.3609 3.86364 38.9084L3.75724 39.2276C4.24411 39.3342 4.61708 39.4811 4.96497 39.6181C5.50654 39.8314 5.93435 39.9999 6.88826 39.9999C7.84208 39.9999 8.2699 39.8314 8.81146 39.6181C9.45982 39.3627 10.1948 39.0733 11.5936 39.0733C12.9925 39.0733 13.7275 39.3627 14.376 39.6181C14.9177 39.8314 15.3455 39.9999 16.2996 39.9999C17.2537 39.9999 17.6815 39.8314 18.2232 39.6181C18.5712 39.4811 18.944 39.3342 19.4311 39.2275L19.3391 38.9516C18.4796 36.373 18.5903 33.5746 19.6508 31.0719L19.659 31.0525C20.9522 28.001 21.608 24.7725 21.608 21.4573V8.36156Z" fill="white" fill-opacity="0.25"/>
<path d="M36.6794 2.77992C35.7927 2.77992 35.0714 3.50133 35.0714 4.38797V11.2398H32.7276V1.60805C32.7276 0.721406 32.0062 0 31.1195 0C30.2328 0 29.5115 0.721406 29.5115 1.60805V11.2399H27.1677V1.60805C27.1677 0.721406 26.4463 0 25.5597 0C24.6729 0 23.9515 0.721406 23.9515 1.60805V21.4574C23.9515 25.0886 23.2332 28.6248 21.8164 31.968L21.8082 31.9874C21.3408 33.0905 21.1073 34.2666 21.1101 35.4448C21.3033 35.5108 21.4791 35.5795 21.6446 35.6446C22.1862 35.8579 22.614 36.0264 23.5679 36.0264C24.5218 36.0264 24.9496 35.8579 25.4912 35.6446C26.1396 35.3892 26.8745 35.0998 28.2733 35.0998C29.6722 35.0998 30.4072 35.3892 31.0556 35.6446C31.5973 35.8579 32.0251 36.0264 32.9792 36.0264C33.9333 36.0264 34.3611 35.8579 34.9028 35.6446C35.2508 35.5076 35.6237 35.3607 36.1108 35.2541L36.0187 34.978C35.1592 32.3995 35.2699 29.6011 36.3305 27.0985L36.3383 27.0799C37.6319 24.0276 38.2877 20.799 38.2877 17.4839V4.38805C38.2876 3.50133 37.5662 2.77992 36.6794 2.77992Z" fill="white" fill-opacity="0.25"/>
</g>
<defs>
<clipPath id="clip0">
<rect width="40" height="40" fill="white"/>
</clipPath>
</defs>
</svg>
