<svg width="40" height="40" viewBox="0 0 40 40" fill="none" xmlns="http://www.w3.org/2000/svg">
<path d="M10.2795 28.3512H29.7217V33.906H10.2795V28.3512ZM35.5623 4.32957L33.35 13.4448C34.2074 15.3053 34.6913 17.372 34.6951 19.5498L34.7243 36.3736C34.7259 37.3302 34.3549 38.2304 33.6798 38.908C33.0044 39.5857 32.1056 39.9598 31.1491 39.9614L8.89387 40C8.89327 40 8.88828 40 8.88768 40C6.91648 40 5.30967 38.396 5.30607 36.4248L5.2771 19.6009C5.27331 17.4178 5.74358 15.3073 6.63659 13.3845L4.43864 4.32957C4.32437 3.8585 4.54172 3.36924 4.96805 3.1383L8.64415 1.14672C8.93562 0.988698 9.28384 0.975312 9.5867 1.10976C9.88956 1.24441 10.1129 1.51191 10.1912 1.83415L11.5695 7.51262C12.2258 7.05274 12.916 6.65138 13.6322 6.30717V5.55481C13.632 2.49182 16.1238 0 19.1868 0H20.8142C23.8772 0 26.369 2.49182 26.369 5.55481V6.33214C27.088 6.68095 27.776 7.0845 28.4245 7.54079L29.8096 1.83415C29.8879 1.51191 30.111 1.24441 30.4141 1.10976C30.7169 0.975113 31.0649 0.988698 31.3566 1.14672L35.0327 3.1383C35.4592 3.36944 35.6766 3.8585 35.5623 4.32957ZM15.7722 5.48029C17.1141 5.07994 18.5207 4.86877 19.9605 4.86637H19.9867C21.4617 4.86637 22.8855 5.08813 24.2298 5.49547C24.1976 3.63814 22.6791 2.13662 20.8144 2.13662H19.187C17.3271 2.13642 15.8124 3.62995 15.7722 5.48029ZM31.8581 27.283C31.8581 26.693 31.3798 26.2148 30.7899 26.2148H9.21132C8.62138 26.2148 8.14311 26.693 8.14311 27.283V34.9744C8.14311 35.5643 8.62138 36.0426 9.21132 36.0426H30.7899C31.3798 36.0426 31.8581 35.5643 31.8581 34.9744V27.283ZM31.8581 20.0908C31.8581 13.5525 26.5388 8.23322 20.0005 8.23322C13.4622 8.23322 8.14291 13.5525 8.14291 20.0908C8.14291 20.6807 8.62118 21.159 9.21112 21.159C9.80106 21.159 10.2793 20.6807 10.2793 20.0908C10.2793 14.7306 14.6401 10.3698 20.0003 10.3698C25.3605 10.3698 29.7213 14.7306 29.7213 20.0908C29.7213 20.6807 30.1995 21.159 30.7895 21.159C31.3794 21.159 31.8581 20.6807 31.8581 20.0908Z" fill="white" fill-opacity="0.25"/>
</svg>
