<svg width="40" height="40" viewBox="0 0 40 40" fill="none" xmlns="http://www.w3.org/2000/svg">
<path d="M26.5009 0H13.499L10.7942 6.29094C11.6666 5.70406 12.5947 5.20164 13.5726 4.78805C15.6097 3.92648 17.7721 3.48961 20 3.48961C22.2279 3.48961 24.3903 3.92648 26.4273 4.78805C27.4052 5.20164 28.3333 5.70406 29.2058 6.29094L26.5009 0Z" fill="white" fill-opacity="0.25"/>
<path d="M26.4283 35.2119C24.3912 36.0734 22.2288 36.5103 20.0009 36.5103C17.773 36.5103 15.6106 36.0734 13.5736 35.2119C12.5957 34.7983 11.6675 34.2959 10.795 33.709L13.5 39.9999H26.5019L29.2067 33.709C28.3342 34.2959 27.4061 34.7983 26.4283 35.2119Z" fill="white" fill-opacity="0.25"/>
<path d="M19.9992 5.83337C12.1751 5.83337 5.83252 12.176 5.83252 20C5.83252 27.824 12.1752 34.1667 19.9992 34.1667C27.8231 34.1667 34.1658 27.824 34.1658 20C34.1658 12.176 27.8231 5.83337 19.9992 5.83337ZM18.8273 10H21.171V17.9702L26.6301 14.8185L27.802 16.8481L20.5851 21.0149L18.8273 20V10ZM11.9249 26.0149L10.753 23.9852L13.6397 22.3185L14.8116 24.3482L11.9249 26.0149ZM13.6397 17.6816L10.753 16.0149L11.9249 13.9852L14.8116 15.6519L13.6397 17.6816ZM21.171 30H18.8273V26.6667H21.171V30ZM28.0735 26.0149L25.1867 24.3482L26.3586 22.3185L29.2453 23.9852L28.0735 26.0149Z" fill="white" fill-opacity="0.25"/>
</svg>
