<svg width="40" height="40" viewBox="0 0 40 40" fill="none" xmlns="http://www.w3.org/2000/svg">
<g clip-path="url(#clip0)">
<path d="M39.2351 18.9804L27.0942 9.29688L22.8656 12.1155L24.1657 14.1L26.9684 12.1968L32.6886 16.7455C32.0471 16.682 31.3655 16.6406 30.625 16.6406C27.3321 16.6406 23.5292 17.3684 21.1719 19.671V20.1562C21.1719 20.8028 20.6466 21.3281 20 21.3281C19.3534 21.3281 18.8281 20.8028 18.8281 20.1562V19.671C16.4704 17.368 12.6666 16.6406 9.375 16.6406C8.63445 16.6406 7.95289 16.682 7.31148 16.7455L13.0317 12.1968L15.8344 14.1L17.1345 12.1155L12.9058 9.29688L0.764922 18.9804C0.307891 19.3286 0.278125 19.4018 0 19.671V20.1562C0 23.0802 0.567656 25.6082 1.68797 27.6705C2.70422 29.5416 4.67492 30.7031 6.82984 30.7031H11.9983C14.1544 30.7031 16.1239 29.5404 17.139 27.6705C17.8258 26.4056 18.2792 24.9466 18.5475 23.3488C18.9915 23.5517 19.4807 23.6719 20 23.6719C20.5193 23.6719 21.0082 23.5517 21.4523 23.3488C21.7202 24.9462 22.1733 26.4051 22.8599 27.6704C23.8761 29.5416 25.8468 30.7031 28.0017 30.7031H33.1702C35.3251 30.7031 37.2958 29.5416 38.312 27.6693C39.4323 25.6059 40 23.0779 40 20.1562V19.671C39.7129 19.393 39.6886 19.3259 39.2351 18.9804Z" fill="white" fill-opacity="0.25"/>
</g>
<defs>
<clipPath id="clip0">
<rect width="40" height="40" fill="white"/>
</clipPath>
</defs>
</svg>
