<svg width="40" height="40" viewBox="0 0 40 40" fill="none" xmlns="http://www.w3.org/2000/svg">
<g clip-path="url(#clip0)">
<path d="M31.289 40.0001V25.936C31.289 25.29 31.552 24.7037 31.9764 24.2794C32.4005 23.8552 32.9866 23.5921 33.6329 23.5921H38.6335V19.4519H38.6298C38.6294 19.0548 38.4267 18.6679 38.0612 18.4493C35.9103 17.1614 34.844 14.4738 34.844 11.8732C34.844 9.64329 35.6986 7.75095 36.9783 6.25981C38.1012 4.95142 37.47 2.9186 35.8056 2.47372L26.6948 0.0387511L26.6945 0.0396887C26.1785 -0.098682 25.6173 0.132196 25.358 0.624737C23.7261 3.72335 19.8088 4.81399 16.8224 3.01907C15.8964 2.46254 15.1309 1.66654 14.6096 0.716619C14.3788 0.201968 13.8025 -0.0841496 13.2399 0.0661753L4.23174 2.47372C2.56723 2.91852 1.93616 4.95142 3.05899 6.25981C5.99673 9.68314 6.04307 15.9357 2.00937 18.4456C1.62708 18.6386 1.36487 19.0348 1.36487 19.4924V23.5922H6.36528C7.0115 23.5922 7.59765 23.8553 8.02182 24.2795C8.44607 24.7038 8.70922 25.2901 8.70922 25.9361V40.0002H31.289V40.0001ZM12.2279 23.5924H27.7732C28.4205 23.5924 28.9452 24.1171 28.9452 24.7644C28.9452 25.4116 28.4205 25.9363 27.7732 25.9363H12.2279C11.5806 25.9363 11.0559 25.4116 11.0559 24.7644C11.0559 24.1171 11.5806 23.5924 12.2279 23.5924ZM12.2279 28.2803H27.7732C28.4205 28.2803 28.9452 28.805 28.9452 29.4523C28.9452 30.0995 28.4205 30.6242 27.7732 30.6242H12.2279C11.5806 30.6242 11.0559 30.0995 11.0559 29.4523C11.0559 28.805 11.5806 28.2803 12.2279 28.2803ZM12.2279 32.9682H27.7732C28.4205 32.9682 28.9452 33.4929 28.9452 34.1401C28.9452 34.7874 28.4205 35.3121 27.7732 35.3121H12.2279C11.5806 35.3121 11.0559 34.7874 11.0559 34.1401C11.0559 33.4929 11.5806 32.9682 12.2279 32.9682Z" fill="white" fill-opacity="0.25"/>
<path d="M33.6344 25.936L33.6346 25.9361L33.6344 25.936Z" fill="white" fill-opacity="0.25"/>
<path d="M6.36613 25.9362C6.36637 25.9361 6.36652 25.936 6.36613 25.936L6.36582 25.9363L6.36543 25.9367C6.36559 25.9368 6.36574 25.9365 6.36574 25.9363L6.3659 25.9361C6.36605 25.9357 6.36598 25.9358 6.3659 25.936H1.36572V38.8281C1.36572 39.4754 1.89045 40.0001 2.53769 40.0001H6.36613V25.9362Z" fill="white" fill-opacity="0.25"/>
<path d="M33.6347 25.9363L33.6352 25.9367C33.6351 25.9369 33.6349 25.9366 33.6347 25.9363L33.6347 25.9362C33.6346 25.9362 33.6344 25.9363 33.6346 25.9363V40.0001H37.4632C38.1104 40.0001 38.6352 39.4754 38.6352 38.8282V25.9361H33.6347V25.9363Z" fill="white" fill-opacity="0.25"/>
</g>
<defs>
<clipPath id="clip0">
<rect width="40" height="40" fill="white"/>
</clipPath>
</defs>
</svg>
