<svg width="40" height="40" viewBox="0 0 40 40" fill="none" xmlns="http://www.w3.org/2000/svg">
<g clip-path="url(#clip0)">
<path d="M33.8146 9.89838C29.2706 -0.875323 20.2502 0.0180636 20.2502 0.0180636H19.75C19.75 0.0180636 10.7296 -0.875323 6.18551 9.89831C2.35213 18.9843 8.2963 32.8921 10.2501 37.0223C10.5648 37.6881 11.3876 38.451 12.084 38.69C13.6917 39.2415 16.6502 40.0708 19.7508 39.9951H20.251C23.3508 40.07 26.3094 39.2414 27.9164 38.69C28.6128 38.451 29.4355 37.6881 29.7495 37.0223C31.7046 32.8915 37.648 18.9844 33.8146 9.89838ZM31.9672 21.8351C31.1009 23.7533 28.7183 24.292 27.5501 24.4425C27.1848 24.4896 27.0299 24.763 27.1491 25.1119C27.2911 25.5315 27.4295 26.1373 27.386 26.833C27.3439 27.4952 27.1798 28.034 27.0249 28.4079C26.8837 28.7483 26.9614 29.1786 27.1883 29.4691C27.6172 30.0171 28.1481 31.0675 27.8862 32.7465C27.4688 35.4119 25.4715 36.8282 20.2652 36.8282H19.7357C14.5288 36.8282 12.5307 35.4124 12.1139 32.7465C11.852 31.0675 12.3822 30.0171 12.8111 29.4691C13.038 29.1786 13.1158 28.7476 12.9745 28.4079C12.8197 28.034 12.6548 27.4952 12.6134 26.833C12.5691 26.1365 12.7083 25.5315 12.8497 25.1119C12.9681 24.7636 12.8139 24.4903 12.4486 24.4425C11.2797 24.2919 8.89777 23.7525 8.03221 21.8351C7.14666 19.8742 7.84595 17.0477 8.23414 15.8025C8.34406 15.4514 8.44682 14.8727 8.46033 14.5052C8.57808 11.2612 9.54639 9.78264 10.1708 9.16111C10.4319 8.90209 10.6225 9.0491 10.586 9.41587C10.489 10.3906 10.5739 12.2602 12.2808 13.6739C13.8921 15.0069 15.3178 14.8577 16.0892 14.6108C16.4395 14.4988 16.6786 14.6393 16.7314 15.0033C17.0797 17.4095 19.7356 17.3382 19.7356 17.3382H20.265C20.265 17.3382 22.9203 17.4095 23.2685 15.0033C23.3205 14.6393 23.5603 14.4987 23.9107 14.6108C24.682 14.8578 26.1078 15.0069 27.7198 13.6739C29.4267 12.2603 29.5117 10.3907 29.4146 9.41587C29.3775 9.0491 29.5701 8.90209 29.8298 9.16185C30.4535 9.78339 31.4219 11.2626 31.5395 14.5059C31.5524 14.8734 31.6565 15.4514 31.765 15.8025C32.1528 17.0477 32.8528 19.8742 31.9672 21.8351Z" fill="white" fill-opacity="0.25"/>
<path d="M17.3588 20.1882C17.5108 19.9706 17.6485 19.718 17.7413 19.4311C17.9674 18.7311 17.276 17.822 16.5781 17.5865C15.8303 17.3347 14.7185 17.0542 13.1864 16.8879C12.4543 16.8094 11.2226 16.8686 10.6725 17.3567C10.3064 17.6814 9.99247 18.1824 9.96964 18.9473C9.92113 20.6164 11.867 21.2001 15.0803 21.1602C15.8154 21.1515 16.9371 20.7911 17.3588 20.1882Z" fill="white" fill-opacity="0.25"/>
<path d="M26.5617 16.8886C25.0297 17.0542 23.9179 17.3353 23.1701 17.5872C22.4722 17.8227 21.7808 18.7318 22.007 19.4318C22.099 19.7179 22.2367 19.9713 22.3887 20.1889C22.8104 20.7926 23.9322 21.1531 24.6672 21.1615C27.8805 21.2023 29.8271 20.6179 29.7778 18.9488C29.7557 18.1838 29.441 17.6829 29.0757 17.3582C28.5255 16.8686 27.2932 16.8094 26.5617 16.8886Z" fill="white" fill-opacity="0.25"/>
<path d="M15.7823 25.5401C15.469 26.2066 15.4619 27.4104 16.1141 27.7529C16.7584 28.0925 17.9081 28.3901 19.956 28.3901C22.0361 28.3901 23.2071 28.0834 23.8672 27.7379C24.5186 27.3962 24.5379 26.2066 24.2283 25.5393C23.3306 23.6099 22.0989 22.4588 21.2069 21.8253C20.6061 21.3985 19.4958 21.3928 18.8893 21.8095C17.9716 22.4388 16.6971 23.5935 15.7823 25.5401Z" fill="white" fill-opacity="0.25"/>
<path d="M23.443 31.1646H16.5569C15.8212 31.1646 15.2246 31.5628 15.2246 32.0537C15.2246 32.5446 15.8211 32.942 16.5569 32.942H23.4422C24.1779 32.942 24.7745 32.544 24.7745 32.0537C24.7752 31.5621 24.1786 31.1646 23.443 31.1646Z" fill="white" fill-opacity="0.25"/>
</g>
<defs>
<clipPath id="clip0">
<rect width="40.0001" height="40" fill="white"/>
</clipPath>
</defs>
</svg>
