<svg width="40" height="40" viewBox="0 0 40 40" fill="none" xmlns="http://www.w3.org/2000/svg">
<g clip-path="url(#clip0)">
<path d="M39.6255 25.1478L39.4194 24.8446L39.2488 25.1691C38.135 27.285 34.4325 28.5495 31.4962 28.5495C27.7574 28.5495 9.29812 27.9876 6.89499 27.8507C6.41993 27.8226 5.92373 27.8094 5.33332 27.8094C4.9671 27.8094 4.62703 27.814 4.29814 27.8183C4.01248 27.8221 3.74295 27.8257 3.4897 27.8257C2.69949 27.8257 2.04972 27.6143 1.57537 27.4599C1.26797 27.3598 1.02511 27.2808 0.823988 27.2808C0.668922 27.2808 0.543267 27.3286 0.450544 27.4228C0.329115 27.546 0.274609 27.7373 0.278923 28.0249C0.315731 30.5127 1.63296 30.7051 3.48979 30.7051C3.7448 30.7051 4.01627 30.7015 4.30404 30.6977C4.63143 30.6933 4.97 30.6888 5.33332 30.6888C5.91484 30.6888 6.40284 30.7016 6.86945 30.7293C9.27549 30.8663 27.7536 31.4287 31.4962 31.4287C33.3959 31.4287 35.4958 30.9242 37.1135 30.0795C38.9751 29.1073 40.0002 27.799 40.0002 26.3956C40.0002 25.9332 39.8741 25.5133 39.6255 25.1478Z" fill="white" fill-opacity="0.25"/>
<path d="M3.24052 26.6311C3.49369 26.6311 3.76296 26.6275 4.04852 26.6237C4.37336 26.6193 4.70938 26.6149 5.06988 26.6149C5.64797 26.6149 6.13201 26.6277 6.59395 26.6554C8.98105 26.7924 27.3157 27.3547 31.0298 27.3547C32.9152 27.3547 34.9993 26.8502 36.6048 26.0052C38.4521 25.0328 39.4695 23.7247 39.4695 22.3216C39.4695 20.2866 37.1478 19.6295 34.6897 18.9336C33.3495 18.5542 31.9637 18.162 30.7926 17.5342C30.2652 17.2508 29.461 16.8402 28.4809 16.3493C28.4825 16.321 28.4852 16.2928 28.4852 16.2641C28.4852 15.4262 27.8037 14.7447 26.9658 14.7447C26.5897 14.7447 26.2459 14.8828 25.9803 15.1099C25.6253 14.9354 25.2614 14.7568 24.8912 14.5755C24.8581 13.7668 24.1917 13.1187 23.375 13.1187C23.0451 13.1187 22.7404 13.2255 22.4911 13.4048C22.1591 13.2433 21.8266 13.0819 21.4951 12.921C21.5021 12.8618 21.5068 12.8019 21.5068 12.7409C21.5068 11.9031 20.8252 11.2216 19.9875 11.2216C19.567 11.2216 19.1861 11.3934 18.9107 11.6702C15.6721 10.1064 13.017 8.83616 12.7791 8.72239C12.6341 8.62351 12.4725 8.57129 12.3103 8.57129C12.0488 8.57129 11.7974 8.69844 11.6376 8.91189L9.84866 11.3109C9.60898 11.6355 9.51484 11.9628 9.56882 12.2837C9.67572 12.9197 10.3317 13.3701 10.8588 13.7321C11.0687 13.8762 11.3807 14.0904 11.4308 14.1944C11.4301 14.1951 11.4294 14.1959 11.4286 14.1966C11.1371 14.4817 10.2013 14.9059 8.81797 14.9059C8.01834 14.9059 7.17573 14.7531 6.38121 14.4639C5.40898 14.1099 5.00727 13.1386 4.68455 12.3582C4.41466 11.7055 4.18149 11.1418 3.66346 11.1418C3.27046 11.1418 2.81574 11.4944 2.14071 12.3235C-0.153757 15.2399 -0.0465056 19.696 0.0318639 22.9496C0.0402292 23.2981 0.0483304 23.6329 0.0529973 23.9507C0.0894524 26.4389 1.39708 26.6311 3.24052 26.6311ZM22.4713 17.5906C22.4713 17.5906 22.7656 17.2993 23.1293 17.4082C23.4459 17.5029 24.1944 17.7046 24.6524 17.8184C25.044 17.9157 24.6905 18.2235 24.6905 18.2235L18.745 23.6654C18.7403 23.6689 18.4985 23.8894 18.1315 23.8894C17.5392 23.8894 16.3909 23.885 15.9229 23.885C15.534 23.885 15.8567 23.5568 15.8567 23.5568C15.8567 23.5568 22.4705 17.5906 22.4713 17.5906ZM17.9443 16.3061C17.9459 16.3047 18.4032 15.8537 18.9538 16.0279C19.2329 16.1162 19.8881 16.2789 20.3059 16.3958C20.6632 16.4958 20.2843 16.8644 20.2841 16.8647L12.9245 23.5371C12.9194 23.5409 12.7492 23.8485 12.1756 23.8485C11.5283 23.8485 10.2932 23.8781 9.78782 23.8781C9.50216 23.8781 9.75612 23.5709 9.75585 23.571L17.9443 16.3061Z" fill="white" fill-opacity="0.25"/>
</g>
<defs>
<clipPath id="clip0">
<rect width="40" height="40" fill="white"/>
</clipPath>
</defs>
</svg>
