<svg width="24" height="24" viewBox="0 0 24 24" fill="none" xmlns="http://www.w3.org/2000/svg">
<g clip-path="url(#clip0)">
<path d="M21.1959 9.30435C20.237 7.55328 18.9239 6.45997 17.2933 6.05482C15.3865 5.58101 13.5015 6.17511 12.3415 6.69668C12.4058 5.51923 12.3138 4.47771 12.0672 3.57677C12.5495 4.20724 13.5589 5.2497 15.0763 5.46068C15.2589 5.48604 15.4422 5.49874 15.6266 5.49874C17.0499 5.49874 18.5261 4.74312 20.0227 3.24649L20.5199 2.74933L20.0227 2.25218C18.3322 0.561673 16.668 -0.183219 15.0763 0.0380313C12.9169 0.338219 11.7865 2.32235 11.7394 2.40663L11.6763 2.51979C11.4529 2.05502 11.1755 1.64022 10.8432 1.2776C9.87227 0.21761 8.80432 0.0269219 8.68577 0.00873435L8.47188 1.39863C8.50066 1.40308 11.2407 1.88449 10.9292 6.74829C9.78115 6.21575 7.834 5.56535 5.86408 6.05487C4.23338 6.46001 2.92037 7.55333 1.96144 9.30439C1.01541 11.0319 0.760971 13.1584 1.22564 15.4541C1.62854 17.4447 2.54462 19.4258 3.80513 21.0327C5.30256 22.9416 7.04533 24.0001 8.62038 24C8.90022 23.9999 9.17519 23.9665 9.44214 23.8984C9.64971 23.8624 10.6435 23.6734 11.5788 23.2052C12.5141 23.6733 13.5078 23.8624 13.7154 23.8984C13.9824 23.9665 14.2572 24 14.5371 24C16.112 24 17.8551 22.9414 19.3524 21.0327C20.6129 19.4258 21.529 17.4446 21.9319 15.4541C22.3964 13.1584 22.142 11.0319 21.1959 9.30435Z" fill="white"/>
</g>
<defs>
<clipPath id="clip0">
<rect width="24" height="24" fill="white"/>
</clipPath>
</defs>
</svg>
