<svg width="24" height="24" viewBox="0 0 24 24" fill="none" xmlns="http://www.w3.org/2000/svg">
<path d="M12 0C5.37257 0 0 5.37257 0 12C0 18.6274 5.37257 24 12 24C18.6274 24 24 18.6274 24 12C24 5.37257 18.6274 0 12 0ZM16.0095 7.72673C17.0291 7.72673 17.8557 8.55328 17.8557 9.57289C17.8557 10.5925 17.0291 11.419 16.0095 11.419C14.9899 11.419 14.1634 10.5925 14.1634 9.57289C14.1634 8.55328 14.9899 7.72673 16.0095 7.72673ZM7.99047 7.72673C9.01007 7.72673 9.83662 8.55328 9.83662 9.57289C9.83662 10.5925 9.01007 11.419 7.99047 11.419C6.97087 11.419 6.14432 10.5925 6.14432 9.57289C6.14432 8.55328 6.97087 7.72673 7.99047 7.72673ZM12 19.5165C8.86576 19.5165 6.03054 17.5382 4.94495 14.5938L6.42968 14.0464C7.28703 16.3717 9.52557 17.9341 12 17.9341C14.4744 17.9341 16.713 16.3717 17.5703 14.0464L19.0551 14.5938C17.9695 17.5382 15.1342 19.5165 12 19.5165Z" fill="white"/>
</svg>
