<svg width="24" height="24" viewBox="0 0 24 24" fill="none" xmlns="http://www.w3.org/2000/svg">
<g clip-path="url(#clip0)">
<path d="M16.6746 18.0363C12.0193 18.0363 8.24536 14.2624 8.24536 9.60711C8.24536 6.698 9.71911 4.13304 11.9607 2.61818C11.7009 2.59929 11.4386 2.58954 11.174 2.58954C5.26163 2.58954 0.46875 7.38242 0.46875 13.2948C0.46875 19.2071 5.26163 24 11.174 24C15.9256 24 19.9541 20.9042 21.3527 16.6196C20.0142 17.5143 18.4054 18.0363 16.6746 18.0363Z" fill="white"/>
<path d="M20.5999 4.40658L23.225 0H18.422V1.40625H20.7505L18.1254 5.81283H23.5314V4.40658H20.5999Z" fill="white"/>
<path d="M16.5822 5.35577H12.2392V6.76202H14.1077L12.0819 10.1625H16.5361V8.75623H14.5565L16.5822 5.35577Z" fill="white"/>
<path d="M19.1985 13.348L20.4806 11.1957H16.8518V12.602H18.006L16.7239 14.7543H20.5315V13.348H19.1985Z" fill="white"/>
</g>
<defs>
<clipPath id="clip0">
<rect width="24" height="24" fill="white"/>
</clipPath>
</defs>
</svg>
