<svg width="19" height="26" viewBox="0 0 19 26" fill="none" xmlns="http://www.w3.org/2000/svg">
<path d="M18.05 9.57903H0.950006C0.425268 9.57903 0 9.98741 0 10.4913V22.6551C0 23.0589 0.276779 23.415 0.680207 23.5296L9.2302 25.9623C9.31825 25.9876 9.4091 26.0001 9.5 26.0001C9.5909 26.0001 9.68175 25.9876 9.77012 25.9623L18.3201 23.5296C18.7232 23.4149 19 23.0589 19 22.6551V10.4913C19 9.98741 18.5747 9.57903 18.05 9.57903ZM17.1 21.9739L9.5 24.1363L1.90001 21.9739V11.4035H17.1L17.1 21.9739Z" fill="#F02C2C"/>
<path d="M9.5 6.10352e-05C5.83297 6.10352e-05 2.85002 2.892 2.85002 6.44684V10.3089H4.75003V6.44684C4.75003 3.89823 6.88086 1.82463 9.50005 1.82463C12.1192 1.82463 14.2501 3.89823 14.2501 6.44684V10.3392H16.1501V6.44684C16.15 2.892 13.1667 6.10352e-05 9.5 6.10352e-05Z" fill="#F02C2C"/>
<path fill-rule="evenodd" clip-rule="evenodd" d="M17.1 21.9739L9.5 24.1363L1.90001 21.9739V11.4035H17.1L17.1 21.9739ZM8.55 16.5732C8.55 16.0693 8.97526 15.6609 9.5 15.6609C10.0247 15.6609 10.45 16.0693 10.45 16.5732V19.0059C10.45 19.5098 10.0247 19.9182 9.5 19.9182C8.97526 19.9182 8.55 19.5098 8.55 19.0059V16.5732Z" fill="#F02C2C"/>
</svg>
