<svg width="152" height="152" viewBox="0 0 152 152" fill="none" xmlns="http://www.w3.org/2000/svg">
<path d="M140.125 134.188C140.125 137.467 137.467 140.125 134.188 140.125H128.25V146.062C128.25 149.342 125.592 152 122.312 152C119.033 152 116.375 149.342 116.375 146.062V140.125H110.438C107.158 140.125 104.5 137.467 104.5 134.188C104.5 130.908 107.158 128.25 110.438 128.25H116.375V122.312C116.375 119.033 119.033 116.375 122.312 116.375C125.592 116.375 128.25 119.033 128.25 122.312V128.25H134.188C137.467 128.25 140.125 130.908 140.125 134.188ZM140.125 41.5625V98.5625C140.125 101.842 137.467 104.5 134.188 104.5C130.908 104.5 128.25 101.842 128.25 98.5625V47.5H116.375V65.3125C116.375 68.5918 113.717 71.25 110.438 71.25C107.158 71.25 104.5 68.5918 104.5 65.3125V47.5H47.5V65.3125C47.5 68.5918 44.8418 71.25 41.5625 71.25C38.2832 71.25 35.625 68.5918 35.625 65.3125V47.5H23.75V140.125H86.6875C89.9668 140.125 92.625 142.783 92.625 146.062C92.625 149.342 89.9668 152 86.6875 152H17.8125C14.5332 152 11.875 149.342 11.875 146.062V41.5625C11.875 38.2832 14.5332 35.625 17.8125 35.625H35.9058C38.2645 15.5928 55.3443 0 76 0C96.6557 0 113.735 15.5928 116.094 35.625H134.188C137.467 35.625 140.125 38.2832 140.125 41.5625ZM104.102 35.625C101.834 22.1632 90.0965 11.875 76 11.875C61.9035 11.875 50.1662 22.1632 47.8981 35.625H104.102Z" fill="black" fill-opacity="0.1"/>
</svg>
