<svg width="22" height="22" viewBox="0 0 22 22" fill="none" xmlns="http://www.w3.org/2000/svg">
<circle cx="11" cy="11" r="11" fill="#48B3EF"/>
<g clip-path="url(#clip0)">
<path d="M18.1274 11.0253C18.0027 10.9733 17.8594 11.002 17.764 11.0973C16.7734 12.0853 15.678 12.9627 14.4974 13.714C14.348 13.8033 14.2927 13.9926 14.3707 14.1486L14.5947 14.5973C13.5447 15.5859 12.8614 15.6639 12.6687 15.6639C12.4187 15.6639 12.3414 15.3306 12.3354 15.3306V8.99999H13.342C13.894 9.73664 14.9387 9.88533 15.6754 9.33333C16.4121 8.78133 16.5607 7.73668 16.0087 6.99999C15.4567 6.26334 14.4121 6.11465 13.6754 6.66665C13.5487 6.76131 13.4367 6.87331 13.342 6.99999H12.3334V6.48334C12.7581 6.10734 13.0007 5.56734 13.0001 5C13.0001 3.89534 12.1047 3 11.0001 3C9.89542 3 9.00008 3.89534 9.00008 5C8.99943 5.56734 9.24208 6.10734 9.66674 6.48334V6.99999H8.66008C8.10808 6.26334 7.06343 6.11465 6.32674 6.66665C5.59006 7.21865 5.4414 8.26333 5.9934 8.99999C6.5454 9.73664 7.59005 9.88533 8.32674 9.33333C8.45339 9.23868 8.56539 9.12668 8.66008 8.99999H9.66674L9.67074 15.2786C9.67074 15.2826 9.60408 15.6666 9.33274 15.6666C9.14074 15.6666 8.45674 15.586 7.40674 14.6L7.63074 14.1513C7.70874 13.9953 7.6534 13.806 7.50408 13.7167C6.32343 12.966 5.22809 12.088 4.23743 11.1C4.10809 10.9687 3.89744 10.9674 3.76609 11.0967C3.70275 11.1593 3.66675 11.2447 3.66675 11.3333C3.66675 14.8353 5.03809 15.5647 5.19475 15.6367C5.23809 15.6567 5.2854 15.6667 5.3334 15.6667H5.77874C6.5614 17.366 8.43808 17.9547 9.69608 18.3493C10.0341 18.4353 10.3614 18.56 10.6707 18.722C10.7014 18.9033 10.8734 19.026 11.0547 18.9953C11.1947 18.972 11.3041 18.862 11.3281 18.722C11.6374 18.56 11.9647 18.4353 12.3027 18.3493C13.5614 17.9547 15.4361 17.366 16.2201 15.6667H16.6667C16.7147 15.6667 16.7621 15.6567 16.8054 15.6367C16.962 15.5647 18.3334 14.8353 18.3334 11.3333C18.3334 11.1986 18.2521 11.0766 18.1274 11.0253ZM11.0001 5.66665C10.6321 5.66665 10.3334 5.368 10.3334 5C10.3334 4.632 10.6321 4.33334 11.0001 4.33334C11.3681 4.33334 11.6667 4.632 11.6667 5C11.6667 5.368 11.3681 5.66665 11.0001 5.66665Z" fill="white"/>
</g>
<defs>
<clipPath id="clip0">
<rect width="16" height="16" fill="white" transform="translate(3 3)"/>
</clipPath>
</defs>
</svg>
