<svg width="30" height="30" viewBox="0 0 30 30" fill="none" xmlns="http://www.w3.org/2000/svg">
<path fill-rule="evenodd" clip-rule="evenodd" d="M30 15C30 23.2843 23.2843 30 15 30C6.71573 30 0 23.2843 0 15C0 6.71573 6.71573 0 15 0C23.2843 0 30 6.71573 30 15ZM17.5608 8.17969C19.8694 8.35547 21.8205 9.88476 21.8205 9.88476C21.8205 9.88476 24.0002 13.0488 24.3869 19.2598C22.1897 21.7969 18.8498 21.8145 18.8498 21.8145L18.1526 20.8828C19.3362 20.4727 20.678 19.7344 21.8322 18.4043C20.4494 19.4531 18.3694 20.5371 15.0119 20.5371C11.6545 20.5371 9.56858 19.4473 8.19162 18.4043C9.34592 19.7344 10.6877 20.4727 11.8713 20.8828L11.174 21.8145C11.174 21.8145 7.8342 21.7969 5.63694 19.2598C6.01194 13.0488 8.19162 9.88476 8.19162 9.88476C8.19162 9.88476 10.0315 8.4082 12.4514 8.17969L12.6565 8.5957C10.7522 9.02344 9.61545 9.83789 8.6135 10.7344C10.3362 9.85547 12.0412 9.02929 15.0061 9.02929C17.9709 9.02929 19.676 9.85547 21.3987 10.7344C20.3967 9.83789 19.4416 9.10547 17.3557 8.5957L17.5608 8.17969ZM10.7346 15.8496C10.7346 16.793 11.4026 17.5547 12.2287 17.5547C13.0549 17.5547 13.7229 16.793 13.7229 15.8496C13.7229 14.9062 13.0549 14.1445 12.2287 14.1445C11.4026 14.1445 10.7346 14.9062 10.7346 15.8496ZM16.2776 15.8496C16.2776 16.793 16.9455 17.5547 17.7717 17.5547C18.592 17.5547 19.2658 16.793 19.2658 15.8496C19.2658 14.9062 18.5979 14.1445 17.7717 14.1445C16.9455 14.1445 16.2776 14.9062 16.2776 15.8496Z" fill="white" fill-opacity="0.2"/>
</svg>
