<svg width="22" height="22" viewBox="0 0 22 22" fill="none" xmlns="http://www.w3.org/2000/svg">
<g clip-path="url(#clip0)">
<path d="M19.9276 2.07282C17.1632 -0.691619 12.6653 -0.691576 9.90089 2.07286C8.01263 3.96112 7.35675 6.74382 8.17436 9.26845L0.189824 17.253C0.0689531 17.3739 0.000976562 17.5375 0.000976562 17.7088V21.355C0.000976562 21.7113 0.289254 21.9995 0.645508 21.9995H4.29175C4.46294 21.9995 4.62661 21.9316 4.74743 21.8107L5.65884 20.8986C5.79793 20.7595 5.86591 20.5644 5.84327 20.3687L5.72996 19.3893L7.087 19.2615C7.39543 19.2325 7.63902 18.9889 7.66798 18.6805L7.79577 17.3235L8.77515 17.4374C8.95704 17.4619 9.14021 17.4008 9.27806 17.2788C9.41526 17.1561 9.49393 16.981 9.49393 16.7973V15.5972H10.6722C10.8434 15.5972 11.0071 15.5292 11.1279 15.4083L12.7808 13.7773C15.3048 14.5956 18.0393 13.9891 19.9276 12.0996C22.692 9.33518 22.692 4.83726 19.9276 2.07282ZM18.1042 6.63051C17.3502 7.38457 16.1241 7.38457 15.37 6.63051C14.6159 5.87646 14.6159 4.65034 15.37 3.89628C16.1241 3.14223 17.3502 3.14223 18.1042 3.89628C18.8583 4.65034 18.8582 5.87646 18.1042 6.63051Z" fill="white"/>
</g>
<defs>
<clipPath id="clip0">
<rect width="22" height="22" fill="white"/>
</clipPath>
</defs>
</svg>
