<svg width="155" height="182" viewBox="0 0 155 182" fill="none" xmlns="http://www.w3.org/2000/svg">
<path d="M136.316 55.9433L143.452 48.8075C146.225 46.0346 146.225 41.5385 143.452 38.7669C140.679 35.994 136.184 35.994 133.411 38.7669L126.275 45.9027C114.303 35.9273 99.7555 29.901 84.2371 28.4903V14.2007H91.1007C95.022 14.2007 98.2004 11.0209 98.2004 7.09966C98.2004 3.17839 95.022 0 91.1007 0H63.1728C59.2516 0 56.0732 3.17839 56.0732 7.09966C56.0732 11.0209 59.2516 14.2007 63.1728 14.2007H70.0364V28.4903C31.1904 32.0227 0.21875 64.6564 0.21875 105.081C0.21875 147.593 34.6201 182 77.1375 182C119.648 182 154.055 147.599 154.055 105.081C154.055 86.9218 147.801 69.7246 136.316 55.9433ZM77.1361 167.799C42.5542 167.799 14.4181 139.665 14.4181 105.081C14.4181 70.4995 42.5542 42.3647 77.1361 42.3647C111.719 42.3647 139.854 70.4995 139.854 105.081C139.854 139.665 111.719 167.799 77.1361 167.799ZM110.041 72.1782C112.813 74.9511 112.813 79.4473 110.041 82.2188L82.1571 110.102C79.3841 112.875 74.888 112.875 72.1165 110.102C69.3435 107.329 69.3435 102.833 72.1165 100.062L99.9985 72.1782C102.771 69.4053 107.268 69.4053 110.041 72.1782Z" fill="white" fill-opacity="0.1"/>
</svg>
