<svg width="22" height="22" viewBox="0 0 22 22" fill="none" xmlns="http://www.w3.org/2000/svg">
<g clip-path="url(#clip0)">
<path d="M19.8161 8.52898C18.9371 6.92384 17.7335 5.92164 16.2387 5.55026C14.4908 5.11593 12.7629 5.66051 11.6996 6.13863C11.7585 5.05929 11.6741 4.10457 11.4482 3.27871C11.8903 3.85664 12.8155 4.81222 14.2065 5.00563C14.3738 5.02887 14.5418 5.04052 14.7109 5.04052C16.0156 5.04052 17.3688 4.34786 18.7407 2.97595L19.1965 2.52022L18.7407 2.06449C17.1911 0.514867 15.6655 -0.167951 14.2065 0.034862C12.227 0.310034 11.1908 2.12882 11.1476 2.20608L11.0898 2.3098C10.885 1.88377 10.6307 1.50354 10.3262 1.17113C9.4361 0.199476 8.45714 0.0246784 8.34847 0.00800649L8.1524 1.28208C8.17878 1.28616 10.6905 1.72745 10.4049 6.18594C9.35256 5.69777 7.56768 5.10157 5.76192 5.5503C4.26712 5.92168 3.06352 6.92388 2.1845 8.52903C1.31731 10.1126 1.08407 12.0619 1.51002 14.1662C1.87934 15.991 2.71908 17.807 3.87455 19.28C5.24719 21.0298 6.84473 22.0001 8.28853 22C8.54505 21.9999 8.79711 21.9692 9.04181 21.9069C9.23208 21.8739 10.143 21.7006 11.0004 21.2714C11.8577 21.7006 12.7687 21.8739 12.9589 21.9069C13.2037 21.9692 13.4556 22 13.7122 22C15.1559 22 16.7536 21.0296 18.1262 19.28C19.2817 17.807 20.1214 15.9909 20.4907 14.1662C20.9166 12.0618 20.6833 10.1126 19.8161 8.52898Z" fill="white"/>
</g>
<defs>
<clipPath id="clip0">
<rect width="22" height="22" fill="white"/>
</clipPath>
</defs>
</svg>
