<svg width="40" height="40" viewBox="0 0 40 40" fill="none" xmlns="http://www.w3.org/2000/svg">
<g clip-path="url(#clip0)">
<path d="M27.226 26.6141C29.1529 23.9356 30.3375 20.8577 30.7073 17.6089L20.0011 14.5645L9.29492 17.6089C9.66463 20.8576 10.8492 23.9356 12.7762 26.6141C14.6524 29.222 17.1423 31.32 20.0011 32.7078C22.8599 31.32 25.3499 29.222 27.226 26.6141Z" fill="#B6D300"/>
<path d="M19.9995 12.0805L30.831 15.1605V10.1925L19.9995 7.11243L9.16797 10.1925V15.1605L19.9995 12.0805Z" fill="#B6D300"/>
<path d="M21.1934 0V4.96807L33.2195 8.38788V15.3981C33.2195 19.9597 31.8169 24.3207 29.1632 28.0095C27.0886 30.893 24.3447 33.222 21.1934 34.7826V40.0001C25.952 38.1457 30.036 34.979 33.0422 30.8002C36.2843 26.2935 37.9981 20.9675 37.9981 15.3981V4.7786L21.1934 0Z" fill="#B6D300"/>
<path d="M18.8047 34.7826C15.6534 33.2219 12.9094 30.8929 10.835 28.0095C8.18128 24.3207 6.7786 19.9597 6.7786 15.398V8.3878L18.8047 4.96799V0L2 4.7786V15.398C2 20.9674 3.71377 26.2934 6.95589 30.8001C9.96219 34.979 14.0462 38.1457 18.8047 40V34.7826Z" fill="#B6D300"/>
</g>
<defs>
<clipPath id="clip0">
<rect width="40" height="40" fill="white"/>
</clipPath>
</defs>
</svg>
