<svg width="22" height="22" viewBox="0 0 22 22" fill="none" xmlns="http://www.w3.org/2000/svg">
<g clip-path="url(#clip0)">
<path d="M15.285 16.5333C11.0177 16.5333 7.55825 13.0739 7.55825 8.80655C7.55825 6.13987 8.90918 3.78866 10.964 2.40003C10.7259 2.38272 10.4854 2.37378 10.2428 2.37378C4.82316 2.37378 0.429688 6.76725 0.429688 12.1869C0.429688 17.6066 4.82316 22 10.2428 22C14.5985 22 18.2913 19.1622 19.5733 15.2346C18.3464 16.0548 16.8716 16.5333 15.285 16.5333Z" fill="#EE443A"/>
<path d="M18.8816 4.03936L21.288 0H16.8852V1.28906H19.0196L16.6133 5.32843H21.5688V4.03936H18.8816Z" fill="#EE443A"/>
<path d="M15.1995 4.90948H11.2184V6.19855H12.9312L11.0742 9.31563H15.1572V8.02657H13.3426L15.1995 4.90948Z" fill="#EE443A"/>
<path d="M17.6004 12.2357L18.7757 10.2628H15.4493V11.5518H16.5074L15.332 13.5247H18.8223V12.2357H17.6004Z" fill="#EE443A"/>
</g>
<defs>
<clipPath id="clip0">
<rect width="22" height="22" fill="white"/>
</clipPath>
</defs>
</svg>
