<svg width="22" height="22" viewBox="0 0 22 22" fill="none" xmlns="http://www.w3.org/2000/svg">
<path d="M18.6873 8.22577L18.6541 8.18087L18.6475 8.16772L15.635 3.69562L12.6224 8.16777L12.6161 8.18031L12.5826 8.22582C12.0992 8.88049 11.8438 9.65827 11.8438 10.4751C11.8438 12.5657 13.5445 14.2663 15.6349 14.2663C17.7254 14.2663 19.4261 12.5656 19.4261 10.4751C19.4262 9.65822 19.1707 8.88036 18.6873 8.22577Z" fill="white"/>
<path d="M15.6356 15.558C12.8328 15.558 10.5527 13.2778 10.5527 10.4751C10.5527 9.3856 10.8921 8.34743 11.5343 7.47181L13.5147 4.53192L10.4617 0L4.10084 9.44253C3.10074 10.8035 2.57227 12.4172 2.57227 14.1105C2.57227 18.4608 6.11148 22 10.4618 22C14.5837 22 17.977 18.8224 18.3218 14.7882C17.5419 15.2758 16.6212 15.558 15.6356 15.558Z" fill="white"/>
</svg>
