<svg width="30" height="30" viewBox="0 0 30 30" fill="none" xmlns="http://www.w3.org/2000/svg">
<g clip-path="url(#clip0)">
<path d="M4.38281 16.828C5.08667 17.5327 5.37508 18.5713 5.13472 19.5387C4.7648 21.027 5.20855 22.6253 6.29176 23.7085C7.37497 24.7917 8.97149 25.2321 10.4607 24.8656C11.4324 24.6235 12.4684 24.9136 13.1722 25.6175L14.4151 24.3746L5.62564 15.5851L4.38281 16.828Z" fill="white"/>
<path d="M4.50071 29.2281L7.35534 26.373C6.49485 26.0688 5.69648 25.5992 5.04876 24.9514C4.39447 24.2975 3.91844 23.5057 3.61696 22.6541L0.771229 25.5003C-0.257077 26.5286 -0.257077 28.2007 0.771229 29.229C1.79948 30.2573 3.47228 30.2566 4.50071 29.2281Z" fill="white"/>
<path d="M17.4668 3.83374L20.9821 0.318488L22.2248 1.56119L18.7095 5.07644L17.4668 3.83374Z" fill="white"/>
<path d="M7.77148 1.56018L9.01419 0.317478L12.5294 3.83273L11.2867 5.07543L7.77148 1.56018Z" fill="white"/>
<path d="M14.1211 0.000183105H15.879V5.33244H14.1211V0.000183105Z" fill="white"/>
<path d="M16.8269 25.6175C17.5308 24.9136 18.5668 24.6235 19.5384 24.8656C21.0276 25.2321 22.6241 24.7917 23.7074 23.7085C24.7906 22.6253 25.2344 21.027 24.8644 19.5387C24.624 18.5713 24.9125 17.5328 25.6163 16.828L24.3734 15.5851L15.584 24.3746L16.8269 25.6175Z" fill="white"/>
<path d="M26.3829 22.6541C26.0814 23.5057 25.6053 24.2974 24.9511 24.9514C24.3034 25.5992 23.505 26.0688 22.6445 26.373L25.4992 29.2281C26.5276 30.2566 28.2004 30.2573 29.2286 29.229C30.2569 28.2007 30.2569 26.5287 29.2286 25.5004L26.3829 22.6541Z" fill="white"/>
<path d="M11.2709 13.7574L13.7567 11.2716L4.24366 1.75813C3.12611 0.640584 1.57934 0.000244141 0 0.000244141C0 1.57959 0.64034 3.12636 1.75789 4.2439L11.2709 13.7574Z" fill="white"/>
<path d="M16.2402 18.7289L18.7256 16.2435L19.9765 17.4943L17.4911 19.9797L16.2402 18.7289Z" fill="white"/>
<path d="M10.0195 17.4943L12.5053 19.9801L28.2416 4.24384C29.3591 3.12629 29.9994 1.57953 29.9994 0.000183105C28.4201 0.000183105 26.8733 0.640523 25.7558 1.75807L10.0195 17.4943Z" fill="white"/>
</g>
<defs>
<clipPath id="clip0">
<rect width="30" height="30" fill="white"/>
</clipPath>
</defs>
</svg>
